G04 EAGLE Gerber RS-274X export*
G75*
%MOMM*%
%FSLAX34Y34*%
%LPD*%
%INTop Copper*%
%IPPOS*%
%AMOC8*
5,1,8,0,0,1.08239X$1,22.5*%
G01*
%ADD10R,2.250000X4.375000*%
%ADD11R,3.750000X1.250000*%
%ADD12R,2.500000X1.000000*%
%ADD13R,2.500000X0.750000*%
%ADD14R,2.500000X1.625000*%
%ADD15R,5.000000X1.500000*%
%ADD16R,2.500000X4.125000*%
%ADD17R,8.125000X3.625000*%
%ADD18R,9.625000X3.625000*%
%ADD19R,2.300000X1.300000*%
%ADD20R,2.500000X8.450000*%
%ADD21R,7.750000X3.600000*%
%ADD22R,5.500000X1.250000*%
%ADD23R,1.750000X1.500000*%
%ADD24R,1.250000X1.500000*%
%ADD25R,4.250000X2.250000*%
%ADD26R,3.375000X1.500000*%
%ADD27R,3.500000X1.250000*%
%ADD28R,0.500000X0.750000*%
%ADD29R,0.500000X1.500000*%
%ADD30R,2.500000X7.750000*%
%ADD31R,11.000000X3.500000*%
%ADD32R,2.500000X5.250000*%
%ADD33R,2.750000X0.500000*%
%ADD34R,5.500000X1.500000*%
%ADD35R,1.125000X1.000000*%
%ADD36R,2.125000X2.000000*%
%ADD37R,1.397000X2.590800*%
%ADD38R,4.300000X3.640000*%
%ADD39R,4.300000X1.240000*%
%ADD40R,4.300000X2.840000*%
%ADD41R,6.000000X2.000000*%
%ADD42R,2.000000X2.000000*%
%ADD43R,7.000000X2.000000*%
%ADD44R,5.000000X8.000000*%
%ADD45R,1.400000X1.000000*%
%ADD46R,1.270000X2.540000*%
%ADD47C,2.184400*%
%ADD48R,2.540000X1.270000*%
%ADD49R,3.810000X1.905000*%
%ADD50R,1.524000X1.270000*%
%ADD51R,1.270000X1.524000*%
%ADD52R,2.540000X1.524000*%
%ADD53C,1.000000*%
%ADD54C,1.270000*%
%ADD55C,0.906400*%
%ADD56C,1.016000*%
%ADD57C,2.000000*%
%ADD58C,0.756400*%


D10*
X40500Y93125D03*
D11*
X-58250Y90000D03*
D12*
X-64500Y98750D03*
D13*
X-64500Y106250D03*
D14*
X-27000Y130625D03*
D15*
X-77000Y151250D03*
D16*
X-64500Y158125D03*
D17*
X-92625Y188375D03*
D18*
X8625Y188375D03*
D19*
X-7500Y89500D03*
D20*
X-64500Y55250D03*
D21*
X-38250Y28000D03*
D22*
X-27500Y78750D03*
D23*
X26250Y-35000D03*
D24*
X60000Y-21250D03*
D25*
X36250Y23750D03*
D26*
X36875Y38750D03*
D27*
X418750Y61250D03*
D14*
X72500Y-11875D03*
D28*
X55000Y36250D03*
D29*
X57500Y30000D03*
D30*
X-112500Y121250D03*
D31*
X-70000Y-27500D03*
D32*
X-112500Y8750D03*
D33*
X-88750Y157500D03*
D34*
X-97500Y165000D03*
D35*
X108125Y11250D03*
D36*
X83125Y58750D03*
D37*
X362670Y78308D03*
X336666Y78308D03*
D38*
X250Y28000D03*
X250Y-28000D03*
D39*
X250Y0D03*
D40*
X330250Y32000D03*
X330250Y0D03*
X330250Y-32000D03*
D41*
X375250Y0D03*
D42*
X395250Y0D03*
D43*
X380250Y-30000D03*
X380250Y30000D03*
D44*
X440250Y0D03*
X440250Y0D03*
D45*
X95350Y60050D03*
X117350Y69550D03*
X117350Y50550D03*
X151100Y60050D03*
X129100Y50550D03*
X129100Y69550D03*
D46*
X28038Y84250D03*
X-538Y84250D03*
D47*
X5097Y152903D03*
X40403Y117597D03*
D37*
X106752Y-6000D03*
X80748Y-6000D03*
D48*
X52150Y-9588D03*
X52150Y18988D03*
D49*
X-88000Y190500D03*
X2000Y187250D03*
X446250Y58750D03*
D37*
X78302Y76800D03*
X52298Y76800D03*
D50*
X397500Y38570D03*
X397500Y61430D03*
D51*
X36770Y-35150D03*
X59630Y-35150D03*
X108570Y22250D03*
X131430Y22250D03*
D48*
X-26999Y89462D03*
X-27000Y118038D03*
X-64551Y143238D03*
X-64550Y114662D03*
D49*
X446250Y-58750D03*
D52*
X-112000Y79050D03*
X-112000Y40950D03*
X-27000Y174050D03*
X-27000Y135950D03*
D51*
X54270Y43900D03*
X77130Y43900D03*
D53*
X336362Y78612D02*
X336666Y78308D01*
X336362Y78612D02*
X336250Y81250D01*
X122405Y69550D02*
X117350Y69550D01*
X331666Y83308D02*
X336666Y78308D01*
X331666Y83308D02*
X180000Y83308D01*
X169137Y83308D01*
X169163Y83282D01*
X136137Y83282D01*
X122405Y69550D01*
X180000Y83308D02*
X180000Y45000D01*
X157250Y22250D02*
X131430Y22250D01*
X157250Y22250D02*
X180000Y45000D01*
D54*
X438750Y60000D02*
X446250Y58750D01*
X438750Y60000D02*
X436250Y61250D01*
D55*
X415000Y61250D03*
D53*
X383590Y78308D02*
X362670Y78308D01*
X383590Y78308D02*
X400468Y61430D01*
D56*
X82748Y-1002D02*
X80748Y-6000D01*
X250Y22713D02*
X250Y28000D01*
D57*
X5097Y148347D02*
X5097Y152903D01*
X-13250Y130000D02*
X-28250Y130000D01*
X-13250Y130000D02*
X5097Y148347D01*
D56*
X416250Y-60000D02*
X447500Y-60000D01*
D55*
X416250Y-60000D03*
D58*
X-73250Y90000D03*
X-53250Y90000D03*
X-63250Y90000D03*
M02*
