G04 EAGLE Gerber RS-274X export*
G75*
%MOMM*%
%FSLAX34Y34*%
%LPD*%
%INTop Copper*%
%IPPOS*%
%AMOC8*
5,1,8,0,0,1.08239X$1,22.5*%
G01*
%ADD10R,4.000000X2.250000*%
%ADD11R,4.375000X2.250000*%
%ADD12R,1.625000X1.250000*%
%ADD13R,2.250000X1.250000*%
%ADD14R,1.500000X0.750000*%
%ADD15R,1.500000X2.625000*%
%ADD16R,3.250000X1.125000*%
%ADD17R,2.000000X2.500000*%
%ADD18R,1.250000X3.750000*%
%ADD19R,1.000000X2.500000*%
%ADD20R,2.000000X0.625000*%
%ADD21R,0.750000X2.500000*%
%ADD22R,1.625000X2.500000*%
%ADD23R,2.250000X2.000000*%
%ADD24R,6.875000X2.625000*%
%ADD25R,1.500000X5.000000*%
%ADD26R,4.125000X2.500000*%
%ADD27R,3.625000X8.125000*%
%ADD28R,3.625000X9.625000*%
%ADD29R,1.397000X2.590800*%
%ADD30R,4.300000X3.640000*%
%ADD31R,4.300000X1.240000*%
%ADD32R,4.300000X2.840000*%
%ADD33R,6.000000X2.000000*%
%ADD34R,2.000000X2.000000*%
%ADD35R,7.000000X2.000000*%
%ADD36R,5.000000X8.000000*%
%ADD37R,1.400000X1.000000*%
%ADD38R,2.540000X1.270000*%
%ADD39C,2.184400*%
%ADD40R,1.905000X3.810000*%
%ADD41R,3.810000X1.905000*%
%ADD42R,1.524000X1.270000*%
%ADD43R,1.270000X2.540000*%
%ADD44R,1.524000X2.540000*%
%ADD45C,1.016000*%
%ADD46C,1.350000*%
%ADD47C,1.270000*%
%ADD48C,0.906400*%
%ADD49C,2.000000*%
%ADD50C,0.756400*%


D10*
X-38750Y31250D03*
D11*
X-55625Y78750D03*
D12*
X28125Y28750D03*
D13*
X31250Y-38750D03*
D14*
X48750Y-8750D03*
D15*
X150000Y66875D03*
D16*
X-36250Y15625D03*
D17*
X-27500Y-27500D03*
D18*
X-52500Y-20000D03*
D19*
X-61250Y-26250D03*
D20*
X-27500Y-13125D03*
D21*
X-68750Y-26250D03*
D22*
X-93125Y11250D03*
D23*
X-26250Y-50000D03*
D24*
X-49375Y-73125D03*
D25*
X-113750Y-38750D03*
D26*
X-120625Y-26250D03*
D27*
X-151875Y-54375D03*
D28*
X-151875Y46875D03*
D29*
X371670Y79308D03*
X345666Y79308D03*
D30*
X250Y28000D03*
X250Y-28000D03*
D31*
X250Y0D03*
D32*
X330250Y32000D03*
X330250Y0D03*
X330250Y-32000D03*
D33*
X375250Y0D03*
D34*
X395250Y0D03*
D35*
X380250Y-30000D03*
X380250Y30000D03*
D36*
X440250Y0D03*
X440250Y0D03*
D37*
X59750Y59000D03*
X81750Y68500D03*
X81750Y49500D03*
X124250Y59000D03*
X102250Y49500D03*
X102250Y68500D03*
D38*
X-46750Y66288D03*
X-46750Y37713D03*
D39*
X-115403Y43347D03*
X-80097Y78653D03*
D29*
X126752Y7000D03*
X100748Y7000D03*
D38*
X48250Y213D03*
X48250Y28788D03*
D40*
X-153000Y-49750D03*
X-149750Y40250D03*
D41*
X446250Y58750D03*
D29*
X35502Y80000D03*
X9498Y80000D03*
D42*
X397500Y38570D03*
X397500Y61430D03*
X48750Y-38930D03*
X48750Y-16070D03*
X150000Y28570D03*
X150000Y51430D03*
D43*
X-51962Y11251D03*
X-80538Y11250D03*
X-105738Y-26301D03*
X-77162Y-26300D03*
D41*
X446250Y-58750D03*
D44*
X-114050Y-73750D03*
X-75950Y-73750D03*
X-136550Y11250D03*
X-98450Y11250D03*
D45*
X81750Y49500D02*
X102250Y49500D01*
X102250Y68500D02*
X81750Y68500D01*
D46*
X345666Y79308D02*
X347474Y82500D01*
D45*
X111250Y82500D01*
X102250Y73500D01*
X102250Y68500D01*
D47*
X438750Y60000D02*
X446250Y58750D01*
X438750Y60000D02*
X436250Y61250D01*
X415000Y61250D01*
X396250Y61250D01*
D45*
X396250Y72500D01*
X388750Y80000D01*
X372500Y80000D01*
D48*
X415000Y61250D03*
D45*
X9498Y80000D02*
X-78750Y80000D01*
X-80097Y78653D01*
X100748Y7000D02*
X100748Y1998D01*
X100000Y1250D01*
X49288Y1250D01*
X48250Y213D01*
X250Y22713D02*
X250Y28000D01*
X35502Y80000D02*
X46250Y80000D01*
X58750Y67500D01*
X58750Y60000D01*
X59750Y59000D01*
X150000Y28570D02*
X150000Y13750D01*
X143250Y7000D01*
X126752Y7000D01*
D49*
X-110847Y43347D02*
X-115403Y43347D01*
X-92500Y25000D02*
X-92500Y10000D01*
X-92500Y25000D02*
X-110847Y43347D01*
D45*
X416250Y-60000D02*
X447500Y-60000D01*
D48*
X416250Y-60000D03*
D50*
X-52500Y-35000D03*
X-52500Y-15000D03*
X-52500Y-25000D03*
M02*
