G04 EAGLE Gerber RS-274X export*
G75*
%MOMM*%
%FSLAX34Y34*%
%LPD*%
%INSoldermask Top*%
%IPPOS*%
%AMOC8*
5,1,8,0,0,1.08239X$1,22.5*%
G01*
%ADD10C,1.203200*%
%ADD11R,9.750000X3.750000*%
%ADD12R,8.250000X3.750000*%
%ADD13R,1.600200X2.794000*%
%ADD14C,0.853200*%
%ADD15C,1.053200*%
%ADD16R,4.503200X3.843200*%
%ADD17R,4.503200X1.443200*%
%ADD18R,4.503200X3.043200*%
%ADD19R,2.203200X2.203200*%
%ADD20R,5.203200X8.203200*%
%ADD21R,1.603200X1.203200*%
%ADD22R,1.473200X2.743200*%
%ADD23C,2.387600*%
%ADD24R,2.743200X1.473200*%
%ADD25R,4.013200X2.108200*%
%ADD26R,1.727200X1.473200*%
%ADD27R,1.473200X1.727200*%
%ADD28R,2.743200X1.727200*%
%ADD29C,1.109600*%
%ADD30C,0.959600*%


D10*
X91250Y-57500D03*
X148750Y-57500D03*
X271250Y-57500D03*
X206250Y50000D03*
X268750Y50000D03*
X193750Y-10000D03*
X268750Y-7500D03*
X208750Y-57500D03*
D11*
X8625Y188375D03*
D12*
X-92625Y188375D03*
D13*
X362670Y78308D03*
X336666Y78308D03*
D14*
X322250Y-55500D03*
D15*
X322250Y55500D03*
D14*
X-7750Y-55500D03*
D15*
X-7750Y55500D03*
D16*
X250Y28000D03*
X250Y-28000D03*
D17*
X250Y0D03*
D18*
X330250Y32000D03*
X330250Y0D03*
X330250Y-32000D03*
D19*
X395250Y0D03*
D20*
X440250Y0D03*
D21*
X95350Y60050D03*
X117350Y69550D03*
X117350Y50550D03*
X151100Y60050D03*
X129100Y50550D03*
X129100Y69550D03*
D22*
X28038Y84250D03*
X-538Y84250D03*
D23*
X5097Y152903D03*
X40403Y117597D03*
D13*
X106752Y-6000D03*
X80748Y-6000D03*
D24*
X52150Y-9588D03*
X52150Y18988D03*
D25*
X-88000Y190500D03*
X2000Y187250D03*
X446250Y58750D03*
D13*
X78302Y76800D03*
X52298Y76800D03*
D26*
X397500Y38570D03*
X397500Y61430D03*
D27*
X36770Y-35150D03*
X59630Y-35150D03*
X108570Y22250D03*
X131430Y22250D03*
D24*
X-26999Y89462D03*
X-27000Y118038D03*
X-64551Y143238D03*
X-64550Y114662D03*
D25*
X446250Y-58750D03*
D28*
X-112000Y79050D03*
X-112000Y40950D03*
X-27000Y174050D03*
X-27000Y135950D03*
D27*
X54270Y43900D03*
X77130Y43900D03*
D29*
X415000Y61250D03*
X416250Y-60000D03*
D30*
X-73250Y90000D03*
X-53250Y90000D03*
X-63250Y90000D03*
M02*
