G04 EAGLE Gerber RS-274X export*
G75*
%MOMM*%
%FSLAX34Y34*%
%LPD*%
%INTop Copper*%
%IPPOS*%
%AMOC8*
5,1,8,0,0,1.08239X$1,22.5*%
G01*
%ADD10R,2.250000X4.000000*%
%ADD11R,2.250000X4.375000*%
%ADD12R,1.625000X1.250000*%
%ADD13R,2.250000X1.250000*%
%ADD14R,1.500000X0.750000*%
%ADD15R,1.500000X2.625000*%
%ADD16R,1.125000X3.250000*%
%ADD17R,2.500000X1.000000*%
%ADD18R,2.500000X0.750000*%
%ADD19R,2.500000X1.625000*%
%ADD20R,2.000000X2.250000*%
%ADD21R,2.625000X6.875000*%
%ADD22R,5.000000X1.500000*%
%ADD23R,2.500000X4.125000*%
%ADD24R,8.125000X3.625000*%
%ADD25R,9.625000X3.625000*%
%ADD26R,1.875000X0.875000*%
%ADD27R,5.000000X1.750000*%
%ADD28R,4.100000X1.100000*%
%ADD29R,2.000000X0.200000*%
%ADD30R,1.397000X2.590800*%
%ADD31R,4.300000X3.640000*%
%ADD32R,4.300000X1.240000*%
%ADD33R,4.300000X2.840000*%
%ADD34R,6.000000X2.000000*%
%ADD35R,2.000000X2.000000*%
%ADD36R,7.000000X2.000000*%
%ADD37R,5.000000X8.000000*%
%ADD38R,1.400000X1.000000*%
%ADD39R,1.270000X2.540000*%
%ADD40C,2.184400*%
%ADD41R,2.540000X1.270000*%
%ADD42R,3.810000X1.905000*%
%ADD43R,2.590800X1.397000*%
%ADD44R,1.524000X1.270000*%
%ADD45R,2.540000X1.524000*%
%ADD46R,1.270000X1.524000*%
%ADD47C,1.016000*%
%ADD48C,1.000000*%
%ADD49C,1.270000*%
%ADD50C,0.906400*%
%ADD51C,2.000000*%
%ADD52C,0.756400*%
%ADD53C,2.184400*%


D10*
X-70000Y-74250D03*
D11*
X-117500Y-91125D03*
D12*
X28125Y28750D03*
D13*
X31250Y-38750D03*
D14*
X48750Y-8750D03*
D15*
X148000Y66875D03*
D16*
X-54375Y-71750D03*
D17*
X-11500Y-96750D03*
D18*
X-11500Y-104250D03*
D19*
X-50000Y-128625D03*
D20*
X21250Y-43750D03*
D21*
X34375Y-84875D03*
D22*
X1000Y-149250D03*
D23*
X-11500Y-156125D03*
D24*
X16625Y-187375D03*
D25*
X-85625Y-187375D03*
D26*
X38125Y-48125D03*
D27*
X22500Y-163750D03*
D28*
X-19500Y-86500D03*
D29*
X-30000Y-93000D03*
D30*
X371670Y79308D03*
X345666Y79308D03*
D31*
X250Y28000D03*
X250Y-28000D03*
D32*
X250Y0D03*
D33*
X330250Y32000D03*
X330250Y0D03*
X330250Y-32000D03*
D34*
X375250Y0D03*
D35*
X395250Y0D03*
D36*
X380250Y-30000D03*
X380250Y30000D03*
D37*
X440250Y0D03*
X440250Y0D03*
D38*
X61450Y66700D03*
X83450Y76200D03*
X83450Y57200D03*
X125950Y66700D03*
X103950Y57200D03*
X103950Y76200D03*
D39*
X-105038Y-82250D03*
X-76463Y-82250D03*
D40*
X-82097Y-150903D03*
X-117403Y-115597D03*
D30*
X126752Y7000D03*
X100748Y7000D03*
D41*
X48250Y213D03*
X48250Y28788D03*
D42*
X11000Y-188500D03*
X-79000Y-185250D03*
X446250Y58750D03*
D43*
X-104800Y-7698D03*
X-104800Y-33702D03*
D44*
X397500Y38570D03*
X397500Y61430D03*
X48750Y-38930D03*
X48750Y-16070D03*
X148000Y28570D03*
X148000Y51430D03*
D41*
X-50001Y-87462D03*
X-50000Y-116038D03*
X-11449Y-141238D03*
X-11450Y-112662D03*
D42*
X446250Y-58750D03*
D45*
X35000Y-149550D03*
X35000Y-111450D03*
X-50000Y-172050D03*
X-50000Y-133950D03*
D46*
X-72020Y14100D03*
X-94880Y14100D03*
D47*
X83450Y57200D02*
X103950Y57200D01*
X103950Y76200D02*
X83450Y76200D01*
X109250Y82500D02*
X347474Y82500D01*
X109250Y82500D02*
X103950Y81200D01*
X103950Y76200D01*
D48*
X345666Y79308D02*
X345948Y79590D01*
X347474Y79590D01*
D49*
X438750Y60000D02*
X446250Y58750D01*
X438750Y60000D02*
X436250Y61250D01*
X415000Y61250D01*
X396250Y61250D01*
D47*
X396250Y72500D01*
X388750Y80000D01*
X372500Y80000D01*
D50*
X415000Y61250D03*
D47*
X-101900Y-40450D02*
X-104800Y-33702D01*
X-101900Y-40450D02*
X-101900Y-41700D01*
X-101900Y-40450D02*
X-99400Y-37950D01*
X-96900Y-37950D01*
X-122350Y-37900D01*
X-122500Y-50250D01*
X-115250Y-50750D01*
X-114830Y-50795D01*
X-114408Y-50830D01*
X-113986Y-50854D01*
X-113564Y-50868D01*
X-113141Y-50872D01*
X-112719Y-50865D01*
X-112296Y-50848D01*
X-111875Y-50821D01*
X-111454Y-50783D01*
X-111034Y-50735D01*
X-110615Y-50677D01*
X-110198Y-50608D01*
X-109783Y-50530D01*
X-109369Y-50441D01*
X-108959Y-50342D01*
X-108550Y-50232D01*
X-108145Y-50113D01*
X-107742Y-49984D01*
X-107343Y-49845D01*
X-106947Y-49697D01*
X-106555Y-49539D01*
X-106167Y-49371D01*
X-105784Y-49193D01*
X-105404Y-49007D01*
X-105030Y-48811D01*
X-104660Y-48606D01*
X-104296Y-48392D01*
X-103937Y-48169D01*
X-103583Y-47937D01*
X-103236Y-47697D01*
X-102894Y-47448D01*
X-102558Y-47191D01*
X-102229Y-46926D01*
X-101907Y-46652D01*
X-101591Y-46371D01*
X-101282Y-46082D01*
X-100981Y-45786D01*
X-100687Y-45483D01*
X-100400Y-45172D01*
X-100121Y-44854D01*
X-99850Y-44530D01*
X-99587Y-44199D01*
X-99332Y-43862D01*
X-99086Y-43519D01*
X-98848Y-43169D01*
X-98619Y-42814D01*
X-98398Y-42454D01*
X-98187Y-42088D01*
X-97984Y-41717D01*
X-97791Y-41341D01*
X-97607Y-40960D01*
X-97432Y-40575D01*
X-97267Y-40186D01*
X-97111Y-39793D01*
X-96965Y-39397D01*
X-96829Y-38997D01*
X-96703Y-38593D01*
X-96586Y-38187D01*
X-96480Y-37778D01*
X-96384Y-37366D01*
X-96298Y-36952D01*
X-96222Y-36537D01*
X-96156Y-36119D01*
X-96100Y-35700D01*
X-96513Y-35683D01*
X-96927Y-35675D01*
X-97341Y-35678D01*
X-97754Y-35691D01*
X-98167Y-35713D01*
X-98580Y-35746D01*
X-98991Y-35789D01*
X-99402Y-35841D01*
X-99811Y-35904D01*
X-100218Y-35976D01*
X-100624Y-36059D01*
X-101027Y-36151D01*
X-101428Y-36253D01*
X-101826Y-36364D01*
X-102222Y-36485D01*
X-102614Y-36616D01*
X-103004Y-36756D01*
X-103389Y-36906D01*
X-103771Y-37065D01*
X-104149Y-37233D01*
X-104523Y-37410D01*
X-104893Y-37597D01*
X-105258Y-37792D01*
X-105618Y-37996D01*
X-105972Y-38208D01*
X-106322Y-38430D01*
X-106666Y-38659D01*
X-107005Y-38897D01*
X-107338Y-39143D01*
X-107664Y-39397D01*
X-107984Y-39659D01*
X-108298Y-39928D01*
X-108606Y-40205D01*
X-108906Y-40490D01*
X-109200Y-40781D01*
X-109486Y-41080D01*
X-109765Y-41385D01*
X-110037Y-41698D01*
X-110301Y-42016D01*
X-110557Y-42341D01*
X-110805Y-42672D01*
X-111045Y-43009D01*
X-111277Y-43352D01*
X-111500Y-43700D01*
X100748Y1998D02*
X100748Y7000D01*
X100748Y1998D02*
X100000Y1250D01*
X49288Y1250D01*
X48250Y213D01*
X250Y22713D02*
X250Y28000D01*
X-31700Y70602D02*
X-33528Y70517D01*
X-35354Y70388D01*
X-37177Y70215D01*
X-38994Y69998D01*
X-40806Y69737D01*
X-42611Y69432D01*
X-44408Y69084D01*
X-46196Y68693D01*
X-47974Y68258D01*
X-49741Y67780D01*
X-51496Y67260D01*
X-53238Y66698D01*
X-54965Y66094D01*
X-56678Y65448D01*
X-58375Y64761D01*
X-60054Y64033D01*
X-61716Y63265D01*
X-63358Y62457D01*
X-64980Y61610D01*
X-66582Y60723D01*
X-68161Y59798D01*
X-69718Y58835D01*
X-71251Y57835D01*
X-72760Y56798D01*
X-74242Y55725D01*
X-75699Y54617D01*
X-77128Y53473D01*
X-78530Y52296D01*
X-79902Y51084D01*
X-81245Y49840D01*
X-82557Y48564D01*
X-83838Y47257D01*
X-85087Y45919D01*
X-86304Y44551D01*
X-87487Y43154D01*
X-88636Y41730D01*
X-89750Y40277D01*
X-90828Y38799D01*
X-91871Y37294D01*
X-92877Y35765D01*
X-93846Y34212D01*
X-94777Y32636D01*
X-95670Y31038D01*
X-96523Y29419D01*
X-97338Y27780D01*
X-98112Y26121D01*
X-98846Y24444D01*
X-99540Y22750D01*
X-100192Y21040D01*
X-100803Y19315D01*
X-101372Y17575D01*
X-101899Y15822D01*
X-102383Y14057D01*
X-102824Y12280D01*
X-103223Y10494D01*
X-103578Y8698D01*
X-103890Y6894D01*
X-104158Y5084D01*
X-104382Y3267D01*
X-104562Y1446D01*
X-104698Y-380D01*
X-104790Y-2208D01*
X-104838Y-4038D01*
X-104841Y-5868D01*
X-104800Y-7698D01*
X-31700Y70602D02*
X60350Y70500D01*
X61450Y66700D02*
X62900Y66700D01*
X60350Y66600D01*
X60050Y66900D01*
X60350Y70500D01*
X61450Y66700D01*
X148000Y28570D02*
X148000Y13750D01*
X143250Y7000D01*
X126752Y7000D01*
D51*
X-82097Y-146347D02*
X-82097Y-150903D01*
X-63750Y-128000D02*
X-48750Y-128000D01*
X-63750Y-128000D02*
X-82097Y-146347D01*
D47*
X416250Y-60000D02*
X447500Y-60000D01*
D50*
X416250Y-60000D03*
D52*
X-3750Y-88000D03*
X-23750Y-88000D03*
X-13750Y-88000D03*
D53*
X-117500Y-78000D02*
X-117500Y-51750D01*
X-62500Y-69250D02*
X-59500Y-61750D01*
X-58000Y-60000D02*
X-58000Y-7000D01*
X-57918Y-6265D01*
X-57817Y-5532D01*
X-57698Y-4801D01*
X-57562Y-4074D01*
X-57408Y-3350D01*
X-57235Y-2630D01*
X-57046Y-1915D01*
X-56839Y-1205D01*
X-56614Y-500D01*
X-56372Y200D01*
X-56113Y893D01*
X-55838Y1580D01*
X-55545Y2259D01*
X-55236Y2931D01*
X-54910Y3596D01*
X-54569Y4252D01*
X-54211Y4900D01*
X-53837Y5539D01*
X-53448Y6168D01*
X-53044Y6788D01*
X-52624Y7397D01*
X-52190Y7996D01*
X-51741Y8585D01*
X-51278Y9162D01*
X-50800Y9727D01*
X-50309Y10281D01*
X-49805Y10822D01*
X-49287Y11351D01*
X-48757Y11867D01*
X-48214Y12370D01*
X-47659Y12859D01*
X-47092Y13335D01*
X-46514Y13796D01*
X-45924Y14244D01*
X-45324Y14676D01*
X-44713Y15094D01*
X-44092Y15496D01*
X-43462Y15884D01*
X-42822Y16255D01*
X-42173Y16611D01*
X-41516Y16951D01*
X-40850Y17275D01*
X-40177Y17582D01*
X-39496Y17872D01*
X-38809Y18146D01*
X-38115Y18403D01*
X-37415Y18642D01*
X-36709Y18865D01*
X-35998Y19070D01*
X-35282Y19257D01*
X-34562Y19427D01*
X-33838Y19579D01*
X-33110Y19714D01*
X-32379Y19830D01*
X-31646Y19929D01*
X-30910Y20009D01*
X-30173Y20072D01*
X-29434Y20116D01*
X-28695Y20142D01*
X-27955Y20150D01*
X-27215Y20140D01*
X-26476Y20111D01*
X-25737Y20065D01*
X-25000Y20000D01*
X-10000Y20000D01*
X-13000Y35000D02*
X-18000Y35000D01*
X-19000Y35000D01*
X-20300Y34886D01*
X-21596Y34740D01*
X-22888Y34562D01*
X-24176Y34353D01*
X-25458Y34112D01*
X-26733Y33840D01*
X-28002Y33536D01*
X-29263Y33202D01*
X-30515Y32836D01*
X-31758Y32440D01*
X-32991Y32014D01*
X-34213Y31557D01*
X-35423Y31071D01*
X-36621Y30555D01*
X-37807Y30009D01*
X-38978Y29435D01*
X-40135Y28832D01*
X-41277Y28201D01*
X-42402Y27543D01*
X-43512Y26856D01*
X-44604Y26143D01*
X-45679Y25403D01*
X-46734Y24637D01*
X-47771Y23846D01*
X-48788Y23029D01*
X-49785Y22187D01*
X-50761Y21322D01*
X-51715Y20432D01*
X-52647Y19520D01*
X-53557Y18584D01*
X-54443Y17627D01*
X-55305Y16648D01*
X-56143Y15649D01*
X-56957Y14629D01*
X-57745Y13589D01*
X-58507Y12531D01*
X-59244Y11454D01*
X-59953Y10359D01*
X-60635Y9248D01*
X-61290Y8119D01*
X-61917Y6976D01*
X-62516Y5817D01*
X-63086Y4643D01*
X-63628Y3456D01*
X-64140Y2257D01*
X-64622Y1045D01*
X-65074Y-179D01*
X-65497Y-1413D01*
X-65888Y-2657D01*
X-66250Y-3911D01*
X-66580Y-5173D01*
X-66879Y-6443D01*
X-67147Y-7719D01*
X-67384Y-9002D01*
X-67589Y-10290D01*
X-67762Y-11583D01*
X-67904Y-12880D01*
X-68014Y-14180D01*
X-68091Y-15482D01*
X-68137Y-16786D01*
X-68151Y-18090D01*
X-68133Y-19395D01*
X-68082Y-20698D01*
X-68000Y-22000D01*
X-68000Y-58000D01*
X-70000Y-54000D02*
X-70000Y-25000D01*
X-70082Y-23625D01*
X-70129Y-22247D01*
X-70143Y-20870D01*
X-70123Y-19492D01*
X-70069Y-18115D01*
X-69981Y-16740D01*
X-69860Y-15367D01*
X-69705Y-13998D01*
X-69516Y-12633D01*
X-69294Y-11273D01*
X-69039Y-9919D01*
X-68750Y-8572D01*
X-68429Y-7232D01*
X-68074Y-5900D01*
X-67687Y-4578D01*
X-67268Y-3265D01*
X-66817Y-1963D01*
X-66334Y-673D01*
X-65819Y605D01*
X-65273Y1871D01*
X-64697Y3122D01*
X-64090Y4359D01*
X-63452Y5581D01*
X-62785Y6786D01*
X-62088Y7975D01*
X-61363Y9147D01*
X-60609Y10300D01*
X-59826Y11434D01*
X-59017Y12549D01*
X-58180Y13644D01*
X-57316Y14717D01*
X-56427Y15770D01*
X-55511Y16800D01*
X-54571Y17807D01*
X-53607Y18791D01*
X-52618Y19751D01*
X-51607Y20687D01*
X-50572Y21597D01*
X-49516Y22482D01*
X-48438Y23340D01*
X-47339Y24172D01*
X-46221Y24977D01*
X-45083Y25754D01*
X-43926Y26502D01*
X-42751Y27222D01*
X-41559Y27913D01*
X-40351Y28575D01*
X-39126Y29207D01*
X-37886Y29808D01*
X-36632Y30379D01*
X-35364Y30919D01*
X-34084Y31428D01*
X-32791Y31905D01*
X-31487Y32350D01*
X-30173Y32763D01*
X-28848Y33144D01*
X-27515Y33492D01*
X-26174Y33807D01*
X-24825Y34090D01*
X-23470Y34339D01*
X-22109Y34554D01*
X-20743Y34737D01*
X-19373Y34885D01*
X-18000Y35000D01*
D49*
X48000Y0D02*
X48000Y-16000D01*
X48000Y0D02*
X100000Y0D01*
X-62000Y14000D02*
X-64000Y12000D01*
M02*
