G04 EAGLE Gerber RS-274X export*
G75*
%MOMM*%
%FSLAX34Y34*%
%LPD*%
%IN*%
%IPPOS*%
%AMOC8*
5,1,8,0,0,1.08239X$1,22.5*%
G01*
%ADD10C,0.254000*%


D10*
X-171250Y-96250D02*
X423750Y-96250D01*
X423750Y-71250D01*
X566250Y-71250D01*
X568917Y-71079D01*
X571558Y-70676D01*
X574155Y-70045D01*
X576687Y-69189D01*
X579134Y-68117D01*
X581479Y-66835D01*
X583703Y-65353D01*
X585789Y-63683D01*
X587722Y-61838D01*
X589487Y-59832D01*
X591070Y-57679D01*
X592460Y-55396D01*
X593645Y-53001D01*
X594617Y-50512D01*
X595368Y-47948D01*
X595893Y-45327D01*
X596188Y-42672D01*
X596250Y-40000D01*
X596250Y41250D01*
X596136Y43865D01*
X595794Y46459D01*
X595228Y49015D01*
X594441Y51511D01*
X593439Y53929D01*
X592231Y56250D01*
X590825Y58457D01*
X589231Y60534D01*
X587463Y62463D01*
X585534Y64231D01*
X583457Y65825D01*
X581250Y67231D01*
X578929Y68439D01*
X576511Y69441D01*
X574015Y70228D01*
X571459Y70794D01*
X568865Y71136D01*
X566250Y71250D01*
X423750Y71250D01*
X423750Y96250D01*
X-171250Y96250D01*
X-171250Y-96250D01*
X96250Y-57781D02*
X96187Y-58339D01*
X96062Y-58886D01*
X95877Y-59416D01*
X95633Y-59922D01*
X95334Y-60398D01*
X94984Y-60837D01*
X94587Y-61234D01*
X94148Y-61584D01*
X93672Y-61883D01*
X93166Y-62127D01*
X92636Y-62312D01*
X92089Y-62437D01*
X91531Y-62500D01*
X90969Y-62500D01*
X90411Y-62437D01*
X89864Y-62312D01*
X89334Y-62127D01*
X88828Y-61883D01*
X88352Y-61584D01*
X87913Y-61234D01*
X87516Y-60837D01*
X87166Y-60398D01*
X86867Y-59922D01*
X86623Y-59416D01*
X86438Y-58886D01*
X86313Y-58339D01*
X86250Y-57781D01*
X86250Y-57219D01*
X86313Y-56661D01*
X86438Y-56114D01*
X86623Y-55584D01*
X86867Y-55078D01*
X87166Y-54602D01*
X87516Y-54163D01*
X87913Y-53766D01*
X88352Y-53416D01*
X88828Y-53117D01*
X89334Y-52873D01*
X89864Y-52688D01*
X90411Y-52563D01*
X90969Y-52500D01*
X91531Y-52500D01*
X92089Y-52563D01*
X92636Y-52688D01*
X93166Y-52873D01*
X93672Y-53117D01*
X94148Y-53416D01*
X94587Y-53766D01*
X94984Y-54163D01*
X95334Y-54602D01*
X95633Y-55078D01*
X95877Y-55584D01*
X96062Y-56114D01*
X96187Y-56661D01*
X96250Y-57219D01*
X96250Y-57781D01*
X153750Y-57781D02*
X153687Y-58339D01*
X153562Y-58886D01*
X153377Y-59416D01*
X153133Y-59922D01*
X152834Y-60398D01*
X152484Y-60837D01*
X152087Y-61234D01*
X151648Y-61584D01*
X151172Y-61883D01*
X150666Y-62127D01*
X150136Y-62312D01*
X149589Y-62437D01*
X149031Y-62500D01*
X148469Y-62500D01*
X147911Y-62437D01*
X147364Y-62312D01*
X146834Y-62127D01*
X146328Y-61883D01*
X145852Y-61584D01*
X145413Y-61234D01*
X145016Y-60837D01*
X144666Y-60398D01*
X144367Y-59922D01*
X144123Y-59416D01*
X143938Y-58886D01*
X143813Y-58339D01*
X143750Y-57781D01*
X143750Y-57219D01*
X143813Y-56661D01*
X143938Y-56114D01*
X144123Y-55584D01*
X144367Y-55078D01*
X144666Y-54602D01*
X145016Y-54163D01*
X145413Y-53766D01*
X145852Y-53416D01*
X146328Y-53117D01*
X146834Y-52873D01*
X147364Y-52688D01*
X147911Y-52563D01*
X148469Y-52500D01*
X149031Y-52500D01*
X149589Y-52563D01*
X150136Y-52688D01*
X150666Y-52873D01*
X151172Y-53117D01*
X151648Y-53416D01*
X152087Y-53766D01*
X152484Y-54163D01*
X152834Y-54602D01*
X153133Y-55078D01*
X153377Y-55584D01*
X153562Y-56114D01*
X153687Y-56661D01*
X153750Y-57219D01*
X153750Y-57781D01*
X276250Y-57781D02*
X276187Y-58339D01*
X276062Y-58886D01*
X275877Y-59416D01*
X275633Y-59922D01*
X275334Y-60398D01*
X274984Y-60837D01*
X274587Y-61234D01*
X274148Y-61584D01*
X273672Y-61883D01*
X273166Y-62127D01*
X272636Y-62312D01*
X272089Y-62437D01*
X271531Y-62500D01*
X270969Y-62500D01*
X270411Y-62437D01*
X269864Y-62312D01*
X269334Y-62127D01*
X268828Y-61883D01*
X268352Y-61584D01*
X267913Y-61234D01*
X267516Y-60837D01*
X267166Y-60398D01*
X266867Y-59922D01*
X266623Y-59416D01*
X266438Y-58886D01*
X266313Y-58339D01*
X266250Y-57781D01*
X266250Y-57219D01*
X266313Y-56661D01*
X266438Y-56114D01*
X266623Y-55584D01*
X266867Y-55078D01*
X267166Y-54602D01*
X267516Y-54163D01*
X267913Y-53766D01*
X268352Y-53416D01*
X268828Y-53117D01*
X269334Y-52873D01*
X269864Y-52688D01*
X270411Y-52563D01*
X270969Y-52500D01*
X271531Y-52500D01*
X272089Y-52563D01*
X272636Y-52688D01*
X273166Y-52873D01*
X273672Y-53117D01*
X274148Y-53416D01*
X274587Y-53766D01*
X274984Y-54163D01*
X275334Y-54602D01*
X275633Y-55078D01*
X275877Y-55584D01*
X276062Y-56114D01*
X276187Y-56661D01*
X276250Y-57219D01*
X276250Y-57781D01*
X211250Y49719D02*
X211187Y49161D01*
X211062Y48614D01*
X210877Y48084D01*
X210633Y47578D01*
X210334Y47102D01*
X209984Y46663D01*
X209587Y46266D01*
X209148Y45916D01*
X208672Y45617D01*
X208166Y45373D01*
X207636Y45188D01*
X207089Y45063D01*
X206531Y45000D01*
X205969Y45000D01*
X205411Y45063D01*
X204864Y45188D01*
X204334Y45373D01*
X203828Y45617D01*
X203352Y45916D01*
X202913Y46266D01*
X202516Y46663D01*
X202166Y47102D01*
X201867Y47578D01*
X201623Y48084D01*
X201438Y48614D01*
X201313Y49161D01*
X201250Y49719D01*
X201250Y50281D01*
X201313Y50839D01*
X201438Y51386D01*
X201623Y51916D01*
X201867Y52422D01*
X202166Y52898D01*
X202516Y53337D01*
X202913Y53734D01*
X203352Y54084D01*
X203828Y54383D01*
X204334Y54627D01*
X204864Y54812D01*
X205411Y54937D01*
X205969Y55000D01*
X206531Y55000D01*
X207089Y54937D01*
X207636Y54812D01*
X208166Y54627D01*
X208672Y54383D01*
X209148Y54084D01*
X209587Y53734D01*
X209984Y53337D01*
X210334Y52898D01*
X210633Y52422D01*
X210877Y51916D01*
X211062Y51386D01*
X211187Y50839D01*
X211250Y50281D01*
X211250Y49719D01*
X273750Y49719D02*
X273687Y49161D01*
X273562Y48614D01*
X273377Y48084D01*
X273133Y47578D01*
X272834Y47102D01*
X272484Y46663D01*
X272087Y46266D01*
X271648Y45916D01*
X271172Y45617D01*
X270666Y45373D01*
X270136Y45188D01*
X269589Y45063D01*
X269031Y45000D01*
X268469Y45000D01*
X267911Y45063D01*
X267364Y45188D01*
X266834Y45373D01*
X266328Y45617D01*
X265852Y45916D01*
X265413Y46266D01*
X265016Y46663D01*
X264666Y47102D01*
X264367Y47578D01*
X264123Y48084D01*
X263938Y48614D01*
X263813Y49161D01*
X263750Y49719D01*
X263750Y50281D01*
X263813Y50839D01*
X263938Y51386D01*
X264123Y51916D01*
X264367Y52422D01*
X264666Y52898D01*
X265016Y53337D01*
X265413Y53734D01*
X265852Y54084D01*
X266328Y54383D01*
X266834Y54627D01*
X267364Y54812D01*
X267911Y54937D01*
X268469Y55000D01*
X269031Y55000D01*
X269589Y54937D01*
X270136Y54812D01*
X270666Y54627D01*
X271172Y54383D01*
X271648Y54084D01*
X272087Y53734D01*
X272484Y53337D01*
X272834Y52898D01*
X273133Y52422D01*
X273377Y51916D01*
X273562Y51386D01*
X273687Y50839D01*
X273750Y50281D01*
X273750Y49719D01*
X198750Y-10281D02*
X198687Y-10839D01*
X198562Y-11386D01*
X198377Y-11916D01*
X198133Y-12422D01*
X197834Y-12898D01*
X197484Y-13337D01*
X197087Y-13734D01*
X196648Y-14084D01*
X196172Y-14383D01*
X195666Y-14627D01*
X195136Y-14812D01*
X194589Y-14937D01*
X194031Y-15000D01*
X193469Y-15000D01*
X192911Y-14937D01*
X192364Y-14812D01*
X191834Y-14627D01*
X191328Y-14383D01*
X190852Y-14084D01*
X190413Y-13734D01*
X190016Y-13337D01*
X189666Y-12898D01*
X189367Y-12422D01*
X189123Y-11916D01*
X188938Y-11386D01*
X188813Y-10839D01*
X188750Y-10281D01*
X188750Y-9719D01*
X188813Y-9161D01*
X188938Y-8614D01*
X189123Y-8084D01*
X189367Y-7578D01*
X189666Y-7102D01*
X190016Y-6663D01*
X190413Y-6266D01*
X190852Y-5916D01*
X191328Y-5617D01*
X191834Y-5373D01*
X192364Y-5188D01*
X192911Y-5063D01*
X193469Y-5000D01*
X194031Y-5000D01*
X194589Y-5063D01*
X195136Y-5188D01*
X195666Y-5373D01*
X196172Y-5617D01*
X196648Y-5916D01*
X197087Y-6266D01*
X197484Y-6663D01*
X197834Y-7102D01*
X198133Y-7578D01*
X198377Y-8084D01*
X198562Y-8614D01*
X198687Y-9161D01*
X198750Y-9719D01*
X198750Y-10281D01*
X273750Y-7781D02*
X273687Y-8339D01*
X273562Y-8886D01*
X273377Y-9416D01*
X273133Y-9922D01*
X272834Y-10398D01*
X272484Y-10837D01*
X272087Y-11234D01*
X271648Y-11584D01*
X271172Y-11883D01*
X270666Y-12127D01*
X270136Y-12312D01*
X269589Y-12437D01*
X269031Y-12500D01*
X268469Y-12500D01*
X267911Y-12437D01*
X267364Y-12312D01*
X266834Y-12127D01*
X266328Y-11883D01*
X265852Y-11584D01*
X265413Y-11234D01*
X265016Y-10837D01*
X264666Y-10398D01*
X264367Y-9922D01*
X264123Y-9416D01*
X263938Y-8886D01*
X263813Y-8339D01*
X263750Y-7781D01*
X263750Y-7219D01*
X263813Y-6661D01*
X263938Y-6114D01*
X264123Y-5584D01*
X264367Y-5078D01*
X264666Y-4602D01*
X265016Y-4163D01*
X265413Y-3766D01*
X265852Y-3416D01*
X266328Y-3117D01*
X266834Y-2873D01*
X267364Y-2688D01*
X267911Y-2563D01*
X268469Y-2500D01*
X269031Y-2500D01*
X269589Y-2563D01*
X270136Y-2688D01*
X270666Y-2873D01*
X271172Y-3117D01*
X271648Y-3416D01*
X272087Y-3766D01*
X272484Y-4163D01*
X272834Y-4602D01*
X273133Y-5078D01*
X273377Y-5584D01*
X273562Y-6114D01*
X273687Y-6661D01*
X273750Y-7219D01*
X273750Y-7781D01*
X213750Y-57781D02*
X213687Y-58339D01*
X213562Y-58886D01*
X213377Y-59416D01*
X213133Y-59922D01*
X212834Y-60398D01*
X212484Y-60837D01*
X212087Y-61234D01*
X211648Y-61584D01*
X211172Y-61883D01*
X210666Y-62127D01*
X210136Y-62312D01*
X209589Y-62437D01*
X209031Y-62500D01*
X208469Y-62500D01*
X207911Y-62437D01*
X207364Y-62312D01*
X206834Y-62127D01*
X206328Y-61883D01*
X205852Y-61584D01*
X205413Y-61234D01*
X205016Y-60837D01*
X204666Y-60398D01*
X204367Y-59922D01*
X204123Y-59416D01*
X203938Y-58886D01*
X203813Y-58339D01*
X203750Y-57781D01*
X203750Y-57219D01*
X203813Y-56661D01*
X203938Y-56114D01*
X204123Y-55584D01*
X204367Y-55078D01*
X204666Y-54602D01*
X205016Y-54163D01*
X205413Y-53766D01*
X205852Y-53416D01*
X206328Y-53117D01*
X206834Y-52873D01*
X207364Y-52688D01*
X207911Y-52563D01*
X208469Y-52500D01*
X209031Y-52500D01*
X209589Y-52563D01*
X210136Y-52688D01*
X210666Y-52873D01*
X211172Y-53117D01*
X211648Y-53416D01*
X212087Y-53766D01*
X212484Y-54163D01*
X212834Y-54602D01*
X213133Y-55078D01*
X213377Y-55584D01*
X213562Y-56114D01*
X213687Y-56661D01*
X213750Y-57219D01*
X213750Y-57781D01*
X322463Y-52250D02*
X322885Y-52306D01*
X323297Y-52416D01*
X323691Y-52579D01*
X324059Y-52792D01*
X324397Y-53051D01*
X324699Y-53353D01*
X324958Y-53691D01*
X325171Y-54059D01*
X325334Y-54453D01*
X325444Y-54865D01*
X325500Y-55287D01*
X325500Y-55713D01*
X325444Y-56135D01*
X325334Y-56547D01*
X325171Y-56941D01*
X324958Y-57309D01*
X324699Y-57647D01*
X324397Y-57949D01*
X324059Y-58208D01*
X323691Y-58421D01*
X323297Y-58584D01*
X322885Y-58694D01*
X322463Y-58750D01*
X322037Y-58750D01*
X321615Y-58694D01*
X321203Y-58584D01*
X320809Y-58421D01*
X320441Y-58208D01*
X320103Y-57949D01*
X319801Y-57647D01*
X319542Y-57309D01*
X319329Y-56941D01*
X319166Y-56547D01*
X319056Y-56135D01*
X319000Y-55713D01*
X319000Y-55287D01*
X319056Y-54865D01*
X319166Y-54453D01*
X319329Y-54059D01*
X319542Y-53691D01*
X319801Y-53353D01*
X320103Y-53051D01*
X320441Y-52792D01*
X320809Y-52579D01*
X321203Y-52416D01*
X321615Y-52306D01*
X322037Y-52250D01*
X322463Y-52250D01*
X322529Y59750D02*
X323081Y59677D01*
X323619Y59533D01*
X324134Y59320D01*
X324616Y59041D01*
X325058Y58702D01*
X325452Y58308D01*
X325791Y57866D01*
X326070Y57384D01*
X326283Y56869D01*
X326427Y56331D01*
X326500Y55779D01*
X326500Y55221D01*
X326427Y54669D01*
X326283Y54131D01*
X326070Y53616D01*
X325791Y53134D01*
X325452Y52692D01*
X325058Y52298D01*
X324616Y51959D01*
X324134Y51680D01*
X323619Y51467D01*
X323081Y51323D01*
X322529Y51250D01*
X321971Y51250D01*
X321419Y51323D01*
X320881Y51467D01*
X320366Y51680D01*
X319884Y51959D01*
X319442Y52298D01*
X319048Y52692D01*
X318709Y53134D01*
X318430Y53616D01*
X318217Y54131D01*
X318073Y54669D01*
X318000Y55221D01*
X318000Y55779D01*
X318073Y56331D01*
X318217Y56869D01*
X318430Y57384D01*
X318709Y57866D01*
X319048Y58308D01*
X319442Y58702D01*
X319884Y59041D01*
X320366Y59320D01*
X320881Y59533D01*
X321419Y59677D01*
X321971Y59750D01*
X322529Y59750D01*
X-7537Y-52250D02*
X-7115Y-52306D01*
X-6703Y-52416D01*
X-6309Y-52579D01*
X-5941Y-52792D01*
X-5603Y-53051D01*
X-5301Y-53353D01*
X-5042Y-53691D01*
X-4829Y-54059D01*
X-4666Y-54453D01*
X-4556Y-54865D01*
X-4500Y-55287D01*
X-4500Y-55713D01*
X-4556Y-56135D01*
X-4666Y-56547D01*
X-4829Y-56941D01*
X-5042Y-57309D01*
X-5301Y-57647D01*
X-5603Y-57949D01*
X-5941Y-58208D01*
X-6309Y-58421D01*
X-6703Y-58584D01*
X-7115Y-58694D01*
X-7537Y-58750D01*
X-7963Y-58750D01*
X-8385Y-58694D01*
X-8797Y-58584D01*
X-9191Y-58421D01*
X-9559Y-58208D01*
X-9897Y-57949D01*
X-10199Y-57647D01*
X-10458Y-57309D01*
X-10671Y-56941D01*
X-10834Y-56547D01*
X-10944Y-56135D01*
X-11000Y-55713D01*
X-11000Y-55287D01*
X-10944Y-54865D01*
X-10834Y-54453D01*
X-10671Y-54059D01*
X-10458Y-53691D01*
X-10199Y-53353D01*
X-9897Y-53051D01*
X-9559Y-52792D01*
X-9191Y-52579D01*
X-8797Y-52416D01*
X-8385Y-52306D01*
X-7963Y-52250D01*
X-7537Y-52250D01*
X-7471Y59750D02*
X-6919Y59677D01*
X-6381Y59533D01*
X-5866Y59320D01*
X-5384Y59041D01*
X-4942Y58702D01*
X-4548Y58308D01*
X-4209Y57866D01*
X-3930Y57384D01*
X-3717Y56869D01*
X-3573Y56331D01*
X-3500Y55779D01*
X-3500Y55221D01*
X-3573Y54669D01*
X-3717Y54131D01*
X-3930Y53616D01*
X-4209Y53134D01*
X-4548Y52692D01*
X-4942Y52298D01*
X-5384Y51959D01*
X-5866Y51680D01*
X-6381Y51467D01*
X-6919Y51323D01*
X-7471Y51250D01*
X-8029Y51250D01*
X-8581Y51323D01*
X-9119Y51467D01*
X-9634Y51680D01*
X-10116Y51959D01*
X-10558Y52298D01*
X-10952Y52692D01*
X-11291Y53134D01*
X-11570Y53616D01*
X-11783Y54131D01*
X-11927Y54669D01*
X-12000Y55221D01*
X-12000Y55779D01*
X-11927Y56331D01*
X-11783Y56869D01*
X-11570Y57384D01*
X-11291Y57866D01*
X-10952Y58308D01*
X-10558Y58702D01*
X-10116Y59041D01*
X-9634Y59320D01*
X-9119Y59533D01*
X-8581Y59677D01*
X-8029Y59750D01*
X-7471Y59750D01*
M02*
