G04 EAGLE Gerber RS-274X export*
G75*
%MOMM*%
%FSLAX34Y34*%
%LPD*%
%INSoldermask Top*%
%IPPOS*%
%AMOC8*
5,1,8,0,0,1.08239X$1,22.5*%
G01*
%ADD10C,1.203200*%
%ADD11R,0.490000X1.200000*%
%ADD12R,1.730000X0.200000*%
%ADD13R,9.750000X3.750000*%
%ADD14R,8.250000X3.750000*%
%ADD15R,1.600200X2.794000*%
%ADD16C,0.853200*%
%ADD17C,1.053200*%
%ADD18R,4.503200X3.843200*%
%ADD19R,4.503200X1.443200*%
%ADD20R,4.503200X3.043200*%
%ADD21R,2.203200X2.203200*%
%ADD22R,5.203200X8.203200*%
%ADD23R,1.603200X1.203200*%
%ADD24R,1.473200X2.743200*%
%ADD25C,2.387600*%
%ADD26R,2.743200X1.473200*%
%ADD27R,4.013200X2.108200*%
%ADD28R,2.794000X1.600200*%
%ADD29R,1.727200X1.473200*%
%ADD30R,2.743200X1.727200*%
%ADD31R,1.473200X1.727200*%
%ADD32C,1.109600*%
%ADD33C,0.959600*%


D10*
X91250Y-57500D03*
X148750Y-57500D03*
X271250Y-57500D03*
X206250Y50000D03*
X268750Y50000D03*
X193750Y-10000D03*
X268750Y-7500D03*
X208750Y-57500D03*
D11*
X93700Y76200D03*
X93700Y57200D03*
D12*
X48800Y-7900D03*
D13*
X-85625Y-187375D03*
D14*
X16625Y-187375D03*
D15*
X371670Y79308D03*
X345666Y79308D03*
D16*
X322250Y-55500D03*
D17*
X322250Y55500D03*
D16*
X-7750Y-55500D03*
D17*
X-7750Y55500D03*
D18*
X250Y28000D03*
X250Y-28000D03*
D19*
X250Y0D03*
D20*
X330250Y32000D03*
X330250Y0D03*
X330250Y-32000D03*
D21*
X395250Y0D03*
D22*
X440250Y0D03*
D23*
X61450Y66700D03*
X83450Y76200D03*
X83450Y57200D03*
X125950Y66700D03*
X103950Y57200D03*
X103950Y76200D03*
D24*
X-105038Y-82250D03*
X-76463Y-82250D03*
D25*
X-82097Y-150903D03*
X-117403Y-115597D03*
D15*
X126752Y7000D03*
X100748Y7000D03*
D26*
X48250Y213D03*
X48250Y28788D03*
D27*
X11000Y-188500D03*
X-79000Y-185250D03*
X446250Y58750D03*
D28*
X-104800Y-7698D03*
X-104800Y-33702D03*
D29*
X397500Y38570D03*
X397500Y61430D03*
X48750Y-38930D03*
X48750Y-16070D03*
X148000Y28570D03*
X148000Y51430D03*
D26*
X-50001Y-87462D03*
X-50000Y-116038D03*
X-11449Y-141238D03*
X-11450Y-112662D03*
D27*
X446250Y-58750D03*
D30*
X35000Y-149550D03*
X35000Y-111450D03*
X-50000Y-172050D03*
X-50000Y-133950D03*
D31*
X-72020Y14100D03*
X-94880Y14100D03*
D32*
X415000Y61250D03*
X416250Y-60000D03*
D33*
X-3750Y-88000D03*
X-23750Y-88000D03*
X-13750Y-88000D03*
M02*
