G75*
%MOIN*%
%OFA0B0*%
%FSLAX25Y25*%
%IPPOS*%
%LPD*%
%AMOC8*
5,1,8,0,0,1.08239X$1,22.5*
%
%ADD10C,0.03937*%
D10*
X0136268Y0340168D02*
X0134890Y0372058D01*
X0139417Y0381901D02*
X0196110Y0436625D01*
X0219339Y0460247D01*
X0256346Y0500995D01*
X0309890Y0559853D01*
X0333512Y0584066D01*
X0345717Y0596468D01*
X0354969Y0607098D01*
X0413827Y0673830D01*
X0413827Y0673829D02*
X0413927Y0673947D01*
X0414025Y0674067D01*
X0414120Y0674189D01*
X0414212Y0674313D01*
X0414300Y0674440D01*
X0414385Y0674570D01*
X0414467Y0674701D01*
X0414546Y0674834D01*
X0414621Y0674969D01*
X0414693Y0675106D01*
X0414761Y0675245D01*
X0414826Y0675386D01*
X0414887Y0675528D01*
X0414944Y0675672D01*
X0414998Y0675817D01*
X0415048Y0675963D01*
X0415094Y0676111D01*
X0415137Y0676260D01*
X0415176Y0676409D01*
X0415211Y0676560D01*
X0415242Y0676712D01*
X0415269Y0676864D01*
X0415293Y0677017D01*
X0415312Y0677170D01*
X0415328Y0677324D01*
X0415340Y0677478D01*
X0415348Y0677633D01*
X0415352Y0677788D01*
X0415352Y0677942D01*
X0415348Y0678097D01*
X0415340Y0678252D01*
X0415328Y0678406D01*
X0415312Y0678560D01*
X0415293Y0678713D01*
X0415269Y0678866D01*
X0415242Y0679018D01*
X0415211Y0679170D01*
X0415176Y0679321D01*
X0415137Y0679470D01*
X0415094Y0679619D01*
X0415048Y0679767D01*
X0414998Y0679913D01*
X0414944Y0680058D01*
X0414887Y0680202D01*
X0414826Y0680344D01*
X0414761Y0680485D01*
X0414693Y0680624D01*
X0414621Y0680761D01*
X0414546Y0680896D01*
X0414467Y0681029D01*
X0414385Y0681160D01*
X0414300Y0681290D01*
X0414212Y0681417D01*
X0414120Y0681541D01*
X0414025Y0681663D01*
X0413927Y0681783D01*
X0413827Y0681901D01*
X0089220Y0978751D01*
X0089053Y0978908D01*
X0088889Y0979069D01*
X0088729Y0979234D01*
X0088573Y0979403D01*
X0088421Y0979576D01*
X0088273Y0979753D01*
X0088130Y0979933D01*
X0087991Y0980116D01*
X0087857Y0980303D01*
X0087727Y0980493D01*
X0087602Y0980686D01*
X0087482Y0980882D01*
X0087366Y0981080D01*
X0087255Y0981282D01*
X0087150Y0981486D01*
X0087049Y0981693D01*
X0086953Y0981902D01*
X0086862Y0982113D01*
X0086777Y0982327D01*
X0086697Y0982542D01*
X0086622Y0982760D01*
X0086552Y0982979D01*
X0086487Y0983200D01*
X0086428Y0983422D01*
X0086375Y0983646D01*
X0086327Y0983871D01*
X0086284Y0984097D01*
X0086247Y0984324D01*
X0086215Y0984552D01*
X0086189Y0984780D01*
X0086168Y0985009D01*
X0086153Y0985239D01*
X0086144Y0985468D01*
X0086140Y0985698D01*
X0086142Y0985928D01*
X0086149Y0986158D01*
X0086162Y0986388D01*
X0086181Y0986617D01*
X0086205Y0986846D01*
X0086234Y0987074D01*
X0086269Y0987301D01*
X0086310Y0987528D01*
X0086356Y0987753D01*
X0086407Y0987977D01*
X0086464Y0988200D01*
X0086465Y0988200D02*
X0105362Y1009853D01*
X0105362Y1009854D02*
X0105458Y1009961D01*
X0105557Y1010065D01*
X0105659Y1010167D01*
X0105764Y1010265D01*
X0105871Y1010361D01*
X0105981Y1010454D01*
X0106093Y1010544D01*
X0106208Y1010631D01*
X0106325Y1010714D01*
X0106444Y1010794D01*
X0106566Y1010871D01*
X0106689Y1010945D01*
X0106815Y1011015D01*
X0106942Y1011081D01*
X0107072Y1011144D01*
X0107203Y1011204D01*
X0107335Y1011260D01*
X0107469Y1011312D01*
X0107604Y1011361D01*
X0107741Y1011405D01*
X0107879Y1011446D01*
X0108018Y1011484D01*
X0108158Y1011517D01*
X0108299Y1011546D01*
X0108440Y1011572D01*
X0108582Y1011594D01*
X0108725Y1011611D01*
X0108868Y1011625D01*
X0109012Y1011635D01*
X0109155Y1011641D01*
X0109299Y1011643D01*
X0109443Y1011641D01*
X0109586Y1011635D01*
X0109730Y1011625D01*
X0109873Y1011611D01*
X0110016Y1011594D01*
X0110158Y1011572D01*
X0110299Y1011546D01*
X0110440Y1011517D01*
X0110580Y1011484D01*
X0110719Y1011446D01*
X0110857Y1011405D01*
X0110994Y1011361D01*
X0111129Y1011312D01*
X0111263Y1011260D01*
X0111395Y1011204D01*
X0111526Y1011144D01*
X0111656Y1011081D01*
X0111783Y1011015D01*
X0111909Y1010945D01*
X0112032Y1010871D01*
X0112154Y1010794D01*
X0112273Y1010714D01*
X0112390Y1010631D01*
X0112505Y1010544D01*
X0112617Y1010454D01*
X0112727Y1010361D01*
X0112834Y1010265D01*
X0112939Y1010167D01*
X0113041Y1010065D01*
X0113140Y1009961D01*
X0113236Y1009854D01*
X0113236Y1009853D02*
X0115402Y1008082D01*
X0115598Y1007885D01*
X0441583Y0710838D01*
X0441680Y0710752D01*
X0441780Y0710669D01*
X0441882Y0710589D01*
X0441986Y0710513D01*
X0442093Y0710439D01*
X0442202Y0710369D01*
X0442313Y0710302D01*
X0442425Y0710239D01*
X0442540Y0710179D01*
X0442657Y0710123D01*
X0442775Y0710070D01*
X0442895Y0710020D01*
X0443016Y0709975D01*
X0443138Y0709933D01*
X0443262Y0709894D01*
X0443387Y0709860D01*
X0443512Y0709829D01*
X0443639Y0709802D01*
X0443766Y0709779D01*
X0443894Y0709760D01*
X0444023Y0709745D01*
X0444152Y0709733D01*
X0444281Y0709726D01*
X0444411Y0709722D01*
X0444540Y0709723D01*
X0444670Y0709727D01*
X0444799Y0709735D01*
X0444928Y0709747D01*
X0445056Y0709763D01*
X0445184Y0709783D01*
X0445311Y0709807D01*
X0445438Y0709834D01*
X0445563Y0709866D01*
X0445688Y0709901D01*
X0445811Y0709940D01*
X0445934Y0709982D01*
X0446055Y0710029D01*
X0446174Y0710079D01*
X0446292Y0710132D01*
X0446408Y0710189D01*
X0446523Y0710250D01*
X0446635Y0710314D01*
X0446746Y0710381D01*
X0446854Y0710452D01*
X0446960Y0710526D01*
X0447064Y0710603D01*
X0447166Y0710683D01*
X0447265Y0710767D01*
X0447362Y0710853D01*
X0447455Y0710942D01*
X0447547Y0711034D01*
X0447635Y0711129D01*
X0447720Y0711226D01*
X0447803Y0711326D01*
X0447882Y0711428D01*
X0468354Y0734853D01*
X0497094Y0765759D01*
X0529772Y0801979D01*
X0550638Y0826979D01*
X0585677Y0866350D01*
X0640992Y0928554D01*
X0662449Y0954342D01*
X0710677Y1017137D01*
X0719339Y1021468D02*
X0749260Y1023830D01*
X0749260Y1023829D02*
X0749460Y1023843D01*
X0749661Y1023851D01*
X0749861Y1023855D01*
X0750062Y1023854D01*
X0750262Y1023847D01*
X0750462Y1023836D01*
X0750662Y1023820D01*
X0750861Y1023800D01*
X0751060Y1023774D01*
X0751258Y1023743D01*
X0751456Y1023708D01*
X0751652Y1023668D01*
X0751848Y1023623D01*
X0752042Y1023574D01*
X0752235Y1023519D01*
X0752427Y1023460D01*
X0752617Y1023397D01*
X0752805Y1023328D01*
X0752992Y1023255D01*
X0753177Y1023178D01*
X0753360Y1023096D01*
X0753541Y1023010D01*
X0753720Y1022919D01*
X0753896Y1022824D01*
X0754071Y1022725D01*
X0754242Y1022621D01*
X0754411Y1022514D01*
X0754578Y1022402D01*
X0754742Y1022286D01*
X0754902Y1022167D01*
X0755060Y1022043D01*
X0755215Y1021916D01*
X0755367Y1021784D01*
X0755515Y1021650D01*
X0755660Y1021511D01*
X0755802Y1021369D01*
X0755940Y1021224D01*
X0756075Y1021076D01*
X0756206Y1020924D01*
X0756333Y1020769D01*
X0756456Y1020611D01*
X0756576Y1020450D01*
X0756692Y1020286D01*
X0756803Y1020119D01*
X0756911Y1019950D01*
X0757014Y1019778D01*
X0757113Y1019604D01*
X0757208Y1019427D01*
X0757298Y1019248D01*
X0757384Y1019067D01*
X0757466Y1018884D01*
X0757543Y1018699D01*
X0757616Y1018512D01*
X0757684Y1018324D01*
X0757747Y1018133D01*
X0757806Y1017942D01*
X0757860Y1017749D01*
X0757909Y1017554D01*
X0757954Y1017359D01*
X0757994Y1017162D01*
X0758029Y1016965D01*
X0758059Y1016767D01*
X0758085Y1016568D01*
X0758105Y1016368D01*
X0758121Y1016168D01*
X0758132Y1015968D01*
X0758138Y1015768D01*
X0758139Y1015567D01*
X0758135Y1015367D01*
X0758126Y1015167D01*
X0758113Y1014967D01*
X0758094Y1014767D01*
X0758071Y1014568D01*
X0758043Y1014369D01*
X0758010Y1014171D01*
X0757972Y1013975D01*
X0757929Y1013779D01*
X0757882Y1013584D01*
X0757830Y1013390D01*
X0757773Y1013198D01*
X0757712Y1013007D01*
X0757646Y1012818D01*
X0757575Y1012630D01*
X0757500Y1012444D01*
X0757420Y1012260D01*
X0757336Y1012078D01*
X0757248Y1011898D01*
X0757155Y1011721D01*
X0757057Y1011545D01*
X0756956Y1011372D01*
X0756850Y1011202D01*
X0756741Y1011034D01*
X0756740Y1011035D02*
X0734102Y0981113D01*
X0704378Y0943121D01*
X0693945Y0929932D01*
X0672685Y0903948D01*
X0643354Y0871271D01*
X0612646Y0836231D01*
X0580559Y0800602D01*
X0559102Y0773436D01*
X0546504Y0759263D01*
X0546416Y0759160D01*
X0546330Y0759055D01*
X0546247Y0758947D01*
X0546168Y0758837D01*
X0546092Y0758725D01*
X0546019Y0758610D01*
X0545949Y0758494D01*
X0545883Y0758375D01*
X0545820Y0758255D01*
X0545761Y0758132D01*
X0545705Y0758009D01*
X0545653Y0757883D01*
X0545605Y0757756D01*
X0545560Y0757628D01*
X0545520Y0757499D01*
X0545482Y0757368D01*
X0545449Y0757236D01*
X0545420Y0757104D01*
X0545394Y0756971D01*
X0545372Y0756837D01*
X0545354Y0756702D01*
X0545340Y0756567D01*
X0545330Y0756432D01*
X0545324Y0756296D01*
X0545322Y0756160D01*
X0545324Y0756024D01*
X0545329Y0755889D01*
X0545339Y0755753D01*
X0545353Y0755618D01*
X0545370Y0755484D01*
X0545391Y0755350D01*
X0545417Y0755216D01*
X0545446Y0755084D01*
X0545479Y0754952D01*
X0545515Y0754821D01*
X0545556Y0754692D01*
X0545600Y0754563D01*
X0545648Y0754436D01*
X0545700Y0754311D01*
X0545755Y0754187D01*
X0545814Y0754064D01*
X0545876Y0753944D01*
X0545942Y0753825D01*
X0546011Y0753708D01*
X0546084Y0753593D01*
X0546160Y0753481D01*
X0546239Y0753371D01*
X0546321Y0753263D01*
X0546406Y0753157D01*
X0546495Y0753054D01*
X0546586Y0752954D01*
X0546680Y0752856D01*
X0546777Y0752761D01*
X0546877Y0752669D01*
X0546979Y0752579D01*
X0547084Y0752493D01*
X0547192Y0752410D01*
X0547301Y0752330D01*
X0547413Y0752254D01*
X0547528Y0752180D01*
X0547644Y0752110D01*
X0547762Y0752043D01*
X0547882Y0751980D01*
X0547882Y0751979D02*
X0565205Y0735050D01*
X0565204Y0735050D02*
X0565288Y0734966D01*
X0565368Y0734879D01*
X0565446Y0734789D01*
X0565521Y0734697D01*
X0565592Y0734603D01*
X0565661Y0734506D01*
X0565726Y0734407D01*
X0565789Y0734306D01*
X0565847Y0734203D01*
X0565903Y0734098D01*
X0565955Y0733991D01*
X0566003Y0733883D01*
X0566048Y0733773D01*
X0566089Y0733662D01*
X0566126Y0733550D01*
X0566160Y0733436D01*
X0566190Y0733321D01*
X0566217Y0733206D01*
X0566239Y0733089D01*
X0566258Y0732972D01*
X0566273Y0732854D01*
X0566284Y0732736D01*
X0566291Y0732618D01*
X0566294Y0732499D01*
X0566293Y0732381D01*
X0566289Y0732262D01*
X0566280Y0732144D01*
X0566268Y0732026D01*
X0566252Y0731909D01*
X0566232Y0731792D01*
X0566208Y0731675D01*
X0566180Y0731560D01*
X0566149Y0731446D01*
X0566114Y0731332D01*
X0566075Y0731220D01*
X0566032Y0731110D01*
X0565986Y0731000D01*
X0565937Y0730893D01*
X0565884Y0730787D01*
X0565827Y0730682D01*
X0565767Y0730580D01*
X0565704Y0730480D01*
X0565637Y0730382D01*
X0565568Y0730286D01*
X0565495Y0730192D01*
X0565419Y0730101D01*
X0565340Y0730012D01*
X0565258Y0729926D01*
X0565174Y0729843D01*
X0565087Y0729762D01*
X0564997Y0729685D01*
X0564905Y0729610D01*
X0564810Y0729539D01*
X0564811Y0729539D02*
X0516386Y0674420D01*
X0516266Y0674287D01*
X0516143Y0674157D01*
X0516017Y0674030D01*
X0515887Y0673906D01*
X0515755Y0673785D01*
X0515620Y0673667D01*
X0515482Y0673553D01*
X0515341Y0673443D01*
X0515197Y0673335D01*
X0515051Y0673231D01*
X0514902Y0673131D01*
X0514751Y0673035D01*
X0514598Y0672942D01*
X0514443Y0672853D01*
X0514285Y0672768D01*
X0514125Y0672687D01*
X0513964Y0672609D01*
X0513800Y0672536D01*
X0513635Y0672467D01*
X0513468Y0672401D01*
X0513300Y0672340D01*
X0513130Y0672283D01*
X0512959Y0672230D01*
X0512786Y0672182D01*
X0512612Y0672137D01*
X0512438Y0672097D01*
X0512262Y0672061D01*
X0512086Y0672029D01*
X0511909Y0672002D01*
X0511731Y0671979D01*
X0511553Y0671961D01*
X0511374Y0671946D01*
X0511195Y0671937D01*
X0511016Y0671931D01*
X0510837Y0671930D01*
X0510658Y0671933D01*
X0510479Y0671941D01*
X0510300Y0671953D01*
X0510122Y0671970D01*
X0509944Y0671990D01*
X0509766Y0672016D01*
X0509589Y0672045D01*
X0509413Y0672079D01*
X0509238Y0672117D01*
X0509064Y0672159D01*
X0508891Y0672206D01*
X0508719Y0672257D01*
X0508549Y0672312D01*
X0508380Y0672371D01*
X0508212Y0672434D01*
X0508046Y0672502D01*
X0507882Y0672573D01*
X0507719Y0672649D01*
X0507558Y0672728D01*
X0507400Y0672811D01*
X0507243Y0672898D01*
X0507089Y0672989D01*
X0506937Y0673084D01*
X0506787Y0673182D01*
X0506640Y0673284D01*
X0506495Y0673390D01*
X0506353Y0673499D01*
X0506213Y0673612D01*
X0506077Y0673727D01*
X0505943Y0673847D01*
X0505812Y0673969D01*
X0505684Y0674095D01*
X0505560Y0674223D01*
X0505559Y0674224D02*
X0489417Y0688594D01*
X0489417Y0688593D02*
X0489310Y0688686D01*
X0489200Y0688776D01*
X0489088Y0688863D01*
X0488973Y0688947D01*
X0488856Y0689028D01*
X0488737Y0689105D01*
X0488616Y0689179D01*
X0488493Y0689250D01*
X0488368Y0689317D01*
X0488241Y0689381D01*
X0488113Y0689442D01*
X0487983Y0689498D01*
X0487851Y0689552D01*
X0487718Y0689601D01*
X0487584Y0689647D01*
X0487448Y0689690D01*
X0487312Y0689728D01*
X0487174Y0689763D01*
X0487035Y0689794D01*
X0486896Y0689821D01*
X0486756Y0689845D01*
X0486616Y0689864D01*
X0486474Y0689880D01*
X0486333Y0689892D01*
X0486191Y0689899D01*
X0486049Y0689903D01*
X0485907Y0689904D01*
X0485765Y0689900D01*
X0485624Y0689892D01*
X0485482Y0689881D01*
X0485341Y0689865D01*
X0485200Y0689846D01*
X0485060Y0689823D01*
X0484921Y0689796D01*
X0484782Y0689765D01*
X0484645Y0689730D01*
X0484508Y0689692D01*
X0484372Y0689650D01*
X0484238Y0689604D01*
X0484105Y0689555D01*
X0483973Y0689502D01*
X0483843Y0689445D01*
X0483714Y0689385D01*
X0483588Y0689321D01*
X0483463Y0689254D01*
X0483339Y0689184D01*
X0483218Y0689110D01*
X0483099Y0689033D01*
X0482982Y0688952D01*
X0482867Y0688868D01*
X0482755Y0688782D01*
X0482645Y0688692D01*
X0482537Y0688599D01*
X0482433Y0688504D01*
X0482330Y0688405D01*
X0482231Y0688304D01*
X0482134Y0688200D01*
X0442764Y0641940D01*
X0442764Y0641939D02*
X0442676Y0641834D01*
X0442592Y0641725D01*
X0442510Y0641615D01*
X0442432Y0641502D01*
X0442357Y0641387D01*
X0442285Y0641270D01*
X0442217Y0641151D01*
X0442152Y0641030D01*
X0442090Y0640907D01*
X0442032Y0640783D01*
X0441978Y0640657D01*
X0441927Y0640529D01*
X0441879Y0640400D01*
X0441836Y0640270D01*
X0441796Y0640139D01*
X0441759Y0640006D01*
X0441727Y0639873D01*
X0441698Y0639738D01*
X0441673Y0639603D01*
X0441652Y0639468D01*
X0441635Y0639331D01*
X0441621Y0639195D01*
X0441612Y0639058D01*
X0441606Y0638920D01*
X0441604Y0638783D01*
X0441606Y0638646D01*
X0441612Y0638509D01*
X0441622Y0638372D01*
X0441635Y0638235D01*
X0441653Y0638099D01*
X0441674Y0637963D01*
X0441699Y0637828D01*
X0441728Y0637694D01*
X0441761Y0637560D01*
X0441798Y0637428D01*
X0441838Y0637297D01*
X0441882Y0637167D01*
X0441929Y0637038D01*
X0441981Y0636910D01*
X0442035Y0636784D01*
X0442094Y0636660D01*
X0442155Y0636537D01*
X0442221Y0636417D01*
X0442289Y0636298D01*
X0442361Y0636181D01*
X0442437Y0636066D01*
X0442515Y0635953D01*
X0442597Y0635842D01*
X0442681Y0635734D01*
X0442769Y0635629D01*
X0442860Y0635525D01*
X0442953Y0635425D01*
X0443049Y0635327D01*
X0443148Y0635232D01*
X0443250Y0635140D01*
X0443354Y0635050D01*
X0460087Y0619696D01*
X0460198Y0619592D01*
X0460306Y0619484D01*
X0460412Y0619374D01*
X0460514Y0619261D01*
X0460614Y0619146D01*
X0460710Y0619028D01*
X0460804Y0618907D01*
X0460894Y0618784D01*
X0460981Y0618659D01*
X0461065Y0618531D01*
X0461145Y0618402D01*
X0461222Y0618270D01*
X0461296Y0618137D01*
X0461366Y0618001D01*
X0461433Y0617864D01*
X0461496Y0617725D01*
X0461555Y0617585D01*
X0461611Y0617443D01*
X0461663Y0617299D01*
X0461711Y0617155D01*
X0461755Y0617009D01*
X0461796Y0616862D01*
X0461833Y0616714D01*
X0461866Y0616565D01*
X0461895Y0616415D01*
X0461920Y0616265D01*
X0461942Y0616114D01*
X0461959Y0615962D01*
X0461972Y0615810D01*
X0461982Y0615658D01*
X0461987Y0615506D01*
X0461989Y0615353D01*
X0461987Y0615201D01*
X0461980Y0615048D01*
X0461970Y0614896D01*
X0461956Y0614744D01*
X0461937Y0614593D01*
X0461915Y0614442D01*
X0461889Y0614292D01*
X0461859Y0614142D01*
X0461826Y0613993D01*
X0461788Y0613845D01*
X0461746Y0613699D01*
X0461701Y0613553D01*
X0461652Y0613409D01*
X0461599Y0613266D01*
X0461543Y0613124D01*
X0461483Y0612984D01*
X0461419Y0612845D01*
X0461352Y0612708D01*
X0461281Y0612573D01*
X0461207Y0612440D01*
X0461129Y0612309D01*
X0461048Y0612180D01*
X0460963Y0612053D01*
X0460875Y0611928D01*
X0460784Y0611806D01*
X0460690Y0611686D01*
X0460593Y0611568D01*
X0460493Y0611453D01*
X0460390Y0611341D01*
X0460284Y0611231D01*
X0460283Y0611231D02*
X0410480Y0554932D01*
X0410481Y0554932D02*
X0410380Y0554821D01*
X0410277Y0554713D01*
X0410170Y0554608D01*
X0410061Y0554506D01*
X0409950Y0554406D01*
X0409836Y0554310D01*
X0409719Y0554216D01*
X0409600Y0554126D01*
X0409478Y0554039D01*
X0409354Y0553955D01*
X0409228Y0553875D01*
X0409100Y0553798D01*
X0408970Y0553724D01*
X0408838Y0553654D01*
X0408705Y0553587D01*
X0408569Y0553524D01*
X0408432Y0553464D01*
X0408293Y0553408D01*
X0408153Y0553356D01*
X0408012Y0553307D01*
X0407869Y0553263D01*
X0407726Y0553222D01*
X0407581Y0553184D01*
X0407435Y0553151D01*
X0407288Y0553122D01*
X0407141Y0553096D01*
X0406993Y0553074D01*
X0406845Y0553057D01*
X0406696Y0553043D01*
X0406547Y0553033D01*
X0406397Y0553027D01*
X0406248Y0553025D01*
X0406099Y0553027D01*
X0405949Y0553033D01*
X0405800Y0553043D01*
X0405651Y0553057D01*
X0405503Y0553074D01*
X0405355Y0553096D01*
X0405208Y0553122D01*
X0405061Y0553151D01*
X0404915Y0553184D01*
X0404770Y0553222D01*
X0404627Y0553263D01*
X0404484Y0553307D01*
X0404343Y0553356D01*
X0404203Y0553408D01*
X0404064Y0553464D01*
X0403927Y0553524D01*
X0403791Y0553587D01*
X0403658Y0553654D01*
X0403526Y0553724D01*
X0403396Y0553798D01*
X0403268Y0553875D01*
X0403142Y0553955D01*
X0403018Y0554039D01*
X0402896Y0554126D01*
X0402777Y0554216D01*
X0402660Y0554310D01*
X0402546Y0554406D01*
X0402435Y0554506D01*
X0402326Y0554608D01*
X0402219Y0554713D01*
X0402116Y0554821D01*
X0402015Y0554932D01*
X0402016Y0554932D02*
X0381543Y0571665D01*
X0381447Y0571741D01*
X0381348Y0571814D01*
X0381247Y0571884D01*
X0381144Y0571951D01*
X0381039Y0572015D01*
X0380932Y0572075D01*
X0380823Y0572132D01*
X0380712Y0572185D01*
X0380600Y0572235D01*
X0380486Y0572281D01*
X0380371Y0572324D01*
X0380254Y0572363D01*
X0380136Y0572398D01*
X0380018Y0572430D01*
X0379898Y0572457D01*
X0379777Y0572481D01*
X0379656Y0572502D01*
X0379534Y0572518D01*
X0379412Y0572530D01*
X0379289Y0572539D01*
X0379167Y0572544D01*
X0379044Y0572545D01*
X0378921Y0572542D01*
X0378798Y0572535D01*
X0378676Y0572524D01*
X0378554Y0572510D01*
X0378432Y0572491D01*
X0378311Y0572469D01*
X0378191Y0572443D01*
X0378072Y0572414D01*
X0377954Y0572380D01*
X0377837Y0572343D01*
X0377721Y0572302D01*
X0377606Y0572257D01*
X0377493Y0572209D01*
X0377382Y0572158D01*
X0377272Y0572102D01*
X0377164Y0572044D01*
X0377058Y0571982D01*
X0376953Y0571917D01*
X0376851Y0571848D01*
X0376752Y0571776D01*
X0376654Y0571702D01*
X0376559Y0571624D01*
X0376466Y0571543D01*
X0376376Y0571459D01*
X0376289Y0571373D01*
X0376205Y0571284D01*
X0376123Y0571192D01*
X0376044Y0571097D01*
X0375968Y0571001D01*
X0375896Y0570902D01*
X0375826Y0570800D01*
X0375760Y0570697D01*
X0375697Y0570591D01*
X0375637Y0570484D01*
X0375638Y0570483D02*
X0338236Y0531113D01*
X0306937Y0496861D01*
X0267370Y0453161D01*
X0245913Y0430326D01*
X0222094Y0405720D01*
X0184693Y0369105D01*
X0150244Y0336231D01*
X0150243Y0336232D02*
X0150093Y0336092D01*
X0149939Y0335955D01*
X0149782Y0335822D01*
X0149621Y0335693D01*
X0149458Y0335569D01*
X0149291Y0335448D01*
X0149122Y0335331D01*
X0148950Y0335218D01*
X0148775Y0335110D01*
X0148597Y0335006D01*
X0148417Y0334906D01*
X0148235Y0334811D01*
X0148050Y0334720D01*
X0147864Y0334634D01*
X0147675Y0334552D01*
X0147484Y0334475D01*
X0147292Y0334403D01*
X0147097Y0334335D01*
X0146901Y0334272D01*
X0146704Y0334214D01*
X0146505Y0334161D01*
X0146305Y0334112D01*
X0146104Y0334069D01*
X0145902Y0334030D01*
X0145699Y0333997D01*
X0145496Y0333968D01*
X0145291Y0333944D01*
X0145086Y0333925D01*
X0144881Y0333912D01*
X0144676Y0333903D01*
X0144470Y0333899D01*
X0144264Y0333900D01*
X0144059Y0333907D01*
X0143853Y0333918D01*
X0143648Y0333934D01*
X0143443Y0333956D01*
X0143239Y0333982D01*
X0143036Y0334013D01*
X0142834Y0334050D01*
X0142632Y0334091D01*
X0142431Y0334137D01*
X0142232Y0334188D01*
X0142034Y0334243D01*
X0141838Y0334304D01*
X0141642Y0334369D01*
X0141449Y0334440D01*
X0141257Y0334514D01*
X0141068Y0334594D01*
X0140880Y0334678D01*
X0140694Y0334766D01*
X0140511Y0334860D01*
X0140330Y0334957D01*
X0140151Y0335059D01*
X0139975Y0335165D01*
X0139801Y0335276D01*
X0139631Y0335391D01*
X0139463Y0335510D01*
X0139298Y0335632D01*
X0139136Y0335759D01*
X0138977Y0335890D01*
X0138821Y0336025D01*
X0138669Y0336163D01*
X0138520Y0336305D01*
X0138375Y0336451D01*
X0138234Y0336600D01*
X0138096Y0336753D01*
X0137961Y0336909D01*
X0137831Y0337068D01*
X0137704Y0337230D01*
X0137582Y0337395D01*
X0137464Y0337564D01*
X0137349Y0337735D01*
X0137239Y0337908D01*
X0137133Y0338085D01*
X0137032Y0338264D01*
X0136935Y0338445D01*
X0136842Y0338629D01*
X0136754Y0338815D01*
X0136671Y0339003D01*
X0136592Y0339193D01*
X0136517Y0339385D01*
X0136448Y0339578D01*
X0136383Y0339774D01*
X0136323Y0339970D01*
X0136268Y0340169D01*
X0134890Y0372058D02*
X0134881Y0372346D01*
X0134879Y0372635D01*
X0134884Y0372923D01*
X0134896Y0373211D01*
X0134915Y0373499D01*
X0134942Y0373787D01*
X0134975Y0374073D01*
X0135015Y0374359D01*
X0135062Y0374644D01*
X0135116Y0374927D01*
X0135176Y0375209D01*
X0135244Y0375489D01*
X0135318Y0375768D01*
X0135399Y0376045D01*
X0135487Y0376320D01*
X0135582Y0376592D01*
X0135683Y0376862D01*
X0135791Y0377130D01*
X0135905Y0377395D01*
X0136025Y0377657D01*
X0136152Y0377916D01*
X0136285Y0378172D01*
X0136425Y0378425D01*
X0136570Y0378674D01*
X0136722Y0378919D01*
X0136879Y0379161D01*
X0137042Y0379399D01*
X0137211Y0379633D01*
X0137386Y0379862D01*
X0137566Y0380088D01*
X0137752Y0380309D01*
X0137942Y0380525D01*
X0138138Y0380736D01*
X0138340Y0380943D01*
X0138546Y0381145D01*
X0138757Y0381342D01*
X0138972Y0381533D01*
X0139193Y0381720D01*
X0139418Y0381900D01*
X1025441Y0030129D02*
X1028197Y0033869D01*
X1056937Y0071665D01*
X1081937Y0102373D01*
X1103000Y0128948D01*
X1132724Y0168121D01*
X1159496Y0204342D01*
X1178394Y0230129D01*
X1183906Y0237216D01*
X1219732Y0277176D01*
X1255559Y0315365D01*
X1268945Y0333869D01*
X1292567Y0368515D01*
X1311071Y0409066D01*
X1322685Y0433279D01*
X1340795Y0461035D01*
X1354772Y0482491D01*
X1375441Y0506310D01*
X1412449Y0548239D01*
X1412448Y0548239D02*
X1412543Y0548350D01*
X1412641Y0548458D01*
X1412742Y0548564D01*
X1412845Y0548667D01*
X1412951Y0548767D01*
X1413060Y0548864D01*
X1413171Y0548959D01*
X1413285Y0549050D01*
X1413401Y0549138D01*
X1413520Y0549223D01*
X1413640Y0549305D01*
X1413763Y0549384D01*
X1413888Y0549459D01*
X1414015Y0549531D01*
X1414144Y0549600D01*
X1414274Y0549665D01*
X1414406Y0549727D01*
X1414540Y0549785D01*
X1414675Y0549839D01*
X1414812Y0549890D01*
X1414950Y0549938D01*
X1415089Y0549981D01*
X1415230Y0550021D01*
X1415371Y0550057D01*
X1415513Y0550089D01*
X1415657Y0550118D01*
X1415800Y0550142D01*
X1415945Y0550163D01*
X1416090Y0550180D01*
X1416235Y0550193D01*
X1416380Y0550202D01*
X1416526Y0550208D01*
X1416672Y0550209D01*
X1416818Y0550206D01*
X1416964Y0550200D01*
X1417109Y0550190D01*
X1417254Y0550176D01*
X1417399Y0550158D01*
X1417544Y0550136D01*
X1417687Y0550110D01*
X1417830Y0550081D01*
X1417972Y0550047D01*
X1418113Y0550010D01*
X1418253Y0549969D01*
X1418392Y0549925D01*
X1418530Y0549877D01*
X1418666Y0549825D01*
X1418801Y0549769D01*
X1418934Y0549710D01*
X1419066Y0549647D01*
X1419196Y0549581D01*
X1419324Y0549512D01*
X1419451Y0549439D01*
X1419575Y0549362D01*
X1419697Y0549283D01*
X1419817Y0549200D01*
X1419935Y0549114D01*
X1420051Y0549025D01*
X1420164Y0548933D01*
X1420274Y0548838D01*
X1420382Y0548740D01*
X1420488Y0548639D01*
X1420590Y0548535D01*
X1420690Y0548429D01*
X1420787Y0548320D01*
X1420881Y0548208D01*
X1420972Y0548094D01*
X1421060Y0547978D01*
X1421145Y0547859D01*
X1421227Y0547738D01*
X1421305Y0547615D01*
X1421380Y0547490D01*
X1421452Y0547363D01*
X1421520Y0547234D01*
X1421585Y0547103D01*
X1421646Y0546971D01*
X1421704Y0546837D01*
X1421758Y0546701D01*
X1421808Y0546565D01*
X1421855Y0546426D01*
X1421898Y0546287D01*
X1421938Y0546147D01*
X1421973Y0546005D01*
X1422005Y0545863D01*
X1422033Y0545720D01*
X1422058Y0545576D01*
X1422078Y0545431D01*
X1422095Y0545286D01*
X1422094Y0545287D02*
X1425638Y0510050D01*
X1422488Y0500011D02*
X1405953Y0480326D01*
X1385480Y0456901D01*
X1376425Y0442531D01*
X1355756Y0409657D01*
X1327213Y0348239D01*
X1318551Y0335247D01*
X1300047Y0309263D01*
X1284299Y0287019D01*
X1239220Y0238791D01*
X1214220Y0211822D01*
X1209693Y0205916D01*
X1190992Y0179735D01*
X1154575Y0129932D01*
X1135874Y0104539D01*
X1127213Y0094302D01*
X1108709Y0072452D01*
X1088827Y0047255D01*
X1063630Y0014972D01*
X1053591Y0005129D01*
X1053590Y0005129D02*
X1053472Y0005008D01*
X1053351Y0004889D01*
X1053227Y0004773D01*
X1053100Y0004661D01*
X1052971Y0004551D01*
X1052839Y0004445D01*
X1052704Y0004342D01*
X1052567Y0004242D01*
X1052427Y0004146D01*
X1052285Y0004053D01*
X1052141Y0003964D01*
X1051995Y0003878D01*
X1051847Y0003796D01*
X1051696Y0003718D01*
X1051544Y0003643D01*
X1051390Y0003572D01*
X1051235Y0003504D01*
X1051078Y0003441D01*
X1050919Y0003381D01*
X1050759Y0003326D01*
X1050597Y0003274D01*
X1050435Y0003226D01*
X1050271Y0003182D01*
X1050106Y0003143D01*
X1049940Y0003107D01*
X1049774Y0003075D01*
X1049606Y0003048D01*
X1049439Y0003024D01*
X1049270Y0003005D01*
X1049101Y0002990D01*
X1048932Y0002979D01*
X1048763Y0002972D01*
X1048593Y0002969D01*
X1048424Y0002970D01*
X1048254Y0002976D01*
X1048085Y0002986D01*
X1047916Y0002999D01*
X1047747Y0003017D01*
X1047579Y0003040D01*
X1047412Y0003066D01*
X1047245Y0003096D01*
X1047079Y0003130D01*
X1046914Y0003169D01*
X1046750Y0003211D01*
X1046587Y0003258D01*
X1046425Y0003308D01*
X1046264Y0003362D01*
X1046105Y0003421D01*
X1045947Y0003483D01*
X1045791Y0003549D01*
X1045637Y0003619D01*
X1045484Y0003692D01*
X1045333Y0003770D01*
X1045184Y0003851D01*
X1045037Y0003935D01*
X1044892Y0004023D01*
X1044750Y0004115D01*
X1044609Y0004210D01*
X1044471Y0004309D01*
X1044336Y0004411D01*
X1044203Y0004516D01*
X1044073Y0004624D01*
X1043945Y0004736D01*
X1043945Y0004735D02*
X1025047Y0021665D01*
X1025047Y0021664D02*
X1024954Y0021818D01*
X1024864Y0021975D01*
X1024778Y0022133D01*
X1024695Y0022294D01*
X1024617Y0022456D01*
X1024543Y0022620D01*
X1024472Y0022786D01*
X1024406Y0022954D01*
X1024344Y0023123D01*
X1024286Y0023294D01*
X1024232Y0023466D01*
X1024182Y0023639D01*
X1024136Y0023813D01*
X1024095Y0023989D01*
X1024058Y0024165D01*
X1024025Y0024342D01*
X1023996Y0024520D01*
X1023972Y0024699D01*
X1023952Y0024878D01*
X1023937Y0025058D01*
X1023925Y0025238D01*
X1023919Y0025418D01*
X1023916Y0025598D01*
X1023918Y0025778D01*
X1023924Y0025958D01*
X1023935Y0026138D01*
X1023950Y0026318D01*
X1023969Y0026497D01*
X1023992Y0026676D01*
X1024020Y0026854D01*
X1024052Y0027031D01*
X1024089Y0027208D01*
X1024130Y0027383D01*
X1024175Y0027558D01*
X1024224Y0027731D01*
X1024277Y0027904D01*
X1024335Y0028075D01*
X1024396Y0028244D01*
X1024462Y0028412D01*
X1024532Y0028578D01*
X1024605Y0028743D01*
X1024683Y0028905D01*
X1024765Y0029066D01*
X1024850Y0029225D01*
X1024939Y0029381D01*
X1025032Y0029536D01*
X1025129Y0029688D01*
X1025229Y0029837D01*
X1025333Y0029985D01*
X1025441Y0030129D01*
X1262843Y0105326D02*
X1304772Y0142334D01*
X1328591Y0163003D01*
X1350047Y0176979D01*
X1377803Y0195090D01*
X1402016Y0206704D01*
X1442567Y0225208D01*
X1477213Y0248830D01*
X1495717Y0262216D01*
X1533906Y0298042D01*
X1573866Y0333869D01*
X1580953Y0339381D01*
X1606740Y0358279D01*
X1642961Y0385050D01*
X1682134Y0414775D01*
X1708709Y0435838D01*
X1739417Y0460838D01*
X1777213Y0489578D01*
X1780953Y0492334D01*
X1781097Y0492442D01*
X1781245Y0492546D01*
X1781394Y0492646D01*
X1781546Y0492743D01*
X1781701Y0492836D01*
X1781857Y0492925D01*
X1782016Y0493010D01*
X1782177Y0493092D01*
X1782339Y0493170D01*
X1782504Y0493243D01*
X1782670Y0493313D01*
X1782838Y0493379D01*
X1783007Y0493440D01*
X1783178Y0493498D01*
X1783351Y0493551D01*
X1783524Y0493600D01*
X1783699Y0493645D01*
X1783874Y0493686D01*
X1784051Y0493723D01*
X1784228Y0493755D01*
X1784406Y0493783D01*
X1784585Y0493806D01*
X1784764Y0493825D01*
X1784944Y0493840D01*
X1785124Y0493851D01*
X1785304Y0493857D01*
X1785484Y0493859D01*
X1785664Y0493856D01*
X1785844Y0493850D01*
X1786024Y0493838D01*
X1786204Y0493823D01*
X1786383Y0493803D01*
X1786562Y0493779D01*
X1786740Y0493750D01*
X1786917Y0493717D01*
X1787093Y0493680D01*
X1787269Y0493639D01*
X1787443Y0493593D01*
X1787616Y0493543D01*
X1787788Y0493489D01*
X1787959Y0493431D01*
X1788128Y0493369D01*
X1788296Y0493303D01*
X1788462Y0493232D01*
X1788626Y0493158D01*
X1788788Y0493080D01*
X1788949Y0492997D01*
X1789107Y0492911D01*
X1789264Y0492821D01*
X1789418Y0492728D01*
X1789417Y0492728D02*
X1806346Y0473830D01*
X1806458Y0473702D01*
X1806566Y0473572D01*
X1806671Y0473439D01*
X1806773Y0473304D01*
X1806872Y0473166D01*
X1806967Y0473025D01*
X1807059Y0472883D01*
X1807147Y0472738D01*
X1807231Y0472591D01*
X1807312Y0472442D01*
X1807390Y0472291D01*
X1807463Y0472138D01*
X1807533Y0471984D01*
X1807599Y0471828D01*
X1807661Y0471670D01*
X1807720Y0471511D01*
X1807774Y0471350D01*
X1807824Y0471188D01*
X1807871Y0471025D01*
X1807913Y0470861D01*
X1807952Y0470696D01*
X1807986Y0470530D01*
X1808016Y0470363D01*
X1808042Y0470196D01*
X1808065Y0470028D01*
X1808083Y0469859D01*
X1808096Y0469690D01*
X1808106Y0469521D01*
X1808112Y0469351D01*
X1808113Y0469182D01*
X1808110Y0469012D01*
X1808103Y0468843D01*
X1808092Y0468674D01*
X1808077Y0468505D01*
X1808058Y0468336D01*
X1808034Y0468169D01*
X1808007Y0468001D01*
X1807975Y0467835D01*
X1807939Y0467669D01*
X1807900Y0467504D01*
X1807856Y0467340D01*
X1807808Y0467178D01*
X1807756Y0467016D01*
X1807701Y0466856D01*
X1807641Y0466697D01*
X1807578Y0466540D01*
X1807510Y0466385D01*
X1807439Y0466231D01*
X1807364Y0466079D01*
X1807286Y0465928D01*
X1807204Y0465780D01*
X1807118Y0465634D01*
X1807029Y0465490D01*
X1806936Y0465348D01*
X1806840Y0465208D01*
X1806740Y0465071D01*
X1806637Y0464936D01*
X1806531Y0464804D01*
X1806421Y0464675D01*
X1806309Y0464548D01*
X1806193Y0464424D01*
X1806074Y0464303D01*
X1805953Y0464185D01*
X1805953Y0464184D02*
X1796110Y0454145D01*
X1763827Y0428948D01*
X1738630Y0409066D01*
X1716780Y0390562D01*
X1706543Y0381901D01*
X1681150Y0363200D01*
X1631346Y0326783D01*
X1605165Y0308082D01*
X1599260Y0303554D01*
X1572291Y0278554D01*
X1524063Y0233476D01*
X1501819Y0217728D01*
X1475835Y0199224D01*
X1462843Y0190562D01*
X1401425Y0162019D01*
X1368551Y0141350D01*
X1354181Y0132294D01*
X1330756Y0111822D01*
X1311071Y0095287D01*
X1301031Y0092137D02*
X1265795Y0095680D01*
X1265796Y0095680D02*
X1265651Y0095697D01*
X1265506Y0095717D01*
X1265362Y0095742D01*
X1265219Y0095770D01*
X1265077Y0095802D01*
X1264935Y0095837D01*
X1264795Y0095877D01*
X1264656Y0095920D01*
X1264517Y0095967D01*
X1264381Y0096017D01*
X1264245Y0096071D01*
X1264111Y0096129D01*
X1263979Y0096190D01*
X1263848Y0096255D01*
X1263719Y0096323D01*
X1263592Y0096395D01*
X1263467Y0096470D01*
X1263344Y0096548D01*
X1263223Y0096630D01*
X1263104Y0096715D01*
X1262988Y0096803D01*
X1262874Y0096894D01*
X1262762Y0096988D01*
X1262653Y0097085D01*
X1262547Y0097185D01*
X1262443Y0097287D01*
X1262342Y0097393D01*
X1262244Y0097501D01*
X1262149Y0097611D01*
X1262057Y0097724D01*
X1261968Y0097840D01*
X1261882Y0097958D01*
X1261799Y0098078D01*
X1261720Y0098200D01*
X1261643Y0098324D01*
X1261570Y0098451D01*
X1261501Y0098579D01*
X1261435Y0098709D01*
X1261372Y0098841D01*
X1261313Y0098974D01*
X1261257Y0099109D01*
X1261205Y0099245D01*
X1261157Y0099383D01*
X1261113Y0099522D01*
X1261072Y0099662D01*
X1261035Y0099803D01*
X1261001Y0099945D01*
X1260972Y0100088D01*
X1260946Y0100231D01*
X1260924Y0100376D01*
X1260906Y0100521D01*
X1260892Y0100666D01*
X1260882Y0100811D01*
X1260876Y0100957D01*
X1260873Y0101103D01*
X1260874Y0101249D01*
X1260880Y0101395D01*
X1260889Y0101540D01*
X1260902Y0101685D01*
X1260919Y0101830D01*
X1260940Y0101975D01*
X1260964Y0102118D01*
X1260993Y0102262D01*
X1261025Y0102404D01*
X1261061Y0102545D01*
X1261101Y0102686D01*
X1261144Y0102825D01*
X1261192Y0102963D01*
X1261243Y0103100D01*
X1261297Y0103235D01*
X1261355Y0103369D01*
X1261417Y0103501D01*
X1261482Y0103631D01*
X1261551Y0103760D01*
X1261623Y0103887D01*
X1261698Y0104012D01*
X1261777Y0104135D01*
X1261859Y0104255D01*
X1261944Y0104374D01*
X1262032Y0104490D01*
X1262123Y0104604D01*
X1262218Y0104715D01*
X1262315Y0104824D01*
X1262415Y0104930D01*
X1262518Y0105033D01*
X1262624Y0105134D01*
X1262732Y0105232D01*
X1262843Y0105327D01*
X1301031Y0092136D02*
X1301357Y0092110D01*
X1301684Y0092093D01*
X1302011Y0092082D01*
X1302339Y0092080D01*
X1302666Y0092086D01*
X1302993Y0092099D01*
X1303319Y0092120D01*
X1303645Y0092149D01*
X1303971Y0092186D01*
X1304295Y0092231D01*
X1304618Y0092283D01*
X1304940Y0092343D01*
X1305260Y0092411D01*
X1305578Y0092486D01*
X1305895Y0092569D01*
X1306209Y0092659D01*
X1306522Y0092757D01*
X1306832Y0092863D01*
X1307139Y0092976D01*
X1307443Y0093096D01*
X1307745Y0093223D01*
X1308043Y0093357D01*
X1308338Y0093499D01*
X1308630Y0093648D01*
X1308918Y0093803D01*
X1309202Y0093966D01*
X1309482Y0094135D01*
X1309758Y0094311D01*
X1310030Y0094493D01*
X1310297Y0094682D01*
X1310560Y0094877D01*
X1310818Y0095078D01*
X1311071Y0095286D01*
X1422488Y0500011D02*
X1422696Y0500264D01*
X1422897Y0500522D01*
X1423092Y0500785D01*
X1423281Y0501052D01*
X1423463Y0501324D01*
X1423639Y0501600D01*
X1423808Y0501880D01*
X1423971Y0502164D01*
X1424126Y0502452D01*
X1424275Y0502744D01*
X1424417Y0503039D01*
X1424551Y0503337D01*
X1424678Y0503639D01*
X1424798Y0503943D01*
X1424911Y0504250D01*
X1425017Y0504560D01*
X1425115Y0504873D01*
X1425205Y0505187D01*
X1425288Y0505504D01*
X1425363Y0505822D01*
X1425431Y0506142D01*
X1425491Y0506464D01*
X1425543Y0506787D01*
X1425588Y0507111D01*
X1425625Y0507437D01*
X1425654Y0507763D01*
X1425675Y0508089D01*
X1425688Y0508416D01*
X1425694Y0508743D01*
X1425692Y0509071D01*
X1425681Y0509398D01*
X1425664Y0509725D01*
X1425638Y0510051D01*
X1558512Y0745483D02*
X1562646Y0745483D01*
X1586858Y0746468D01*
X1586859Y0746468D02*
X1587011Y0746476D01*
X1587163Y0746488D01*
X1587315Y0746504D01*
X1587466Y0746524D01*
X1587616Y0746548D01*
X1587766Y0746576D01*
X1587915Y0746608D01*
X1588064Y0746643D01*
X1588211Y0746682D01*
X1588357Y0746726D01*
X1588502Y0746773D01*
X1588646Y0746823D01*
X1588788Y0746878D01*
X1588929Y0746936D01*
X1589069Y0746997D01*
X1589207Y0747063D01*
X1589343Y0747132D01*
X1589477Y0747204D01*
X1589609Y0747280D01*
X1589739Y0747359D01*
X1589867Y0747442D01*
X1589993Y0747528D01*
X1590117Y0747617D01*
X1590239Y0747709D01*
X1590357Y0747805D01*
X1590474Y0747903D01*
X1590588Y0748004D01*
X1590699Y0748109D01*
X1590807Y0748216D01*
X1590913Y0748326D01*
X1591015Y0748439D01*
X1591115Y0748554D01*
X1591212Y0748672D01*
X1591305Y0748792D01*
X1591396Y0748915D01*
X1591483Y0749040D01*
X1591567Y0749167D01*
X1591648Y0749297D01*
X1591725Y0749428D01*
X1591799Y0749562D01*
X1591869Y0749697D01*
X1591936Y0749834D01*
X1591999Y0749973D01*
X1592059Y0750113D01*
X1592115Y0750255D01*
X1592167Y0750398D01*
X1592215Y0750543D01*
X1592260Y0750688D01*
X1592301Y0750835D01*
X1592338Y0750983D01*
X1592372Y0751132D01*
X1592401Y0751282D01*
X1592426Y0751432D01*
X1592448Y0751583D01*
X1592466Y0751734D01*
X1592479Y0751886D01*
X1592489Y0752038D01*
X1592495Y0752191D01*
X1592497Y0752343D01*
X1592495Y0752496D01*
X1592489Y0752648D01*
X1592479Y0752800D01*
X1592465Y0752952D01*
X1592447Y0753103D01*
X1592425Y0753254D01*
X1592400Y0753405D01*
X1592370Y0753554D01*
X1589024Y0834066D01*
X1587449Y0866153D01*
X1582134Y0981310D01*
X1581150Y1006704D01*
X1581149Y1006704D02*
X1581151Y1006812D01*
X1581157Y1006920D01*
X1581167Y1007027D01*
X1581180Y1007134D01*
X1581198Y1007240D01*
X1581220Y1007346D01*
X1581245Y1007451D01*
X1581274Y1007555D01*
X1581307Y1007657D01*
X1581344Y1007759D01*
X1581384Y1007859D01*
X1581428Y1007957D01*
X1581476Y1008054D01*
X1581527Y1008149D01*
X1581581Y1008242D01*
X1581639Y1008333D01*
X1581700Y1008422D01*
X1581765Y1008509D01*
X1581832Y1008593D01*
X1581903Y1008675D01*
X1581976Y1008754D01*
X1582052Y1008830D01*
X1582131Y1008903D01*
X1582213Y1008974D01*
X1582297Y1009041D01*
X1582384Y1009106D01*
X1582473Y1009167D01*
X1582564Y1009225D01*
X1582657Y1009279D01*
X1582752Y1009330D01*
X1582849Y1009378D01*
X1582947Y1009422D01*
X1583047Y1009462D01*
X1583149Y1009499D01*
X1583251Y1009532D01*
X1583355Y1009561D01*
X1583460Y1009586D01*
X1583566Y1009608D01*
X1583672Y1009626D01*
X1583779Y1009639D01*
X1583886Y1009649D01*
X1583994Y1009655D01*
X1584102Y1009657D01*
X1585874Y1009657D01*
X1621307Y1010641D01*
X1653394Y1011625D01*
X1673472Y1012413D01*
X1774850Y0981310D01*
X1820717Y0966940D01*
X1823276Y0934263D01*
X1823275Y0934263D02*
X1823277Y0934111D01*
X1823283Y0933959D01*
X1823293Y0933807D01*
X1823306Y0933656D01*
X1823324Y0933505D01*
X1823345Y0933354D01*
X1823371Y0933204D01*
X1823400Y0933055D01*
X1823433Y0932906D01*
X1823470Y0932759D01*
X1823510Y0932612D01*
X1823555Y0932467D01*
X1823603Y0932323D01*
X1823655Y0932180D01*
X1823710Y0932038D01*
X1823769Y0931898D01*
X1823832Y0931759D01*
X1823898Y0931622D01*
X1823968Y0931487D01*
X1824041Y0931354D01*
X1824118Y0931223D01*
X1824198Y0931093D01*
X1824281Y0930966D01*
X1824367Y0930841D01*
X1824457Y0930718D01*
X1824550Y0930598D01*
X1824646Y0930480D01*
X1824745Y0930364D01*
X1824847Y0930251D01*
X1824951Y0930141D01*
X1825059Y0930033D01*
X1825169Y0929929D01*
X1825282Y0929827D01*
X1825398Y0929728D01*
X1825516Y0929632D01*
X1825636Y0929539D01*
X1825759Y0929449D01*
X1825884Y0929363D01*
X1826011Y0929280D01*
X1826141Y0929200D01*
X1826272Y0929123D01*
X1826405Y0929050D01*
X1826540Y0928980D01*
X1826677Y0928914D01*
X1826816Y0928851D01*
X1826956Y0928792D01*
X1827098Y0928737D01*
X1827241Y0928685D01*
X1827385Y0928637D01*
X1827530Y0928592D01*
X1827677Y0928552D01*
X1827824Y0928515D01*
X1827973Y0928482D01*
X1828122Y0928453D01*
X1828272Y0928427D01*
X1828423Y0928406D01*
X1828574Y0928388D01*
X1828725Y0928375D01*
X1828877Y0928365D01*
X1829029Y0928359D01*
X1829181Y0928357D01*
X1829969Y0928357D01*
X1855953Y0929539D01*
X1855953Y0929538D02*
X1856102Y0929540D01*
X1856252Y0929546D01*
X1856401Y0929556D01*
X1856550Y0929569D01*
X1856698Y0929587D01*
X1856846Y0929608D01*
X1856993Y0929634D01*
X1857140Y0929663D01*
X1857286Y0929696D01*
X1857431Y0929733D01*
X1857574Y0929773D01*
X1857717Y0929817D01*
X1857859Y0929865D01*
X1857999Y0929917D01*
X1858138Y0929973D01*
X1858275Y0930032D01*
X1858411Y0930094D01*
X1858545Y0930160D01*
X1858677Y0930230D01*
X1858808Y0930303D01*
X1858936Y0930379D01*
X1859062Y0930459D01*
X1859187Y0930542D01*
X1859309Y0930628D01*
X1859428Y0930718D01*
X1859546Y0930810D01*
X1859661Y0930906D01*
X1859773Y0931004D01*
X1859883Y0931106D01*
X1859990Y0931210D01*
X1860094Y0931317D01*
X1860196Y0931427D01*
X1860294Y0931539D01*
X1860390Y0931654D01*
X1860482Y0931772D01*
X1860572Y0931891D01*
X1860658Y0932013D01*
X1860741Y0932138D01*
X1860821Y0932264D01*
X1860897Y0932393D01*
X1860970Y0932523D01*
X1861040Y0932655D01*
X1861106Y0932789D01*
X1861168Y0932925D01*
X1861227Y0933062D01*
X1861283Y0933201D01*
X1861335Y0933341D01*
X1861383Y0933483D01*
X1861427Y0933626D01*
X1861467Y0933769D01*
X1861504Y0933914D01*
X1861537Y0934060D01*
X1861566Y0934207D01*
X1861592Y0934354D01*
X1861613Y0934502D01*
X1861631Y0934650D01*
X1861644Y0934799D01*
X1861654Y0934948D01*
X1861660Y0935098D01*
X1861662Y0935247D01*
X1861661Y0935247D02*
X1861661Y0935641D01*
X1858709Y0983672D01*
X1858708Y0983672D02*
X1858675Y0984127D01*
X1858631Y0984581D01*
X1858575Y0985033D01*
X1858509Y0985484D01*
X1858432Y0985934D01*
X1858344Y0986381D01*
X1858245Y0986826D01*
X1858135Y0987269D01*
X1858015Y0987709D01*
X1857885Y0988146D01*
X1857743Y0988579D01*
X1857592Y0989009D01*
X1857430Y0989436D01*
X1857258Y0989858D01*
X1857075Y0990276D01*
X1856883Y0990689D01*
X1856680Y0991098D01*
X1856468Y0991501D01*
X1856247Y0991900D01*
X1856015Y0992293D01*
X1855774Y0992680D01*
X1855524Y0993061D01*
X1855265Y0993436D01*
X1854997Y0993805D01*
X1854720Y0994167D01*
X1854434Y0994523D01*
X1854140Y0994871D01*
X1853838Y0995212D01*
X1853527Y0995546D01*
X1853209Y0995873D01*
X1852882Y0996191D01*
X1852548Y0996501D01*
X1852207Y0996804D01*
X1851858Y0997098D01*
X1851503Y0997383D01*
X1851140Y0997660D01*
X1850772Y0997928D01*
X1850396Y0998187D01*
X1850015Y0998437D01*
X1849627Y0998678D01*
X1849234Y0998909D01*
X1848836Y0999130D01*
X1848432Y0999342D01*
X1848023Y0999544D01*
X1847610Y0999737D01*
X1847192Y0999919D01*
X1846770Y1000091D01*
X1846343Y1000253D01*
X1845913Y1000404D01*
X1845913Y1000405D02*
X1815598Y1010838D01*
X1784890Y1020090D01*
X1680559Y1051783D01*
X1677409Y1052176D01*
X1651031Y1051586D01*
X1620323Y1050602D01*
X1564220Y1049027D01*
X1506150Y1049420D01*
X1468551Y1050011D01*
X1444732Y1050405D01*
X1442961Y1050405D01*
X1408906Y1040562D01*
X1360283Y1024224D01*
X1336268Y1016546D01*
X1305559Y1006113D01*
X1278591Y0997255D01*
X1264811Y0985051D02*
X1264612Y0984613D01*
X1264424Y0984170D01*
X1264246Y0983723D01*
X1264079Y0983272D01*
X1263922Y0982817D01*
X1263777Y0982359D01*
X1263642Y0981897D01*
X1263519Y0981432D01*
X1263407Y0980965D01*
X1263305Y0980495D01*
X1263216Y0980022D01*
X1263137Y0979548D01*
X1263070Y0979071D01*
X1263014Y0978594D01*
X1262969Y0978115D01*
X1262936Y0977635D01*
X1262915Y0977154D01*
X1262905Y0976674D01*
X1262906Y0976193D01*
X1262919Y0975712D01*
X1262943Y0975231D01*
X1262979Y0974752D01*
X1263026Y0974273D01*
X1263085Y0973796D01*
X1263155Y0973320D01*
X1263236Y0972846D01*
X1261268Y0930720D01*
X1261270Y0930565D01*
X1261276Y0930411D01*
X1261286Y0930257D01*
X1261299Y0930103D01*
X1261317Y0929949D01*
X1261338Y0929796D01*
X1261364Y0929643D01*
X1261393Y0929492D01*
X1261426Y0929341D01*
X1261463Y0929191D01*
X1261503Y0929041D01*
X1261548Y0928893D01*
X1261596Y0928746D01*
X1261648Y0928601D01*
X1261703Y0928456D01*
X1261763Y0928314D01*
X1261825Y0928172D01*
X1261892Y0928033D01*
X1261961Y0927895D01*
X1262035Y0927759D01*
X1262111Y0927624D01*
X1262192Y0927492D01*
X1262275Y0927362D01*
X1262362Y0927234D01*
X1262452Y0927108D01*
X1262545Y0926985D01*
X1262641Y0926864D01*
X1262740Y0926745D01*
X1262842Y0926629D01*
X1262947Y0926516D01*
X1263055Y0926405D01*
X1263166Y0926297D01*
X1263279Y0926192D01*
X1263395Y0926090D01*
X1263514Y0925991D01*
X1263635Y0925895D01*
X1263758Y0925802D01*
X1263884Y0925712D01*
X1264012Y0925625D01*
X1264142Y0925542D01*
X1264274Y0925461D01*
X1264409Y0925385D01*
X1264545Y0925311D01*
X1264683Y0925242D01*
X1264822Y0925175D01*
X1264964Y0925113D01*
X1265106Y0925053D01*
X1265251Y0924998D01*
X1265396Y0924946D01*
X1265543Y0924898D01*
X1265691Y0924853D01*
X1265841Y0924813D01*
X1265991Y0924776D01*
X1266142Y0924743D01*
X1266293Y0924714D01*
X1266446Y0924688D01*
X1266599Y0924667D01*
X1266753Y0924649D01*
X1266907Y0924636D01*
X1267061Y0924626D01*
X1267215Y0924620D01*
X1267370Y0924618D01*
X1267370Y0924617D02*
X1293354Y0923830D01*
X1293508Y0923827D01*
X1293662Y0923828D01*
X1293816Y0923833D01*
X1293970Y0923842D01*
X1294124Y0923855D01*
X1294277Y0923871D01*
X1294429Y0923892D01*
X1294581Y0923916D01*
X1294733Y0923944D01*
X1294883Y0923976D01*
X1295033Y0924012D01*
X1295182Y0924051D01*
X1295330Y0924094D01*
X1295477Y0924141D01*
X1295622Y0924192D01*
X1295766Y0924246D01*
X1295909Y0924304D01*
X1296050Y0924365D01*
X1296190Y0924430D01*
X1296328Y0924498D01*
X1296464Y0924570D01*
X1296599Y0924645D01*
X1296731Y0924724D01*
X1296862Y0924805D01*
X1296990Y0924891D01*
X1297116Y0924979D01*
X1297240Y0925070D01*
X1297362Y0925165D01*
X1297481Y0925262D01*
X1297598Y0925363D01*
X1297712Y0925466D01*
X1297823Y0925573D01*
X1297932Y0925682D01*
X1298038Y0925793D01*
X1298141Y0925908D01*
X1298241Y0926025D01*
X1298339Y0926144D01*
X1298433Y0926266D01*
X1298524Y0926390D01*
X1298612Y0926516D01*
X1298697Y0926645D01*
X1298779Y0926775D01*
X1298857Y0926908D01*
X1298932Y0927043D01*
X1299003Y0927179D01*
X1299071Y0927317D01*
X1299136Y0927457D01*
X1299197Y0927599D01*
X1299254Y0927741D01*
X1299308Y0927886D01*
X1299358Y0928031D01*
X1299405Y0928178D01*
X1299448Y0928326D01*
X1299487Y0928475D01*
X1299522Y0928625D01*
X1299553Y0928776D01*
X1299581Y0928927D01*
X1299605Y0929079D01*
X1299625Y0929232D01*
X1299641Y0929385D01*
X1299654Y0929539D01*
X1301425Y0959657D01*
X1301425Y0960641D01*
X1301427Y0960744D01*
X1301433Y0960847D01*
X1301442Y0960950D01*
X1301456Y0961052D01*
X1301473Y0961153D01*
X1301494Y0961254D01*
X1301519Y0961354D01*
X1301547Y0961453D01*
X1301580Y0961551D01*
X1301616Y0961648D01*
X1301655Y0961743D01*
X1301698Y0961837D01*
X1301744Y0961929D01*
X1301794Y0962019D01*
X1301847Y0962107D01*
X1301904Y0962194D01*
X1301964Y0962278D01*
X1302026Y0962359D01*
X1302092Y0962439D01*
X1302161Y0962516D01*
X1302232Y0962590D01*
X1302306Y0962661D01*
X1302383Y0962730D01*
X1302463Y0962796D01*
X1302544Y0962858D01*
X1302628Y0962918D01*
X1302715Y0962975D01*
X1302803Y0963028D01*
X1302893Y0963078D01*
X1302985Y0963124D01*
X1303079Y0963167D01*
X1303174Y0963206D01*
X1303271Y0963242D01*
X1303369Y0963275D01*
X1303468Y0963303D01*
X1303568Y0963328D01*
X1303669Y0963349D01*
X1303770Y0963366D01*
X1303872Y0963380D01*
X1303975Y0963389D01*
X1304078Y0963395D01*
X1304181Y0963397D01*
X1318157Y0967924D01*
X1347488Y0977570D01*
X1442567Y1008476D01*
X1454575Y1010050D02*
X1501622Y1009853D01*
X1534102Y1009066D01*
X1536268Y1009066D01*
X1536268Y1009067D02*
X1536400Y1009065D01*
X1536531Y1009059D01*
X1536663Y1009050D01*
X1536794Y1009036D01*
X1536924Y1009019D01*
X1537054Y1008998D01*
X1537184Y1008973D01*
X1537312Y1008945D01*
X1537440Y1008913D01*
X1537567Y1008877D01*
X1537692Y1008837D01*
X1537817Y1008794D01*
X1537940Y1008747D01*
X1538061Y1008697D01*
X1538182Y1008643D01*
X1538300Y1008585D01*
X1538417Y1008525D01*
X1538532Y1008460D01*
X1538645Y1008393D01*
X1538756Y1008322D01*
X1538865Y1008248D01*
X1538972Y1008171D01*
X1539076Y1008091D01*
X1539179Y1008008D01*
X1539278Y1007922D01*
X1539375Y1007833D01*
X1539470Y1007741D01*
X1539562Y1007646D01*
X1539651Y1007549D01*
X1539737Y1007450D01*
X1539820Y1007347D01*
X1539900Y1007243D01*
X1539977Y1007136D01*
X1540051Y1007027D01*
X1540122Y1006916D01*
X1540189Y1006803D01*
X1540254Y1006688D01*
X1540314Y1006571D01*
X1540372Y1006453D01*
X1540426Y1006332D01*
X1540476Y1006211D01*
X1540523Y1006088D01*
X1540566Y1005963D01*
X1540606Y1005838D01*
X1540642Y1005711D01*
X1540674Y1005583D01*
X1540702Y1005455D01*
X1540727Y1005325D01*
X1540748Y1005195D01*
X1540765Y1005065D01*
X1540779Y1004934D01*
X1540788Y1004802D01*
X1540794Y1004671D01*
X1540796Y1004539D01*
X1540795Y1004539D02*
X1541780Y0978751D01*
X1548079Y0864578D01*
X1549654Y0833279D01*
X1553984Y0750602D01*
X1553984Y0750601D02*
X1553978Y0750463D01*
X1553975Y0750325D01*
X1553976Y0750187D01*
X1553982Y0750050D01*
X1553991Y0749912D01*
X1554004Y0749775D01*
X1554021Y0749638D01*
X1554042Y0749501D01*
X1554067Y0749365D01*
X1554096Y0749231D01*
X1554129Y0749096D01*
X1554165Y0748963D01*
X1554206Y0748831D01*
X1554250Y0748701D01*
X1554297Y0748571D01*
X1554349Y0748443D01*
X1554404Y0748316D01*
X1554462Y0748192D01*
X1554524Y0748068D01*
X1554590Y0747947D01*
X1554659Y0747827D01*
X1554732Y0747710D01*
X1554807Y0747595D01*
X1554886Y0747482D01*
X1554969Y0747371D01*
X1555054Y0747262D01*
X1555143Y0747156D01*
X1555234Y0747053D01*
X1555328Y0746952D01*
X1555425Y0746854D01*
X1555525Y0746759D01*
X1555628Y0746667D01*
X1555733Y0746578D01*
X1555841Y0746491D01*
X1555951Y0746408D01*
X1556064Y0746328D01*
X1556178Y0746252D01*
X1556295Y0746178D01*
X1556414Y0746108D01*
X1556535Y0746042D01*
X1556658Y0745978D01*
X1556782Y0745919D01*
X1556908Y0745863D01*
X1557036Y0745810D01*
X1557165Y0745762D01*
X1557295Y0745717D01*
X1557427Y0745675D01*
X1557560Y0745638D01*
X1557694Y0745604D01*
X1557828Y0745574D01*
X1557964Y0745548D01*
X1558100Y0745526D01*
X1558237Y0745508D01*
X1558374Y0745493D01*
X1558512Y0745483D01*
X1454575Y1010051D02*
X1453764Y1010084D01*
X1452952Y1010098D01*
X1452140Y1010091D01*
X1451329Y1010065D01*
X1450518Y1010019D01*
X1449709Y1009953D01*
X1448901Y1009867D01*
X1448096Y1009762D01*
X1447294Y1009636D01*
X1446495Y1009491D01*
X1445700Y1009327D01*
X1444909Y1009143D01*
X1444123Y1008940D01*
X1443342Y1008717D01*
X1442567Y1008476D01*
X1278591Y0997255D02*
X1278064Y0997075D01*
X1277542Y0996883D01*
X1277024Y0996678D01*
X1276512Y0996460D01*
X1276005Y0996230D01*
X1275503Y0995989D01*
X1275008Y0995735D01*
X1274519Y0995470D01*
X1274036Y0995192D01*
X1273560Y0994904D01*
X1273091Y0994604D01*
X1272629Y0994293D01*
X1272175Y0993971D01*
X1271729Y0993638D01*
X1271291Y0993294D01*
X1270861Y0992941D01*
X1270440Y0992576D01*
X1270028Y0992202D01*
X1269625Y0991819D01*
X1269231Y0991425D01*
X1268847Y0991023D01*
X1268472Y0990611D01*
X1268108Y0990190D01*
X1267753Y0989761D01*
X1267409Y0989323D01*
X1267076Y0988877D01*
X1266753Y0988424D01*
X1266442Y0987962D01*
X1266141Y0987494D01*
X1265852Y0987018D01*
X1265574Y0986536D01*
X1265308Y0986047D01*
X1265054Y0985552D01*
X1264811Y0985051D01*
X0719338Y1021467D02*
X0719067Y1021461D01*
X0718797Y1021448D01*
X0718527Y1021428D01*
X0718257Y1021402D01*
X0717988Y1021369D01*
X0717720Y1021330D01*
X0717453Y1021284D01*
X0717188Y1021231D01*
X0716923Y1021173D01*
X0716660Y1021107D01*
X0716399Y1021035D01*
X0716140Y1020957D01*
X0715883Y1020873D01*
X0715627Y1020782D01*
X0715374Y1020685D01*
X0715124Y1020582D01*
X0714876Y1020473D01*
X0714631Y1020358D01*
X0714389Y1020237D01*
X0714149Y1020110D01*
X0713913Y1019977D01*
X0713681Y1019838D01*
X0713451Y1019694D01*
X0713226Y1019544D01*
X0713004Y1019389D01*
X0712786Y1019229D01*
X0712572Y1019063D01*
X0712362Y1018892D01*
X0712156Y1018716D01*
X0711954Y1018534D01*
X0711758Y1018348D01*
X0711565Y1018158D01*
X0711378Y1017962D01*
X0711195Y1017762D01*
X0711017Y1017558D01*
X0710844Y1017349D01*
X0710677Y1017137D01*
M02*
