G75*
%MOIN*%
%OFA0B0*%
%FSLAX25Y25*%
%IPPOS*%
%LPD*%
%AMOC8*
5,1,8,0,0,1.08239X$1,22.5*
%
%ADD10C,0.00394*%
D10*
X0092820Y0714239D02*
X0093354Y0714109D01*
X0093904Y0714085D01*
X0119516Y0713528D01*
X0120138Y0713574D01*
X0120741Y0713738D01*
X0121302Y0714013D01*
X0121801Y0714389D01*
X0122219Y0714853D01*
X0122541Y0715388D01*
X0122756Y0715974D01*
X0122856Y0716591D01*
X0124527Y0729118D01*
X0129955Y0764613D01*
X0136636Y0803587D01*
X0128006Y0815279D01*
X0118263Y0817228D01*
X0105735Y0809433D01*
X0099193Y0772825D01*
X0095992Y0751250D01*
X0090981Y0717287D01*
X0090954Y0716737D01*
X0091036Y0716193D01*
X0091223Y0715675D01*
X0091507Y0715204D01*
X0091878Y0714798D01*
X0092321Y0714472D01*
X0092820Y0714239D01*
X0092489Y0714394D02*
X0121805Y0714394D01*
X0122159Y0714786D02*
X0091894Y0714786D01*
X0091531Y0715178D02*
X0122415Y0715178D01*
X0122608Y0715570D02*
X0091286Y0715570D01*
X0091119Y0715963D02*
X0122752Y0715963D01*
X0122818Y0716355D02*
X0091012Y0716355D01*
X0090955Y0716747D02*
X0122877Y0716747D01*
X0122929Y0717139D02*
X0090974Y0717139D01*
X0091017Y0717531D02*
X0122982Y0717531D01*
X0123034Y0717924D02*
X0091075Y0717924D01*
X0091133Y0718316D02*
X0123086Y0718316D01*
X0123139Y0718708D02*
X0091191Y0718708D01*
X0091248Y0719100D02*
X0123191Y0719100D01*
X0123243Y0719492D02*
X0091306Y0719492D01*
X0091364Y0719885D02*
X0123295Y0719885D01*
X0123348Y0720277D02*
X0091422Y0720277D01*
X0091480Y0720669D02*
X0123400Y0720669D01*
X0123452Y0721061D02*
X0091538Y0721061D01*
X0091596Y0721454D02*
X0123505Y0721454D01*
X0123557Y0721846D02*
X0091653Y0721846D01*
X0091711Y0722238D02*
X0123609Y0722238D01*
X0123662Y0722630D02*
X0091769Y0722630D01*
X0091827Y0723022D02*
X0123714Y0723022D01*
X0123766Y0723415D02*
X0091885Y0723415D01*
X0091943Y0723807D02*
X0123818Y0723807D01*
X0123871Y0724199D02*
X0092001Y0724199D01*
X0092059Y0724591D02*
X0123923Y0724591D01*
X0123975Y0724983D02*
X0092116Y0724983D01*
X0092174Y0725376D02*
X0124028Y0725376D01*
X0124080Y0725768D02*
X0092232Y0725768D01*
X0092290Y0726160D02*
X0124132Y0726160D01*
X0124185Y0726552D02*
X0092348Y0726552D01*
X0092406Y0726944D02*
X0124237Y0726944D01*
X0124289Y0727337D02*
X0092464Y0727337D01*
X0092521Y0727729D02*
X0124341Y0727729D01*
X0124394Y0728121D02*
X0092579Y0728121D01*
X0092637Y0728513D02*
X0124446Y0728513D01*
X0124498Y0728906D02*
X0092695Y0728906D01*
X0092753Y0729298D02*
X0124554Y0729298D01*
X0124614Y0729690D02*
X0092811Y0729690D01*
X0092869Y0730082D02*
X0124674Y0730082D01*
X0124734Y0730474D02*
X0092927Y0730474D01*
X0092984Y0730867D02*
X0124794Y0730867D01*
X0124854Y0731259D02*
X0093042Y0731259D01*
X0093100Y0731651D02*
X0124914Y0731651D01*
X0124974Y0732043D02*
X0093158Y0732043D01*
X0093216Y0732435D02*
X0125034Y0732435D01*
X0125094Y0732828D02*
X0093274Y0732828D01*
X0093332Y0733220D02*
X0125154Y0733220D01*
X0125214Y0733612D02*
X0093389Y0733612D01*
X0093447Y0734004D02*
X0125274Y0734004D01*
X0125334Y0734397D02*
X0093505Y0734397D01*
X0093563Y0734789D02*
X0125394Y0734789D01*
X0125454Y0735181D02*
X0093621Y0735181D01*
X0093679Y0735573D02*
X0125514Y0735573D01*
X0125574Y0735965D02*
X0093737Y0735965D01*
X0093795Y0736358D02*
X0125634Y0736358D01*
X0125694Y0736750D02*
X0093852Y0736750D01*
X0093910Y0737142D02*
X0125754Y0737142D01*
X0125814Y0737534D02*
X0093968Y0737534D01*
X0094026Y0737926D02*
X0125874Y0737926D01*
X0125934Y0738319D02*
X0094084Y0738319D01*
X0094142Y0738711D02*
X0125994Y0738711D01*
X0126054Y0739103D02*
X0094200Y0739103D01*
X0094257Y0739495D02*
X0126114Y0739495D01*
X0126174Y0739887D02*
X0094315Y0739887D01*
X0094373Y0740280D02*
X0126234Y0740280D01*
X0126294Y0740672D02*
X0094431Y0740672D01*
X0094489Y0741064D02*
X0126354Y0741064D01*
X0126414Y0741456D02*
X0094547Y0741456D01*
X0094605Y0741849D02*
X0126474Y0741849D01*
X0126534Y0742241D02*
X0094663Y0742241D01*
X0094720Y0742633D02*
X0126594Y0742633D01*
X0126654Y0743025D02*
X0094778Y0743025D01*
X0094836Y0743417D02*
X0126714Y0743417D01*
X0126774Y0743810D02*
X0094894Y0743810D01*
X0094952Y0744202D02*
X0126834Y0744202D01*
X0126894Y0744594D02*
X0095010Y0744594D01*
X0095068Y0744986D02*
X0126954Y0744986D01*
X0127013Y0745378D02*
X0095125Y0745378D01*
X0095183Y0745771D02*
X0127073Y0745771D01*
X0127133Y0746163D02*
X0095241Y0746163D01*
X0095299Y0746555D02*
X0127193Y0746555D01*
X0127253Y0746947D02*
X0095357Y0746947D01*
X0095415Y0747340D02*
X0127313Y0747340D01*
X0127373Y0747732D02*
X0095473Y0747732D01*
X0095531Y0748124D02*
X0127433Y0748124D01*
X0127493Y0748516D02*
X0095588Y0748516D01*
X0095646Y0748908D02*
X0127553Y0748908D01*
X0127613Y0749301D02*
X0095704Y0749301D01*
X0095762Y0749693D02*
X0127673Y0749693D01*
X0127733Y0750085D02*
X0095820Y0750085D01*
X0095878Y0750477D02*
X0127793Y0750477D01*
X0127853Y0750869D02*
X0095936Y0750869D01*
X0095993Y0751262D02*
X0127913Y0751262D01*
X0127973Y0751654D02*
X0096052Y0751654D01*
X0096110Y0752046D02*
X0128033Y0752046D01*
X0128093Y0752438D02*
X0096168Y0752438D01*
X0096226Y0752830D02*
X0128153Y0752830D01*
X0128213Y0753223D02*
X0096284Y0753223D01*
X0096343Y0753615D02*
X0128273Y0753615D01*
X0128333Y0754007D02*
X0096401Y0754007D01*
X0096459Y0754399D02*
X0128393Y0754399D01*
X0128453Y0754792D02*
X0096517Y0754792D01*
X0096575Y0755184D02*
X0128513Y0755184D01*
X0128573Y0755576D02*
X0096634Y0755576D01*
X0096692Y0755968D02*
X0128633Y0755968D01*
X0128693Y0756360D02*
X0096750Y0756360D01*
X0096808Y0756753D02*
X0128753Y0756753D01*
X0128813Y0757145D02*
X0096866Y0757145D01*
X0096925Y0757537D02*
X0128873Y0757537D01*
X0128933Y0757929D02*
X0096983Y0757929D01*
X0097041Y0758321D02*
X0128993Y0758321D01*
X0129053Y0758714D02*
X0097099Y0758714D01*
X0097157Y0759106D02*
X0129113Y0759106D01*
X0129173Y0759498D02*
X0097216Y0759498D01*
X0097274Y0759890D02*
X0129233Y0759890D01*
X0129293Y0760283D02*
X0097332Y0760283D01*
X0097390Y0760675D02*
X0129353Y0760675D01*
X0129413Y0761067D02*
X0097448Y0761067D01*
X0097507Y0761459D02*
X0129473Y0761459D01*
X0129533Y0761851D02*
X0097565Y0761851D01*
X0097623Y0762244D02*
X0129593Y0762244D01*
X0129653Y0762636D02*
X0097681Y0762636D01*
X0097739Y0763028D02*
X0129713Y0763028D01*
X0129773Y0763420D02*
X0097798Y0763420D01*
X0097856Y0763812D02*
X0129833Y0763812D01*
X0129893Y0764205D02*
X0097914Y0764205D01*
X0097972Y0764597D02*
X0129953Y0764597D01*
X0130020Y0764989D02*
X0098030Y0764989D01*
X0098089Y0765381D02*
X0130087Y0765381D01*
X0130154Y0765773D02*
X0098147Y0765773D01*
X0098205Y0766166D02*
X0130221Y0766166D01*
X0130289Y0766558D02*
X0098263Y0766558D01*
X0098321Y0766950D02*
X0130356Y0766950D01*
X0130423Y0767342D02*
X0098380Y0767342D01*
X0098438Y0767735D02*
X0130490Y0767735D01*
X0130558Y0768127D02*
X0098496Y0768127D01*
X0098554Y0768519D02*
X0130625Y0768519D01*
X0130692Y0768911D02*
X0098612Y0768911D01*
X0098671Y0769303D02*
X0130759Y0769303D01*
X0130827Y0769696D02*
X0098729Y0769696D01*
X0098787Y0770088D02*
X0130894Y0770088D01*
X0130961Y0770480D02*
X0098845Y0770480D01*
X0098903Y0770872D02*
X0131028Y0770872D01*
X0131095Y0771264D02*
X0098962Y0771264D01*
X0099020Y0771657D02*
X0131163Y0771657D01*
X0131230Y0772049D02*
X0099078Y0772049D01*
X0099136Y0772441D02*
X0131297Y0772441D01*
X0131364Y0772833D02*
X0099195Y0772833D01*
X0099265Y0773226D02*
X0131432Y0773226D01*
X0131499Y0773618D02*
X0099335Y0773618D01*
X0099405Y0774010D02*
X0131566Y0774010D01*
X0131633Y0774402D02*
X0099475Y0774402D01*
X0099545Y0774794D02*
X0131701Y0774794D01*
X0131768Y0775187D02*
X0099615Y0775187D01*
X0099685Y0775579D02*
X0131835Y0775579D01*
X0131902Y0775971D02*
X0099755Y0775971D01*
X0099826Y0776363D02*
X0131970Y0776363D01*
X0132037Y0776755D02*
X0099896Y0776755D01*
X0099966Y0777148D02*
X0132104Y0777148D01*
X0132171Y0777540D02*
X0100036Y0777540D01*
X0100106Y0777932D02*
X0132239Y0777932D01*
X0132306Y0778324D02*
X0100176Y0778324D01*
X0100246Y0778716D02*
X0132373Y0778716D01*
X0132440Y0779109D02*
X0100316Y0779109D01*
X0100386Y0779501D02*
X0132507Y0779501D01*
X0132575Y0779893D02*
X0100456Y0779893D01*
X0100526Y0780285D02*
X0132642Y0780285D01*
X0132709Y0780678D02*
X0100597Y0780678D01*
X0100667Y0781070D02*
X0132776Y0781070D01*
X0132844Y0781462D02*
X0100737Y0781462D01*
X0100807Y0781854D02*
X0132911Y0781854D01*
X0132978Y0782246D02*
X0100877Y0782246D01*
X0100947Y0782639D02*
X0133045Y0782639D01*
X0133113Y0783031D02*
X0101017Y0783031D01*
X0101087Y0783423D02*
X0133180Y0783423D01*
X0133247Y0783815D02*
X0101157Y0783815D01*
X0101227Y0784207D02*
X0133314Y0784207D01*
X0133382Y0784600D02*
X0101297Y0784600D01*
X0101368Y0784992D02*
X0133449Y0784992D01*
X0133516Y0785384D02*
X0101438Y0785384D01*
X0101508Y0785776D02*
X0133583Y0785776D01*
X0133650Y0786169D02*
X0101578Y0786169D01*
X0101648Y0786561D02*
X0133718Y0786561D01*
X0133785Y0786953D02*
X0101718Y0786953D01*
X0101788Y0787345D02*
X0133852Y0787345D01*
X0133919Y0787737D02*
X0101858Y0787737D01*
X0101928Y0788130D02*
X0133987Y0788130D01*
X0134054Y0788522D02*
X0101998Y0788522D01*
X0102068Y0788914D02*
X0134121Y0788914D01*
X0134188Y0789306D02*
X0102139Y0789306D01*
X0102209Y0789698D02*
X0134256Y0789698D01*
X0134323Y0790091D02*
X0102279Y0790091D01*
X0102349Y0790483D02*
X0134390Y0790483D01*
X0134457Y0790875D02*
X0102419Y0790875D01*
X0102489Y0791267D02*
X0134525Y0791267D01*
X0134592Y0791659D02*
X0102559Y0791659D01*
X0102629Y0792052D02*
X0134659Y0792052D01*
X0134726Y0792444D02*
X0102699Y0792444D01*
X0102769Y0792836D02*
X0134793Y0792836D01*
X0134861Y0793228D02*
X0102839Y0793228D01*
X0102910Y0793621D02*
X0134928Y0793621D01*
X0134995Y0794013D02*
X0102980Y0794013D01*
X0103050Y0794405D02*
X0135062Y0794405D01*
X0135130Y0794797D02*
X0103120Y0794797D01*
X0103190Y0795189D02*
X0135197Y0795189D01*
X0135264Y0795582D02*
X0103260Y0795582D01*
X0103330Y0795974D02*
X0135331Y0795974D01*
X0135399Y0796366D02*
X0103400Y0796366D01*
X0103470Y0796758D02*
X0135466Y0796758D01*
X0135533Y0797150D02*
X0103540Y0797150D01*
X0103610Y0797543D02*
X0135600Y0797543D01*
X0135668Y0797935D02*
X0103681Y0797935D01*
X0103751Y0798327D02*
X0135735Y0798327D01*
X0135802Y0798719D02*
X0103821Y0798719D01*
X0103891Y0799112D02*
X0135869Y0799112D01*
X0135937Y0799504D02*
X0103961Y0799504D01*
X0104031Y0799896D02*
X0136004Y0799896D01*
X0136071Y0800288D02*
X0104101Y0800288D01*
X0104171Y0800680D02*
X0136138Y0800680D01*
X0136205Y0801073D02*
X0104241Y0801073D01*
X0104311Y0801465D02*
X0136273Y0801465D01*
X0136340Y0801857D02*
X0104381Y0801857D01*
X0104452Y0802249D02*
X0136407Y0802249D01*
X0136474Y0802641D02*
X0104522Y0802641D01*
X0104592Y0803034D02*
X0136542Y0803034D01*
X0136609Y0803426D02*
X0104662Y0803426D01*
X0104732Y0803818D02*
X0136466Y0803818D01*
X0136176Y0804210D02*
X0104802Y0804210D01*
X0104872Y0804602D02*
X0135887Y0804602D01*
X0135598Y0804995D02*
X0104942Y0804995D01*
X0105012Y0805387D02*
X0135308Y0805387D01*
X0135019Y0805779D02*
X0105082Y0805779D01*
X0105152Y0806171D02*
X0134729Y0806171D01*
X0134440Y0806564D02*
X0105223Y0806564D01*
X0105293Y0806956D02*
X0134150Y0806956D01*
X0133861Y0807348D02*
X0105363Y0807348D01*
X0105433Y0807740D02*
X0133571Y0807740D01*
X0133282Y0808132D02*
X0105503Y0808132D01*
X0105573Y0808525D02*
X0132992Y0808525D01*
X0132703Y0808917D02*
X0105643Y0808917D01*
X0105713Y0809309D02*
X0132413Y0809309D01*
X0132124Y0809701D02*
X0106166Y0809701D01*
X0106796Y0810093D02*
X0131834Y0810093D01*
X0131545Y0810486D02*
X0107427Y0810486D01*
X0108057Y0810878D02*
X0131255Y0810878D01*
X0130966Y0811270D02*
X0108688Y0811270D01*
X0109318Y0811662D02*
X0130676Y0811662D01*
X0130387Y0812055D02*
X0109948Y0812055D01*
X0110579Y0812447D02*
X0130097Y0812447D01*
X0129808Y0812839D02*
X0111209Y0812839D01*
X0111839Y0813231D02*
X0129518Y0813231D01*
X0129229Y0813623D02*
X0112470Y0813623D01*
X0113100Y0814016D02*
X0128939Y0814016D01*
X0128650Y0814408D02*
X0113730Y0814408D01*
X0114361Y0814800D02*
X0128360Y0814800D01*
X0128071Y0815192D02*
X0114991Y0815192D01*
X0115621Y0815584D02*
X0126481Y0815584D01*
X0124520Y0815977D02*
X0116252Y0815977D01*
X0116882Y0816369D02*
X0122559Y0816369D01*
X0120598Y0816761D02*
X0117512Y0816761D01*
X0118143Y0817153D02*
X0118637Y0817153D01*
X0120212Y0826415D02*
X0111860Y0838386D01*
X0120212Y0871514D01*
X0127728Y0898517D01*
X0137193Y0916891D01*
X0146102Y0934151D01*
X0168930Y0965331D01*
X0183684Y0967279D01*
X0191757Y0961433D01*
X0194541Y0946957D01*
X0173105Y0917170D01*
X0157098Y0886686D01*
X0142900Y0832400D01*
X0130094Y0824605D01*
X0120212Y0826415D01*
X0120106Y0826566D02*
X0133316Y0826566D01*
X0132672Y0826174D02*
X0121526Y0826174D01*
X0119832Y0826959D02*
X0133960Y0826959D01*
X0134605Y0827351D02*
X0119559Y0827351D01*
X0119285Y0827743D02*
X0135249Y0827743D01*
X0135893Y0828135D02*
X0119011Y0828135D01*
X0118738Y0828527D02*
X0136538Y0828527D01*
X0137182Y0828920D02*
X0118464Y0828920D01*
X0118190Y0829312D02*
X0137826Y0829312D01*
X0138471Y0829704D02*
X0117917Y0829704D01*
X0117643Y0830096D02*
X0139115Y0830096D01*
X0139760Y0830488D02*
X0117370Y0830488D01*
X0117096Y0830881D02*
X0140404Y0830881D01*
X0141048Y0831273D02*
X0116822Y0831273D01*
X0116549Y0831665D02*
X0141693Y0831665D01*
X0142337Y0832057D02*
X0116275Y0832057D01*
X0116001Y0832450D02*
X0142913Y0832450D01*
X0143016Y0832842D02*
X0115728Y0832842D01*
X0115454Y0833234D02*
X0143118Y0833234D01*
X0143221Y0833626D02*
X0115180Y0833626D01*
X0114907Y0834018D02*
X0143323Y0834018D01*
X0143426Y0834411D02*
X0114633Y0834411D01*
X0114360Y0834803D02*
X0143529Y0834803D01*
X0143631Y0835195D02*
X0114086Y0835195D01*
X0113812Y0835587D02*
X0143734Y0835587D01*
X0143836Y0835979D02*
X0113539Y0835979D01*
X0113265Y0836372D02*
X0143939Y0836372D01*
X0144042Y0836764D02*
X0112991Y0836764D01*
X0112718Y0837156D02*
X0144144Y0837156D01*
X0144247Y0837548D02*
X0112444Y0837548D01*
X0112170Y0837941D02*
X0144349Y0837941D01*
X0144452Y0838333D02*
X0111897Y0838333D01*
X0111945Y0838725D02*
X0144554Y0838725D01*
X0144657Y0839117D02*
X0112044Y0839117D01*
X0112143Y0839509D02*
X0144760Y0839509D01*
X0144862Y0839902D02*
X0112242Y0839902D01*
X0112341Y0840294D02*
X0144965Y0840294D01*
X0145067Y0840686D02*
X0112440Y0840686D01*
X0112539Y0841078D02*
X0145170Y0841078D01*
X0145272Y0841470D02*
X0112638Y0841470D01*
X0112736Y0841863D02*
X0145375Y0841863D01*
X0145478Y0842255D02*
X0112835Y0842255D01*
X0112934Y0842647D02*
X0145580Y0842647D01*
X0145683Y0843039D02*
X0113033Y0843039D01*
X0113132Y0843431D02*
X0145785Y0843431D01*
X0145888Y0843824D02*
X0113231Y0843824D01*
X0113330Y0844216D02*
X0145991Y0844216D01*
X0146093Y0844608D02*
X0113429Y0844608D01*
X0113527Y0845000D02*
X0146196Y0845000D01*
X0146298Y0845393D02*
X0113626Y0845393D01*
X0113725Y0845785D02*
X0146401Y0845785D01*
X0146503Y0846177D02*
X0113824Y0846177D01*
X0113923Y0846569D02*
X0146606Y0846569D01*
X0146709Y0846961D02*
X0114022Y0846961D01*
X0114121Y0847354D02*
X0146811Y0847354D01*
X0146914Y0847746D02*
X0114220Y0847746D01*
X0114319Y0848138D02*
X0147016Y0848138D01*
X0147119Y0848530D02*
X0114417Y0848530D01*
X0114516Y0848922D02*
X0147221Y0848922D01*
X0147324Y0849315D02*
X0114615Y0849315D01*
X0114714Y0849707D02*
X0147427Y0849707D01*
X0147529Y0850099D02*
X0114813Y0850099D01*
X0114912Y0850491D02*
X0147632Y0850491D01*
X0147734Y0850884D02*
X0115011Y0850884D01*
X0115110Y0851276D02*
X0147837Y0851276D01*
X0147940Y0851668D02*
X0115208Y0851668D01*
X0115307Y0852060D02*
X0148042Y0852060D01*
X0148145Y0852452D02*
X0115406Y0852452D01*
X0115505Y0852845D02*
X0148247Y0852845D01*
X0148350Y0853237D02*
X0115604Y0853237D01*
X0115703Y0853629D02*
X0148452Y0853629D01*
X0148555Y0854021D02*
X0115802Y0854021D01*
X0115901Y0854413D02*
X0148658Y0854413D01*
X0148760Y0854806D02*
X0115999Y0854806D01*
X0116098Y0855198D02*
X0148863Y0855198D01*
X0148965Y0855590D02*
X0116197Y0855590D01*
X0116296Y0855982D02*
X0149068Y0855982D01*
X0149170Y0856374D02*
X0116395Y0856374D01*
X0116494Y0856767D02*
X0149273Y0856767D01*
X0149376Y0857159D02*
X0116593Y0857159D01*
X0116692Y0857551D02*
X0149478Y0857551D01*
X0149581Y0857943D02*
X0116790Y0857943D01*
X0116889Y0858336D02*
X0149683Y0858336D01*
X0149786Y0858728D02*
X0116988Y0858728D01*
X0117087Y0859120D02*
X0149888Y0859120D01*
X0149991Y0859512D02*
X0117186Y0859512D01*
X0117285Y0859904D02*
X0150094Y0859904D01*
X0150196Y0860297D02*
X0117384Y0860297D01*
X0117483Y0860689D02*
X0150299Y0860689D01*
X0150401Y0861081D02*
X0117581Y0861081D01*
X0117680Y0861473D02*
X0150504Y0861473D01*
X0150607Y0861865D02*
X0117779Y0861865D01*
X0117878Y0862258D02*
X0150709Y0862258D01*
X0150812Y0862650D02*
X0117977Y0862650D01*
X0118076Y0863042D02*
X0150914Y0863042D01*
X0151017Y0863434D02*
X0118175Y0863434D01*
X0118274Y0863827D02*
X0151119Y0863827D01*
X0151222Y0864219D02*
X0118372Y0864219D01*
X0118471Y0864611D02*
X0151325Y0864611D01*
X0151427Y0865003D02*
X0118570Y0865003D01*
X0118669Y0865395D02*
X0151530Y0865395D01*
X0151632Y0865788D02*
X0118768Y0865788D01*
X0118867Y0866180D02*
X0151735Y0866180D01*
X0151838Y0866572D02*
X0118966Y0866572D01*
X0119065Y0866964D02*
X0151940Y0866964D01*
X0152043Y0867356D02*
X0119163Y0867356D01*
X0119262Y0867749D02*
X0152145Y0867749D01*
X0152248Y0868141D02*
X0119361Y0868141D01*
X0119460Y0868533D02*
X0152350Y0868533D01*
X0152453Y0868925D02*
X0119559Y0868925D01*
X0119658Y0869317D02*
X0152556Y0869317D01*
X0152658Y0869710D02*
X0119757Y0869710D01*
X0119856Y0870102D02*
X0152761Y0870102D01*
X0152863Y0870494D02*
X0119955Y0870494D01*
X0120053Y0870886D02*
X0152966Y0870886D01*
X0153068Y0871279D02*
X0120152Y0871279D01*
X0120255Y0871671D02*
X0153171Y0871671D01*
X0153274Y0872063D02*
X0120364Y0872063D01*
X0120474Y0872455D02*
X0153376Y0872455D01*
X0153479Y0872847D02*
X0120583Y0872847D01*
X0120692Y0873240D02*
X0153581Y0873240D01*
X0153684Y0873632D02*
X0120801Y0873632D01*
X0120910Y0874024D02*
X0153786Y0874024D01*
X0153889Y0874416D02*
X0121019Y0874416D01*
X0121129Y0874808D02*
X0153992Y0874808D01*
X0154094Y0875201D02*
X0121238Y0875201D01*
X0121347Y0875593D02*
X0154197Y0875593D01*
X0154299Y0875985D02*
X0121456Y0875985D01*
X0121565Y0876377D02*
X0154402Y0876377D01*
X0154505Y0876770D02*
X0121675Y0876770D01*
X0121784Y0877162D02*
X0154607Y0877162D01*
X0154710Y0877554D02*
X0121893Y0877554D01*
X0122002Y0877946D02*
X0154812Y0877946D01*
X0154915Y0878338D02*
X0122111Y0878338D01*
X0122220Y0878731D02*
X0155017Y0878731D01*
X0155120Y0879123D02*
X0122330Y0879123D01*
X0122439Y0879515D02*
X0155223Y0879515D01*
X0155325Y0879907D02*
X0122548Y0879907D01*
X0122657Y0880299D02*
X0155428Y0880299D01*
X0155530Y0880692D02*
X0122766Y0880692D01*
X0122875Y0881084D02*
X0155633Y0881084D01*
X0155735Y0881476D02*
X0122985Y0881476D01*
X0123094Y0881868D02*
X0155838Y0881868D01*
X0155941Y0882260D02*
X0123203Y0882260D01*
X0123312Y0882653D02*
X0156043Y0882653D01*
X0156146Y0883045D02*
X0123421Y0883045D01*
X0123530Y0883437D02*
X0156248Y0883437D01*
X0156351Y0883829D02*
X0123640Y0883829D01*
X0123749Y0884222D02*
X0156454Y0884222D01*
X0156556Y0884614D02*
X0123858Y0884614D01*
X0123967Y0885006D02*
X0156659Y0885006D01*
X0156761Y0885398D02*
X0124076Y0885398D01*
X0124185Y0885790D02*
X0156864Y0885790D01*
X0156966Y0886183D02*
X0124295Y0886183D01*
X0124404Y0886575D02*
X0157069Y0886575D01*
X0157246Y0886967D02*
X0124513Y0886967D01*
X0124622Y0887359D02*
X0157452Y0887359D01*
X0157658Y0887751D02*
X0124731Y0887751D01*
X0124841Y0888144D02*
X0157864Y0888144D01*
X0158069Y0888536D02*
X0124950Y0888536D01*
X0125059Y0888928D02*
X0158275Y0888928D01*
X0158481Y0889320D02*
X0125168Y0889320D01*
X0125277Y0889712D02*
X0158687Y0889712D01*
X0158893Y0890105D02*
X0125386Y0890105D01*
X0125496Y0890497D02*
X0159099Y0890497D01*
X0159305Y0890889D02*
X0125605Y0890889D01*
X0125714Y0891281D02*
X0159511Y0891281D01*
X0159717Y0891674D02*
X0125823Y0891674D01*
X0125932Y0892066D02*
X0159923Y0892066D01*
X0160129Y0892458D02*
X0126041Y0892458D01*
X0126151Y0892850D02*
X0160335Y0892850D01*
X0160541Y0893242D02*
X0126260Y0893242D01*
X0126369Y0893635D02*
X0160747Y0893635D01*
X0160953Y0894027D02*
X0126478Y0894027D01*
X0126587Y0894419D02*
X0161159Y0894419D01*
X0161365Y0894811D02*
X0126696Y0894811D01*
X0126806Y0895203D02*
X0161571Y0895203D01*
X0161777Y0895596D02*
X0126915Y0895596D01*
X0127024Y0895988D02*
X0161983Y0895988D01*
X0162189Y0896380D02*
X0127133Y0896380D01*
X0127242Y0896772D02*
X0162395Y0896772D01*
X0162601Y0897165D02*
X0127351Y0897165D01*
X0127461Y0897557D02*
X0162806Y0897557D01*
X0163012Y0897949D02*
X0127570Y0897949D01*
X0127679Y0898341D02*
X0163218Y0898341D01*
X0163424Y0898733D02*
X0127839Y0898733D01*
X0128041Y0899126D02*
X0163630Y0899126D01*
X0163836Y0899518D02*
X0128243Y0899518D01*
X0128445Y0899910D02*
X0164042Y0899910D01*
X0164248Y0900302D02*
X0128647Y0900302D01*
X0128850Y0900694D02*
X0164454Y0900694D01*
X0164660Y0901087D02*
X0129052Y0901087D01*
X0129254Y0901479D02*
X0164866Y0901479D01*
X0165072Y0901871D02*
X0129456Y0901871D01*
X0129658Y0902263D02*
X0165278Y0902263D01*
X0165484Y0902655D02*
X0129860Y0902655D01*
X0130062Y0903048D02*
X0165690Y0903048D01*
X0165896Y0903440D02*
X0130264Y0903440D01*
X0130466Y0903832D02*
X0166102Y0903832D01*
X0166308Y0904224D02*
X0130668Y0904224D01*
X0130870Y0904617D02*
X0166514Y0904617D01*
X0166720Y0905009D02*
X0131072Y0905009D01*
X0131274Y0905401D02*
X0166926Y0905401D01*
X0167132Y0905793D02*
X0131476Y0905793D01*
X0131678Y0906185D02*
X0167337Y0906185D01*
X0167543Y0906578D02*
X0131880Y0906578D01*
X0132082Y0906970D02*
X0167749Y0906970D01*
X0167955Y0907362D02*
X0132284Y0907362D01*
X0132486Y0907754D02*
X0168161Y0907754D01*
X0168367Y0908146D02*
X0132688Y0908146D01*
X0132890Y0908539D02*
X0168573Y0908539D01*
X0168779Y0908931D02*
X0133093Y0908931D01*
X0133295Y0909323D02*
X0168985Y0909323D01*
X0169191Y0909715D02*
X0133497Y0909715D01*
X0133699Y0910108D02*
X0169397Y0910108D01*
X0169603Y0910500D02*
X0133901Y0910500D01*
X0134103Y0910892D02*
X0169809Y0910892D01*
X0170015Y0911284D02*
X0134305Y0911284D01*
X0134507Y0911676D02*
X0170221Y0911676D01*
X0170427Y0912069D02*
X0134709Y0912069D01*
X0134911Y0912461D02*
X0170633Y0912461D01*
X0170839Y0912853D02*
X0135113Y0912853D01*
X0135315Y0913245D02*
X0171045Y0913245D01*
X0171251Y0913637D02*
X0135517Y0913637D01*
X0135719Y0914030D02*
X0171457Y0914030D01*
X0171663Y0914422D02*
X0135921Y0914422D01*
X0136123Y0914814D02*
X0171869Y0914814D01*
X0172074Y0915206D02*
X0136325Y0915206D01*
X0136527Y0915598D02*
X0172280Y0915598D01*
X0172486Y0915991D02*
X0136729Y0915991D01*
X0136931Y0916383D02*
X0172692Y0916383D01*
X0172898Y0916775D02*
X0137133Y0916775D01*
X0137336Y0917167D02*
X0173104Y0917167D01*
X0173386Y0917560D02*
X0137538Y0917560D01*
X0137741Y0917952D02*
X0173668Y0917952D01*
X0173951Y0918344D02*
X0137943Y0918344D01*
X0138146Y0918736D02*
X0174233Y0918736D01*
X0174515Y0919128D02*
X0138348Y0919128D01*
X0138550Y0919521D02*
X0174797Y0919521D01*
X0175080Y0919913D02*
X0138753Y0919913D01*
X0138955Y0920305D02*
X0175362Y0920305D01*
X0175644Y0920697D02*
X0139158Y0920697D01*
X0139360Y0921089D02*
X0175926Y0921089D01*
X0176209Y0921482D02*
X0139563Y0921482D01*
X0139765Y0921874D02*
X0176491Y0921874D01*
X0176773Y0922266D02*
X0139967Y0922266D01*
X0140170Y0922658D02*
X0177055Y0922658D01*
X0177338Y0923051D02*
X0140372Y0923051D01*
X0140575Y0923443D02*
X0177620Y0923443D01*
X0177902Y0923835D02*
X0140777Y0923835D01*
X0140980Y0924227D02*
X0178184Y0924227D01*
X0178467Y0924619D02*
X0141182Y0924619D01*
X0141384Y0925012D02*
X0178749Y0925012D01*
X0179031Y0925404D02*
X0141587Y0925404D01*
X0141789Y0925796D02*
X0179313Y0925796D01*
X0179595Y0926188D02*
X0141992Y0926188D01*
X0142194Y0926580D02*
X0179878Y0926580D01*
X0180160Y0926973D02*
X0142397Y0926973D01*
X0142599Y0927365D02*
X0180442Y0927365D01*
X0180724Y0927757D02*
X0142801Y0927757D01*
X0143004Y0928149D02*
X0181007Y0928149D01*
X0181289Y0928541D02*
X0143206Y0928541D01*
X0143409Y0928934D02*
X0181571Y0928934D01*
X0181853Y0929326D02*
X0143611Y0929326D01*
X0143814Y0929718D02*
X0182136Y0929718D01*
X0182418Y0930110D02*
X0144016Y0930110D01*
X0144219Y0930503D02*
X0182700Y0930503D01*
X0182982Y0930895D02*
X0144421Y0930895D01*
X0144623Y0931287D02*
X0183265Y0931287D01*
X0183547Y0931679D02*
X0144826Y0931679D01*
X0145028Y0932071D02*
X0183829Y0932071D01*
X0184111Y0932464D02*
X0145231Y0932464D01*
X0145433Y0932856D02*
X0184394Y0932856D01*
X0184676Y0933248D02*
X0145636Y0933248D01*
X0145838Y0933640D02*
X0184958Y0933640D01*
X0185240Y0934032D02*
X0146040Y0934032D01*
X0146302Y0934425D02*
X0185523Y0934425D01*
X0185805Y0934817D02*
X0146589Y0934817D01*
X0146876Y0935209D02*
X0186087Y0935209D01*
X0186369Y0935601D02*
X0147163Y0935601D01*
X0147451Y0935994D02*
X0186652Y0935994D01*
X0186934Y0936386D02*
X0147738Y0936386D01*
X0148025Y0936778D02*
X0187216Y0936778D01*
X0187498Y0937170D02*
X0148312Y0937170D01*
X0148599Y0937562D02*
X0187781Y0937562D01*
X0188063Y0937955D02*
X0148886Y0937955D01*
X0149173Y0938347D02*
X0188345Y0938347D01*
X0188627Y0938739D02*
X0149461Y0938739D01*
X0149748Y0939131D02*
X0188910Y0939131D01*
X0189192Y0939523D02*
X0150035Y0939523D01*
X0150322Y0939916D02*
X0189474Y0939916D01*
X0189756Y0940308D02*
X0150609Y0940308D01*
X0150896Y0940700D02*
X0190039Y0940700D01*
X0190321Y0941092D02*
X0151184Y0941092D01*
X0151471Y0941484D02*
X0190603Y0941484D01*
X0190885Y0941877D02*
X0151758Y0941877D01*
X0152045Y0942269D02*
X0191168Y0942269D01*
X0191450Y0942661D02*
X0152332Y0942661D01*
X0152619Y0943053D02*
X0191732Y0943053D01*
X0192014Y0943446D02*
X0152906Y0943446D01*
X0153194Y0943838D02*
X0192297Y0943838D01*
X0192579Y0944230D02*
X0153481Y0944230D01*
X0153768Y0944622D02*
X0192861Y0944622D01*
X0193143Y0945014D02*
X0154055Y0945014D01*
X0154342Y0945407D02*
X0193426Y0945407D01*
X0193708Y0945799D02*
X0154629Y0945799D01*
X0154917Y0946191D02*
X0193990Y0946191D01*
X0194272Y0946583D02*
X0155204Y0946583D01*
X0155491Y0946975D02*
X0194538Y0946975D01*
X0194462Y0947368D02*
X0155778Y0947368D01*
X0156065Y0947760D02*
X0194387Y0947760D01*
X0194312Y0948152D02*
X0156352Y0948152D01*
X0156639Y0948544D02*
X0194236Y0948544D01*
X0194161Y0948937D02*
X0156927Y0948937D01*
X0157214Y0949329D02*
X0194085Y0949329D01*
X0194010Y0949721D02*
X0157501Y0949721D01*
X0157788Y0950113D02*
X0193934Y0950113D01*
X0193859Y0950505D02*
X0158075Y0950505D01*
X0158362Y0950898D02*
X0193784Y0950898D01*
X0193708Y0951290D02*
X0158650Y0951290D01*
X0158937Y0951682D02*
X0193633Y0951682D01*
X0193557Y0952074D02*
X0159224Y0952074D01*
X0159511Y0952466D02*
X0193482Y0952466D01*
X0193406Y0952859D02*
X0159798Y0952859D01*
X0160085Y0953251D02*
X0193331Y0953251D01*
X0193256Y0953643D02*
X0160373Y0953643D01*
X0160660Y0954035D02*
X0193180Y0954035D01*
X0193105Y0954427D02*
X0160947Y0954427D01*
X0161234Y0954820D02*
X0193029Y0954820D01*
X0192954Y0955212D02*
X0161521Y0955212D01*
X0161808Y0955604D02*
X0192878Y0955604D01*
X0192803Y0955996D02*
X0162095Y0955996D01*
X0162383Y0956389D02*
X0192728Y0956389D01*
X0192652Y0956781D02*
X0162670Y0956781D01*
X0162957Y0957173D02*
X0192577Y0957173D01*
X0192501Y0957565D02*
X0163244Y0957565D01*
X0163531Y0957957D02*
X0192426Y0957957D01*
X0192350Y0958350D02*
X0163818Y0958350D01*
X0164106Y0958742D02*
X0192275Y0958742D01*
X0192200Y0959134D02*
X0164393Y0959134D01*
X0164680Y0959526D02*
X0192124Y0959526D01*
X0192049Y0959918D02*
X0164967Y0959918D01*
X0165254Y0960311D02*
X0191973Y0960311D01*
X0191898Y0960703D02*
X0165541Y0960703D01*
X0165828Y0961095D02*
X0191822Y0961095D01*
X0191683Y0961487D02*
X0166116Y0961487D01*
X0166403Y0961880D02*
X0191141Y0961880D01*
X0190600Y0962272D02*
X0166690Y0962272D01*
X0166977Y0962664D02*
X0190058Y0962664D01*
X0189516Y0963056D02*
X0167264Y0963056D01*
X0167551Y0963448D02*
X0188975Y0963448D01*
X0188433Y0963841D02*
X0167839Y0963841D01*
X0168126Y0964233D02*
X0187891Y0964233D01*
X0187350Y0964625D02*
X0168413Y0964625D01*
X0168700Y0965017D02*
X0186808Y0965017D01*
X0186267Y0965409D02*
X0169525Y0965409D01*
X0172495Y0965802D02*
X0185725Y0965802D01*
X0185183Y0966194D02*
X0175465Y0966194D01*
X0178434Y0966586D02*
X0184642Y0966586D01*
X0184100Y0966978D02*
X0181404Y0966978D01*
X0189252Y0975074D02*
X0197325Y0969228D01*
X0211941Y0971038D01*
X0249801Y1024767D01*
X0250299Y1025613D01*
X0250650Y1026529D01*
X0250845Y1027491D01*
X0250880Y1028471D01*
X0250753Y1029444D01*
X0250468Y1030383D01*
X0250032Y1031263D01*
X0249458Y1032058D01*
X0248760Y1032748D01*
X0231525Y1045059D01*
X0230777Y1045502D01*
X0229965Y1045812D01*
X0229112Y1045979D01*
X0228243Y1045998D01*
X0227383Y1045870D01*
X0226558Y1045597D01*
X0225791Y1045188D01*
X0225104Y1044655D01*
X0224518Y1044012D01*
X0224050Y1043280D01*
X0186329Y0989411D01*
X0189252Y0975074D01*
X0189223Y0975215D02*
X0214884Y0975215D01*
X0215160Y0975607D02*
X0189143Y0975607D01*
X0189063Y0975999D02*
X0215437Y0975999D01*
X0215713Y0976391D02*
X0188983Y0976391D01*
X0188903Y0976784D02*
X0215990Y0976784D01*
X0216266Y0977176D02*
X0188823Y0977176D01*
X0188744Y0977568D02*
X0216542Y0977568D01*
X0216819Y0977960D02*
X0188664Y0977960D01*
X0188584Y0978352D02*
X0217095Y0978352D01*
X0217371Y0978745D02*
X0188504Y0978745D01*
X0188424Y0979137D02*
X0217648Y0979137D01*
X0217924Y0979529D02*
X0188344Y0979529D01*
X0188264Y0979921D02*
X0218201Y0979921D01*
X0218477Y0980313D02*
X0188184Y0980313D01*
X0188104Y0980706D02*
X0218753Y0980706D01*
X0219030Y0981098D02*
X0188024Y0981098D01*
X0187944Y0981490D02*
X0219306Y0981490D01*
X0219582Y0981882D02*
X0187864Y0981882D01*
X0187784Y0982275D02*
X0219859Y0982275D01*
X0220135Y0982667D02*
X0187704Y0982667D01*
X0187624Y0983059D02*
X0220412Y0983059D01*
X0220688Y0983451D02*
X0187544Y0983451D01*
X0187464Y0983843D02*
X0220964Y0983843D01*
X0221241Y0984236D02*
X0187384Y0984236D01*
X0187304Y0984628D02*
X0221517Y0984628D01*
X0221793Y0985020D02*
X0187224Y0985020D01*
X0187144Y0985412D02*
X0222070Y0985412D01*
X0222346Y0985804D02*
X0187064Y0985804D01*
X0186984Y0986197D02*
X0222623Y0986197D01*
X0222899Y0986589D02*
X0186904Y0986589D01*
X0186824Y0986981D02*
X0223175Y0986981D01*
X0223452Y0987373D02*
X0186744Y0987373D01*
X0186664Y0987766D02*
X0223728Y0987766D01*
X0224004Y0988158D02*
X0186584Y0988158D01*
X0186504Y0988550D02*
X0224281Y0988550D01*
X0224557Y0988942D02*
X0186425Y0988942D01*
X0186345Y0989334D02*
X0224834Y0989334D01*
X0225110Y0989727D02*
X0186550Y0989727D01*
X0186824Y0990119D02*
X0225386Y0990119D01*
X0225663Y0990511D02*
X0187099Y0990511D01*
X0187374Y0990903D02*
X0225939Y0990903D01*
X0226215Y0991295D02*
X0187648Y0991295D01*
X0187923Y0991688D02*
X0226492Y0991688D01*
X0226768Y0992080D02*
X0188198Y0992080D01*
X0188472Y0992472D02*
X0227045Y0992472D01*
X0227321Y0992864D02*
X0188747Y0992864D01*
X0189021Y0993256D02*
X0227597Y0993256D01*
X0227874Y0993649D02*
X0189296Y0993649D01*
X0189571Y0994041D02*
X0228150Y0994041D01*
X0228426Y0994433D02*
X0189845Y0994433D01*
X0190120Y0994825D02*
X0228703Y0994825D01*
X0228979Y0995218D02*
X0190395Y0995218D01*
X0190669Y0995610D02*
X0229256Y0995610D01*
X0229532Y0996002D02*
X0190944Y0996002D01*
X0191219Y0996394D02*
X0229808Y0996394D01*
X0230085Y0996786D02*
X0191493Y0996786D01*
X0191768Y0997179D02*
X0230361Y0997179D01*
X0230638Y0997571D02*
X0192043Y0997571D01*
X0192317Y0997963D02*
X0230914Y0997963D01*
X0231190Y0998355D02*
X0192592Y0998355D01*
X0192867Y0998747D02*
X0231467Y0998747D01*
X0231743Y0999140D02*
X0193141Y0999140D01*
X0193416Y0999532D02*
X0232019Y0999532D01*
X0232296Y0999924D02*
X0193690Y0999924D01*
X0193965Y1000316D02*
X0232572Y1000316D01*
X0232849Y1000709D02*
X0194240Y1000709D01*
X0194514Y1001101D02*
X0233125Y1001101D01*
X0233401Y1001493D02*
X0194789Y1001493D01*
X0195064Y1001885D02*
X0233678Y1001885D01*
X0233954Y1002277D02*
X0195338Y1002277D01*
X0195613Y1002670D02*
X0234230Y1002670D01*
X0234507Y1003062D02*
X0195888Y1003062D01*
X0196162Y1003454D02*
X0234783Y1003454D01*
X0235060Y1003846D02*
X0196437Y1003846D01*
X0196712Y1004238D02*
X0235336Y1004238D01*
X0235612Y1004631D02*
X0196986Y1004631D01*
X0197261Y1005023D02*
X0235889Y1005023D01*
X0236165Y1005415D02*
X0197536Y1005415D01*
X0197810Y1005807D02*
X0236441Y1005807D01*
X0236718Y1006199D02*
X0198085Y1006199D01*
X0198360Y1006592D02*
X0236994Y1006592D01*
X0237271Y1006984D02*
X0198634Y1006984D01*
X0198909Y1007376D02*
X0237547Y1007376D01*
X0237823Y1007768D02*
X0199183Y1007768D01*
X0199458Y1008161D02*
X0238100Y1008161D01*
X0238376Y1008553D02*
X0199733Y1008553D01*
X0200007Y1008945D02*
X0238652Y1008945D01*
X0238929Y1009337D02*
X0200282Y1009337D01*
X0200557Y1009729D02*
X0239205Y1009729D01*
X0239482Y1010122D02*
X0200831Y1010122D01*
X0201106Y1010514D02*
X0239758Y1010514D01*
X0240034Y1010906D02*
X0201381Y1010906D01*
X0201655Y1011298D02*
X0240311Y1011298D01*
X0240587Y1011690D02*
X0201930Y1011690D01*
X0202205Y1012083D02*
X0240863Y1012083D01*
X0241140Y1012475D02*
X0202479Y1012475D01*
X0202754Y1012867D02*
X0241416Y1012867D01*
X0241693Y1013259D02*
X0203029Y1013259D01*
X0203303Y1013652D02*
X0241969Y1013652D01*
X0242245Y1014044D02*
X0203578Y1014044D01*
X0203853Y1014436D02*
X0242522Y1014436D01*
X0242798Y1014828D02*
X0204127Y1014828D01*
X0204402Y1015220D02*
X0243074Y1015220D01*
X0243351Y1015613D02*
X0204676Y1015613D01*
X0204951Y1016005D02*
X0243627Y1016005D01*
X0243904Y1016397D02*
X0205226Y1016397D01*
X0205500Y1016789D02*
X0244180Y1016789D01*
X0244456Y1017181D02*
X0205775Y1017181D01*
X0206050Y1017574D02*
X0244733Y1017574D01*
X0245009Y1017966D02*
X0206324Y1017966D01*
X0206599Y1018358D02*
X0245286Y1018358D01*
X0245562Y1018750D02*
X0206874Y1018750D01*
X0207148Y1019142D02*
X0245838Y1019142D01*
X0246115Y1019535D02*
X0207423Y1019535D01*
X0207698Y1019927D02*
X0246391Y1019927D01*
X0246667Y1020319D02*
X0207972Y1020319D01*
X0208247Y1020711D02*
X0246944Y1020711D01*
X0247220Y1021104D02*
X0208522Y1021104D01*
X0208796Y1021496D02*
X0247497Y1021496D01*
X0247773Y1021888D02*
X0209071Y1021888D01*
X0209346Y1022280D02*
X0248049Y1022280D01*
X0248326Y1022672D02*
X0209620Y1022672D01*
X0209895Y1023065D02*
X0248602Y1023065D01*
X0248878Y1023457D02*
X0210169Y1023457D01*
X0210444Y1023849D02*
X0249155Y1023849D01*
X0249431Y1024241D02*
X0210719Y1024241D01*
X0210993Y1024633D02*
X0249708Y1024633D01*
X0249954Y1025026D02*
X0211268Y1025026D01*
X0211543Y1025418D02*
X0250184Y1025418D01*
X0250374Y1025810D02*
X0211817Y1025810D01*
X0212092Y1026202D02*
X0250525Y1026202D01*
X0250663Y1026595D02*
X0212367Y1026595D01*
X0212641Y1026987D02*
X0250743Y1026987D01*
X0250823Y1027379D02*
X0212916Y1027379D01*
X0213191Y1027771D02*
X0250855Y1027771D01*
X0250869Y1028163D02*
X0213465Y1028163D01*
X0213740Y1028556D02*
X0250869Y1028556D01*
X0250818Y1028948D02*
X0214015Y1028948D01*
X0214289Y1029340D02*
X0250767Y1029340D01*
X0250666Y1029732D02*
X0214564Y1029732D01*
X0214839Y1030124D02*
X0250547Y1030124D01*
X0250402Y1030517D02*
X0215113Y1030517D01*
X0215388Y1030909D02*
X0250208Y1030909D01*
X0250005Y1031301D02*
X0215662Y1031301D01*
X0215937Y1031693D02*
X0249721Y1031693D01*
X0249430Y1032085D02*
X0216212Y1032085D01*
X0216486Y1032478D02*
X0249034Y1032478D01*
X0248590Y1032870D02*
X0216761Y1032870D01*
X0217036Y1033262D02*
X0248041Y1033262D01*
X0247492Y1033654D02*
X0217310Y1033654D01*
X0217585Y1034047D02*
X0246943Y1034047D01*
X0246394Y1034439D02*
X0217860Y1034439D01*
X0218134Y1034831D02*
X0245845Y1034831D01*
X0245296Y1035223D02*
X0218409Y1035223D01*
X0218684Y1035615D02*
X0244747Y1035615D01*
X0244197Y1036008D02*
X0218958Y1036008D01*
X0219233Y1036400D02*
X0243648Y1036400D01*
X0243099Y1036792D02*
X0219508Y1036792D01*
X0219782Y1037184D02*
X0242550Y1037184D01*
X0242001Y1037576D02*
X0220057Y1037576D01*
X0220332Y1037969D02*
X0241452Y1037969D01*
X0240903Y1038361D02*
X0220606Y1038361D01*
X0220881Y1038753D02*
X0240354Y1038753D01*
X0239805Y1039145D02*
X0221155Y1039145D01*
X0221430Y1039538D02*
X0239256Y1039538D01*
X0238707Y1039930D02*
X0221705Y1039930D01*
X0221979Y1040322D02*
X0238157Y1040322D01*
X0237608Y1040714D02*
X0222254Y1040714D01*
X0222529Y1041106D02*
X0237059Y1041106D01*
X0236510Y1041499D02*
X0222803Y1041499D01*
X0223078Y1041891D02*
X0235961Y1041891D01*
X0235412Y1042283D02*
X0223353Y1042283D01*
X0223627Y1042675D02*
X0234863Y1042675D01*
X0234314Y1043067D02*
X0223902Y1043067D01*
X0224166Y1043460D02*
X0233765Y1043460D01*
X0233216Y1043852D02*
X0224416Y1043852D01*
X0224730Y1044244D02*
X0232666Y1044244D01*
X0232117Y1044636D02*
X0225088Y1044636D01*
X0225585Y1045028D02*
X0231568Y1045028D01*
X0230915Y1045421D02*
X0226227Y1045421D01*
X0227211Y1045813D02*
X0229960Y1045813D01*
X0168117Y1049660D02*
X0167966Y1049054D01*
X0167704Y1048487D01*
X0167339Y1047980D01*
X0159661Y1037941D01*
X0138402Y1009004D01*
X0115567Y0976720D01*
X0101197Y0974555D01*
X0092929Y0980067D01*
X0089583Y0994437D01*
X0110843Y1024949D01*
X0123835Y1042469D01*
X0144307Y1070028D01*
X0144677Y1070435D01*
X0145120Y1070762D01*
X0145617Y1070996D01*
X0146152Y1071128D01*
X0146701Y1071153D01*
X0147245Y1071070D01*
X0147762Y1070882D01*
X0148232Y1070596D01*
X0148638Y1070224D01*
X0167142Y1052508D01*
X0167550Y1052035D01*
X0167860Y1051493D01*
X0168063Y1050902D01*
X0168149Y1050284D01*
X0168117Y1049660D01*
X0168121Y1049735D02*
X0129233Y1049735D01*
X0129524Y1050127D02*
X0168141Y1050127D01*
X0168116Y1050519D02*
X0129815Y1050519D01*
X0130107Y1050912D02*
X0168059Y1050912D01*
X0167925Y1051304D02*
X0130398Y1051304D01*
X0130689Y1051696D02*
X0167744Y1051696D01*
X0167504Y1052088D02*
X0130981Y1052088D01*
X0131272Y1052481D02*
X0167165Y1052481D01*
X0166761Y1052873D02*
X0131563Y1052873D01*
X0131855Y1053265D02*
X0166351Y1053265D01*
X0165941Y1053657D02*
X0132146Y1053657D01*
X0132438Y1054049D02*
X0165532Y1054049D01*
X0165122Y1054442D02*
X0132729Y1054442D01*
X0133020Y1054834D02*
X0164712Y1054834D01*
X0164303Y1055226D02*
X0133312Y1055226D01*
X0133603Y1055618D02*
X0163893Y1055618D01*
X0163484Y1056010D02*
X0133894Y1056010D01*
X0134186Y1056403D02*
X0163074Y1056403D01*
X0162664Y1056795D02*
X0134477Y1056795D01*
X0134768Y1057187D02*
X0162255Y1057187D01*
X0161845Y1057579D02*
X0135060Y1057579D01*
X0135351Y1057971D02*
X0161435Y1057971D01*
X0161026Y1058364D02*
X0135643Y1058364D01*
X0135934Y1058756D02*
X0160616Y1058756D01*
X0160206Y1059148D02*
X0136225Y1059148D01*
X0136517Y1059540D02*
X0159797Y1059540D01*
X0159387Y1059933D02*
X0136808Y1059933D01*
X0137099Y1060325D02*
X0158977Y1060325D01*
X0158568Y1060717D02*
X0137391Y1060717D01*
X0137682Y1061109D02*
X0158158Y1061109D01*
X0157748Y1061501D02*
X0137973Y1061501D01*
X0138265Y1061894D02*
X0157339Y1061894D01*
X0156929Y1062286D02*
X0138556Y1062286D01*
X0138847Y1062678D02*
X0156520Y1062678D01*
X0156110Y1063070D02*
X0139139Y1063070D01*
X0139430Y1063462D02*
X0155700Y1063462D01*
X0155291Y1063855D02*
X0139722Y1063855D01*
X0140013Y1064247D02*
X0154881Y1064247D01*
X0154471Y1064639D02*
X0140304Y1064639D01*
X0140596Y1065031D02*
X0154062Y1065031D01*
X0153652Y1065424D02*
X0140887Y1065424D01*
X0141178Y1065816D02*
X0153242Y1065816D01*
X0152833Y1066208D02*
X0141470Y1066208D01*
X0141761Y1066600D02*
X0152423Y1066600D01*
X0152013Y1066992D02*
X0142052Y1066992D01*
X0142344Y1067385D02*
X0151604Y1067385D01*
X0151194Y1067777D02*
X0142635Y1067777D01*
X0142926Y1068169D02*
X0150785Y1068169D01*
X0150375Y1068561D02*
X0143218Y1068561D01*
X0143509Y1068953D02*
X0149965Y1068953D01*
X0149556Y1069346D02*
X0143801Y1069346D01*
X0144092Y1069738D02*
X0149146Y1069738D01*
X0148736Y1070130D02*
X0144400Y1070130D01*
X0144795Y1070522D02*
X0148313Y1070522D01*
X0147672Y1070914D02*
X0145444Y1070914D01*
X0128941Y1049343D02*
X0168038Y1049343D01*
X0167919Y1048951D02*
X0128650Y1048951D01*
X0128359Y1048558D02*
X0167737Y1048558D01*
X0167473Y1048166D02*
X0128067Y1048166D01*
X0127776Y1047774D02*
X0167181Y1047774D01*
X0166881Y1047382D02*
X0127484Y1047382D01*
X0127193Y1046990D02*
X0166581Y1046990D01*
X0166281Y1046597D02*
X0126902Y1046597D01*
X0126610Y1046205D02*
X0165981Y1046205D01*
X0165681Y1045813D02*
X0126319Y1045813D01*
X0126028Y1045421D02*
X0165381Y1045421D01*
X0165081Y1045028D02*
X0125736Y1045028D01*
X0125445Y1044636D02*
X0164781Y1044636D01*
X0164481Y1044244D02*
X0125154Y1044244D01*
X0124862Y1043852D02*
X0164182Y1043852D01*
X0163882Y1043460D02*
X0124571Y1043460D01*
X0124280Y1043067D02*
X0163582Y1043067D01*
X0163282Y1042675D02*
X0123988Y1042675D01*
X0123697Y1042283D02*
X0162982Y1042283D01*
X0162682Y1041891D02*
X0123406Y1041891D01*
X0123115Y1041499D02*
X0162382Y1041499D01*
X0162082Y1041106D02*
X0122825Y1041106D01*
X0122534Y1040714D02*
X0161782Y1040714D01*
X0161482Y1040322D02*
X0122243Y1040322D01*
X0121952Y1039930D02*
X0161182Y1039930D01*
X0160882Y1039538D02*
X0121661Y1039538D01*
X0121370Y1039145D02*
X0160582Y1039145D01*
X0160282Y1038753D02*
X0121079Y1038753D01*
X0120789Y1038361D02*
X0159983Y1038361D01*
X0159683Y1037969D02*
X0120498Y1037969D01*
X0120207Y1037576D02*
X0159394Y1037576D01*
X0159105Y1037184D02*
X0119916Y1037184D01*
X0119625Y1036792D02*
X0158817Y1036792D01*
X0158529Y1036400D02*
X0119334Y1036400D01*
X0119043Y1036008D02*
X0158241Y1036008D01*
X0157953Y1035615D02*
X0118753Y1035615D01*
X0118462Y1035223D02*
X0157665Y1035223D01*
X0157377Y1034831D02*
X0118171Y1034831D01*
X0117880Y1034439D02*
X0157088Y1034439D01*
X0156800Y1034047D02*
X0117589Y1034047D01*
X0117298Y1033654D02*
X0156512Y1033654D01*
X0156224Y1033262D02*
X0117007Y1033262D01*
X0116717Y1032870D02*
X0155936Y1032870D01*
X0155648Y1032478D02*
X0116426Y1032478D01*
X0116135Y1032085D02*
X0155359Y1032085D01*
X0155071Y1031693D02*
X0115844Y1031693D01*
X0115553Y1031301D02*
X0154783Y1031301D01*
X0154495Y1030909D02*
X0115262Y1030909D01*
X0114971Y1030517D02*
X0154207Y1030517D01*
X0153919Y1030124D02*
X0114681Y1030124D01*
X0114390Y1029732D02*
X0153631Y1029732D01*
X0153342Y1029340D02*
X0114099Y1029340D01*
X0113808Y1028948D02*
X0153054Y1028948D01*
X0152766Y1028556D02*
X0113517Y1028556D01*
X0113226Y1028163D02*
X0152478Y1028163D01*
X0152190Y1027771D02*
X0112935Y1027771D01*
X0112645Y1027379D02*
X0151902Y1027379D01*
X0151613Y1026987D02*
X0112354Y1026987D01*
X0112063Y1026595D02*
X0151325Y1026595D01*
X0151037Y1026202D02*
X0111772Y1026202D01*
X0111481Y1025810D02*
X0150749Y1025810D01*
X0150461Y1025418D02*
X0111190Y1025418D01*
X0110900Y1025026D02*
X0150173Y1025026D01*
X0149884Y1024633D02*
X0110623Y1024633D01*
X0110349Y1024241D02*
X0149596Y1024241D01*
X0149308Y1023849D02*
X0110076Y1023849D01*
X0109803Y1023457D02*
X0149020Y1023457D01*
X0148732Y1023065D02*
X0109530Y1023065D01*
X0109256Y1022672D02*
X0148444Y1022672D01*
X0148156Y1022280D02*
X0108983Y1022280D01*
X0108710Y1021888D02*
X0147867Y1021888D01*
X0147579Y1021496D02*
X0108437Y1021496D01*
X0108163Y1021104D02*
X0147291Y1021104D01*
X0147003Y1020711D02*
X0107890Y1020711D01*
X0107617Y1020319D02*
X0146715Y1020319D01*
X0146427Y1019927D02*
X0107343Y1019927D01*
X0107070Y1019535D02*
X0146138Y1019535D01*
X0145850Y1019142D02*
X0106797Y1019142D01*
X0106524Y1018750D02*
X0145562Y1018750D01*
X0145274Y1018358D02*
X0106250Y1018358D01*
X0105977Y1017966D02*
X0144986Y1017966D01*
X0144698Y1017574D02*
X0105704Y1017574D01*
X0105430Y1017181D02*
X0144410Y1017181D01*
X0144121Y1016789D02*
X0105157Y1016789D01*
X0104884Y1016397D02*
X0143833Y1016397D01*
X0143545Y1016005D02*
X0104611Y1016005D01*
X0104337Y1015613D02*
X0143257Y1015613D01*
X0142969Y1015220D02*
X0104064Y1015220D01*
X0103791Y1014828D02*
X0142681Y1014828D01*
X0142392Y1014436D02*
X0103517Y1014436D01*
X0103244Y1014044D02*
X0142104Y1014044D01*
X0141816Y1013652D02*
X0102971Y1013652D01*
X0102698Y1013259D02*
X0141528Y1013259D01*
X0141240Y1012867D02*
X0102424Y1012867D01*
X0102151Y1012475D02*
X0140952Y1012475D01*
X0140664Y1012083D02*
X0101878Y1012083D01*
X0101604Y1011690D02*
X0140375Y1011690D01*
X0140087Y1011298D02*
X0101331Y1011298D01*
X0101058Y1010906D02*
X0139799Y1010906D01*
X0139511Y1010514D02*
X0100785Y1010514D01*
X0100511Y1010122D02*
X0139223Y1010122D01*
X0138935Y1009729D02*
X0100238Y1009729D01*
X0099965Y1009337D02*
X0138646Y1009337D01*
X0138360Y1008945D02*
X0099691Y1008945D01*
X0099418Y1008553D02*
X0138082Y1008553D01*
X0137805Y1008161D02*
X0099145Y1008161D01*
X0098872Y1007768D02*
X0137528Y1007768D01*
X0137250Y1007376D02*
X0098598Y1007376D01*
X0098325Y1006984D02*
X0136973Y1006984D01*
X0136695Y1006592D02*
X0098052Y1006592D01*
X0097778Y1006199D02*
X0136418Y1006199D01*
X0136141Y1005807D02*
X0097505Y1005807D01*
X0097232Y1005415D02*
X0135863Y1005415D01*
X0135586Y1005023D02*
X0096959Y1005023D01*
X0096685Y1004631D02*
X0135308Y1004631D01*
X0135031Y1004238D02*
X0096412Y1004238D01*
X0096139Y1003846D02*
X0134753Y1003846D01*
X0134476Y1003454D02*
X0095865Y1003454D01*
X0095592Y1003062D02*
X0134199Y1003062D01*
X0133921Y1002670D02*
X0095319Y1002670D01*
X0095046Y1002277D02*
X0133644Y1002277D01*
X0133366Y1001885D02*
X0094772Y1001885D01*
X0094499Y1001493D02*
X0133089Y1001493D01*
X0132812Y1001101D02*
X0094226Y1001101D01*
X0093952Y1000709D02*
X0132534Y1000709D01*
X0132257Y1000316D02*
X0093679Y1000316D01*
X0093406Y0999924D02*
X0131979Y0999924D01*
X0131702Y0999532D02*
X0093133Y0999532D01*
X0092859Y0999140D02*
X0131424Y0999140D01*
X0131147Y0998747D02*
X0092586Y0998747D01*
X0092313Y0998355D02*
X0130870Y0998355D01*
X0130592Y0997963D02*
X0092040Y0997963D01*
X0091766Y0997571D02*
X0130315Y0997571D01*
X0130037Y0997179D02*
X0091493Y0997179D01*
X0091220Y0996786D02*
X0129760Y0996786D01*
X0129482Y0996394D02*
X0090946Y0996394D01*
X0090673Y0996002D02*
X0129205Y0996002D01*
X0128928Y0995610D02*
X0090400Y0995610D01*
X0090127Y0995218D02*
X0128650Y0995218D01*
X0128373Y0994825D02*
X0089853Y0994825D01*
X0089584Y0994433D02*
X0128095Y0994433D01*
X0127818Y0994041D02*
X0089675Y0994041D01*
X0089766Y0993649D02*
X0127541Y0993649D01*
X0127263Y0993256D02*
X0089858Y0993256D01*
X0089949Y0992864D02*
X0126986Y0992864D01*
X0126708Y0992472D02*
X0090040Y0992472D01*
X0090132Y0992080D02*
X0126431Y0992080D01*
X0126153Y0991688D02*
X0090223Y0991688D01*
X0090314Y0991295D02*
X0125876Y0991295D01*
X0125599Y0990903D02*
X0090406Y0990903D01*
X0090497Y0990511D02*
X0125321Y0990511D01*
X0125044Y0990119D02*
X0090588Y0990119D01*
X0090680Y0989727D02*
X0124766Y0989727D01*
X0124489Y0989334D02*
X0090771Y0989334D01*
X0090862Y0988942D02*
X0124212Y0988942D01*
X0123934Y0988550D02*
X0090954Y0988550D01*
X0091045Y0988158D02*
X0123657Y0988158D01*
X0123379Y0987766D02*
X0091136Y0987766D01*
X0091228Y0987373D02*
X0123102Y0987373D01*
X0122824Y0986981D02*
X0091319Y0986981D01*
X0091410Y0986589D02*
X0122547Y0986589D01*
X0122270Y0986197D02*
X0091502Y0986197D01*
X0091593Y0985804D02*
X0121992Y0985804D01*
X0121715Y0985412D02*
X0091684Y0985412D01*
X0091776Y0985020D02*
X0121437Y0985020D01*
X0121160Y0984628D02*
X0091867Y0984628D01*
X0091958Y0984236D02*
X0120883Y0984236D01*
X0120605Y0983843D02*
X0092050Y0983843D01*
X0092141Y0983451D02*
X0120328Y0983451D01*
X0120050Y0983059D02*
X0092232Y0983059D01*
X0092324Y0982667D02*
X0119773Y0982667D01*
X0119495Y0982275D02*
X0092415Y0982275D01*
X0092506Y0981882D02*
X0119218Y0981882D01*
X0118941Y0981490D02*
X0092598Y0981490D01*
X0092689Y0981098D02*
X0118663Y0981098D01*
X0118386Y0980706D02*
X0092780Y0980706D01*
X0092872Y0980313D02*
X0118108Y0980313D01*
X0117831Y0979921D02*
X0093148Y0979921D01*
X0093736Y0979529D02*
X0117554Y0979529D01*
X0117276Y0979137D02*
X0094324Y0979137D01*
X0094913Y0978745D02*
X0116999Y0978745D01*
X0116721Y0978352D02*
X0095501Y0978352D01*
X0096089Y0977960D02*
X0116444Y0977960D01*
X0116166Y0977568D02*
X0096678Y0977568D01*
X0097266Y0977176D02*
X0115889Y0977176D01*
X0115612Y0976784D02*
X0097854Y0976784D01*
X0098442Y0976391D02*
X0113383Y0976391D01*
X0110780Y0975999D02*
X0099031Y0975999D01*
X0099619Y0975607D02*
X0108177Y0975607D01*
X0105574Y0975215D02*
X0100207Y0975215D01*
X0100796Y0974823D02*
X0102971Y0974823D01*
X0096079Y0966484D02*
X0099622Y0951917D01*
X0071276Y0903492D01*
X0061039Y0870618D01*
X0055134Y0834398D01*
X0042929Y0826130D01*
X0033087Y0827705D01*
X0024031Y0839516D01*
X0029937Y0877705D01*
X0035843Y0896209D01*
X0042142Y0915894D01*
X0055921Y0940303D01*
X0073441Y0969634D01*
X0087811Y0972193D01*
X0096079Y0966484D01*
X0095931Y0966586D02*
X0071620Y0966586D01*
X0071386Y0966194D02*
X0096149Y0966194D01*
X0096245Y0965802D02*
X0071152Y0965802D01*
X0070918Y0965409D02*
X0096340Y0965409D01*
X0096436Y0965017D02*
X0070683Y0965017D01*
X0070449Y0964625D02*
X0096531Y0964625D01*
X0096626Y0964233D02*
X0070215Y0964233D01*
X0069981Y0963841D02*
X0096722Y0963841D01*
X0096817Y0963448D02*
X0069746Y0963448D01*
X0069512Y0963056D02*
X0096913Y0963056D01*
X0097008Y0962664D02*
X0069278Y0962664D01*
X0069043Y0962272D02*
X0097103Y0962272D01*
X0097199Y0961880D02*
X0068809Y0961880D01*
X0068575Y0961487D02*
X0097294Y0961487D01*
X0097390Y0961095D02*
X0068341Y0961095D01*
X0068106Y0960703D02*
X0097485Y0960703D01*
X0097580Y0960311D02*
X0067872Y0960311D01*
X0067638Y0959918D02*
X0097676Y0959918D01*
X0097771Y0959526D02*
X0067404Y0959526D01*
X0067169Y0959134D02*
X0097867Y0959134D01*
X0097962Y0958742D02*
X0066935Y0958742D01*
X0066701Y0958350D02*
X0098057Y0958350D01*
X0098153Y0957957D02*
X0066466Y0957957D01*
X0066232Y0957565D02*
X0098248Y0957565D01*
X0098344Y0957173D02*
X0065998Y0957173D01*
X0065764Y0956781D02*
X0098439Y0956781D01*
X0098534Y0956389D02*
X0065529Y0956389D01*
X0065295Y0955996D02*
X0098630Y0955996D01*
X0098725Y0955604D02*
X0065061Y0955604D01*
X0064826Y0955212D02*
X0098821Y0955212D01*
X0098916Y0954820D02*
X0064592Y0954820D01*
X0064358Y0954427D02*
X0099011Y0954427D01*
X0099107Y0954035D02*
X0064124Y0954035D01*
X0063889Y0953643D02*
X0099202Y0953643D01*
X0099298Y0953251D02*
X0063655Y0953251D01*
X0063421Y0952859D02*
X0099393Y0952859D01*
X0099488Y0952466D02*
X0063187Y0952466D01*
X0062952Y0952074D02*
X0099584Y0952074D01*
X0099484Y0951682D02*
X0062718Y0951682D01*
X0062484Y0951290D02*
X0099255Y0951290D01*
X0099025Y0950898D02*
X0062249Y0950898D01*
X0062015Y0950505D02*
X0098796Y0950505D01*
X0098566Y0950113D02*
X0061781Y0950113D01*
X0061547Y0949721D02*
X0098336Y0949721D01*
X0098107Y0949329D02*
X0061312Y0949329D01*
X0061078Y0948937D02*
X0097877Y0948937D01*
X0097648Y0948544D02*
X0060844Y0948544D01*
X0060610Y0948152D02*
X0097418Y0948152D01*
X0097188Y0947760D02*
X0060375Y0947760D01*
X0060141Y0947368D02*
X0096959Y0947368D01*
X0096729Y0946975D02*
X0059907Y0946975D01*
X0059672Y0946583D02*
X0096500Y0946583D01*
X0096270Y0946191D02*
X0059438Y0946191D01*
X0059204Y0945799D02*
X0096041Y0945799D01*
X0095811Y0945407D02*
X0058970Y0945407D01*
X0058735Y0945014D02*
X0095581Y0945014D01*
X0095352Y0944622D02*
X0058501Y0944622D01*
X0058267Y0944230D02*
X0095122Y0944230D01*
X0094893Y0943838D02*
X0058033Y0943838D01*
X0057798Y0943446D02*
X0094663Y0943446D01*
X0094433Y0943053D02*
X0057564Y0943053D01*
X0057330Y0942661D02*
X0094204Y0942661D01*
X0093974Y0942269D02*
X0057095Y0942269D01*
X0056861Y0941877D02*
X0093745Y0941877D01*
X0093515Y0941484D02*
X0056627Y0941484D01*
X0056393Y0941092D02*
X0093285Y0941092D01*
X0093056Y0940700D02*
X0056158Y0940700D01*
X0055924Y0940308D02*
X0092826Y0940308D01*
X0092597Y0939916D02*
X0055703Y0939916D01*
X0055481Y0939523D02*
X0092367Y0939523D01*
X0092138Y0939131D02*
X0055260Y0939131D01*
X0055038Y0938739D02*
X0091908Y0938739D01*
X0091678Y0938347D02*
X0054817Y0938347D01*
X0054595Y0937955D02*
X0091449Y0937955D01*
X0091219Y0937562D02*
X0054374Y0937562D01*
X0054153Y0937170D02*
X0090990Y0937170D01*
X0090760Y0936778D02*
X0053931Y0936778D01*
X0053710Y0936386D02*
X0090530Y0936386D01*
X0090301Y0935994D02*
X0053488Y0935994D01*
X0053267Y0935601D02*
X0090071Y0935601D01*
X0089842Y0935209D02*
X0053046Y0935209D01*
X0052824Y0934817D02*
X0089612Y0934817D01*
X0089382Y0934425D02*
X0052603Y0934425D01*
X0052381Y0934032D02*
X0089153Y0934032D01*
X0088923Y0933640D02*
X0052160Y0933640D01*
X0051939Y0933248D02*
X0088694Y0933248D01*
X0088464Y0932856D02*
X0051717Y0932856D01*
X0051496Y0932464D02*
X0088235Y0932464D01*
X0088005Y0932071D02*
X0051274Y0932071D01*
X0051053Y0931679D02*
X0087775Y0931679D01*
X0087546Y0931287D02*
X0050831Y0931287D01*
X0050610Y0930895D02*
X0087316Y0930895D01*
X0087087Y0930503D02*
X0050389Y0930503D01*
X0050167Y0930110D02*
X0086857Y0930110D01*
X0086627Y0929718D02*
X0049946Y0929718D01*
X0049724Y0929326D02*
X0086398Y0929326D01*
X0086168Y0928934D02*
X0049503Y0928934D01*
X0049282Y0928541D02*
X0085939Y0928541D01*
X0085709Y0928149D02*
X0049060Y0928149D01*
X0048839Y0927757D02*
X0085479Y0927757D01*
X0085250Y0927365D02*
X0048617Y0927365D01*
X0048396Y0926973D02*
X0085020Y0926973D01*
X0084791Y0926580D02*
X0048175Y0926580D01*
X0047953Y0926188D02*
X0084561Y0926188D01*
X0084332Y0925796D02*
X0047732Y0925796D01*
X0047510Y0925404D02*
X0084102Y0925404D01*
X0083872Y0925012D02*
X0047289Y0925012D01*
X0047068Y0924619D02*
X0083643Y0924619D01*
X0083413Y0924227D02*
X0046846Y0924227D01*
X0046625Y0923835D02*
X0083184Y0923835D01*
X0082954Y0923443D02*
X0046403Y0923443D01*
X0046182Y0923051D02*
X0082724Y0923051D01*
X0082495Y0922658D02*
X0045960Y0922658D01*
X0045739Y0922266D02*
X0082265Y0922266D01*
X0082036Y0921874D02*
X0045518Y0921874D01*
X0045296Y0921482D02*
X0081806Y0921482D01*
X0081576Y0921089D02*
X0045075Y0921089D01*
X0044853Y0920697D02*
X0081347Y0920697D01*
X0081117Y0920305D02*
X0044632Y0920305D01*
X0044411Y0919913D02*
X0080888Y0919913D01*
X0080658Y0919521D02*
X0044189Y0919521D01*
X0043968Y0919128D02*
X0080429Y0919128D01*
X0080199Y0918736D02*
X0043746Y0918736D01*
X0043525Y0918344D02*
X0079969Y0918344D01*
X0079740Y0917952D02*
X0043304Y0917952D01*
X0043082Y0917560D02*
X0079510Y0917560D01*
X0079281Y0917167D02*
X0042861Y0917167D01*
X0042639Y0916775D02*
X0079051Y0916775D01*
X0078821Y0916383D02*
X0042418Y0916383D01*
X0042196Y0915991D02*
X0078592Y0915991D01*
X0078362Y0915598D02*
X0042047Y0915598D01*
X0041922Y0915206D02*
X0078133Y0915206D01*
X0077903Y0914814D02*
X0041796Y0914814D01*
X0041671Y0914422D02*
X0077673Y0914422D01*
X0077444Y0914030D02*
X0041545Y0914030D01*
X0041420Y0913637D02*
X0077214Y0913637D01*
X0076985Y0913245D02*
X0041294Y0913245D01*
X0041169Y0912853D02*
X0076755Y0912853D01*
X0076526Y0912461D02*
X0041043Y0912461D01*
X0040918Y0912069D02*
X0076296Y0912069D01*
X0076066Y0911676D02*
X0040792Y0911676D01*
X0040667Y0911284D02*
X0075837Y0911284D01*
X0075607Y0910892D02*
X0040541Y0910892D01*
X0040416Y0910500D02*
X0075378Y0910500D01*
X0075148Y0910108D02*
X0040290Y0910108D01*
X0040165Y0909715D02*
X0074918Y0909715D01*
X0074689Y0909323D02*
X0040039Y0909323D01*
X0039914Y0908931D02*
X0074459Y0908931D01*
X0074230Y0908539D02*
X0039788Y0908539D01*
X0039663Y0908146D02*
X0074000Y0908146D01*
X0073770Y0907754D02*
X0039537Y0907754D01*
X0039412Y0907362D02*
X0073541Y0907362D01*
X0073311Y0906970D02*
X0039286Y0906970D01*
X0039161Y0906578D02*
X0073082Y0906578D01*
X0072852Y0906185D02*
X0039035Y0906185D01*
X0038910Y0905793D02*
X0072623Y0905793D01*
X0072393Y0905401D02*
X0038784Y0905401D01*
X0038659Y0905009D02*
X0072163Y0905009D01*
X0071934Y0904617D02*
X0038533Y0904617D01*
X0038408Y0904224D02*
X0071704Y0904224D01*
X0071475Y0903832D02*
X0038282Y0903832D01*
X0038157Y0903440D02*
X0071259Y0903440D01*
X0071137Y0903048D02*
X0038031Y0903048D01*
X0037905Y0902655D02*
X0071015Y0902655D01*
X0070893Y0902263D02*
X0037780Y0902263D01*
X0037654Y0901871D02*
X0070771Y0901871D01*
X0070649Y0901479D02*
X0037529Y0901479D01*
X0037403Y0901087D02*
X0070527Y0901087D01*
X0070404Y0900694D02*
X0037278Y0900694D01*
X0037152Y0900302D02*
X0070282Y0900302D01*
X0070160Y0899910D02*
X0037027Y0899910D01*
X0036901Y0899518D02*
X0070038Y0899518D01*
X0069916Y0899126D02*
X0036776Y0899126D01*
X0036650Y0898733D02*
X0069794Y0898733D01*
X0069672Y0898341D02*
X0036525Y0898341D01*
X0036399Y0897949D02*
X0069550Y0897949D01*
X0069427Y0897557D02*
X0036274Y0897557D01*
X0036148Y0897165D02*
X0069305Y0897165D01*
X0069183Y0896772D02*
X0036023Y0896772D01*
X0035897Y0896380D02*
X0069061Y0896380D01*
X0068939Y0895988D02*
X0035772Y0895988D01*
X0035647Y0895596D02*
X0068817Y0895596D01*
X0068695Y0895203D02*
X0035522Y0895203D01*
X0035397Y0894811D02*
X0068573Y0894811D01*
X0068450Y0894419D02*
X0035271Y0894419D01*
X0035146Y0894027D02*
X0068328Y0894027D01*
X0068206Y0893635D02*
X0035021Y0893635D01*
X0034896Y0893242D02*
X0068084Y0893242D01*
X0067962Y0892850D02*
X0034771Y0892850D01*
X0034645Y0892458D02*
X0067840Y0892458D01*
X0067718Y0892066D02*
X0034520Y0892066D01*
X0034395Y0891674D02*
X0067596Y0891674D01*
X0067473Y0891281D02*
X0034270Y0891281D01*
X0034145Y0890889D02*
X0067351Y0890889D01*
X0067229Y0890497D02*
X0034020Y0890497D01*
X0033894Y0890105D02*
X0067107Y0890105D01*
X0066985Y0889712D02*
X0033769Y0889712D01*
X0033644Y0889320D02*
X0066863Y0889320D01*
X0066741Y0888928D02*
X0033519Y0888928D01*
X0033394Y0888536D02*
X0066619Y0888536D01*
X0066496Y0888144D02*
X0033269Y0888144D01*
X0033143Y0887751D02*
X0066374Y0887751D01*
X0066252Y0887359D02*
X0033018Y0887359D01*
X0032893Y0886967D02*
X0066130Y0886967D01*
X0066008Y0886575D02*
X0032768Y0886575D01*
X0032643Y0886183D02*
X0065886Y0886183D01*
X0065764Y0885790D02*
X0032518Y0885790D01*
X0032392Y0885398D02*
X0065642Y0885398D01*
X0065519Y0885006D02*
X0032267Y0885006D01*
X0032142Y0884614D02*
X0065397Y0884614D01*
X0065275Y0884222D02*
X0032017Y0884222D01*
X0031892Y0883829D02*
X0065153Y0883829D01*
X0065031Y0883437D02*
X0031766Y0883437D01*
X0031641Y0883045D02*
X0064909Y0883045D01*
X0064787Y0882653D02*
X0031516Y0882653D01*
X0031391Y0882260D02*
X0064665Y0882260D01*
X0064542Y0881868D02*
X0031266Y0881868D01*
X0031141Y0881476D02*
X0064420Y0881476D01*
X0064298Y0881084D02*
X0031015Y0881084D01*
X0030890Y0880692D02*
X0064176Y0880692D01*
X0064054Y0880299D02*
X0030765Y0880299D01*
X0030640Y0879907D02*
X0063932Y0879907D01*
X0063810Y0879515D02*
X0030515Y0879515D01*
X0030390Y0879123D02*
X0063688Y0879123D01*
X0063565Y0878731D02*
X0030264Y0878731D01*
X0030139Y0878338D02*
X0063443Y0878338D01*
X0063321Y0877946D02*
X0030014Y0877946D01*
X0029914Y0877554D02*
X0063199Y0877554D01*
X0063077Y0877162D02*
X0029853Y0877162D01*
X0029792Y0876770D02*
X0062955Y0876770D01*
X0062833Y0876377D02*
X0029732Y0876377D01*
X0029671Y0875985D02*
X0062711Y0875985D01*
X0062588Y0875593D02*
X0029610Y0875593D01*
X0029550Y0875201D02*
X0062466Y0875201D01*
X0062344Y0874808D02*
X0029489Y0874808D01*
X0029428Y0874416D02*
X0062222Y0874416D01*
X0062100Y0874024D02*
X0029368Y0874024D01*
X0029307Y0873632D02*
X0061978Y0873632D01*
X0061856Y0873240D02*
X0029247Y0873240D01*
X0029186Y0872847D02*
X0061734Y0872847D01*
X0061611Y0872455D02*
X0029125Y0872455D01*
X0029065Y0872063D02*
X0061489Y0872063D01*
X0061367Y0871671D02*
X0029004Y0871671D01*
X0028943Y0871279D02*
X0061245Y0871279D01*
X0061123Y0870886D02*
X0028883Y0870886D01*
X0028822Y0870494D02*
X0061019Y0870494D01*
X0060955Y0870102D02*
X0028761Y0870102D01*
X0028701Y0869710D02*
X0060891Y0869710D01*
X0060827Y0869317D02*
X0028640Y0869317D01*
X0028579Y0868925D02*
X0060763Y0868925D01*
X0060699Y0868533D02*
X0028519Y0868533D01*
X0028458Y0868141D02*
X0060635Y0868141D01*
X0060572Y0867749D02*
X0028397Y0867749D01*
X0028337Y0867356D02*
X0060508Y0867356D01*
X0060444Y0866964D02*
X0028276Y0866964D01*
X0028215Y0866572D02*
X0060380Y0866572D01*
X0060316Y0866180D02*
X0028155Y0866180D01*
X0028094Y0865788D02*
X0060252Y0865788D01*
X0060188Y0865395D02*
X0028033Y0865395D01*
X0027973Y0865003D02*
X0060124Y0865003D01*
X0060060Y0864611D02*
X0027912Y0864611D01*
X0027852Y0864219D02*
X0059996Y0864219D01*
X0059932Y0863827D02*
X0027791Y0863827D01*
X0027730Y0863434D02*
X0059868Y0863434D01*
X0059804Y0863042D02*
X0027670Y0863042D01*
X0027609Y0862650D02*
X0059740Y0862650D01*
X0059676Y0862258D02*
X0027548Y0862258D01*
X0027488Y0861865D02*
X0059612Y0861865D01*
X0059548Y0861473D02*
X0027427Y0861473D01*
X0027366Y0861081D02*
X0059484Y0861081D01*
X0059420Y0860689D02*
X0027306Y0860689D01*
X0027245Y0860297D02*
X0059357Y0860297D01*
X0059293Y0859904D02*
X0027184Y0859904D01*
X0027124Y0859512D02*
X0059229Y0859512D01*
X0059165Y0859120D02*
X0027063Y0859120D01*
X0027002Y0858728D02*
X0059101Y0858728D01*
X0059037Y0858336D02*
X0026942Y0858336D01*
X0026881Y0857943D02*
X0058973Y0857943D01*
X0058909Y0857551D02*
X0026820Y0857551D01*
X0026760Y0857159D02*
X0058845Y0857159D01*
X0058781Y0856767D02*
X0026699Y0856767D01*
X0026639Y0856374D02*
X0058717Y0856374D01*
X0058653Y0855982D02*
X0026578Y0855982D01*
X0026517Y0855590D02*
X0058589Y0855590D01*
X0058525Y0855198D02*
X0026457Y0855198D01*
X0026396Y0854806D02*
X0058461Y0854806D01*
X0058397Y0854413D02*
X0026335Y0854413D01*
X0026275Y0854021D02*
X0058333Y0854021D01*
X0058269Y0853629D02*
X0026214Y0853629D01*
X0026153Y0853237D02*
X0058205Y0853237D01*
X0058142Y0852845D02*
X0026093Y0852845D01*
X0026032Y0852452D02*
X0058078Y0852452D01*
X0058014Y0852060D02*
X0025971Y0852060D01*
X0025911Y0851668D02*
X0057950Y0851668D01*
X0057886Y0851276D02*
X0025850Y0851276D01*
X0025789Y0850884D02*
X0057822Y0850884D01*
X0057758Y0850491D02*
X0025729Y0850491D01*
X0025668Y0850099D02*
X0057694Y0850099D01*
X0057630Y0849707D02*
X0025607Y0849707D01*
X0025547Y0849315D02*
X0057566Y0849315D01*
X0057502Y0848922D02*
X0025486Y0848922D01*
X0025425Y0848530D02*
X0057438Y0848530D01*
X0057374Y0848138D02*
X0025365Y0848138D01*
X0025304Y0847746D02*
X0057310Y0847746D01*
X0057246Y0847354D02*
X0025244Y0847354D01*
X0025183Y0846961D02*
X0057182Y0846961D01*
X0057118Y0846569D02*
X0025122Y0846569D01*
X0025062Y0846177D02*
X0057054Y0846177D01*
X0056990Y0845785D02*
X0025001Y0845785D01*
X0024940Y0845393D02*
X0056927Y0845393D01*
X0056863Y0845000D02*
X0024880Y0845000D01*
X0024819Y0844608D02*
X0056799Y0844608D01*
X0056735Y0844216D02*
X0024758Y0844216D01*
X0024698Y0843824D02*
X0056671Y0843824D01*
X0056607Y0843431D02*
X0024637Y0843431D01*
X0024576Y0843039D02*
X0056543Y0843039D01*
X0056479Y0842647D02*
X0024516Y0842647D01*
X0024455Y0842255D02*
X0056415Y0842255D01*
X0056351Y0841863D02*
X0024394Y0841863D01*
X0024334Y0841470D02*
X0056287Y0841470D01*
X0056223Y0841078D02*
X0024273Y0841078D01*
X0024212Y0840686D02*
X0056159Y0840686D01*
X0056095Y0840294D02*
X0024152Y0840294D01*
X0024091Y0839902D02*
X0056031Y0839902D01*
X0055967Y0839509D02*
X0024036Y0839509D01*
X0024337Y0839117D02*
X0055903Y0839117D01*
X0055839Y0838725D02*
X0024638Y0838725D01*
X0024938Y0838333D02*
X0055775Y0838333D01*
X0055712Y0837941D02*
X0025239Y0837941D01*
X0025540Y0837548D02*
X0055648Y0837548D01*
X0055584Y0837156D02*
X0025841Y0837156D01*
X0026141Y0836764D02*
X0055520Y0836764D01*
X0055456Y0836372D02*
X0026442Y0836372D01*
X0026743Y0835979D02*
X0055392Y0835979D01*
X0055328Y0835587D02*
X0027043Y0835587D01*
X0027344Y0835195D02*
X0055264Y0835195D01*
X0055200Y0834803D02*
X0027645Y0834803D01*
X0027945Y0834411D02*
X0055136Y0834411D01*
X0054574Y0834018D02*
X0028246Y0834018D01*
X0028547Y0833626D02*
X0053995Y0833626D01*
X0053416Y0833234D02*
X0028848Y0833234D01*
X0029148Y0832842D02*
X0052837Y0832842D01*
X0052258Y0832450D02*
X0029449Y0832450D01*
X0029750Y0832057D02*
X0051679Y0832057D01*
X0051100Y0831665D02*
X0030050Y0831665D01*
X0030351Y0831273D02*
X0050521Y0831273D01*
X0049942Y0830881D02*
X0030652Y0830881D01*
X0030952Y0830488D02*
X0049363Y0830488D01*
X0048784Y0830096D02*
X0031253Y0830096D01*
X0031554Y0829704D02*
X0048205Y0829704D01*
X0047626Y0829312D02*
X0031855Y0829312D01*
X0032155Y0828920D02*
X0047047Y0828920D01*
X0046468Y0828527D02*
X0032456Y0828527D01*
X0032757Y0828135D02*
X0045889Y0828135D01*
X0045310Y0827743D02*
X0033057Y0827743D01*
X0035299Y0827351D02*
X0044731Y0827351D01*
X0044152Y0826959D02*
X0037750Y0826959D01*
X0040201Y0826566D02*
X0043573Y0826566D01*
X0042994Y0826174D02*
X0042653Y0826174D01*
X0041354Y0816681D02*
X0050409Y0805067D01*
X0039189Y0740303D01*
X0038942Y0739353D01*
X0038543Y0738457D01*
X0038001Y0737639D01*
X0037332Y0736921D01*
X0036554Y0736322D01*
X0035689Y0735860D01*
X0034759Y0735547D01*
X0033790Y0735390D01*
X0032809Y0735395D01*
X0011917Y0738877D01*
X0011075Y0739093D01*
X0010281Y0739448D01*
X0009560Y0739934D01*
X0008932Y0740534D01*
X0008415Y0741233D01*
X0008024Y0742010D01*
X0007771Y0742841D01*
X0007663Y0743704D01*
X0007703Y0744572D01*
X0007890Y0745421D01*
X0019307Y0810185D01*
X0031512Y0818256D01*
X0041354Y0816681D01*
X0041598Y0816369D02*
X0028658Y0816369D01*
X0028065Y0815977D02*
X0041904Y0815977D01*
X0042209Y0815584D02*
X0027472Y0815584D01*
X0026879Y0815192D02*
X0042515Y0815192D01*
X0042821Y0814800D02*
X0026286Y0814800D01*
X0025693Y0814408D02*
X0043127Y0814408D01*
X0043433Y0814016D02*
X0025100Y0814016D01*
X0024506Y0813623D02*
X0043738Y0813623D01*
X0044044Y0813231D02*
X0023913Y0813231D01*
X0023320Y0812839D02*
X0044350Y0812839D01*
X0044656Y0812447D02*
X0022727Y0812447D01*
X0022134Y0812055D02*
X0044962Y0812055D01*
X0045267Y0811662D02*
X0021541Y0811662D01*
X0020948Y0811270D02*
X0045573Y0811270D01*
X0045879Y0810878D02*
X0020355Y0810878D01*
X0019762Y0810486D02*
X0046185Y0810486D01*
X0046490Y0810093D02*
X0019291Y0810093D01*
X0019222Y0809701D02*
X0046796Y0809701D01*
X0047102Y0809309D02*
X0019153Y0809309D01*
X0019084Y0808917D02*
X0047408Y0808917D01*
X0047714Y0808525D02*
X0019014Y0808525D01*
X0018945Y0808132D02*
X0048019Y0808132D01*
X0048325Y0807740D02*
X0018876Y0807740D01*
X0018807Y0807348D02*
X0048631Y0807348D01*
X0048937Y0806956D02*
X0018738Y0806956D01*
X0018669Y0806564D02*
X0049243Y0806564D01*
X0049548Y0806171D02*
X0018599Y0806171D01*
X0018530Y0805779D02*
X0049854Y0805779D01*
X0050160Y0805387D02*
X0018461Y0805387D01*
X0018392Y0804995D02*
X0050397Y0804995D01*
X0050329Y0804602D02*
X0018323Y0804602D01*
X0018254Y0804210D02*
X0050261Y0804210D01*
X0050193Y0803818D02*
X0018185Y0803818D01*
X0018115Y0803426D02*
X0050125Y0803426D01*
X0050057Y0803034D02*
X0018046Y0803034D01*
X0017977Y0802641D02*
X0049989Y0802641D01*
X0049921Y0802249D02*
X0017908Y0802249D01*
X0017839Y0801857D02*
X0049853Y0801857D01*
X0049785Y0801465D02*
X0017770Y0801465D01*
X0017701Y0801073D02*
X0049717Y0801073D01*
X0049649Y0800680D02*
X0017631Y0800680D01*
X0017562Y0800288D02*
X0049582Y0800288D01*
X0049514Y0799896D02*
X0017493Y0799896D01*
X0017424Y0799504D02*
X0049446Y0799504D01*
X0049378Y0799112D02*
X0017355Y0799112D01*
X0017286Y0798719D02*
X0049310Y0798719D01*
X0049242Y0798327D02*
X0017217Y0798327D01*
X0017147Y0797935D02*
X0049174Y0797935D01*
X0049106Y0797543D02*
X0017078Y0797543D01*
X0017009Y0797150D02*
X0049038Y0797150D01*
X0048970Y0796758D02*
X0016940Y0796758D01*
X0016871Y0796366D02*
X0048902Y0796366D01*
X0048834Y0795974D02*
X0016802Y0795974D01*
X0016733Y0795582D02*
X0048766Y0795582D01*
X0048698Y0795189D02*
X0016663Y0795189D01*
X0016594Y0794797D02*
X0048630Y0794797D01*
X0048562Y0794405D02*
X0016525Y0794405D01*
X0016456Y0794013D02*
X0048494Y0794013D01*
X0048426Y0793621D02*
X0016387Y0793621D01*
X0016318Y0793228D02*
X0048358Y0793228D01*
X0048290Y0792836D02*
X0016249Y0792836D01*
X0016179Y0792444D02*
X0048222Y0792444D01*
X0048155Y0792052D02*
X0016110Y0792052D01*
X0016041Y0791659D02*
X0048087Y0791659D01*
X0048019Y0791267D02*
X0015972Y0791267D01*
X0015903Y0790875D02*
X0047951Y0790875D01*
X0047883Y0790483D02*
X0015834Y0790483D01*
X0015765Y0790091D02*
X0047815Y0790091D01*
X0047747Y0789698D02*
X0015695Y0789698D01*
X0015626Y0789306D02*
X0047679Y0789306D01*
X0047611Y0788914D02*
X0015557Y0788914D01*
X0015488Y0788522D02*
X0047543Y0788522D01*
X0047475Y0788130D02*
X0015419Y0788130D01*
X0015350Y0787737D02*
X0047407Y0787737D01*
X0047339Y0787345D02*
X0015281Y0787345D01*
X0015211Y0786953D02*
X0047271Y0786953D01*
X0047203Y0786561D02*
X0015142Y0786561D01*
X0015073Y0786169D02*
X0047135Y0786169D01*
X0047067Y0785776D02*
X0015004Y0785776D01*
X0014935Y0785384D02*
X0046999Y0785384D01*
X0046931Y0784992D02*
X0014866Y0784992D01*
X0014797Y0784600D02*
X0046863Y0784600D01*
X0046795Y0784207D02*
X0014727Y0784207D01*
X0014658Y0783815D02*
X0046728Y0783815D01*
X0046660Y0783423D02*
X0014589Y0783423D01*
X0014520Y0783031D02*
X0046592Y0783031D01*
X0046524Y0782639D02*
X0014451Y0782639D01*
X0014382Y0782246D02*
X0046456Y0782246D01*
X0046388Y0781854D02*
X0014313Y0781854D01*
X0014243Y0781462D02*
X0046320Y0781462D01*
X0046252Y0781070D02*
X0014174Y0781070D01*
X0014105Y0780678D02*
X0046184Y0780678D01*
X0046116Y0780285D02*
X0014036Y0780285D01*
X0013967Y0779893D02*
X0046048Y0779893D01*
X0045980Y0779501D02*
X0013898Y0779501D01*
X0013829Y0779109D02*
X0045912Y0779109D01*
X0045844Y0778716D02*
X0013759Y0778716D01*
X0013690Y0778324D02*
X0045776Y0778324D01*
X0045708Y0777932D02*
X0013621Y0777932D01*
X0013552Y0777540D02*
X0045640Y0777540D01*
X0045572Y0777148D02*
X0013483Y0777148D01*
X0013414Y0776755D02*
X0045504Y0776755D01*
X0045436Y0776363D02*
X0013345Y0776363D01*
X0013275Y0775971D02*
X0045369Y0775971D01*
X0045301Y0775579D02*
X0013206Y0775579D01*
X0013137Y0775187D02*
X0045233Y0775187D01*
X0045165Y0774794D02*
X0013068Y0774794D01*
X0012999Y0774402D02*
X0045097Y0774402D01*
X0045029Y0774010D02*
X0012930Y0774010D01*
X0012861Y0773618D02*
X0044961Y0773618D01*
X0044893Y0773226D02*
X0012791Y0773226D01*
X0012722Y0772833D02*
X0044825Y0772833D01*
X0044757Y0772441D02*
X0012653Y0772441D01*
X0012584Y0772049D02*
X0044689Y0772049D01*
X0044621Y0771657D02*
X0012515Y0771657D01*
X0012446Y0771264D02*
X0044553Y0771264D01*
X0044485Y0770872D02*
X0012377Y0770872D01*
X0012307Y0770480D02*
X0044417Y0770480D01*
X0044349Y0770088D02*
X0012238Y0770088D01*
X0012169Y0769696D02*
X0044281Y0769696D01*
X0044213Y0769303D02*
X0012100Y0769303D01*
X0012031Y0768911D02*
X0044145Y0768911D01*
X0044077Y0768519D02*
X0011962Y0768519D01*
X0011893Y0768127D02*
X0044009Y0768127D01*
X0043942Y0767735D02*
X0011823Y0767735D01*
X0011754Y0767342D02*
X0043874Y0767342D01*
X0043806Y0766950D02*
X0011685Y0766950D01*
X0011616Y0766558D02*
X0043738Y0766558D01*
X0043670Y0766166D02*
X0011547Y0766166D01*
X0011478Y0765773D02*
X0043602Y0765773D01*
X0043534Y0765381D02*
X0011409Y0765381D01*
X0011339Y0764989D02*
X0043466Y0764989D01*
X0043398Y0764597D02*
X0011270Y0764597D01*
X0011201Y0764205D02*
X0043330Y0764205D01*
X0043262Y0763812D02*
X0011132Y0763812D01*
X0011063Y0763420D02*
X0043194Y0763420D01*
X0043126Y0763028D02*
X0010994Y0763028D01*
X0010925Y0762636D02*
X0043058Y0762636D01*
X0042990Y0762244D02*
X0010855Y0762244D01*
X0010786Y0761851D02*
X0042922Y0761851D01*
X0042854Y0761459D02*
X0010717Y0761459D01*
X0010648Y0761067D02*
X0042786Y0761067D01*
X0042718Y0760675D02*
X0010579Y0760675D01*
X0010510Y0760283D02*
X0042650Y0760283D01*
X0042583Y0759890D02*
X0010441Y0759890D01*
X0010371Y0759498D02*
X0042515Y0759498D01*
X0042447Y0759106D02*
X0010302Y0759106D01*
X0010233Y0758714D02*
X0042379Y0758714D01*
X0042311Y0758321D02*
X0010164Y0758321D01*
X0010095Y0757929D02*
X0042243Y0757929D01*
X0042175Y0757537D02*
X0010026Y0757537D01*
X0009957Y0757145D02*
X0042107Y0757145D01*
X0042039Y0756753D02*
X0009887Y0756753D01*
X0009818Y0756360D02*
X0041971Y0756360D01*
X0041903Y0755968D02*
X0009749Y0755968D01*
X0009680Y0755576D02*
X0041835Y0755576D01*
X0041767Y0755184D02*
X0009611Y0755184D01*
X0009542Y0754792D02*
X0041699Y0754792D01*
X0041631Y0754399D02*
X0009473Y0754399D01*
X0009403Y0754007D02*
X0041563Y0754007D01*
X0041495Y0753615D02*
X0009334Y0753615D01*
X0009265Y0753223D02*
X0041427Y0753223D01*
X0041359Y0752830D02*
X0009196Y0752830D01*
X0009127Y0752438D02*
X0041291Y0752438D01*
X0041223Y0752046D02*
X0009058Y0752046D01*
X0008989Y0751654D02*
X0041156Y0751654D01*
X0041088Y0751262D02*
X0008919Y0751262D01*
X0008850Y0750869D02*
X0041020Y0750869D01*
X0040952Y0750477D02*
X0008781Y0750477D01*
X0008712Y0750085D02*
X0040884Y0750085D01*
X0040816Y0749693D02*
X0008643Y0749693D01*
X0008574Y0749301D02*
X0040748Y0749301D01*
X0040680Y0748908D02*
X0008505Y0748908D01*
X0008435Y0748516D02*
X0040612Y0748516D01*
X0040544Y0748124D02*
X0008366Y0748124D01*
X0008297Y0747732D02*
X0040476Y0747732D01*
X0040408Y0747340D02*
X0008228Y0747340D01*
X0008159Y0746947D02*
X0040340Y0746947D01*
X0040272Y0746555D02*
X0008090Y0746555D01*
X0008020Y0746163D02*
X0040204Y0746163D01*
X0040136Y0745771D02*
X0007951Y0745771D01*
X0007880Y0745378D02*
X0040068Y0745378D01*
X0040000Y0744986D02*
X0007794Y0744986D01*
X0007707Y0744594D02*
X0039932Y0744594D01*
X0039864Y0744202D02*
X0007686Y0744202D01*
X0007667Y0743810D02*
X0039796Y0743810D01*
X0039729Y0743417D02*
X0007698Y0743417D01*
X0007748Y0743025D02*
X0039661Y0743025D01*
X0039593Y0742633D02*
X0007834Y0742633D01*
X0007953Y0742241D02*
X0039525Y0742241D01*
X0039457Y0741849D02*
X0008105Y0741849D01*
X0008302Y0741456D02*
X0039389Y0741456D01*
X0039321Y0741064D02*
X0008540Y0741064D01*
X0008830Y0740672D02*
X0039253Y0740672D01*
X0039183Y0740280D02*
X0009198Y0740280D01*
X0009629Y0739887D02*
X0039081Y0739887D01*
X0038979Y0739495D02*
X0010212Y0739495D01*
X0011052Y0739103D02*
X0038831Y0739103D01*
X0038656Y0738711D02*
X0012916Y0738711D01*
X0015269Y0738319D02*
X0038451Y0738319D01*
X0038191Y0737926D02*
X0017623Y0737926D01*
X0019976Y0737534D02*
X0037904Y0737534D01*
X0037538Y0737142D02*
X0022329Y0737142D01*
X0024682Y0736750D02*
X0037110Y0736750D01*
X0036600Y0736358D02*
X0027036Y0736358D01*
X0029389Y0735965D02*
X0035886Y0735965D01*
X0034838Y0735573D02*
X0031742Y0735573D01*
X0097752Y0714001D02*
X0121280Y0714001D01*
X0120267Y0713609D02*
X0115793Y0713609D01*
X0040855Y0816761D02*
X0029251Y0816761D01*
X0029844Y0817153D02*
X0038403Y0817153D01*
X0035952Y0817545D02*
X0030437Y0817545D01*
X0031031Y0817938D02*
X0033501Y0817938D01*
X0123668Y0825782D02*
X0132027Y0825782D01*
X0131383Y0825390D02*
X0125810Y0825390D01*
X0127953Y0824998D02*
X0130739Y0824998D01*
X0095363Y0966978D02*
X0071855Y0966978D01*
X0072089Y0967370D02*
X0094795Y0967370D01*
X0094227Y0967763D02*
X0072323Y0967763D01*
X0072558Y0968155D02*
X0093659Y0968155D01*
X0093091Y0968547D02*
X0072792Y0968547D01*
X0073026Y0968939D02*
X0092523Y0968939D01*
X0091955Y0969332D02*
X0073260Y0969332D01*
X0073946Y0969724D02*
X0091387Y0969724D01*
X0090819Y0970116D02*
X0076148Y0970116D01*
X0078351Y0970508D02*
X0090251Y0970508D01*
X0089683Y0970900D02*
X0080553Y0970900D01*
X0082756Y0971293D02*
X0089115Y0971293D01*
X0088547Y0971685D02*
X0084958Y0971685D01*
X0087160Y0972077D02*
X0087979Y0972077D01*
X0189600Y0974823D02*
X0214608Y0974823D01*
X0214331Y0974430D02*
X0190141Y0974430D01*
X0190683Y0974038D02*
X0214055Y0974038D01*
X0213778Y0973646D02*
X0191225Y0973646D01*
X0191766Y0973254D02*
X0213502Y0973254D01*
X0213226Y0972861D02*
X0192308Y0972861D01*
X0192849Y0972469D02*
X0212949Y0972469D01*
X0212673Y0972077D02*
X0193391Y0972077D01*
X0193933Y0971685D02*
X0212397Y0971685D01*
X0212120Y0971293D02*
X0194474Y0971293D01*
X0195016Y0970900D02*
X0210832Y0970900D01*
X0207664Y0970508D02*
X0195558Y0970508D01*
X0196099Y0970116D02*
X0204496Y0970116D01*
X0201328Y0969724D02*
X0196641Y0969724D01*
X0197182Y0969332D02*
X0198160Y0969332D01*
M02*
