G75*
%MOIN*%
%OFA0B0*%
%FSLAX25Y25*%
%IPPOS*%
%LPD*%
%AMOC8*
5,1,8,0,0,1.08239X$1,22.5*
%
%ADD10C,0.03937*%
D10*
X0167535Y0131642D02*
X0167142Y0139909D01*
X0166157Y0157429D01*
X0161039Y0219240D01*
X0156315Y0272390D01*
X0148638Y0364909D01*
X0143717Y0401917D01*
X0127181Y0489319D01*
X0098835Y0625343D01*
X0091945Y0645028D01*
X0078559Y0679083D01*
X0048047Y0754870D01*
X0019504Y0810579D01*
X0002969Y0841091D01*
X0006118Y0843059D01*
X0005921Y0842862D02*
X0083283Y0895028D01*
X0072260Y0910382D01*
X0071669Y0911169D01*
X0078559Y0916091D01*
X0072260Y0924949D01*
X0071866Y0925539D01*
X0071472Y0925933D01*
X0079150Y0931248D01*
X0108283Y0950933D01*
X0140961Y0971602D01*
X0158283Y0946602D01*
X0231512Y0997587D01*
X0271472Y1022587D01*
X0272457Y1023177D01*
X0276984Y1013925D01*
X0295685Y0977705D01*
X0313992Y0943846D01*
X0329346Y0916287D01*
X0360055Y0856839D01*
X0360843Y0855264D01*
X0361236Y0854673D01*
X0326787Y0835776D01*
X0326197Y0835382D01*
X0324228Y0838138D01*
X0304346Y0877902D01*
X0290961Y0903492D01*
X0277181Y0928295D01*
X0265567Y0949949D01*
X0256906Y0966287D01*
X0226787Y0945421D01*
X0182102Y0914713D01*
X0127772Y0877508D01*
X0055134Y0828098D01*
X0083677Y0771799D01*
X0130134Y0656445D01*
X0136630Y0636366D01*
X0141945Y0613531D01*
X0153559Y0560776D01*
X0183677Y0406642D01*
X0188205Y0368453D01*
X0194504Y0290894D01*
X0204740Y0173965D01*
X0376787Y0187154D01*
X0435449Y0194043D01*
X0423047Y0306642D01*
X0400606Y0503492D01*
X0388402Y0603492D01*
X0383677Y0641681D01*
X0377378Y0689713D01*
X0372654Y0723768D01*
X0367732Y0770815D01*
X0362614Y0817862D01*
X0359268Y0848571D01*
X0399228Y0851130D01*
X0403165Y0812547D01*
X0406906Y0776130D01*
X0412220Y0724161D01*
X0426197Y0623177D01*
X0428953Y0600736D01*
X0440567Y0504083D01*
X0449228Y0428492D01*
X0465173Y0287744D01*
X0479543Y0158413D01*
X0463992Y0157035D01*
X0438008Y0153886D01*
X0385055Y0147783D01*
X0329150Y0143256D01*
X0236039Y0135972D01*
X0167535Y0131642D01*
M02*
