G75*
%MOIN*%
%OFA0B0*%
%FSLAX25Y25*%
%IPPOS*%
%LPD*%
%AMOC8*
5,1,8,0,0,1.08239X$1,22.5*
%
%ADD10C,0.03937*%
D10*
X0095296Y0710188D02*
X0120351Y0709074D01*
X0121325Y0709770D02*
X0095296Y0710188D01*
X0095017Y0709909D02*
X0094838Y0709886D01*
X0094659Y0709867D01*
X0094480Y0709852D01*
X0094300Y0709842D01*
X0094120Y0709836D01*
X0093940Y0709835D01*
X0093760Y0709838D01*
X0093580Y0709845D01*
X0093400Y0709857D01*
X0093220Y0709873D01*
X0093041Y0709894D01*
X0092863Y0709919D01*
X0092685Y0709948D01*
X0092508Y0709982D01*
X0092332Y0710020D01*
X0092157Y0710062D01*
X0091983Y0710108D01*
X0091810Y0710159D01*
X0091639Y0710214D01*
X0091468Y0710273D01*
X0091300Y0710336D01*
X0091133Y0710403D01*
X0090967Y0710475D01*
X0090804Y0710550D01*
X0090642Y0710629D01*
X0090482Y0710713D01*
X0090324Y0710800D01*
X0090169Y0710891D01*
X0090016Y0710985D01*
X0089865Y0711084D01*
X0089716Y0711186D01*
X0089571Y0711291D01*
X0089427Y0711401D01*
X0089287Y0711513D01*
X0089149Y0711629D01*
X0089014Y0711749D01*
X0088882Y0711871D01*
X0088753Y0711997D01*
X0088627Y0712126D01*
X0088505Y0712258D01*
X0088385Y0712393D01*
X0088269Y0712531D01*
X0088157Y0712671D01*
X0088047Y0712815D01*
X0087942Y0712960D01*
X0087840Y0713109D01*
X0087741Y0713260D01*
X0087647Y0713413D01*
X0087556Y0713568D01*
X0087469Y0713726D01*
X0087385Y0713886D01*
X0087306Y0714048D01*
X0087231Y0714211D01*
X0087159Y0714377D01*
X0087092Y0714544D01*
X0087029Y0714712D01*
X0086970Y0714883D01*
X0086915Y0715054D01*
X0086864Y0715227D01*
X0086818Y0715401D01*
X0086776Y0715576D01*
X0086738Y0715752D01*
X0086704Y0715929D01*
X0086675Y0716107D01*
X0086650Y0716285D01*
X0086629Y0716464D01*
X0086613Y0716644D01*
X0086601Y0716824D01*
X0086594Y0717004D01*
X0086591Y0717184D01*
X0086592Y0717364D01*
X0086598Y0717544D01*
X0086608Y0717724D01*
X0086623Y0717903D01*
X0086642Y0718082D01*
X0086665Y0718261D01*
X0086666Y0718261D02*
X0094182Y0770876D01*
X0101699Y0809851D01*
X0107823Y0840473D01*
X0123970Y0899770D01*
X0142204Y0936378D01*
X0165311Y0966723D01*
X0183267Y0992195D01*
X0182710Y0991360D02*
X0227530Y1053719D01*
X0261215Y1030056D01*
X0216812Y0970342D01*
X0197464Y0942920D01*
X0176307Y0913411D01*
X0161831Y0884180D01*
X0146798Y0831565D01*
X0140673Y0801499D01*
X0126615Y0713389D01*
X0126564Y0713241D01*
X0126509Y0713094D01*
X0126450Y0712948D01*
X0126388Y0712804D01*
X0126322Y0712661D01*
X0126253Y0712520D01*
X0126180Y0712381D01*
X0126104Y0712244D01*
X0126025Y0712109D01*
X0125942Y0711975D01*
X0125855Y0711844D01*
X0125766Y0711715D01*
X0125673Y0711588D01*
X0125577Y0711464D01*
X0125479Y0711342D01*
X0125377Y0711222D01*
X0125272Y0711106D01*
X0125164Y0710991D01*
X0125054Y0710880D01*
X0124940Y0710771D01*
X0124824Y0710665D01*
X0124706Y0710562D01*
X0124585Y0710462D01*
X0124461Y0710365D01*
X0124335Y0710271D01*
X0124207Y0710181D01*
X0124077Y0710093D01*
X0123944Y0710009D01*
X0123810Y0709928D01*
X0123673Y0709851D01*
X0123535Y0709777D01*
X0123394Y0709706D01*
X0123252Y0709639D01*
X0123109Y0709575D01*
X0122964Y0709515D01*
X0122817Y0709459D01*
X0122669Y0709407D01*
X0122520Y0709358D01*
X0122370Y0709312D01*
X0122218Y0709271D01*
X0122066Y0709233D01*
X0121912Y0709200D01*
X0121758Y0709170D01*
X0121603Y0709143D01*
X0121448Y0709121D01*
X0121292Y0709103D01*
X0121136Y0709088D01*
X0120979Y0709078D01*
X0120822Y0709071D01*
X0120665Y0709068D01*
X0120508Y0709069D01*
X0120351Y0709074D01*
X0043520Y0728492D02*
X0002969Y0735579D01*
X0015370Y0811366D01*
X0015173Y0810382D02*
X0020488Y0841091D01*
X0025606Y0878886D01*
X0038598Y0917665D01*
X0069110Y0971012D01*
X0086433Y0996996D01*
X0108677Y1029870D01*
X0140567Y1072390D01*
X0140566Y1072390D02*
X0140676Y1072533D01*
X0140790Y1072673D01*
X0140906Y1072810D01*
X0141026Y1072945D01*
X0141149Y1073076D01*
X0141276Y1073204D01*
X0141405Y1073330D01*
X0141538Y1073452D01*
X0141673Y1073570D01*
X0141812Y1073686D01*
X0141953Y1073798D01*
X0142096Y1073906D01*
X0142243Y1074011D01*
X0142392Y1074113D01*
X0142543Y1074211D01*
X0142697Y1074305D01*
X0142852Y1074395D01*
X0143011Y1074481D01*
X0143171Y1074564D01*
X0143333Y1074642D01*
X0143497Y1074717D01*
X0143662Y1074787D01*
X0143830Y1074854D01*
X0143999Y1074916D01*
X0144169Y1074975D01*
X0144341Y1075029D01*
X0144514Y1075079D01*
X0144688Y1075124D01*
X0144864Y1075166D01*
X0145040Y1075203D01*
X0145217Y1075236D01*
X0145395Y1075264D01*
X0145574Y1075288D01*
X0145753Y1075308D01*
X0145932Y1075323D01*
X0146112Y1075334D01*
X0146292Y1075341D01*
X0146472Y1075343D01*
X0146652Y1075341D01*
X0146832Y1075334D01*
X0147012Y1075323D01*
X0147191Y1075308D01*
X0147370Y1075288D01*
X0147549Y1075264D01*
X0147727Y1075236D01*
X0147904Y1075203D01*
X0148080Y1075166D01*
X0148256Y1075124D01*
X0148430Y1075079D01*
X0148603Y1075029D01*
X0148775Y1074975D01*
X0148945Y1074916D01*
X0149114Y1074854D01*
X0149282Y1074787D01*
X0149447Y1074717D01*
X0149611Y1074642D01*
X0149773Y1074564D01*
X0149933Y1074481D01*
X0150092Y1074395D01*
X0150247Y1074305D01*
X0150401Y1074211D01*
X0150552Y1074113D01*
X0150701Y1074011D01*
X0150848Y1073906D01*
X0150991Y1073798D01*
X0151132Y1073686D01*
X0151271Y1073570D01*
X0151406Y1073452D01*
X0151539Y1073330D01*
X0151668Y1073204D01*
X0151795Y1073076D01*
X0151918Y1072945D01*
X0152038Y1072810D01*
X0152154Y1072673D01*
X0152268Y1072533D01*
X0152378Y1072390D01*
X0152378Y1071996D02*
X0170882Y1055067D01*
X0171079Y1053886D02*
X0152378Y1071996D01*
X0170882Y1055067D02*
X0170997Y1054960D01*
X0171109Y1054849D01*
X0171218Y1054736D01*
X0171324Y1054621D01*
X0171427Y1054502D01*
X0171527Y1054382D01*
X0171625Y1054258D01*
X0171719Y1054133D01*
X0171810Y1054005D01*
X0171898Y1053875D01*
X0171982Y1053742D01*
X0172063Y1053608D01*
X0172141Y1053471D01*
X0172215Y1053333D01*
X0172286Y1053193D01*
X0172354Y1053051D01*
X0172418Y1052908D01*
X0172478Y1052763D01*
X0172535Y1052616D01*
X0172588Y1052468D01*
X0172637Y1052319D01*
X0172682Y1052169D01*
X0172724Y1052018D01*
X0172762Y1051865D01*
X0172796Y1051712D01*
X0172827Y1051558D01*
X0172853Y1051403D01*
X0172876Y1051248D01*
X0172895Y1051092D01*
X0172910Y1050936D01*
X0172921Y1050779D01*
X0172928Y1050622D01*
X0172931Y1050465D01*
X0172930Y1050308D01*
X0172925Y1050151D01*
X0172917Y1049994D01*
X0172904Y1049838D01*
X0172888Y1049682D01*
X0172868Y1049526D01*
X0172844Y1049371D01*
X0172816Y1049216D01*
X0172784Y1049063D01*
X0172748Y1048910D01*
X0172709Y1048758D01*
X0172666Y1048607D01*
X0172619Y1048457D01*
X0172568Y1048308D01*
X0172514Y1048161D01*
X0172456Y1048015D01*
X0172394Y1047870D01*
X0172329Y1047728D01*
X0172260Y1047586D01*
X0172260Y1047587D02*
X0119898Y0975343D01*
X0102969Y0949752D01*
X0076394Y0901917D01*
X0065961Y0871012D01*
X0060055Y0835185D01*
X0054346Y0802114D01*
X0043520Y0728492D01*
M02*
