G75*
%MOIN*%
%OFA0B0*%
%FSLAX25Y25*%
%IPPOS*%
%LPD*%
%AMOC8*
5,1,8,0,0,1.08239X$1,22.5*
%
%ADD10C,0.00394*%
D10*
X0381740Y0432232D02*
X0371504Y0468650D01*
X0370571Y0471728D01*
X0369978Y0474891D01*
X0369732Y0478098D01*
X0368748Y0522980D01*
X0368713Y0524566D01*
X0368844Y0526147D01*
X0369142Y0527705D01*
X0375441Y0553295D01*
X0388433Y0561563D01*
X0398472Y0559988D01*
X0406740Y0548571D01*
X0401622Y0527508D01*
X0400930Y0524533D01*
X0400535Y0521505D01*
X0400441Y0518453D01*
X0401031Y0486563D01*
X0401261Y0482720D01*
X0401787Y0478907D01*
X0402606Y0475146D01*
X0418354Y0414319D01*
X0410087Y0402705D01*
X0400244Y0400736D01*
X0387449Y0408217D01*
X0383709Y0424161D01*
X0381740Y0432232D01*
X0381714Y0432325D02*
X0413693Y0432325D01*
X0413591Y0432717D02*
X0381604Y0432717D01*
X0381494Y0433109D02*
X0413490Y0433109D01*
X0413388Y0433501D02*
X0381383Y0433501D01*
X0381273Y0433894D02*
X0413286Y0433894D01*
X0413185Y0434286D02*
X0381163Y0434286D01*
X0381053Y0434678D02*
X0413083Y0434678D01*
X0412982Y0435070D02*
X0380942Y0435070D01*
X0380832Y0435462D02*
X0412880Y0435462D01*
X0412779Y0435855D02*
X0380722Y0435855D01*
X0380612Y0436247D02*
X0412677Y0436247D01*
X0412576Y0436639D02*
X0380502Y0436639D01*
X0380391Y0437031D02*
X0412474Y0437031D01*
X0412373Y0437423D02*
X0380281Y0437423D01*
X0380171Y0437816D02*
X0412271Y0437816D01*
X0412169Y0438208D02*
X0380061Y0438208D01*
X0379950Y0438600D02*
X0412068Y0438600D01*
X0411966Y0438992D02*
X0379840Y0438992D01*
X0379730Y0439385D02*
X0411865Y0439385D01*
X0411763Y0439777D02*
X0379620Y0439777D01*
X0379509Y0440169D02*
X0411662Y0440169D01*
X0411560Y0440561D02*
X0379399Y0440561D01*
X0379289Y0440953D02*
X0411459Y0440953D01*
X0411357Y0441346D02*
X0379179Y0441346D01*
X0379068Y0441738D02*
X0411256Y0441738D01*
X0411154Y0442130D02*
X0378958Y0442130D01*
X0378848Y0442522D02*
X0411052Y0442522D01*
X0410951Y0442914D02*
X0378738Y0442914D01*
X0378627Y0443307D02*
X0410849Y0443307D01*
X0410748Y0443699D02*
X0378517Y0443699D01*
X0378407Y0444091D02*
X0410646Y0444091D01*
X0410545Y0444483D02*
X0378297Y0444483D01*
X0378186Y0444875D02*
X0410443Y0444875D01*
X0410342Y0445268D02*
X0378076Y0445268D01*
X0377966Y0445660D02*
X0410240Y0445660D01*
X0410139Y0446052D02*
X0377856Y0446052D01*
X0377745Y0446444D02*
X0410037Y0446444D01*
X0409936Y0446837D02*
X0377635Y0446837D01*
X0377525Y0447229D02*
X0409834Y0447229D01*
X0409732Y0447621D02*
X0377415Y0447621D01*
X0377304Y0448013D02*
X0409631Y0448013D01*
X0409529Y0448405D02*
X0377194Y0448405D01*
X0377084Y0448798D02*
X0409428Y0448798D01*
X0409326Y0449190D02*
X0376974Y0449190D01*
X0376863Y0449582D02*
X0409225Y0449582D01*
X0409123Y0449974D02*
X0376753Y0449974D01*
X0376643Y0450366D02*
X0409022Y0450366D01*
X0408920Y0450759D02*
X0376533Y0450759D01*
X0376423Y0451151D02*
X0408819Y0451151D01*
X0408717Y0451543D02*
X0376312Y0451543D01*
X0376202Y0451935D02*
X0408615Y0451935D01*
X0408514Y0452328D02*
X0376092Y0452328D01*
X0375982Y0452720D02*
X0408412Y0452720D01*
X0408311Y0453112D02*
X0375871Y0453112D01*
X0375761Y0453504D02*
X0408209Y0453504D01*
X0408108Y0453896D02*
X0375651Y0453896D01*
X0375541Y0454289D02*
X0408006Y0454289D01*
X0407905Y0454681D02*
X0375430Y0454681D01*
X0375320Y0455073D02*
X0407803Y0455073D01*
X0407702Y0455465D02*
X0375210Y0455465D01*
X0375100Y0455857D02*
X0407600Y0455857D01*
X0407498Y0456250D02*
X0374989Y0456250D01*
X0374879Y0456642D02*
X0407397Y0456642D01*
X0407295Y0457034D02*
X0374769Y0457034D01*
X0374659Y0457426D02*
X0407194Y0457426D01*
X0407092Y0457818D02*
X0374548Y0457818D01*
X0374438Y0458211D02*
X0406991Y0458211D01*
X0406889Y0458603D02*
X0374328Y0458603D01*
X0374218Y0458995D02*
X0406788Y0458995D01*
X0406686Y0459387D02*
X0374107Y0459387D01*
X0373997Y0459780D02*
X0406585Y0459780D01*
X0406483Y0460172D02*
X0373887Y0460172D01*
X0373777Y0460564D02*
X0406381Y0460564D01*
X0406280Y0460956D02*
X0373666Y0460956D01*
X0373556Y0461348D02*
X0406178Y0461348D01*
X0406077Y0461741D02*
X0373446Y0461741D01*
X0373336Y0462133D02*
X0405975Y0462133D01*
X0405874Y0462525D02*
X0373225Y0462525D01*
X0373115Y0462917D02*
X0405772Y0462917D01*
X0405671Y0463309D02*
X0373005Y0463309D01*
X0372895Y0463702D02*
X0405569Y0463702D01*
X0405468Y0464094D02*
X0372784Y0464094D01*
X0372674Y0464486D02*
X0405366Y0464486D01*
X0405265Y0464878D02*
X0372564Y0464878D01*
X0372454Y0465271D02*
X0405163Y0465271D01*
X0405061Y0465663D02*
X0372343Y0465663D01*
X0372233Y0466055D02*
X0404960Y0466055D01*
X0404858Y0466447D02*
X0372123Y0466447D01*
X0372013Y0466839D02*
X0404757Y0466839D01*
X0404655Y0467232D02*
X0371903Y0467232D01*
X0371792Y0467624D02*
X0404554Y0467624D01*
X0404452Y0468016D02*
X0371682Y0468016D01*
X0371572Y0468408D02*
X0404351Y0468408D01*
X0404249Y0468800D02*
X0371458Y0468800D01*
X0371339Y0469193D02*
X0404148Y0469193D01*
X0404046Y0469585D02*
X0371220Y0469585D01*
X0371102Y0469977D02*
X0403944Y0469977D01*
X0403843Y0470369D02*
X0370983Y0470369D01*
X0370864Y0470761D02*
X0403741Y0470761D01*
X0403640Y0471154D02*
X0370745Y0471154D01*
X0370626Y0471546D02*
X0403538Y0471546D01*
X0403437Y0471938D02*
X0370531Y0471938D01*
X0370458Y0472330D02*
X0403335Y0472330D01*
X0403234Y0472723D02*
X0370384Y0472723D01*
X0370311Y0473115D02*
X0403132Y0473115D01*
X0403031Y0473507D02*
X0370237Y0473507D01*
X0370164Y0473899D02*
X0402929Y0473899D01*
X0402827Y0474291D02*
X0370090Y0474291D01*
X0370017Y0474684D02*
X0402726Y0474684D01*
X0402624Y0475076D02*
X0369964Y0475076D01*
X0369934Y0475468D02*
X0402536Y0475468D01*
X0402451Y0475860D02*
X0369904Y0475860D01*
X0369874Y0476252D02*
X0402365Y0476252D01*
X0402280Y0476645D02*
X0369844Y0476645D01*
X0369814Y0477037D02*
X0402194Y0477037D01*
X0402109Y0477429D02*
X0369784Y0477429D01*
X0369754Y0477821D02*
X0402023Y0477821D01*
X0401938Y0478214D02*
X0369730Y0478214D01*
X0369721Y0478606D02*
X0401852Y0478606D01*
X0401774Y0478998D02*
X0369713Y0478998D01*
X0369704Y0479390D02*
X0401720Y0479390D01*
X0401666Y0479782D02*
X0369695Y0479782D01*
X0369687Y0480175D02*
X0401612Y0480175D01*
X0401558Y0480567D02*
X0369678Y0480567D01*
X0369670Y0480959D02*
X0401504Y0480959D01*
X0401449Y0481351D02*
X0369661Y0481351D01*
X0369652Y0481743D02*
X0401395Y0481743D01*
X0401341Y0482136D02*
X0369644Y0482136D01*
X0369635Y0482528D02*
X0401287Y0482528D01*
X0401249Y0482920D02*
X0369627Y0482920D01*
X0369618Y0483312D02*
X0401225Y0483312D01*
X0401202Y0483704D02*
X0369609Y0483704D01*
X0369601Y0484097D02*
X0401179Y0484097D01*
X0401155Y0484489D02*
X0369592Y0484489D01*
X0369584Y0484881D02*
X0401132Y0484881D01*
X0401108Y0485273D02*
X0369575Y0485273D01*
X0369566Y0485666D02*
X0401085Y0485666D01*
X0401062Y0486058D02*
X0369558Y0486058D01*
X0369549Y0486450D02*
X0401038Y0486450D01*
X0401026Y0486842D02*
X0369541Y0486842D01*
X0369532Y0487234D02*
X0401019Y0487234D01*
X0401012Y0487627D02*
X0369523Y0487627D01*
X0369515Y0488019D02*
X0401005Y0488019D01*
X0400997Y0488411D02*
X0369506Y0488411D01*
X0369498Y0488803D02*
X0400990Y0488803D01*
X0400983Y0489195D02*
X0369489Y0489195D01*
X0369480Y0489588D02*
X0400975Y0489588D01*
X0400968Y0489980D02*
X0369472Y0489980D01*
X0369463Y0490372D02*
X0400961Y0490372D01*
X0400954Y0490764D02*
X0369455Y0490764D01*
X0369446Y0491157D02*
X0400946Y0491157D01*
X0400939Y0491549D02*
X0369437Y0491549D01*
X0369429Y0491941D02*
X0400932Y0491941D01*
X0400925Y0492333D02*
X0369420Y0492333D01*
X0369412Y0492725D02*
X0400917Y0492725D01*
X0400910Y0493118D02*
X0369403Y0493118D01*
X0369394Y0493510D02*
X0400903Y0493510D01*
X0400896Y0493902D02*
X0369386Y0493902D01*
X0369377Y0494294D02*
X0400888Y0494294D01*
X0400881Y0494686D02*
X0369369Y0494686D01*
X0369360Y0495079D02*
X0400874Y0495079D01*
X0400867Y0495471D02*
X0369351Y0495471D01*
X0369343Y0495863D02*
X0400859Y0495863D01*
X0400852Y0496255D02*
X0369334Y0496255D01*
X0369326Y0496647D02*
X0400845Y0496647D01*
X0400837Y0497040D02*
X0369317Y0497040D01*
X0369308Y0497432D02*
X0400830Y0497432D01*
X0400823Y0497824D02*
X0369300Y0497824D01*
X0369291Y0498216D02*
X0400816Y0498216D01*
X0400808Y0498609D02*
X0369283Y0498609D01*
X0369274Y0499001D02*
X0400801Y0499001D01*
X0400794Y0499393D02*
X0369265Y0499393D01*
X0369257Y0499785D02*
X0400787Y0499785D01*
X0400779Y0500177D02*
X0369248Y0500177D01*
X0369240Y0500570D02*
X0400772Y0500570D01*
X0400765Y0500962D02*
X0369231Y0500962D01*
X0369222Y0501354D02*
X0400758Y0501354D01*
X0400750Y0501746D02*
X0369214Y0501746D01*
X0369205Y0502138D02*
X0400743Y0502138D01*
X0400736Y0502531D02*
X0369196Y0502531D01*
X0369188Y0502923D02*
X0400729Y0502923D01*
X0400721Y0503315D02*
X0369179Y0503315D01*
X0369171Y0503707D02*
X0400714Y0503707D01*
X0400707Y0504100D02*
X0369162Y0504100D01*
X0369153Y0504492D02*
X0400699Y0504492D01*
X0400692Y0504884D02*
X0369145Y0504884D01*
X0369136Y0505276D02*
X0400685Y0505276D01*
X0400678Y0505668D02*
X0369128Y0505668D01*
X0369119Y0506061D02*
X0400670Y0506061D01*
X0400663Y0506453D02*
X0369110Y0506453D01*
X0369102Y0506845D02*
X0400656Y0506845D01*
X0400649Y0507237D02*
X0369093Y0507237D01*
X0369085Y0507629D02*
X0400641Y0507629D01*
X0400634Y0508022D02*
X0369076Y0508022D01*
X0369067Y0508414D02*
X0400627Y0508414D01*
X0400620Y0508806D02*
X0369059Y0508806D01*
X0369050Y0509198D02*
X0400612Y0509198D01*
X0400605Y0509590D02*
X0369042Y0509590D01*
X0369033Y0509983D02*
X0400598Y0509983D01*
X0400591Y0510375D02*
X0369024Y0510375D01*
X0369016Y0510767D02*
X0400583Y0510767D01*
X0400576Y0511159D02*
X0369007Y0511159D01*
X0368999Y0511552D02*
X0400569Y0511552D01*
X0400561Y0511944D02*
X0368990Y0511944D01*
X0368981Y0512336D02*
X0400554Y0512336D01*
X0400547Y0512728D02*
X0368973Y0512728D01*
X0368964Y0513120D02*
X0400540Y0513120D01*
X0400532Y0513513D02*
X0368956Y0513513D01*
X0368947Y0513905D02*
X0400525Y0513905D01*
X0400518Y0514297D02*
X0368938Y0514297D01*
X0368930Y0514689D02*
X0400511Y0514689D01*
X0400503Y0515081D02*
X0368921Y0515081D01*
X0368913Y0515474D02*
X0400496Y0515474D01*
X0400489Y0515866D02*
X0368904Y0515866D01*
X0368895Y0516258D02*
X0400482Y0516258D01*
X0400474Y0516650D02*
X0368887Y0516650D01*
X0368878Y0517043D02*
X0400467Y0517043D01*
X0400460Y0517435D02*
X0368870Y0517435D01*
X0368861Y0517827D02*
X0400453Y0517827D01*
X0400445Y0518219D02*
X0368852Y0518219D01*
X0368844Y0518611D02*
X0400446Y0518611D01*
X0400458Y0519004D02*
X0368835Y0519004D01*
X0368827Y0519396D02*
X0400470Y0519396D01*
X0400482Y0519788D02*
X0368818Y0519788D01*
X0368809Y0520180D02*
X0400494Y0520180D01*
X0400506Y0520572D02*
X0368801Y0520572D01*
X0368792Y0520965D02*
X0400519Y0520965D01*
X0400531Y0521357D02*
X0368784Y0521357D01*
X0368775Y0521749D02*
X0400567Y0521749D01*
X0400618Y0522141D02*
X0368766Y0522141D01*
X0368758Y0522533D02*
X0400669Y0522533D01*
X0400721Y0522926D02*
X0368749Y0522926D01*
X0368741Y0523318D02*
X0400772Y0523318D01*
X0400823Y0523710D02*
X0368732Y0523710D01*
X0368723Y0524102D02*
X0400874Y0524102D01*
X0400925Y0524495D02*
X0368714Y0524495D01*
X0368739Y0524887D02*
X0401012Y0524887D01*
X0401104Y0525279D02*
X0368772Y0525279D01*
X0368805Y0525671D02*
X0401195Y0525671D01*
X0401286Y0526063D02*
X0368837Y0526063D01*
X0368903Y0526456D02*
X0401377Y0526456D01*
X0401469Y0526848D02*
X0368978Y0526848D01*
X0369053Y0527240D02*
X0401560Y0527240D01*
X0401652Y0527632D02*
X0369128Y0527632D01*
X0369220Y0528024D02*
X0401748Y0528024D01*
X0401843Y0528417D02*
X0369317Y0528417D01*
X0369414Y0528809D02*
X0401938Y0528809D01*
X0402033Y0529201D02*
X0369510Y0529201D01*
X0369607Y0529593D02*
X0402129Y0529593D01*
X0402224Y0529986D02*
X0369703Y0529986D01*
X0369800Y0530378D02*
X0402319Y0530378D01*
X0402415Y0530770D02*
X0369896Y0530770D01*
X0369993Y0531162D02*
X0402510Y0531162D01*
X0402605Y0531554D02*
X0370089Y0531554D01*
X0370186Y0531947D02*
X0402701Y0531947D01*
X0402796Y0532339D02*
X0370282Y0532339D01*
X0370379Y0532731D02*
X0402891Y0532731D01*
X0402987Y0533123D02*
X0370476Y0533123D01*
X0370572Y0533515D02*
X0403082Y0533515D01*
X0403177Y0533908D02*
X0370669Y0533908D01*
X0370765Y0534300D02*
X0403272Y0534300D01*
X0403368Y0534692D02*
X0370862Y0534692D01*
X0370958Y0535084D02*
X0403463Y0535084D01*
X0403558Y0535476D02*
X0371055Y0535476D01*
X0371151Y0535869D02*
X0403654Y0535869D01*
X0403749Y0536261D02*
X0371248Y0536261D01*
X0371344Y0536653D02*
X0403844Y0536653D01*
X0403940Y0537045D02*
X0371441Y0537045D01*
X0371537Y0537438D02*
X0404035Y0537438D01*
X0404130Y0537830D02*
X0371634Y0537830D01*
X0371731Y0538222D02*
X0404225Y0538222D01*
X0404321Y0538614D02*
X0371827Y0538614D01*
X0371924Y0539006D02*
X0404416Y0539006D01*
X0404511Y0539399D02*
X0372020Y0539399D01*
X0372117Y0539791D02*
X0404607Y0539791D01*
X0404702Y0540183D02*
X0372213Y0540183D01*
X0372310Y0540575D02*
X0404797Y0540575D01*
X0404893Y0540967D02*
X0372406Y0540967D01*
X0372503Y0541360D02*
X0404988Y0541360D01*
X0405083Y0541752D02*
X0372599Y0541752D01*
X0372696Y0542144D02*
X0405179Y0542144D01*
X0405274Y0542536D02*
X0372793Y0542536D01*
X0372889Y0542929D02*
X0405369Y0542929D01*
X0405464Y0543321D02*
X0372986Y0543321D01*
X0373082Y0543713D02*
X0405560Y0543713D01*
X0405655Y0544105D02*
X0373179Y0544105D01*
X0373275Y0544497D02*
X0405750Y0544497D01*
X0405846Y0544890D02*
X0373372Y0544890D01*
X0373468Y0545282D02*
X0405941Y0545282D01*
X0406036Y0545674D02*
X0373565Y0545674D01*
X0373661Y0546066D02*
X0406132Y0546066D01*
X0406227Y0546458D02*
X0373758Y0546458D01*
X0373855Y0546851D02*
X0406322Y0546851D01*
X0406417Y0547243D02*
X0373951Y0547243D01*
X0374048Y0547635D02*
X0406513Y0547635D01*
X0406608Y0548027D02*
X0374144Y0548027D01*
X0374241Y0548419D02*
X0406703Y0548419D01*
X0406566Y0548812D02*
X0374337Y0548812D01*
X0374434Y0549204D02*
X0406282Y0549204D01*
X0405998Y0549596D02*
X0374530Y0549596D01*
X0374627Y0549988D02*
X0405714Y0549988D01*
X0405430Y0550381D02*
X0374723Y0550381D01*
X0374820Y0550773D02*
X0405146Y0550773D01*
X0404862Y0551165D02*
X0374917Y0551165D01*
X0375013Y0551557D02*
X0404578Y0551557D01*
X0404294Y0551949D02*
X0375110Y0551949D01*
X0375206Y0552342D02*
X0404010Y0552342D01*
X0403726Y0552734D02*
X0375303Y0552734D01*
X0375399Y0553126D02*
X0403442Y0553126D01*
X0403158Y0553518D02*
X0375791Y0553518D01*
X0376408Y0553910D02*
X0402874Y0553910D01*
X0402590Y0554303D02*
X0377024Y0554303D01*
X0377640Y0554695D02*
X0402306Y0554695D01*
X0402022Y0555087D02*
X0378257Y0555087D01*
X0378873Y0555479D02*
X0401737Y0555479D01*
X0401453Y0555872D02*
X0379489Y0555872D01*
X0380106Y0556264D02*
X0401169Y0556264D01*
X0400885Y0556656D02*
X0380722Y0556656D01*
X0381338Y0557048D02*
X0400601Y0557048D01*
X0400317Y0557440D02*
X0381955Y0557440D01*
X0382571Y0557833D02*
X0400033Y0557833D01*
X0399749Y0558225D02*
X0383187Y0558225D01*
X0383804Y0558617D02*
X0399465Y0558617D01*
X0399181Y0559009D02*
X0384420Y0559009D01*
X0385036Y0559401D02*
X0398897Y0559401D01*
X0398613Y0559794D02*
X0385653Y0559794D01*
X0386269Y0560186D02*
X0397212Y0560186D01*
X0394712Y0560578D02*
X0386885Y0560578D01*
X0387502Y0560970D02*
X0392212Y0560970D01*
X0389711Y0561362D02*
X0388118Y0561362D01*
X0391189Y0570618D02*
X0400835Y0569240D01*
X0413236Y0577705D01*
X0417173Y0603689D01*
X0417385Y0605849D01*
X0417370Y0608020D01*
X0417370Y0608217D01*
X0416976Y0656642D01*
X0416269Y0678047D01*
X0414496Y0699390D01*
X0411661Y0720618D01*
X0411510Y0721228D01*
X0411258Y0721803D01*
X0410911Y0722326D01*
X0410480Y0722783D01*
X0380362Y0734398D01*
X0379378Y0734398D01*
X0379071Y0734363D01*
X0378780Y0734261D01*
X0378519Y0734097D01*
X0378301Y0733879D01*
X0378136Y0733618D01*
X0378035Y0733326D01*
X0378000Y0733020D01*
X0383709Y0686366D01*
X0385677Y0640697D01*
X0386068Y0624852D01*
X0385874Y0609004D01*
X0381937Y0582035D01*
X0391189Y0570618D01*
X0391061Y0570776D02*
X0403084Y0570776D01*
X0403659Y0571168D02*
X0390744Y0571168D01*
X0390426Y0571560D02*
X0404233Y0571560D01*
X0404808Y0571952D02*
X0390108Y0571952D01*
X0389790Y0572344D02*
X0405383Y0572344D01*
X0405957Y0572737D02*
X0389472Y0572737D01*
X0389154Y0573129D02*
X0406532Y0573129D01*
X0407107Y0573521D02*
X0388837Y0573521D01*
X0388519Y0573913D02*
X0407681Y0573913D01*
X0408256Y0574305D02*
X0388201Y0574305D01*
X0387883Y0574698D02*
X0408831Y0574698D01*
X0409405Y0575090D02*
X0387565Y0575090D01*
X0387247Y0575482D02*
X0409980Y0575482D01*
X0410554Y0575874D02*
X0386930Y0575874D01*
X0386612Y0576267D02*
X0411129Y0576267D01*
X0411704Y0576659D02*
X0386294Y0576659D01*
X0385976Y0577051D02*
X0412278Y0577051D01*
X0412853Y0577443D02*
X0385658Y0577443D01*
X0385340Y0577835D02*
X0413256Y0577835D01*
X0413315Y0578228D02*
X0385023Y0578228D01*
X0384705Y0578620D02*
X0413375Y0578620D01*
X0413434Y0579012D02*
X0384387Y0579012D01*
X0384069Y0579404D02*
X0413494Y0579404D01*
X0413553Y0579796D02*
X0383751Y0579796D01*
X0383434Y0580189D02*
X0413613Y0580189D01*
X0413672Y0580581D02*
X0383116Y0580581D01*
X0382798Y0580973D02*
X0413731Y0580973D01*
X0413791Y0581365D02*
X0382480Y0581365D01*
X0382162Y0581758D02*
X0413850Y0581758D01*
X0413910Y0582150D02*
X0381954Y0582150D01*
X0382011Y0582542D02*
X0413969Y0582542D01*
X0414029Y0582934D02*
X0382068Y0582934D01*
X0382125Y0583326D02*
X0414088Y0583326D01*
X0414147Y0583719D02*
X0382183Y0583719D01*
X0382240Y0584111D02*
X0414207Y0584111D01*
X0414266Y0584503D02*
X0382297Y0584503D01*
X0382354Y0584895D02*
X0414326Y0584895D01*
X0414385Y0585287D02*
X0382412Y0585287D01*
X0382469Y0585680D02*
X0414445Y0585680D01*
X0414504Y0586072D02*
X0382526Y0586072D01*
X0382584Y0586464D02*
X0414563Y0586464D01*
X0414623Y0586856D02*
X0382641Y0586856D01*
X0382698Y0587248D02*
X0414682Y0587248D01*
X0414742Y0587641D02*
X0382755Y0587641D01*
X0382813Y0588033D02*
X0414801Y0588033D01*
X0414861Y0588425D02*
X0382870Y0588425D01*
X0382927Y0588817D02*
X0414920Y0588817D01*
X0414979Y0589210D02*
X0382984Y0589210D01*
X0383042Y0589602D02*
X0415039Y0589602D01*
X0415098Y0589994D02*
X0383099Y0589994D01*
X0383156Y0590386D02*
X0415158Y0590386D01*
X0415217Y0590778D02*
X0383213Y0590778D01*
X0383271Y0591171D02*
X0415277Y0591171D01*
X0415336Y0591563D02*
X0383328Y0591563D01*
X0383385Y0591955D02*
X0415395Y0591955D01*
X0415455Y0592347D02*
X0383442Y0592347D01*
X0383500Y0592739D02*
X0415514Y0592739D01*
X0415574Y0593132D02*
X0383557Y0593132D01*
X0383614Y0593524D02*
X0415633Y0593524D01*
X0415692Y0593916D02*
X0383671Y0593916D01*
X0383729Y0594308D02*
X0415752Y0594308D01*
X0415811Y0594701D02*
X0383786Y0594701D01*
X0383843Y0595093D02*
X0415871Y0595093D01*
X0415930Y0595485D02*
X0383900Y0595485D01*
X0383958Y0595877D02*
X0415990Y0595877D01*
X0416049Y0596269D02*
X0384015Y0596269D01*
X0384072Y0596662D02*
X0416108Y0596662D01*
X0416168Y0597054D02*
X0384129Y0597054D01*
X0384187Y0597446D02*
X0416227Y0597446D01*
X0416287Y0597838D02*
X0384244Y0597838D01*
X0384301Y0598230D02*
X0416346Y0598230D01*
X0416406Y0598623D02*
X0384358Y0598623D01*
X0384416Y0599015D02*
X0416465Y0599015D01*
X0416524Y0599407D02*
X0384473Y0599407D01*
X0384530Y0599799D02*
X0416584Y0599799D01*
X0416643Y0600191D02*
X0384588Y0600191D01*
X0384645Y0600584D02*
X0416703Y0600584D01*
X0416762Y0600976D02*
X0384702Y0600976D01*
X0384759Y0601368D02*
X0416822Y0601368D01*
X0416881Y0601760D02*
X0384817Y0601760D01*
X0384874Y0602153D02*
X0416940Y0602153D01*
X0417000Y0602545D02*
X0384931Y0602545D01*
X0384988Y0602937D02*
X0417059Y0602937D01*
X0417119Y0603329D02*
X0385046Y0603329D01*
X0385103Y0603721D02*
X0417176Y0603721D01*
X0417215Y0604114D02*
X0385160Y0604114D01*
X0385217Y0604506D02*
X0417253Y0604506D01*
X0417292Y0604898D02*
X0385275Y0604898D01*
X0385332Y0605290D02*
X0417330Y0605290D01*
X0417369Y0605682D02*
X0385389Y0605682D01*
X0385446Y0606075D02*
X0417384Y0606075D01*
X0417381Y0606467D02*
X0385504Y0606467D01*
X0385561Y0606859D02*
X0417378Y0606859D01*
X0417375Y0607251D02*
X0385618Y0607251D01*
X0385675Y0607644D02*
X0417373Y0607644D01*
X0417370Y0608036D02*
X0385733Y0608036D01*
X0385790Y0608428D02*
X0417368Y0608428D01*
X0417365Y0608820D02*
X0385847Y0608820D01*
X0385877Y0609212D02*
X0417362Y0609212D01*
X0417359Y0609605D02*
X0385881Y0609605D01*
X0385886Y0609997D02*
X0417356Y0609997D01*
X0417352Y0610389D02*
X0385891Y0610389D01*
X0385896Y0610781D02*
X0417349Y0610781D01*
X0417346Y0611173D02*
X0385901Y0611173D01*
X0385905Y0611566D02*
X0417343Y0611566D01*
X0417340Y0611958D02*
X0385910Y0611958D01*
X0385915Y0612350D02*
X0417336Y0612350D01*
X0417333Y0612742D02*
X0385920Y0612742D01*
X0385924Y0613134D02*
X0417330Y0613134D01*
X0417327Y0613527D02*
X0385929Y0613527D01*
X0385934Y0613919D02*
X0417324Y0613919D01*
X0417321Y0614311D02*
X0385939Y0614311D01*
X0385944Y0614703D02*
X0417317Y0614703D01*
X0417314Y0615096D02*
X0385948Y0615096D01*
X0385953Y0615488D02*
X0417311Y0615488D01*
X0417308Y0615880D02*
X0385958Y0615880D01*
X0385963Y0616272D02*
X0417305Y0616272D01*
X0417301Y0616664D02*
X0385968Y0616664D01*
X0385972Y0617057D02*
X0417298Y0617057D01*
X0417295Y0617449D02*
X0385977Y0617449D01*
X0385982Y0617841D02*
X0417292Y0617841D01*
X0417289Y0618233D02*
X0385987Y0618233D01*
X0385992Y0618625D02*
X0417285Y0618625D01*
X0417282Y0619018D02*
X0385996Y0619018D01*
X0386001Y0619410D02*
X0417279Y0619410D01*
X0417276Y0619802D02*
X0386006Y0619802D01*
X0386011Y0620194D02*
X0417273Y0620194D01*
X0417270Y0620587D02*
X0386016Y0620587D01*
X0386020Y0620979D02*
X0417266Y0620979D01*
X0417263Y0621371D02*
X0386025Y0621371D01*
X0386030Y0621763D02*
X0417260Y0621763D01*
X0417257Y0622155D02*
X0386035Y0622155D01*
X0386040Y0622548D02*
X0417254Y0622548D01*
X0417250Y0622940D02*
X0386044Y0622940D01*
X0386049Y0623332D02*
X0417247Y0623332D01*
X0417244Y0623724D02*
X0386054Y0623724D01*
X0386059Y0624116D02*
X0417241Y0624116D01*
X0417238Y0624509D02*
X0386064Y0624509D01*
X0386067Y0624901D02*
X0417234Y0624901D01*
X0417231Y0625293D02*
X0386057Y0625293D01*
X0386047Y0625685D02*
X0417228Y0625685D01*
X0417225Y0626077D02*
X0386038Y0626077D01*
X0386028Y0626470D02*
X0417222Y0626470D01*
X0417218Y0626862D02*
X0386018Y0626862D01*
X0386009Y0627254D02*
X0417215Y0627254D01*
X0417212Y0627646D02*
X0385999Y0627646D01*
X0385989Y0628039D02*
X0417209Y0628039D01*
X0417206Y0628431D02*
X0385980Y0628431D01*
X0385970Y0628823D02*
X0417203Y0628823D01*
X0417199Y0629215D02*
X0385960Y0629215D01*
X0385951Y0629607D02*
X0417196Y0629607D01*
X0417193Y0630000D02*
X0385941Y0630000D01*
X0385931Y0630392D02*
X0417190Y0630392D01*
X0417187Y0630784D02*
X0385922Y0630784D01*
X0385912Y0631176D02*
X0417183Y0631176D01*
X0417180Y0631568D02*
X0385902Y0631568D01*
X0385893Y0631961D02*
X0417177Y0631961D01*
X0417174Y0632353D02*
X0385883Y0632353D01*
X0385873Y0632745D02*
X0417171Y0632745D01*
X0417167Y0633137D02*
X0385864Y0633137D01*
X0385854Y0633530D02*
X0417164Y0633530D01*
X0417161Y0633922D02*
X0385844Y0633922D01*
X0385834Y0634314D02*
X0417158Y0634314D01*
X0417155Y0634706D02*
X0385825Y0634706D01*
X0385815Y0635098D02*
X0417152Y0635098D01*
X0417148Y0635491D02*
X0385805Y0635491D01*
X0385796Y0635883D02*
X0417145Y0635883D01*
X0417142Y0636275D02*
X0385786Y0636275D01*
X0385777Y0636667D02*
X0417139Y0636667D01*
X0417136Y0637059D02*
X0385767Y0637059D01*
X0385757Y0637452D02*
X0417132Y0637452D01*
X0417129Y0637844D02*
X0385747Y0637844D01*
X0385738Y0638236D02*
X0417126Y0638236D01*
X0417123Y0638628D02*
X0385728Y0638628D01*
X0385718Y0639020D02*
X0417120Y0639020D01*
X0417116Y0639413D02*
X0385709Y0639413D01*
X0385699Y0639805D02*
X0417113Y0639805D01*
X0417110Y0640197D02*
X0385689Y0640197D01*
X0385680Y0640589D02*
X0417107Y0640589D01*
X0417104Y0640982D02*
X0385665Y0640982D01*
X0385648Y0641374D02*
X0417101Y0641374D01*
X0417097Y0641766D02*
X0385631Y0641766D01*
X0385614Y0642158D02*
X0417094Y0642158D01*
X0417091Y0642550D02*
X0385597Y0642550D01*
X0385580Y0642943D02*
X0417088Y0642943D01*
X0417085Y0643335D02*
X0385563Y0643335D01*
X0385547Y0643727D02*
X0417081Y0643727D01*
X0417078Y0644119D02*
X0385530Y0644119D01*
X0385513Y0644511D02*
X0417075Y0644511D01*
X0417072Y0644904D02*
X0385496Y0644904D01*
X0385479Y0645296D02*
X0417069Y0645296D01*
X0417065Y0645688D02*
X0385462Y0645688D01*
X0385445Y0646080D02*
X0417062Y0646080D01*
X0417059Y0646473D02*
X0385428Y0646473D01*
X0385411Y0646865D02*
X0417056Y0646865D01*
X0417053Y0647257D02*
X0385394Y0647257D01*
X0385377Y0647649D02*
X0417049Y0647649D01*
X0417046Y0648041D02*
X0385361Y0648041D01*
X0385344Y0648434D02*
X0417043Y0648434D01*
X0417040Y0648826D02*
X0385327Y0648826D01*
X0385310Y0649218D02*
X0417037Y0649218D01*
X0417034Y0649610D02*
X0385293Y0649610D01*
X0385276Y0650002D02*
X0417030Y0650002D01*
X0417027Y0650395D02*
X0385259Y0650395D01*
X0385242Y0650787D02*
X0417024Y0650787D01*
X0417021Y0651179D02*
X0385225Y0651179D01*
X0385208Y0651571D02*
X0417018Y0651571D01*
X0417014Y0651963D02*
X0385192Y0651963D01*
X0385175Y0652356D02*
X0417011Y0652356D01*
X0417008Y0652748D02*
X0385158Y0652748D01*
X0385141Y0653140D02*
X0417005Y0653140D01*
X0417002Y0653532D02*
X0385124Y0653532D01*
X0385107Y0653925D02*
X0416998Y0653925D01*
X0416995Y0654317D02*
X0385090Y0654317D01*
X0385073Y0654709D02*
X0416992Y0654709D01*
X0416989Y0655101D02*
X0385056Y0655101D01*
X0385039Y0655493D02*
X0416986Y0655493D01*
X0416983Y0655886D02*
X0385022Y0655886D01*
X0385006Y0656278D02*
X0416979Y0656278D01*
X0416975Y0656670D02*
X0384989Y0656670D01*
X0384972Y0657062D02*
X0416962Y0657062D01*
X0416950Y0657454D02*
X0384955Y0657454D01*
X0384938Y0657847D02*
X0416937Y0657847D01*
X0416924Y0658239D02*
X0384921Y0658239D01*
X0384904Y0658631D02*
X0416911Y0658631D01*
X0416898Y0659023D02*
X0384887Y0659023D01*
X0384870Y0659416D02*
X0416885Y0659416D01*
X0416872Y0659808D02*
X0384853Y0659808D01*
X0384837Y0660200D02*
X0416859Y0660200D01*
X0416846Y0660592D02*
X0384820Y0660592D01*
X0384803Y0660984D02*
X0416833Y0660984D01*
X0416820Y0661377D02*
X0384786Y0661377D01*
X0384769Y0661769D02*
X0416807Y0661769D01*
X0416794Y0662161D02*
X0384752Y0662161D01*
X0384735Y0662553D02*
X0416781Y0662553D01*
X0416768Y0662945D02*
X0384718Y0662945D01*
X0384701Y0663338D02*
X0416755Y0663338D01*
X0416742Y0663730D02*
X0384684Y0663730D01*
X0384667Y0664122D02*
X0416729Y0664122D01*
X0416716Y0664514D02*
X0384651Y0664514D01*
X0384634Y0664906D02*
X0416703Y0664906D01*
X0416690Y0665299D02*
X0384617Y0665299D01*
X0384600Y0665691D02*
X0416677Y0665691D01*
X0416664Y0666083D02*
X0384583Y0666083D01*
X0384566Y0666475D02*
X0416651Y0666475D01*
X0416638Y0666868D02*
X0384549Y0666868D01*
X0384532Y0667260D02*
X0416625Y0667260D01*
X0416612Y0667652D02*
X0384515Y0667652D01*
X0384498Y0668044D02*
X0416599Y0668044D01*
X0416586Y0668436D02*
X0384481Y0668436D01*
X0384465Y0668829D02*
X0416573Y0668829D01*
X0416560Y0669221D02*
X0384448Y0669221D01*
X0384431Y0669613D02*
X0416548Y0669613D01*
X0416535Y0670005D02*
X0384414Y0670005D01*
X0384397Y0670397D02*
X0416522Y0670397D01*
X0416509Y0670790D02*
X0384380Y0670790D01*
X0384363Y0671182D02*
X0416496Y0671182D01*
X0416483Y0671574D02*
X0384346Y0671574D01*
X0384329Y0671966D02*
X0416470Y0671966D01*
X0416457Y0672359D02*
X0384312Y0672359D01*
X0384296Y0672751D02*
X0416444Y0672751D01*
X0416431Y0673143D02*
X0384279Y0673143D01*
X0384262Y0673535D02*
X0416418Y0673535D01*
X0416405Y0673927D02*
X0384245Y0673927D01*
X0384228Y0674320D02*
X0416392Y0674320D01*
X0416379Y0674712D02*
X0384211Y0674712D01*
X0384194Y0675104D02*
X0416366Y0675104D01*
X0416353Y0675496D02*
X0384177Y0675496D01*
X0384160Y0675888D02*
X0416340Y0675888D01*
X0416327Y0676281D02*
X0384143Y0676281D01*
X0384126Y0676673D02*
X0416314Y0676673D01*
X0416301Y0677065D02*
X0384110Y0677065D01*
X0384093Y0677457D02*
X0416288Y0677457D01*
X0416275Y0677849D02*
X0384076Y0677849D01*
X0384059Y0678242D02*
X0416253Y0678242D01*
X0416220Y0678634D02*
X0384042Y0678634D01*
X0384025Y0679026D02*
X0416187Y0679026D01*
X0416155Y0679418D02*
X0384008Y0679418D01*
X0383991Y0679811D02*
X0416122Y0679811D01*
X0416090Y0680203D02*
X0383974Y0680203D01*
X0383957Y0680595D02*
X0416057Y0680595D01*
X0416024Y0680987D02*
X0383941Y0680987D01*
X0383924Y0681379D02*
X0415992Y0681379D01*
X0415959Y0681772D02*
X0383907Y0681772D01*
X0383890Y0682164D02*
X0415927Y0682164D01*
X0415894Y0682556D02*
X0383873Y0682556D01*
X0383856Y0682948D02*
X0415862Y0682948D01*
X0415829Y0683340D02*
X0383839Y0683340D01*
X0383822Y0683733D02*
X0415796Y0683733D01*
X0415764Y0684125D02*
X0383805Y0684125D01*
X0383788Y0684517D02*
X0415731Y0684517D01*
X0415699Y0684909D02*
X0383771Y0684909D01*
X0383755Y0685302D02*
X0415666Y0685302D01*
X0415633Y0685694D02*
X0383738Y0685694D01*
X0383721Y0686086D02*
X0415601Y0686086D01*
X0415568Y0686478D02*
X0383695Y0686478D01*
X0383647Y0686870D02*
X0415536Y0686870D01*
X0415503Y0687263D02*
X0383599Y0687263D01*
X0383551Y0687655D02*
X0415470Y0687655D01*
X0415438Y0688047D02*
X0383503Y0688047D01*
X0383455Y0688439D02*
X0415405Y0688439D01*
X0415373Y0688831D02*
X0383407Y0688831D01*
X0383359Y0689224D02*
X0415340Y0689224D01*
X0415308Y0689616D02*
X0383311Y0689616D01*
X0383263Y0690008D02*
X0415275Y0690008D01*
X0415242Y0690400D02*
X0383215Y0690400D01*
X0383167Y0690792D02*
X0415210Y0690792D01*
X0415177Y0691185D02*
X0383119Y0691185D01*
X0383071Y0691577D02*
X0415145Y0691577D01*
X0415112Y0691969D02*
X0383023Y0691969D01*
X0382975Y0692361D02*
X0415079Y0692361D01*
X0415047Y0692754D02*
X0382927Y0692754D01*
X0382879Y0693146D02*
X0415014Y0693146D01*
X0414982Y0693538D02*
X0382831Y0693538D01*
X0382783Y0693930D02*
X0414949Y0693930D01*
X0414917Y0694322D02*
X0382735Y0694322D01*
X0382687Y0694715D02*
X0414884Y0694715D01*
X0414851Y0695107D02*
X0382639Y0695107D01*
X0382591Y0695499D02*
X0414819Y0695499D01*
X0414786Y0695891D02*
X0382543Y0695891D01*
X0382495Y0696283D02*
X0414754Y0696283D01*
X0414721Y0696676D02*
X0382447Y0696676D01*
X0382399Y0697068D02*
X0414688Y0697068D01*
X0414656Y0697460D02*
X0382351Y0697460D01*
X0382303Y0697852D02*
X0414623Y0697852D01*
X0414591Y0698245D02*
X0382255Y0698245D01*
X0382207Y0698637D02*
X0414558Y0698637D01*
X0414526Y0699029D02*
X0382159Y0699029D01*
X0382111Y0699421D02*
X0414491Y0699421D01*
X0414439Y0699813D02*
X0382063Y0699813D01*
X0382015Y0700206D02*
X0414387Y0700206D01*
X0414334Y0700598D02*
X0381967Y0700598D01*
X0381919Y0700990D02*
X0414282Y0700990D01*
X0414230Y0701382D02*
X0381871Y0701382D01*
X0381823Y0701774D02*
X0414177Y0701774D01*
X0414125Y0702167D02*
X0381775Y0702167D01*
X0381727Y0702559D02*
X0414072Y0702559D01*
X0414020Y0702951D02*
X0381679Y0702951D01*
X0381631Y0703343D02*
X0413968Y0703343D01*
X0413915Y0703735D02*
X0381583Y0703735D01*
X0381535Y0704128D02*
X0413863Y0704128D01*
X0413811Y0704520D02*
X0381487Y0704520D01*
X0381439Y0704912D02*
X0413758Y0704912D01*
X0413706Y0705304D02*
X0381391Y0705304D01*
X0381343Y0705697D02*
X0413654Y0705697D01*
X0413601Y0706089D02*
X0381295Y0706089D01*
X0381247Y0706481D02*
X0413549Y0706481D01*
X0413496Y0706873D02*
X0381199Y0706873D01*
X0381151Y0707265D02*
X0413444Y0707265D01*
X0413392Y0707658D02*
X0381103Y0707658D01*
X0381055Y0708050D02*
X0413339Y0708050D01*
X0413287Y0708442D02*
X0381007Y0708442D01*
X0380959Y0708834D02*
X0413235Y0708834D01*
X0413182Y0709226D02*
X0380911Y0709226D01*
X0380863Y0709619D02*
X0413130Y0709619D01*
X0413078Y0710011D02*
X0380815Y0710011D01*
X0380767Y0710403D02*
X0413025Y0710403D01*
X0412973Y0710795D02*
X0380719Y0710795D01*
X0380671Y0711188D02*
X0412920Y0711188D01*
X0412868Y0711580D02*
X0380623Y0711580D01*
X0380575Y0711972D02*
X0412816Y0711972D01*
X0412763Y0712364D02*
X0380527Y0712364D01*
X0380479Y0712756D02*
X0412711Y0712756D01*
X0412659Y0713149D02*
X0380431Y0713149D01*
X0380384Y0713541D02*
X0412606Y0713541D01*
X0412554Y0713933D02*
X0380336Y0713933D01*
X0380288Y0714325D02*
X0412502Y0714325D01*
X0412449Y0714717D02*
X0380240Y0714717D01*
X0380192Y0715110D02*
X0412397Y0715110D01*
X0412344Y0715502D02*
X0380144Y0715502D01*
X0380096Y0715894D02*
X0412292Y0715894D01*
X0412240Y0716286D02*
X0380048Y0716286D01*
X0380000Y0716678D02*
X0412187Y0716678D01*
X0412135Y0717071D02*
X0379952Y0717071D01*
X0379904Y0717463D02*
X0412083Y0717463D01*
X0412030Y0717855D02*
X0379856Y0717855D01*
X0379808Y0718247D02*
X0411978Y0718247D01*
X0411926Y0718640D02*
X0379760Y0718640D01*
X0379712Y0719032D02*
X0411873Y0719032D01*
X0411821Y0719424D02*
X0379664Y0719424D01*
X0379616Y0719816D02*
X0411768Y0719816D01*
X0411716Y0720208D02*
X0379568Y0720208D01*
X0379520Y0720601D02*
X0411664Y0720601D01*
X0411568Y0720993D02*
X0379472Y0720993D01*
X0379424Y0721385D02*
X0411441Y0721385D01*
X0411269Y0721777D02*
X0379376Y0721777D01*
X0379328Y0722169D02*
X0411015Y0722169D01*
X0410689Y0722562D02*
X0379280Y0722562D01*
X0379232Y0722954D02*
X0410038Y0722954D01*
X0409021Y0723346D02*
X0379184Y0723346D01*
X0379136Y0723738D02*
X0408004Y0723738D01*
X0406987Y0724131D02*
X0379088Y0724131D01*
X0379040Y0724523D02*
X0405970Y0724523D01*
X0404953Y0724915D02*
X0378992Y0724915D01*
X0378944Y0725307D02*
X0403936Y0725307D01*
X0402919Y0725699D02*
X0378896Y0725699D01*
X0378848Y0726092D02*
X0401902Y0726092D01*
X0400885Y0726484D02*
X0378800Y0726484D01*
X0378752Y0726876D02*
X0399867Y0726876D01*
X0398850Y0727268D02*
X0378704Y0727268D01*
X0378656Y0727660D02*
X0397833Y0727660D01*
X0396816Y0728053D02*
X0378608Y0728053D01*
X0378560Y0728445D02*
X0395799Y0728445D01*
X0394782Y0728837D02*
X0378512Y0728837D01*
X0378464Y0729229D02*
X0393765Y0729229D01*
X0392748Y0729621D02*
X0378416Y0729621D01*
X0378368Y0730014D02*
X0391731Y0730014D01*
X0390714Y0730406D02*
X0378320Y0730406D01*
X0378272Y0730798D02*
X0389697Y0730798D01*
X0388679Y0731190D02*
X0378224Y0731190D01*
X0378176Y0731583D02*
X0387662Y0731583D01*
X0386645Y0731975D02*
X0378128Y0731975D01*
X0378080Y0732367D02*
X0385628Y0732367D01*
X0384611Y0732759D02*
X0378032Y0732759D01*
X0378015Y0733151D02*
X0383594Y0733151D01*
X0382577Y0733544D02*
X0378111Y0733544D01*
X0378358Y0733936D02*
X0381560Y0733936D01*
X0380543Y0734328D02*
X0378971Y0734328D01*
X0436350Y0734328D02*
X0442255Y0734328D01*
X0442255Y0733936D02*
X0436350Y0733936D01*
X0436350Y0733544D02*
X0442255Y0733544D01*
X0442255Y0733151D02*
X0436350Y0733151D01*
X0436350Y0732759D02*
X0442255Y0732759D01*
X0442255Y0732367D02*
X0436350Y0732367D01*
X0436350Y0731975D02*
X0442255Y0731975D01*
X0442255Y0731583D02*
X0436350Y0731583D01*
X0436350Y0731190D02*
X0442255Y0731190D01*
X0442255Y0730798D02*
X0436350Y0730798D01*
X0436350Y0730406D02*
X0442255Y0730406D01*
X0442255Y0730014D02*
X0436350Y0730014D01*
X0436350Y0729621D02*
X0442255Y0729621D01*
X0442255Y0729229D02*
X0436350Y0729229D01*
X0436350Y0728837D02*
X0442255Y0728837D01*
X0442255Y0728445D02*
X0436350Y0728445D01*
X0436350Y0728053D02*
X0442255Y0728053D01*
X0442255Y0727660D02*
X0436350Y0727660D01*
X0436350Y0727565D02*
X0436350Y0735439D01*
X0436350Y0747250D01*
X0436350Y0751187D01*
X0444224Y0751187D01*
X0448161Y0751187D01*
X0458003Y0751187D01*
X0458003Y0747250D01*
X0458003Y0741344D01*
X0442255Y0741344D01*
X0442255Y0719691D01*
X0436350Y0719691D01*
X0436350Y0723628D01*
X0436350Y0727565D01*
X0436350Y0727268D02*
X0442255Y0727268D01*
X0442255Y0726876D02*
X0436350Y0726876D01*
X0436350Y0726484D02*
X0442255Y0726484D01*
X0442255Y0726092D02*
X0436350Y0726092D01*
X0436350Y0725699D02*
X0442255Y0725699D01*
X0442255Y0725307D02*
X0436350Y0725307D01*
X0436350Y0724915D02*
X0442255Y0724915D01*
X0442255Y0724523D02*
X0436350Y0724523D01*
X0436350Y0724131D02*
X0442255Y0724131D01*
X0442255Y0723738D02*
X0436350Y0723738D01*
X0436350Y0723346D02*
X0442255Y0723346D01*
X0442255Y0722954D02*
X0436350Y0722954D01*
X0436350Y0722562D02*
X0442255Y0722562D01*
X0442255Y0722169D02*
X0436350Y0722169D01*
X0436350Y0721777D02*
X0442255Y0721777D01*
X0442255Y0721385D02*
X0436350Y0721385D01*
X0436350Y0720993D02*
X0442255Y0720993D01*
X0442255Y0720601D02*
X0436350Y0720601D01*
X0436350Y0720208D02*
X0442255Y0720208D01*
X0442255Y0719816D02*
X0436350Y0719816D01*
X0436350Y0734720D02*
X0442255Y0734720D01*
X0442255Y0735112D02*
X0436350Y0735112D01*
X0436350Y0735505D02*
X0442255Y0735505D01*
X0442255Y0735897D02*
X0436350Y0735897D01*
X0436350Y0736289D02*
X0442255Y0736289D01*
X0442255Y0736681D02*
X0436350Y0736681D01*
X0436350Y0737074D02*
X0442255Y0737074D01*
X0442255Y0737466D02*
X0436350Y0737466D01*
X0436350Y0737858D02*
X0442255Y0737858D01*
X0442255Y0738250D02*
X0436350Y0738250D01*
X0436350Y0738642D02*
X0442255Y0738642D01*
X0442255Y0739035D02*
X0436350Y0739035D01*
X0436350Y0739427D02*
X0442255Y0739427D01*
X0442255Y0739819D02*
X0436350Y0739819D01*
X0436350Y0740211D02*
X0442255Y0740211D01*
X0442255Y0740603D02*
X0436350Y0740603D01*
X0436350Y0740996D02*
X0442255Y0740996D01*
X0436350Y0741388D02*
X0458003Y0741388D01*
X0458003Y0741780D02*
X0436350Y0741780D01*
X0436350Y0742172D02*
X0458003Y0742172D01*
X0458003Y0742564D02*
X0436350Y0742564D01*
X0436350Y0742957D02*
X0458003Y0742957D01*
X0458003Y0743349D02*
X0436350Y0743349D01*
X0436350Y0743741D02*
X0458003Y0743741D01*
X0458003Y0744133D02*
X0436350Y0744133D01*
X0436350Y0744526D02*
X0458003Y0744526D01*
X0458003Y0744918D02*
X0436350Y0744918D01*
X0436350Y0745310D02*
X0458003Y0745310D01*
X0458003Y0745702D02*
X0436350Y0745702D01*
X0436350Y0746094D02*
X0458003Y0746094D01*
X0458003Y0746487D02*
X0436350Y0746487D01*
X0436350Y0746879D02*
X0458003Y0746879D01*
X0458003Y0747271D02*
X0436350Y0747271D01*
X0436350Y0747663D02*
X0458003Y0747663D01*
X0458003Y0748055D02*
X0436350Y0748055D01*
X0436350Y0748448D02*
X0458003Y0748448D01*
X0458003Y0748840D02*
X0436350Y0748840D01*
X0436350Y0749232D02*
X0458003Y0749232D01*
X0458003Y0749624D02*
X0436350Y0749624D01*
X0436350Y0750017D02*
X0458003Y0750017D01*
X0458003Y0750409D02*
X0436350Y0750409D01*
X0436350Y0750801D02*
X0458003Y0750801D01*
X0454039Y0761169D02*
X0436558Y0760914D01*
X0436559Y0770525D01*
X0453718Y0771007D01*
X0454039Y0761169D01*
X0454032Y0761391D02*
X0436558Y0761391D01*
X0436558Y0761783D02*
X0454019Y0761783D01*
X0454006Y0762175D02*
X0436558Y0762175D01*
X0436558Y0762567D02*
X0453994Y0762567D01*
X0453981Y0762960D02*
X0436558Y0762960D01*
X0436558Y0763352D02*
X0453968Y0763352D01*
X0453955Y0763744D02*
X0436558Y0763744D01*
X0436558Y0764136D02*
X0453942Y0764136D01*
X0453930Y0764528D02*
X0436558Y0764528D01*
X0436559Y0764921D02*
X0453917Y0764921D01*
X0453904Y0765313D02*
X0436559Y0765313D01*
X0436559Y0765705D02*
X0453891Y0765705D01*
X0453878Y0766097D02*
X0436559Y0766097D01*
X0436559Y0766489D02*
X0453866Y0766489D01*
X0453853Y0766882D02*
X0436559Y0766882D01*
X0436559Y0767274D02*
X0453840Y0767274D01*
X0453827Y0767666D02*
X0436559Y0767666D01*
X0436559Y0768058D02*
X0453814Y0768058D01*
X0453802Y0768450D02*
X0436559Y0768450D01*
X0436559Y0768843D02*
X0453789Y0768843D01*
X0453776Y0769235D02*
X0436559Y0769235D01*
X0436559Y0769627D02*
X0453763Y0769627D01*
X0453750Y0770019D02*
X0436559Y0770019D01*
X0436559Y0770412D02*
X0453737Y0770412D01*
X0453725Y0770804D02*
X0446491Y0770804D01*
X0442358Y0760998D02*
X0436558Y0760998D01*
X0436696Y0780404D02*
X0436375Y0790241D01*
X0453857Y0790497D01*
X0454178Y0780660D01*
X0436696Y0780404D01*
X0436690Y0780609D02*
X0450714Y0780609D01*
X0454167Y0781001D02*
X0436677Y0781001D01*
X0436664Y0781393D02*
X0454154Y0781393D01*
X0454141Y0781786D02*
X0436651Y0781786D01*
X0436638Y0782178D02*
X0454128Y0782178D01*
X0454115Y0782570D02*
X0436626Y0782570D01*
X0436613Y0782962D02*
X0454102Y0782962D01*
X0454090Y0783355D02*
X0436600Y0783355D01*
X0436587Y0783747D02*
X0454077Y0783747D01*
X0454064Y0784139D02*
X0436574Y0784139D01*
X0436562Y0784531D02*
X0454051Y0784531D01*
X0454038Y0784923D02*
X0436549Y0784923D01*
X0436536Y0785316D02*
X0454026Y0785316D01*
X0454013Y0785708D02*
X0436523Y0785708D01*
X0436510Y0786100D02*
X0454000Y0786100D01*
X0453987Y0786492D02*
X0436498Y0786492D01*
X0436485Y0786884D02*
X0453974Y0786884D01*
X0453962Y0787277D02*
X0436472Y0787277D01*
X0436459Y0787669D02*
X0453949Y0787669D01*
X0453936Y0788061D02*
X0436446Y0788061D01*
X0436434Y0788453D02*
X0453923Y0788453D01*
X0453910Y0788846D02*
X0436421Y0788846D01*
X0436408Y0789238D02*
X0453898Y0789238D01*
X0453885Y0789630D02*
X0436395Y0789630D01*
X0436382Y0790022D02*
X0453872Y0790022D01*
X0453859Y0790414D02*
X0448206Y0790414D01*
X0470165Y0790022D02*
X0501661Y0790022D01*
X0501656Y0789630D02*
X0470160Y0789630D01*
X0470155Y0789238D02*
X0501651Y0789238D01*
X0501646Y0788846D02*
X0470150Y0788846D01*
X0470145Y0788453D02*
X0501641Y0788453D01*
X0501636Y0788061D02*
X0470140Y0788061D01*
X0470135Y0787669D02*
X0501631Y0787669D01*
X0501626Y0787277D02*
X0470130Y0787277D01*
X0470126Y0786957D02*
X0470323Y0802508D01*
X0481150Y0812547D01*
X0491189Y0812547D01*
X0501819Y0802508D01*
X0501622Y0786957D01*
X0501559Y0786383D01*
X0501387Y0785833D01*
X0501113Y0785325D01*
X0500746Y0784880D01*
X0500301Y0784513D01*
X0499793Y0784239D01*
X0499243Y0784067D01*
X0498669Y0784004D01*
X0473079Y0784004D01*
X0472505Y0784067D01*
X0471955Y0784239D01*
X0471447Y0784513D01*
X0471002Y0784880D01*
X0470635Y0785325D01*
X0470361Y0785833D01*
X0470189Y0786383D01*
X0470126Y0786957D01*
X0470134Y0786884D02*
X0501614Y0786884D01*
X0501571Y0786492D02*
X0470177Y0786492D01*
X0470277Y0786100D02*
X0501471Y0786100D01*
X0501320Y0785708D02*
X0470428Y0785708D01*
X0470643Y0785316D02*
X0501105Y0785316D01*
X0500782Y0784923D02*
X0470966Y0784923D01*
X0471425Y0784531D02*
X0500323Y0784531D01*
X0499474Y0784139D02*
X0472274Y0784139D01*
X0470170Y0790414D02*
X0501666Y0790414D01*
X0501671Y0790807D02*
X0470175Y0790807D01*
X0470180Y0791199D02*
X0501676Y0791199D01*
X0501681Y0791591D02*
X0470185Y0791591D01*
X0470190Y0791983D02*
X0501686Y0791983D01*
X0501691Y0792375D02*
X0470195Y0792375D01*
X0470200Y0792768D02*
X0501696Y0792768D01*
X0501701Y0793160D02*
X0470205Y0793160D01*
X0470209Y0793552D02*
X0501706Y0793552D01*
X0501711Y0793944D02*
X0470214Y0793944D01*
X0470219Y0794336D02*
X0501715Y0794336D01*
X0501720Y0794729D02*
X0470224Y0794729D01*
X0470229Y0795121D02*
X0501725Y0795121D01*
X0501730Y0795513D02*
X0470234Y0795513D01*
X0470239Y0795905D02*
X0501735Y0795905D01*
X0501740Y0796298D02*
X0470244Y0796298D01*
X0470249Y0796690D02*
X0501745Y0796690D01*
X0501750Y0797082D02*
X0470254Y0797082D01*
X0470259Y0797474D02*
X0501755Y0797474D01*
X0501760Y0797866D02*
X0470264Y0797866D01*
X0470269Y0798259D02*
X0501765Y0798259D01*
X0501770Y0798651D02*
X0470274Y0798651D01*
X0470279Y0799043D02*
X0501775Y0799043D01*
X0501780Y0799435D02*
X0470284Y0799435D01*
X0470289Y0799827D02*
X0501785Y0799827D01*
X0501790Y0800220D02*
X0470294Y0800220D01*
X0470299Y0800612D02*
X0501795Y0800612D01*
X0501800Y0801004D02*
X0470304Y0801004D01*
X0470309Y0801396D02*
X0501805Y0801396D01*
X0501810Y0801789D02*
X0470314Y0801789D01*
X0470319Y0802181D02*
X0501815Y0802181D01*
X0501750Y0802573D02*
X0470393Y0802573D01*
X0470816Y0802965D02*
X0501335Y0802965D01*
X0500919Y0803357D02*
X0471239Y0803357D01*
X0471662Y0803750D02*
X0500504Y0803750D01*
X0500089Y0804142D02*
X0472085Y0804142D01*
X0472508Y0804534D02*
X0499674Y0804534D01*
X0499258Y0804926D02*
X0472931Y0804926D01*
X0473354Y0805318D02*
X0498843Y0805318D01*
X0498428Y0805711D02*
X0473777Y0805711D01*
X0474200Y0806103D02*
X0498012Y0806103D01*
X0497597Y0806495D02*
X0474623Y0806495D01*
X0475046Y0806887D02*
X0497182Y0806887D01*
X0496767Y0807279D02*
X0475469Y0807279D01*
X0475892Y0807672D02*
X0496351Y0807672D01*
X0495936Y0808064D02*
X0476315Y0808064D01*
X0476738Y0808456D02*
X0495521Y0808456D01*
X0495105Y0808848D02*
X0477161Y0808848D01*
X0477584Y0809241D02*
X0494690Y0809241D01*
X0494275Y0809633D02*
X0478007Y0809633D01*
X0478429Y0810025D02*
X0493860Y0810025D01*
X0493444Y0810417D02*
X0478852Y0810417D01*
X0479275Y0810809D02*
X0493029Y0810809D01*
X0492614Y0811202D02*
X0479698Y0811202D01*
X0480121Y0811594D02*
X0492198Y0811594D01*
X0491783Y0811986D02*
X0480544Y0811986D01*
X0480967Y0812378D02*
X0491368Y0812378D01*
X0491189Y0821996D02*
X0481346Y0821996D01*
X0470520Y0832035D01*
X0471110Y0895815D01*
X0471778Y0912289D01*
X0473472Y0928689D01*
X0473865Y0930574D01*
X0474521Y0932384D01*
X0475427Y0934082D01*
X0476565Y0935635D01*
X0477911Y0937011D01*
X0479440Y0938182D01*
X0481118Y0939124D01*
X0482914Y0939819D01*
X0484790Y0940252D01*
X0486708Y0940414D01*
X0488630Y0940303D01*
X0504772Y0939516D01*
X0512055Y0938531D01*
X0533512Y0934004D01*
X0549850Y0929476D01*
X0550466Y0929243D01*
X0551029Y0928900D01*
X0551520Y0928461D01*
X0551922Y0927939D01*
X0552222Y0927352D01*
X0552409Y0926720D01*
X0554181Y0914713D01*
X0548079Y0906642D01*
X0532331Y0901720D01*
X0532134Y0901720D01*
X0507331Y0907429D01*
X0506656Y0907516D01*
X0505977Y0907469D01*
X0505320Y0907289D01*
X0504712Y0906985D01*
X0504174Y0906567D01*
X0503729Y0906053D01*
X0503394Y0905461D01*
X0502016Y0832035D01*
X0491189Y0821996D01*
X0491391Y0822184D02*
X0481144Y0822184D01*
X0480721Y0822576D02*
X0491814Y0822576D01*
X0492237Y0822968D02*
X0480298Y0822968D01*
X0479875Y0823360D02*
X0492660Y0823360D01*
X0493083Y0823752D02*
X0479452Y0823752D01*
X0479029Y0824145D02*
X0493506Y0824145D01*
X0493929Y0824537D02*
X0478606Y0824537D01*
X0478183Y0824929D02*
X0494352Y0824929D01*
X0494775Y0825321D02*
X0477760Y0825321D01*
X0477338Y0825713D02*
X0495198Y0825713D01*
X0495621Y0826106D02*
X0476915Y0826106D01*
X0476492Y0826498D02*
X0496044Y0826498D01*
X0496467Y0826890D02*
X0476069Y0826890D01*
X0475646Y0827282D02*
X0496890Y0827282D01*
X0497313Y0827675D02*
X0475223Y0827675D01*
X0474800Y0828067D02*
X0497736Y0828067D01*
X0498159Y0828459D02*
X0474377Y0828459D01*
X0473954Y0828851D02*
X0498582Y0828851D01*
X0499005Y0829243D02*
X0473531Y0829243D01*
X0473108Y0829636D02*
X0499428Y0829636D01*
X0499851Y0830028D02*
X0472685Y0830028D01*
X0472262Y0830420D02*
X0500274Y0830420D01*
X0500697Y0830812D02*
X0471839Y0830812D01*
X0471416Y0831204D02*
X0501120Y0831204D01*
X0501543Y0831597D02*
X0470993Y0831597D01*
X0470570Y0831989D02*
X0501966Y0831989D01*
X0502022Y0832381D02*
X0470523Y0832381D01*
X0470527Y0832773D02*
X0502030Y0832773D01*
X0502037Y0833165D02*
X0470530Y0833165D01*
X0470534Y0833558D02*
X0502044Y0833558D01*
X0502052Y0833950D02*
X0470537Y0833950D01*
X0470541Y0834342D02*
X0502059Y0834342D01*
X0502066Y0834734D02*
X0470545Y0834734D01*
X0470548Y0835127D02*
X0502074Y0835127D01*
X0502081Y0835519D02*
X0470552Y0835519D01*
X0470556Y0835911D02*
X0502088Y0835911D01*
X0502096Y0836303D02*
X0470559Y0836303D01*
X0470563Y0836695D02*
X0502103Y0836695D01*
X0502111Y0837088D02*
X0470566Y0837088D01*
X0470570Y0837480D02*
X0502118Y0837480D01*
X0502125Y0837872D02*
X0470574Y0837872D01*
X0470577Y0838264D02*
X0502133Y0838264D01*
X0502140Y0838656D02*
X0470581Y0838656D01*
X0470585Y0839049D02*
X0502147Y0839049D01*
X0502155Y0839441D02*
X0470588Y0839441D01*
X0470592Y0839833D02*
X0502162Y0839833D01*
X0502169Y0840225D02*
X0470596Y0840225D01*
X0470599Y0840618D02*
X0502177Y0840618D01*
X0502184Y0841010D02*
X0470603Y0841010D01*
X0470606Y0841402D02*
X0502192Y0841402D01*
X0502199Y0841794D02*
X0470610Y0841794D01*
X0470614Y0842186D02*
X0502206Y0842186D01*
X0502214Y0842579D02*
X0470617Y0842579D01*
X0470621Y0842971D02*
X0502221Y0842971D01*
X0502228Y0843363D02*
X0470625Y0843363D01*
X0470628Y0843755D02*
X0502236Y0843755D01*
X0502243Y0844147D02*
X0470632Y0844147D01*
X0470635Y0844540D02*
X0502250Y0844540D01*
X0502258Y0844932D02*
X0470639Y0844932D01*
X0470643Y0845324D02*
X0502265Y0845324D01*
X0502273Y0845716D02*
X0470646Y0845716D01*
X0470650Y0846108D02*
X0502280Y0846108D01*
X0502287Y0846501D02*
X0470654Y0846501D01*
X0470657Y0846893D02*
X0502295Y0846893D01*
X0502302Y0847285D02*
X0470661Y0847285D01*
X0470665Y0847677D02*
X0502309Y0847677D01*
X0502317Y0848070D02*
X0470668Y0848070D01*
X0470672Y0848462D02*
X0502324Y0848462D01*
X0502331Y0848854D02*
X0470675Y0848854D01*
X0470679Y0849246D02*
X0502339Y0849246D01*
X0502346Y0849638D02*
X0470683Y0849638D01*
X0470686Y0850031D02*
X0502353Y0850031D01*
X0502361Y0850423D02*
X0470690Y0850423D01*
X0470694Y0850815D02*
X0502368Y0850815D01*
X0502376Y0851207D02*
X0470697Y0851207D01*
X0470701Y0851599D02*
X0502383Y0851599D01*
X0502390Y0851992D02*
X0470704Y0851992D01*
X0470708Y0852384D02*
X0502398Y0852384D01*
X0502405Y0852776D02*
X0470712Y0852776D01*
X0470715Y0853168D02*
X0502412Y0853168D01*
X0502420Y0853561D02*
X0470719Y0853561D01*
X0470723Y0853953D02*
X0502427Y0853953D01*
X0502434Y0854345D02*
X0470726Y0854345D01*
X0470730Y0854737D02*
X0502442Y0854737D01*
X0502449Y0855129D02*
X0470734Y0855129D01*
X0470737Y0855522D02*
X0502457Y0855522D01*
X0502464Y0855914D02*
X0470741Y0855914D01*
X0470744Y0856306D02*
X0502471Y0856306D01*
X0502479Y0856698D02*
X0470748Y0856698D01*
X0470752Y0857090D02*
X0502486Y0857090D01*
X0502493Y0857483D02*
X0470755Y0857483D01*
X0470759Y0857875D02*
X0502501Y0857875D01*
X0502508Y0858267D02*
X0470763Y0858267D01*
X0470766Y0858659D02*
X0502515Y0858659D01*
X0502523Y0859051D02*
X0470770Y0859051D01*
X0470773Y0859444D02*
X0502530Y0859444D01*
X0502537Y0859836D02*
X0470777Y0859836D01*
X0470781Y0860228D02*
X0502545Y0860228D01*
X0502552Y0860620D02*
X0470784Y0860620D01*
X0470788Y0861013D02*
X0502560Y0861013D01*
X0502567Y0861405D02*
X0470792Y0861405D01*
X0470795Y0861797D02*
X0502574Y0861797D01*
X0502582Y0862189D02*
X0470799Y0862189D01*
X0470803Y0862581D02*
X0502589Y0862581D01*
X0502596Y0862974D02*
X0470806Y0862974D01*
X0470810Y0863366D02*
X0502604Y0863366D01*
X0502611Y0863758D02*
X0470813Y0863758D01*
X0470817Y0864150D02*
X0502618Y0864150D01*
X0502626Y0864542D02*
X0470821Y0864542D01*
X0470824Y0864935D02*
X0502633Y0864935D01*
X0502641Y0865327D02*
X0470828Y0865327D01*
X0470832Y0865719D02*
X0502648Y0865719D01*
X0502655Y0866111D02*
X0470835Y0866111D01*
X0470839Y0866504D02*
X0502663Y0866504D01*
X0502670Y0866896D02*
X0470842Y0866896D01*
X0470846Y0867288D02*
X0502677Y0867288D01*
X0502685Y0867680D02*
X0470850Y0867680D01*
X0470853Y0868072D02*
X0502692Y0868072D01*
X0502699Y0868465D02*
X0470857Y0868465D01*
X0470861Y0868857D02*
X0502707Y0868857D01*
X0502714Y0869249D02*
X0470864Y0869249D01*
X0470868Y0869641D02*
X0502721Y0869641D01*
X0502729Y0870033D02*
X0470872Y0870033D01*
X0470875Y0870426D02*
X0502736Y0870426D01*
X0502744Y0870818D02*
X0470879Y0870818D01*
X0470882Y0871210D02*
X0502751Y0871210D01*
X0502758Y0871602D02*
X0470886Y0871602D01*
X0470890Y0871994D02*
X0502766Y0871994D01*
X0502773Y0872387D02*
X0470893Y0872387D01*
X0470897Y0872779D02*
X0502780Y0872779D01*
X0502788Y0873171D02*
X0470901Y0873171D01*
X0470904Y0873563D02*
X0502795Y0873563D01*
X0502802Y0873956D02*
X0470908Y0873956D01*
X0470911Y0874348D02*
X0502810Y0874348D01*
X0502817Y0874740D02*
X0470915Y0874740D01*
X0470919Y0875132D02*
X0502825Y0875132D01*
X0502832Y0875524D02*
X0470922Y0875524D01*
X0470926Y0875917D02*
X0502839Y0875917D01*
X0502847Y0876309D02*
X0470930Y0876309D01*
X0470933Y0876701D02*
X0502854Y0876701D01*
X0502861Y0877093D02*
X0470937Y0877093D01*
X0470941Y0877485D02*
X0502869Y0877485D01*
X0502876Y0877878D02*
X0470944Y0877878D01*
X0470948Y0878270D02*
X0502883Y0878270D01*
X0502891Y0878662D02*
X0470951Y0878662D01*
X0470955Y0879054D02*
X0502898Y0879054D01*
X0502906Y0879447D02*
X0470959Y0879447D01*
X0470962Y0879839D02*
X0502913Y0879839D01*
X0502920Y0880231D02*
X0470966Y0880231D01*
X0470970Y0880623D02*
X0502928Y0880623D01*
X0502935Y0881015D02*
X0470973Y0881015D01*
X0470977Y0881408D02*
X0502942Y0881408D01*
X0502950Y0881800D02*
X0470980Y0881800D01*
X0470984Y0882192D02*
X0502957Y0882192D01*
X0502964Y0882584D02*
X0470988Y0882584D01*
X0470991Y0882976D02*
X0502972Y0882976D01*
X0502979Y0883369D02*
X0470995Y0883369D01*
X0470999Y0883761D02*
X0502986Y0883761D01*
X0502994Y0884153D02*
X0471002Y0884153D01*
X0471006Y0884545D02*
X0503001Y0884545D01*
X0503009Y0884937D02*
X0471010Y0884937D01*
X0471013Y0885330D02*
X0503016Y0885330D01*
X0503023Y0885722D02*
X0471017Y0885722D01*
X0471020Y0886114D02*
X0503031Y0886114D01*
X0503038Y0886506D02*
X0471024Y0886506D01*
X0471028Y0886899D02*
X0503045Y0886899D01*
X0503053Y0887291D02*
X0471031Y0887291D01*
X0471035Y0887683D02*
X0503060Y0887683D01*
X0503067Y0888075D02*
X0471039Y0888075D01*
X0471042Y0888467D02*
X0503075Y0888467D01*
X0503082Y0888860D02*
X0471046Y0888860D01*
X0471049Y0889252D02*
X0503090Y0889252D01*
X0503097Y0889644D02*
X0471053Y0889644D01*
X0471057Y0890036D02*
X0503104Y0890036D01*
X0503112Y0890428D02*
X0471060Y0890428D01*
X0471064Y0890821D02*
X0503119Y0890821D01*
X0503126Y0891213D02*
X0471068Y0891213D01*
X0471071Y0891605D02*
X0503134Y0891605D01*
X0503141Y0891997D02*
X0471075Y0891997D01*
X0471079Y0892390D02*
X0503148Y0892390D01*
X0503156Y0892782D02*
X0471082Y0892782D01*
X0471086Y0893174D02*
X0503163Y0893174D01*
X0503170Y0893566D02*
X0471089Y0893566D01*
X0471093Y0893958D02*
X0503178Y0893958D01*
X0503185Y0894351D02*
X0471097Y0894351D01*
X0471100Y0894743D02*
X0503193Y0894743D01*
X0503200Y0895135D02*
X0471104Y0895135D01*
X0471108Y0895527D02*
X0503207Y0895527D01*
X0503215Y0895919D02*
X0471114Y0895919D01*
X0471130Y0896312D02*
X0503222Y0896312D01*
X0503229Y0896704D02*
X0471146Y0896704D01*
X0471162Y0897096D02*
X0503237Y0897096D01*
X0503244Y0897488D02*
X0471178Y0897488D01*
X0471194Y0897880D02*
X0503251Y0897880D01*
X0503259Y0898273D02*
X0471210Y0898273D01*
X0471226Y0898665D02*
X0503266Y0898665D01*
X0503274Y0899057D02*
X0471242Y0899057D01*
X0471257Y0899449D02*
X0503281Y0899449D01*
X0503288Y0899842D02*
X0471273Y0899842D01*
X0471289Y0900234D02*
X0503296Y0900234D01*
X0503303Y0900626D02*
X0471305Y0900626D01*
X0471321Y0901018D02*
X0503310Y0901018D01*
X0503318Y0901410D02*
X0471337Y0901410D01*
X0471353Y0901803D02*
X0503325Y0901803D01*
X0503332Y0902195D02*
X0471369Y0902195D01*
X0471385Y0902587D02*
X0503340Y0902587D01*
X0503347Y0902979D02*
X0471401Y0902979D01*
X0471416Y0903371D02*
X0503355Y0903371D01*
X0503362Y0903764D02*
X0471432Y0903764D01*
X0471448Y0904156D02*
X0503369Y0904156D01*
X0503377Y0904548D02*
X0471464Y0904548D01*
X0471480Y0904940D02*
X0503384Y0904940D01*
X0503391Y0905333D02*
X0471496Y0905333D01*
X0471512Y0905725D02*
X0503543Y0905725D01*
X0503785Y0906117D02*
X0471528Y0906117D01*
X0471544Y0906509D02*
X0504124Y0906509D01*
X0504604Y0906901D02*
X0471559Y0906901D01*
X0471575Y0907294D02*
X0505336Y0907294D01*
X0507920Y0907294D02*
X0548572Y0907294D01*
X0548868Y0907686D02*
X0471591Y0907686D01*
X0471607Y0908078D02*
X0549165Y0908078D01*
X0549461Y0908470D02*
X0471623Y0908470D01*
X0471639Y0908862D02*
X0549758Y0908862D01*
X0550054Y0909255D02*
X0471655Y0909255D01*
X0471671Y0909647D02*
X0550351Y0909647D01*
X0550647Y0910039D02*
X0471687Y0910039D01*
X0471702Y0910431D02*
X0550944Y0910431D01*
X0551241Y0910823D02*
X0471718Y0910823D01*
X0471734Y0911216D02*
X0551537Y0911216D01*
X0551834Y0911608D02*
X0471750Y0911608D01*
X0471766Y0912000D02*
X0552130Y0912000D01*
X0552427Y0912392D02*
X0471788Y0912392D01*
X0471829Y0912785D02*
X0552723Y0912785D01*
X0553020Y0913177D02*
X0471869Y0913177D01*
X0471910Y0913569D02*
X0553316Y0913569D01*
X0553613Y0913961D02*
X0471951Y0913961D01*
X0471991Y0914353D02*
X0553910Y0914353D01*
X0554176Y0914746D02*
X0472032Y0914746D01*
X0472072Y0915138D02*
X0554118Y0915138D01*
X0554060Y0915530D02*
X0472113Y0915530D01*
X0472153Y0915922D02*
X0554003Y0915922D01*
X0553945Y0916314D02*
X0472194Y0916314D01*
X0472234Y0916707D02*
X0553887Y0916707D01*
X0553829Y0917099D02*
X0472275Y0917099D01*
X0472315Y0917491D02*
X0553771Y0917491D01*
X0553713Y0917883D02*
X0472356Y0917883D01*
X0472396Y0918276D02*
X0553655Y0918276D01*
X0553598Y0918668D02*
X0472437Y0918668D01*
X0472477Y0919060D02*
X0553540Y0919060D01*
X0553482Y0919452D02*
X0472518Y0919452D01*
X0472558Y0919844D02*
X0553424Y0919844D01*
X0553366Y0920237D02*
X0472599Y0920237D01*
X0472640Y0920629D02*
X0553308Y0920629D01*
X0553250Y0921021D02*
X0472680Y0921021D01*
X0472721Y0921413D02*
X0553192Y0921413D01*
X0553135Y0921805D02*
X0472761Y0921805D01*
X0472802Y0922198D02*
X0553077Y0922198D01*
X0553019Y0922590D02*
X0472842Y0922590D01*
X0472883Y0922982D02*
X0552961Y0922982D01*
X0552903Y0923374D02*
X0472923Y0923374D01*
X0472964Y0923766D02*
X0552845Y0923766D01*
X0552787Y0924159D02*
X0473004Y0924159D01*
X0473045Y0924551D02*
X0552730Y0924551D01*
X0552672Y0924943D02*
X0473085Y0924943D01*
X0473126Y0925335D02*
X0552614Y0925335D01*
X0552556Y0925728D02*
X0473166Y0925728D01*
X0473207Y0926120D02*
X0552498Y0926120D01*
X0552440Y0926512D02*
X0473247Y0926512D01*
X0473288Y0926904D02*
X0552355Y0926904D01*
X0552239Y0927296D02*
X0473329Y0927296D01*
X0473369Y0927689D02*
X0552050Y0927689D01*
X0551813Y0928081D02*
X0473410Y0928081D01*
X0473450Y0928473D02*
X0551507Y0928473D01*
X0551069Y0928865D02*
X0473509Y0928865D01*
X0473591Y0929257D02*
X0550428Y0929257D01*
X0549225Y0929650D02*
X0473673Y0929650D01*
X0473754Y0930042D02*
X0547810Y0930042D01*
X0546394Y0930434D02*
X0473836Y0930434D01*
X0473957Y0930826D02*
X0544979Y0930826D01*
X0543564Y0931219D02*
X0474099Y0931219D01*
X0474241Y0931611D02*
X0542148Y0931611D01*
X0540733Y0932003D02*
X0474383Y0932003D01*
X0474527Y0932395D02*
X0539317Y0932395D01*
X0537902Y0932787D02*
X0474736Y0932787D01*
X0474946Y0933180D02*
X0536487Y0933180D01*
X0535071Y0933572D02*
X0475155Y0933572D01*
X0475364Y0933964D02*
X0533656Y0933964D01*
X0531842Y0934356D02*
X0475628Y0934356D01*
X0475915Y0934748D02*
X0529984Y0934748D01*
X0528125Y0935141D02*
X0476203Y0935141D01*
X0476490Y0935533D02*
X0526266Y0935533D01*
X0524407Y0935925D02*
X0476849Y0935925D01*
X0477232Y0936317D02*
X0522549Y0936317D01*
X0520690Y0936709D02*
X0477616Y0936709D01*
X0478030Y0937102D02*
X0518831Y0937102D01*
X0516972Y0937494D02*
X0478542Y0937494D01*
X0479054Y0937886D02*
X0515114Y0937886D01*
X0513255Y0938278D02*
X0479611Y0938278D01*
X0480310Y0938671D02*
X0511026Y0938671D01*
X0508124Y0939063D02*
X0481009Y0939063D01*
X0481973Y0939455D02*
X0505221Y0939455D01*
X0497977Y0939847D02*
X0483036Y0939847D01*
X0484736Y0940239D02*
X0489937Y0940239D01*
X0509624Y0906901D02*
X0548275Y0906901D01*
X0547654Y0906509D02*
X0511328Y0906509D01*
X0513032Y0906117D02*
X0546399Y0906117D01*
X0545144Y0905725D02*
X0514736Y0905725D01*
X0516440Y0905333D02*
X0543889Y0905333D01*
X0542634Y0904940D02*
X0518144Y0904940D01*
X0519848Y0904548D02*
X0541379Y0904548D01*
X0540124Y0904156D02*
X0521552Y0904156D01*
X0523257Y0903764D02*
X0538869Y0903764D01*
X0537614Y0903371D02*
X0524961Y0903371D01*
X0526665Y0902979D02*
X0536359Y0902979D01*
X0535104Y0902587D02*
X0528369Y0902587D01*
X0530073Y0902195D02*
X0533849Y0902195D01*
X0532594Y0901803D02*
X0531777Y0901803D01*
X0555756Y0900933D02*
X0555362Y0884594D01*
X0557724Y0880854D01*
X0563991Y0870201D01*
X0569572Y0859172D01*
X0574445Y0847813D01*
X0578591Y0836169D01*
X0594732Y0776327D01*
X0607724Y0769043D01*
X0617567Y0771012D01*
X0625441Y0783020D01*
X0612252Y0834594D01*
X0608006Y0849035D01*
X0602744Y0863136D01*
X0596492Y0876827D01*
X0589282Y0890039D01*
X0581150Y0902705D01*
X0575638Y0910382D01*
X0562055Y0909004D01*
X0555756Y0900933D01*
X0555822Y0901018D02*
X0582232Y0901018D01*
X0581981Y0901410D02*
X0556128Y0901410D01*
X0556435Y0901803D02*
X0581729Y0901803D01*
X0581477Y0902195D02*
X0556741Y0902195D01*
X0557047Y0902587D02*
X0581225Y0902587D01*
X0580953Y0902979D02*
X0557353Y0902979D01*
X0557659Y0903371D02*
X0580671Y0903371D01*
X0580389Y0903764D02*
X0557965Y0903764D01*
X0558271Y0904156D02*
X0580108Y0904156D01*
X0579826Y0904548D02*
X0558577Y0904548D01*
X0558883Y0904940D02*
X0579545Y0904940D01*
X0579263Y0905333D02*
X0559190Y0905333D01*
X0559496Y0905725D02*
X0578981Y0905725D01*
X0578700Y0906117D02*
X0559802Y0906117D01*
X0560108Y0906509D02*
X0578418Y0906509D01*
X0578137Y0906901D02*
X0560414Y0906901D01*
X0560720Y0907294D02*
X0577855Y0907294D01*
X0577573Y0907686D02*
X0561026Y0907686D01*
X0561332Y0908078D02*
X0577292Y0908078D01*
X0577010Y0908470D02*
X0561639Y0908470D01*
X0561945Y0908862D02*
X0576729Y0908862D01*
X0576447Y0909255D02*
X0564526Y0909255D01*
X0568392Y0909647D02*
X0576166Y0909647D01*
X0575884Y0910039D02*
X0572258Y0910039D01*
X0582484Y0900626D02*
X0555748Y0900626D01*
X0555739Y0900234D02*
X0582736Y0900234D01*
X0582988Y0899842D02*
X0555730Y0899842D01*
X0555720Y0899449D02*
X0583240Y0899449D01*
X0583492Y0899057D02*
X0555711Y0899057D01*
X0555701Y0898665D02*
X0583743Y0898665D01*
X0583995Y0898273D02*
X0555692Y0898273D01*
X0555682Y0897880D02*
X0584247Y0897880D01*
X0584499Y0897488D02*
X0555673Y0897488D01*
X0555663Y0897096D02*
X0584751Y0897096D01*
X0585003Y0896704D02*
X0555654Y0896704D01*
X0555645Y0896312D02*
X0585254Y0896312D01*
X0585506Y0895919D02*
X0555635Y0895919D01*
X0555626Y0895527D02*
X0585758Y0895527D01*
X0586010Y0895135D02*
X0555616Y0895135D01*
X0555607Y0894743D02*
X0586262Y0894743D01*
X0586513Y0894351D02*
X0555597Y0894351D01*
X0555588Y0893958D02*
X0586765Y0893958D01*
X0587017Y0893566D02*
X0555578Y0893566D01*
X0555569Y0893174D02*
X0587269Y0893174D01*
X0587521Y0892782D02*
X0555559Y0892782D01*
X0555550Y0892390D02*
X0587773Y0892390D01*
X0588024Y0891997D02*
X0555541Y0891997D01*
X0555531Y0891605D02*
X0588276Y0891605D01*
X0588528Y0891213D02*
X0555522Y0891213D01*
X0555512Y0890821D02*
X0588780Y0890821D01*
X0589032Y0890428D02*
X0555503Y0890428D01*
X0555493Y0890036D02*
X0589283Y0890036D01*
X0589497Y0889644D02*
X0555484Y0889644D01*
X0555474Y0889252D02*
X0589711Y0889252D01*
X0589925Y0888860D02*
X0555465Y0888860D01*
X0555456Y0888467D02*
X0590139Y0888467D01*
X0590354Y0888075D02*
X0555446Y0888075D01*
X0555437Y0887683D02*
X0590568Y0887683D01*
X0590782Y0887291D02*
X0555427Y0887291D01*
X0555418Y0886899D02*
X0590996Y0886899D01*
X0591210Y0886506D02*
X0555408Y0886506D01*
X0555399Y0886114D02*
X0591424Y0886114D01*
X0591638Y0885722D02*
X0555389Y0885722D01*
X0555380Y0885330D02*
X0591852Y0885330D01*
X0592066Y0884937D02*
X0555370Y0884937D01*
X0555393Y0884545D02*
X0592280Y0884545D01*
X0592494Y0884153D02*
X0555641Y0884153D01*
X0555889Y0883761D02*
X0592708Y0883761D01*
X0592922Y0883369D02*
X0556136Y0883369D01*
X0556384Y0882976D02*
X0593136Y0882976D01*
X0593350Y0882584D02*
X0556632Y0882584D01*
X0556880Y0882192D02*
X0593564Y0882192D01*
X0593778Y0881800D02*
X0557127Y0881800D01*
X0557375Y0881408D02*
X0593992Y0881408D01*
X0594206Y0881015D02*
X0557623Y0881015D01*
X0557860Y0880623D02*
X0594420Y0880623D01*
X0594634Y0880231D02*
X0558091Y0880231D01*
X0558322Y0879839D02*
X0594849Y0879839D01*
X0595063Y0879447D02*
X0558553Y0879447D01*
X0558783Y0879054D02*
X0595277Y0879054D01*
X0595491Y0878662D02*
X0559014Y0878662D01*
X0559245Y0878270D02*
X0595705Y0878270D01*
X0595919Y0877878D02*
X0559475Y0877878D01*
X0559706Y0877485D02*
X0596133Y0877485D01*
X0596347Y0877093D02*
X0559937Y0877093D01*
X0560167Y0876701D02*
X0596550Y0876701D01*
X0596729Y0876309D02*
X0560398Y0876309D01*
X0560629Y0875917D02*
X0596908Y0875917D01*
X0597087Y0875524D02*
X0560860Y0875524D01*
X0561090Y0875132D02*
X0597266Y0875132D01*
X0597445Y0874740D02*
X0561321Y0874740D01*
X0561552Y0874348D02*
X0597624Y0874348D01*
X0597803Y0873956D02*
X0561782Y0873956D01*
X0562013Y0873563D02*
X0597982Y0873563D01*
X0598162Y0873171D02*
X0562244Y0873171D01*
X0562474Y0872779D02*
X0598341Y0872779D01*
X0598520Y0872387D02*
X0562705Y0872387D01*
X0562936Y0871994D02*
X0598699Y0871994D01*
X0598878Y0871602D02*
X0563167Y0871602D01*
X0563397Y0871210D02*
X0599057Y0871210D01*
X0599236Y0870818D02*
X0563628Y0870818D01*
X0563859Y0870426D02*
X0599415Y0870426D01*
X0599594Y0870033D02*
X0564076Y0870033D01*
X0564274Y0869641D02*
X0599773Y0869641D01*
X0599953Y0869249D02*
X0564473Y0869249D01*
X0564671Y0868857D02*
X0600132Y0868857D01*
X0600311Y0868465D02*
X0564870Y0868465D01*
X0565068Y0868072D02*
X0600490Y0868072D01*
X0600669Y0867680D02*
X0565267Y0867680D01*
X0565465Y0867288D02*
X0600848Y0867288D01*
X0601027Y0866896D02*
X0565663Y0866896D01*
X0565862Y0866504D02*
X0601206Y0866504D01*
X0601385Y0866111D02*
X0566060Y0866111D01*
X0566259Y0865719D02*
X0601565Y0865719D01*
X0601744Y0865327D02*
X0566457Y0865327D01*
X0566656Y0864935D02*
X0601923Y0864935D01*
X0602102Y0864542D02*
X0566854Y0864542D01*
X0567053Y0864150D02*
X0602281Y0864150D01*
X0602460Y0863758D02*
X0567251Y0863758D01*
X0567450Y0863366D02*
X0602639Y0863366D01*
X0602805Y0862974D02*
X0567648Y0862974D01*
X0567847Y0862581D02*
X0602951Y0862581D01*
X0603097Y0862189D02*
X0568045Y0862189D01*
X0568244Y0861797D02*
X0603244Y0861797D01*
X0603390Y0861405D02*
X0568442Y0861405D01*
X0568641Y0861013D02*
X0603536Y0861013D01*
X0603683Y0860620D02*
X0568839Y0860620D01*
X0569038Y0860228D02*
X0603829Y0860228D01*
X0603976Y0859836D02*
X0569236Y0859836D01*
X0569435Y0859444D02*
X0604122Y0859444D01*
X0604268Y0859051D02*
X0569624Y0859051D01*
X0569792Y0858659D02*
X0604415Y0858659D01*
X0604561Y0858267D02*
X0569960Y0858267D01*
X0570129Y0857875D02*
X0604707Y0857875D01*
X0604854Y0857483D02*
X0570297Y0857483D01*
X0570465Y0857090D02*
X0605000Y0857090D01*
X0605146Y0856698D02*
X0570633Y0856698D01*
X0570802Y0856306D02*
X0605293Y0856306D01*
X0605439Y0855914D02*
X0570970Y0855914D01*
X0571138Y0855522D02*
X0605586Y0855522D01*
X0605732Y0855129D02*
X0571306Y0855129D01*
X0571475Y0854737D02*
X0605878Y0854737D01*
X0606025Y0854345D02*
X0571643Y0854345D01*
X0571811Y0853953D02*
X0606171Y0853953D01*
X0606317Y0853561D02*
X0571979Y0853561D01*
X0572148Y0853168D02*
X0606464Y0853168D01*
X0606610Y0852776D02*
X0572316Y0852776D01*
X0572484Y0852384D02*
X0606756Y0852384D01*
X0606903Y0851992D02*
X0572652Y0851992D01*
X0572821Y0851599D02*
X0607049Y0851599D01*
X0607196Y0851207D02*
X0572989Y0851207D01*
X0573157Y0850815D02*
X0607342Y0850815D01*
X0607488Y0850423D02*
X0573326Y0850423D01*
X0573494Y0850031D02*
X0607635Y0850031D01*
X0607781Y0849638D02*
X0573662Y0849638D01*
X0573830Y0849246D02*
X0607927Y0849246D01*
X0608059Y0848854D02*
X0573999Y0848854D01*
X0574167Y0848462D02*
X0608175Y0848462D01*
X0608290Y0848070D02*
X0574335Y0848070D01*
X0574493Y0847677D02*
X0608405Y0847677D01*
X0608521Y0847285D02*
X0574633Y0847285D01*
X0574773Y0846893D02*
X0608636Y0846893D01*
X0608751Y0846501D02*
X0574912Y0846501D01*
X0575052Y0846108D02*
X0608867Y0846108D01*
X0608982Y0845716D02*
X0575192Y0845716D01*
X0575331Y0845324D02*
X0609097Y0845324D01*
X0609213Y0844932D02*
X0575471Y0844932D01*
X0575611Y0844540D02*
X0609328Y0844540D01*
X0609443Y0844147D02*
X0575750Y0844147D01*
X0575890Y0843755D02*
X0609559Y0843755D01*
X0609674Y0843363D02*
X0576029Y0843363D01*
X0576169Y0842971D02*
X0609789Y0842971D01*
X0609904Y0842579D02*
X0576309Y0842579D01*
X0576448Y0842186D02*
X0610020Y0842186D01*
X0610135Y0841794D02*
X0576588Y0841794D01*
X0576728Y0841402D02*
X0610250Y0841402D01*
X0610366Y0841010D02*
X0576867Y0841010D01*
X0577007Y0840618D02*
X0610481Y0840618D01*
X0610596Y0840225D02*
X0577147Y0840225D01*
X0577286Y0839833D02*
X0610712Y0839833D01*
X0610827Y0839441D02*
X0577426Y0839441D01*
X0577565Y0839049D02*
X0610942Y0839049D01*
X0611058Y0838656D02*
X0577705Y0838656D01*
X0577845Y0838264D02*
X0611173Y0838264D01*
X0611288Y0837872D02*
X0577984Y0837872D01*
X0578124Y0837480D02*
X0611404Y0837480D01*
X0611519Y0837088D02*
X0578264Y0837088D01*
X0578403Y0836695D02*
X0611634Y0836695D01*
X0611750Y0836303D02*
X0578543Y0836303D01*
X0578660Y0835911D02*
X0611865Y0835911D01*
X0611980Y0835519D02*
X0578766Y0835519D01*
X0578872Y0835127D02*
X0612096Y0835127D01*
X0612211Y0834734D02*
X0578978Y0834734D01*
X0579083Y0834342D02*
X0612316Y0834342D01*
X0612417Y0833950D02*
X0579189Y0833950D01*
X0579295Y0833558D02*
X0612517Y0833558D01*
X0612617Y0833165D02*
X0579401Y0833165D01*
X0579507Y0832773D02*
X0612718Y0832773D01*
X0612818Y0832381D02*
X0579612Y0832381D01*
X0579718Y0831989D02*
X0612918Y0831989D01*
X0613019Y0831597D02*
X0579824Y0831597D01*
X0579930Y0831204D02*
X0613119Y0831204D01*
X0613219Y0830812D02*
X0580036Y0830812D01*
X0580141Y0830420D02*
X0613319Y0830420D01*
X0613420Y0830028D02*
X0580247Y0830028D01*
X0580353Y0829636D02*
X0613520Y0829636D01*
X0613620Y0829243D02*
X0580459Y0829243D01*
X0580565Y0828851D02*
X0613721Y0828851D01*
X0613821Y0828459D02*
X0580670Y0828459D01*
X0580776Y0828067D02*
X0613921Y0828067D01*
X0614022Y0827675D02*
X0580882Y0827675D01*
X0580988Y0827282D02*
X0614122Y0827282D01*
X0614222Y0826890D02*
X0581094Y0826890D01*
X0581199Y0826498D02*
X0614322Y0826498D01*
X0614423Y0826106D02*
X0581305Y0826106D01*
X0581411Y0825713D02*
X0614523Y0825713D01*
X0614623Y0825321D02*
X0581517Y0825321D01*
X0581622Y0824929D02*
X0614724Y0824929D01*
X0614824Y0824537D02*
X0581728Y0824537D01*
X0581834Y0824145D02*
X0614924Y0824145D01*
X0615025Y0823752D02*
X0581940Y0823752D01*
X0582046Y0823360D02*
X0615125Y0823360D01*
X0615225Y0822968D02*
X0582151Y0822968D01*
X0582257Y0822576D02*
X0615325Y0822576D01*
X0615426Y0822184D02*
X0582363Y0822184D01*
X0582469Y0821791D02*
X0615526Y0821791D01*
X0615626Y0821399D02*
X0582575Y0821399D01*
X0582680Y0821007D02*
X0615727Y0821007D01*
X0615827Y0820615D02*
X0582786Y0820615D01*
X0582892Y0820222D02*
X0615927Y0820222D01*
X0616028Y0819830D02*
X0582998Y0819830D01*
X0583104Y0819438D02*
X0616128Y0819438D01*
X0616228Y0819046D02*
X0583209Y0819046D01*
X0583315Y0818654D02*
X0616328Y0818654D01*
X0616429Y0818261D02*
X0583421Y0818261D01*
X0583527Y0817869D02*
X0616529Y0817869D01*
X0616629Y0817477D02*
X0583633Y0817477D01*
X0583738Y0817085D02*
X0616730Y0817085D01*
X0616830Y0816693D02*
X0583844Y0816693D01*
X0583950Y0816300D02*
X0616930Y0816300D01*
X0617031Y0815908D02*
X0584056Y0815908D01*
X0584162Y0815516D02*
X0617131Y0815516D01*
X0617231Y0815124D02*
X0584267Y0815124D01*
X0584373Y0814732D02*
X0617331Y0814732D01*
X0617432Y0814339D02*
X0584479Y0814339D01*
X0584585Y0813947D02*
X0617532Y0813947D01*
X0617632Y0813555D02*
X0584691Y0813555D01*
X0584796Y0813163D02*
X0617733Y0813163D01*
X0617833Y0812770D02*
X0584902Y0812770D01*
X0585008Y0812378D02*
X0617933Y0812378D01*
X0618034Y0811986D02*
X0585114Y0811986D01*
X0585219Y0811594D02*
X0618134Y0811594D01*
X0618234Y0811202D02*
X0585325Y0811202D01*
X0585431Y0810809D02*
X0618334Y0810809D01*
X0618435Y0810417D02*
X0585537Y0810417D01*
X0585643Y0810025D02*
X0618535Y0810025D01*
X0618635Y0809633D02*
X0585748Y0809633D01*
X0585854Y0809241D02*
X0618736Y0809241D01*
X0618836Y0808848D02*
X0585960Y0808848D01*
X0586066Y0808456D02*
X0618936Y0808456D01*
X0619037Y0808064D02*
X0586172Y0808064D01*
X0586277Y0807672D02*
X0619137Y0807672D01*
X0619237Y0807279D02*
X0586383Y0807279D01*
X0586489Y0806887D02*
X0619337Y0806887D01*
X0619438Y0806495D02*
X0586595Y0806495D01*
X0586701Y0806103D02*
X0619538Y0806103D01*
X0619638Y0805711D02*
X0586806Y0805711D01*
X0586912Y0805318D02*
X0619739Y0805318D01*
X0619839Y0804926D02*
X0587018Y0804926D01*
X0587124Y0804534D02*
X0619939Y0804534D01*
X0620039Y0804142D02*
X0587230Y0804142D01*
X0587335Y0803750D02*
X0620140Y0803750D01*
X0620240Y0803357D02*
X0587441Y0803357D01*
X0587547Y0802965D02*
X0620340Y0802965D01*
X0620441Y0802573D02*
X0587653Y0802573D01*
X0587759Y0802181D02*
X0620541Y0802181D01*
X0620641Y0801789D02*
X0587864Y0801789D01*
X0587970Y0801396D02*
X0620742Y0801396D01*
X0620842Y0801004D02*
X0588076Y0801004D01*
X0588182Y0800612D02*
X0620942Y0800612D01*
X0621042Y0800220D02*
X0588288Y0800220D01*
X0588393Y0799827D02*
X0621143Y0799827D01*
X0621243Y0799435D02*
X0588499Y0799435D01*
X0588605Y0799043D02*
X0621343Y0799043D01*
X0621444Y0798651D02*
X0588711Y0798651D01*
X0588816Y0798259D02*
X0621544Y0798259D01*
X0621644Y0797866D02*
X0588922Y0797866D01*
X0589028Y0797474D02*
X0621745Y0797474D01*
X0621845Y0797082D02*
X0589134Y0797082D01*
X0589240Y0796690D02*
X0621945Y0796690D01*
X0622045Y0796298D02*
X0589345Y0796298D01*
X0589451Y0795905D02*
X0622146Y0795905D01*
X0622246Y0795513D02*
X0589557Y0795513D01*
X0589663Y0795121D02*
X0622346Y0795121D01*
X0622447Y0794729D02*
X0589769Y0794729D01*
X0589874Y0794336D02*
X0622547Y0794336D01*
X0622647Y0793944D02*
X0589980Y0793944D01*
X0590086Y0793552D02*
X0622748Y0793552D01*
X0622848Y0793160D02*
X0590192Y0793160D01*
X0590298Y0792768D02*
X0622948Y0792768D01*
X0623048Y0792375D02*
X0590403Y0792375D01*
X0590509Y0791983D02*
X0623149Y0791983D01*
X0623249Y0791591D02*
X0590615Y0791591D01*
X0590721Y0791199D02*
X0623349Y0791199D01*
X0623450Y0790807D02*
X0590827Y0790807D01*
X0590932Y0790414D02*
X0623550Y0790414D01*
X0623650Y0790022D02*
X0591038Y0790022D01*
X0591144Y0789630D02*
X0623751Y0789630D01*
X0623851Y0789238D02*
X0591250Y0789238D01*
X0591356Y0788846D02*
X0623951Y0788846D01*
X0624051Y0788453D02*
X0591461Y0788453D01*
X0591567Y0788061D02*
X0624152Y0788061D01*
X0624252Y0787669D02*
X0591673Y0787669D01*
X0591779Y0787277D02*
X0624352Y0787277D01*
X0624453Y0786884D02*
X0591884Y0786884D01*
X0591990Y0786492D02*
X0624553Y0786492D01*
X0624653Y0786100D02*
X0592096Y0786100D01*
X0592202Y0785708D02*
X0624754Y0785708D01*
X0624854Y0785316D02*
X0592308Y0785316D01*
X0592413Y0784923D02*
X0624954Y0784923D01*
X0625054Y0784531D02*
X0592519Y0784531D01*
X0592625Y0784139D02*
X0625155Y0784139D01*
X0625255Y0783747D02*
X0592731Y0783747D01*
X0592837Y0783355D02*
X0625355Y0783355D01*
X0625403Y0782962D02*
X0592942Y0782962D01*
X0593048Y0782570D02*
X0625146Y0782570D01*
X0624889Y0782178D02*
X0593154Y0782178D01*
X0593260Y0781786D02*
X0624632Y0781786D01*
X0624375Y0781393D02*
X0593366Y0781393D01*
X0593471Y0781001D02*
X0624117Y0781001D01*
X0623860Y0780609D02*
X0593577Y0780609D01*
X0593683Y0780217D02*
X0623603Y0780217D01*
X0623346Y0779825D02*
X0593789Y0779825D01*
X0593895Y0779432D02*
X0623089Y0779432D01*
X0622831Y0779040D02*
X0594000Y0779040D01*
X0594106Y0778648D02*
X0622574Y0778648D01*
X0622317Y0778256D02*
X0594212Y0778256D01*
X0594318Y0777864D02*
X0622060Y0777864D01*
X0621803Y0777471D02*
X0594424Y0777471D01*
X0594529Y0777079D02*
X0621546Y0777079D01*
X0621288Y0776687D02*
X0594635Y0776687D01*
X0594789Y0776295D02*
X0621031Y0776295D01*
X0620774Y0775903D02*
X0595489Y0775903D01*
X0596189Y0775510D02*
X0620517Y0775510D01*
X0620260Y0775118D02*
X0596888Y0775118D01*
X0597588Y0774726D02*
X0620002Y0774726D01*
X0619745Y0774334D02*
X0598288Y0774334D01*
X0598987Y0773941D02*
X0619488Y0773941D01*
X0619231Y0773549D02*
X0599687Y0773549D01*
X0600386Y0773157D02*
X0618974Y0773157D01*
X0618716Y0772765D02*
X0601086Y0772765D01*
X0601786Y0772373D02*
X0618459Y0772373D01*
X0618202Y0771980D02*
X0602485Y0771980D01*
X0603185Y0771588D02*
X0617945Y0771588D01*
X0617688Y0771196D02*
X0603885Y0771196D01*
X0604584Y0770804D02*
X0616527Y0770804D01*
X0614566Y0770412D02*
X0605284Y0770412D01*
X0605983Y0770019D02*
X0612605Y0770019D01*
X0610643Y0769627D02*
X0606683Y0769627D01*
X0607383Y0769235D02*
X0608682Y0769235D01*
X0610042Y0759822D02*
X0622813Y0759822D01*
X0622190Y0760214D02*
X0612003Y0760214D01*
X0613964Y0760606D02*
X0621566Y0760606D01*
X0620943Y0760998D02*
X0615925Y0760998D01*
X0617886Y0761391D02*
X0620319Y0761391D01*
X0619732Y0761760D02*
X0631937Y0754083D01*
X0635087Y0736563D01*
X0649260Y0635579D01*
X0649457Y0613138D01*
X0638630Y0603098D01*
X0628787Y0603098D01*
X0617764Y0613138D01*
X0617567Y0633413D01*
X0612843Y0665500D01*
X0607921Y0704870D01*
X0601031Y0747587D01*
X0609890Y0759791D01*
X0619732Y0761760D01*
X0623437Y0759430D02*
X0609627Y0759430D01*
X0609343Y0759037D02*
X0624060Y0759037D01*
X0624684Y0758645D02*
X0609058Y0758645D01*
X0608773Y0758253D02*
X0625307Y0758253D01*
X0625931Y0757861D02*
X0608489Y0757861D01*
X0608204Y0757469D02*
X0626554Y0757469D01*
X0627178Y0757076D02*
X0607919Y0757076D01*
X0607635Y0756684D02*
X0627801Y0756684D01*
X0628425Y0756292D02*
X0607350Y0756292D01*
X0607065Y0755900D02*
X0629048Y0755900D01*
X0629672Y0755507D02*
X0606781Y0755507D01*
X0606496Y0755115D02*
X0630295Y0755115D01*
X0630919Y0754723D02*
X0606211Y0754723D01*
X0605927Y0754331D02*
X0631542Y0754331D01*
X0631963Y0753939D02*
X0605642Y0753939D01*
X0605357Y0753546D02*
X0632033Y0753546D01*
X0632104Y0753154D02*
X0605072Y0753154D01*
X0604788Y0752762D02*
X0632174Y0752762D01*
X0632245Y0752370D02*
X0604503Y0752370D01*
X0604218Y0751978D02*
X0632315Y0751978D01*
X0632386Y0751585D02*
X0603934Y0751585D01*
X0603649Y0751193D02*
X0632456Y0751193D01*
X0632527Y0750801D02*
X0603364Y0750801D01*
X0603080Y0750409D02*
X0632597Y0750409D01*
X0632668Y0750017D02*
X0602795Y0750017D01*
X0602510Y0749624D02*
X0632739Y0749624D01*
X0632809Y0749232D02*
X0602226Y0749232D01*
X0601941Y0748840D02*
X0632880Y0748840D01*
X0632950Y0748448D02*
X0601656Y0748448D01*
X0601372Y0748055D02*
X0633021Y0748055D01*
X0633091Y0747663D02*
X0601087Y0747663D01*
X0601082Y0747271D02*
X0633162Y0747271D01*
X0633232Y0746879D02*
X0601146Y0746879D01*
X0601209Y0746487D02*
X0633303Y0746487D01*
X0633373Y0746094D02*
X0601272Y0746094D01*
X0601335Y0745702D02*
X0633444Y0745702D01*
X0633514Y0745310D02*
X0601399Y0745310D01*
X0601462Y0744918D02*
X0633585Y0744918D01*
X0633655Y0744526D02*
X0601525Y0744526D01*
X0601588Y0744133D02*
X0633726Y0744133D01*
X0633796Y0743741D02*
X0601652Y0743741D01*
X0601715Y0743349D02*
X0633867Y0743349D01*
X0633937Y0742957D02*
X0601778Y0742957D01*
X0601842Y0742564D02*
X0634008Y0742564D01*
X0634078Y0742172D02*
X0601905Y0742172D01*
X0601968Y0741780D02*
X0634149Y0741780D01*
X0634219Y0741388D02*
X0602031Y0741388D01*
X0602095Y0740996D02*
X0634290Y0740996D01*
X0634360Y0740603D02*
X0602158Y0740603D01*
X0602221Y0740211D02*
X0634431Y0740211D01*
X0634501Y0739819D02*
X0602284Y0739819D01*
X0602348Y0739427D02*
X0634572Y0739427D01*
X0634642Y0739035D02*
X0602411Y0739035D01*
X0602474Y0738642D02*
X0634713Y0738642D01*
X0634783Y0738250D02*
X0602537Y0738250D01*
X0602601Y0737858D02*
X0634854Y0737858D01*
X0634924Y0737466D02*
X0602664Y0737466D01*
X0602727Y0737074D02*
X0634995Y0737074D01*
X0635065Y0736681D02*
X0602790Y0736681D01*
X0602854Y0736289D02*
X0635125Y0736289D01*
X0635180Y0735897D02*
X0602917Y0735897D01*
X0602980Y0735505D02*
X0635235Y0735505D01*
X0635290Y0735112D02*
X0603043Y0735112D01*
X0603107Y0734720D02*
X0635345Y0734720D01*
X0635400Y0734328D02*
X0603170Y0734328D01*
X0603233Y0733936D02*
X0635455Y0733936D01*
X0635510Y0733544D02*
X0603297Y0733544D01*
X0603360Y0733151D02*
X0635565Y0733151D01*
X0635620Y0732759D02*
X0603423Y0732759D01*
X0603486Y0732367D02*
X0635676Y0732367D01*
X0635731Y0731975D02*
X0603550Y0731975D01*
X0603613Y0731583D02*
X0635786Y0731583D01*
X0635841Y0731190D02*
X0603676Y0731190D01*
X0603739Y0730798D02*
X0635896Y0730798D01*
X0635951Y0730406D02*
X0603803Y0730406D01*
X0603866Y0730014D02*
X0636006Y0730014D01*
X0636061Y0729621D02*
X0603929Y0729621D01*
X0603992Y0729229D02*
X0636116Y0729229D01*
X0636171Y0728837D02*
X0604056Y0728837D01*
X0604119Y0728445D02*
X0636226Y0728445D01*
X0636281Y0728053D02*
X0604182Y0728053D01*
X0604245Y0727660D02*
X0636336Y0727660D01*
X0636391Y0727268D02*
X0604309Y0727268D01*
X0604372Y0726876D02*
X0636446Y0726876D01*
X0636501Y0726484D02*
X0604435Y0726484D01*
X0604498Y0726092D02*
X0636556Y0726092D01*
X0636611Y0725699D02*
X0604562Y0725699D01*
X0604625Y0725307D02*
X0636666Y0725307D01*
X0636721Y0724915D02*
X0604688Y0724915D01*
X0604751Y0724523D02*
X0636776Y0724523D01*
X0636832Y0724131D02*
X0604815Y0724131D01*
X0604878Y0723738D02*
X0636887Y0723738D01*
X0636942Y0723346D02*
X0604941Y0723346D01*
X0605005Y0722954D02*
X0636997Y0722954D01*
X0637052Y0722562D02*
X0605068Y0722562D01*
X0605131Y0722169D02*
X0637107Y0722169D01*
X0637162Y0721777D02*
X0605194Y0721777D01*
X0605258Y0721385D02*
X0637217Y0721385D01*
X0637272Y0720993D02*
X0605321Y0720993D01*
X0605384Y0720601D02*
X0637327Y0720601D01*
X0637382Y0720208D02*
X0605447Y0720208D01*
X0605511Y0719816D02*
X0637437Y0719816D01*
X0637492Y0719424D02*
X0605574Y0719424D01*
X0605637Y0719032D02*
X0637547Y0719032D01*
X0637602Y0718640D02*
X0605700Y0718640D01*
X0605764Y0718247D02*
X0637657Y0718247D01*
X0637712Y0717855D02*
X0605827Y0717855D01*
X0605890Y0717463D02*
X0637767Y0717463D01*
X0637822Y0717071D02*
X0605953Y0717071D01*
X0606017Y0716678D02*
X0637877Y0716678D01*
X0637932Y0716286D02*
X0606080Y0716286D01*
X0606143Y0715894D02*
X0637988Y0715894D01*
X0638043Y0715502D02*
X0606206Y0715502D01*
X0606270Y0715110D02*
X0638098Y0715110D01*
X0638153Y0714717D02*
X0606333Y0714717D01*
X0606396Y0714325D02*
X0638208Y0714325D01*
X0638263Y0713933D02*
X0606460Y0713933D01*
X0606523Y0713541D02*
X0638318Y0713541D01*
X0638373Y0713149D02*
X0606586Y0713149D01*
X0606649Y0712756D02*
X0638428Y0712756D01*
X0638483Y0712364D02*
X0606713Y0712364D01*
X0606776Y0711972D02*
X0638538Y0711972D01*
X0638593Y0711580D02*
X0606839Y0711580D01*
X0606902Y0711188D02*
X0638648Y0711188D01*
X0638703Y0710795D02*
X0606966Y0710795D01*
X0607029Y0710403D02*
X0638758Y0710403D01*
X0638813Y0710011D02*
X0607092Y0710011D01*
X0607155Y0709619D02*
X0638868Y0709619D01*
X0638923Y0709226D02*
X0607219Y0709226D01*
X0607282Y0708834D02*
X0638978Y0708834D01*
X0639033Y0708442D02*
X0607345Y0708442D01*
X0607408Y0708050D02*
X0639088Y0708050D01*
X0639144Y0707658D02*
X0607472Y0707658D01*
X0607535Y0707265D02*
X0639199Y0707265D01*
X0639254Y0706873D02*
X0607598Y0706873D01*
X0607661Y0706481D02*
X0639309Y0706481D01*
X0639364Y0706089D02*
X0607725Y0706089D01*
X0607788Y0705697D02*
X0639419Y0705697D01*
X0639474Y0705304D02*
X0607851Y0705304D01*
X0607914Y0704912D02*
X0639529Y0704912D01*
X0639584Y0704520D02*
X0607965Y0704520D01*
X0608014Y0704128D02*
X0639639Y0704128D01*
X0639694Y0703735D02*
X0608063Y0703735D01*
X0608112Y0703343D02*
X0639749Y0703343D01*
X0639804Y0702951D02*
X0608161Y0702951D01*
X0608210Y0702559D02*
X0639859Y0702559D01*
X0639914Y0702167D02*
X0608259Y0702167D01*
X0608308Y0701774D02*
X0639969Y0701774D01*
X0640024Y0701382D02*
X0608357Y0701382D01*
X0608406Y0700990D02*
X0640079Y0700990D01*
X0640134Y0700598D02*
X0608455Y0700598D01*
X0608504Y0700206D02*
X0640189Y0700206D01*
X0640244Y0699813D02*
X0608553Y0699813D01*
X0608602Y0699421D02*
X0640299Y0699421D01*
X0640355Y0699029D02*
X0608651Y0699029D01*
X0608700Y0698637D02*
X0640410Y0698637D01*
X0640465Y0698245D02*
X0608749Y0698245D01*
X0608798Y0697852D02*
X0640520Y0697852D01*
X0640575Y0697460D02*
X0608848Y0697460D01*
X0608897Y0697068D02*
X0640630Y0697068D01*
X0640685Y0696676D02*
X0608946Y0696676D01*
X0608995Y0696283D02*
X0640740Y0696283D01*
X0640795Y0695891D02*
X0609044Y0695891D01*
X0609093Y0695499D02*
X0640850Y0695499D01*
X0640905Y0695107D02*
X0609142Y0695107D01*
X0609191Y0694715D02*
X0640960Y0694715D01*
X0641015Y0694322D02*
X0609240Y0694322D01*
X0609289Y0693930D02*
X0641070Y0693930D01*
X0641125Y0693538D02*
X0609338Y0693538D01*
X0609387Y0693146D02*
X0641180Y0693146D01*
X0641235Y0692754D02*
X0609436Y0692754D01*
X0609485Y0692361D02*
X0641290Y0692361D01*
X0641345Y0691969D02*
X0609534Y0691969D01*
X0609583Y0691577D02*
X0641400Y0691577D01*
X0641455Y0691185D02*
X0609632Y0691185D01*
X0609681Y0690792D02*
X0641511Y0690792D01*
X0641566Y0690400D02*
X0609730Y0690400D01*
X0609779Y0690008D02*
X0641621Y0690008D01*
X0641676Y0689616D02*
X0609828Y0689616D01*
X0609877Y0689224D02*
X0641731Y0689224D01*
X0641786Y0688831D02*
X0609926Y0688831D01*
X0609975Y0688439D02*
X0641841Y0688439D01*
X0641896Y0688047D02*
X0610024Y0688047D01*
X0610073Y0687655D02*
X0641951Y0687655D01*
X0642006Y0687263D02*
X0610122Y0687263D01*
X0610171Y0686870D02*
X0642061Y0686870D01*
X0642116Y0686478D02*
X0610220Y0686478D01*
X0610269Y0686086D02*
X0642171Y0686086D01*
X0642226Y0685694D02*
X0610318Y0685694D01*
X0610367Y0685302D02*
X0642281Y0685302D01*
X0642336Y0684909D02*
X0610416Y0684909D01*
X0610465Y0684517D02*
X0642391Y0684517D01*
X0642446Y0684125D02*
X0610514Y0684125D01*
X0610563Y0683733D02*
X0642501Y0683733D01*
X0642556Y0683340D02*
X0610612Y0683340D01*
X0610661Y0682948D02*
X0642611Y0682948D01*
X0642667Y0682556D02*
X0610711Y0682556D01*
X0610760Y0682164D02*
X0642722Y0682164D01*
X0642777Y0681772D02*
X0610809Y0681772D01*
X0610858Y0681379D02*
X0642832Y0681379D01*
X0642887Y0680987D02*
X0610907Y0680987D01*
X0610956Y0680595D02*
X0642942Y0680595D01*
X0642997Y0680203D02*
X0611005Y0680203D01*
X0611054Y0679811D02*
X0643052Y0679811D01*
X0643107Y0679418D02*
X0611103Y0679418D01*
X0611152Y0679026D02*
X0643162Y0679026D01*
X0643217Y0678634D02*
X0611201Y0678634D01*
X0611250Y0678242D02*
X0643272Y0678242D01*
X0643327Y0677849D02*
X0611299Y0677849D01*
X0611348Y0677457D02*
X0643382Y0677457D01*
X0643437Y0677065D02*
X0611397Y0677065D01*
X0611446Y0676673D02*
X0643492Y0676673D01*
X0643547Y0676281D02*
X0611495Y0676281D01*
X0611544Y0675888D02*
X0643602Y0675888D01*
X0643657Y0675496D02*
X0611593Y0675496D01*
X0611642Y0675104D02*
X0643712Y0675104D01*
X0643767Y0674712D02*
X0611691Y0674712D01*
X0611740Y0674320D02*
X0643823Y0674320D01*
X0643878Y0673927D02*
X0611789Y0673927D01*
X0611838Y0673535D02*
X0643933Y0673535D01*
X0643988Y0673143D02*
X0611887Y0673143D01*
X0611936Y0672751D02*
X0644043Y0672751D01*
X0644098Y0672359D02*
X0611985Y0672359D01*
X0612034Y0671966D02*
X0644153Y0671966D01*
X0644208Y0671574D02*
X0612083Y0671574D01*
X0612132Y0671182D02*
X0644263Y0671182D01*
X0644318Y0670790D02*
X0612181Y0670790D01*
X0612230Y0670397D02*
X0644373Y0670397D01*
X0644428Y0670005D02*
X0612279Y0670005D01*
X0612328Y0669613D02*
X0644483Y0669613D01*
X0644538Y0669221D02*
X0612377Y0669221D01*
X0612426Y0668829D02*
X0644593Y0668829D01*
X0644648Y0668436D02*
X0612475Y0668436D01*
X0612525Y0668044D02*
X0644703Y0668044D01*
X0644758Y0667652D02*
X0612574Y0667652D01*
X0612623Y0667260D02*
X0644813Y0667260D01*
X0644868Y0666868D02*
X0612672Y0666868D01*
X0612721Y0666475D02*
X0644923Y0666475D01*
X0644979Y0666083D02*
X0612770Y0666083D01*
X0612819Y0665691D02*
X0645034Y0665691D01*
X0645089Y0665299D02*
X0612872Y0665299D01*
X0612930Y0664906D02*
X0645144Y0664906D01*
X0645199Y0664514D02*
X0612988Y0664514D01*
X0613045Y0664122D02*
X0645254Y0664122D01*
X0645309Y0663730D02*
X0613103Y0663730D01*
X0613161Y0663338D02*
X0645364Y0663338D01*
X0645419Y0662945D02*
X0613219Y0662945D01*
X0613276Y0662553D02*
X0645474Y0662553D01*
X0645529Y0662161D02*
X0613334Y0662161D01*
X0613392Y0661769D02*
X0645584Y0661769D01*
X0645639Y0661377D02*
X0613450Y0661377D01*
X0613507Y0660984D02*
X0645694Y0660984D01*
X0645749Y0660592D02*
X0613565Y0660592D01*
X0613623Y0660200D02*
X0645804Y0660200D01*
X0645859Y0659808D02*
X0613681Y0659808D01*
X0613738Y0659416D02*
X0645914Y0659416D01*
X0645969Y0659023D02*
X0613796Y0659023D01*
X0613854Y0658631D02*
X0646024Y0658631D01*
X0646079Y0658239D02*
X0613912Y0658239D01*
X0613969Y0657847D02*
X0646135Y0657847D01*
X0646190Y0657454D02*
X0614027Y0657454D01*
X0614085Y0657062D02*
X0646245Y0657062D01*
X0646300Y0656670D02*
X0614143Y0656670D01*
X0614200Y0656278D02*
X0646355Y0656278D01*
X0646410Y0655886D02*
X0614258Y0655886D01*
X0614316Y0655493D02*
X0646465Y0655493D01*
X0646520Y0655101D02*
X0614374Y0655101D01*
X0614431Y0654709D02*
X0646575Y0654709D01*
X0646630Y0654317D02*
X0614489Y0654317D01*
X0614547Y0653925D02*
X0646685Y0653925D01*
X0646740Y0653532D02*
X0614605Y0653532D01*
X0614662Y0653140D02*
X0646795Y0653140D01*
X0646850Y0652748D02*
X0614720Y0652748D01*
X0614778Y0652356D02*
X0646905Y0652356D01*
X0646960Y0651963D02*
X0614836Y0651963D01*
X0614893Y0651571D02*
X0647015Y0651571D01*
X0647070Y0651179D02*
X0614951Y0651179D01*
X0615009Y0650787D02*
X0647125Y0650787D01*
X0647180Y0650395D02*
X0615067Y0650395D01*
X0615124Y0650002D02*
X0647235Y0650002D01*
X0647291Y0649610D02*
X0615182Y0649610D01*
X0615240Y0649218D02*
X0647346Y0649218D01*
X0647401Y0648826D02*
X0615298Y0648826D01*
X0615355Y0648434D02*
X0647456Y0648434D01*
X0647511Y0648041D02*
X0615413Y0648041D01*
X0615471Y0647649D02*
X0647566Y0647649D01*
X0647621Y0647257D02*
X0615529Y0647257D01*
X0615586Y0646865D02*
X0647676Y0646865D01*
X0647731Y0646473D02*
X0615644Y0646473D01*
X0615702Y0646080D02*
X0647786Y0646080D01*
X0647841Y0645688D02*
X0615760Y0645688D01*
X0615817Y0645296D02*
X0647896Y0645296D01*
X0647951Y0644904D02*
X0615875Y0644904D01*
X0615933Y0644511D02*
X0648006Y0644511D01*
X0648061Y0644119D02*
X0615991Y0644119D01*
X0616048Y0643727D02*
X0648116Y0643727D01*
X0648171Y0643335D02*
X0616106Y0643335D01*
X0616164Y0642943D02*
X0648226Y0642943D01*
X0648281Y0642550D02*
X0616222Y0642550D01*
X0616279Y0642158D02*
X0648336Y0642158D01*
X0648391Y0641766D02*
X0616337Y0641766D01*
X0616395Y0641374D02*
X0648447Y0641374D01*
X0648502Y0640982D02*
X0616453Y0640982D01*
X0616510Y0640589D02*
X0648557Y0640589D01*
X0648612Y0640197D02*
X0616568Y0640197D01*
X0616626Y0639805D02*
X0648667Y0639805D01*
X0648722Y0639413D02*
X0616684Y0639413D01*
X0616741Y0639020D02*
X0648777Y0639020D01*
X0648832Y0638628D02*
X0616799Y0638628D01*
X0616857Y0638236D02*
X0648887Y0638236D01*
X0648942Y0637844D02*
X0616915Y0637844D01*
X0616972Y0637452D02*
X0648997Y0637452D01*
X0649052Y0637059D02*
X0617030Y0637059D01*
X0617088Y0636667D02*
X0649107Y0636667D01*
X0649162Y0636275D02*
X0617146Y0636275D01*
X0617203Y0635883D02*
X0649217Y0635883D01*
X0649261Y0635491D02*
X0617261Y0635491D01*
X0617319Y0635098D02*
X0649264Y0635098D01*
X0649267Y0634706D02*
X0617377Y0634706D01*
X0617434Y0634314D02*
X0649271Y0634314D01*
X0649274Y0633922D02*
X0617492Y0633922D01*
X0617550Y0633530D02*
X0649278Y0633530D01*
X0649281Y0633137D02*
X0617570Y0633137D01*
X0617573Y0632745D02*
X0649285Y0632745D01*
X0649288Y0632353D02*
X0617577Y0632353D01*
X0617581Y0631961D02*
X0649292Y0631961D01*
X0649295Y0631568D02*
X0617585Y0631568D01*
X0617589Y0631176D02*
X0649298Y0631176D01*
X0649302Y0630784D02*
X0617592Y0630784D01*
X0617596Y0630392D02*
X0649305Y0630392D01*
X0649309Y0630000D02*
X0617600Y0630000D01*
X0617604Y0629607D02*
X0649312Y0629607D01*
X0649316Y0629215D02*
X0617608Y0629215D01*
X0617612Y0628823D02*
X0649319Y0628823D01*
X0649323Y0628431D02*
X0617615Y0628431D01*
X0617619Y0628039D02*
X0649326Y0628039D01*
X0649329Y0627646D02*
X0617623Y0627646D01*
X0617627Y0627254D02*
X0649333Y0627254D01*
X0649336Y0626862D02*
X0617631Y0626862D01*
X0617634Y0626470D02*
X0649340Y0626470D01*
X0649343Y0626077D02*
X0617638Y0626077D01*
X0617642Y0625685D02*
X0649347Y0625685D01*
X0649350Y0625293D02*
X0617646Y0625293D01*
X0617650Y0624901D02*
X0649354Y0624901D01*
X0649357Y0624509D02*
X0617653Y0624509D01*
X0617657Y0624116D02*
X0649360Y0624116D01*
X0649364Y0623724D02*
X0617661Y0623724D01*
X0617665Y0623332D02*
X0649367Y0623332D01*
X0649371Y0622940D02*
X0617669Y0622940D01*
X0617672Y0622548D02*
X0649374Y0622548D01*
X0649378Y0622155D02*
X0617676Y0622155D01*
X0617680Y0621763D02*
X0649381Y0621763D01*
X0649384Y0621371D02*
X0617684Y0621371D01*
X0617688Y0620979D02*
X0649388Y0620979D01*
X0649391Y0620587D02*
X0617691Y0620587D01*
X0617695Y0620194D02*
X0649395Y0620194D01*
X0649398Y0619802D02*
X0617699Y0619802D01*
X0617703Y0619410D02*
X0649402Y0619410D01*
X0649405Y0619018D02*
X0617707Y0619018D01*
X0617711Y0618625D02*
X0649409Y0618625D01*
X0649412Y0618233D02*
X0617714Y0618233D01*
X0617718Y0617841D02*
X0649415Y0617841D01*
X0649419Y0617449D02*
X0617722Y0617449D01*
X0617726Y0617057D02*
X0649422Y0617057D01*
X0649426Y0616664D02*
X0617730Y0616664D01*
X0617733Y0616272D02*
X0649429Y0616272D01*
X0649433Y0615880D02*
X0617737Y0615880D01*
X0617741Y0615488D02*
X0649436Y0615488D01*
X0649440Y0615096D02*
X0617745Y0615096D01*
X0617749Y0614703D02*
X0649443Y0614703D01*
X0649446Y0614311D02*
X0617752Y0614311D01*
X0617756Y0613919D02*
X0649450Y0613919D01*
X0649453Y0613527D02*
X0617760Y0613527D01*
X0617767Y0613134D02*
X0649453Y0613134D01*
X0649030Y0612742D02*
X0618198Y0612742D01*
X0618629Y0612350D02*
X0648607Y0612350D01*
X0648184Y0611958D02*
X0619059Y0611958D01*
X0619490Y0611566D02*
X0647761Y0611566D01*
X0647338Y0611173D02*
X0619921Y0611173D01*
X0620351Y0610781D02*
X0646915Y0610781D01*
X0646492Y0610389D02*
X0620782Y0610389D01*
X0621213Y0609997D02*
X0646069Y0609997D01*
X0645646Y0609605D02*
X0621643Y0609605D01*
X0622074Y0609212D02*
X0645223Y0609212D01*
X0644800Y0608820D02*
X0622505Y0608820D01*
X0622935Y0608428D02*
X0644377Y0608428D01*
X0643954Y0608036D02*
X0623366Y0608036D01*
X0623797Y0607644D02*
X0643531Y0607644D01*
X0643109Y0607251D02*
X0624227Y0607251D01*
X0624658Y0606859D02*
X0642686Y0606859D01*
X0642263Y0606467D02*
X0625089Y0606467D01*
X0625519Y0606075D02*
X0641840Y0606075D01*
X0641417Y0605682D02*
X0625950Y0605682D01*
X0626381Y0605290D02*
X0640994Y0605290D01*
X0640571Y0604898D02*
X0626811Y0604898D01*
X0627242Y0604506D02*
X0640148Y0604506D01*
X0639725Y0604114D02*
X0627673Y0604114D01*
X0628103Y0603721D02*
X0639302Y0603721D01*
X0638879Y0603329D02*
X0628534Y0603329D01*
X0628984Y0593650D02*
X0638827Y0593650D01*
X0649850Y0583610D01*
X0652213Y0443453D01*
X0641386Y0433413D01*
X0631543Y0433413D01*
X0620520Y0443453D01*
X0618354Y0583610D01*
X0628984Y0593650D01*
X0628851Y0593524D02*
X0638965Y0593524D01*
X0639395Y0593132D02*
X0628436Y0593132D01*
X0628021Y0592739D02*
X0639826Y0592739D01*
X0640257Y0592347D02*
X0627605Y0592347D01*
X0627190Y0591955D02*
X0640687Y0591955D01*
X0641118Y0591563D02*
X0626775Y0591563D01*
X0626359Y0591171D02*
X0641549Y0591171D01*
X0641979Y0590778D02*
X0625944Y0590778D01*
X0625529Y0590386D02*
X0642410Y0590386D01*
X0642841Y0589994D02*
X0625114Y0589994D01*
X0624698Y0589602D02*
X0643271Y0589602D01*
X0643702Y0589210D02*
X0624283Y0589210D01*
X0623868Y0588817D02*
X0644133Y0588817D01*
X0644563Y0588425D02*
X0623452Y0588425D01*
X0623037Y0588033D02*
X0644994Y0588033D01*
X0645425Y0587641D02*
X0622622Y0587641D01*
X0622207Y0587248D02*
X0645855Y0587248D01*
X0646286Y0586856D02*
X0621791Y0586856D01*
X0621376Y0586464D02*
X0646717Y0586464D01*
X0647147Y0586072D02*
X0620961Y0586072D01*
X0620545Y0585680D02*
X0647578Y0585680D01*
X0648009Y0585287D02*
X0620130Y0585287D01*
X0619715Y0584895D02*
X0648439Y0584895D01*
X0648870Y0584503D02*
X0619300Y0584503D01*
X0618884Y0584111D02*
X0649301Y0584111D01*
X0649731Y0583719D02*
X0618469Y0583719D01*
X0618359Y0583326D02*
X0649855Y0583326D01*
X0649862Y0582934D02*
X0618365Y0582934D01*
X0618371Y0582542D02*
X0649868Y0582542D01*
X0649875Y0582150D02*
X0618377Y0582150D01*
X0618383Y0581758D02*
X0649882Y0581758D01*
X0649888Y0581365D02*
X0618389Y0581365D01*
X0618395Y0580973D02*
X0649895Y0580973D01*
X0649901Y0580581D02*
X0618401Y0580581D01*
X0618407Y0580189D02*
X0649908Y0580189D01*
X0649915Y0579796D02*
X0618413Y0579796D01*
X0618419Y0579404D02*
X0649921Y0579404D01*
X0649928Y0579012D02*
X0618425Y0579012D01*
X0618431Y0578620D02*
X0649934Y0578620D01*
X0649941Y0578228D02*
X0618438Y0578228D01*
X0618444Y0577835D02*
X0649948Y0577835D01*
X0649954Y0577443D02*
X0618450Y0577443D01*
X0618456Y0577051D02*
X0649961Y0577051D01*
X0649968Y0576659D02*
X0618462Y0576659D01*
X0618468Y0576267D02*
X0649974Y0576267D01*
X0649981Y0575874D02*
X0618474Y0575874D01*
X0618480Y0575482D02*
X0649987Y0575482D01*
X0649994Y0575090D02*
X0618486Y0575090D01*
X0618492Y0574698D02*
X0650001Y0574698D01*
X0650007Y0574305D02*
X0618498Y0574305D01*
X0618504Y0573913D02*
X0650014Y0573913D01*
X0650020Y0573521D02*
X0618510Y0573521D01*
X0618516Y0573129D02*
X0650027Y0573129D01*
X0650034Y0572737D02*
X0618522Y0572737D01*
X0618528Y0572344D02*
X0650040Y0572344D01*
X0650047Y0571952D02*
X0618534Y0571952D01*
X0618541Y0571560D02*
X0650053Y0571560D01*
X0650060Y0571168D02*
X0618547Y0571168D01*
X0618553Y0570776D02*
X0650067Y0570776D01*
X0650073Y0570383D02*
X0618559Y0570383D01*
X0618565Y0569991D02*
X0650080Y0569991D01*
X0650087Y0569599D02*
X0618571Y0569599D01*
X0618577Y0569207D02*
X0650093Y0569207D01*
X0650100Y0568815D02*
X0618583Y0568815D01*
X0618589Y0568422D02*
X0650106Y0568422D01*
X0650113Y0568030D02*
X0618595Y0568030D01*
X0618601Y0567638D02*
X0650120Y0567638D01*
X0650126Y0567246D02*
X0618607Y0567246D01*
X0618613Y0566853D02*
X0650133Y0566853D01*
X0650139Y0566461D02*
X0618619Y0566461D01*
X0618625Y0566069D02*
X0650146Y0566069D01*
X0650153Y0565677D02*
X0618631Y0565677D01*
X0618637Y0565285D02*
X0650159Y0565285D01*
X0650166Y0564892D02*
X0618644Y0564892D01*
X0618650Y0564500D02*
X0650172Y0564500D01*
X0650179Y0564108D02*
X0618656Y0564108D01*
X0618662Y0563716D02*
X0650186Y0563716D01*
X0650192Y0563324D02*
X0618668Y0563324D01*
X0618674Y0562931D02*
X0650199Y0562931D01*
X0650206Y0562539D02*
X0618680Y0562539D01*
X0618686Y0562147D02*
X0650212Y0562147D01*
X0650219Y0561755D02*
X0618692Y0561755D01*
X0618698Y0561362D02*
X0650225Y0561362D01*
X0650232Y0560970D02*
X0618704Y0560970D01*
X0618710Y0560578D02*
X0650239Y0560578D01*
X0650245Y0560186D02*
X0618716Y0560186D01*
X0618722Y0559794D02*
X0650252Y0559794D01*
X0650258Y0559401D02*
X0618728Y0559401D01*
X0618734Y0559009D02*
X0650265Y0559009D01*
X0650272Y0558617D02*
X0618740Y0558617D01*
X0618747Y0558225D02*
X0650278Y0558225D01*
X0650285Y0557833D02*
X0618753Y0557833D01*
X0618759Y0557440D02*
X0650291Y0557440D01*
X0650298Y0557048D02*
X0618765Y0557048D01*
X0618771Y0556656D02*
X0650305Y0556656D01*
X0650311Y0556264D02*
X0618777Y0556264D01*
X0618783Y0555872D02*
X0650318Y0555872D01*
X0650325Y0555479D02*
X0618789Y0555479D01*
X0618795Y0555087D02*
X0650331Y0555087D01*
X0650338Y0554695D02*
X0618801Y0554695D01*
X0618807Y0554303D02*
X0650344Y0554303D01*
X0650351Y0553910D02*
X0618813Y0553910D01*
X0618819Y0553518D02*
X0650358Y0553518D01*
X0650364Y0553126D02*
X0618825Y0553126D01*
X0618831Y0552734D02*
X0650371Y0552734D01*
X0650377Y0552342D02*
X0618837Y0552342D01*
X0618843Y0551949D02*
X0650384Y0551949D01*
X0650391Y0551557D02*
X0618850Y0551557D01*
X0618856Y0551165D02*
X0650397Y0551165D01*
X0650404Y0550773D02*
X0618862Y0550773D01*
X0618868Y0550381D02*
X0650410Y0550381D01*
X0650417Y0549988D02*
X0618874Y0549988D01*
X0618880Y0549596D02*
X0650424Y0549596D01*
X0650430Y0549204D02*
X0618886Y0549204D01*
X0618892Y0548812D02*
X0650437Y0548812D01*
X0650443Y0548419D02*
X0618898Y0548419D01*
X0618904Y0548027D02*
X0650450Y0548027D01*
X0650457Y0547635D02*
X0618910Y0547635D01*
X0618916Y0547243D02*
X0650463Y0547243D01*
X0650470Y0546851D02*
X0618922Y0546851D01*
X0618928Y0546458D02*
X0650477Y0546458D01*
X0650483Y0546066D02*
X0618934Y0546066D01*
X0618940Y0545674D02*
X0650490Y0545674D01*
X0650496Y0545282D02*
X0618946Y0545282D01*
X0618953Y0544890D02*
X0650503Y0544890D01*
X0650510Y0544497D02*
X0618959Y0544497D01*
X0618965Y0544105D02*
X0650516Y0544105D01*
X0650523Y0543713D02*
X0618971Y0543713D01*
X0618977Y0543321D02*
X0650529Y0543321D01*
X0650536Y0542929D02*
X0618983Y0542929D01*
X0618989Y0542536D02*
X0650543Y0542536D01*
X0650549Y0542144D02*
X0618995Y0542144D01*
X0619001Y0541752D02*
X0650556Y0541752D01*
X0650562Y0541360D02*
X0619007Y0541360D01*
X0619013Y0540967D02*
X0650569Y0540967D01*
X0650576Y0540575D02*
X0619019Y0540575D01*
X0619025Y0540183D02*
X0650582Y0540183D01*
X0650589Y0539791D02*
X0619031Y0539791D01*
X0619037Y0539399D02*
X0650596Y0539399D01*
X0650602Y0539006D02*
X0619043Y0539006D01*
X0619049Y0538614D02*
X0650609Y0538614D01*
X0650615Y0538222D02*
X0619056Y0538222D01*
X0619062Y0537830D02*
X0650622Y0537830D01*
X0650629Y0537438D02*
X0619068Y0537438D01*
X0619074Y0537045D02*
X0650635Y0537045D01*
X0650642Y0536653D02*
X0619080Y0536653D01*
X0619086Y0536261D02*
X0650648Y0536261D01*
X0650655Y0535869D02*
X0619092Y0535869D01*
X0619098Y0535476D02*
X0650662Y0535476D01*
X0650668Y0535084D02*
X0619104Y0535084D01*
X0619110Y0534692D02*
X0650675Y0534692D01*
X0650681Y0534300D02*
X0619116Y0534300D01*
X0619122Y0533908D02*
X0650688Y0533908D01*
X0650695Y0533515D02*
X0619128Y0533515D01*
X0619134Y0533123D02*
X0650701Y0533123D01*
X0650708Y0532731D02*
X0619140Y0532731D01*
X0619146Y0532339D02*
X0650715Y0532339D01*
X0650721Y0531947D02*
X0619153Y0531947D01*
X0619159Y0531554D02*
X0650728Y0531554D01*
X0650734Y0531162D02*
X0619165Y0531162D01*
X0619171Y0530770D02*
X0650741Y0530770D01*
X0650748Y0530378D02*
X0619177Y0530378D01*
X0619183Y0529986D02*
X0650754Y0529986D01*
X0650761Y0529593D02*
X0619189Y0529593D01*
X0619195Y0529201D02*
X0650767Y0529201D01*
X0650774Y0528809D02*
X0619201Y0528809D01*
X0619207Y0528417D02*
X0650781Y0528417D01*
X0650787Y0528024D02*
X0619213Y0528024D01*
X0619219Y0527632D02*
X0650794Y0527632D01*
X0650800Y0527240D02*
X0619225Y0527240D01*
X0619231Y0526848D02*
X0650807Y0526848D01*
X0650814Y0526456D02*
X0619237Y0526456D01*
X0619243Y0526063D02*
X0650820Y0526063D01*
X0650827Y0525671D02*
X0619249Y0525671D01*
X0619256Y0525279D02*
X0650834Y0525279D01*
X0650840Y0524887D02*
X0619262Y0524887D01*
X0619268Y0524495D02*
X0650847Y0524495D01*
X0650853Y0524102D02*
X0619274Y0524102D01*
X0619280Y0523710D02*
X0650860Y0523710D01*
X0650867Y0523318D02*
X0619286Y0523318D01*
X0619292Y0522926D02*
X0650873Y0522926D01*
X0650880Y0522533D02*
X0619298Y0522533D01*
X0619304Y0522141D02*
X0650886Y0522141D01*
X0650893Y0521749D02*
X0619310Y0521749D01*
X0619316Y0521357D02*
X0650900Y0521357D01*
X0650906Y0520965D02*
X0619322Y0520965D01*
X0619328Y0520572D02*
X0650913Y0520572D01*
X0650919Y0520180D02*
X0619334Y0520180D01*
X0619340Y0519788D02*
X0650926Y0519788D01*
X0650933Y0519396D02*
X0619346Y0519396D01*
X0619352Y0519004D02*
X0650939Y0519004D01*
X0650946Y0518611D02*
X0619359Y0518611D01*
X0619365Y0518219D02*
X0650952Y0518219D01*
X0650959Y0517827D02*
X0619371Y0517827D01*
X0619377Y0517435D02*
X0650966Y0517435D01*
X0650972Y0517043D02*
X0619383Y0517043D01*
X0619389Y0516650D02*
X0650979Y0516650D01*
X0650986Y0516258D02*
X0619395Y0516258D01*
X0619401Y0515866D02*
X0650992Y0515866D01*
X0650999Y0515474D02*
X0619407Y0515474D01*
X0619413Y0515081D02*
X0651005Y0515081D01*
X0651012Y0514689D02*
X0619419Y0514689D01*
X0619425Y0514297D02*
X0651019Y0514297D01*
X0651025Y0513905D02*
X0619431Y0513905D01*
X0619437Y0513513D02*
X0651032Y0513513D01*
X0651038Y0513120D02*
X0619443Y0513120D01*
X0619449Y0512728D02*
X0651045Y0512728D01*
X0651052Y0512336D02*
X0619455Y0512336D01*
X0619462Y0511944D02*
X0651058Y0511944D01*
X0651065Y0511552D02*
X0619468Y0511552D01*
X0619474Y0511159D02*
X0651071Y0511159D01*
X0651078Y0510767D02*
X0619480Y0510767D01*
X0619486Y0510375D02*
X0651085Y0510375D01*
X0651091Y0509983D02*
X0619492Y0509983D01*
X0619498Y0509590D02*
X0651098Y0509590D01*
X0651105Y0509198D02*
X0619504Y0509198D01*
X0619510Y0508806D02*
X0651111Y0508806D01*
X0651118Y0508414D02*
X0619516Y0508414D01*
X0619522Y0508022D02*
X0651124Y0508022D01*
X0651131Y0507629D02*
X0619528Y0507629D01*
X0619534Y0507237D02*
X0651138Y0507237D01*
X0651144Y0506845D02*
X0619540Y0506845D01*
X0619546Y0506453D02*
X0651151Y0506453D01*
X0651157Y0506061D02*
X0619552Y0506061D01*
X0619558Y0505668D02*
X0651164Y0505668D01*
X0651171Y0505276D02*
X0619565Y0505276D01*
X0619571Y0504884D02*
X0651177Y0504884D01*
X0651184Y0504492D02*
X0619577Y0504492D01*
X0619583Y0504100D02*
X0651190Y0504100D01*
X0651197Y0503707D02*
X0619589Y0503707D01*
X0619595Y0503315D02*
X0651204Y0503315D01*
X0651210Y0502923D02*
X0619601Y0502923D01*
X0619607Y0502531D02*
X0651217Y0502531D01*
X0651224Y0502138D02*
X0619613Y0502138D01*
X0619619Y0501746D02*
X0651230Y0501746D01*
X0651237Y0501354D02*
X0619625Y0501354D01*
X0619631Y0500962D02*
X0651243Y0500962D01*
X0651250Y0500570D02*
X0619637Y0500570D01*
X0619643Y0500177D02*
X0651257Y0500177D01*
X0651263Y0499785D02*
X0619649Y0499785D01*
X0619655Y0499393D02*
X0651270Y0499393D01*
X0651276Y0499001D02*
X0619662Y0499001D01*
X0619668Y0498609D02*
X0651283Y0498609D01*
X0651290Y0498216D02*
X0619674Y0498216D01*
X0619680Y0497824D02*
X0651296Y0497824D01*
X0651303Y0497432D02*
X0619686Y0497432D01*
X0619692Y0497040D02*
X0651309Y0497040D01*
X0651316Y0496647D02*
X0619698Y0496647D01*
X0619704Y0496255D02*
X0651323Y0496255D01*
X0651329Y0495863D02*
X0619710Y0495863D01*
X0619716Y0495471D02*
X0651336Y0495471D01*
X0651342Y0495079D02*
X0619722Y0495079D01*
X0619728Y0494686D02*
X0651349Y0494686D01*
X0651356Y0494294D02*
X0619734Y0494294D01*
X0619740Y0493902D02*
X0651362Y0493902D01*
X0651369Y0493510D02*
X0619746Y0493510D01*
X0619752Y0493118D02*
X0651376Y0493118D01*
X0651382Y0492725D02*
X0619758Y0492725D01*
X0619765Y0492333D02*
X0651389Y0492333D01*
X0651395Y0491941D02*
X0619771Y0491941D01*
X0619777Y0491549D02*
X0651402Y0491549D01*
X0651409Y0491157D02*
X0619783Y0491157D01*
X0619789Y0490764D02*
X0651415Y0490764D01*
X0651422Y0490372D02*
X0619795Y0490372D01*
X0619801Y0489980D02*
X0651428Y0489980D01*
X0651435Y0489588D02*
X0619807Y0489588D01*
X0619813Y0489195D02*
X0651442Y0489195D01*
X0651448Y0488803D02*
X0619819Y0488803D01*
X0619825Y0488411D02*
X0651455Y0488411D01*
X0651461Y0488019D02*
X0619831Y0488019D01*
X0619837Y0487627D02*
X0651468Y0487627D01*
X0651475Y0487234D02*
X0619843Y0487234D01*
X0619849Y0486842D02*
X0651481Y0486842D01*
X0651488Y0486450D02*
X0619855Y0486450D01*
X0619861Y0486058D02*
X0651495Y0486058D01*
X0651501Y0485666D02*
X0619868Y0485666D01*
X0619874Y0485273D02*
X0651508Y0485273D01*
X0651514Y0484881D02*
X0619880Y0484881D01*
X0619886Y0484489D02*
X0651521Y0484489D01*
X0651528Y0484097D02*
X0619892Y0484097D01*
X0619898Y0483704D02*
X0651534Y0483704D01*
X0651541Y0483312D02*
X0619904Y0483312D01*
X0619910Y0482920D02*
X0651547Y0482920D01*
X0651554Y0482528D02*
X0619916Y0482528D01*
X0619922Y0482136D02*
X0651561Y0482136D01*
X0651567Y0481743D02*
X0619928Y0481743D01*
X0619934Y0481351D02*
X0651574Y0481351D01*
X0651580Y0480959D02*
X0619940Y0480959D01*
X0619946Y0480567D02*
X0651587Y0480567D01*
X0651594Y0480175D02*
X0619952Y0480175D01*
X0619958Y0479782D02*
X0651600Y0479782D01*
X0651607Y0479390D02*
X0619964Y0479390D01*
X0619971Y0478998D02*
X0651614Y0478998D01*
X0651620Y0478606D02*
X0619977Y0478606D01*
X0619983Y0478214D02*
X0651627Y0478214D01*
X0651633Y0477821D02*
X0619989Y0477821D01*
X0619995Y0477429D02*
X0651640Y0477429D01*
X0651647Y0477037D02*
X0620001Y0477037D01*
X0620007Y0476645D02*
X0651653Y0476645D01*
X0651660Y0476252D02*
X0620013Y0476252D01*
X0620019Y0475860D02*
X0651666Y0475860D01*
X0651673Y0475468D02*
X0620025Y0475468D01*
X0620031Y0475076D02*
X0651680Y0475076D01*
X0651686Y0474684D02*
X0620037Y0474684D01*
X0620043Y0474291D02*
X0651693Y0474291D01*
X0651699Y0473899D02*
X0620049Y0473899D01*
X0620055Y0473507D02*
X0651706Y0473507D01*
X0651713Y0473115D02*
X0620061Y0473115D01*
X0620067Y0472723D02*
X0651719Y0472723D01*
X0651726Y0472330D02*
X0620074Y0472330D01*
X0620080Y0471938D02*
X0651733Y0471938D01*
X0651739Y0471546D02*
X0620086Y0471546D01*
X0620092Y0471154D02*
X0651746Y0471154D01*
X0651752Y0470761D02*
X0620098Y0470761D01*
X0620104Y0470369D02*
X0651759Y0470369D01*
X0651766Y0469977D02*
X0620110Y0469977D01*
X0620116Y0469585D02*
X0651772Y0469585D01*
X0651779Y0469193D02*
X0620122Y0469193D01*
X0620128Y0468800D02*
X0651785Y0468800D01*
X0651792Y0468408D02*
X0620134Y0468408D01*
X0620140Y0468016D02*
X0651799Y0468016D01*
X0651805Y0467624D02*
X0620146Y0467624D01*
X0620152Y0467232D02*
X0651812Y0467232D01*
X0651818Y0466839D02*
X0620158Y0466839D01*
X0620164Y0466447D02*
X0651825Y0466447D01*
X0651832Y0466055D02*
X0620170Y0466055D01*
X0620177Y0465663D02*
X0651838Y0465663D01*
X0651845Y0465271D02*
X0620183Y0465271D01*
X0620189Y0464878D02*
X0651851Y0464878D01*
X0651858Y0464486D02*
X0620195Y0464486D01*
X0620201Y0464094D02*
X0651865Y0464094D01*
X0651871Y0463702D02*
X0620207Y0463702D01*
X0620213Y0463309D02*
X0651878Y0463309D01*
X0651885Y0462917D02*
X0620219Y0462917D01*
X0620225Y0462525D02*
X0651891Y0462525D01*
X0651898Y0462133D02*
X0620231Y0462133D01*
X0620237Y0461741D02*
X0651904Y0461741D01*
X0651911Y0461348D02*
X0620243Y0461348D01*
X0620249Y0460956D02*
X0651918Y0460956D01*
X0651924Y0460564D02*
X0620255Y0460564D01*
X0620261Y0460172D02*
X0651931Y0460172D01*
X0651937Y0459780D02*
X0620267Y0459780D01*
X0620274Y0459387D02*
X0651944Y0459387D01*
X0651951Y0458995D02*
X0620280Y0458995D01*
X0620286Y0458603D02*
X0651957Y0458603D01*
X0651964Y0458211D02*
X0620292Y0458211D01*
X0620298Y0457818D02*
X0651970Y0457818D01*
X0651977Y0457426D02*
X0620304Y0457426D01*
X0620310Y0457034D02*
X0651984Y0457034D01*
X0651990Y0456642D02*
X0620316Y0456642D01*
X0620322Y0456250D02*
X0651997Y0456250D01*
X0652004Y0455857D02*
X0620328Y0455857D01*
X0620334Y0455465D02*
X0652010Y0455465D01*
X0652017Y0455073D02*
X0620340Y0455073D01*
X0620346Y0454681D02*
X0652023Y0454681D01*
X0652030Y0454289D02*
X0620352Y0454289D01*
X0620358Y0453896D02*
X0652037Y0453896D01*
X0652043Y0453504D02*
X0620364Y0453504D01*
X0620370Y0453112D02*
X0652050Y0453112D01*
X0652056Y0452720D02*
X0620377Y0452720D01*
X0620383Y0452328D02*
X0652063Y0452328D01*
X0652070Y0451935D02*
X0620389Y0451935D01*
X0620395Y0451543D02*
X0652076Y0451543D01*
X0652083Y0451151D02*
X0620401Y0451151D01*
X0620407Y0450759D02*
X0652089Y0450759D01*
X0652096Y0450366D02*
X0620413Y0450366D01*
X0620419Y0449974D02*
X0652103Y0449974D01*
X0652109Y0449582D02*
X0620425Y0449582D01*
X0620431Y0449190D02*
X0652116Y0449190D01*
X0652123Y0448798D02*
X0620437Y0448798D01*
X0620443Y0448405D02*
X0652129Y0448405D01*
X0652136Y0448013D02*
X0620449Y0448013D01*
X0620455Y0447621D02*
X0652142Y0447621D01*
X0652149Y0447229D02*
X0620461Y0447229D01*
X0620467Y0446837D02*
X0652156Y0446837D01*
X0652162Y0446444D02*
X0620473Y0446444D01*
X0620480Y0446052D02*
X0652169Y0446052D01*
X0652175Y0445660D02*
X0620486Y0445660D01*
X0620492Y0445268D02*
X0652182Y0445268D01*
X0652189Y0444875D02*
X0620498Y0444875D01*
X0620504Y0444483D02*
X0652195Y0444483D01*
X0652202Y0444091D02*
X0620510Y0444091D01*
X0620516Y0443699D02*
X0652208Y0443699D01*
X0652055Y0443307D02*
X0620680Y0443307D01*
X0621111Y0442914D02*
X0651632Y0442914D01*
X0651209Y0442522D02*
X0621541Y0442522D01*
X0621972Y0442130D02*
X0650786Y0442130D01*
X0650363Y0441738D02*
X0622403Y0441738D01*
X0622833Y0441346D02*
X0649940Y0441346D01*
X0649517Y0440953D02*
X0623264Y0440953D01*
X0623695Y0440561D02*
X0649094Y0440561D01*
X0648671Y0440169D02*
X0624125Y0440169D01*
X0624556Y0439777D02*
X0648248Y0439777D01*
X0647825Y0439385D02*
X0624987Y0439385D01*
X0625417Y0438992D02*
X0647402Y0438992D01*
X0646979Y0438600D02*
X0625848Y0438600D01*
X0626279Y0438208D02*
X0646556Y0438208D01*
X0646133Y0437816D02*
X0626709Y0437816D01*
X0627140Y0437423D02*
X0645710Y0437423D01*
X0645287Y0437031D02*
X0627571Y0437031D01*
X0628001Y0436639D02*
X0644864Y0436639D01*
X0644441Y0436247D02*
X0628432Y0436247D01*
X0628863Y0435855D02*
X0644019Y0435855D01*
X0643596Y0435462D02*
X0629293Y0435462D01*
X0629724Y0435070D02*
X0643173Y0435070D01*
X0642750Y0434678D02*
X0630155Y0434678D01*
X0630585Y0434286D02*
X0642327Y0434286D01*
X0641904Y0433894D02*
X0631016Y0433894D01*
X0631447Y0433501D02*
X0641481Y0433501D01*
X0641386Y0423768D02*
X0631543Y0423768D01*
X0620913Y0413925D01*
X0621701Y0274752D01*
X0632724Y0264713D01*
X0642567Y0264713D01*
X0653197Y0274752D01*
X0652409Y0413925D01*
X0641386Y0423768D01*
X0641466Y0423696D02*
X0631466Y0423696D01*
X0631042Y0423304D02*
X0641905Y0423304D01*
X0642345Y0422912D02*
X0630619Y0422912D01*
X0630195Y0422519D02*
X0642784Y0422519D01*
X0643223Y0422127D02*
X0629772Y0422127D01*
X0629348Y0421735D02*
X0643662Y0421735D01*
X0644102Y0421343D02*
X0628924Y0421343D01*
X0628501Y0420951D02*
X0644541Y0420951D01*
X0644980Y0420558D02*
X0628077Y0420558D01*
X0627654Y0420166D02*
X0645420Y0420166D01*
X0645859Y0419774D02*
X0627230Y0419774D01*
X0626806Y0419382D02*
X0646298Y0419382D01*
X0646737Y0418989D02*
X0626383Y0418989D01*
X0625959Y0418597D02*
X0647177Y0418597D01*
X0647616Y0418205D02*
X0625536Y0418205D01*
X0625112Y0417813D02*
X0648055Y0417813D01*
X0648495Y0417421D02*
X0624688Y0417421D01*
X0624265Y0417028D02*
X0648934Y0417028D01*
X0649373Y0416636D02*
X0623841Y0416636D01*
X0623418Y0416244D02*
X0649812Y0416244D01*
X0650252Y0415852D02*
X0622994Y0415852D01*
X0622571Y0415460D02*
X0650691Y0415460D01*
X0651130Y0415067D02*
X0622147Y0415067D01*
X0621723Y0414675D02*
X0651569Y0414675D01*
X0652009Y0414283D02*
X0621300Y0414283D01*
X0620914Y0413891D02*
X0652410Y0413891D01*
X0652412Y0413499D02*
X0620916Y0413499D01*
X0620918Y0413106D02*
X0652414Y0413106D01*
X0652416Y0412714D02*
X0620920Y0412714D01*
X0620922Y0412322D02*
X0652419Y0412322D01*
X0652421Y0411930D02*
X0620925Y0411930D01*
X0620927Y0411537D02*
X0652423Y0411537D01*
X0652425Y0411145D02*
X0620929Y0411145D01*
X0620931Y0410753D02*
X0652427Y0410753D01*
X0652430Y0410361D02*
X0620934Y0410361D01*
X0620936Y0409969D02*
X0652432Y0409969D01*
X0652434Y0409576D02*
X0620938Y0409576D01*
X0620940Y0409184D02*
X0652436Y0409184D01*
X0652438Y0408792D02*
X0620942Y0408792D01*
X0620945Y0408400D02*
X0652441Y0408400D01*
X0652443Y0408008D02*
X0620947Y0408008D01*
X0620949Y0407615D02*
X0652445Y0407615D01*
X0652447Y0407223D02*
X0620951Y0407223D01*
X0620954Y0406831D02*
X0652450Y0406831D01*
X0652452Y0406439D02*
X0620956Y0406439D01*
X0620958Y0406046D02*
X0652454Y0406046D01*
X0652456Y0405654D02*
X0620960Y0405654D01*
X0620962Y0405262D02*
X0652458Y0405262D01*
X0652461Y0404870D02*
X0620965Y0404870D01*
X0620967Y0404478D02*
X0652463Y0404478D01*
X0652465Y0404085D02*
X0620969Y0404085D01*
X0620971Y0403693D02*
X0652467Y0403693D01*
X0652470Y0403301D02*
X0620973Y0403301D01*
X0620976Y0402909D02*
X0652472Y0402909D01*
X0652474Y0402517D02*
X0620978Y0402517D01*
X0620980Y0402124D02*
X0652476Y0402124D01*
X0652478Y0401732D02*
X0620982Y0401732D01*
X0620985Y0401340D02*
X0652481Y0401340D01*
X0652483Y0400948D02*
X0620987Y0400948D01*
X0620989Y0400556D02*
X0652485Y0400556D01*
X0652487Y0400163D02*
X0620991Y0400163D01*
X0620993Y0399771D02*
X0652490Y0399771D01*
X0652492Y0399379D02*
X0620996Y0399379D01*
X0620998Y0398987D02*
X0652494Y0398987D01*
X0652496Y0398594D02*
X0621000Y0398594D01*
X0621002Y0398202D02*
X0652498Y0398202D01*
X0652501Y0397810D02*
X0621005Y0397810D01*
X0621007Y0397418D02*
X0652503Y0397418D01*
X0652505Y0397026D02*
X0621009Y0397026D01*
X0621011Y0396633D02*
X0652507Y0396633D01*
X0652509Y0396241D02*
X0621013Y0396241D01*
X0621016Y0395849D02*
X0652512Y0395849D01*
X0652514Y0395457D02*
X0621018Y0395457D01*
X0621020Y0395065D02*
X0652516Y0395065D01*
X0652518Y0394672D02*
X0621022Y0394672D01*
X0621025Y0394280D02*
X0652521Y0394280D01*
X0652523Y0393888D02*
X0621027Y0393888D01*
X0621029Y0393496D02*
X0652525Y0393496D01*
X0652527Y0393103D02*
X0621031Y0393103D01*
X0621033Y0392711D02*
X0652529Y0392711D01*
X0652532Y0392319D02*
X0621036Y0392319D01*
X0621038Y0391927D02*
X0652534Y0391927D01*
X0652536Y0391535D02*
X0621040Y0391535D01*
X0621042Y0391142D02*
X0652538Y0391142D01*
X0652541Y0390750D02*
X0621045Y0390750D01*
X0621047Y0390358D02*
X0652543Y0390358D01*
X0652545Y0389966D02*
X0621049Y0389966D01*
X0621051Y0389574D02*
X0652547Y0389574D01*
X0652549Y0389181D02*
X0621053Y0389181D01*
X0621056Y0388789D02*
X0652552Y0388789D01*
X0652554Y0388397D02*
X0621058Y0388397D01*
X0621060Y0388005D02*
X0652556Y0388005D01*
X0652558Y0387613D02*
X0621062Y0387613D01*
X0621064Y0387220D02*
X0652561Y0387220D01*
X0652563Y0386828D02*
X0621067Y0386828D01*
X0621069Y0386436D02*
X0652565Y0386436D01*
X0652567Y0386044D02*
X0621071Y0386044D01*
X0621073Y0385651D02*
X0652569Y0385651D01*
X0652572Y0385259D02*
X0621076Y0385259D01*
X0621078Y0384867D02*
X0652574Y0384867D01*
X0652576Y0384475D02*
X0621080Y0384475D01*
X0621082Y0384083D02*
X0652578Y0384083D01*
X0652580Y0383690D02*
X0621084Y0383690D01*
X0621087Y0383298D02*
X0652583Y0383298D01*
X0652585Y0382906D02*
X0621089Y0382906D01*
X0621091Y0382514D02*
X0652587Y0382514D01*
X0652589Y0382122D02*
X0621093Y0382122D01*
X0621096Y0381729D02*
X0652592Y0381729D01*
X0652594Y0381337D02*
X0621098Y0381337D01*
X0621100Y0380945D02*
X0652596Y0380945D01*
X0652598Y0380553D02*
X0621102Y0380553D01*
X0621104Y0380160D02*
X0652600Y0380160D01*
X0652603Y0379768D02*
X0621107Y0379768D01*
X0621109Y0379376D02*
X0652605Y0379376D01*
X0652607Y0378984D02*
X0621111Y0378984D01*
X0621113Y0378592D02*
X0652609Y0378592D01*
X0652612Y0378199D02*
X0621116Y0378199D01*
X0621118Y0377807D02*
X0652614Y0377807D01*
X0652616Y0377415D02*
X0621120Y0377415D01*
X0621122Y0377023D02*
X0652618Y0377023D01*
X0652620Y0376631D02*
X0621124Y0376631D01*
X0621127Y0376238D02*
X0652623Y0376238D01*
X0652625Y0375846D02*
X0621129Y0375846D01*
X0621131Y0375454D02*
X0652627Y0375454D01*
X0652629Y0375062D02*
X0621133Y0375062D01*
X0621135Y0374670D02*
X0652632Y0374670D01*
X0652634Y0374277D02*
X0621138Y0374277D01*
X0621140Y0373885D02*
X0652636Y0373885D01*
X0652638Y0373493D02*
X0621142Y0373493D01*
X0621144Y0373101D02*
X0652640Y0373101D01*
X0652643Y0372708D02*
X0621147Y0372708D01*
X0621149Y0372316D02*
X0652645Y0372316D01*
X0652647Y0371924D02*
X0621151Y0371924D01*
X0621153Y0371532D02*
X0652649Y0371532D01*
X0652652Y0371140D02*
X0621155Y0371140D01*
X0621158Y0370747D02*
X0652654Y0370747D01*
X0652656Y0370355D02*
X0621160Y0370355D01*
X0621162Y0369963D02*
X0652658Y0369963D01*
X0652660Y0369571D02*
X0621164Y0369571D01*
X0621167Y0369179D02*
X0652663Y0369179D01*
X0652665Y0368786D02*
X0621169Y0368786D01*
X0621171Y0368394D02*
X0652667Y0368394D01*
X0652669Y0368002D02*
X0621173Y0368002D01*
X0621175Y0367610D02*
X0652671Y0367610D01*
X0652674Y0367217D02*
X0621178Y0367217D01*
X0621180Y0366825D02*
X0652676Y0366825D01*
X0652678Y0366433D02*
X0621182Y0366433D01*
X0621184Y0366041D02*
X0652680Y0366041D01*
X0652683Y0365649D02*
X0621187Y0365649D01*
X0621189Y0365256D02*
X0652685Y0365256D01*
X0652687Y0364864D02*
X0621191Y0364864D01*
X0621193Y0364472D02*
X0652689Y0364472D01*
X0652691Y0364080D02*
X0621195Y0364080D01*
X0621198Y0363688D02*
X0652694Y0363688D01*
X0652696Y0363295D02*
X0621200Y0363295D01*
X0621202Y0362903D02*
X0652698Y0362903D01*
X0652700Y0362511D02*
X0621204Y0362511D01*
X0621206Y0362119D02*
X0652703Y0362119D01*
X0652705Y0361727D02*
X0621209Y0361727D01*
X0621211Y0361334D02*
X0652707Y0361334D01*
X0652709Y0360942D02*
X0621213Y0360942D01*
X0621215Y0360550D02*
X0652711Y0360550D01*
X0652714Y0360158D02*
X0621218Y0360158D01*
X0621220Y0359765D02*
X0652716Y0359765D01*
X0652718Y0359373D02*
X0621222Y0359373D01*
X0621224Y0358981D02*
X0652720Y0358981D01*
X0652723Y0358589D02*
X0621226Y0358589D01*
X0621229Y0358197D02*
X0652725Y0358197D01*
X0652727Y0357804D02*
X0621231Y0357804D01*
X0621233Y0357412D02*
X0652729Y0357412D01*
X0652731Y0357020D02*
X0621235Y0357020D01*
X0621238Y0356628D02*
X0652734Y0356628D01*
X0652736Y0356236D02*
X0621240Y0356236D01*
X0621242Y0355843D02*
X0652738Y0355843D01*
X0652740Y0355451D02*
X0621244Y0355451D01*
X0621246Y0355059D02*
X0652742Y0355059D01*
X0652745Y0354667D02*
X0621249Y0354667D01*
X0621251Y0354274D02*
X0652747Y0354274D01*
X0652749Y0353882D02*
X0621253Y0353882D01*
X0621255Y0353490D02*
X0652751Y0353490D01*
X0652754Y0353098D02*
X0621258Y0353098D01*
X0621260Y0352706D02*
X0652756Y0352706D01*
X0652758Y0352313D02*
X0621262Y0352313D01*
X0621264Y0351921D02*
X0652760Y0351921D01*
X0652762Y0351529D02*
X0621266Y0351529D01*
X0621269Y0351137D02*
X0652765Y0351137D01*
X0652767Y0350745D02*
X0621271Y0350745D01*
X0621273Y0350352D02*
X0652769Y0350352D01*
X0652771Y0349960D02*
X0621275Y0349960D01*
X0621278Y0349568D02*
X0652774Y0349568D01*
X0652776Y0349176D02*
X0621280Y0349176D01*
X0621282Y0348784D02*
X0652778Y0348784D01*
X0652780Y0348391D02*
X0621284Y0348391D01*
X0621286Y0347999D02*
X0652782Y0347999D01*
X0652785Y0347607D02*
X0621289Y0347607D01*
X0621291Y0347215D02*
X0652787Y0347215D01*
X0652789Y0346822D02*
X0621293Y0346822D01*
X0621295Y0346430D02*
X0652791Y0346430D01*
X0652794Y0346038D02*
X0621297Y0346038D01*
X0621300Y0345646D02*
X0652796Y0345646D01*
X0652798Y0345254D02*
X0621302Y0345254D01*
X0621304Y0344861D02*
X0652800Y0344861D01*
X0652802Y0344469D02*
X0621306Y0344469D01*
X0621309Y0344077D02*
X0652805Y0344077D01*
X0652807Y0343685D02*
X0621311Y0343685D01*
X0621313Y0343293D02*
X0652809Y0343293D01*
X0652811Y0342900D02*
X0621315Y0342900D01*
X0621317Y0342508D02*
X0652813Y0342508D01*
X0652816Y0342116D02*
X0621320Y0342116D01*
X0621322Y0341724D02*
X0652818Y0341724D01*
X0652820Y0341331D02*
X0621324Y0341331D01*
X0621326Y0340939D02*
X0652822Y0340939D01*
X0652825Y0340547D02*
X0621329Y0340547D01*
X0621331Y0340155D02*
X0652827Y0340155D01*
X0652829Y0339763D02*
X0621333Y0339763D01*
X0621335Y0339370D02*
X0652831Y0339370D01*
X0652833Y0338978D02*
X0621337Y0338978D01*
X0621340Y0338586D02*
X0652836Y0338586D01*
X0652838Y0338194D02*
X0621342Y0338194D01*
X0621344Y0337802D02*
X0652840Y0337802D01*
X0652842Y0337409D02*
X0621346Y0337409D01*
X0621349Y0337017D02*
X0652845Y0337017D01*
X0652847Y0336625D02*
X0621351Y0336625D01*
X0621353Y0336233D02*
X0652849Y0336233D01*
X0652851Y0335841D02*
X0621355Y0335841D01*
X0621357Y0335448D02*
X0652853Y0335448D01*
X0652856Y0335056D02*
X0621360Y0335056D01*
X0621362Y0334664D02*
X0652858Y0334664D01*
X0652860Y0334272D02*
X0621364Y0334272D01*
X0621366Y0333879D02*
X0652862Y0333879D01*
X0652865Y0333487D02*
X0621368Y0333487D01*
X0621371Y0333095D02*
X0652867Y0333095D01*
X0652869Y0332703D02*
X0621373Y0332703D01*
X0621375Y0332311D02*
X0652871Y0332311D01*
X0652873Y0331918D02*
X0621377Y0331918D01*
X0621380Y0331526D02*
X0652876Y0331526D01*
X0652878Y0331134D02*
X0621382Y0331134D01*
X0621384Y0330742D02*
X0652880Y0330742D01*
X0652882Y0330350D02*
X0621386Y0330350D01*
X0621388Y0329957D02*
X0652885Y0329957D01*
X0652887Y0329565D02*
X0621391Y0329565D01*
X0621393Y0329173D02*
X0652889Y0329173D01*
X0652891Y0328781D02*
X0621395Y0328781D01*
X0621397Y0328388D02*
X0652893Y0328388D01*
X0652896Y0327996D02*
X0621400Y0327996D01*
X0621402Y0327604D02*
X0652898Y0327604D01*
X0652900Y0327212D02*
X0621404Y0327212D01*
X0621406Y0326820D02*
X0652902Y0326820D01*
X0652904Y0326427D02*
X0621408Y0326427D01*
X0621411Y0326035D02*
X0652907Y0326035D01*
X0652909Y0325643D02*
X0621413Y0325643D01*
X0621415Y0325251D02*
X0652911Y0325251D01*
X0652913Y0324859D02*
X0621417Y0324859D01*
X0621420Y0324466D02*
X0652916Y0324466D01*
X0652918Y0324074D02*
X0621422Y0324074D01*
X0621424Y0323682D02*
X0652920Y0323682D01*
X0652922Y0323290D02*
X0621426Y0323290D01*
X0621428Y0322898D02*
X0652924Y0322898D01*
X0652927Y0322505D02*
X0621431Y0322505D01*
X0621433Y0322113D02*
X0652929Y0322113D01*
X0652931Y0321721D02*
X0621435Y0321721D01*
X0621437Y0321329D02*
X0652933Y0321329D01*
X0652936Y0320936D02*
X0621439Y0320936D01*
X0621442Y0320544D02*
X0652938Y0320544D01*
X0652940Y0320152D02*
X0621444Y0320152D01*
X0621446Y0319760D02*
X0652942Y0319760D01*
X0652944Y0319368D02*
X0621448Y0319368D01*
X0621451Y0318975D02*
X0652947Y0318975D01*
X0652949Y0318583D02*
X0621453Y0318583D01*
X0621455Y0318191D02*
X0652951Y0318191D01*
X0652953Y0317799D02*
X0621457Y0317799D01*
X0621459Y0317407D02*
X0652956Y0317407D01*
X0652958Y0317014D02*
X0621462Y0317014D01*
X0621464Y0316622D02*
X0652960Y0316622D01*
X0652962Y0316230D02*
X0621466Y0316230D01*
X0621468Y0315838D02*
X0652964Y0315838D01*
X0652967Y0315445D02*
X0621471Y0315445D01*
X0621473Y0315053D02*
X0652969Y0315053D01*
X0652971Y0314661D02*
X0621475Y0314661D01*
X0621477Y0314269D02*
X0652973Y0314269D01*
X0652975Y0313877D02*
X0621479Y0313877D01*
X0621482Y0313484D02*
X0652978Y0313484D01*
X0652980Y0313092D02*
X0621484Y0313092D01*
X0621486Y0312700D02*
X0652982Y0312700D01*
X0652984Y0312308D02*
X0621488Y0312308D01*
X0621491Y0311916D02*
X0652987Y0311916D01*
X0652989Y0311523D02*
X0621493Y0311523D01*
X0621495Y0311131D02*
X0652991Y0311131D01*
X0652993Y0310739D02*
X0621497Y0310739D01*
X0621499Y0310347D02*
X0652995Y0310347D01*
X0652998Y0309955D02*
X0621502Y0309955D01*
X0621504Y0309562D02*
X0653000Y0309562D01*
X0653002Y0309170D02*
X0621506Y0309170D01*
X0621508Y0308778D02*
X0653004Y0308778D01*
X0653007Y0308386D02*
X0621511Y0308386D01*
X0621513Y0307993D02*
X0653009Y0307993D01*
X0653011Y0307601D02*
X0621515Y0307601D01*
X0621517Y0307209D02*
X0653013Y0307209D01*
X0653015Y0306817D02*
X0621519Y0306817D01*
X0621522Y0306425D02*
X0653018Y0306425D01*
X0653020Y0306032D02*
X0621524Y0306032D01*
X0621526Y0305640D02*
X0653022Y0305640D01*
X0653024Y0305248D02*
X0621528Y0305248D01*
X0621530Y0304856D02*
X0653027Y0304856D01*
X0653029Y0304464D02*
X0621533Y0304464D01*
X0621535Y0304071D02*
X0653031Y0304071D01*
X0653033Y0303679D02*
X0621537Y0303679D01*
X0621539Y0303287D02*
X0653035Y0303287D01*
X0653038Y0302895D02*
X0621542Y0302895D01*
X0621544Y0302502D02*
X0653040Y0302502D01*
X0653042Y0302110D02*
X0621546Y0302110D01*
X0621548Y0301718D02*
X0653044Y0301718D01*
X0653046Y0301326D02*
X0621550Y0301326D01*
X0621553Y0300934D02*
X0653049Y0300934D01*
X0653051Y0300541D02*
X0621555Y0300541D01*
X0621557Y0300149D02*
X0653053Y0300149D01*
X0653055Y0299757D02*
X0621559Y0299757D01*
X0621562Y0299365D02*
X0653058Y0299365D01*
X0653060Y0298973D02*
X0621564Y0298973D01*
X0621566Y0298580D02*
X0653062Y0298580D01*
X0653064Y0298188D02*
X0621568Y0298188D01*
X0621570Y0297796D02*
X0653066Y0297796D01*
X0653069Y0297404D02*
X0621573Y0297404D01*
X0621575Y0297012D02*
X0653071Y0297012D01*
X0653073Y0296619D02*
X0621577Y0296619D01*
X0621579Y0296227D02*
X0653075Y0296227D01*
X0653078Y0295835D02*
X0621582Y0295835D01*
X0621584Y0295443D02*
X0653080Y0295443D01*
X0653082Y0295050D02*
X0621586Y0295050D01*
X0621588Y0294658D02*
X0653084Y0294658D01*
X0653086Y0294266D02*
X0621590Y0294266D01*
X0621593Y0293874D02*
X0653089Y0293874D01*
X0653091Y0293482D02*
X0621595Y0293482D01*
X0621597Y0293089D02*
X0653093Y0293089D01*
X0653095Y0292697D02*
X0621599Y0292697D01*
X0621601Y0292305D02*
X0653098Y0292305D01*
X0653100Y0291913D02*
X0621604Y0291913D01*
X0621606Y0291521D02*
X0653102Y0291521D01*
X0653104Y0291128D02*
X0621608Y0291128D01*
X0621610Y0290736D02*
X0653106Y0290736D01*
X0653109Y0290344D02*
X0621613Y0290344D01*
X0621615Y0289952D02*
X0653111Y0289952D01*
X0653113Y0289559D02*
X0621617Y0289559D01*
X0621619Y0289167D02*
X0653115Y0289167D01*
X0653118Y0288775D02*
X0621621Y0288775D01*
X0621624Y0288383D02*
X0653120Y0288383D01*
X0653122Y0287991D02*
X0621626Y0287991D01*
X0621628Y0287598D02*
X0653124Y0287598D01*
X0653126Y0287206D02*
X0621630Y0287206D01*
X0621633Y0286814D02*
X0653129Y0286814D01*
X0653131Y0286422D02*
X0621635Y0286422D01*
X0621637Y0286030D02*
X0653133Y0286030D01*
X0653135Y0285637D02*
X0621639Y0285637D01*
X0621641Y0285245D02*
X0653137Y0285245D01*
X0653140Y0284853D02*
X0621644Y0284853D01*
X0621646Y0284461D02*
X0653142Y0284461D01*
X0653144Y0284069D02*
X0621648Y0284069D01*
X0621650Y0283676D02*
X0653146Y0283676D01*
X0653149Y0283284D02*
X0621653Y0283284D01*
X0621655Y0282892D02*
X0653151Y0282892D01*
X0653153Y0282500D02*
X0621657Y0282500D01*
X0621659Y0282107D02*
X0653155Y0282107D01*
X0653157Y0281715D02*
X0621661Y0281715D01*
X0621664Y0281323D02*
X0653160Y0281323D01*
X0653162Y0280931D02*
X0621666Y0280931D01*
X0621668Y0280539D02*
X0653164Y0280539D01*
X0653166Y0280146D02*
X0621670Y0280146D01*
X0621672Y0279754D02*
X0653169Y0279754D01*
X0653171Y0279362D02*
X0621675Y0279362D01*
X0621677Y0278970D02*
X0653173Y0278970D01*
X0653175Y0278578D02*
X0621679Y0278578D01*
X0621681Y0278185D02*
X0653177Y0278185D01*
X0653180Y0277793D02*
X0621684Y0277793D01*
X0621686Y0277401D02*
X0653182Y0277401D01*
X0653184Y0277009D02*
X0621688Y0277009D01*
X0621690Y0276616D02*
X0653186Y0276616D01*
X0653189Y0276224D02*
X0621692Y0276224D01*
X0621695Y0275832D02*
X0653191Y0275832D01*
X0653193Y0275440D02*
X0621697Y0275440D01*
X0621699Y0275048D02*
X0653195Y0275048D01*
X0653095Y0274655D02*
X0621807Y0274655D01*
X0622237Y0274263D02*
X0652679Y0274263D01*
X0652264Y0273871D02*
X0622668Y0273871D01*
X0623099Y0273479D02*
X0651849Y0273479D01*
X0651434Y0273087D02*
X0623529Y0273087D01*
X0623960Y0272694D02*
X0651018Y0272694D01*
X0650603Y0272302D02*
X0624391Y0272302D01*
X0624821Y0271910D02*
X0650188Y0271910D01*
X0649772Y0271518D02*
X0625252Y0271518D01*
X0625683Y0271126D02*
X0649357Y0271126D01*
X0648942Y0270733D02*
X0626113Y0270733D01*
X0626544Y0270341D02*
X0648527Y0270341D01*
X0648111Y0269949D02*
X0626975Y0269949D01*
X0627405Y0269557D02*
X0647696Y0269557D01*
X0647281Y0269164D02*
X0627836Y0269164D01*
X0628267Y0268772D02*
X0646865Y0268772D01*
X0646450Y0268380D02*
X0628697Y0268380D01*
X0629128Y0267988D02*
X0646035Y0267988D01*
X0645620Y0267596D02*
X0629559Y0267596D01*
X0629989Y0267203D02*
X0645204Y0267203D01*
X0644789Y0266811D02*
X0630420Y0266811D01*
X0630851Y0266419D02*
X0644374Y0266419D01*
X0643958Y0266027D02*
X0631281Y0266027D01*
X0631712Y0265635D02*
X0643543Y0265635D01*
X0643128Y0265242D02*
X0632143Y0265242D01*
X0632573Y0264850D02*
X0642713Y0264850D01*
X0642764Y0255264D02*
X0653591Y0245224D01*
X0654181Y0208610D01*
X0654165Y0202903D01*
X0653562Y0197228D01*
X0652381Y0191645D01*
X0650634Y0186213D01*
X0648337Y0180988D01*
X0645518Y0176026D01*
X0642203Y0171381D01*
X0638430Y0167099D01*
X0634237Y0163228D01*
X0629669Y0159807D01*
X0624775Y0156873D01*
X0619605Y0154456D01*
X0614214Y0152583D01*
X0608660Y0151273D01*
X0603000Y0150539D01*
X0559890Y0147193D01*
X0550047Y0157035D01*
X0550047Y0167075D01*
X0559890Y0178689D01*
X0604575Y0182429D01*
X0607390Y0183488D01*
X0610062Y0184868D01*
X0612556Y0186549D01*
X0614836Y0188510D01*
X0616872Y0190724D01*
X0618637Y0193159D01*
X0620105Y0195784D01*
X0621258Y0198562D01*
X0622078Y0201455D01*
X0622556Y0204424D01*
X0622685Y0207429D01*
X0622094Y0245224D01*
X0632724Y0255264D01*
X0642764Y0255264D01*
X0643000Y0255045D02*
X0632493Y0255045D01*
X0632077Y0254653D02*
X0643423Y0254653D01*
X0643846Y0254260D02*
X0631662Y0254260D01*
X0631247Y0253868D02*
X0644269Y0253868D01*
X0644692Y0253476D02*
X0630831Y0253476D01*
X0630416Y0253084D02*
X0645115Y0253084D01*
X0645538Y0252692D02*
X0630001Y0252692D01*
X0629586Y0252299D02*
X0645961Y0252299D01*
X0646384Y0251907D02*
X0629170Y0251907D01*
X0628755Y0251515D02*
X0646807Y0251515D01*
X0647230Y0251123D02*
X0628340Y0251123D01*
X0627924Y0250730D02*
X0647653Y0250730D01*
X0648076Y0250338D02*
X0627509Y0250338D01*
X0627094Y0249946D02*
X0648499Y0249946D01*
X0648922Y0249554D02*
X0626679Y0249554D01*
X0626263Y0249162D02*
X0649345Y0249162D01*
X0649767Y0248769D02*
X0625848Y0248769D01*
X0625433Y0248377D02*
X0650190Y0248377D01*
X0650613Y0247985D02*
X0625017Y0247985D01*
X0624602Y0247593D02*
X0651036Y0247593D01*
X0651459Y0247201D02*
X0624187Y0247201D01*
X0623772Y0246808D02*
X0651882Y0246808D01*
X0652305Y0246416D02*
X0623356Y0246416D01*
X0622941Y0246024D02*
X0652728Y0246024D01*
X0653151Y0245632D02*
X0622526Y0245632D01*
X0622110Y0245240D02*
X0653574Y0245240D01*
X0653597Y0244847D02*
X0622100Y0244847D01*
X0622107Y0244455D02*
X0653603Y0244455D01*
X0653609Y0244063D02*
X0622113Y0244063D01*
X0622119Y0243671D02*
X0653616Y0243671D01*
X0653622Y0243278D02*
X0622125Y0243278D01*
X0622131Y0242886D02*
X0653628Y0242886D01*
X0653635Y0242494D02*
X0622137Y0242494D01*
X0622143Y0242102D02*
X0653641Y0242102D01*
X0653647Y0241710D02*
X0622149Y0241710D01*
X0622156Y0241317D02*
X0653654Y0241317D01*
X0653660Y0240925D02*
X0622162Y0240925D01*
X0622168Y0240533D02*
X0653666Y0240533D01*
X0653673Y0240141D02*
X0622174Y0240141D01*
X0622180Y0239749D02*
X0653679Y0239749D01*
X0653685Y0239356D02*
X0622186Y0239356D01*
X0622192Y0238964D02*
X0653692Y0238964D01*
X0653698Y0238572D02*
X0622198Y0238572D01*
X0622205Y0238180D02*
X0653704Y0238180D01*
X0653710Y0237787D02*
X0622211Y0237787D01*
X0622217Y0237395D02*
X0653717Y0237395D01*
X0653723Y0237003D02*
X0622223Y0237003D01*
X0622229Y0236611D02*
X0653729Y0236611D01*
X0653736Y0236219D02*
X0622235Y0236219D01*
X0622241Y0235826D02*
X0653742Y0235826D01*
X0653748Y0235434D02*
X0622247Y0235434D01*
X0622254Y0235042D02*
X0653755Y0235042D01*
X0653761Y0234650D02*
X0622260Y0234650D01*
X0622266Y0234258D02*
X0653767Y0234258D01*
X0653774Y0233865D02*
X0622272Y0233865D01*
X0622278Y0233473D02*
X0653780Y0233473D01*
X0653786Y0233081D02*
X0622284Y0233081D01*
X0622290Y0232689D02*
X0653793Y0232689D01*
X0653799Y0232297D02*
X0622296Y0232297D01*
X0622303Y0231904D02*
X0653805Y0231904D01*
X0653812Y0231512D02*
X0622309Y0231512D01*
X0622315Y0231120D02*
X0653818Y0231120D01*
X0653824Y0230728D02*
X0622321Y0230728D01*
X0622327Y0230335D02*
X0653831Y0230335D01*
X0653837Y0229943D02*
X0622333Y0229943D01*
X0622339Y0229551D02*
X0653843Y0229551D01*
X0653850Y0229159D02*
X0622346Y0229159D01*
X0622352Y0228767D02*
X0653856Y0228767D01*
X0653862Y0228374D02*
X0622358Y0228374D01*
X0622364Y0227982D02*
X0653869Y0227982D01*
X0653875Y0227590D02*
X0622370Y0227590D01*
X0622376Y0227198D02*
X0653881Y0227198D01*
X0653888Y0226806D02*
X0622382Y0226806D01*
X0622388Y0226413D02*
X0653894Y0226413D01*
X0653900Y0226021D02*
X0622395Y0226021D01*
X0622401Y0225629D02*
X0653907Y0225629D01*
X0653913Y0225237D02*
X0622407Y0225237D01*
X0622413Y0224845D02*
X0653919Y0224845D01*
X0653926Y0224452D02*
X0622419Y0224452D01*
X0622425Y0224060D02*
X0653932Y0224060D01*
X0653938Y0223668D02*
X0622431Y0223668D01*
X0622437Y0223276D02*
X0653945Y0223276D01*
X0653951Y0222883D02*
X0622444Y0222883D01*
X0622450Y0222491D02*
X0653957Y0222491D01*
X0653964Y0222099D02*
X0622456Y0222099D01*
X0622462Y0221707D02*
X0653970Y0221707D01*
X0653976Y0221315D02*
X0622468Y0221315D01*
X0622474Y0220922D02*
X0653983Y0220922D01*
X0653989Y0220530D02*
X0622480Y0220530D01*
X0622486Y0220138D02*
X0653995Y0220138D01*
X0654001Y0219746D02*
X0622493Y0219746D01*
X0622499Y0219354D02*
X0654008Y0219354D01*
X0654014Y0218961D02*
X0622505Y0218961D01*
X0622511Y0218569D02*
X0654020Y0218569D01*
X0654027Y0218177D02*
X0622517Y0218177D01*
X0622523Y0217785D02*
X0654033Y0217785D01*
X0654039Y0217392D02*
X0622529Y0217392D01*
X0622535Y0217000D02*
X0654046Y0217000D01*
X0654052Y0216608D02*
X0622542Y0216608D01*
X0622548Y0216216D02*
X0654058Y0216216D01*
X0654065Y0215824D02*
X0622554Y0215824D01*
X0622560Y0215431D02*
X0654071Y0215431D01*
X0654077Y0215039D02*
X0622566Y0215039D01*
X0622572Y0214647D02*
X0654084Y0214647D01*
X0654090Y0214255D02*
X0622578Y0214255D01*
X0622585Y0213863D02*
X0654096Y0213863D01*
X0654103Y0213470D02*
X0622591Y0213470D01*
X0622597Y0213078D02*
X0654109Y0213078D01*
X0654115Y0212686D02*
X0622603Y0212686D01*
X0622609Y0212294D02*
X0654122Y0212294D01*
X0654128Y0211902D02*
X0622615Y0211902D01*
X0622621Y0211509D02*
X0654134Y0211509D01*
X0654141Y0211117D02*
X0622627Y0211117D01*
X0622634Y0210725D02*
X0654147Y0210725D01*
X0654153Y0210333D02*
X0622640Y0210333D01*
X0622646Y0209940D02*
X0654160Y0209940D01*
X0654166Y0209548D02*
X0622652Y0209548D01*
X0622658Y0209156D02*
X0654172Y0209156D01*
X0654179Y0208764D02*
X0622664Y0208764D01*
X0622670Y0208372D02*
X0654180Y0208372D01*
X0654179Y0207979D02*
X0622676Y0207979D01*
X0622683Y0207587D02*
X0654178Y0207587D01*
X0654177Y0207195D02*
X0622675Y0207195D01*
X0622658Y0206803D02*
X0654176Y0206803D01*
X0654175Y0206411D02*
X0622641Y0206411D01*
X0622625Y0206018D02*
X0654174Y0206018D01*
X0654172Y0205626D02*
X0622608Y0205626D01*
X0622591Y0205234D02*
X0654171Y0205234D01*
X0654170Y0204842D02*
X0622574Y0204842D01*
X0622557Y0204449D02*
X0654169Y0204449D01*
X0654168Y0204057D02*
X0622497Y0204057D01*
X0622434Y0203665D02*
X0654167Y0203665D01*
X0654166Y0203273D02*
X0622371Y0203273D01*
X0622308Y0202881D02*
X0654162Y0202881D01*
X0654121Y0202488D02*
X0622245Y0202488D01*
X0622182Y0202096D02*
X0654079Y0202096D01*
X0654037Y0201704D02*
X0622118Y0201704D01*
X0622038Y0201312D02*
X0653996Y0201312D01*
X0653954Y0200920D02*
X0621926Y0200920D01*
X0621815Y0200527D02*
X0653912Y0200527D01*
X0653871Y0200135D02*
X0621704Y0200135D01*
X0621593Y0199743D02*
X0653829Y0199743D01*
X0653788Y0199351D02*
X0621481Y0199351D01*
X0621370Y0198959D02*
X0653746Y0198959D01*
X0653704Y0198566D02*
X0621259Y0198566D01*
X0621097Y0198174D02*
X0653663Y0198174D01*
X0653621Y0197782D02*
X0620934Y0197782D01*
X0620771Y0197390D02*
X0653580Y0197390D01*
X0653514Y0196997D02*
X0620609Y0196997D01*
X0620446Y0196605D02*
X0653431Y0196605D01*
X0653348Y0196213D02*
X0620283Y0196213D01*
X0620120Y0195821D02*
X0653265Y0195821D01*
X0653182Y0195429D02*
X0619906Y0195429D01*
X0619687Y0195036D02*
X0653099Y0195036D01*
X0653016Y0194644D02*
X0619467Y0194644D01*
X0619248Y0194252D02*
X0652933Y0194252D01*
X0652850Y0193860D02*
X0619029Y0193860D01*
X0618809Y0193468D02*
X0652767Y0193468D01*
X0652684Y0193075D02*
X0618576Y0193075D01*
X0618292Y0192683D02*
X0652601Y0192683D01*
X0652518Y0192291D02*
X0618008Y0192291D01*
X0617723Y0191899D02*
X0652435Y0191899D01*
X0652337Y0191506D02*
X0617439Y0191506D01*
X0617155Y0191114D02*
X0652211Y0191114D01*
X0652084Y0190722D02*
X0616871Y0190722D01*
X0616510Y0190330D02*
X0651958Y0190330D01*
X0651832Y0189938D02*
X0616149Y0189938D01*
X0615788Y0189545D02*
X0651706Y0189545D01*
X0651580Y0189153D02*
X0615427Y0189153D01*
X0615067Y0188761D02*
X0651453Y0188761D01*
X0651327Y0188369D02*
X0614671Y0188369D01*
X0614215Y0187977D02*
X0651201Y0187977D01*
X0651075Y0187584D02*
X0613759Y0187584D01*
X0613303Y0187192D02*
X0650949Y0187192D01*
X0650822Y0186800D02*
X0612847Y0186800D01*
X0612346Y0186408D02*
X0650696Y0186408D01*
X0650547Y0186016D02*
X0611764Y0186016D01*
X0611183Y0185623D02*
X0650375Y0185623D01*
X0650202Y0185231D02*
X0610601Y0185231D01*
X0610007Y0184839D02*
X0650030Y0184839D01*
X0649857Y0184447D02*
X0609247Y0184447D01*
X0608487Y0184054D02*
X0649685Y0184054D01*
X0649513Y0183662D02*
X0607728Y0183662D01*
X0606811Y0183270D02*
X0649340Y0183270D01*
X0649168Y0182878D02*
X0605768Y0182878D01*
X0604725Y0182486D02*
X0648996Y0182486D01*
X0648823Y0182093D02*
X0600563Y0182093D01*
X0595878Y0181701D02*
X0648651Y0181701D01*
X0648479Y0181309D02*
X0591192Y0181309D01*
X0586506Y0180917D02*
X0648297Y0180917D01*
X0648074Y0180525D02*
X0581820Y0180525D01*
X0577134Y0180132D02*
X0647851Y0180132D01*
X0647628Y0179740D02*
X0572448Y0179740D01*
X0567762Y0179348D02*
X0647405Y0179348D01*
X0647182Y0178956D02*
X0563076Y0178956D01*
X0559783Y0178563D02*
X0646959Y0178563D01*
X0646737Y0178171D02*
X0559451Y0178171D01*
X0559119Y0177779D02*
X0646514Y0177779D01*
X0646291Y0177387D02*
X0558786Y0177387D01*
X0558454Y0176995D02*
X0646068Y0176995D01*
X0645845Y0176602D02*
X0558121Y0176602D01*
X0557789Y0176210D02*
X0645622Y0176210D01*
X0645369Y0175818D02*
X0557457Y0175818D01*
X0557124Y0175426D02*
X0645089Y0175426D01*
X0644809Y0175034D02*
X0556792Y0175034D01*
X0556460Y0174641D02*
X0644529Y0174641D01*
X0644250Y0174249D02*
X0556127Y0174249D01*
X0555795Y0173857D02*
X0643970Y0173857D01*
X0643690Y0173465D02*
X0555462Y0173465D01*
X0555130Y0173073D02*
X0643410Y0173073D01*
X0643131Y0172680D02*
X0554798Y0172680D01*
X0554465Y0172288D02*
X0642851Y0172288D01*
X0642571Y0171896D02*
X0554133Y0171896D01*
X0553801Y0171504D02*
X0642291Y0171504D01*
X0641966Y0171111D02*
X0553468Y0171111D01*
X0553136Y0170719D02*
X0641620Y0170719D01*
X0641275Y0170327D02*
X0552803Y0170327D01*
X0552471Y0169935D02*
X0640929Y0169935D01*
X0640583Y0169543D02*
X0552139Y0169543D01*
X0551806Y0169150D02*
X0640238Y0169150D01*
X0639892Y0168758D02*
X0551474Y0168758D01*
X0551141Y0168366D02*
X0639546Y0168366D01*
X0639201Y0167974D02*
X0550809Y0167974D01*
X0550477Y0167582D02*
X0638855Y0167582D01*
X0638509Y0167189D02*
X0550144Y0167189D01*
X0550047Y0166797D02*
X0638103Y0166797D01*
X0637678Y0166405D02*
X0550047Y0166405D01*
X0550047Y0166013D02*
X0637253Y0166013D01*
X0636829Y0165620D02*
X0550047Y0165620D01*
X0550047Y0165228D02*
X0636404Y0165228D01*
X0635979Y0164836D02*
X0550047Y0164836D01*
X0550047Y0164444D02*
X0635554Y0164444D01*
X0635130Y0164052D02*
X0550047Y0164052D01*
X0550047Y0163659D02*
X0634705Y0163659D01*
X0634280Y0163267D02*
X0550047Y0163267D01*
X0550047Y0162875D02*
X0633766Y0162875D01*
X0633243Y0162483D02*
X0550047Y0162483D01*
X0550047Y0162091D02*
X0632719Y0162091D01*
X0632195Y0161698D02*
X0550047Y0161698D01*
X0550047Y0161306D02*
X0631671Y0161306D01*
X0631148Y0160914D02*
X0550047Y0160914D01*
X0550047Y0160522D02*
X0630624Y0160522D01*
X0630100Y0160130D02*
X0550047Y0160130D01*
X0550047Y0159737D02*
X0629553Y0159737D01*
X0628899Y0159345D02*
X0550047Y0159345D01*
X0550047Y0158953D02*
X0628245Y0158953D01*
X0627591Y0158561D02*
X0550047Y0158561D01*
X0550047Y0158168D02*
X0626936Y0158168D01*
X0626282Y0157776D02*
X0550047Y0157776D01*
X0550047Y0157384D02*
X0625628Y0157384D01*
X0624973Y0156992D02*
X0550091Y0156992D01*
X0550483Y0156600D02*
X0624190Y0156600D01*
X0623351Y0156207D02*
X0550875Y0156207D01*
X0551268Y0155815D02*
X0622512Y0155815D01*
X0621673Y0155423D02*
X0551660Y0155423D01*
X0552052Y0155031D02*
X0620834Y0155031D01*
X0619995Y0154639D02*
X0552444Y0154639D01*
X0552836Y0154246D02*
X0619001Y0154246D01*
X0617872Y0153854D02*
X0553229Y0153854D01*
X0553621Y0153462D02*
X0616743Y0153462D01*
X0615615Y0153070D02*
X0554013Y0153070D01*
X0554405Y0152677D02*
X0614486Y0152677D01*
X0612952Y0152285D02*
X0554797Y0152285D01*
X0555190Y0151893D02*
X0611289Y0151893D01*
X0609626Y0151501D02*
X0555582Y0151501D01*
X0555974Y0151109D02*
X0607393Y0151109D01*
X0604366Y0150716D02*
X0556366Y0150716D01*
X0556758Y0150324D02*
X0600228Y0150324D01*
X0595175Y0149932D02*
X0557151Y0149932D01*
X0557543Y0149540D02*
X0590123Y0149540D01*
X0585070Y0149148D02*
X0557935Y0149148D01*
X0558327Y0148755D02*
X0580018Y0148755D01*
X0574965Y0148363D02*
X0558720Y0148363D01*
X0559112Y0147971D02*
X0569912Y0147971D01*
X0564860Y0147579D02*
X0559504Y0147579D01*
X0540402Y0156445D02*
X0530362Y0145224D01*
X0465598Y0142075D01*
X0460838Y0142394D01*
X0456133Y0143190D01*
X0451532Y0144453D01*
X0447081Y0146171D01*
X0442825Y0148328D01*
X0438807Y0150900D01*
X0435067Y0153863D01*
X0431643Y0157186D01*
X0428569Y0160835D01*
X0425878Y0164775D01*
X0423595Y0168964D01*
X0421743Y0173362D01*
X0420343Y0177923D01*
X0419407Y0182602D01*
X0418945Y0187350D01*
X0418117Y0199578D01*
X0416780Y0211760D01*
X0426425Y0223374D01*
X0435874Y0224752D01*
X0448079Y0216287D01*
X0450244Y0188925D01*
X0450883Y0186567D01*
X0451820Y0184311D01*
X0453039Y0182195D01*
X0454521Y0180252D01*
X0456240Y0178517D01*
X0458168Y0177017D01*
X0460274Y0175778D01*
X0462521Y0174820D01*
X0464872Y0174159D01*
X0467290Y0173806D01*
X0469732Y0173768D01*
X0530362Y0176720D01*
X0540402Y0166091D01*
X0540402Y0156445D01*
X0540402Y0156600D02*
X0432246Y0156600D01*
X0431842Y0156992D02*
X0540402Y0156992D01*
X0540402Y0157384D02*
X0431476Y0157384D01*
X0431145Y0157776D02*
X0540402Y0157776D01*
X0540402Y0158168D02*
X0430815Y0158168D01*
X0430485Y0158561D02*
X0540402Y0158561D01*
X0540402Y0158953D02*
X0430154Y0158953D01*
X0429824Y0159345D02*
X0540402Y0159345D01*
X0540402Y0159737D02*
X0429494Y0159737D01*
X0429164Y0160130D02*
X0540402Y0160130D01*
X0540402Y0160522D02*
X0428833Y0160522D01*
X0428515Y0160914D02*
X0540402Y0160914D01*
X0540402Y0161306D02*
X0428247Y0161306D01*
X0427980Y0161698D02*
X0540402Y0161698D01*
X0540402Y0162091D02*
X0427712Y0162091D01*
X0427444Y0162483D02*
X0540402Y0162483D01*
X0540402Y0162875D02*
X0427176Y0162875D01*
X0426908Y0163267D02*
X0540402Y0163267D01*
X0540402Y0163659D02*
X0426640Y0163659D01*
X0426372Y0164052D02*
X0540402Y0164052D01*
X0540402Y0164444D02*
X0426104Y0164444D01*
X0425844Y0164836D02*
X0540402Y0164836D01*
X0540402Y0165228D02*
X0425630Y0165228D01*
X0425417Y0165620D02*
X0540402Y0165620D01*
X0540402Y0166013D02*
X0425203Y0166013D01*
X0424989Y0166405D02*
X0540105Y0166405D01*
X0539734Y0166797D02*
X0424776Y0166797D01*
X0424562Y0167189D02*
X0539364Y0167189D01*
X0538993Y0167582D02*
X0424348Y0167582D01*
X0424134Y0167974D02*
X0538623Y0167974D01*
X0538253Y0168366D02*
X0423921Y0168366D01*
X0423707Y0168758D02*
X0537882Y0168758D01*
X0537512Y0169150D02*
X0423516Y0169150D01*
X0423351Y0169543D02*
X0537141Y0169543D01*
X0536771Y0169935D02*
X0423186Y0169935D01*
X0423021Y0170327D02*
X0536400Y0170327D01*
X0536030Y0170719D02*
X0422856Y0170719D01*
X0422691Y0171111D02*
X0535660Y0171111D01*
X0535289Y0171504D02*
X0422526Y0171504D01*
X0422361Y0171896D02*
X0534919Y0171896D01*
X0534548Y0172288D02*
X0422195Y0172288D01*
X0422030Y0172680D02*
X0534178Y0172680D01*
X0533808Y0173073D02*
X0421865Y0173073D01*
X0421712Y0173465D02*
X0533437Y0173465D01*
X0533067Y0173857D02*
X0471564Y0173857D01*
X0466944Y0173857D02*
X0421591Y0173857D01*
X0421471Y0174249D02*
X0464552Y0174249D01*
X0463156Y0174641D02*
X0421351Y0174641D01*
X0421230Y0175034D02*
X0462020Y0175034D01*
X0461100Y0175426D02*
X0421110Y0175426D01*
X0420989Y0175818D02*
X0460206Y0175818D01*
X0459539Y0176210D02*
X0420869Y0176210D01*
X0420748Y0176602D02*
X0458873Y0176602D01*
X0458207Y0176995D02*
X0420628Y0176995D01*
X0420507Y0177387D02*
X0457693Y0177387D01*
X0457189Y0177779D02*
X0420387Y0177779D01*
X0420293Y0178171D02*
X0456684Y0178171D01*
X0456194Y0178563D02*
X0420215Y0178563D01*
X0420136Y0178956D02*
X0455805Y0178956D01*
X0455417Y0179348D02*
X0420058Y0179348D01*
X0419979Y0179740D02*
X0455028Y0179740D01*
X0454640Y0180132D02*
X0419901Y0180132D01*
X0419822Y0180525D02*
X0454313Y0180525D01*
X0454014Y0180917D02*
X0419744Y0180917D01*
X0419665Y0181309D02*
X0453715Y0181309D01*
X0453416Y0181701D02*
X0419587Y0181701D01*
X0419508Y0182093D02*
X0453116Y0182093D01*
X0452871Y0182486D02*
X0419430Y0182486D01*
X0419380Y0182878D02*
X0452646Y0182878D01*
X0452420Y0183270D02*
X0419342Y0183270D01*
X0419304Y0183662D02*
X0452194Y0183662D01*
X0451968Y0184054D02*
X0419265Y0184054D01*
X0419227Y0184447D02*
X0451764Y0184447D01*
X0451601Y0184839D02*
X0419189Y0184839D01*
X0419151Y0185231D02*
X0451438Y0185231D01*
X0451275Y0185623D02*
X0419113Y0185623D01*
X0419075Y0186016D02*
X0451112Y0186016D01*
X0450949Y0186408D02*
X0419037Y0186408D01*
X0418998Y0186800D02*
X0450820Y0186800D01*
X0450714Y0187192D02*
X0418960Y0187192D01*
X0418929Y0187584D02*
X0450607Y0187584D01*
X0450501Y0187977D02*
X0418902Y0187977D01*
X0418876Y0188369D02*
X0450395Y0188369D01*
X0450289Y0188761D02*
X0418849Y0188761D01*
X0418823Y0189153D02*
X0450226Y0189153D01*
X0450195Y0189545D02*
X0418796Y0189545D01*
X0418770Y0189938D02*
X0450164Y0189938D01*
X0450133Y0190330D02*
X0418743Y0190330D01*
X0418717Y0190722D02*
X0450102Y0190722D01*
X0450071Y0191114D02*
X0418690Y0191114D01*
X0418664Y0191506D02*
X0450040Y0191506D01*
X0450009Y0191899D02*
X0418637Y0191899D01*
X0418610Y0192291D02*
X0449978Y0192291D01*
X0449947Y0192683D02*
X0418584Y0192683D01*
X0418557Y0193075D02*
X0449916Y0193075D01*
X0449885Y0193468D02*
X0418531Y0193468D01*
X0418504Y0193860D02*
X0449854Y0193860D01*
X0449823Y0194252D02*
X0418478Y0194252D01*
X0418451Y0194644D02*
X0449792Y0194644D01*
X0449760Y0195036D02*
X0418425Y0195036D01*
X0418398Y0195429D02*
X0449729Y0195429D01*
X0449698Y0195821D02*
X0418371Y0195821D01*
X0418345Y0196213D02*
X0449667Y0196213D01*
X0449636Y0196605D02*
X0418318Y0196605D01*
X0418292Y0196997D02*
X0449605Y0196997D01*
X0449574Y0197390D02*
X0418265Y0197390D01*
X0418239Y0197782D02*
X0449543Y0197782D01*
X0449512Y0198174D02*
X0418212Y0198174D01*
X0418186Y0198566D02*
X0449481Y0198566D01*
X0449450Y0198959D02*
X0418159Y0198959D01*
X0418132Y0199351D02*
X0449419Y0199351D01*
X0449388Y0199743D02*
X0418099Y0199743D01*
X0418056Y0200135D02*
X0449357Y0200135D01*
X0449326Y0200527D02*
X0418013Y0200527D01*
X0417970Y0200920D02*
X0449295Y0200920D01*
X0449264Y0201312D02*
X0417927Y0201312D01*
X0417884Y0201704D02*
X0449233Y0201704D01*
X0449202Y0202096D02*
X0417841Y0202096D01*
X0417797Y0202488D02*
X0449171Y0202488D01*
X0449140Y0202881D02*
X0417754Y0202881D01*
X0417711Y0203273D02*
X0449109Y0203273D01*
X0449078Y0203665D02*
X0417668Y0203665D01*
X0417625Y0204057D02*
X0449047Y0204057D01*
X0449016Y0204449D02*
X0417582Y0204449D01*
X0417539Y0204842D02*
X0448985Y0204842D01*
X0448953Y0205234D02*
X0417496Y0205234D01*
X0417453Y0205626D02*
X0448922Y0205626D01*
X0448891Y0206018D02*
X0417410Y0206018D01*
X0417367Y0206411D02*
X0448860Y0206411D01*
X0448829Y0206803D02*
X0417324Y0206803D01*
X0417281Y0207195D02*
X0448798Y0207195D01*
X0448767Y0207587D02*
X0417238Y0207587D01*
X0417195Y0207979D02*
X0448736Y0207979D01*
X0448705Y0208372D02*
X0417152Y0208372D01*
X0417108Y0208764D02*
X0448674Y0208764D01*
X0448643Y0209156D02*
X0417065Y0209156D01*
X0417022Y0209548D02*
X0448612Y0209548D01*
X0448581Y0209940D02*
X0416979Y0209940D01*
X0416936Y0210333D02*
X0448550Y0210333D01*
X0448519Y0210725D02*
X0416893Y0210725D01*
X0416850Y0211117D02*
X0448488Y0211117D01*
X0448457Y0211509D02*
X0416807Y0211509D01*
X0416897Y0211902D02*
X0448426Y0211902D01*
X0448395Y0212294D02*
X0417223Y0212294D01*
X0417549Y0212686D02*
X0448364Y0212686D01*
X0448333Y0213078D02*
X0417874Y0213078D01*
X0418200Y0213470D02*
X0448302Y0213470D01*
X0448271Y0213863D02*
X0418526Y0213863D01*
X0418852Y0214255D02*
X0448240Y0214255D01*
X0448209Y0214647D02*
X0419177Y0214647D01*
X0419503Y0215039D02*
X0448178Y0215039D01*
X0448146Y0215431D02*
X0419829Y0215431D01*
X0420155Y0215824D02*
X0448115Y0215824D01*
X0448084Y0216216D02*
X0420480Y0216216D01*
X0420806Y0216608D02*
X0447616Y0216608D01*
X0447051Y0217000D02*
X0421132Y0217000D01*
X0421457Y0217392D02*
X0446485Y0217392D01*
X0445920Y0217785D02*
X0421783Y0217785D01*
X0422109Y0218177D02*
X0445354Y0218177D01*
X0444789Y0218569D02*
X0422435Y0218569D01*
X0422760Y0218961D02*
X0444223Y0218961D01*
X0443658Y0219354D02*
X0423086Y0219354D01*
X0423412Y0219746D02*
X0443092Y0219746D01*
X0442527Y0220138D02*
X0423738Y0220138D01*
X0424063Y0220530D02*
X0441961Y0220530D01*
X0441396Y0220922D02*
X0424389Y0220922D01*
X0424715Y0221315D02*
X0440830Y0221315D01*
X0440265Y0221707D02*
X0425041Y0221707D01*
X0425366Y0222099D02*
X0439699Y0222099D01*
X0439134Y0222491D02*
X0425692Y0222491D01*
X0426018Y0222883D02*
X0438568Y0222883D01*
X0438003Y0223276D02*
X0426344Y0223276D01*
X0428440Y0223668D02*
X0437437Y0223668D01*
X0436872Y0224060D02*
X0431130Y0224060D01*
X0433819Y0224452D02*
X0436306Y0224452D01*
X0434693Y0234201D02*
X0425441Y0232823D01*
X0413039Y0241287D01*
X0403394Y0307232D01*
X0403394Y0308217D01*
X0403439Y0308677D01*
X0403574Y0309121D01*
X0403792Y0309529D01*
X0404086Y0309887D01*
X0404444Y0310181D01*
X0404852Y0310399D01*
X0405295Y0310533D01*
X0405756Y0310579D01*
X0431740Y0313531D01*
X0432331Y0313531D01*
X0432868Y0313479D01*
X0433385Y0313322D01*
X0433862Y0313067D01*
X0434279Y0312724D01*
X0434622Y0312307D01*
X0434877Y0311830D01*
X0435034Y0311313D01*
X0435087Y0310776D01*
X0444142Y0245815D01*
X0434693Y0234201D01*
X0434739Y0234258D02*
X0423339Y0234258D01*
X0422764Y0234650D02*
X0435058Y0234650D01*
X0435377Y0235042D02*
X0422190Y0235042D01*
X0421615Y0235434D02*
X0435696Y0235434D01*
X0436015Y0235826D02*
X0421040Y0235826D01*
X0420466Y0236219D02*
X0436335Y0236219D01*
X0436654Y0236611D02*
X0419891Y0236611D01*
X0419316Y0237003D02*
X0436973Y0237003D01*
X0437292Y0237395D02*
X0418742Y0237395D01*
X0418167Y0237787D02*
X0437611Y0237787D01*
X0437930Y0238180D02*
X0417593Y0238180D01*
X0417018Y0238572D02*
X0438249Y0238572D01*
X0438568Y0238964D02*
X0416443Y0238964D01*
X0415869Y0239356D02*
X0438887Y0239356D01*
X0439206Y0239749D02*
X0415294Y0239749D01*
X0414719Y0240141D02*
X0439525Y0240141D01*
X0439845Y0240533D02*
X0414145Y0240533D01*
X0413570Y0240925D02*
X0440164Y0240925D01*
X0440483Y0241317D02*
X0413035Y0241317D01*
X0412978Y0241710D02*
X0440802Y0241710D01*
X0441121Y0242102D02*
X0412920Y0242102D01*
X0412863Y0242494D02*
X0441440Y0242494D01*
X0441759Y0242886D02*
X0412806Y0242886D01*
X0412748Y0243278D02*
X0442078Y0243278D01*
X0442397Y0243671D02*
X0412691Y0243671D01*
X0412633Y0244063D02*
X0442716Y0244063D01*
X0443035Y0244455D02*
X0412576Y0244455D01*
X0412519Y0244847D02*
X0443355Y0244847D01*
X0443674Y0245240D02*
X0412461Y0245240D01*
X0412404Y0245632D02*
X0443993Y0245632D01*
X0444113Y0246024D02*
X0412347Y0246024D01*
X0412289Y0246416D02*
X0444058Y0246416D01*
X0444003Y0246808D02*
X0412232Y0246808D01*
X0412174Y0247201D02*
X0443949Y0247201D01*
X0443894Y0247593D02*
X0412117Y0247593D01*
X0412060Y0247985D02*
X0443839Y0247985D01*
X0443785Y0248377D02*
X0412002Y0248377D01*
X0411945Y0248769D02*
X0443730Y0248769D01*
X0443675Y0249162D02*
X0411888Y0249162D01*
X0411830Y0249554D02*
X0443621Y0249554D01*
X0443566Y0249946D02*
X0411773Y0249946D01*
X0411716Y0250338D02*
X0443511Y0250338D01*
X0443457Y0250730D02*
X0411658Y0250730D01*
X0411601Y0251123D02*
X0443402Y0251123D01*
X0443347Y0251515D02*
X0411543Y0251515D01*
X0411486Y0251907D02*
X0443293Y0251907D01*
X0443238Y0252299D02*
X0411429Y0252299D01*
X0411371Y0252692D02*
X0443183Y0252692D01*
X0443128Y0253084D02*
X0411314Y0253084D01*
X0411257Y0253476D02*
X0443074Y0253476D01*
X0443019Y0253868D02*
X0411199Y0253868D01*
X0411142Y0254260D02*
X0442964Y0254260D01*
X0442910Y0254653D02*
X0411084Y0254653D01*
X0411027Y0255045D02*
X0442855Y0255045D01*
X0442800Y0255437D02*
X0410970Y0255437D01*
X0410912Y0255829D02*
X0442746Y0255829D01*
X0442691Y0256221D02*
X0410855Y0256221D01*
X0410798Y0256614D02*
X0442636Y0256614D01*
X0442582Y0257006D02*
X0410740Y0257006D01*
X0410683Y0257398D02*
X0442527Y0257398D01*
X0442472Y0257790D02*
X0410626Y0257790D01*
X0410568Y0258183D02*
X0442418Y0258183D01*
X0442363Y0258575D02*
X0410511Y0258575D01*
X0410453Y0258967D02*
X0442308Y0258967D01*
X0442254Y0259359D02*
X0410396Y0259359D01*
X0410339Y0259751D02*
X0442199Y0259751D01*
X0442144Y0260144D02*
X0410281Y0260144D01*
X0410224Y0260536D02*
X0442090Y0260536D01*
X0442035Y0260928D02*
X0410167Y0260928D01*
X0410109Y0261320D02*
X0441980Y0261320D01*
X0441926Y0261712D02*
X0410052Y0261712D01*
X0409994Y0262105D02*
X0441871Y0262105D01*
X0441816Y0262497D02*
X0409937Y0262497D01*
X0409880Y0262889D02*
X0441762Y0262889D01*
X0441707Y0263281D02*
X0409822Y0263281D01*
X0409765Y0263673D02*
X0441652Y0263673D01*
X0441598Y0264066D02*
X0409708Y0264066D01*
X0409650Y0264458D02*
X0441543Y0264458D01*
X0441488Y0264850D02*
X0409593Y0264850D01*
X0409536Y0265242D02*
X0441434Y0265242D01*
X0441379Y0265635D02*
X0409478Y0265635D01*
X0409421Y0266027D02*
X0441324Y0266027D01*
X0441270Y0266419D02*
X0409363Y0266419D01*
X0409306Y0266811D02*
X0441215Y0266811D01*
X0441160Y0267203D02*
X0409249Y0267203D01*
X0409191Y0267596D02*
X0441106Y0267596D01*
X0441051Y0267988D02*
X0409134Y0267988D01*
X0409077Y0268380D02*
X0440996Y0268380D01*
X0440942Y0268772D02*
X0409019Y0268772D01*
X0408962Y0269164D02*
X0440887Y0269164D01*
X0440832Y0269557D02*
X0408904Y0269557D01*
X0408847Y0269949D02*
X0440778Y0269949D01*
X0440723Y0270341D02*
X0408790Y0270341D01*
X0408732Y0270733D02*
X0440668Y0270733D01*
X0440614Y0271126D02*
X0408675Y0271126D01*
X0408618Y0271518D02*
X0440559Y0271518D01*
X0440504Y0271910D02*
X0408560Y0271910D01*
X0408503Y0272302D02*
X0440450Y0272302D01*
X0440395Y0272694D02*
X0408446Y0272694D01*
X0408388Y0273087D02*
X0440340Y0273087D01*
X0440286Y0273479D02*
X0408331Y0273479D01*
X0408273Y0273871D02*
X0440231Y0273871D01*
X0440176Y0274263D02*
X0408216Y0274263D01*
X0408159Y0274655D02*
X0440122Y0274655D01*
X0440067Y0275048D02*
X0408101Y0275048D01*
X0408044Y0275440D02*
X0440012Y0275440D01*
X0439958Y0275832D02*
X0407987Y0275832D01*
X0407929Y0276224D02*
X0439903Y0276224D01*
X0439848Y0276616D02*
X0407872Y0276616D01*
X0407814Y0277009D02*
X0439794Y0277009D01*
X0439739Y0277401D02*
X0407757Y0277401D01*
X0407700Y0277793D02*
X0439684Y0277793D01*
X0439629Y0278185D02*
X0407642Y0278185D01*
X0407585Y0278578D02*
X0439575Y0278578D01*
X0439520Y0278970D02*
X0407528Y0278970D01*
X0407470Y0279362D02*
X0439465Y0279362D01*
X0439411Y0279754D02*
X0407413Y0279754D01*
X0407356Y0280146D02*
X0439356Y0280146D01*
X0439301Y0280539D02*
X0407298Y0280539D01*
X0407241Y0280931D02*
X0439247Y0280931D01*
X0439192Y0281323D02*
X0407183Y0281323D01*
X0407126Y0281715D02*
X0439137Y0281715D01*
X0439083Y0282107D02*
X0407069Y0282107D01*
X0407011Y0282500D02*
X0439028Y0282500D01*
X0438973Y0282892D02*
X0406954Y0282892D01*
X0406897Y0283284D02*
X0438919Y0283284D01*
X0438864Y0283676D02*
X0406839Y0283676D01*
X0406782Y0284069D02*
X0438809Y0284069D01*
X0438755Y0284461D02*
X0406724Y0284461D01*
X0406667Y0284853D02*
X0438700Y0284853D01*
X0438645Y0285245D02*
X0406610Y0285245D01*
X0406552Y0285637D02*
X0438591Y0285637D01*
X0438536Y0286030D02*
X0406495Y0286030D01*
X0406438Y0286422D02*
X0438481Y0286422D01*
X0438427Y0286814D02*
X0406380Y0286814D01*
X0406323Y0287206D02*
X0438372Y0287206D01*
X0438317Y0287598D02*
X0406266Y0287598D01*
X0406208Y0287991D02*
X0438263Y0287991D01*
X0438208Y0288383D02*
X0406151Y0288383D01*
X0406093Y0288775D02*
X0438153Y0288775D01*
X0438099Y0289167D02*
X0406036Y0289167D01*
X0405979Y0289559D02*
X0438044Y0289559D01*
X0437989Y0289952D02*
X0405921Y0289952D01*
X0405864Y0290344D02*
X0437935Y0290344D01*
X0437880Y0290736D02*
X0405807Y0290736D01*
X0405749Y0291128D02*
X0437825Y0291128D01*
X0437771Y0291521D02*
X0405692Y0291521D01*
X0405634Y0291913D02*
X0437716Y0291913D01*
X0437661Y0292305D02*
X0405577Y0292305D01*
X0405520Y0292697D02*
X0437607Y0292697D01*
X0437552Y0293089D02*
X0405462Y0293089D01*
X0405405Y0293482D02*
X0437497Y0293482D01*
X0437443Y0293874D02*
X0405348Y0293874D01*
X0405290Y0294266D02*
X0437388Y0294266D01*
X0437333Y0294658D02*
X0405233Y0294658D01*
X0405176Y0295050D02*
X0437279Y0295050D01*
X0437224Y0295443D02*
X0405118Y0295443D01*
X0405061Y0295835D02*
X0437169Y0295835D01*
X0437115Y0296227D02*
X0405003Y0296227D01*
X0404946Y0296619D02*
X0437060Y0296619D01*
X0437005Y0297012D02*
X0404889Y0297012D01*
X0404831Y0297404D02*
X0436951Y0297404D01*
X0436896Y0297796D02*
X0404774Y0297796D01*
X0404717Y0298188D02*
X0436841Y0298188D01*
X0436787Y0298580D02*
X0404659Y0298580D01*
X0404602Y0298973D02*
X0436732Y0298973D01*
X0436677Y0299365D02*
X0404544Y0299365D01*
X0404487Y0299757D02*
X0436623Y0299757D01*
X0436568Y0300149D02*
X0404430Y0300149D01*
X0404372Y0300541D02*
X0436513Y0300541D01*
X0436459Y0300934D02*
X0404315Y0300934D01*
X0404258Y0301326D02*
X0436404Y0301326D01*
X0436349Y0301718D02*
X0404200Y0301718D01*
X0404143Y0302110D02*
X0436295Y0302110D01*
X0436240Y0302502D02*
X0404086Y0302502D01*
X0404028Y0302895D02*
X0436185Y0302895D01*
X0436130Y0303287D02*
X0403971Y0303287D01*
X0403913Y0303679D02*
X0436076Y0303679D01*
X0436021Y0304071D02*
X0403856Y0304071D01*
X0403799Y0304464D02*
X0435966Y0304464D01*
X0435912Y0304856D02*
X0403741Y0304856D01*
X0403684Y0305248D02*
X0435857Y0305248D01*
X0435802Y0305640D02*
X0403627Y0305640D01*
X0403569Y0306032D02*
X0435748Y0306032D01*
X0435693Y0306425D02*
X0403512Y0306425D01*
X0403454Y0306817D02*
X0435638Y0306817D01*
X0435584Y0307209D02*
X0403397Y0307209D01*
X0403394Y0307601D02*
X0435529Y0307601D01*
X0435474Y0307993D02*
X0403394Y0307993D01*
X0403410Y0308386D02*
X0435420Y0308386D01*
X0435365Y0308778D02*
X0403470Y0308778D01*
X0403600Y0309170D02*
X0435310Y0309170D01*
X0435256Y0309562D02*
X0403819Y0309562D01*
X0404168Y0309955D02*
X0435201Y0309955D01*
X0435146Y0310347D02*
X0404754Y0310347D01*
X0407166Y0310739D02*
X0435092Y0310739D01*
X0435052Y0311131D02*
X0410617Y0311131D01*
X0414069Y0311523D02*
X0434970Y0311523D01*
X0434831Y0311916D02*
X0417520Y0311916D01*
X0420972Y0312308D02*
X0434621Y0312308D01*
X0434299Y0312700D02*
X0424423Y0312700D01*
X0427875Y0313092D02*
X0433815Y0313092D01*
X0432809Y0313484D02*
X0431326Y0313484D01*
X0430165Y0323177D02*
X0429969Y0323177D01*
X0404181Y0320224D01*
X0403620Y0320226D01*
X0403070Y0320337D01*
X0402551Y0320551D01*
X0402084Y0320861D01*
X0401685Y0321255D01*
X0401369Y0321719D01*
X0401148Y0322235D01*
X0401031Y0322783D01*
X0394535Y0380067D01*
X0402409Y0391484D01*
X0412055Y0393453D01*
X0425638Y0385382D01*
X0432528Y0325933D01*
X0432528Y0325539D01*
X0432482Y0325079D01*
X0432348Y0324635D01*
X0432129Y0324227D01*
X0431836Y0323869D01*
X0431478Y0323575D01*
X0431069Y0323357D01*
X0430626Y0323223D01*
X0430165Y0323177D01*
X0430848Y0323290D02*
X0400974Y0323290D01*
X0400930Y0323682D02*
X0431608Y0323682D01*
X0432004Y0324074D02*
X0400885Y0324074D01*
X0400841Y0324466D02*
X0432257Y0324466D01*
X0432415Y0324859D02*
X0400796Y0324859D01*
X0400752Y0325251D02*
X0432499Y0325251D01*
X0432528Y0325643D02*
X0400707Y0325643D01*
X0400663Y0326035D02*
X0432516Y0326035D01*
X0432470Y0326427D02*
X0400618Y0326427D01*
X0400574Y0326820D02*
X0432425Y0326820D01*
X0432379Y0327212D02*
X0400529Y0327212D01*
X0400485Y0327604D02*
X0432334Y0327604D01*
X0432288Y0327996D02*
X0400440Y0327996D01*
X0400396Y0328388D02*
X0432243Y0328388D01*
X0432198Y0328781D02*
X0400351Y0328781D01*
X0400307Y0329173D02*
X0432152Y0329173D01*
X0432107Y0329565D02*
X0400262Y0329565D01*
X0400218Y0329957D02*
X0432061Y0329957D01*
X0432016Y0330350D02*
X0400173Y0330350D01*
X0400129Y0330742D02*
X0431970Y0330742D01*
X0431925Y0331134D02*
X0400085Y0331134D01*
X0400040Y0331526D02*
X0431879Y0331526D01*
X0431834Y0331918D02*
X0399996Y0331918D01*
X0399951Y0332311D02*
X0431788Y0332311D01*
X0431743Y0332703D02*
X0399907Y0332703D01*
X0399862Y0333095D02*
X0431698Y0333095D01*
X0431652Y0333487D02*
X0399818Y0333487D01*
X0399773Y0333879D02*
X0431607Y0333879D01*
X0431561Y0334272D02*
X0399729Y0334272D01*
X0399684Y0334664D02*
X0431516Y0334664D01*
X0431470Y0335056D02*
X0399640Y0335056D01*
X0399595Y0335448D02*
X0431425Y0335448D01*
X0431379Y0335841D02*
X0399551Y0335841D01*
X0399506Y0336233D02*
X0431334Y0336233D01*
X0431288Y0336625D02*
X0399462Y0336625D01*
X0399417Y0337017D02*
X0431243Y0337017D01*
X0431198Y0337409D02*
X0399373Y0337409D01*
X0399328Y0337802D02*
X0431152Y0337802D01*
X0431107Y0338194D02*
X0399284Y0338194D01*
X0399239Y0338586D02*
X0431061Y0338586D01*
X0431016Y0338978D02*
X0399195Y0338978D01*
X0399151Y0339370D02*
X0430970Y0339370D01*
X0430925Y0339763D02*
X0399106Y0339763D01*
X0399062Y0340155D02*
X0430879Y0340155D01*
X0430834Y0340547D02*
X0399017Y0340547D01*
X0398973Y0340939D02*
X0430788Y0340939D01*
X0430743Y0341331D02*
X0398928Y0341331D01*
X0398884Y0341724D02*
X0430698Y0341724D01*
X0430652Y0342116D02*
X0398839Y0342116D01*
X0398795Y0342508D02*
X0430607Y0342508D01*
X0430561Y0342900D02*
X0398750Y0342900D01*
X0398706Y0343293D02*
X0430516Y0343293D01*
X0430470Y0343685D02*
X0398661Y0343685D01*
X0398617Y0344077D02*
X0430425Y0344077D01*
X0430379Y0344469D02*
X0398572Y0344469D01*
X0398528Y0344861D02*
X0430334Y0344861D01*
X0430288Y0345254D02*
X0398483Y0345254D01*
X0398439Y0345646D02*
X0430243Y0345646D01*
X0430198Y0346038D02*
X0398394Y0346038D01*
X0398350Y0346430D02*
X0430152Y0346430D01*
X0430107Y0346822D02*
X0398305Y0346822D01*
X0398261Y0347215D02*
X0430061Y0347215D01*
X0430016Y0347607D02*
X0398216Y0347607D01*
X0398172Y0347999D02*
X0429970Y0347999D01*
X0429925Y0348391D02*
X0398128Y0348391D01*
X0398083Y0348784D02*
X0429879Y0348784D01*
X0429834Y0349176D02*
X0398039Y0349176D01*
X0397994Y0349568D02*
X0429788Y0349568D01*
X0429743Y0349960D02*
X0397950Y0349960D01*
X0397905Y0350352D02*
X0429698Y0350352D01*
X0429652Y0350745D02*
X0397861Y0350745D01*
X0397816Y0351137D02*
X0429607Y0351137D01*
X0429561Y0351529D02*
X0397772Y0351529D01*
X0397727Y0351921D02*
X0429516Y0351921D01*
X0429470Y0352313D02*
X0397683Y0352313D01*
X0397638Y0352706D02*
X0429425Y0352706D01*
X0429379Y0353098D02*
X0397594Y0353098D01*
X0397549Y0353490D02*
X0429334Y0353490D01*
X0429288Y0353882D02*
X0397505Y0353882D01*
X0397460Y0354274D02*
X0429243Y0354274D01*
X0429197Y0354667D02*
X0397416Y0354667D01*
X0397371Y0355059D02*
X0429152Y0355059D01*
X0429107Y0355451D02*
X0397327Y0355451D01*
X0397282Y0355843D02*
X0429061Y0355843D01*
X0429016Y0356236D02*
X0397238Y0356236D01*
X0397193Y0356628D02*
X0428970Y0356628D01*
X0428925Y0357020D02*
X0397149Y0357020D01*
X0397105Y0357412D02*
X0428879Y0357412D01*
X0428834Y0357804D02*
X0397060Y0357804D01*
X0397016Y0358197D02*
X0428788Y0358197D01*
X0428743Y0358589D02*
X0396971Y0358589D01*
X0396927Y0358981D02*
X0428697Y0358981D01*
X0428652Y0359373D02*
X0396882Y0359373D01*
X0396838Y0359765D02*
X0428607Y0359765D01*
X0428561Y0360158D02*
X0396793Y0360158D01*
X0396749Y0360550D02*
X0428516Y0360550D01*
X0428470Y0360942D02*
X0396704Y0360942D01*
X0396660Y0361334D02*
X0428425Y0361334D01*
X0428379Y0361727D02*
X0396615Y0361727D01*
X0396571Y0362119D02*
X0428334Y0362119D01*
X0428288Y0362511D02*
X0396526Y0362511D01*
X0396482Y0362903D02*
X0428243Y0362903D01*
X0428197Y0363295D02*
X0396437Y0363295D01*
X0396393Y0363688D02*
X0428152Y0363688D01*
X0428107Y0364080D02*
X0396348Y0364080D01*
X0396304Y0364472D02*
X0428061Y0364472D01*
X0428016Y0364864D02*
X0396259Y0364864D01*
X0396215Y0365256D02*
X0427970Y0365256D01*
X0427925Y0365649D02*
X0396170Y0365649D01*
X0396126Y0366041D02*
X0427879Y0366041D01*
X0427834Y0366433D02*
X0396082Y0366433D01*
X0396037Y0366825D02*
X0427788Y0366825D01*
X0427743Y0367217D02*
X0395993Y0367217D01*
X0395948Y0367610D02*
X0427697Y0367610D01*
X0427652Y0368002D02*
X0395904Y0368002D01*
X0395859Y0368394D02*
X0427607Y0368394D01*
X0427561Y0368786D02*
X0395815Y0368786D01*
X0395770Y0369179D02*
X0427516Y0369179D01*
X0427470Y0369571D02*
X0395726Y0369571D01*
X0395681Y0369963D02*
X0427425Y0369963D01*
X0427379Y0370355D02*
X0395637Y0370355D01*
X0395592Y0370747D02*
X0427334Y0370747D01*
X0427288Y0371140D02*
X0395548Y0371140D01*
X0395503Y0371532D02*
X0427243Y0371532D01*
X0427197Y0371924D02*
X0395459Y0371924D01*
X0395414Y0372316D02*
X0427152Y0372316D01*
X0427107Y0372708D02*
X0395370Y0372708D01*
X0395325Y0373101D02*
X0427061Y0373101D01*
X0427016Y0373493D02*
X0395281Y0373493D01*
X0395236Y0373885D02*
X0426970Y0373885D01*
X0426925Y0374277D02*
X0395192Y0374277D01*
X0395148Y0374670D02*
X0426879Y0374670D01*
X0426834Y0375062D02*
X0395103Y0375062D01*
X0395059Y0375454D02*
X0426788Y0375454D01*
X0426743Y0375846D02*
X0395014Y0375846D01*
X0394970Y0376238D02*
X0426697Y0376238D01*
X0426652Y0376631D02*
X0394925Y0376631D01*
X0394881Y0377023D02*
X0426607Y0377023D01*
X0426561Y0377415D02*
X0394836Y0377415D01*
X0394792Y0377807D02*
X0426516Y0377807D01*
X0426470Y0378199D02*
X0394747Y0378199D01*
X0394703Y0378592D02*
X0426425Y0378592D01*
X0426379Y0378984D02*
X0394658Y0378984D01*
X0394614Y0379376D02*
X0426334Y0379376D01*
X0426288Y0379768D02*
X0394569Y0379768D01*
X0394600Y0380160D02*
X0426243Y0380160D01*
X0426197Y0380553D02*
X0394870Y0380553D01*
X0395141Y0380945D02*
X0426152Y0380945D01*
X0426107Y0381337D02*
X0395411Y0381337D01*
X0395682Y0381729D02*
X0426061Y0381729D01*
X0426016Y0382122D02*
X0395952Y0382122D01*
X0396223Y0382514D02*
X0425970Y0382514D01*
X0425925Y0382906D02*
X0396493Y0382906D01*
X0396764Y0383298D02*
X0425879Y0383298D01*
X0425834Y0383690D02*
X0397034Y0383690D01*
X0397305Y0384083D02*
X0425788Y0384083D01*
X0425743Y0384475D02*
X0397575Y0384475D01*
X0397846Y0384867D02*
X0425697Y0384867D01*
X0425652Y0385259D02*
X0398116Y0385259D01*
X0398387Y0385651D02*
X0425184Y0385651D01*
X0424524Y0386044D02*
X0398657Y0386044D01*
X0398928Y0386436D02*
X0423864Y0386436D01*
X0423204Y0386828D02*
X0399198Y0386828D01*
X0399469Y0387220D02*
X0422544Y0387220D01*
X0421884Y0387613D02*
X0399739Y0387613D01*
X0400010Y0388005D02*
X0421224Y0388005D01*
X0420564Y0388397D02*
X0400280Y0388397D01*
X0400551Y0388789D02*
X0419904Y0388789D01*
X0419244Y0389181D02*
X0400821Y0389181D01*
X0401092Y0389574D02*
X0418583Y0389574D01*
X0417923Y0389966D02*
X0401362Y0389966D01*
X0401633Y0390358D02*
X0417263Y0390358D01*
X0416603Y0390750D02*
X0401903Y0390750D01*
X0402174Y0391142D02*
X0415943Y0391142D01*
X0415283Y0391535D02*
X0402656Y0391535D01*
X0404578Y0391927D02*
X0414623Y0391927D01*
X0413963Y0392319D02*
X0406500Y0392319D01*
X0408422Y0392711D02*
X0413303Y0392711D01*
X0412643Y0393103D02*
X0410344Y0393103D01*
X0409146Y0402517D02*
X0397199Y0402517D01*
X0397870Y0402124D02*
X0407185Y0402124D01*
X0405224Y0401732D02*
X0398541Y0401732D01*
X0399211Y0401340D02*
X0403263Y0401340D01*
X0401302Y0400948D02*
X0399882Y0400948D01*
X0396528Y0402909D02*
X0410232Y0402909D01*
X0410511Y0403301D02*
X0395857Y0403301D01*
X0395186Y0403693D02*
X0410790Y0403693D01*
X0411070Y0404085D02*
X0394515Y0404085D01*
X0393844Y0404478D02*
X0411349Y0404478D01*
X0411628Y0404870D02*
X0393173Y0404870D01*
X0392503Y0405262D02*
X0411907Y0405262D01*
X0412186Y0405654D02*
X0391832Y0405654D01*
X0391161Y0406046D02*
X0412466Y0406046D01*
X0412745Y0406439D02*
X0390490Y0406439D01*
X0389819Y0406831D02*
X0413024Y0406831D01*
X0413303Y0407223D02*
X0389148Y0407223D01*
X0388477Y0407615D02*
X0413582Y0407615D01*
X0413862Y0408008D02*
X0387806Y0408008D01*
X0387406Y0408400D02*
X0414141Y0408400D01*
X0414420Y0408792D02*
X0387314Y0408792D01*
X0387222Y0409184D02*
X0414699Y0409184D01*
X0414978Y0409576D02*
X0387130Y0409576D01*
X0387038Y0409969D02*
X0415258Y0409969D01*
X0415537Y0410361D02*
X0386946Y0410361D01*
X0386854Y0410753D02*
X0415816Y0410753D01*
X0416095Y0411145D02*
X0386762Y0411145D01*
X0386670Y0411537D02*
X0416374Y0411537D01*
X0416654Y0411930D02*
X0386578Y0411930D01*
X0386486Y0412322D02*
X0416933Y0412322D01*
X0417212Y0412714D02*
X0386394Y0412714D01*
X0386302Y0413106D02*
X0417491Y0413106D01*
X0417770Y0413499D02*
X0386210Y0413499D01*
X0386118Y0413891D02*
X0418050Y0413891D01*
X0418329Y0414283D02*
X0386026Y0414283D01*
X0385934Y0414675D02*
X0418262Y0414675D01*
X0418161Y0415067D02*
X0385842Y0415067D01*
X0385750Y0415460D02*
X0418059Y0415460D01*
X0417957Y0415852D02*
X0385658Y0415852D01*
X0385566Y0416244D02*
X0417856Y0416244D01*
X0417754Y0416636D02*
X0385474Y0416636D01*
X0385382Y0417028D02*
X0417653Y0417028D01*
X0417551Y0417421D02*
X0385290Y0417421D01*
X0385198Y0417813D02*
X0417450Y0417813D01*
X0417348Y0418205D02*
X0385106Y0418205D01*
X0385014Y0418597D02*
X0417247Y0418597D01*
X0417145Y0418989D02*
X0384922Y0418989D01*
X0384830Y0419382D02*
X0417044Y0419382D01*
X0416942Y0419774D02*
X0384738Y0419774D01*
X0384646Y0420166D02*
X0416840Y0420166D01*
X0416739Y0420558D02*
X0384554Y0420558D01*
X0384462Y0420951D02*
X0416637Y0420951D01*
X0416536Y0421343D02*
X0384370Y0421343D01*
X0384278Y0421735D02*
X0416434Y0421735D01*
X0416333Y0422127D02*
X0384186Y0422127D01*
X0384094Y0422519D02*
X0416231Y0422519D01*
X0416130Y0422912D02*
X0384002Y0422912D01*
X0383910Y0423304D02*
X0416028Y0423304D01*
X0415927Y0423696D02*
X0383818Y0423696D01*
X0383726Y0424088D02*
X0415825Y0424088D01*
X0415723Y0424480D02*
X0383631Y0424480D01*
X0383535Y0424873D02*
X0415622Y0424873D01*
X0415520Y0425265D02*
X0383440Y0425265D01*
X0383344Y0425657D02*
X0415419Y0425657D01*
X0415317Y0426049D02*
X0383248Y0426049D01*
X0383153Y0426442D02*
X0415216Y0426442D01*
X0415114Y0426834D02*
X0383057Y0426834D01*
X0382961Y0427226D02*
X0415013Y0427226D01*
X0414911Y0427618D02*
X0382866Y0427618D01*
X0382770Y0428010D02*
X0414810Y0428010D01*
X0414708Y0428403D02*
X0382674Y0428403D01*
X0382579Y0428795D02*
X0414607Y0428795D01*
X0414505Y0429187D02*
X0382483Y0429187D01*
X0382387Y0429579D02*
X0414403Y0429579D01*
X0414302Y0429971D02*
X0382292Y0429971D01*
X0382196Y0430364D02*
X0414200Y0430364D01*
X0414099Y0430756D02*
X0382100Y0430756D01*
X0382005Y0431148D02*
X0413997Y0431148D01*
X0413896Y0431540D02*
X0381909Y0431540D01*
X0381813Y0431932D02*
X0413794Y0431932D01*
X0401019Y0322898D02*
X0427526Y0322898D01*
X0424101Y0322505D02*
X0401091Y0322505D01*
X0401200Y0322113D02*
X0420676Y0322113D01*
X0417250Y0321721D02*
X0401368Y0321721D01*
X0401634Y0321329D02*
X0413825Y0321329D01*
X0410400Y0320936D02*
X0402007Y0320936D01*
X0402567Y0320544D02*
X0406974Y0320544D01*
X0423913Y0233865D02*
X0432441Y0233865D01*
X0429807Y0233473D02*
X0424488Y0233473D01*
X0425063Y0233081D02*
X0427174Y0233081D01*
X0432651Y0156207D02*
X0540189Y0156207D01*
X0539838Y0155815D02*
X0433055Y0155815D01*
X0433459Y0155423D02*
X0539487Y0155423D01*
X0539136Y0155031D02*
X0433863Y0155031D01*
X0434267Y0154639D02*
X0538785Y0154639D01*
X0538434Y0154246D02*
X0434671Y0154246D01*
X0435078Y0153854D02*
X0538084Y0153854D01*
X0537733Y0153462D02*
X0435573Y0153462D01*
X0436068Y0153070D02*
X0537382Y0153070D01*
X0537031Y0152677D02*
X0436563Y0152677D01*
X0437058Y0152285D02*
X0536680Y0152285D01*
X0536329Y0151893D02*
X0437553Y0151893D01*
X0438048Y0151501D02*
X0535978Y0151501D01*
X0535627Y0151109D02*
X0438544Y0151109D01*
X0439094Y0150716D02*
X0535276Y0150716D01*
X0534925Y0150324D02*
X0439706Y0150324D01*
X0440319Y0149932D02*
X0534574Y0149932D01*
X0534223Y0149540D02*
X0440932Y0149540D01*
X0441544Y0149148D02*
X0533872Y0149148D01*
X0533521Y0148755D02*
X0442157Y0148755D01*
X0442770Y0148363D02*
X0533171Y0148363D01*
X0532820Y0147971D02*
X0443529Y0147971D01*
X0444303Y0147579D02*
X0532469Y0147579D01*
X0532118Y0147187D02*
X0445078Y0147187D01*
X0445852Y0146794D02*
X0531767Y0146794D01*
X0531416Y0146402D02*
X0446626Y0146402D01*
X0447500Y0146010D02*
X0531065Y0146010D01*
X0530714Y0145618D02*
X0448515Y0145618D01*
X0449531Y0145225D02*
X0530363Y0145225D01*
X0522319Y0144833D02*
X0450547Y0144833D01*
X0451575Y0144441D02*
X0514254Y0144441D01*
X0506189Y0144049D02*
X0453004Y0144049D01*
X0454432Y0143657D02*
X0498124Y0143657D01*
X0490059Y0143264D02*
X0455861Y0143264D01*
X0458011Y0142872D02*
X0481994Y0142872D01*
X0473929Y0142480D02*
X0460331Y0142480D01*
X0465406Y0142088D02*
X0465865Y0142088D01*
X0479617Y0174249D02*
X0532696Y0174249D01*
X0532326Y0174641D02*
X0487671Y0174641D01*
X0495724Y0175034D02*
X0531955Y0175034D01*
X0531585Y0175426D02*
X0503778Y0175426D01*
X0511831Y0175818D02*
X0531215Y0175818D01*
X0530844Y0176210D02*
X0519885Y0176210D01*
X0527938Y0176602D02*
X0530474Y0176602D01*
X0401360Y0569599D02*
X0398323Y0569599D01*
X0395578Y0569991D02*
X0401935Y0569991D01*
X0402510Y0570383D02*
X0392832Y0570383D01*
X0464434Y0599781D02*
X0464276Y0600247D01*
X0464220Y0600736D01*
X0464811Y0623768D01*
X0476031Y0633413D01*
X0486268Y0633217D01*
X0496504Y0629870D01*
X0496651Y0629800D01*
X0496774Y0629693D01*
X0496865Y0629559D01*
X0496918Y0629405D01*
X0496929Y0629242D01*
X0496898Y0629083D01*
X0468157Y0599161D01*
X0467780Y0598845D01*
X0467344Y0598617D01*
X0466869Y0598487D01*
X0466377Y0598462D01*
X0465892Y0598543D01*
X0465435Y0598726D01*
X0465027Y0599002D01*
X0464689Y0599360D01*
X0464434Y0599781D01*
X0464428Y0599799D02*
X0468770Y0599799D01*
X0468393Y0599407D02*
X0464660Y0599407D01*
X0465015Y0599015D02*
X0467983Y0599015D01*
X0467355Y0598623D02*
X0465693Y0598623D01*
X0464294Y0600191D02*
X0469147Y0600191D01*
X0469524Y0600584D02*
X0464238Y0600584D01*
X0464227Y0600976D02*
X0469900Y0600976D01*
X0470277Y0601368D02*
X0464237Y0601368D01*
X0464247Y0601760D02*
X0470654Y0601760D01*
X0471031Y0602153D02*
X0464257Y0602153D01*
X0464267Y0602545D02*
X0471407Y0602545D01*
X0471784Y0602937D02*
X0464277Y0602937D01*
X0464287Y0603329D02*
X0472161Y0603329D01*
X0472537Y0603721D02*
X0464297Y0603721D01*
X0464307Y0604114D02*
X0472914Y0604114D01*
X0473291Y0604506D02*
X0464317Y0604506D01*
X0464327Y0604898D02*
X0473668Y0604898D01*
X0474044Y0605290D02*
X0464337Y0605290D01*
X0464347Y0605682D02*
X0474421Y0605682D01*
X0474798Y0606075D02*
X0464357Y0606075D01*
X0464367Y0606467D02*
X0475175Y0606467D01*
X0475551Y0606859D02*
X0464377Y0606859D01*
X0464388Y0607251D02*
X0475928Y0607251D01*
X0476305Y0607644D02*
X0464398Y0607644D01*
X0464408Y0608036D02*
X0476681Y0608036D01*
X0477058Y0608428D02*
X0464418Y0608428D01*
X0464428Y0608820D02*
X0477435Y0608820D01*
X0477812Y0609212D02*
X0464438Y0609212D01*
X0464448Y0609605D02*
X0478188Y0609605D01*
X0478565Y0609997D02*
X0464458Y0609997D01*
X0464468Y0610389D02*
X0478942Y0610389D01*
X0479319Y0610781D02*
X0464478Y0610781D01*
X0464488Y0611173D02*
X0479695Y0611173D01*
X0480072Y0611566D02*
X0464498Y0611566D01*
X0464508Y0611958D02*
X0480449Y0611958D01*
X0480826Y0612350D02*
X0464518Y0612350D01*
X0464528Y0612742D02*
X0481202Y0612742D01*
X0481579Y0613134D02*
X0464538Y0613134D01*
X0464548Y0613527D02*
X0481956Y0613527D01*
X0482332Y0613919D02*
X0464558Y0613919D01*
X0464569Y0614311D02*
X0482709Y0614311D01*
X0483086Y0614703D02*
X0464579Y0614703D01*
X0464589Y0615096D02*
X0483463Y0615096D01*
X0483839Y0615488D02*
X0464599Y0615488D01*
X0464609Y0615880D02*
X0484216Y0615880D01*
X0484593Y0616272D02*
X0464619Y0616272D01*
X0464629Y0616664D02*
X0484970Y0616664D01*
X0485346Y0617057D02*
X0464639Y0617057D01*
X0464649Y0617449D02*
X0485723Y0617449D01*
X0486100Y0617841D02*
X0464659Y0617841D01*
X0464669Y0618233D02*
X0486476Y0618233D01*
X0486853Y0618625D02*
X0464679Y0618625D01*
X0464689Y0619018D02*
X0487230Y0619018D01*
X0487607Y0619410D02*
X0464699Y0619410D01*
X0464709Y0619802D02*
X0487983Y0619802D01*
X0488360Y0620194D02*
X0464719Y0620194D01*
X0464729Y0620587D02*
X0488737Y0620587D01*
X0489114Y0620979D02*
X0464740Y0620979D01*
X0464750Y0621371D02*
X0489490Y0621371D01*
X0489867Y0621763D02*
X0464760Y0621763D01*
X0464770Y0622155D02*
X0490244Y0622155D01*
X0490621Y0622548D02*
X0464780Y0622548D01*
X0464790Y0622940D02*
X0490997Y0622940D01*
X0491374Y0623332D02*
X0464800Y0623332D01*
X0464810Y0623724D02*
X0491751Y0623724D01*
X0492127Y0624116D02*
X0465217Y0624116D01*
X0465673Y0624509D02*
X0492504Y0624509D01*
X0492881Y0624901D02*
X0466129Y0624901D01*
X0466585Y0625293D02*
X0493258Y0625293D01*
X0493634Y0625685D02*
X0467042Y0625685D01*
X0467498Y0626077D02*
X0494011Y0626077D01*
X0494388Y0626470D02*
X0467954Y0626470D01*
X0468410Y0626862D02*
X0494765Y0626862D01*
X0495141Y0627254D02*
X0468867Y0627254D01*
X0469323Y0627646D02*
X0495518Y0627646D01*
X0495895Y0628039D02*
X0469779Y0628039D01*
X0470235Y0628431D02*
X0496271Y0628431D01*
X0496648Y0628823D02*
X0470692Y0628823D01*
X0471148Y0629215D02*
X0496924Y0629215D01*
X0496832Y0629607D02*
X0471604Y0629607D01*
X0472060Y0630000D02*
X0496108Y0630000D01*
X0494908Y0630392D02*
X0472517Y0630392D01*
X0472973Y0630784D02*
X0493708Y0630784D01*
X0492509Y0631176D02*
X0473429Y0631176D01*
X0473885Y0631568D02*
X0491309Y0631568D01*
X0490109Y0631961D02*
X0474342Y0631961D01*
X0474798Y0632353D02*
X0488909Y0632353D01*
X0487710Y0632745D02*
X0475254Y0632745D01*
X0475710Y0633137D02*
X0486510Y0633137D01*
X0486268Y0642665D02*
X0476425Y0642862D01*
X0465795Y0653492D01*
X0466386Y0670421D01*
X0470126Y0712350D01*
X0470126Y0731051D01*
X0470160Y0731306D01*
X0470258Y0731543D01*
X0470414Y0731747D01*
X0470618Y0731904D01*
X0470855Y0732002D01*
X0471110Y0732035D01*
X0500638Y0732035D01*
X0500893Y0732002D01*
X0501130Y0731904D01*
X0501334Y0731747D01*
X0501490Y0731543D01*
X0501589Y0731306D01*
X0501622Y0731051D01*
X0501622Y0710382D01*
X0497094Y0665303D01*
X0497094Y0652311D01*
X0486268Y0642665D01*
X0486579Y0642943D02*
X0476345Y0642943D01*
X0475953Y0643335D02*
X0487019Y0643335D01*
X0487459Y0643727D02*
X0475560Y0643727D01*
X0475168Y0644119D02*
X0487900Y0644119D01*
X0488340Y0644511D02*
X0474776Y0644511D01*
X0474384Y0644904D02*
X0488780Y0644904D01*
X0489220Y0645296D02*
X0473992Y0645296D01*
X0473599Y0645688D02*
X0489661Y0645688D01*
X0490101Y0646080D02*
X0473207Y0646080D01*
X0472815Y0646473D02*
X0490541Y0646473D01*
X0490981Y0646865D02*
X0472423Y0646865D01*
X0472030Y0647257D02*
X0491422Y0647257D01*
X0491862Y0647649D02*
X0471638Y0647649D01*
X0471246Y0648041D02*
X0492302Y0648041D01*
X0492742Y0648434D02*
X0470854Y0648434D01*
X0470462Y0648826D02*
X0493182Y0648826D01*
X0493623Y0649218D02*
X0470069Y0649218D01*
X0469677Y0649610D02*
X0494063Y0649610D01*
X0494503Y0650002D02*
X0469285Y0650002D01*
X0468893Y0650395D02*
X0494943Y0650395D01*
X0495384Y0650787D02*
X0468501Y0650787D01*
X0468108Y0651179D02*
X0495824Y0651179D01*
X0496264Y0651571D02*
X0467716Y0651571D01*
X0467324Y0651963D02*
X0496704Y0651963D01*
X0497094Y0652356D02*
X0466932Y0652356D01*
X0466539Y0652748D02*
X0497094Y0652748D01*
X0497094Y0653140D02*
X0466147Y0653140D01*
X0465797Y0653532D02*
X0497094Y0653532D01*
X0497094Y0653925D02*
X0465810Y0653925D01*
X0465824Y0654317D02*
X0497094Y0654317D01*
X0497094Y0654709D02*
X0465838Y0654709D01*
X0465851Y0655101D02*
X0497094Y0655101D01*
X0497094Y0655493D02*
X0465865Y0655493D01*
X0465879Y0655886D02*
X0497094Y0655886D01*
X0497094Y0656278D02*
X0465892Y0656278D01*
X0465906Y0656670D02*
X0497094Y0656670D01*
X0497094Y0657062D02*
X0465920Y0657062D01*
X0465933Y0657454D02*
X0497094Y0657454D01*
X0497094Y0657847D02*
X0465947Y0657847D01*
X0465961Y0658239D02*
X0497094Y0658239D01*
X0497094Y0658631D02*
X0465975Y0658631D01*
X0465988Y0659023D02*
X0497094Y0659023D01*
X0497094Y0659416D02*
X0466002Y0659416D01*
X0466016Y0659808D02*
X0497094Y0659808D01*
X0497094Y0660200D02*
X0466029Y0660200D01*
X0466043Y0660592D02*
X0497094Y0660592D01*
X0497094Y0660984D02*
X0466057Y0660984D01*
X0466070Y0661377D02*
X0497094Y0661377D01*
X0497094Y0661769D02*
X0466084Y0661769D01*
X0466098Y0662161D02*
X0497094Y0662161D01*
X0497094Y0662553D02*
X0466111Y0662553D01*
X0466125Y0662945D02*
X0497094Y0662945D01*
X0497094Y0663338D02*
X0466139Y0663338D01*
X0466152Y0663730D02*
X0497094Y0663730D01*
X0497094Y0664122D02*
X0466166Y0664122D01*
X0466180Y0664514D02*
X0497094Y0664514D01*
X0497094Y0664906D02*
X0466193Y0664906D01*
X0466207Y0665299D02*
X0497094Y0665299D01*
X0497133Y0665691D02*
X0466221Y0665691D01*
X0466234Y0666083D02*
X0497173Y0666083D01*
X0497212Y0666475D02*
X0466248Y0666475D01*
X0466262Y0666868D02*
X0497252Y0666868D01*
X0497291Y0667260D02*
X0466276Y0667260D01*
X0466289Y0667652D02*
X0497330Y0667652D01*
X0497370Y0668044D02*
X0466303Y0668044D01*
X0466317Y0668436D02*
X0497409Y0668436D01*
X0497449Y0668829D02*
X0466330Y0668829D01*
X0466344Y0669221D02*
X0497488Y0669221D01*
X0497527Y0669613D02*
X0466358Y0669613D01*
X0466371Y0670005D02*
X0497567Y0670005D01*
X0497606Y0670397D02*
X0466385Y0670397D01*
X0466419Y0670790D02*
X0497646Y0670790D01*
X0497685Y0671182D02*
X0466454Y0671182D01*
X0466489Y0671574D02*
X0497724Y0671574D01*
X0497764Y0671966D02*
X0466524Y0671966D01*
X0466559Y0672359D02*
X0497803Y0672359D01*
X0497843Y0672751D02*
X0466594Y0672751D01*
X0466629Y0673143D02*
X0497882Y0673143D01*
X0497921Y0673535D02*
X0466664Y0673535D01*
X0466699Y0673927D02*
X0497961Y0673927D01*
X0498000Y0674320D02*
X0466734Y0674320D01*
X0466769Y0674712D02*
X0498039Y0674712D01*
X0498079Y0675104D02*
X0466804Y0675104D01*
X0466839Y0675496D02*
X0498118Y0675496D01*
X0498158Y0675888D02*
X0466873Y0675888D01*
X0466908Y0676281D02*
X0498197Y0676281D01*
X0498236Y0676673D02*
X0466943Y0676673D01*
X0466978Y0677065D02*
X0498276Y0677065D01*
X0498315Y0677457D02*
X0467013Y0677457D01*
X0467048Y0677849D02*
X0498355Y0677849D01*
X0498394Y0678242D02*
X0467083Y0678242D01*
X0467118Y0678634D02*
X0498433Y0678634D01*
X0498473Y0679026D02*
X0467153Y0679026D01*
X0467188Y0679418D02*
X0498512Y0679418D01*
X0498552Y0679811D02*
X0467223Y0679811D01*
X0467258Y0680203D02*
X0498591Y0680203D01*
X0498630Y0680595D02*
X0467293Y0680595D01*
X0467328Y0680987D02*
X0498670Y0680987D01*
X0498709Y0681379D02*
X0467363Y0681379D01*
X0467398Y0681772D02*
X0498749Y0681772D01*
X0498788Y0682164D02*
X0467433Y0682164D01*
X0467468Y0682556D02*
X0498827Y0682556D01*
X0498867Y0682948D02*
X0467503Y0682948D01*
X0467538Y0683340D02*
X0498906Y0683340D01*
X0498945Y0683733D02*
X0467573Y0683733D01*
X0467608Y0684125D02*
X0498985Y0684125D01*
X0499024Y0684517D02*
X0467643Y0684517D01*
X0467678Y0684909D02*
X0499064Y0684909D01*
X0499103Y0685302D02*
X0467713Y0685302D01*
X0467748Y0685694D02*
X0499142Y0685694D01*
X0499182Y0686086D02*
X0467783Y0686086D01*
X0467818Y0686478D02*
X0499221Y0686478D01*
X0499261Y0686870D02*
X0467853Y0686870D01*
X0467888Y0687263D02*
X0499300Y0687263D01*
X0499339Y0687655D02*
X0467923Y0687655D01*
X0467958Y0688047D02*
X0499379Y0688047D01*
X0499418Y0688439D02*
X0467993Y0688439D01*
X0468028Y0688831D02*
X0499458Y0688831D01*
X0499497Y0689224D02*
X0468063Y0689224D01*
X0468098Y0689616D02*
X0499536Y0689616D01*
X0499576Y0690008D02*
X0468133Y0690008D01*
X0468168Y0690400D02*
X0499615Y0690400D01*
X0499655Y0690792D02*
X0468203Y0690792D01*
X0468238Y0691185D02*
X0499694Y0691185D01*
X0499733Y0691577D02*
X0468273Y0691577D01*
X0468308Y0691969D02*
X0499773Y0691969D01*
X0499812Y0692361D02*
X0468343Y0692361D01*
X0468378Y0692754D02*
X0499852Y0692754D01*
X0499891Y0693146D02*
X0468413Y0693146D01*
X0468448Y0693538D02*
X0499930Y0693538D01*
X0499970Y0693930D02*
X0468483Y0693930D01*
X0468518Y0694322D02*
X0500009Y0694322D01*
X0500048Y0694715D02*
X0468553Y0694715D01*
X0468588Y0695107D02*
X0500088Y0695107D01*
X0500127Y0695499D02*
X0468623Y0695499D01*
X0468658Y0695891D02*
X0500167Y0695891D01*
X0500206Y0696283D02*
X0468693Y0696283D01*
X0468728Y0696676D02*
X0500245Y0696676D01*
X0500285Y0697068D02*
X0468763Y0697068D01*
X0468798Y0697460D02*
X0500324Y0697460D01*
X0500364Y0697852D02*
X0468833Y0697852D01*
X0468868Y0698245D02*
X0500403Y0698245D01*
X0500442Y0698637D02*
X0468903Y0698637D01*
X0468938Y0699029D02*
X0500482Y0699029D01*
X0500521Y0699421D02*
X0468973Y0699421D01*
X0469008Y0699813D02*
X0500561Y0699813D01*
X0500600Y0700206D02*
X0469043Y0700206D01*
X0469078Y0700598D02*
X0500639Y0700598D01*
X0500679Y0700990D02*
X0469113Y0700990D01*
X0469148Y0701382D02*
X0500718Y0701382D01*
X0500758Y0701774D02*
X0469183Y0701774D01*
X0469218Y0702167D02*
X0500797Y0702167D01*
X0500836Y0702559D02*
X0469253Y0702559D01*
X0469288Y0702951D02*
X0500876Y0702951D01*
X0500915Y0703343D02*
X0469323Y0703343D01*
X0469358Y0703735D02*
X0500955Y0703735D01*
X0500994Y0704128D02*
X0469392Y0704128D01*
X0469427Y0704520D02*
X0501033Y0704520D01*
X0501073Y0704912D02*
X0469462Y0704912D01*
X0469497Y0705304D02*
X0501112Y0705304D01*
X0501151Y0705697D02*
X0469532Y0705697D01*
X0469567Y0706089D02*
X0501191Y0706089D01*
X0501230Y0706481D02*
X0469602Y0706481D01*
X0469637Y0706873D02*
X0501270Y0706873D01*
X0501309Y0707265D02*
X0469672Y0707265D01*
X0469707Y0707658D02*
X0501348Y0707658D01*
X0501388Y0708050D02*
X0469742Y0708050D01*
X0469777Y0708442D02*
X0501427Y0708442D01*
X0501467Y0708834D02*
X0469812Y0708834D01*
X0469847Y0709226D02*
X0501506Y0709226D01*
X0501545Y0709619D02*
X0469882Y0709619D01*
X0469917Y0710011D02*
X0501585Y0710011D01*
X0501622Y0710403D02*
X0469952Y0710403D01*
X0469987Y0710795D02*
X0501622Y0710795D01*
X0501622Y0711188D02*
X0470022Y0711188D01*
X0470057Y0711580D02*
X0501622Y0711580D01*
X0501622Y0711972D02*
X0470092Y0711972D01*
X0470126Y0712364D02*
X0501622Y0712364D01*
X0501622Y0712756D02*
X0470126Y0712756D01*
X0470126Y0713149D02*
X0501622Y0713149D01*
X0501622Y0713541D02*
X0470126Y0713541D01*
X0470126Y0713933D02*
X0501622Y0713933D01*
X0501622Y0714325D02*
X0470126Y0714325D01*
X0470126Y0714717D02*
X0501622Y0714717D01*
X0501622Y0715110D02*
X0470126Y0715110D01*
X0470126Y0715502D02*
X0501622Y0715502D01*
X0501622Y0715894D02*
X0470126Y0715894D01*
X0470126Y0716286D02*
X0501622Y0716286D01*
X0501622Y0716678D02*
X0470126Y0716678D01*
X0470126Y0717071D02*
X0501622Y0717071D01*
X0501622Y0717463D02*
X0470126Y0717463D01*
X0470126Y0717855D02*
X0501622Y0717855D01*
X0501622Y0718247D02*
X0470126Y0718247D01*
X0470126Y0718640D02*
X0501622Y0718640D01*
X0501622Y0719032D02*
X0470126Y0719032D01*
X0470126Y0719424D02*
X0501622Y0719424D01*
X0501622Y0719816D02*
X0470126Y0719816D01*
X0470126Y0720208D02*
X0501622Y0720208D01*
X0501622Y0720601D02*
X0470126Y0720601D01*
X0470126Y0720993D02*
X0501622Y0720993D01*
X0501622Y0721385D02*
X0470126Y0721385D01*
X0470126Y0721777D02*
X0501622Y0721777D01*
X0501622Y0722169D02*
X0470126Y0722169D01*
X0470126Y0722562D02*
X0501622Y0722562D01*
X0501622Y0722954D02*
X0470126Y0722954D01*
X0470126Y0723346D02*
X0501622Y0723346D01*
X0501622Y0723738D02*
X0470126Y0723738D01*
X0470126Y0724131D02*
X0501622Y0724131D01*
X0501622Y0724523D02*
X0470126Y0724523D01*
X0470126Y0724915D02*
X0501622Y0724915D01*
X0501622Y0725307D02*
X0470126Y0725307D01*
X0470126Y0725699D02*
X0501622Y0725699D01*
X0501622Y0726092D02*
X0470126Y0726092D01*
X0470126Y0726484D02*
X0501622Y0726484D01*
X0501622Y0726876D02*
X0470126Y0726876D01*
X0470126Y0727268D02*
X0501622Y0727268D01*
X0501622Y0727660D02*
X0470126Y0727660D01*
X0470126Y0728053D02*
X0501622Y0728053D01*
X0501622Y0728445D02*
X0470126Y0728445D01*
X0470126Y0728837D02*
X0501622Y0728837D01*
X0501622Y0729229D02*
X0470126Y0729229D01*
X0470126Y0729621D02*
X0501622Y0729621D01*
X0501622Y0730014D02*
X0470126Y0730014D01*
X0470126Y0730406D02*
X0501622Y0730406D01*
X0501622Y0730798D02*
X0470126Y0730798D01*
X0470144Y0731190D02*
X0501604Y0731190D01*
X0501460Y0731583D02*
X0470288Y0731583D01*
X0470790Y0731975D02*
X0500958Y0731975D01*
X0499441Y0742309D02*
X0498870Y0742234D01*
X0473239Y0742120D01*
X0472665Y0742173D01*
X0472111Y0742336D01*
X0471599Y0742603D01*
X0471148Y0742963D01*
X0470774Y0743403D01*
X0470492Y0743906D01*
X0470313Y0744455D01*
X0470242Y0745028D01*
X0470157Y0771368D01*
X0470215Y0771954D01*
X0470392Y0772516D01*
X0470679Y0773030D01*
X0471065Y0773475D01*
X0471533Y0773832D01*
X0472064Y0774087D01*
X0472636Y0774228D01*
X0473224Y0774250D01*
X0498942Y0773813D01*
X0499553Y0773740D01*
X0500136Y0773546D01*
X0500668Y0773238D01*
X0501127Y0772829D01*
X0501494Y0772336D01*
X0501754Y0771779D01*
X0501896Y0771181D01*
X0501778Y0745231D01*
X0501720Y0744658D01*
X0501555Y0744106D01*
X0501287Y0743597D01*
X0500928Y0743147D01*
X0500489Y0742774D01*
X0499988Y0742491D01*
X0499441Y0742309D01*
X0500118Y0742564D02*
X0471672Y0742564D01*
X0471155Y0742957D02*
X0500704Y0742957D01*
X0501089Y0743349D02*
X0470820Y0743349D01*
X0470585Y0743741D02*
X0501363Y0743741D01*
X0501563Y0744133D02*
X0470418Y0744133D01*
X0470304Y0744526D02*
X0501681Y0744526D01*
X0501747Y0744918D02*
X0470256Y0744918D01*
X0470241Y0745310D02*
X0501778Y0745310D01*
X0501780Y0745702D02*
X0470240Y0745702D01*
X0470239Y0746094D02*
X0501782Y0746094D01*
X0501784Y0746487D02*
X0470237Y0746487D01*
X0470236Y0746879D02*
X0501786Y0746879D01*
X0501787Y0747271D02*
X0470235Y0747271D01*
X0470234Y0747663D02*
X0501789Y0747663D01*
X0501791Y0748055D02*
X0470232Y0748055D01*
X0470231Y0748448D02*
X0501793Y0748448D01*
X0501794Y0748840D02*
X0470230Y0748840D01*
X0470229Y0749232D02*
X0501796Y0749232D01*
X0501798Y0749624D02*
X0470227Y0749624D01*
X0470226Y0750017D02*
X0501800Y0750017D01*
X0501802Y0750409D02*
X0470225Y0750409D01*
X0470223Y0750801D02*
X0501803Y0750801D01*
X0501805Y0751193D02*
X0470222Y0751193D01*
X0470221Y0751585D02*
X0501807Y0751585D01*
X0501809Y0751978D02*
X0470220Y0751978D01*
X0470218Y0752370D02*
X0501811Y0752370D01*
X0501812Y0752762D02*
X0470217Y0752762D01*
X0470216Y0753154D02*
X0501814Y0753154D01*
X0501816Y0753546D02*
X0470215Y0753546D01*
X0470213Y0753939D02*
X0501818Y0753939D01*
X0501819Y0754331D02*
X0470212Y0754331D01*
X0470211Y0754723D02*
X0501821Y0754723D01*
X0501823Y0755115D02*
X0470210Y0755115D01*
X0470208Y0755507D02*
X0501825Y0755507D01*
X0501827Y0755900D02*
X0470207Y0755900D01*
X0470206Y0756292D02*
X0501828Y0756292D01*
X0501830Y0756684D02*
X0470205Y0756684D01*
X0470203Y0757076D02*
X0501832Y0757076D01*
X0501834Y0757469D02*
X0470202Y0757469D01*
X0470201Y0757861D02*
X0501835Y0757861D01*
X0501837Y0758253D02*
X0470199Y0758253D01*
X0470198Y0758645D02*
X0501839Y0758645D01*
X0501841Y0759037D02*
X0470197Y0759037D01*
X0470196Y0759430D02*
X0501843Y0759430D01*
X0501844Y0759822D02*
X0470194Y0759822D01*
X0470193Y0760214D02*
X0501846Y0760214D01*
X0501848Y0760606D02*
X0470192Y0760606D01*
X0470191Y0760998D02*
X0501850Y0760998D01*
X0501851Y0761391D02*
X0470189Y0761391D01*
X0470188Y0761783D02*
X0501853Y0761783D01*
X0501855Y0762175D02*
X0470187Y0762175D01*
X0470186Y0762567D02*
X0501857Y0762567D01*
X0501859Y0762960D02*
X0470184Y0762960D01*
X0470183Y0763352D02*
X0501860Y0763352D01*
X0501862Y0763744D02*
X0470182Y0763744D01*
X0470180Y0764136D02*
X0501864Y0764136D01*
X0501866Y0764528D02*
X0470179Y0764528D01*
X0470178Y0764921D02*
X0501868Y0764921D01*
X0501869Y0765313D02*
X0470177Y0765313D01*
X0470175Y0765705D02*
X0501871Y0765705D01*
X0501873Y0766097D02*
X0470174Y0766097D01*
X0470173Y0766489D02*
X0501875Y0766489D01*
X0501876Y0766882D02*
X0470172Y0766882D01*
X0470170Y0767274D02*
X0501878Y0767274D01*
X0501880Y0767666D02*
X0470169Y0767666D01*
X0470168Y0768058D02*
X0501882Y0768058D01*
X0501884Y0768450D02*
X0470167Y0768450D01*
X0470165Y0768843D02*
X0501885Y0768843D01*
X0501887Y0769235D02*
X0470164Y0769235D01*
X0470163Y0769627D02*
X0501889Y0769627D01*
X0501891Y0770019D02*
X0470161Y0770019D01*
X0470160Y0770412D02*
X0501892Y0770412D01*
X0501894Y0770804D02*
X0470159Y0770804D01*
X0470158Y0771196D02*
X0501892Y0771196D01*
X0501799Y0771588D02*
X0470179Y0771588D01*
X0470224Y0771980D02*
X0501660Y0771980D01*
X0501466Y0772373D02*
X0470347Y0772373D01*
X0470531Y0772765D02*
X0501175Y0772765D01*
X0500759Y0773157D02*
X0470789Y0773157D01*
X0471162Y0773549D02*
X0500126Y0773549D01*
X0491381Y0773941D02*
X0471761Y0773941D01*
X0472676Y0742172D02*
X0485022Y0742172D01*
X0458235Y0733602D02*
X0458491Y0716120D01*
X0448653Y0715799D01*
X0448398Y0733281D01*
X0458235Y0733602D01*
X0458236Y0733544D02*
X0456457Y0733544D01*
X0458242Y0733151D02*
X0448400Y0733151D01*
X0448405Y0732759D02*
X0458247Y0732759D01*
X0458253Y0732367D02*
X0448411Y0732367D01*
X0448417Y0731975D02*
X0458259Y0731975D01*
X0458265Y0731583D02*
X0448423Y0731583D01*
X0448428Y0731190D02*
X0458270Y0731190D01*
X0458276Y0730798D02*
X0448434Y0730798D01*
X0448440Y0730406D02*
X0458282Y0730406D01*
X0458287Y0730014D02*
X0448446Y0730014D01*
X0448451Y0729621D02*
X0458293Y0729621D01*
X0458299Y0729229D02*
X0448457Y0729229D01*
X0448463Y0728837D02*
X0458305Y0728837D01*
X0458310Y0728445D02*
X0448468Y0728445D01*
X0448474Y0728053D02*
X0458316Y0728053D01*
X0458322Y0727660D02*
X0448480Y0727660D01*
X0448486Y0727268D02*
X0458328Y0727268D01*
X0458333Y0726876D02*
X0448491Y0726876D01*
X0448497Y0726484D02*
X0458339Y0726484D01*
X0458345Y0726092D02*
X0448503Y0726092D01*
X0448509Y0725699D02*
X0458351Y0725699D01*
X0458356Y0725307D02*
X0448514Y0725307D01*
X0448520Y0724915D02*
X0458362Y0724915D01*
X0458368Y0724523D02*
X0448526Y0724523D01*
X0448532Y0724131D02*
X0458373Y0724131D01*
X0458379Y0723738D02*
X0448537Y0723738D01*
X0448543Y0723346D02*
X0458385Y0723346D01*
X0458391Y0722954D02*
X0448549Y0722954D01*
X0448554Y0722562D02*
X0458396Y0722562D01*
X0458402Y0722169D02*
X0448560Y0722169D01*
X0448566Y0721777D02*
X0458408Y0721777D01*
X0458414Y0721385D02*
X0448572Y0721385D01*
X0448577Y0720993D02*
X0458419Y0720993D01*
X0458425Y0720601D02*
X0448583Y0720601D01*
X0448589Y0720208D02*
X0458431Y0720208D01*
X0458437Y0719816D02*
X0448595Y0719816D01*
X0448600Y0719424D02*
X0458442Y0719424D01*
X0458448Y0719032D02*
X0448606Y0719032D01*
X0448612Y0718640D02*
X0458454Y0718640D01*
X0458460Y0718247D02*
X0448618Y0718247D01*
X0448623Y0717855D02*
X0458465Y0717855D01*
X0458471Y0717463D02*
X0448629Y0717463D01*
X0448635Y0717071D02*
X0458477Y0717071D01*
X0458482Y0716678D02*
X0448640Y0716678D01*
X0448646Y0716286D02*
X0458488Y0716286D01*
X0451558Y0715894D02*
X0448652Y0715894D01*
M02*
