G75*
%MOIN*%
%OFA0B0*%
%FSLAX25Y25*%
%IPPOS*%
%LPD*%
%AMOC8*
5,1,8,0,0,1.08239X$1,22.5*
%
%ADD10C,0.00394*%
D10*
X0057893Y0150539D02*
X0101003Y0147193D01*
X0110846Y0157035D01*
X0110846Y0167075D01*
X0101003Y0178689D01*
X0056318Y0182429D01*
X0053503Y0183488D01*
X0050831Y0184868D01*
X0048337Y0186549D01*
X0046057Y0188510D01*
X0044021Y0190724D01*
X0042256Y0193159D01*
X0040788Y0195784D01*
X0039635Y0198562D01*
X0038814Y0201455D01*
X0038336Y0204424D01*
X0038208Y0207429D01*
X0038798Y0245224D01*
X0028168Y0255264D01*
X0018129Y0255264D01*
X0007302Y0245224D01*
X0006712Y0208610D01*
X0006728Y0202903D01*
X0007330Y0197228D01*
X0008511Y0191645D01*
X0010259Y0186213D01*
X0012555Y0180988D01*
X0015375Y0176026D01*
X0018689Y0171381D01*
X0022463Y0167099D01*
X0026656Y0163228D01*
X0031223Y0159807D01*
X0036118Y0156873D01*
X0041288Y0154456D01*
X0046679Y0152583D01*
X0052233Y0151273D01*
X0057893Y0150539D01*
X0056527Y0150716D02*
X0104527Y0150716D01*
X0104919Y0151109D02*
X0053500Y0151109D01*
X0051266Y0151501D02*
X0105311Y0151501D01*
X0105703Y0151893D02*
X0049604Y0151893D01*
X0047941Y0152285D02*
X0106095Y0152285D01*
X0106488Y0152677D02*
X0046407Y0152677D01*
X0045278Y0153070D02*
X0106880Y0153070D01*
X0107272Y0153462D02*
X0044149Y0153462D01*
X0043021Y0153854D02*
X0107664Y0153854D01*
X0108056Y0154246D02*
X0041892Y0154246D01*
X0040898Y0154639D02*
X0108449Y0154639D01*
X0108841Y0155031D02*
X0040059Y0155031D01*
X0039220Y0155423D02*
X0109233Y0155423D01*
X0109625Y0155815D02*
X0038381Y0155815D01*
X0037541Y0156207D02*
X0110018Y0156207D01*
X0110410Y0156600D02*
X0036702Y0156600D01*
X0035919Y0156992D02*
X0110802Y0156992D01*
X0110846Y0157384D02*
X0035265Y0157384D01*
X0034611Y0157776D02*
X0110846Y0157776D01*
X0110846Y0158168D02*
X0033957Y0158168D01*
X0033302Y0158561D02*
X0110846Y0158561D01*
X0110846Y0158953D02*
X0032648Y0158953D01*
X0031994Y0159345D02*
X0110846Y0159345D01*
X0110846Y0159737D02*
X0031339Y0159737D01*
X0030793Y0160130D02*
X0110846Y0160130D01*
X0110846Y0160522D02*
X0030269Y0160522D01*
X0029745Y0160914D02*
X0110846Y0160914D01*
X0110846Y0161306D02*
X0029221Y0161306D01*
X0028698Y0161698D02*
X0110846Y0161698D01*
X0110846Y0162091D02*
X0028174Y0162091D01*
X0027650Y0162483D02*
X0110846Y0162483D01*
X0110846Y0162875D02*
X0027127Y0162875D01*
X0026613Y0163267D02*
X0110846Y0163267D01*
X0110846Y0163659D02*
X0026188Y0163659D01*
X0025763Y0164052D02*
X0110846Y0164052D01*
X0110846Y0164444D02*
X0025339Y0164444D01*
X0024914Y0164836D02*
X0110846Y0164836D01*
X0110846Y0165228D02*
X0024489Y0165228D01*
X0024064Y0165620D02*
X0110846Y0165620D01*
X0110846Y0166013D02*
X0023640Y0166013D01*
X0023215Y0166405D02*
X0110846Y0166405D01*
X0110846Y0166797D02*
X0022790Y0166797D01*
X0022383Y0167189D02*
X0110748Y0167189D01*
X0110416Y0167582D02*
X0022038Y0167582D01*
X0021692Y0167974D02*
X0110084Y0167974D01*
X0109751Y0168366D02*
X0021346Y0168366D01*
X0021001Y0168758D02*
X0109419Y0168758D01*
X0109087Y0169150D02*
X0020655Y0169150D01*
X0020309Y0169543D02*
X0108754Y0169543D01*
X0108422Y0169935D02*
X0019964Y0169935D01*
X0019618Y0170327D02*
X0108089Y0170327D01*
X0107757Y0170719D02*
X0019272Y0170719D01*
X0018927Y0171111D02*
X0107425Y0171111D01*
X0107092Y0171504D02*
X0018602Y0171504D01*
X0018322Y0171896D02*
X0106760Y0171896D01*
X0106428Y0172288D02*
X0018042Y0172288D01*
X0017762Y0172680D02*
X0106095Y0172680D01*
X0105763Y0173073D02*
X0017483Y0173073D01*
X0017203Y0173465D02*
X0105430Y0173465D01*
X0105098Y0173857D02*
X0016923Y0173857D01*
X0016643Y0174249D02*
X0104766Y0174249D01*
X0104433Y0174641D02*
X0016363Y0174641D01*
X0016084Y0175034D02*
X0104101Y0175034D01*
X0103768Y0175426D02*
X0015804Y0175426D01*
X0015524Y0175818D02*
X0103436Y0175818D01*
X0103104Y0176210D02*
X0015271Y0176210D01*
X0015048Y0176602D02*
X0102771Y0176602D01*
X0102439Y0176995D02*
X0014825Y0176995D01*
X0014602Y0177387D02*
X0102107Y0177387D01*
X0101774Y0177779D02*
X0014379Y0177779D01*
X0014156Y0178171D02*
X0101442Y0178171D01*
X0101109Y0178563D02*
X0013933Y0178563D01*
X0013710Y0178956D02*
X0097817Y0178956D01*
X0093131Y0179348D02*
X0013487Y0179348D01*
X0013265Y0179740D02*
X0088445Y0179740D01*
X0083759Y0180132D02*
X0013042Y0180132D01*
X0012819Y0180525D02*
X0079073Y0180525D01*
X0074387Y0180917D02*
X0012596Y0180917D01*
X0012414Y0181309D02*
X0069701Y0181309D01*
X0065015Y0181701D02*
X0012242Y0181701D01*
X0012070Y0182093D02*
X0060329Y0182093D01*
X0056168Y0182486D02*
X0011897Y0182486D01*
X0011725Y0182878D02*
X0055125Y0182878D01*
X0054082Y0183270D02*
X0011552Y0183270D01*
X0011380Y0183662D02*
X0053165Y0183662D01*
X0052406Y0184054D02*
X0011208Y0184054D01*
X0011035Y0184447D02*
X0051646Y0184447D01*
X0050886Y0184839D02*
X0010863Y0184839D01*
X0010691Y0185231D02*
X0050292Y0185231D01*
X0049710Y0185623D02*
X0010518Y0185623D01*
X0010346Y0186016D02*
X0049129Y0186016D01*
X0048547Y0186408D02*
X0010197Y0186408D01*
X0010070Y0186800D02*
X0048046Y0186800D01*
X0047590Y0187192D02*
X0009944Y0187192D01*
X0009818Y0187584D02*
X0047134Y0187584D01*
X0046677Y0187977D02*
X0009692Y0187977D01*
X0009566Y0188369D02*
X0046221Y0188369D01*
X0045826Y0188761D02*
X0009439Y0188761D01*
X0009313Y0189153D02*
X0045465Y0189153D01*
X0045104Y0189545D02*
X0009187Y0189545D01*
X0009061Y0189938D02*
X0044744Y0189938D01*
X0044383Y0190330D02*
X0008935Y0190330D01*
X0008808Y0190722D02*
X0044022Y0190722D01*
X0043738Y0191114D02*
X0008682Y0191114D01*
X0008556Y0191506D02*
X0043453Y0191506D01*
X0043169Y0191899D02*
X0008458Y0191899D01*
X0008375Y0192291D02*
X0042885Y0192291D01*
X0042601Y0192683D02*
X0008292Y0192683D01*
X0008209Y0193075D02*
X0042317Y0193075D01*
X0042084Y0193468D02*
X0008126Y0193468D01*
X0008043Y0193860D02*
X0041864Y0193860D01*
X0041645Y0194252D02*
X0007960Y0194252D01*
X0007877Y0194644D02*
X0041425Y0194644D01*
X0041206Y0195036D02*
X0007794Y0195036D01*
X0007711Y0195429D02*
X0040987Y0195429D01*
X0040772Y0195821D02*
X0007628Y0195821D01*
X0007545Y0196213D02*
X0040610Y0196213D01*
X0040447Y0196605D02*
X0007462Y0196605D01*
X0007379Y0196997D02*
X0040284Y0196997D01*
X0040122Y0197390D02*
X0007313Y0197390D01*
X0007272Y0197782D02*
X0039959Y0197782D01*
X0039796Y0198174D02*
X0007230Y0198174D01*
X0007188Y0198566D02*
X0039634Y0198566D01*
X0039523Y0198959D02*
X0007147Y0198959D01*
X0007105Y0199351D02*
X0039411Y0199351D01*
X0039300Y0199743D02*
X0007064Y0199743D01*
X0007022Y0200135D02*
X0039189Y0200135D01*
X0039078Y0200527D02*
X0006980Y0200527D01*
X0006939Y0200920D02*
X0038966Y0200920D01*
X0038855Y0201312D02*
X0006897Y0201312D01*
X0006856Y0201704D02*
X0038774Y0201704D01*
X0038711Y0202096D02*
X0006814Y0202096D01*
X0006772Y0202488D02*
X0038648Y0202488D01*
X0038585Y0202881D02*
X0006731Y0202881D01*
X0006727Y0203273D02*
X0038522Y0203273D01*
X0038459Y0203665D02*
X0006726Y0203665D01*
X0006725Y0204057D02*
X0038396Y0204057D01*
X0038335Y0204449D02*
X0006724Y0204449D01*
X0006723Y0204842D02*
X0038319Y0204842D01*
X0038302Y0205234D02*
X0006722Y0205234D01*
X0006720Y0205626D02*
X0038285Y0205626D01*
X0038268Y0206018D02*
X0006719Y0206018D01*
X0006718Y0206411D02*
X0038251Y0206411D01*
X0038235Y0206803D02*
X0006717Y0206803D01*
X0006716Y0207195D02*
X0038218Y0207195D01*
X0038210Y0207587D02*
X0006715Y0207587D01*
X0006714Y0207979D02*
X0038216Y0207979D01*
X0038222Y0208372D02*
X0006712Y0208372D01*
X0006714Y0208764D02*
X0038229Y0208764D01*
X0038235Y0209156D02*
X0006720Y0209156D01*
X0006727Y0209548D02*
X0038241Y0209548D01*
X0038247Y0209940D02*
X0006733Y0209940D01*
X0006739Y0210333D02*
X0038253Y0210333D01*
X0038259Y0210725D02*
X0006746Y0210725D01*
X0006752Y0211117D02*
X0038265Y0211117D01*
X0038272Y0211509D02*
X0006758Y0211509D01*
X0006765Y0211902D02*
X0038278Y0211902D01*
X0038284Y0212294D02*
X0006771Y0212294D01*
X0006777Y0212686D02*
X0038290Y0212686D01*
X0038296Y0213078D02*
X0006784Y0213078D01*
X0006790Y0213470D02*
X0038302Y0213470D01*
X0038308Y0213863D02*
X0006796Y0213863D01*
X0006803Y0214255D02*
X0038314Y0214255D01*
X0038321Y0214647D02*
X0006809Y0214647D01*
X0006815Y0215039D02*
X0038327Y0215039D01*
X0038333Y0215431D02*
X0006822Y0215431D01*
X0006828Y0215824D02*
X0038339Y0215824D01*
X0038345Y0216216D02*
X0006834Y0216216D01*
X0006841Y0216608D02*
X0038351Y0216608D01*
X0038357Y0217000D02*
X0006847Y0217000D01*
X0006853Y0217392D02*
X0038363Y0217392D01*
X0038370Y0217785D02*
X0006860Y0217785D01*
X0006866Y0218177D02*
X0038376Y0218177D01*
X0038382Y0218569D02*
X0006872Y0218569D01*
X0006879Y0218961D02*
X0038388Y0218961D01*
X0038394Y0219354D02*
X0006885Y0219354D01*
X0006891Y0219746D02*
X0038400Y0219746D01*
X0038406Y0220138D02*
X0006898Y0220138D01*
X0006904Y0220530D02*
X0038412Y0220530D01*
X0038419Y0220922D02*
X0006910Y0220922D01*
X0006917Y0221315D02*
X0038425Y0221315D01*
X0038431Y0221707D02*
X0006923Y0221707D01*
X0006929Y0222099D02*
X0038437Y0222099D01*
X0038443Y0222491D02*
X0006936Y0222491D01*
X0006942Y0222883D02*
X0038449Y0222883D01*
X0038455Y0223276D02*
X0006948Y0223276D01*
X0006955Y0223668D02*
X0038462Y0223668D01*
X0038468Y0224060D02*
X0006961Y0224060D01*
X0006967Y0224452D02*
X0038474Y0224452D01*
X0038480Y0224845D02*
X0006974Y0224845D01*
X0006980Y0225237D02*
X0038486Y0225237D01*
X0038492Y0225629D02*
X0006986Y0225629D01*
X0006993Y0226021D02*
X0038498Y0226021D01*
X0038504Y0226413D02*
X0006999Y0226413D01*
X0007005Y0226806D02*
X0038511Y0226806D01*
X0038517Y0227198D02*
X0007011Y0227198D01*
X0007018Y0227590D02*
X0038523Y0227590D01*
X0038529Y0227982D02*
X0007024Y0227982D01*
X0007030Y0228374D02*
X0038535Y0228374D01*
X0038541Y0228767D02*
X0007037Y0228767D01*
X0007043Y0229159D02*
X0038547Y0229159D01*
X0038553Y0229551D02*
X0007049Y0229551D01*
X0007056Y0229943D02*
X0038560Y0229943D01*
X0038566Y0230335D02*
X0007062Y0230335D01*
X0007068Y0230728D02*
X0038572Y0230728D01*
X0038578Y0231120D02*
X0007075Y0231120D01*
X0007081Y0231512D02*
X0038584Y0231512D01*
X0038590Y0231904D02*
X0007087Y0231904D01*
X0007094Y0232297D02*
X0038596Y0232297D01*
X0038602Y0232689D02*
X0007100Y0232689D01*
X0007106Y0233081D02*
X0038609Y0233081D01*
X0038615Y0233473D02*
X0007113Y0233473D01*
X0007119Y0233865D02*
X0038621Y0233865D01*
X0038627Y0234258D02*
X0007125Y0234258D01*
X0007132Y0234650D02*
X0038633Y0234650D01*
X0038639Y0235042D02*
X0007138Y0235042D01*
X0007144Y0235434D02*
X0038645Y0235434D01*
X0038651Y0235826D02*
X0007151Y0235826D01*
X0007157Y0236219D02*
X0038658Y0236219D01*
X0038664Y0236611D02*
X0007163Y0236611D01*
X0007170Y0237003D02*
X0038670Y0237003D01*
X0038676Y0237395D02*
X0007176Y0237395D01*
X0007182Y0237787D02*
X0038682Y0237787D01*
X0038688Y0238180D02*
X0007189Y0238180D01*
X0007195Y0238572D02*
X0038694Y0238572D01*
X0038701Y0238964D02*
X0007201Y0238964D01*
X0007208Y0239356D02*
X0038707Y0239356D01*
X0038713Y0239749D02*
X0007214Y0239749D01*
X0007220Y0240141D02*
X0038719Y0240141D01*
X0038725Y0240533D02*
X0007227Y0240533D01*
X0007233Y0240925D02*
X0038731Y0240925D01*
X0038737Y0241317D02*
X0007239Y0241317D01*
X0007246Y0241710D02*
X0038743Y0241710D01*
X0038750Y0242102D02*
X0007252Y0242102D01*
X0007258Y0242494D02*
X0038756Y0242494D01*
X0038762Y0242886D02*
X0007265Y0242886D01*
X0007271Y0243278D02*
X0038768Y0243278D01*
X0038774Y0243671D02*
X0007277Y0243671D01*
X0007284Y0244063D02*
X0038780Y0244063D01*
X0038786Y0244455D02*
X0007290Y0244455D01*
X0007296Y0244847D02*
X0038792Y0244847D01*
X0038782Y0245240D02*
X0007319Y0245240D01*
X0007742Y0245632D02*
X0038367Y0245632D01*
X0037952Y0246024D02*
X0008165Y0246024D01*
X0008587Y0246416D02*
X0037536Y0246416D01*
X0037121Y0246808D02*
X0009010Y0246808D01*
X0009433Y0247201D02*
X0036706Y0247201D01*
X0036291Y0247593D02*
X0009856Y0247593D01*
X0010279Y0247985D02*
X0035875Y0247985D01*
X0035460Y0248377D02*
X0010702Y0248377D01*
X0011125Y0248769D02*
X0035045Y0248769D01*
X0034629Y0249162D02*
X0011548Y0249162D01*
X0011971Y0249554D02*
X0034214Y0249554D01*
X0033799Y0249946D02*
X0012394Y0249946D01*
X0012817Y0250338D02*
X0033384Y0250338D01*
X0032968Y0250730D02*
X0013240Y0250730D01*
X0013663Y0251123D02*
X0032553Y0251123D01*
X0032138Y0251515D02*
X0014086Y0251515D01*
X0014509Y0251907D02*
X0031722Y0251907D01*
X0031307Y0252299D02*
X0014932Y0252299D01*
X0015355Y0252692D02*
X0030892Y0252692D01*
X0030477Y0253084D02*
X0015778Y0253084D01*
X0016201Y0253476D02*
X0030061Y0253476D01*
X0029646Y0253868D02*
X0016624Y0253868D01*
X0017047Y0254260D02*
X0029231Y0254260D01*
X0028816Y0254653D02*
X0017470Y0254653D01*
X0017893Y0255045D02*
X0028400Y0255045D01*
X0028168Y0264713D02*
X0039192Y0274752D01*
X0039979Y0413925D01*
X0029349Y0423768D01*
X0019507Y0423768D01*
X0008483Y0413925D01*
X0007696Y0274752D01*
X0018326Y0264713D01*
X0028168Y0264713D01*
X0028319Y0264850D02*
X0018180Y0264850D01*
X0017765Y0265242D02*
X0028750Y0265242D01*
X0029181Y0265635D02*
X0017350Y0265635D01*
X0016934Y0266027D02*
X0029611Y0266027D01*
X0030042Y0266419D02*
X0016519Y0266419D01*
X0016104Y0266811D02*
X0030473Y0266811D01*
X0030903Y0267203D02*
X0015689Y0267203D01*
X0015273Y0267596D02*
X0031334Y0267596D01*
X0031765Y0267988D02*
X0014858Y0267988D01*
X0014443Y0268380D02*
X0032195Y0268380D01*
X0032626Y0268772D02*
X0014027Y0268772D01*
X0013612Y0269164D02*
X0033057Y0269164D01*
X0033487Y0269557D02*
X0013197Y0269557D01*
X0012782Y0269949D02*
X0033918Y0269949D01*
X0034349Y0270341D02*
X0012366Y0270341D01*
X0011951Y0270733D02*
X0034779Y0270733D01*
X0035210Y0271126D02*
X0011536Y0271126D01*
X0011120Y0271518D02*
X0035641Y0271518D01*
X0036071Y0271910D02*
X0010705Y0271910D01*
X0010290Y0272302D02*
X0036502Y0272302D01*
X0036933Y0272694D02*
X0009875Y0272694D01*
X0009459Y0273087D02*
X0037363Y0273087D01*
X0037794Y0273479D02*
X0009044Y0273479D01*
X0008629Y0273871D02*
X0038225Y0273871D01*
X0038655Y0274263D02*
X0008213Y0274263D01*
X0007798Y0274655D02*
X0039086Y0274655D01*
X0039194Y0275048D02*
X0007698Y0275048D01*
X0007700Y0275440D02*
X0039196Y0275440D01*
X0039198Y0275832D02*
X0007702Y0275832D01*
X0007704Y0276224D02*
X0039200Y0276224D01*
X0039203Y0276616D02*
X0007706Y0276616D01*
X0007709Y0277009D02*
X0039205Y0277009D01*
X0039207Y0277401D02*
X0007711Y0277401D01*
X0007713Y0277793D02*
X0039209Y0277793D01*
X0039211Y0278185D02*
X0007715Y0278185D01*
X0007718Y0278578D02*
X0039214Y0278578D01*
X0039216Y0278970D02*
X0007720Y0278970D01*
X0007722Y0279362D02*
X0039218Y0279362D01*
X0039220Y0279754D02*
X0007724Y0279754D01*
X0007726Y0280146D02*
X0039223Y0280146D01*
X0039225Y0280539D02*
X0007729Y0280539D01*
X0007731Y0280931D02*
X0039227Y0280931D01*
X0039229Y0281323D02*
X0007733Y0281323D01*
X0007735Y0281715D02*
X0039231Y0281715D01*
X0039234Y0282107D02*
X0007738Y0282107D01*
X0007740Y0282500D02*
X0039236Y0282500D01*
X0039238Y0282892D02*
X0007742Y0282892D01*
X0007744Y0283284D02*
X0039240Y0283284D01*
X0039243Y0283676D02*
X0007746Y0283676D01*
X0007749Y0284069D02*
X0039245Y0284069D01*
X0039247Y0284461D02*
X0007751Y0284461D01*
X0007753Y0284853D02*
X0039249Y0284853D01*
X0039251Y0285245D02*
X0007755Y0285245D01*
X0007758Y0285637D02*
X0039254Y0285637D01*
X0039256Y0286030D02*
X0007760Y0286030D01*
X0007762Y0286422D02*
X0039258Y0286422D01*
X0039260Y0286814D02*
X0007764Y0286814D01*
X0007766Y0287206D02*
X0039262Y0287206D01*
X0039265Y0287598D02*
X0007769Y0287598D01*
X0007771Y0287991D02*
X0039267Y0287991D01*
X0039269Y0288383D02*
X0007773Y0288383D01*
X0007775Y0288775D02*
X0039271Y0288775D01*
X0039274Y0289167D02*
X0007778Y0289167D01*
X0007780Y0289559D02*
X0039276Y0289559D01*
X0039278Y0289952D02*
X0007782Y0289952D01*
X0007784Y0290344D02*
X0039280Y0290344D01*
X0039282Y0290736D02*
X0007786Y0290736D01*
X0007789Y0291128D02*
X0039285Y0291128D01*
X0039287Y0291521D02*
X0007791Y0291521D01*
X0007793Y0291913D02*
X0039289Y0291913D01*
X0039291Y0292305D02*
X0007795Y0292305D01*
X0007797Y0292697D02*
X0039294Y0292697D01*
X0039296Y0293089D02*
X0007800Y0293089D01*
X0007802Y0293482D02*
X0039298Y0293482D01*
X0039300Y0293874D02*
X0007804Y0293874D01*
X0007806Y0294266D02*
X0039302Y0294266D01*
X0039305Y0294658D02*
X0007809Y0294658D01*
X0007811Y0295050D02*
X0039307Y0295050D01*
X0039309Y0295443D02*
X0007813Y0295443D01*
X0007815Y0295835D02*
X0039311Y0295835D01*
X0039314Y0296227D02*
X0007817Y0296227D01*
X0007820Y0296619D02*
X0039316Y0296619D01*
X0039318Y0297012D02*
X0007822Y0297012D01*
X0007824Y0297404D02*
X0039320Y0297404D01*
X0039322Y0297796D02*
X0007826Y0297796D01*
X0007829Y0298188D02*
X0039325Y0298188D01*
X0039327Y0298580D02*
X0007831Y0298580D01*
X0007833Y0298973D02*
X0039329Y0298973D01*
X0039331Y0299365D02*
X0007835Y0299365D01*
X0007837Y0299757D02*
X0039333Y0299757D01*
X0039336Y0300149D02*
X0007840Y0300149D01*
X0007842Y0300541D02*
X0039338Y0300541D01*
X0039340Y0300934D02*
X0007844Y0300934D01*
X0007846Y0301326D02*
X0039342Y0301326D01*
X0039345Y0301718D02*
X0007849Y0301718D01*
X0007851Y0302110D02*
X0039347Y0302110D01*
X0039349Y0302502D02*
X0007853Y0302502D01*
X0007855Y0302895D02*
X0039351Y0302895D01*
X0039353Y0303287D02*
X0007857Y0303287D01*
X0007860Y0303679D02*
X0039356Y0303679D01*
X0039358Y0304071D02*
X0007862Y0304071D01*
X0007864Y0304464D02*
X0039360Y0304464D01*
X0039362Y0304856D02*
X0007866Y0304856D01*
X0007868Y0305248D02*
X0039365Y0305248D01*
X0039367Y0305640D02*
X0007871Y0305640D01*
X0007873Y0306032D02*
X0039369Y0306032D01*
X0039371Y0306425D02*
X0007875Y0306425D01*
X0007877Y0306817D02*
X0039373Y0306817D01*
X0039376Y0307209D02*
X0007880Y0307209D01*
X0007882Y0307601D02*
X0039378Y0307601D01*
X0039380Y0307993D02*
X0007884Y0307993D01*
X0007886Y0308386D02*
X0039382Y0308386D01*
X0039385Y0308778D02*
X0007888Y0308778D01*
X0007891Y0309170D02*
X0039387Y0309170D01*
X0039389Y0309562D02*
X0007893Y0309562D01*
X0007895Y0309955D02*
X0039391Y0309955D01*
X0039393Y0310347D02*
X0007897Y0310347D01*
X0007900Y0310739D02*
X0039396Y0310739D01*
X0039398Y0311131D02*
X0007902Y0311131D01*
X0007904Y0311523D02*
X0039400Y0311523D01*
X0039402Y0311916D02*
X0007906Y0311916D01*
X0007908Y0312308D02*
X0039405Y0312308D01*
X0039407Y0312700D02*
X0007911Y0312700D01*
X0007913Y0313092D02*
X0039409Y0313092D01*
X0039411Y0313484D02*
X0007915Y0313484D01*
X0007917Y0313877D02*
X0039413Y0313877D01*
X0039416Y0314269D02*
X0007920Y0314269D01*
X0007922Y0314661D02*
X0039418Y0314661D01*
X0039420Y0315053D02*
X0007924Y0315053D01*
X0007926Y0315445D02*
X0039422Y0315445D01*
X0039424Y0315838D02*
X0007928Y0315838D01*
X0007931Y0316230D02*
X0039427Y0316230D01*
X0039429Y0316622D02*
X0007933Y0316622D01*
X0007935Y0317014D02*
X0039431Y0317014D01*
X0039433Y0317407D02*
X0007937Y0317407D01*
X0007939Y0317799D02*
X0039436Y0317799D01*
X0039438Y0318191D02*
X0007942Y0318191D01*
X0007944Y0318583D02*
X0039440Y0318583D01*
X0039442Y0318975D02*
X0007946Y0318975D01*
X0007948Y0319368D02*
X0039444Y0319368D01*
X0039447Y0319760D02*
X0007951Y0319760D01*
X0007953Y0320152D02*
X0039449Y0320152D01*
X0039451Y0320544D02*
X0007955Y0320544D01*
X0007957Y0320936D02*
X0039453Y0320936D01*
X0039456Y0321329D02*
X0007959Y0321329D01*
X0007962Y0321721D02*
X0039458Y0321721D01*
X0039460Y0322113D02*
X0007964Y0322113D01*
X0007966Y0322505D02*
X0039462Y0322505D01*
X0039464Y0322898D02*
X0007968Y0322898D01*
X0007971Y0323290D02*
X0039467Y0323290D01*
X0039469Y0323682D02*
X0007973Y0323682D01*
X0007975Y0324074D02*
X0039471Y0324074D01*
X0039473Y0324466D02*
X0007977Y0324466D01*
X0007979Y0324859D02*
X0039476Y0324859D01*
X0039478Y0325251D02*
X0007982Y0325251D01*
X0007984Y0325643D02*
X0039480Y0325643D01*
X0039482Y0326035D02*
X0007986Y0326035D01*
X0007988Y0326427D02*
X0039484Y0326427D01*
X0039487Y0326820D02*
X0007991Y0326820D01*
X0007993Y0327212D02*
X0039489Y0327212D01*
X0039491Y0327604D02*
X0007995Y0327604D01*
X0007997Y0327996D02*
X0039493Y0327996D01*
X0039495Y0328388D02*
X0007999Y0328388D01*
X0008002Y0328781D02*
X0039498Y0328781D01*
X0039500Y0329173D02*
X0008004Y0329173D01*
X0008006Y0329565D02*
X0039502Y0329565D01*
X0039504Y0329957D02*
X0008008Y0329957D01*
X0008011Y0330350D02*
X0039507Y0330350D01*
X0039509Y0330742D02*
X0008013Y0330742D01*
X0008015Y0331134D02*
X0039511Y0331134D01*
X0039513Y0331526D02*
X0008017Y0331526D01*
X0008019Y0331918D02*
X0039515Y0331918D01*
X0039518Y0332311D02*
X0008022Y0332311D01*
X0008024Y0332703D02*
X0039520Y0332703D01*
X0039522Y0333095D02*
X0008026Y0333095D01*
X0008028Y0333487D02*
X0039524Y0333487D01*
X0039527Y0333879D02*
X0008030Y0333879D01*
X0008033Y0334272D02*
X0039529Y0334272D01*
X0039531Y0334664D02*
X0008035Y0334664D01*
X0008037Y0335056D02*
X0039533Y0335056D01*
X0039535Y0335448D02*
X0008039Y0335448D01*
X0008042Y0335841D02*
X0039538Y0335841D01*
X0039540Y0336233D02*
X0008044Y0336233D01*
X0008046Y0336625D02*
X0039542Y0336625D01*
X0039544Y0337017D02*
X0008048Y0337017D01*
X0008050Y0337409D02*
X0039547Y0337409D01*
X0039549Y0337802D02*
X0008053Y0337802D01*
X0008055Y0338194D02*
X0039551Y0338194D01*
X0039553Y0338586D02*
X0008057Y0338586D01*
X0008059Y0338978D02*
X0039555Y0338978D01*
X0039558Y0339370D02*
X0008062Y0339370D01*
X0008064Y0339763D02*
X0039560Y0339763D01*
X0039562Y0340155D02*
X0008066Y0340155D01*
X0008068Y0340547D02*
X0039564Y0340547D01*
X0039566Y0340939D02*
X0008070Y0340939D01*
X0008073Y0341331D02*
X0039569Y0341331D01*
X0039571Y0341724D02*
X0008075Y0341724D01*
X0008077Y0342116D02*
X0039573Y0342116D01*
X0039575Y0342508D02*
X0008079Y0342508D01*
X0008082Y0342900D02*
X0039578Y0342900D01*
X0039580Y0343293D02*
X0008084Y0343293D01*
X0008086Y0343685D02*
X0039582Y0343685D01*
X0039584Y0344077D02*
X0008088Y0344077D01*
X0008090Y0344469D02*
X0039586Y0344469D01*
X0039589Y0344861D02*
X0008093Y0344861D01*
X0008095Y0345254D02*
X0039591Y0345254D01*
X0039593Y0345646D02*
X0008097Y0345646D01*
X0008099Y0346038D02*
X0039595Y0346038D01*
X0039598Y0346430D02*
X0008101Y0346430D01*
X0008104Y0346822D02*
X0039600Y0346822D01*
X0039602Y0347215D02*
X0008106Y0347215D01*
X0008108Y0347607D02*
X0039604Y0347607D01*
X0039606Y0347999D02*
X0008110Y0347999D01*
X0008113Y0348391D02*
X0039609Y0348391D01*
X0039611Y0348784D02*
X0008115Y0348784D01*
X0008117Y0349176D02*
X0039613Y0349176D01*
X0039615Y0349568D02*
X0008119Y0349568D01*
X0008121Y0349960D02*
X0039618Y0349960D01*
X0039620Y0350352D02*
X0008124Y0350352D01*
X0008126Y0350745D02*
X0039622Y0350745D01*
X0039624Y0351137D02*
X0008128Y0351137D01*
X0008130Y0351529D02*
X0039626Y0351529D01*
X0039629Y0351921D02*
X0008133Y0351921D01*
X0008135Y0352313D02*
X0039631Y0352313D01*
X0039633Y0352706D02*
X0008137Y0352706D01*
X0008139Y0353098D02*
X0039635Y0353098D01*
X0039638Y0353490D02*
X0008141Y0353490D01*
X0008144Y0353882D02*
X0039640Y0353882D01*
X0039642Y0354274D02*
X0008146Y0354274D01*
X0008148Y0354667D02*
X0039644Y0354667D01*
X0039646Y0355059D02*
X0008150Y0355059D01*
X0008153Y0355451D02*
X0039649Y0355451D01*
X0039651Y0355843D02*
X0008155Y0355843D01*
X0008157Y0356236D02*
X0039653Y0356236D01*
X0039655Y0356628D02*
X0008159Y0356628D01*
X0008161Y0357020D02*
X0039657Y0357020D01*
X0039660Y0357412D02*
X0008164Y0357412D01*
X0008166Y0357804D02*
X0039662Y0357804D01*
X0039664Y0358197D02*
X0008168Y0358197D01*
X0008170Y0358589D02*
X0039666Y0358589D01*
X0039669Y0358981D02*
X0008172Y0358981D01*
X0008175Y0359373D02*
X0039671Y0359373D01*
X0039673Y0359765D02*
X0008177Y0359765D01*
X0008179Y0360158D02*
X0039675Y0360158D01*
X0039677Y0360550D02*
X0008181Y0360550D01*
X0008184Y0360942D02*
X0039680Y0360942D01*
X0039682Y0361334D02*
X0008186Y0361334D01*
X0008188Y0361727D02*
X0039684Y0361727D01*
X0039686Y0362119D02*
X0008190Y0362119D01*
X0008192Y0362511D02*
X0039689Y0362511D01*
X0039691Y0362903D02*
X0008195Y0362903D01*
X0008197Y0363295D02*
X0039693Y0363295D01*
X0039695Y0363688D02*
X0008199Y0363688D01*
X0008201Y0364080D02*
X0039697Y0364080D01*
X0039700Y0364472D02*
X0008204Y0364472D01*
X0008206Y0364864D02*
X0039702Y0364864D01*
X0039704Y0365256D02*
X0008208Y0365256D01*
X0008210Y0365649D02*
X0039706Y0365649D01*
X0039709Y0366041D02*
X0008212Y0366041D01*
X0008215Y0366433D02*
X0039711Y0366433D01*
X0039713Y0366825D02*
X0008217Y0366825D01*
X0008219Y0367217D02*
X0039715Y0367217D01*
X0039717Y0367610D02*
X0008221Y0367610D01*
X0008224Y0368002D02*
X0039720Y0368002D01*
X0039722Y0368394D02*
X0008226Y0368394D01*
X0008228Y0368786D02*
X0039724Y0368786D01*
X0039726Y0369179D02*
X0008230Y0369179D01*
X0008232Y0369571D02*
X0039728Y0369571D01*
X0039731Y0369963D02*
X0008235Y0369963D01*
X0008237Y0370355D02*
X0039733Y0370355D01*
X0039735Y0370747D02*
X0008239Y0370747D01*
X0008241Y0371140D02*
X0039737Y0371140D01*
X0039740Y0371532D02*
X0008244Y0371532D01*
X0008246Y0371924D02*
X0039742Y0371924D01*
X0039744Y0372316D02*
X0008248Y0372316D01*
X0008250Y0372708D02*
X0039746Y0372708D01*
X0039748Y0373101D02*
X0008252Y0373101D01*
X0008255Y0373493D02*
X0039751Y0373493D01*
X0039753Y0373885D02*
X0008257Y0373885D01*
X0008259Y0374277D02*
X0039755Y0374277D01*
X0039757Y0374670D02*
X0008261Y0374670D01*
X0008263Y0375062D02*
X0039760Y0375062D01*
X0039762Y0375454D02*
X0008266Y0375454D01*
X0008268Y0375846D02*
X0039764Y0375846D01*
X0039766Y0376238D02*
X0008270Y0376238D01*
X0008272Y0376631D02*
X0039768Y0376631D01*
X0039771Y0377023D02*
X0008275Y0377023D01*
X0008277Y0377415D02*
X0039773Y0377415D01*
X0039775Y0377807D02*
X0008279Y0377807D01*
X0008281Y0378199D02*
X0039777Y0378199D01*
X0039780Y0378592D02*
X0008283Y0378592D01*
X0008286Y0378984D02*
X0039782Y0378984D01*
X0039784Y0379376D02*
X0008288Y0379376D01*
X0008290Y0379768D02*
X0039786Y0379768D01*
X0039788Y0380160D02*
X0008292Y0380160D01*
X0008295Y0380553D02*
X0039791Y0380553D01*
X0039793Y0380945D02*
X0008297Y0380945D01*
X0008299Y0381337D02*
X0039795Y0381337D01*
X0039797Y0381729D02*
X0008301Y0381729D01*
X0008303Y0382122D02*
X0039799Y0382122D01*
X0039802Y0382514D02*
X0008306Y0382514D01*
X0008308Y0382906D02*
X0039804Y0382906D01*
X0039806Y0383298D02*
X0008310Y0383298D01*
X0008312Y0383690D02*
X0039808Y0383690D01*
X0039811Y0384083D02*
X0008315Y0384083D01*
X0008317Y0384475D02*
X0039813Y0384475D01*
X0039815Y0384867D02*
X0008319Y0384867D01*
X0008321Y0385259D02*
X0039817Y0385259D01*
X0039819Y0385651D02*
X0008323Y0385651D01*
X0008326Y0386044D02*
X0039822Y0386044D01*
X0039824Y0386436D02*
X0008328Y0386436D01*
X0008330Y0386828D02*
X0039826Y0386828D01*
X0039828Y0387220D02*
X0008332Y0387220D01*
X0008334Y0387613D02*
X0039831Y0387613D01*
X0039833Y0388005D02*
X0008337Y0388005D01*
X0008339Y0388397D02*
X0039835Y0388397D01*
X0039837Y0388789D02*
X0008341Y0388789D01*
X0008343Y0389181D02*
X0039839Y0389181D01*
X0039842Y0389574D02*
X0008346Y0389574D01*
X0008348Y0389966D02*
X0039844Y0389966D01*
X0039846Y0390358D02*
X0008350Y0390358D01*
X0008352Y0390750D02*
X0039848Y0390750D01*
X0039851Y0391142D02*
X0008354Y0391142D01*
X0008357Y0391535D02*
X0039853Y0391535D01*
X0039855Y0391927D02*
X0008359Y0391927D01*
X0008361Y0392319D02*
X0039857Y0392319D01*
X0039859Y0392711D02*
X0008363Y0392711D01*
X0008366Y0393103D02*
X0039862Y0393103D01*
X0039864Y0393496D02*
X0008368Y0393496D01*
X0008370Y0393888D02*
X0039866Y0393888D01*
X0039868Y0394280D02*
X0008372Y0394280D01*
X0008374Y0394672D02*
X0039870Y0394672D01*
X0039873Y0395065D02*
X0008377Y0395065D01*
X0008379Y0395457D02*
X0039875Y0395457D01*
X0039877Y0395849D02*
X0008381Y0395849D01*
X0008383Y0396241D02*
X0039879Y0396241D01*
X0039882Y0396633D02*
X0008386Y0396633D01*
X0008388Y0397026D02*
X0039884Y0397026D01*
X0039886Y0397418D02*
X0008390Y0397418D01*
X0008392Y0397810D02*
X0039888Y0397810D01*
X0039890Y0398202D02*
X0008394Y0398202D01*
X0008397Y0398594D02*
X0039893Y0398594D01*
X0039895Y0398987D02*
X0008399Y0398987D01*
X0008401Y0399379D02*
X0039897Y0399379D01*
X0039899Y0399771D02*
X0008403Y0399771D01*
X0008405Y0400163D02*
X0039902Y0400163D01*
X0039904Y0400556D02*
X0008408Y0400556D01*
X0008410Y0400948D02*
X0039906Y0400948D01*
X0039908Y0401340D02*
X0008412Y0401340D01*
X0008414Y0401732D02*
X0039910Y0401732D01*
X0039913Y0402124D02*
X0008417Y0402124D01*
X0008419Y0402517D02*
X0039915Y0402517D01*
X0039917Y0402909D02*
X0008421Y0402909D01*
X0008423Y0403301D02*
X0039919Y0403301D01*
X0039922Y0403693D02*
X0008425Y0403693D01*
X0008428Y0404085D02*
X0039924Y0404085D01*
X0039926Y0404478D02*
X0008430Y0404478D01*
X0008432Y0404870D02*
X0039928Y0404870D01*
X0039930Y0405262D02*
X0008434Y0405262D01*
X0008437Y0405654D02*
X0039933Y0405654D01*
X0039935Y0406046D02*
X0008439Y0406046D01*
X0008441Y0406439D02*
X0039937Y0406439D01*
X0039939Y0406831D02*
X0008443Y0406831D01*
X0008445Y0407223D02*
X0039941Y0407223D01*
X0039944Y0407615D02*
X0008448Y0407615D01*
X0008450Y0408008D02*
X0039946Y0408008D01*
X0039948Y0408400D02*
X0008452Y0408400D01*
X0008454Y0408792D02*
X0039950Y0408792D01*
X0039953Y0409184D02*
X0008457Y0409184D01*
X0008459Y0409576D02*
X0039955Y0409576D01*
X0039957Y0409969D02*
X0008461Y0409969D01*
X0008463Y0410361D02*
X0039959Y0410361D01*
X0039961Y0410753D02*
X0008465Y0410753D01*
X0008468Y0411145D02*
X0039964Y0411145D01*
X0039966Y0411537D02*
X0008470Y0411537D01*
X0008472Y0411930D02*
X0039968Y0411930D01*
X0039970Y0412322D02*
X0008474Y0412322D01*
X0008477Y0412714D02*
X0039973Y0412714D01*
X0039975Y0413106D02*
X0008479Y0413106D01*
X0008481Y0413499D02*
X0039977Y0413499D01*
X0039979Y0413891D02*
X0008483Y0413891D01*
X0008884Y0414283D02*
X0039593Y0414283D01*
X0039169Y0414675D02*
X0009323Y0414675D01*
X0009763Y0415067D02*
X0038746Y0415067D01*
X0038322Y0415460D02*
X0010202Y0415460D01*
X0010641Y0415852D02*
X0037899Y0415852D01*
X0037475Y0416244D02*
X0011080Y0416244D01*
X0011520Y0416636D02*
X0037052Y0416636D01*
X0036628Y0417028D02*
X0011959Y0417028D01*
X0012398Y0417421D02*
X0036204Y0417421D01*
X0035781Y0417813D02*
X0012838Y0417813D01*
X0013277Y0418205D02*
X0035357Y0418205D01*
X0034934Y0418597D02*
X0013716Y0418597D01*
X0014155Y0418989D02*
X0034510Y0418989D01*
X0034086Y0419382D02*
X0014595Y0419382D01*
X0015034Y0419774D02*
X0033663Y0419774D01*
X0033239Y0420166D02*
X0015473Y0420166D01*
X0015912Y0420558D02*
X0032816Y0420558D01*
X0032392Y0420951D02*
X0016352Y0420951D01*
X0016791Y0421343D02*
X0031968Y0421343D01*
X0031545Y0421735D02*
X0017230Y0421735D01*
X0017670Y0422127D02*
X0031121Y0422127D01*
X0030698Y0422519D02*
X0018109Y0422519D01*
X0018548Y0422912D02*
X0030274Y0422912D01*
X0029850Y0423304D02*
X0018987Y0423304D01*
X0019427Y0423696D02*
X0029427Y0423696D01*
X0029349Y0433413D02*
X0019507Y0433413D01*
X0008680Y0443453D01*
X0011042Y0583610D01*
X0022066Y0593650D01*
X0031909Y0593650D01*
X0042538Y0583610D01*
X0040373Y0443453D01*
X0029349Y0433413D01*
X0029446Y0433501D02*
X0019412Y0433501D01*
X0018989Y0433894D02*
X0029877Y0433894D01*
X0030307Y0434286D02*
X0018566Y0434286D01*
X0018143Y0434678D02*
X0030738Y0434678D01*
X0031169Y0435070D02*
X0017720Y0435070D01*
X0017297Y0435462D02*
X0031599Y0435462D01*
X0032030Y0435855D02*
X0016874Y0435855D01*
X0016451Y0436247D02*
X0032461Y0436247D01*
X0032891Y0436639D02*
X0016028Y0436639D01*
X0015605Y0437031D02*
X0033322Y0437031D01*
X0033753Y0437423D02*
X0015182Y0437423D01*
X0014759Y0437816D02*
X0034183Y0437816D01*
X0034614Y0438208D02*
X0014336Y0438208D01*
X0013913Y0438600D02*
X0035045Y0438600D01*
X0035475Y0438992D02*
X0013490Y0438992D01*
X0013068Y0439385D02*
X0035906Y0439385D01*
X0036337Y0439777D02*
X0012645Y0439777D01*
X0012222Y0440169D02*
X0036767Y0440169D01*
X0037198Y0440561D02*
X0011799Y0440561D01*
X0011376Y0440953D02*
X0037629Y0440953D01*
X0038059Y0441346D02*
X0010953Y0441346D01*
X0010530Y0441738D02*
X0038490Y0441738D01*
X0038921Y0442130D02*
X0010107Y0442130D01*
X0009684Y0442522D02*
X0039351Y0442522D01*
X0039782Y0442914D02*
X0009261Y0442914D01*
X0008838Y0443307D02*
X0040213Y0443307D01*
X0040377Y0443699D02*
X0008684Y0443699D01*
X0008691Y0444091D02*
X0040383Y0444091D01*
X0040389Y0444483D02*
X0008698Y0444483D01*
X0008704Y0444875D02*
X0040395Y0444875D01*
X0040401Y0445268D02*
X0008711Y0445268D01*
X0008717Y0445660D02*
X0040407Y0445660D01*
X0040413Y0446052D02*
X0008724Y0446052D01*
X0008731Y0446444D02*
X0040419Y0446444D01*
X0040425Y0446837D02*
X0008737Y0446837D01*
X0008744Y0447229D02*
X0040431Y0447229D01*
X0040438Y0447621D02*
X0008750Y0447621D01*
X0008757Y0448013D02*
X0040444Y0448013D01*
X0040450Y0448405D02*
X0008764Y0448405D01*
X0008770Y0448798D02*
X0040456Y0448798D01*
X0040462Y0449190D02*
X0008777Y0449190D01*
X0008784Y0449582D02*
X0040468Y0449582D01*
X0040474Y0449974D02*
X0008790Y0449974D01*
X0008797Y0450366D02*
X0040480Y0450366D01*
X0040486Y0450759D02*
X0008803Y0450759D01*
X0008810Y0451151D02*
X0040492Y0451151D01*
X0040498Y0451543D02*
X0008817Y0451543D01*
X0008823Y0451935D02*
X0040504Y0451935D01*
X0040510Y0452328D02*
X0008830Y0452328D01*
X0008836Y0452720D02*
X0040516Y0452720D01*
X0040522Y0453112D02*
X0008843Y0453112D01*
X0008850Y0453504D02*
X0040528Y0453504D01*
X0040534Y0453896D02*
X0008856Y0453896D01*
X0008863Y0454289D02*
X0040541Y0454289D01*
X0040547Y0454681D02*
X0008869Y0454681D01*
X0008876Y0455073D02*
X0040553Y0455073D01*
X0040559Y0455465D02*
X0008883Y0455465D01*
X0008889Y0455857D02*
X0040565Y0455857D01*
X0040571Y0456250D02*
X0008896Y0456250D01*
X0008902Y0456642D02*
X0040577Y0456642D01*
X0040583Y0457034D02*
X0008909Y0457034D01*
X0008916Y0457426D02*
X0040589Y0457426D01*
X0040595Y0457818D02*
X0008922Y0457818D01*
X0008929Y0458211D02*
X0040601Y0458211D01*
X0040607Y0458603D02*
X0008936Y0458603D01*
X0008942Y0458995D02*
X0040613Y0458995D01*
X0040619Y0459387D02*
X0008949Y0459387D01*
X0008955Y0459780D02*
X0040625Y0459780D01*
X0040631Y0460172D02*
X0008962Y0460172D01*
X0008969Y0460564D02*
X0040637Y0460564D01*
X0040644Y0460956D02*
X0008975Y0460956D01*
X0008982Y0461348D02*
X0040650Y0461348D01*
X0040656Y0461741D02*
X0008988Y0461741D01*
X0008995Y0462133D02*
X0040662Y0462133D01*
X0040668Y0462525D02*
X0009002Y0462525D01*
X0009008Y0462917D02*
X0040674Y0462917D01*
X0040680Y0463309D02*
X0009015Y0463309D01*
X0009021Y0463702D02*
X0040686Y0463702D01*
X0040692Y0464094D02*
X0009028Y0464094D01*
X0009035Y0464486D02*
X0040698Y0464486D01*
X0040704Y0464878D02*
X0009041Y0464878D01*
X0009048Y0465271D02*
X0040710Y0465271D01*
X0040716Y0465663D02*
X0009055Y0465663D01*
X0009061Y0466055D02*
X0040722Y0466055D01*
X0040728Y0466447D02*
X0009068Y0466447D01*
X0009074Y0466839D02*
X0040734Y0466839D01*
X0040740Y0467232D02*
X0009081Y0467232D01*
X0009088Y0467624D02*
X0040747Y0467624D01*
X0040753Y0468016D02*
X0009094Y0468016D01*
X0009101Y0468408D02*
X0040759Y0468408D01*
X0040765Y0468800D02*
X0009107Y0468800D01*
X0009114Y0469193D02*
X0040771Y0469193D01*
X0040777Y0469585D02*
X0009121Y0469585D01*
X0009127Y0469977D02*
X0040783Y0469977D01*
X0040789Y0470369D02*
X0009134Y0470369D01*
X0009140Y0470761D02*
X0040795Y0470761D01*
X0040801Y0471154D02*
X0009147Y0471154D01*
X0009154Y0471546D02*
X0040807Y0471546D01*
X0040813Y0471938D02*
X0009160Y0471938D01*
X0009167Y0472330D02*
X0040819Y0472330D01*
X0040825Y0472723D02*
X0009174Y0472723D01*
X0009180Y0473115D02*
X0040831Y0473115D01*
X0040837Y0473507D02*
X0009187Y0473507D01*
X0009193Y0473899D02*
X0040844Y0473899D01*
X0040850Y0474291D02*
X0009200Y0474291D01*
X0009207Y0474684D02*
X0040856Y0474684D01*
X0040862Y0475076D02*
X0009213Y0475076D01*
X0009220Y0475468D02*
X0040868Y0475468D01*
X0040874Y0475860D02*
X0009226Y0475860D01*
X0009233Y0476252D02*
X0040880Y0476252D01*
X0040886Y0476645D02*
X0009240Y0476645D01*
X0009246Y0477037D02*
X0040892Y0477037D01*
X0040898Y0477429D02*
X0009253Y0477429D01*
X0009259Y0477821D02*
X0040904Y0477821D01*
X0040910Y0478214D02*
X0009266Y0478214D01*
X0009273Y0478606D02*
X0040916Y0478606D01*
X0040922Y0478998D02*
X0009279Y0478998D01*
X0009286Y0479390D02*
X0040928Y0479390D01*
X0040934Y0479782D02*
X0009292Y0479782D01*
X0009299Y0480175D02*
X0040940Y0480175D01*
X0040947Y0480567D02*
X0009306Y0480567D01*
X0009312Y0480959D02*
X0040953Y0480959D01*
X0040959Y0481351D02*
X0009319Y0481351D01*
X0009326Y0481743D02*
X0040965Y0481743D01*
X0040971Y0482136D02*
X0009332Y0482136D01*
X0009339Y0482528D02*
X0040977Y0482528D01*
X0040983Y0482920D02*
X0009345Y0482920D01*
X0009352Y0483312D02*
X0040989Y0483312D01*
X0040995Y0483704D02*
X0009359Y0483704D01*
X0009365Y0484097D02*
X0041001Y0484097D01*
X0041007Y0484489D02*
X0009372Y0484489D01*
X0009378Y0484881D02*
X0041013Y0484881D01*
X0041019Y0485273D02*
X0009385Y0485273D01*
X0009392Y0485666D02*
X0041025Y0485666D01*
X0041031Y0486058D02*
X0009398Y0486058D01*
X0009405Y0486450D02*
X0041037Y0486450D01*
X0041043Y0486842D02*
X0009411Y0486842D01*
X0009418Y0487234D02*
X0041050Y0487234D01*
X0041056Y0487627D02*
X0009425Y0487627D01*
X0009431Y0488019D02*
X0041062Y0488019D01*
X0041068Y0488411D02*
X0009438Y0488411D01*
X0009445Y0488803D02*
X0041074Y0488803D01*
X0041080Y0489195D02*
X0009451Y0489195D01*
X0009458Y0489588D02*
X0041086Y0489588D01*
X0041092Y0489980D02*
X0009464Y0489980D01*
X0009471Y0490372D02*
X0041098Y0490372D01*
X0041104Y0490764D02*
X0009478Y0490764D01*
X0009484Y0491157D02*
X0041110Y0491157D01*
X0041116Y0491549D02*
X0009491Y0491549D01*
X0009497Y0491941D02*
X0041122Y0491941D01*
X0041128Y0492333D02*
X0009504Y0492333D01*
X0009511Y0492725D02*
X0041134Y0492725D01*
X0041140Y0493118D02*
X0009517Y0493118D01*
X0009524Y0493510D02*
X0041146Y0493510D01*
X0041153Y0493902D02*
X0009530Y0493902D01*
X0009537Y0494294D02*
X0041159Y0494294D01*
X0041165Y0494686D02*
X0009544Y0494686D01*
X0009550Y0495079D02*
X0041171Y0495079D01*
X0041177Y0495471D02*
X0009557Y0495471D01*
X0009564Y0495863D02*
X0041183Y0495863D01*
X0041189Y0496255D02*
X0009570Y0496255D01*
X0009577Y0496647D02*
X0041195Y0496647D01*
X0041201Y0497040D02*
X0009583Y0497040D01*
X0009590Y0497432D02*
X0041207Y0497432D01*
X0041213Y0497824D02*
X0009597Y0497824D01*
X0009603Y0498216D02*
X0041219Y0498216D01*
X0041225Y0498609D02*
X0009610Y0498609D01*
X0009616Y0499001D02*
X0041231Y0499001D01*
X0041237Y0499393D02*
X0009623Y0499393D01*
X0009630Y0499785D02*
X0041243Y0499785D01*
X0041249Y0500177D02*
X0009636Y0500177D01*
X0009643Y0500570D02*
X0041256Y0500570D01*
X0041262Y0500962D02*
X0009649Y0500962D01*
X0009656Y0501354D02*
X0041268Y0501354D01*
X0041274Y0501746D02*
X0009663Y0501746D01*
X0009669Y0502138D02*
X0041280Y0502138D01*
X0041286Y0502531D02*
X0009676Y0502531D01*
X0009683Y0502923D02*
X0041292Y0502923D01*
X0041298Y0503315D02*
X0009689Y0503315D01*
X0009696Y0503707D02*
X0041304Y0503707D01*
X0041310Y0504100D02*
X0009702Y0504100D01*
X0009709Y0504492D02*
X0041316Y0504492D01*
X0041322Y0504884D02*
X0009716Y0504884D01*
X0009722Y0505276D02*
X0041328Y0505276D01*
X0041334Y0505668D02*
X0009729Y0505668D01*
X0009735Y0506061D02*
X0041340Y0506061D01*
X0041346Y0506453D02*
X0009742Y0506453D01*
X0009749Y0506845D02*
X0041352Y0506845D01*
X0041359Y0507237D02*
X0009755Y0507237D01*
X0009762Y0507629D02*
X0041365Y0507629D01*
X0041371Y0508022D02*
X0009768Y0508022D01*
X0009775Y0508414D02*
X0041377Y0508414D01*
X0041383Y0508806D02*
X0009782Y0508806D01*
X0009788Y0509198D02*
X0041389Y0509198D01*
X0041395Y0509590D02*
X0009795Y0509590D01*
X0009801Y0509983D02*
X0041401Y0509983D01*
X0041407Y0510375D02*
X0009808Y0510375D01*
X0009815Y0510767D02*
X0041413Y0510767D01*
X0041419Y0511159D02*
X0009821Y0511159D01*
X0009828Y0511552D02*
X0041425Y0511552D01*
X0041431Y0511944D02*
X0009835Y0511944D01*
X0009841Y0512336D02*
X0041437Y0512336D01*
X0041443Y0512728D02*
X0009848Y0512728D01*
X0009854Y0513120D02*
X0041449Y0513120D01*
X0041456Y0513513D02*
X0009861Y0513513D01*
X0009868Y0513905D02*
X0041462Y0513905D01*
X0041468Y0514297D02*
X0009874Y0514297D01*
X0009881Y0514689D02*
X0041474Y0514689D01*
X0041480Y0515081D02*
X0009887Y0515081D01*
X0009894Y0515474D02*
X0041486Y0515474D01*
X0041492Y0515866D02*
X0009901Y0515866D01*
X0009907Y0516258D02*
X0041498Y0516258D01*
X0041504Y0516650D02*
X0009914Y0516650D01*
X0009920Y0517043D02*
X0041510Y0517043D01*
X0041516Y0517435D02*
X0009927Y0517435D01*
X0009934Y0517827D02*
X0041522Y0517827D01*
X0041528Y0518219D02*
X0009940Y0518219D01*
X0009947Y0518611D02*
X0041534Y0518611D01*
X0041540Y0519004D02*
X0009954Y0519004D01*
X0009960Y0519396D02*
X0041546Y0519396D01*
X0041552Y0519788D02*
X0009967Y0519788D01*
X0009973Y0520180D02*
X0041559Y0520180D01*
X0041565Y0520572D02*
X0009980Y0520572D01*
X0009987Y0520965D02*
X0041571Y0520965D01*
X0041577Y0521357D02*
X0009993Y0521357D01*
X0010000Y0521749D02*
X0041583Y0521749D01*
X0041589Y0522141D02*
X0010006Y0522141D01*
X0010013Y0522533D02*
X0041595Y0522533D01*
X0041601Y0522926D02*
X0010020Y0522926D01*
X0010026Y0523318D02*
X0041607Y0523318D01*
X0041613Y0523710D02*
X0010033Y0523710D01*
X0010039Y0524102D02*
X0041619Y0524102D01*
X0041625Y0524495D02*
X0010046Y0524495D01*
X0010053Y0524887D02*
X0041631Y0524887D01*
X0041637Y0525279D02*
X0010059Y0525279D01*
X0010066Y0525671D02*
X0041643Y0525671D01*
X0041649Y0526063D02*
X0010073Y0526063D01*
X0010079Y0526456D02*
X0041655Y0526456D01*
X0041662Y0526848D02*
X0010086Y0526848D01*
X0010092Y0527240D02*
X0041668Y0527240D01*
X0041674Y0527632D02*
X0010099Y0527632D01*
X0010106Y0528024D02*
X0041680Y0528024D01*
X0041686Y0528417D02*
X0010112Y0528417D01*
X0010119Y0528809D02*
X0041692Y0528809D01*
X0041698Y0529201D02*
X0010125Y0529201D01*
X0010132Y0529593D02*
X0041704Y0529593D01*
X0041710Y0529986D02*
X0010139Y0529986D01*
X0010145Y0530378D02*
X0041716Y0530378D01*
X0041722Y0530770D02*
X0010152Y0530770D01*
X0010158Y0531162D02*
X0041728Y0531162D01*
X0041734Y0531554D02*
X0010165Y0531554D01*
X0010172Y0531947D02*
X0041740Y0531947D01*
X0041746Y0532339D02*
X0010178Y0532339D01*
X0010185Y0532731D02*
X0041752Y0532731D01*
X0041758Y0533123D02*
X0010191Y0533123D01*
X0010198Y0533515D02*
X0041765Y0533515D01*
X0041771Y0533908D02*
X0010205Y0533908D01*
X0010211Y0534300D02*
X0041777Y0534300D01*
X0041783Y0534692D02*
X0010218Y0534692D01*
X0010225Y0535084D02*
X0041789Y0535084D01*
X0041795Y0535476D02*
X0010231Y0535476D01*
X0010238Y0535869D02*
X0041801Y0535869D01*
X0041807Y0536261D02*
X0010244Y0536261D01*
X0010251Y0536653D02*
X0041813Y0536653D01*
X0041819Y0537045D02*
X0010258Y0537045D01*
X0010264Y0537438D02*
X0041825Y0537438D01*
X0041831Y0537830D02*
X0010271Y0537830D01*
X0010277Y0538222D02*
X0041837Y0538222D01*
X0041843Y0538614D02*
X0010284Y0538614D01*
X0010291Y0539006D02*
X0041849Y0539006D01*
X0041855Y0539399D02*
X0010297Y0539399D01*
X0010304Y0539791D02*
X0041861Y0539791D01*
X0041868Y0540183D02*
X0010310Y0540183D01*
X0010317Y0540575D02*
X0041874Y0540575D01*
X0041880Y0540967D02*
X0010324Y0540967D01*
X0010330Y0541360D02*
X0041886Y0541360D01*
X0041892Y0541752D02*
X0010337Y0541752D01*
X0010344Y0542144D02*
X0041898Y0542144D01*
X0041904Y0542536D02*
X0010350Y0542536D01*
X0010357Y0542929D02*
X0041910Y0542929D01*
X0041916Y0543321D02*
X0010363Y0543321D01*
X0010370Y0543713D02*
X0041922Y0543713D01*
X0041928Y0544105D02*
X0010377Y0544105D01*
X0010383Y0544497D02*
X0041934Y0544497D01*
X0041940Y0544890D02*
X0010390Y0544890D01*
X0010396Y0545282D02*
X0041946Y0545282D01*
X0041952Y0545674D02*
X0010403Y0545674D01*
X0010410Y0546066D02*
X0041958Y0546066D01*
X0041965Y0546458D02*
X0010416Y0546458D01*
X0010423Y0546851D02*
X0041971Y0546851D01*
X0041977Y0547243D02*
X0010429Y0547243D01*
X0010436Y0547635D02*
X0041983Y0547635D01*
X0041989Y0548027D02*
X0010443Y0548027D01*
X0010449Y0548419D02*
X0041995Y0548419D01*
X0042001Y0548812D02*
X0010456Y0548812D01*
X0010463Y0549204D02*
X0042007Y0549204D01*
X0042013Y0549596D02*
X0010469Y0549596D01*
X0010476Y0549988D02*
X0042019Y0549988D01*
X0042025Y0550381D02*
X0010482Y0550381D01*
X0010489Y0550773D02*
X0042031Y0550773D01*
X0042037Y0551165D02*
X0010496Y0551165D01*
X0010502Y0551557D02*
X0042043Y0551557D01*
X0042049Y0551949D02*
X0010509Y0551949D01*
X0010515Y0552342D02*
X0042055Y0552342D01*
X0042061Y0552734D02*
X0010522Y0552734D01*
X0010529Y0553126D02*
X0042068Y0553126D01*
X0042074Y0553518D02*
X0010535Y0553518D01*
X0010542Y0553910D02*
X0042080Y0553910D01*
X0042086Y0554303D02*
X0010548Y0554303D01*
X0010555Y0554695D02*
X0042092Y0554695D01*
X0042098Y0555087D02*
X0010562Y0555087D01*
X0010568Y0555479D02*
X0042104Y0555479D01*
X0042110Y0555872D02*
X0010575Y0555872D01*
X0010582Y0556264D02*
X0042116Y0556264D01*
X0042122Y0556656D02*
X0010588Y0556656D01*
X0010595Y0557048D02*
X0042128Y0557048D01*
X0042134Y0557440D02*
X0010601Y0557440D01*
X0010608Y0557833D02*
X0042140Y0557833D01*
X0042146Y0558225D02*
X0010615Y0558225D01*
X0010621Y0558617D02*
X0042152Y0558617D01*
X0042158Y0559009D02*
X0010628Y0559009D01*
X0010634Y0559401D02*
X0042164Y0559401D01*
X0042171Y0559794D02*
X0010641Y0559794D01*
X0010648Y0560186D02*
X0042177Y0560186D01*
X0042183Y0560578D02*
X0010654Y0560578D01*
X0010661Y0560970D02*
X0042189Y0560970D01*
X0042195Y0561362D02*
X0010667Y0561362D01*
X0010674Y0561755D02*
X0042201Y0561755D01*
X0042207Y0562147D02*
X0010681Y0562147D01*
X0010687Y0562539D02*
X0042213Y0562539D01*
X0042219Y0562931D02*
X0010694Y0562931D01*
X0010700Y0563324D02*
X0042225Y0563324D01*
X0042231Y0563716D02*
X0010707Y0563716D01*
X0010714Y0564108D02*
X0042237Y0564108D01*
X0042243Y0564500D02*
X0010720Y0564500D01*
X0010727Y0564892D02*
X0042249Y0564892D01*
X0042255Y0565285D02*
X0010734Y0565285D01*
X0010740Y0565677D02*
X0042261Y0565677D01*
X0042267Y0566069D02*
X0010747Y0566069D01*
X0010753Y0566461D02*
X0042274Y0566461D01*
X0042280Y0566853D02*
X0010760Y0566853D01*
X0010767Y0567246D02*
X0042286Y0567246D01*
X0042292Y0567638D02*
X0010773Y0567638D01*
X0010780Y0568030D02*
X0042298Y0568030D01*
X0042304Y0568422D02*
X0010786Y0568422D01*
X0010793Y0568815D02*
X0042310Y0568815D01*
X0042316Y0569207D02*
X0010800Y0569207D01*
X0010806Y0569599D02*
X0042322Y0569599D01*
X0042328Y0569991D02*
X0010813Y0569991D01*
X0010819Y0570383D02*
X0042334Y0570383D01*
X0042340Y0570776D02*
X0010826Y0570776D01*
X0010833Y0571168D02*
X0042346Y0571168D01*
X0042352Y0571560D02*
X0010839Y0571560D01*
X0010846Y0571952D02*
X0042358Y0571952D01*
X0042364Y0572344D02*
X0010853Y0572344D01*
X0010859Y0572737D02*
X0042370Y0572737D01*
X0042377Y0573129D02*
X0010866Y0573129D01*
X0010872Y0573521D02*
X0042383Y0573521D01*
X0042389Y0573913D02*
X0010879Y0573913D01*
X0010886Y0574305D02*
X0042395Y0574305D01*
X0042401Y0574698D02*
X0010892Y0574698D01*
X0010899Y0575090D02*
X0042407Y0575090D01*
X0042413Y0575482D02*
X0010905Y0575482D01*
X0010912Y0575874D02*
X0042419Y0575874D01*
X0042425Y0576267D02*
X0010919Y0576267D01*
X0010925Y0576659D02*
X0042431Y0576659D01*
X0042437Y0577051D02*
X0010932Y0577051D01*
X0010938Y0577443D02*
X0042443Y0577443D01*
X0042449Y0577835D02*
X0010945Y0577835D01*
X0010952Y0578228D02*
X0042455Y0578228D01*
X0042461Y0578620D02*
X0010958Y0578620D01*
X0010965Y0579012D02*
X0042467Y0579012D01*
X0042473Y0579404D02*
X0010972Y0579404D01*
X0010978Y0579796D02*
X0042480Y0579796D01*
X0042486Y0580189D02*
X0010985Y0580189D01*
X0010991Y0580581D02*
X0042492Y0580581D01*
X0042498Y0580973D02*
X0010998Y0580973D01*
X0011005Y0581365D02*
X0042504Y0581365D01*
X0042510Y0581758D02*
X0011011Y0581758D01*
X0011018Y0582150D02*
X0042516Y0582150D01*
X0042522Y0582542D02*
X0011024Y0582542D01*
X0011031Y0582934D02*
X0042528Y0582934D01*
X0042534Y0583326D02*
X0011038Y0583326D01*
X0011161Y0583719D02*
X0042424Y0583719D01*
X0042008Y0584111D02*
X0011592Y0584111D01*
X0012023Y0584503D02*
X0041593Y0584503D01*
X0041178Y0584895D02*
X0012453Y0584895D01*
X0012884Y0585287D02*
X0040763Y0585287D01*
X0040347Y0585680D02*
X0013315Y0585680D01*
X0013745Y0586072D02*
X0039932Y0586072D01*
X0039517Y0586464D02*
X0014176Y0586464D01*
X0014607Y0586856D02*
X0039101Y0586856D01*
X0038686Y0587248D02*
X0015037Y0587248D01*
X0015468Y0587641D02*
X0038271Y0587641D01*
X0037856Y0588033D02*
X0015899Y0588033D01*
X0016329Y0588425D02*
X0037440Y0588425D01*
X0037025Y0588817D02*
X0016760Y0588817D01*
X0017191Y0589210D02*
X0036610Y0589210D01*
X0036195Y0589602D02*
X0017621Y0589602D01*
X0018052Y0589994D02*
X0035779Y0589994D01*
X0035364Y0590386D02*
X0018483Y0590386D01*
X0018913Y0590778D02*
X0034949Y0590778D01*
X0034533Y0591171D02*
X0019344Y0591171D01*
X0019775Y0591563D02*
X0034118Y0591563D01*
X0033703Y0591955D02*
X0020205Y0591955D01*
X0020636Y0592347D02*
X0033288Y0592347D01*
X0032872Y0592739D02*
X0021067Y0592739D01*
X0021497Y0593132D02*
X0032457Y0593132D01*
X0032042Y0593524D02*
X0021928Y0593524D01*
X0022263Y0603098D02*
X0011436Y0613138D01*
X0011633Y0635579D01*
X0025806Y0736563D01*
X0028956Y0754083D01*
X0041161Y0761760D01*
X0051003Y0759791D01*
X0059861Y0747587D01*
X0052972Y0704870D01*
X0048050Y0665500D01*
X0043326Y0633413D01*
X0043129Y0613138D01*
X0032105Y0603098D01*
X0022263Y0603098D01*
X0022014Y0603329D02*
X0032359Y0603329D01*
X0032789Y0603721D02*
X0021591Y0603721D01*
X0021168Y0604114D02*
X0033220Y0604114D01*
X0033651Y0604506D02*
X0020745Y0604506D01*
X0020322Y0604898D02*
X0034081Y0604898D01*
X0034512Y0605290D02*
X0019899Y0605290D01*
X0019476Y0605682D02*
X0034943Y0605682D01*
X0035373Y0606075D02*
X0019053Y0606075D01*
X0018630Y0606467D02*
X0035804Y0606467D01*
X0036235Y0606859D02*
X0018207Y0606859D01*
X0017784Y0607251D02*
X0036665Y0607251D01*
X0037096Y0607644D02*
X0017361Y0607644D01*
X0016938Y0608036D02*
X0037527Y0608036D01*
X0037957Y0608428D02*
X0016515Y0608428D01*
X0016092Y0608820D02*
X0038388Y0608820D01*
X0038819Y0609212D02*
X0015669Y0609212D01*
X0015246Y0609605D02*
X0039249Y0609605D01*
X0039680Y0609997D02*
X0014823Y0609997D01*
X0014401Y0610389D02*
X0040111Y0610389D01*
X0040541Y0610781D02*
X0013978Y0610781D01*
X0013555Y0611173D02*
X0040972Y0611173D01*
X0041403Y0611566D02*
X0013132Y0611566D01*
X0012709Y0611958D02*
X0041833Y0611958D01*
X0042264Y0612350D02*
X0012286Y0612350D01*
X0011863Y0612742D02*
X0042695Y0612742D01*
X0043125Y0613134D02*
X0011440Y0613134D01*
X0011440Y0613527D02*
X0043133Y0613527D01*
X0043137Y0613919D02*
X0011443Y0613919D01*
X0011446Y0614311D02*
X0043140Y0614311D01*
X0043144Y0614703D02*
X0011450Y0614703D01*
X0011453Y0615096D02*
X0043148Y0615096D01*
X0043152Y0615488D02*
X0011457Y0615488D01*
X0011460Y0615880D02*
X0043156Y0615880D01*
X0043159Y0616272D02*
X0011464Y0616272D01*
X0011467Y0616664D02*
X0043163Y0616664D01*
X0043167Y0617057D02*
X0011470Y0617057D01*
X0011474Y0617449D02*
X0043171Y0617449D01*
X0043175Y0617841D02*
X0011477Y0617841D01*
X0011481Y0618233D02*
X0043178Y0618233D01*
X0043182Y0618625D02*
X0011484Y0618625D01*
X0011488Y0619018D02*
X0043186Y0619018D01*
X0043190Y0619410D02*
X0011491Y0619410D01*
X0011495Y0619802D02*
X0043194Y0619802D01*
X0043198Y0620194D02*
X0011498Y0620194D01*
X0011501Y0620587D02*
X0043201Y0620587D01*
X0043205Y0620979D02*
X0011505Y0620979D01*
X0011508Y0621371D02*
X0043209Y0621371D01*
X0043213Y0621763D02*
X0011512Y0621763D01*
X0011515Y0622155D02*
X0043217Y0622155D01*
X0043220Y0622548D02*
X0011519Y0622548D01*
X0011522Y0622940D02*
X0043224Y0622940D01*
X0043228Y0623332D02*
X0011526Y0623332D01*
X0011529Y0623724D02*
X0043232Y0623724D01*
X0043236Y0624116D02*
X0011532Y0624116D01*
X0011536Y0624509D02*
X0043239Y0624509D01*
X0043243Y0624901D02*
X0011539Y0624901D01*
X0011543Y0625293D02*
X0043247Y0625293D01*
X0043251Y0625685D02*
X0011546Y0625685D01*
X0011550Y0626077D02*
X0043255Y0626077D01*
X0043258Y0626470D02*
X0011553Y0626470D01*
X0011556Y0626862D02*
X0043262Y0626862D01*
X0043266Y0627254D02*
X0011560Y0627254D01*
X0011563Y0627646D02*
X0043270Y0627646D01*
X0043274Y0628039D02*
X0011567Y0628039D01*
X0011570Y0628431D02*
X0043278Y0628431D01*
X0043281Y0628823D02*
X0011574Y0628823D01*
X0011577Y0629215D02*
X0043285Y0629215D01*
X0043289Y0629607D02*
X0011581Y0629607D01*
X0011584Y0630000D02*
X0043293Y0630000D01*
X0043297Y0630392D02*
X0011587Y0630392D01*
X0011591Y0630784D02*
X0043300Y0630784D01*
X0043304Y0631176D02*
X0011594Y0631176D01*
X0011598Y0631568D02*
X0043308Y0631568D01*
X0043312Y0631961D02*
X0011601Y0631961D01*
X0011605Y0632353D02*
X0043316Y0632353D01*
X0043319Y0632745D02*
X0011608Y0632745D01*
X0011612Y0633137D02*
X0043323Y0633137D01*
X0043343Y0633530D02*
X0011615Y0633530D01*
X0011618Y0633922D02*
X0043401Y0633922D01*
X0043458Y0634314D02*
X0011622Y0634314D01*
X0011625Y0634706D02*
X0043516Y0634706D01*
X0043574Y0635098D02*
X0011629Y0635098D01*
X0011632Y0635491D02*
X0043632Y0635491D01*
X0043689Y0635883D02*
X0011676Y0635883D01*
X0011731Y0636275D02*
X0043747Y0636275D01*
X0043805Y0636667D02*
X0011786Y0636667D01*
X0011841Y0637059D02*
X0043863Y0637059D01*
X0043920Y0637452D02*
X0011896Y0637452D01*
X0011951Y0637844D02*
X0043978Y0637844D01*
X0044036Y0638236D02*
X0012006Y0638236D01*
X0012061Y0638628D02*
X0044094Y0638628D01*
X0044151Y0639020D02*
X0012116Y0639020D01*
X0012171Y0639413D02*
X0044209Y0639413D01*
X0044267Y0639805D02*
X0012226Y0639805D01*
X0012281Y0640197D02*
X0044325Y0640197D01*
X0044382Y0640589D02*
X0012336Y0640589D01*
X0012391Y0640982D02*
X0044440Y0640982D01*
X0044498Y0641374D02*
X0012446Y0641374D01*
X0012501Y0641766D02*
X0044556Y0641766D01*
X0044613Y0642158D02*
X0012556Y0642158D01*
X0012611Y0642550D02*
X0044671Y0642550D01*
X0044729Y0642943D02*
X0012666Y0642943D01*
X0012722Y0643335D02*
X0044787Y0643335D01*
X0044844Y0643727D02*
X0012777Y0643727D01*
X0012832Y0644119D02*
X0044902Y0644119D01*
X0044960Y0644511D02*
X0012887Y0644511D01*
X0012942Y0644904D02*
X0045018Y0644904D01*
X0045075Y0645296D02*
X0012997Y0645296D01*
X0013052Y0645688D02*
X0045133Y0645688D01*
X0045191Y0646080D02*
X0013107Y0646080D01*
X0013162Y0646473D02*
X0045249Y0646473D01*
X0045306Y0646865D02*
X0013217Y0646865D01*
X0013272Y0647257D02*
X0045364Y0647257D01*
X0045422Y0647649D02*
X0013327Y0647649D01*
X0013382Y0648041D02*
X0045480Y0648041D01*
X0045537Y0648434D02*
X0013437Y0648434D01*
X0013492Y0648826D02*
X0045595Y0648826D01*
X0045653Y0649218D02*
X0013547Y0649218D01*
X0013602Y0649610D02*
X0045711Y0649610D01*
X0045768Y0650002D02*
X0013657Y0650002D01*
X0013712Y0650395D02*
X0045826Y0650395D01*
X0045884Y0650787D02*
X0013767Y0650787D01*
X0013822Y0651179D02*
X0045942Y0651179D01*
X0045999Y0651571D02*
X0013878Y0651571D01*
X0013933Y0651963D02*
X0046057Y0651963D01*
X0046115Y0652356D02*
X0013988Y0652356D01*
X0014043Y0652748D02*
X0046173Y0652748D01*
X0046230Y0653140D02*
X0014098Y0653140D01*
X0014153Y0653532D02*
X0046288Y0653532D01*
X0046346Y0653925D02*
X0014208Y0653925D01*
X0014263Y0654317D02*
X0046404Y0654317D01*
X0046461Y0654709D02*
X0014318Y0654709D01*
X0014373Y0655101D02*
X0046519Y0655101D01*
X0046577Y0655493D02*
X0014428Y0655493D01*
X0014483Y0655886D02*
X0046635Y0655886D01*
X0046692Y0656278D02*
X0014538Y0656278D01*
X0014593Y0656670D02*
X0046750Y0656670D01*
X0046808Y0657062D02*
X0014648Y0657062D01*
X0014703Y0657454D02*
X0046866Y0657454D01*
X0046923Y0657847D02*
X0014758Y0657847D01*
X0014813Y0658239D02*
X0046981Y0658239D01*
X0047039Y0658631D02*
X0014868Y0658631D01*
X0014923Y0659023D02*
X0047097Y0659023D01*
X0047154Y0659416D02*
X0014978Y0659416D01*
X0015034Y0659808D02*
X0047212Y0659808D01*
X0047270Y0660200D02*
X0015089Y0660200D01*
X0015144Y0660592D02*
X0047328Y0660592D01*
X0047385Y0660984D02*
X0015199Y0660984D01*
X0015254Y0661377D02*
X0047443Y0661377D01*
X0047501Y0661769D02*
X0015309Y0661769D01*
X0015364Y0662161D02*
X0047559Y0662161D01*
X0047616Y0662553D02*
X0015419Y0662553D01*
X0015474Y0662945D02*
X0047674Y0662945D01*
X0047732Y0663338D02*
X0015529Y0663338D01*
X0015584Y0663730D02*
X0047790Y0663730D01*
X0047847Y0664122D02*
X0015639Y0664122D01*
X0015694Y0664514D02*
X0047905Y0664514D01*
X0047963Y0664906D02*
X0015749Y0664906D01*
X0015804Y0665299D02*
X0048021Y0665299D01*
X0048074Y0665691D02*
X0015859Y0665691D01*
X0015914Y0666083D02*
X0048123Y0666083D01*
X0048172Y0666475D02*
X0015969Y0666475D01*
X0016024Y0666868D02*
X0048221Y0666868D01*
X0048270Y0667260D02*
X0016079Y0667260D01*
X0016134Y0667652D02*
X0048319Y0667652D01*
X0048368Y0668044D02*
X0016190Y0668044D01*
X0016245Y0668436D02*
X0048417Y0668436D01*
X0048466Y0668829D02*
X0016300Y0668829D01*
X0016355Y0669221D02*
X0048515Y0669221D01*
X0048564Y0669613D02*
X0016410Y0669613D01*
X0016465Y0670005D02*
X0048613Y0670005D01*
X0048662Y0670397D02*
X0016520Y0670397D01*
X0016575Y0670790D02*
X0048711Y0670790D01*
X0048761Y0671182D02*
X0016630Y0671182D01*
X0016685Y0671574D02*
X0048810Y0671574D01*
X0048859Y0671966D02*
X0016740Y0671966D01*
X0016795Y0672359D02*
X0048908Y0672359D01*
X0048957Y0672751D02*
X0016850Y0672751D01*
X0016905Y0673143D02*
X0049006Y0673143D01*
X0049055Y0673535D02*
X0016960Y0673535D01*
X0017015Y0673927D02*
X0049104Y0673927D01*
X0049153Y0674320D02*
X0017070Y0674320D01*
X0017125Y0674712D02*
X0049202Y0674712D01*
X0049251Y0675104D02*
X0017180Y0675104D01*
X0017235Y0675496D02*
X0049300Y0675496D01*
X0049349Y0675888D02*
X0017290Y0675888D01*
X0017345Y0676281D02*
X0049398Y0676281D01*
X0049447Y0676673D02*
X0017401Y0676673D01*
X0017456Y0677065D02*
X0049496Y0677065D01*
X0049545Y0677457D02*
X0017511Y0677457D01*
X0017566Y0677849D02*
X0049594Y0677849D01*
X0049643Y0678242D02*
X0017621Y0678242D01*
X0017676Y0678634D02*
X0049692Y0678634D01*
X0049741Y0679026D02*
X0017731Y0679026D01*
X0017786Y0679418D02*
X0049790Y0679418D01*
X0049839Y0679811D02*
X0017841Y0679811D01*
X0017896Y0680203D02*
X0049888Y0680203D01*
X0049937Y0680595D02*
X0017951Y0680595D01*
X0018006Y0680987D02*
X0049986Y0680987D01*
X0050035Y0681379D02*
X0018061Y0681379D01*
X0018116Y0681772D02*
X0050084Y0681772D01*
X0050133Y0682164D02*
X0018171Y0682164D01*
X0018226Y0682556D02*
X0050182Y0682556D01*
X0050231Y0682948D02*
X0018281Y0682948D01*
X0018336Y0683340D02*
X0050280Y0683340D01*
X0050329Y0683733D02*
X0018391Y0683733D01*
X0018446Y0684125D02*
X0050378Y0684125D01*
X0050427Y0684517D02*
X0018501Y0684517D01*
X0018557Y0684909D02*
X0050476Y0684909D01*
X0050525Y0685302D02*
X0018612Y0685302D01*
X0018667Y0685694D02*
X0050575Y0685694D01*
X0050624Y0686086D02*
X0018722Y0686086D01*
X0018777Y0686478D02*
X0050673Y0686478D01*
X0050722Y0686870D02*
X0018832Y0686870D01*
X0018887Y0687263D02*
X0050771Y0687263D01*
X0050820Y0687655D02*
X0018942Y0687655D01*
X0018997Y0688047D02*
X0050869Y0688047D01*
X0050918Y0688439D02*
X0019052Y0688439D01*
X0019107Y0688831D02*
X0050967Y0688831D01*
X0051016Y0689224D02*
X0019162Y0689224D01*
X0019217Y0689616D02*
X0051065Y0689616D01*
X0051114Y0690008D02*
X0019272Y0690008D01*
X0019327Y0690400D02*
X0051163Y0690400D01*
X0051212Y0690792D02*
X0019382Y0690792D01*
X0019437Y0691185D02*
X0051261Y0691185D01*
X0051310Y0691577D02*
X0019492Y0691577D01*
X0019547Y0691969D02*
X0051359Y0691969D01*
X0051408Y0692361D02*
X0019602Y0692361D01*
X0019657Y0692754D02*
X0051457Y0692754D01*
X0051506Y0693146D02*
X0019713Y0693146D01*
X0019768Y0693538D02*
X0051555Y0693538D01*
X0051604Y0693930D02*
X0019823Y0693930D01*
X0019878Y0694322D02*
X0051653Y0694322D01*
X0051702Y0694715D02*
X0019933Y0694715D01*
X0019988Y0695107D02*
X0051751Y0695107D01*
X0051800Y0695499D02*
X0020043Y0695499D01*
X0020098Y0695891D02*
X0051849Y0695891D01*
X0051898Y0696283D02*
X0020153Y0696283D01*
X0020208Y0696676D02*
X0051947Y0696676D01*
X0051996Y0697068D02*
X0020263Y0697068D01*
X0020318Y0697460D02*
X0052045Y0697460D01*
X0052094Y0697852D02*
X0020373Y0697852D01*
X0020428Y0698245D02*
X0052143Y0698245D01*
X0052192Y0698637D02*
X0020483Y0698637D01*
X0020538Y0699029D02*
X0052241Y0699029D01*
X0052290Y0699421D02*
X0020593Y0699421D01*
X0020648Y0699813D02*
X0052339Y0699813D01*
X0052388Y0700206D02*
X0020703Y0700206D01*
X0020758Y0700598D02*
X0052438Y0700598D01*
X0052487Y0700990D02*
X0020813Y0700990D01*
X0020869Y0701382D02*
X0052536Y0701382D01*
X0052585Y0701774D02*
X0020924Y0701774D01*
X0020979Y0702167D02*
X0052634Y0702167D01*
X0052683Y0702559D02*
X0021034Y0702559D01*
X0021089Y0702951D02*
X0052732Y0702951D01*
X0052781Y0703343D02*
X0021144Y0703343D01*
X0021199Y0703735D02*
X0052830Y0703735D01*
X0052879Y0704128D02*
X0021254Y0704128D01*
X0021309Y0704520D02*
X0052928Y0704520D01*
X0052978Y0704912D02*
X0021364Y0704912D01*
X0021419Y0705304D02*
X0053042Y0705304D01*
X0053105Y0705697D02*
X0021474Y0705697D01*
X0021529Y0706089D02*
X0053168Y0706089D01*
X0053231Y0706481D02*
X0021584Y0706481D01*
X0021639Y0706873D02*
X0053295Y0706873D01*
X0053358Y0707265D02*
X0021694Y0707265D01*
X0021749Y0707658D02*
X0053421Y0707658D01*
X0053484Y0708050D02*
X0021804Y0708050D01*
X0021859Y0708442D02*
X0053548Y0708442D01*
X0053611Y0708834D02*
X0021914Y0708834D01*
X0021969Y0709226D02*
X0053674Y0709226D01*
X0053737Y0709619D02*
X0022025Y0709619D01*
X0022080Y0710011D02*
X0053801Y0710011D01*
X0053864Y0710403D02*
X0022135Y0710403D01*
X0022190Y0710795D02*
X0053927Y0710795D01*
X0053990Y0711188D02*
X0022245Y0711188D01*
X0022300Y0711580D02*
X0054054Y0711580D01*
X0054117Y0711972D02*
X0022355Y0711972D01*
X0022410Y0712364D02*
X0054180Y0712364D01*
X0054244Y0712756D02*
X0022465Y0712756D01*
X0022520Y0713149D02*
X0054307Y0713149D01*
X0054370Y0713541D02*
X0022575Y0713541D01*
X0022630Y0713933D02*
X0054433Y0713933D01*
X0054497Y0714325D02*
X0022685Y0714325D01*
X0022740Y0714717D02*
X0054560Y0714717D01*
X0054623Y0715110D02*
X0022795Y0715110D01*
X0022850Y0715502D02*
X0054686Y0715502D01*
X0054750Y0715894D02*
X0022905Y0715894D01*
X0022960Y0716286D02*
X0054813Y0716286D01*
X0054876Y0716678D02*
X0023015Y0716678D01*
X0023070Y0717071D02*
X0054939Y0717071D01*
X0055003Y0717463D02*
X0023125Y0717463D01*
X0023181Y0717855D02*
X0055066Y0717855D01*
X0055129Y0718247D02*
X0023236Y0718247D01*
X0023291Y0718640D02*
X0055192Y0718640D01*
X0055256Y0719032D02*
X0023346Y0719032D01*
X0023401Y0719424D02*
X0055319Y0719424D01*
X0055382Y0719816D02*
X0023456Y0719816D01*
X0023511Y0720208D02*
X0055445Y0720208D01*
X0055509Y0720601D02*
X0023566Y0720601D01*
X0023621Y0720993D02*
X0055572Y0720993D01*
X0055635Y0721385D02*
X0023676Y0721385D01*
X0023731Y0721777D02*
X0055699Y0721777D01*
X0055762Y0722169D02*
X0023786Y0722169D01*
X0023841Y0722562D02*
X0055825Y0722562D01*
X0055888Y0722954D02*
X0023896Y0722954D01*
X0023951Y0723346D02*
X0055952Y0723346D01*
X0056015Y0723738D02*
X0024006Y0723738D01*
X0024061Y0724131D02*
X0056078Y0724131D01*
X0056141Y0724523D02*
X0024116Y0724523D01*
X0024171Y0724915D02*
X0056205Y0724915D01*
X0056268Y0725307D02*
X0024226Y0725307D01*
X0024281Y0725699D02*
X0056331Y0725699D01*
X0056394Y0726092D02*
X0024337Y0726092D01*
X0024392Y0726484D02*
X0056458Y0726484D01*
X0056521Y0726876D02*
X0024447Y0726876D01*
X0024502Y0727268D02*
X0056584Y0727268D01*
X0056647Y0727660D02*
X0024557Y0727660D01*
X0024612Y0728053D02*
X0056711Y0728053D01*
X0056774Y0728445D02*
X0024667Y0728445D01*
X0024722Y0728837D02*
X0056837Y0728837D01*
X0056900Y0729229D02*
X0024777Y0729229D01*
X0024832Y0729621D02*
X0056964Y0729621D01*
X0057027Y0730014D02*
X0024887Y0730014D01*
X0024942Y0730406D02*
X0057090Y0730406D01*
X0057153Y0730798D02*
X0024997Y0730798D01*
X0025052Y0731190D02*
X0057217Y0731190D01*
X0057280Y0731583D02*
X0025107Y0731583D01*
X0025162Y0731975D02*
X0057343Y0731975D01*
X0057407Y0732367D02*
X0025217Y0732367D01*
X0025272Y0732759D02*
X0057470Y0732759D01*
X0057533Y0733151D02*
X0025327Y0733151D01*
X0025382Y0733544D02*
X0057596Y0733544D01*
X0057660Y0733936D02*
X0025437Y0733936D01*
X0025493Y0734328D02*
X0057723Y0734328D01*
X0057786Y0734720D02*
X0025548Y0734720D01*
X0025603Y0735112D02*
X0057849Y0735112D01*
X0057913Y0735505D02*
X0025658Y0735505D01*
X0025713Y0735897D02*
X0057976Y0735897D01*
X0058039Y0736289D02*
X0025768Y0736289D01*
X0025827Y0736681D02*
X0058102Y0736681D01*
X0058166Y0737074D02*
X0025898Y0737074D01*
X0025968Y0737466D02*
X0058229Y0737466D01*
X0058292Y0737858D02*
X0026039Y0737858D01*
X0026109Y0738250D02*
X0058355Y0738250D01*
X0058419Y0738642D02*
X0026180Y0738642D01*
X0026251Y0739035D02*
X0058482Y0739035D01*
X0058545Y0739427D02*
X0026321Y0739427D01*
X0026392Y0739819D02*
X0058608Y0739819D01*
X0058672Y0740211D02*
X0026462Y0740211D01*
X0026533Y0740603D02*
X0058735Y0740603D01*
X0058798Y0740996D02*
X0026603Y0740996D01*
X0026674Y0741388D02*
X0058862Y0741388D01*
X0058925Y0741780D02*
X0026744Y0741780D01*
X0026815Y0742172D02*
X0058988Y0742172D01*
X0059051Y0742564D02*
X0026885Y0742564D01*
X0026956Y0742957D02*
X0059115Y0742957D01*
X0059178Y0743349D02*
X0027026Y0743349D01*
X0027097Y0743741D02*
X0059241Y0743741D01*
X0059304Y0744133D02*
X0027167Y0744133D01*
X0027238Y0744526D02*
X0059368Y0744526D01*
X0059431Y0744918D02*
X0027308Y0744918D01*
X0027379Y0745310D02*
X0059494Y0745310D01*
X0059557Y0745702D02*
X0027449Y0745702D01*
X0027520Y0746094D02*
X0059621Y0746094D01*
X0059684Y0746487D02*
X0027590Y0746487D01*
X0027661Y0746879D02*
X0059747Y0746879D01*
X0059810Y0747271D02*
X0027731Y0747271D01*
X0027802Y0747663D02*
X0059806Y0747663D01*
X0059521Y0748055D02*
X0027872Y0748055D01*
X0027943Y0748448D02*
X0059236Y0748448D01*
X0058952Y0748840D02*
X0028013Y0748840D01*
X0028084Y0749232D02*
X0058667Y0749232D01*
X0058382Y0749624D02*
X0028154Y0749624D01*
X0028225Y0750017D02*
X0058098Y0750017D01*
X0057813Y0750409D02*
X0028295Y0750409D01*
X0028366Y0750801D02*
X0057528Y0750801D01*
X0057244Y0751193D02*
X0028436Y0751193D01*
X0028507Y0751585D02*
X0056959Y0751585D01*
X0056674Y0751978D02*
X0028577Y0751978D01*
X0028648Y0752370D02*
X0056390Y0752370D01*
X0056105Y0752762D02*
X0028718Y0752762D01*
X0028789Y0753154D02*
X0055820Y0753154D01*
X0055536Y0753546D02*
X0028859Y0753546D01*
X0028930Y0753939D02*
X0055251Y0753939D01*
X0054966Y0754331D02*
X0029350Y0754331D01*
X0029974Y0754723D02*
X0054682Y0754723D01*
X0054397Y0755115D02*
X0030597Y0755115D01*
X0031221Y0755507D02*
X0054112Y0755507D01*
X0053828Y0755900D02*
X0031844Y0755900D01*
X0032468Y0756292D02*
X0053543Y0756292D01*
X0053258Y0756684D02*
X0033091Y0756684D01*
X0033715Y0757076D02*
X0052974Y0757076D01*
X0052689Y0757469D02*
X0034338Y0757469D01*
X0034962Y0757861D02*
X0052404Y0757861D01*
X0052120Y0758253D02*
X0035585Y0758253D01*
X0036209Y0758645D02*
X0051835Y0758645D01*
X0051550Y0759037D02*
X0036833Y0759037D01*
X0037456Y0759430D02*
X0051266Y0759430D01*
X0050851Y0759822D02*
X0038080Y0759822D01*
X0038703Y0760214D02*
X0048890Y0760214D01*
X0046929Y0760606D02*
X0039327Y0760606D01*
X0039950Y0760998D02*
X0044967Y0760998D01*
X0043006Y0761391D02*
X0040574Y0761391D01*
X0043326Y0771012D02*
X0035452Y0783020D01*
X0048641Y0834594D01*
X0052887Y0849035D01*
X0058149Y0863136D01*
X0064401Y0876827D01*
X0071611Y0890039D01*
X0079743Y0902705D01*
X0085255Y0910382D01*
X0098838Y0909004D01*
X0105137Y0900933D01*
X0105531Y0884594D01*
X0103168Y0880854D01*
X0096902Y0870201D01*
X0091321Y0859172D01*
X0086448Y0847813D01*
X0082302Y0836169D01*
X0066161Y0776327D01*
X0053168Y0769043D01*
X0043326Y0771012D01*
X0043205Y0771196D02*
X0057008Y0771196D01*
X0056309Y0770804D02*
X0044366Y0770804D01*
X0042948Y0771588D02*
X0057708Y0771588D01*
X0058408Y0771980D02*
X0042691Y0771980D01*
X0042434Y0772373D02*
X0059107Y0772373D01*
X0059807Y0772765D02*
X0042176Y0772765D01*
X0041919Y0773157D02*
X0060506Y0773157D01*
X0061206Y0773549D02*
X0041662Y0773549D01*
X0041405Y0773941D02*
X0061906Y0773941D01*
X0062605Y0774334D02*
X0041148Y0774334D01*
X0040890Y0774726D02*
X0063305Y0774726D01*
X0064004Y0775118D02*
X0040633Y0775118D01*
X0040376Y0775510D02*
X0064704Y0775510D01*
X0065404Y0775903D02*
X0040119Y0775903D01*
X0039862Y0776295D02*
X0066103Y0776295D01*
X0066258Y0776687D02*
X0039604Y0776687D01*
X0039347Y0777079D02*
X0066363Y0777079D01*
X0066469Y0777471D02*
X0039090Y0777471D01*
X0038833Y0777864D02*
X0066575Y0777864D01*
X0066681Y0778256D02*
X0038576Y0778256D01*
X0038319Y0778648D02*
X0066787Y0778648D01*
X0066892Y0779040D02*
X0038061Y0779040D01*
X0037804Y0779432D02*
X0066998Y0779432D01*
X0067104Y0779825D02*
X0037547Y0779825D01*
X0037290Y0780217D02*
X0067210Y0780217D01*
X0067316Y0780609D02*
X0037033Y0780609D01*
X0036775Y0781001D02*
X0067421Y0781001D01*
X0067527Y0781393D02*
X0036518Y0781393D01*
X0036261Y0781786D02*
X0067633Y0781786D01*
X0067739Y0782178D02*
X0036004Y0782178D01*
X0035747Y0782570D02*
X0067845Y0782570D01*
X0067950Y0782962D02*
X0035489Y0782962D01*
X0035537Y0783355D02*
X0068056Y0783355D01*
X0068162Y0783747D02*
X0035638Y0783747D01*
X0035738Y0784139D02*
X0068268Y0784139D01*
X0068374Y0784531D02*
X0035838Y0784531D01*
X0035939Y0784923D02*
X0068479Y0784923D01*
X0068585Y0785316D02*
X0036039Y0785316D01*
X0036139Y0785708D02*
X0068691Y0785708D01*
X0068797Y0786100D02*
X0036240Y0786100D01*
X0036340Y0786492D02*
X0068903Y0786492D01*
X0069008Y0786884D02*
X0036440Y0786884D01*
X0036540Y0787277D02*
X0069114Y0787277D01*
X0069220Y0787669D02*
X0036641Y0787669D01*
X0036741Y0788061D02*
X0069326Y0788061D01*
X0069431Y0788453D02*
X0036841Y0788453D01*
X0036942Y0788846D02*
X0069537Y0788846D01*
X0069643Y0789238D02*
X0037042Y0789238D01*
X0037142Y0789630D02*
X0069749Y0789630D01*
X0069855Y0790022D02*
X0037243Y0790022D01*
X0037343Y0790414D02*
X0069960Y0790414D01*
X0070066Y0790807D02*
X0037443Y0790807D01*
X0037543Y0791199D02*
X0070172Y0791199D01*
X0070278Y0791591D02*
X0037644Y0791591D01*
X0037744Y0791983D02*
X0070384Y0791983D01*
X0070489Y0792375D02*
X0037844Y0792375D01*
X0037945Y0792768D02*
X0070595Y0792768D01*
X0070701Y0793160D02*
X0038045Y0793160D01*
X0038145Y0793552D02*
X0070807Y0793552D01*
X0070913Y0793944D02*
X0038246Y0793944D01*
X0038346Y0794336D02*
X0071018Y0794336D01*
X0071124Y0794729D02*
X0038446Y0794729D01*
X0038546Y0795121D02*
X0071230Y0795121D01*
X0071336Y0795513D02*
X0038647Y0795513D01*
X0038747Y0795905D02*
X0071442Y0795905D01*
X0071547Y0796298D02*
X0038847Y0796298D01*
X0038948Y0796690D02*
X0071653Y0796690D01*
X0071759Y0797082D02*
X0039048Y0797082D01*
X0039148Y0797474D02*
X0071865Y0797474D01*
X0071971Y0797866D02*
X0039249Y0797866D01*
X0039349Y0798259D02*
X0072076Y0798259D01*
X0072182Y0798651D02*
X0039449Y0798651D01*
X0039549Y0799043D02*
X0072288Y0799043D01*
X0072394Y0799435D02*
X0039650Y0799435D01*
X0039750Y0799827D02*
X0072500Y0799827D01*
X0072605Y0800220D02*
X0039850Y0800220D01*
X0039951Y0800612D02*
X0072711Y0800612D01*
X0072817Y0801004D02*
X0040051Y0801004D01*
X0040151Y0801396D02*
X0072923Y0801396D01*
X0073028Y0801789D02*
X0040252Y0801789D01*
X0040352Y0802181D02*
X0073134Y0802181D01*
X0073240Y0802573D02*
X0040452Y0802573D01*
X0040552Y0802965D02*
X0073346Y0802965D01*
X0073452Y0803357D02*
X0040653Y0803357D01*
X0040753Y0803750D02*
X0073557Y0803750D01*
X0073663Y0804142D02*
X0040853Y0804142D01*
X0040954Y0804534D02*
X0073769Y0804534D01*
X0073875Y0804926D02*
X0041054Y0804926D01*
X0041154Y0805318D02*
X0073981Y0805318D01*
X0074086Y0805711D02*
X0041255Y0805711D01*
X0041355Y0806103D02*
X0074192Y0806103D01*
X0074298Y0806495D02*
X0041455Y0806495D01*
X0041555Y0806887D02*
X0074404Y0806887D01*
X0074510Y0807279D02*
X0041656Y0807279D01*
X0041756Y0807672D02*
X0074615Y0807672D01*
X0074721Y0808064D02*
X0041856Y0808064D01*
X0041957Y0808456D02*
X0074827Y0808456D01*
X0074933Y0808848D02*
X0042057Y0808848D01*
X0042157Y0809241D02*
X0075039Y0809241D01*
X0075144Y0809633D02*
X0042257Y0809633D01*
X0042358Y0810025D02*
X0075250Y0810025D01*
X0075356Y0810417D02*
X0042458Y0810417D01*
X0042558Y0810809D02*
X0075462Y0810809D01*
X0075568Y0811202D02*
X0042659Y0811202D01*
X0042759Y0811594D02*
X0075673Y0811594D01*
X0075779Y0811986D02*
X0042859Y0811986D01*
X0042960Y0812378D02*
X0075885Y0812378D01*
X0075991Y0812770D02*
X0043060Y0812770D01*
X0043160Y0813163D02*
X0076097Y0813163D01*
X0076202Y0813555D02*
X0043260Y0813555D01*
X0043361Y0813947D02*
X0076308Y0813947D01*
X0076414Y0814339D02*
X0043461Y0814339D01*
X0043561Y0814732D02*
X0076520Y0814732D01*
X0076625Y0815124D02*
X0043662Y0815124D01*
X0043762Y0815516D02*
X0076731Y0815516D01*
X0076837Y0815908D02*
X0043862Y0815908D01*
X0043963Y0816300D02*
X0076943Y0816300D01*
X0077049Y0816693D02*
X0044063Y0816693D01*
X0044163Y0817085D02*
X0077154Y0817085D01*
X0077260Y0817477D02*
X0044263Y0817477D01*
X0044364Y0817869D02*
X0077366Y0817869D01*
X0077472Y0818261D02*
X0044464Y0818261D01*
X0044564Y0818654D02*
X0077578Y0818654D01*
X0077683Y0819046D02*
X0044665Y0819046D01*
X0044765Y0819438D02*
X0077789Y0819438D01*
X0077895Y0819830D02*
X0044865Y0819830D01*
X0044966Y0820222D02*
X0078001Y0820222D01*
X0078107Y0820615D02*
X0045066Y0820615D01*
X0045166Y0821007D02*
X0078212Y0821007D01*
X0078318Y0821399D02*
X0045266Y0821399D01*
X0045367Y0821791D02*
X0078424Y0821791D01*
X0078530Y0822184D02*
X0045467Y0822184D01*
X0045567Y0822576D02*
X0078636Y0822576D01*
X0078741Y0822968D02*
X0045668Y0822968D01*
X0045768Y0823360D02*
X0078847Y0823360D01*
X0078953Y0823752D02*
X0045868Y0823752D01*
X0045969Y0824145D02*
X0079059Y0824145D01*
X0079165Y0824537D02*
X0046069Y0824537D01*
X0046169Y0824929D02*
X0079270Y0824929D01*
X0079376Y0825321D02*
X0046269Y0825321D01*
X0046370Y0825713D02*
X0079482Y0825713D01*
X0079588Y0826106D02*
X0046470Y0826106D01*
X0046570Y0826498D02*
X0079694Y0826498D01*
X0079799Y0826890D02*
X0046671Y0826890D01*
X0046771Y0827282D02*
X0079905Y0827282D01*
X0080011Y0827675D02*
X0046871Y0827675D01*
X0046972Y0828067D02*
X0080117Y0828067D01*
X0080222Y0828459D02*
X0047072Y0828459D01*
X0047172Y0828851D02*
X0080328Y0828851D01*
X0080434Y0829243D02*
X0047272Y0829243D01*
X0047373Y0829636D02*
X0080540Y0829636D01*
X0080646Y0830028D02*
X0047473Y0830028D01*
X0047573Y0830420D02*
X0080751Y0830420D01*
X0080857Y0830812D02*
X0047674Y0830812D01*
X0047774Y0831204D02*
X0080963Y0831204D01*
X0081069Y0831597D02*
X0047874Y0831597D01*
X0047974Y0831989D02*
X0081175Y0831989D01*
X0081280Y0832381D02*
X0048075Y0832381D01*
X0048175Y0832773D02*
X0081386Y0832773D01*
X0081492Y0833165D02*
X0048275Y0833165D01*
X0048376Y0833558D02*
X0081598Y0833558D01*
X0081704Y0833950D02*
X0048476Y0833950D01*
X0048576Y0834342D02*
X0081809Y0834342D01*
X0081915Y0834734D02*
X0048682Y0834734D01*
X0048797Y0835127D02*
X0082021Y0835127D01*
X0082127Y0835519D02*
X0048913Y0835519D01*
X0049028Y0835911D02*
X0082233Y0835911D01*
X0082350Y0836303D02*
X0049143Y0836303D01*
X0049259Y0836695D02*
X0082490Y0836695D01*
X0082629Y0837088D02*
X0049374Y0837088D01*
X0049489Y0837480D02*
X0082769Y0837480D01*
X0082908Y0837872D02*
X0049604Y0837872D01*
X0049720Y0838264D02*
X0083048Y0838264D01*
X0083188Y0838656D02*
X0049835Y0838656D01*
X0049950Y0839049D02*
X0083327Y0839049D01*
X0083467Y0839441D02*
X0050066Y0839441D01*
X0050181Y0839833D02*
X0083607Y0839833D01*
X0083746Y0840225D02*
X0050296Y0840225D01*
X0050412Y0840618D02*
X0083886Y0840618D01*
X0084026Y0841010D02*
X0050527Y0841010D01*
X0050642Y0841402D02*
X0084165Y0841402D01*
X0084305Y0841794D02*
X0050758Y0841794D01*
X0050873Y0842186D02*
X0084444Y0842186D01*
X0084584Y0842579D02*
X0050988Y0842579D01*
X0051104Y0842971D02*
X0084724Y0842971D01*
X0084863Y0843363D02*
X0051219Y0843363D01*
X0051334Y0843755D02*
X0085003Y0843755D01*
X0085143Y0844147D02*
X0051450Y0844147D01*
X0051565Y0844540D02*
X0085282Y0844540D01*
X0085422Y0844932D02*
X0051680Y0844932D01*
X0051796Y0845324D02*
X0085562Y0845324D01*
X0085701Y0845716D02*
X0051911Y0845716D01*
X0052026Y0846108D02*
X0085841Y0846108D01*
X0085980Y0846501D02*
X0052141Y0846501D01*
X0052257Y0846893D02*
X0086120Y0846893D01*
X0086260Y0847285D02*
X0052372Y0847285D01*
X0052487Y0847677D02*
X0086399Y0847677D01*
X0086558Y0848070D02*
X0052603Y0848070D01*
X0052718Y0848462D02*
X0086726Y0848462D01*
X0086894Y0848854D02*
X0052833Y0848854D01*
X0052965Y0849246D02*
X0087063Y0849246D01*
X0087231Y0849638D02*
X0053112Y0849638D01*
X0053258Y0850031D02*
X0087399Y0850031D01*
X0087567Y0850423D02*
X0053405Y0850423D01*
X0053551Y0850815D02*
X0087736Y0850815D01*
X0087904Y0851207D02*
X0053697Y0851207D01*
X0053844Y0851599D02*
X0088072Y0851599D01*
X0088240Y0851992D02*
X0053990Y0851992D01*
X0054136Y0852384D02*
X0088409Y0852384D01*
X0088577Y0852776D02*
X0054283Y0852776D01*
X0054429Y0853168D02*
X0088745Y0853168D01*
X0088913Y0853561D02*
X0054575Y0853561D01*
X0054722Y0853953D02*
X0089082Y0853953D01*
X0089250Y0854345D02*
X0054868Y0854345D01*
X0055015Y0854737D02*
X0089418Y0854737D01*
X0089586Y0855129D02*
X0055161Y0855129D01*
X0055307Y0855522D02*
X0089755Y0855522D01*
X0089923Y0855914D02*
X0055454Y0855914D01*
X0055600Y0856306D02*
X0090091Y0856306D01*
X0090259Y0856698D02*
X0055746Y0856698D01*
X0055893Y0857090D02*
X0090428Y0857090D01*
X0090596Y0857483D02*
X0056039Y0857483D01*
X0056185Y0857875D02*
X0090764Y0857875D01*
X0090933Y0858267D02*
X0056332Y0858267D01*
X0056478Y0858659D02*
X0091101Y0858659D01*
X0091269Y0859051D02*
X0056624Y0859051D01*
X0056771Y0859444D02*
X0091458Y0859444D01*
X0091657Y0859836D02*
X0056917Y0859836D01*
X0057064Y0860228D02*
X0091855Y0860228D01*
X0092054Y0860620D02*
X0057210Y0860620D01*
X0057356Y0861013D02*
X0092252Y0861013D01*
X0092451Y0861405D02*
X0057503Y0861405D01*
X0057649Y0861797D02*
X0092649Y0861797D01*
X0092848Y0862189D02*
X0057795Y0862189D01*
X0057942Y0862581D02*
X0093046Y0862581D01*
X0093245Y0862974D02*
X0058088Y0862974D01*
X0058254Y0863366D02*
X0093443Y0863366D01*
X0093641Y0863758D02*
X0058433Y0863758D01*
X0058612Y0864150D02*
X0093840Y0864150D01*
X0094038Y0864542D02*
X0058791Y0864542D01*
X0058970Y0864935D02*
X0094237Y0864935D01*
X0094435Y0865327D02*
X0059149Y0865327D01*
X0059328Y0865719D02*
X0094634Y0865719D01*
X0094832Y0866111D02*
X0059507Y0866111D01*
X0059686Y0866504D02*
X0095031Y0866504D01*
X0095229Y0866896D02*
X0059866Y0866896D01*
X0060045Y0867288D02*
X0095428Y0867288D01*
X0095626Y0867680D02*
X0060224Y0867680D01*
X0060403Y0868072D02*
X0095825Y0868072D01*
X0096023Y0868465D02*
X0060582Y0868465D01*
X0060761Y0868857D02*
X0096222Y0868857D01*
X0096420Y0869249D02*
X0060940Y0869249D01*
X0061119Y0869641D02*
X0096619Y0869641D01*
X0096817Y0870033D02*
X0061298Y0870033D01*
X0061477Y0870426D02*
X0097034Y0870426D01*
X0097265Y0870818D02*
X0061657Y0870818D01*
X0061836Y0871210D02*
X0097496Y0871210D01*
X0097726Y0871602D02*
X0062015Y0871602D01*
X0062194Y0871994D02*
X0097957Y0871994D01*
X0098188Y0872387D02*
X0062373Y0872387D01*
X0062552Y0872779D02*
X0098418Y0872779D01*
X0098649Y0873171D02*
X0062731Y0873171D01*
X0062910Y0873563D02*
X0098880Y0873563D01*
X0099110Y0873956D02*
X0063089Y0873956D01*
X0063269Y0874348D02*
X0099341Y0874348D01*
X0099572Y0874740D02*
X0063448Y0874740D01*
X0063627Y0875132D02*
X0099803Y0875132D01*
X0100033Y0875524D02*
X0063806Y0875524D01*
X0063985Y0875917D02*
X0100264Y0875917D01*
X0100495Y0876309D02*
X0064164Y0876309D01*
X0064343Y0876701D02*
X0100725Y0876701D01*
X0100956Y0877093D02*
X0064546Y0877093D01*
X0064760Y0877485D02*
X0101187Y0877485D01*
X0101417Y0877878D02*
X0064974Y0877878D01*
X0065188Y0878270D02*
X0101648Y0878270D01*
X0101879Y0878662D02*
X0065402Y0878662D01*
X0065616Y0879054D02*
X0102110Y0879054D01*
X0102340Y0879447D02*
X0065830Y0879447D01*
X0066044Y0879839D02*
X0102571Y0879839D01*
X0102802Y0880231D02*
X0066258Y0880231D01*
X0066472Y0880623D02*
X0103032Y0880623D01*
X0103270Y0881015D02*
X0066686Y0881015D01*
X0066900Y0881408D02*
X0103518Y0881408D01*
X0103766Y0881800D02*
X0067115Y0881800D01*
X0067329Y0882192D02*
X0104013Y0882192D01*
X0104261Y0882584D02*
X0067543Y0882584D01*
X0067757Y0882976D02*
X0104509Y0882976D01*
X0104756Y0883369D02*
X0067971Y0883369D01*
X0068185Y0883761D02*
X0105004Y0883761D01*
X0105252Y0884153D02*
X0068399Y0884153D01*
X0068613Y0884545D02*
X0105500Y0884545D01*
X0105522Y0884937D02*
X0068827Y0884937D01*
X0069041Y0885330D02*
X0105513Y0885330D01*
X0105503Y0885722D02*
X0069255Y0885722D01*
X0069469Y0886114D02*
X0105494Y0886114D01*
X0105485Y0886506D02*
X0069683Y0886506D01*
X0069897Y0886899D02*
X0105475Y0886899D01*
X0105466Y0887291D02*
X0070111Y0887291D01*
X0070325Y0887683D02*
X0105456Y0887683D01*
X0105447Y0888075D02*
X0070539Y0888075D01*
X0070753Y0888467D02*
X0105437Y0888467D01*
X0105428Y0888860D02*
X0070967Y0888860D01*
X0071181Y0889252D02*
X0105418Y0889252D01*
X0105409Y0889644D02*
X0071395Y0889644D01*
X0071610Y0890036D02*
X0105399Y0890036D01*
X0105390Y0890428D02*
X0071861Y0890428D01*
X0072113Y0890821D02*
X0105381Y0890821D01*
X0105371Y0891213D02*
X0072365Y0891213D01*
X0072617Y0891605D02*
X0105362Y0891605D01*
X0105352Y0891997D02*
X0072868Y0891997D01*
X0073120Y0892390D02*
X0105343Y0892390D01*
X0105333Y0892782D02*
X0073372Y0892782D01*
X0073624Y0893174D02*
X0105324Y0893174D01*
X0105314Y0893566D02*
X0073876Y0893566D01*
X0074127Y0893958D02*
X0105305Y0893958D01*
X0105296Y0894351D02*
X0074379Y0894351D01*
X0074631Y0894743D02*
X0105286Y0894743D01*
X0105277Y0895135D02*
X0074883Y0895135D01*
X0075135Y0895527D02*
X0105267Y0895527D01*
X0105258Y0895919D02*
X0075387Y0895919D01*
X0075638Y0896312D02*
X0105248Y0896312D01*
X0105239Y0896704D02*
X0075890Y0896704D01*
X0076142Y0897096D02*
X0105229Y0897096D01*
X0105220Y0897488D02*
X0076394Y0897488D01*
X0076646Y0897880D02*
X0105210Y0897880D01*
X0105201Y0898273D02*
X0076898Y0898273D01*
X0077149Y0898665D02*
X0105192Y0898665D01*
X0105182Y0899057D02*
X0077401Y0899057D01*
X0077653Y0899449D02*
X0105173Y0899449D01*
X0105163Y0899842D02*
X0077905Y0899842D01*
X0078157Y0900234D02*
X0105154Y0900234D01*
X0105144Y0900626D02*
X0078408Y0900626D01*
X0078660Y0901018D02*
X0105070Y0901018D01*
X0104764Y0901410D02*
X0078912Y0901410D01*
X0079164Y0901803D02*
X0104458Y0901803D01*
X0104152Y0902195D02*
X0079416Y0902195D01*
X0079668Y0902587D02*
X0103846Y0902587D01*
X0103540Y0902979D02*
X0079940Y0902979D01*
X0080222Y0903371D02*
X0103234Y0903371D01*
X0102928Y0903764D02*
X0080503Y0903764D01*
X0080785Y0904156D02*
X0102622Y0904156D01*
X0102315Y0904548D02*
X0081067Y0904548D01*
X0081348Y0904940D02*
X0102009Y0904940D01*
X0101703Y0905333D02*
X0081630Y0905333D01*
X0081911Y0905725D02*
X0101397Y0905725D01*
X0101091Y0906117D02*
X0082193Y0906117D01*
X0082475Y0906509D02*
X0100785Y0906509D01*
X0100479Y0906901D02*
X0082756Y0906901D01*
X0083038Y0907294D02*
X0100173Y0907294D01*
X0099866Y0907686D02*
X0083319Y0907686D01*
X0083601Y0908078D02*
X0099560Y0908078D01*
X0099254Y0908470D02*
X0083883Y0908470D01*
X0084164Y0908862D02*
X0098948Y0908862D01*
X0096367Y0909255D02*
X0084446Y0909255D01*
X0084727Y0909647D02*
X0092501Y0909647D01*
X0088634Y0910039D02*
X0085009Y0910039D01*
X0106712Y0914713D02*
X0108483Y0926720D01*
X0108671Y0927352D01*
X0108970Y0927939D01*
X0109373Y0928461D01*
X0109863Y0928900D01*
X0110426Y0929243D01*
X0111042Y0929476D01*
X0127381Y0934004D01*
X0148838Y0938531D01*
X0156121Y0939516D01*
X0172263Y0940303D01*
X0174185Y0940414D01*
X0176103Y0940252D01*
X0177979Y0939819D01*
X0179774Y0939124D01*
X0181453Y0938182D01*
X0182981Y0937011D01*
X0184328Y0935635D01*
X0185466Y0934082D01*
X0186372Y0932384D01*
X0187028Y0930574D01*
X0187420Y0928689D01*
X0189115Y0912289D01*
X0189783Y0895815D01*
X0190373Y0832035D01*
X0179546Y0821996D01*
X0169704Y0821996D01*
X0158877Y0832035D01*
X0157499Y0905461D01*
X0157163Y0906053D01*
X0156718Y0906567D01*
X0156181Y0906985D01*
X0155572Y0907289D01*
X0154916Y0907469D01*
X0154237Y0907516D01*
X0153562Y0907429D01*
X0128759Y0901720D01*
X0128562Y0901720D01*
X0112814Y0906642D01*
X0106712Y0914713D01*
X0106717Y0914746D02*
X0188861Y0914746D01*
X0188821Y0915138D02*
X0106774Y0915138D01*
X0106832Y0915530D02*
X0188780Y0915530D01*
X0188740Y0915922D02*
X0106890Y0915922D01*
X0106948Y0916314D02*
X0188699Y0916314D01*
X0188659Y0916707D02*
X0107006Y0916707D01*
X0107064Y0917099D02*
X0188618Y0917099D01*
X0188577Y0917491D02*
X0107122Y0917491D01*
X0107180Y0917883D02*
X0188537Y0917883D01*
X0188496Y0918276D02*
X0107237Y0918276D01*
X0107295Y0918668D02*
X0188456Y0918668D01*
X0188415Y0919060D02*
X0107353Y0919060D01*
X0107411Y0919452D02*
X0188375Y0919452D01*
X0188334Y0919844D02*
X0107469Y0919844D01*
X0107527Y0920237D02*
X0188294Y0920237D01*
X0188253Y0920629D02*
X0107585Y0920629D01*
X0107642Y0921021D02*
X0188213Y0921021D01*
X0188172Y0921413D02*
X0107700Y0921413D01*
X0107758Y0921805D02*
X0188132Y0921805D01*
X0188091Y0922198D02*
X0107816Y0922198D01*
X0107874Y0922590D02*
X0188051Y0922590D01*
X0188010Y0922982D02*
X0107932Y0922982D01*
X0107990Y0923374D02*
X0187970Y0923374D01*
X0187929Y0923766D02*
X0108048Y0923766D01*
X0108105Y0924159D02*
X0187888Y0924159D01*
X0187848Y0924551D02*
X0108163Y0924551D01*
X0108221Y0924943D02*
X0187807Y0924943D01*
X0187767Y0925335D02*
X0108279Y0925335D01*
X0108337Y0925728D02*
X0187726Y0925728D01*
X0187686Y0926120D02*
X0108395Y0926120D01*
X0108453Y0926512D02*
X0187645Y0926512D01*
X0187605Y0926904D02*
X0108538Y0926904D01*
X0108654Y0927296D02*
X0187564Y0927296D01*
X0187524Y0927689D02*
X0108843Y0927689D01*
X0109080Y0928081D02*
X0187483Y0928081D01*
X0187443Y0928473D02*
X0109386Y0928473D01*
X0109824Y0928865D02*
X0187384Y0928865D01*
X0187302Y0929257D02*
X0110465Y0929257D01*
X0111668Y0929650D02*
X0187220Y0929650D01*
X0187139Y0930042D02*
X0113083Y0930042D01*
X0114498Y0930434D02*
X0187057Y0930434D01*
X0186936Y0930826D02*
X0115914Y0930826D01*
X0117329Y0931219D02*
X0186794Y0931219D01*
X0186652Y0931611D02*
X0118745Y0931611D01*
X0120160Y0932003D02*
X0186510Y0932003D01*
X0186366Y0932395D02*
X0121575Y0932395D01*
X0122991Y0932787D02*
X0186156Y0932787D01*
X0185947Y0933180D02*
X0124406Y0933180D01*
X0125821Y0933572D02*
X0185738Y0933572D01*
X0185529Y0933964D02*
X0127237Y0933964D01*
X0129050Y0934356D02*
X0185265Y0934356D01*
X0184978Y0934748D02*
X0130909Y0934748D01*
X0132768Y0935141D02*
X0184690Y0935141D01*
X0184403Y0935533D02*
X0134627Y0935533D01*
X0136485Y0935925D02*
X0184044Y0935925D01*
X0183660Y0936317D02*
X0138344Y0936317D01*
X0140203Y0936709D02*
X0183276Y0936709D01*
X0182863Y0937102D02*
X0142062Y0937102D01*
X0143920Y0937494D02*
X0182351Y0937494D01*
X0181839Y0937886D02*
X0145779Y0937886D01*
X0147638Y0938278D02*
X0181281Y0938278D01*
X0180583Y0938671D02*
X0149867Y0938671D01*
X0152769Y0939063D02*
X0179884Y0939063D01*
X0178920Y0939455D02*
X0155671Y0939455D01*
X0162915Y0939847D02*
X0177856Y0939847D01*
X0176157Y0940239D02*
X0170956Y0940239D01*
X0188902Y0914353D02*
X0106983Y0914353D01*
X0107280Y0913961D02*
X0188942Y0913961D01*
X0188983Y0913569D02*
X0107576Y0913569D01*
X0107873Y0913177D02*
X0189023Y0913177D01*
X0189064Y0912785D02*
X0108170Y0912785D01*
X0108466Y0912392D02*
X0189104Y0912392D01*
X0189127Y0912000D02*
X0108763Y0912000D01*
X0109059Y0911608D02*
X0189143Y0911608D01*
X0189159Y0911216D02*
X0109356Y0911216D01*
X0109652Y0910823D02*
X0189174Y0910823D01*
X0189190Y0910431D02*
X0109949Y0910431D01*
X0110245Y0910039D02*
X0189206Y0910039D01*
X0189222Y0909647D02*
X0110542Y0909647D01*
X0110838Y0909255D02*
X0189238Y0909255D01*
X0189254Y0908862D02*
X0111135Y0908862D01*
X0111432Y0908470D02*
X0189270Y0908470D01*
X0189286Y0908078D02*
X0111728Y0908078D01*
X0112025Y0907686D02*
X0189302Y0907686D01*
X0189317Y0907294D02*
X0155557Y0907294D01*
X0156289Y0906901D02*
X0189333Y0906901D01*
X0189349Y0906509D02*
X0156769Y0906509D01*
X0157108Y0906117D02*
X0189365Y0906117D01*
X0189381Y0905725D02*
X0157349Y0905725D01*
X0157502Y0905333D02*
X0189397Y0905333D01*
X0189413Y0904940D02*
X0157509Y0904940D01*
X0157516Y0904548D02*
X0189429Y0904548D01*
X0189445Y0904156D02*
X0157524Y0904156D01*
X0157531Y0903764D02*
X0189460Y0903764D01*
X0189476Y0903371D02*
X0157538Y0903371D01*
X0157546Y0902979D02*
X0189492Y0902979D01*
X0189508Y0902587D02*
X0157553Y0902587D01*
X0157560Y0902195D02*
X0189524Y0902195D01*
X0189540Y0901803D02*
X0157568Y0901803D01*
X0157575Y0901410D02*
X0189556Y0901410D01*
X0189572Y0901018D02*
X0157582Y0901018D01*
X0157590Y0900626D02*
X0189588Y0900626D01*
X0189604Y0900234D02*
X0157597Y0900234D01*
X0157605Y0899842D02*
X0189619Y0899842D01*
X0189635Y0899449D02*
X0157612Y0899449D01*
X0157619Y0899057D02*
X0189651Y0899057D01*
X0189667Y0898665D02*
X0157627Y0898665D01*
X0157634Y0898273D02*
X0189683Y0898273D01*
X0189699Y0897880D02*
X0157641Y0897880D01*
X0157649Y0897488D02*
X0189715Y0897488D01*
X0189731Y0897096D02*
X0157656Y0897096D01*
X0157663Y0896704D02*
X0189747Y0896704D01*
X0189762Y0896312D02*
X0157671Y0896312D01*
X0157678Y0895919D02*
X0189778Y0895919D01*
X0189785Y0895527D02*
X0157686Y0895527D01*
X0157693Y0895135D02*
X0189789Y0895135D01*
X0189792Y0894743D02*
X0157700Y0894743D01*
X0157708Y0894351D02*
X0189796Y0894351D01*
X0189800Y0893958D02*
X0157715Y0893958D01*
X0157722Y0893566D02*
X0189803Y0893566D01*
X0189807Y0893174D02*
X0157730Y0893174D01*
X0157737Y0892782D02*
X0189811Y0892782D01*
X0189814Y0892390D02*
X0157744Y0892390D01*
X0157752Y0891997D02*
X0189818Y0891997D01*
X0189822Y0891605D02*
X0157759Y0891605D01*
X0157766Y0891213D02*
X0189825Y0891213D01*
X0189829Y0890821D02*
X0157774Y0890821D01*
X0157781Y0890428D02*
X0189832Y0890428D01*
X0189836Y0890036D02*
X0157789Y0890036D01*
X0157796Y0889644D02*
X0189840Y0889644D01*
X0189843Y0889252D02*
X0157803Y0889252D01*
X0157811Y0888860D02*
X0189847Y0888860D01*
X0189851Y0888467D02*
X0157818Y0888467D01*
X0157825Y0888075D02*
X0189854Y0888075D01*
X0189858Y0887683D02*
X0157833Y0887683D01*
X0157840Y0887291D02*
X0189861Y0887291D01*
X0189865Y0886899D02*
X0157847Y0886899D01*
X0157855Y0886506D02*
X0189869Y0886506D01*
X0189872Y0886114D02*
X0157862Y0886114D01*
X0157870Y0885722D02*
X0189876Y0885722D01*
X0189880Y0885330D02*
X0157877Y0885330D01*
X0157884Y0884937D02*
X0189883Y0884937D01*
X0189887Y0884545D02*
X0157892Y0884545D01*
X0157899Y0884153D02*
X0189891Y0884153D01*
X0189894Y0883761D02*
X0157906Y0883761D01*
X0157914Y0883369D02*
X0189898Y0883369D01*
X0189901Y0882976D02*
X0157921Y0882976D01*
X0157928Y0882584D02*
X0189905Y0882584D01*
X0189909Y0882192D02*
X0157936Y0882192D01*
X0157943Y0881800D02*
X0189912Y0881800D01*
X0189916Y0881408D02*
X0157951Y0881408D01*
X0157958Y0881015D02*
X0189920Y0881015D01*
X0189923Y0880623D02*
X0157965Y0880623D01*
X0157973Y0880231D02*
X0189927Y0880231D01*
X0189930Y0879839D02*
X0157980Y0879839D01*
X0157987Y0879447D02*
X0189934Y0879447D01*
X0189938Y0879054D02*
X0157995Y0879054D01*
X0158002Y0878662D02*
X0189941Y0878662D01*
X0189945Y0878270D02*
X0158009Y0878270D01*
X0158017Y0877878D02*
X0189949Y0877878D01*
X0189952Y0877485D02*
X0158024Y0877485D01*
X0158031Y0877093D02*
X0189956Y0877093D01*
X0189960Y0876701D02*
X0158039Y0876701D01*
X0158046Y0876309D02*
X0189963Y0876309D01*
X0189967Y0875917D02*
X0158054Y0875917D01*
X0158061Y0875524D02*
X0189970Y0875524D01*
X0189974Y0875132D02*
X0158068Y0875132D01*
X0158076Y0874740D02*
X0189978Y0874740D01*
X0189981Y0874348D02*
X0158083Y0874348D01*
X0158090Y0873956D02*
X0189985Y0873956D01*
X0189989Y0873563D02*
X0158098Y0873563D01*
X0158105Y0873171D02*
X0189992Y0873171D01*
X0189996Y0872779D02*
X0158112Y0872779D01*
X0158120Y0872387D02*
X0189999Y0872387D01*
X0190003Y0871994D02*
X0158127Y0871994D01*
X0158135Y0871602D02*
X0190007Y0871602D01*
X0190010Y0871210D02*
X0158142Y0871210D01*
X0158149Y0870818D02*
X0190014Y0870818D01*
X0190018Y0870426D02*
X0158157Y0870426D01*
X0158164Y0870033D02*
X0190021Y0870033D01*
X0190025Y0869641D02*
X0158171Y0869641D01*
X0158179Y0869249D02*
X0190029Y0869249D01*
X0190032Y0868857D02*
X0158186Y0868857D01*
X0158193Y0868465D02*
X0190036Y0868465D01*
X0190039Y0868072D02*
X0158201Y0868072D01*
X0158208Y0867680D02*
X0190043Y0867680D01*
X0190047Y0867288D02*
X0158215Y0867288D01*
X0158223Y0866896D02*
X0190050Y0866896D01*
X0190054Y0866504D02*
X0158230Y0866504D01*
X0158238Y0866111D02*
X0190058Y0866111D01*
X0190061Y0865719D02*
X0158245Y0865719D01*
X0158252Y0865327D02*
X0190065Y0865327D01*
X0190068Y0864935D02*
X0158260Y0864935D01*
X0158267Y0864542D02*
X0190072Y0864542D01*
X0190076Y0864150D02*
X0158274Y0864150D01*
X0158282Y0863758D02*
X0190079Y0863758D01*
X0190083Y0863366D02*
X0158289Y0863366D01*
X0158296Y0862974D02*
X0190087Y0862974D01*
X0190090Y0862581D02*
X0158304Y0862581D01*
X0158311Y0862189D02*
X0190094Y0862189D01*
X0190098Y0861797D02*
X0158319Y0861797D01*
X0158326Y0861405D02*
X0190101Y0861405D01*
X0190105Y0861013D02*
X0158333Y0861013D01*
X0158341Y0860620D02*
X0190108Y0860620D01*
X0190112Y0860228D02*
X0158348Y0860228D01*
X0158355Y0859836D02*
X0190116Y0859836D01*
X0190119Y0859444D02*
X0158363Y0859444D01*
X0158370Y0859051D02*
X0190123Y0859051D01*
X0190127Y0858659D02*
X0158377Y0858659D01*
X0158385Y0858267D02*
X0190130Y0858267D01*
X0190134Y0857875D02*
X0158392Y0857875D01*
X0158399Y0857483D02*
X0190137Y0857483D01*
X0190141Y0857090D02*
X0158407Y0857090D01*
X0158414Y0856698D02*
X0190145Y0856698D01*
X0190148Y0856306D02*
X0158422Y0856306D01*
X0158429Y0855914D02*
X0190152Y0855914D01*
X0190156Y0855522D02*
X0158436Y0855522D01*
X0158444Y0855129D02*
X0190159Y0855129D01*
X0190163Y0854737D02*
X0158451Y0854737D01*
X0158458Y0854345D02*
X0190167Y0854345D01*
X0190170Y0853953D02*
X0158466Y0853953D01*
X0158473Y0853561D02*
X0190174Y0853561D01*
X0190177Y0853168D02*
X0158480Y0853168D01*
X0158488Y0852776D02*
X0190181Y0852776D01*
X0190185Y0852384D02*
X0158495Y0852384D01*
X0158503Y0851992D02*
X0190188Y0851992D01*
X0190192Y0851599D02*
X0158510Y0851599D01*
X0158517Y0851207D02*
X0190196Y0851207D01*
X0190199Y0850815D02*
X0158525Y0850815D01*
X0158532Y0850423D02*
X0190203Y0850423D01*
X0190206Y0850031D02*
X0158539Y0850031D01*
X0158547Y0849638D02*
X0190210Y0849638D01*
X0190214Y0849246D02*
X0158554Y0849246D01*
X0158561Y0848854D02*
X0190217Y0848854D01*
X0190221Y0848462D02*
X0158569Y0848462D01*
X0158576Y0848070D02*
X0190225Y0848070D01*
X0190228Y0847677D02*
X0158584Y0847677D01*
X0158591Y0847285D02*
X0190232Y0847285D01*
X0190236Y0846893D02*
X0158598Y0846893D01*
X0158606Y0846501D02*
X0190239Y0846501D01*
X0190243Y0846108D02*
X0158613Y0846108D01*
X0158620Y0845716D02*
X0190246Y0845716D01*
X0190250Y0845324D02*
X0158628Y0845324D01*
X0158635Y0844932D02*
X0190254Y0844932D01*
X0190257Y0844540D02*
X0158642Y0844540D01*
X0158650Y0844147D02*
X0190261Y0844147D01*
X0190265Y0843755D02*
X0158657Y0843755D01*
X0158664Y0843363D02*
X0190268Y0843363D01*
X0190272Y0842971D02*
X0158672Y0842971D01*
X0158679Y0842579D02*
X0190275Y0842579D01*
X0190279Y0842186D02*
X0158687Y0842186D01*
X0158694Y0841794D02*
X0190283Y0841794D01*
X0190286Y0841402D02*
X0158701Y0841402D01*
X0158709Y0841010D02*
X0190290Y0841010D01*
X0190294Y0840618D02*
X0158716Y0840618D01*
X0158723Y0840225D02*
X0190297Y0840225D01*
X0190301Y0839833D02*
X0158731Y0839833D01*
X0158738Y0839441D02*
X0190305Y0839441D01*
X0190308Y0839049D02*
X0158745Y0839049D01*
X0158753Y0838656D02*
X0190312Y0838656D01*
X0190315Y0838264D02*
X0158760Y0838264D01*
X0158768Y0837872D02*
X0190319Y0837872D01*
X0190323Y0837480D02*
X0158775Y0837480D01*
X0158782Y0837088D02*
X0190326Y0837088D01*
X0190330Y0836695D02*
X0158790Y0836695D01*
X0158797Y0836303D02*
X0190334Y0836303D01*
X0190337Y0835911D02*
X0158804Y0835911D01*
X0158812Y0835519D02*
X0190341Y0835519D01*
X0190344Y0835127D02*
X0158819Y0835127D01*
X0158826Y0834734D02*
X0190348Y0834734D01*
X0190352Y0834342D02*
X0158834Y0834342D01*
X0158841Y0833950D02*
X0190355Y0833950D01*
X0190359Y0833558D02*
X0158848Y0833558D01*
X0158856Y0833165D02*
X0190363Y0833165D01*
X0190366Y0832773D02*
X0158863Y0832773D01*
X0158871Y0832381D02*
X0190370Y0832381D01*
X0190323Y0831989D02*
X0158927Y0831989D01*
X0159350Y0831597D02*
X0189900Y0831597D01*
X0189477Y0831204D02*
X0159773Y0831204D01*
X0160196Y0830812D02*
X0189054Y0830812D01*
X0188631Y0830420D02*
X0160619Y0830420D01*
X0161042Y0830028D02*
X0188208Y0830028D01*
X0187785Y0829636D02*
X0161465Y0829636D01*
X0161888Y0829243D02*
X0187362Y0829243D01*
X0186939Y0828851D02*
X0162311Y0828851D01*
X0162734Y0828459D02*
X0186516Y0828459D01*
X0186093Y0828067D02*
X0163157Y0828067D01*
X0163580Y0827675D02*
X0185670Y0827675D01*
X0185247Y0827282D02*
X0164003Y0827282D01*
X0164426Y0826890D02*
X0184824Y0826890D01*
X0184401Y0826498D02*
X0164849Y0826498D01*
X0165272Y0826106D02*
X0183978Y0826106D01*
X0183555Y0825713D02*
X0165695Y0825713D01*
X0166118Y0825321D02*
X0183132Y0825321D01*
X0182709Y0824929D02*
X0166541Y0824929D01*
X0166964Y0824537D02*
X0182286Y0824537D01*
X0181863Y0824145D02*
X0167387Y0824145D01*
X0167810Y0823752D02*
X0181440Y0823752D01*
X0181017Y0823360D02*
X0168233Y0823360D01*
X0168656Y0822968D02*
X0180594Y0822968D01*
X0180172Y0822576D02*
X0169079Y0822576D01*
X0169502Y0822184D02*
X0179749Y0822184D01*
X0179743Y0812547D02*
X0169704Y0812547D01*
X0159074Y0802508D01*
X0159271Y0786957D01*
X0159334Y0786383D01*
X0159505Y0785833D01*
X0159780Y0785325D01*
X0160147Y0784880D01*
X0160592Y0784513D01*
X0161099Y0784239D01*
X0161650Y0784067D01*
X0162224Y0784004D01*
X0187814Y0784004D01*
X0188388Y0784067D01*
X0188938Y0784239D01*
X0189446Y0784513D01*
X0189891Y0784880D01*
X0190258Y0785325D01*
X0190532Y0785833D01*
X0190704Y0786383D01*
X0190767Y0786957D01*
X0190570Y0802508D01*
X0179743Y0812547D01*
X0179925Y0812378D02*
X0169525Y0812378D01*
X0169110Y0811986D02*
X0180348Y0811986D01*
X0180771Y0811594D02*
X0168694Y0811594D01*
X0168279Y0811202D02*
X0181194Y0811202D01*
X0181617Y0810809D02*
X0167864Y0810809D01*
X0167448Y0810417D02*
X0182040Y0810417D01*
X0182463Y0810025D02*
X0167033Y0810025D01*
X0166618Y0809633D02*
X0182886Y0809633D01*
X0183309Y0809241D02*
X0166203Y0809241D01*
X0165787Y0808848D02*
X0183732Y0808848D01*
X0184155Y0808456D02*
X0165372Y0808456D01*
X0164957Y0808064D02*
X0184578Y0808064D01*
X0185001Y0807672D02*
X0164541Y0807672D01*
X0164126Y0807279D02*
X0185424Y0807279D01*
X0185847Y0806887D02*
X0163711Y0806887D01*
X0163296Y0806495D02*
X0186270Y0806495D01*
X0186693Y0806103D02*
X0162880Y0806103D01*
X0162465Y0805711D02*
X0187116Y0805711D01*
X0187539Y0805318D02*
X0162050Y0805318D01*
X0161634Y0804926D02*
X0187962Y0804926D01*
X0188385Y0804534D02*
X0161219Y0804534D01*
X0160804Y0804142D02*
X0188808Y0804142D01*
X0189231Y0803750D02*
X0160389Y0803750D01*
X0159973Y0803357D02*
X0189654Y0803357D01*
X0190077Y0802965D02*
X0159558Y0802965D01*
X0159143Y0802573D02*
X0190500Y0802573D01*
X0190574Y0802181D02*
X0159078Y0802181D01*
X0159083Y0801789D02*
X0190579Y0801789D01*
X0190584Y0801396D02*
X0159088Y0801396D01*
X0159093Y0801004D02*
X0190589Y0801004D01*
X0190594Y0800612D02*
X0159098Y0800612D01*
X0159103Y0800220D02*
X0190599Y0800220D01*
X0190604Y0799827D02*
X0159108Y0799827D01*
X0159113Y0799435D02*
X0190609Y0799435D01*
X0190614Y0799043D02*
X0159118Y0799043D01*
X0159123Y0798651D02*
X0190619Y0798651D01*
X0190624Y0798259D02*
X0159128Y0798259D01*
X0159133Y0797866D02*
X0190629Y0797866D01*
X0190634Y0797474D02*
X0159138Y0797474D01*
X0159143Y0797082D02*
X0190639Y0797082D01*
X0190644Y0796690D02*
X0159148Y0796690D01*
X0159153Y0796298D02*
X0190649Y0796298D01*
X0190654Y0795905D02*
X0159157Y0795905D01*
X0159162Y0795513D02*
X0190659Y0795513D01*
X0190663Y0795121D02*
X0159167Y0795121D01*
X0159172Y0794729D02*
X0190668Y0794729D01*
X0190673Y0794336D02*
X0159177Y0794336D01*
X0159182Y0793944D02*
X0190678Y0793944D01*
X0190683Y0793552D02*
X0159187Y0793552D01*
X0159192Y0793160D02*
X0190688Y0793160D01*
X0190693Y0792768D02*
X0159197Y0792768D01*
X0159202Y0792375D02*
X0190698Y0792375D01*
X0190703Y0791983D02*
X0159207Y0791983D01*
X0159212Y0791591D02*
X0190708Y0791591D01*
X0190713Y0791199D02*
X0159217Y0791199D01*
X0159222Y0790807D02*
X0190718Y0790807D01*
X0190723Y0790414D02*
X0159227Y0790414D01*
X0159232Y0790022D02*
X0190728Y0790022D01*
X0190733Y0789630D02*
X0159237Y0789630D01*
X0159242Y0789238D02*
X0190738Y0789238D01*
X0190743Y0788846D02*
X0159247Y0788846D01*
X0159252Y0788453D02*
X0190748Y0788453D01*
X0190753Y0788061D02*
X0159257Y0788061D01*
X0159262Y0787669D02*
X0190758Y0787669D01*
X0190763Y0787277D02*
X0159267Y0787277D01*
X0159279Y0786884D02*
X0190759Y0786884D01*
X0190716Y0786492D02*
X0159322Y0786492D01*
X0159422Y0786100D02*
X0190616Y0786100D01*
X0190465Y0785708D02*
X0159573Y0785708D01*
X0159788Y0785316D02*
X0190250Y0785316D01*
X0189927Y0784923D02*
X0160111Y0784923D01*
X0160570Y0784531D02*
X0189468Y0784531D01*
X0188619Y0784139D02*
X0161419Y0784139D01*
X0161951Y0773813D02*
X0187669Y0774250D01*
X0188257Y0774228D01*
X0188829Y0774087D01*
X0189360Y0773832D01*
X0189828Y0773475D01*
X0190214Y0773030D01*
X0190501Y0772516D01*
X0190677Y0771954D01*
X0190736Y0771368D01*
X0190651Y0745028D01*
X0190580Y0744455D01*
X0190400Y0743906D01*
X0190119Y0743403D01*
X0189745Y0742963D01*
X0189294Y0742603D01*
X0188782Y0742336D01*
X0188228Y0742173D01*
X0187653Y0742120D01*
X0162022Y0742234D01*
X0161451Y0742309D01*
X0160905Y0742491D01*
X0160404Y0742774D01*
X0159965Y0743147D01*
X0159605Y0743597D01*
X0159338Y0744106D01*
X0159172Y0744658D01*
X0159115Y0745231D01*
X0158997Y0771181D01*
X0159139Y0771779D01*
X0159399Y0772336D01*
X0159766Y0772829D01*
X0160225Y0773238D01*
X0160757Y0773546D01*
X0161340Y0773740D01*
X0161951Y0773813D01*
X0160766Y0773549D02*
X0189731Y0773549D01*
X0190104Y0773157D02*
X0160134Y0773157D01*
X0159718Y0772765D02*
X0190362Y0772765D01*
X0190546Y0772373D02*
X0159426Y0772373D01*
X0159233Y0771980D02*
X0190669Y0771980D01*
X0190714Y0771588D02*
X0159094Y0771588D01*
X0159001Y0771196D02*
X0190735Y0771196D01*
X0190734Y0770804D02*
X0158999Y0770804D01*
X0159000Y0770412D02*
X0190733Y0770412D01*
X0190731Y0770019D02*
X0159002Y0770019D01*
X0159004Y0769627D02*
X0190730Y0769627D01*
X0190729Y0769235D02*
X0159006Y0769235D01*
X0159007Y0768843D02*
X0190728Y0768843D01*
X0190726Y0768450D02*
X0159009Y0768450D01*
X0159011Y0768058D02*
X0190725Y0768058D01*
X0190724Y0767666D02*
X0159013Y0767666D01*
X0159015Y0767274D02*
X0190722Y0767274D01*
X0190721Y0766882D02*
X0159016Y0766882D01*
X0159018Y0766489D02*
X0190720Y0766489D01*
X0190719Y0766097D02*
X0159020Y0766097D01*
X0159022Y0765705D02*
X0190717Y0765705D01*
X0190716Y0765313D02*
X0159024Y0765313D01*
X0159025Y0764921D02*
X0190715Y0764921D01*
X0190714Y0764528D02*
X0159027Y0764528D01*
X0159029Y0764136D02*
X0190712Y0764136D01*
X0190711Y0763744D02*
X0159031Y0763744D01*
X0159032Y0763352D02*
X0190710Y0763352D01*
X0190709Y0762960D02*
X0159034Y0762960D01*
X0159036Y0762567D02*
X0190707Y0762567D01*
X0190706Y0762175D02*
X0159038Y0762175D01*
X0159040Y0761783D02*
X0190705Y0761783D01*
X0190703Y0761391D02*
X0159041Y0761391D01*
X0159043Y0760998D02*
X0190702Y0760998D01*
X0190701Y0760606D02*
X0159045Y0760606D01*
X0159047Y0760214D02*
X0190700Y0760214D01*
X0190698Y0759822D02*
X0159048Y0759822D01*
X0159050Y0759430D02*
X0190697Y0759430D01*
X0190696Y0759037D02*
X0159052Y0759037D01*
X0159054Y0758645D02*
X0190695Y0758645D01*
X0190693Y0758253D02*
X0159056Y0758253D01*
X0159057Y0757861D02*
X0190692Y0757861D01*
X0190691Y0757469D02*
X0159059Y0757469D01*
X0159061Y0757076D02*
X0190690Y0757076D01*
X0190688Y0756684D02*
X0159063Y0756684D01*
X0159064Y0756292D02*
X0190687Y0756292D01*
X0190686Y0755900D02*
X0159066Y0755900D01*
X0159068Y0755507D02*
X0190685Y0755507D01*
X0190683Y0755115D02*
X0159070Y0755115D01*
X0159072Y0754723D02*
X0190682Y0754723D01*
X0190681Y0754331D02*
X0159073Y0754331D01*
X0159075Y0753939D02*
X0190679Y0753939D01*
X0190678Y0753546D02*
X0159077Y0753546D01*
X0159079Y0753154D02*
X0190677Y0753154D01*
X0190676Y0752762D02*
X0159081Y0752762D01*
X0159082Y0752370D02*
X0190674Y0752370D01*
X0190673Y0751978D02*
X0159084Y0751978D01*
X0159086Y0751585D02*
X0190672Y0751585D01*
X0190671Y0751193D02*
X0159088Y0751193D01*
X0159089Y0750801D02*
X0190669Y0750801D01*
X0190668Y0750409D02*
X0159091Y0750409D01*
X0159093Y0750017D02*
X0190667Y0750017D01*
X0190666Y0749624D02*
X0159095Y0749624D01*
X0159097Y0749232D02*
X0190664Y0749232D01*
X0190663Y0748840D02*
X0159098Y0748840D01*
X0159100Y0748448D02*
X0190662Y0748448D01*
X0190660Y0748055D02*
X0159102Y0748055D01*
X0159104Y0747663D02*
X0190659Y0747663D01*
X0190658Y0747271D02*
X0159105Y0747271D01*
X0159107Y0746879D02*
X0190657Y0746879D01*
X0190655Y0746487D02*
X0159109Y0746487D01*
X0159111Y0746094D02*
X0190654Y0746094D01*
X0190653Y0745702D02*
X0159113Y0745702D01*
X0159114Y0745310D02*
X0190652Y0745310D01*
X0190637Y0744918D02*
X0159146Y0744918D01*
X0159212Y0744526D02*
X0190589Y0744526D01*
X0190475Y0744133D02*
X0159330Y0744133D01*
X0159530Y0743741D02*
X0190308Y0743741D01*
X0190073Y0743349D02*
X0159803Y0743349D01*
X0160189Y0742957D02*
X0189738Y0742957D01*
X0189221Y0742564D02*
X0160775Y0742564D01*
X0160255Y0732035D02*
X0189783Y0732035D01*
X0190037Y0732002D01*
X0190275Y0731904D01*
X0190479Y0731747D01*
X0190635Y0731543D01*
X0190733Y0731306D01*
X0190767Y0731051D01*
X0190767Y0712350D01*
X0194507Y0670421D01*
X0195098Y0653492D01*
X0184468Y0642862D01*
X0174625Y0642665D01*
X0163798Y0652311D01*
X0163798Y0665303D01*
X0159271Y0710382D01*
X0159271Y0731051D01*
X0159304Y0731306D01*
X0159403Y0731543D01*
X0159559Y0731747D01*
X0159763Y0731904D01*
X0160000Y0732002D01*
X0160255Y0732035D01*
X0159935Y0731975D02*
X0190103Y0731975D01*
X0190605Y0731583D02*
X0159433Y0731583D01*
X0159289Y0731190D02*
X0190748Y0731190D01*
X0190767Y0730798D02*
X0159271Y0730798D01*
X0159271Y0730406D02*
X0190767Y0730406D01*
X0190767Y0730014D02*
X0159271Y0730014D01*
X0159271Y0729621D02*
X0190767Y0729621D01*
X0190767Y0729229D02*
X0159271Y0729229D01*
X0159271Y0728837D02*
X0190767Y0728837D01*
X0190767Y0728445D02*
X0159271Y0728445D01*
X0159271Y0728053D02*
X0190767Y0728053D01*
X0190767Y0727660D02*
X0159271Y0727660D01*
X0159271Y0727268D02*
X0190767Y0727268D01*
X0190767Y0726876D02*
X0159271Y0726876D01*
X0159271Y0726484D02*
X0190767Y0726484D01*
X0190767Y0726092D02*
X0159271Y0726092D01*
X0159271Y0725699D02*
X0190767Y0725699D01*
X0190767Y0725307D02*
X0159271Y0725307D01*
X0159271Y0724915D02*
X0190767Y0724915D01*
X0190767Y0724523D02*
X0159271Y0724523D01*
X0159271Y0724131D02*
X0190767Y0724131D01*
X0190767Y0723738D02*
X0159271Y0723738D01*
X0159271Y0723346D02*
X0190767Y0723346D01*
X0190767Y0722954D02*
X0159271Y0722954D01*
X0159271Y0722562D02*
X0190767Y0722562D01*
X0190767Y0722169D02*
X0159271Y0722169D01*
X0159271Y0721777D02*
X0190767Y0721777D01*
X0190767Y0721385D02*
X0159271Y0721385D01*
X0159271Y0720993D02*
X0190767Y0720993D01*
X0190767Y0720601D02*
X0159271Y0720601D01*
X0159271Y0720208D02*
X0190767Y0720208D01*
X0190767Y0719816D02*
X0159271Y0719816D01*
X0159271Y0719424D02*
X0190767Y0719424D01*
X0190767Y0719032D02*
X0159271Y0719032D01*
X0159271Y0718640D02*
X0190767Y0718640D01*
X0190767Y0718247D02*
X0159271Y0718247D01*
X0159271Y0717855D02*
X0190767Y0717855D01*
X0190767Y0717463D02*
X0159271Y0717463D01*
X0159271Y0717071D02*
X0190767Y0717071D01*
X0190767Y0716678D02*
X0159271Y0716678D01*
X0159271Y0716286D02*
X0190767Y0716286D01*
X0190767Y0715894D02*
X0159271Y0715894D01*
X0159271Y0715502D02*
X0190767Y0715502D01*
X0190767Y0715110D02*
X0159271Y0715110D01*
X0159271Y0714717D02*
X0190767Y0714717D01*
X0190767Y0714325D02*
X0159271Y0714325D01*
X0159271Y0713933D02*
X0190767Y0713933D01*
X0190767Y0713541D02*
X0159271Y0713541D01*
X0159271Y0713149D02*
X0190767Y0713149D01*
X0190767Y0712756D02*
X0159271Y0712756D01*
X0159271Y0712364D02*
X0190767Y0712364D01*
X0190801Y0711972D02*
X0159271Y0711972D01*
X0159271Y0711580D02*
X0190836Y0711580D01*
X0190871Y0711188D02*
X0159271Y0711188D01*
X0159271Y0710795D02*
X0190906Y0710795D01*
X0190941Y0710403D02*
X0159271Y0710403D01*
X0159308Y0710011D02*
X0190976Y0710011D01*
X0191010Y0709619D02*
X0159347Y0709619D01*
X0159387Y0709226D02*
X0191045Y0709226D01*
X0191080Y0708834D02*
X0159426Y0708834D01*
X0159466Y0708442D02*
X0191115Y0708442D01*
X0191150Y0708050D02*
X0159505Y0708050D01*
X0159544Y0707658D02*
X0191185Y0707658D01*
X0191220Y0707265D02*
X0159584Y0707265D01*
X0159623Y0706873D02*
X0191255Y0706873D01*
X0191290Y0706481D02*
X0159663Y0706481D01*
X0159702Y0706089D02*
X0191325Y0706089D01*
X0191360Y0705697D02*
X0159741Y0705697D01*
X0159781Y0705304D02*
X0191395Y0705304D01*
X0191430Y0704912D02*
X0159820Y0704912D01*
X0159860Y0704520D02*
X0191465Y0704520D01*
X0191500Y0704128D02*
X0159899Y0704128D01*
X0159938Y0703735D02*
X0191535Y0703735D01*
X0191570Y0703343D02*
X0159978Y0703343D01*
X0160017Y0702951D02*
X0191605Y0702951D01*
X0191640Y0702559D02*
X0160056Y0702559D01*
X0160096Y0702167D02*
X0191675Y0702167D01*
X0191710Y0701774D02*
X0160135Y0701774D01*
X0160175Y0701382D02*
X0191745Y0701382D01*
X0191780Y0700990D02*
X0160214Y0700990D01*
X0160253Y0700598D02*
X0191815Y0700598D01*
X0191850Y0700206D02*
X0160293Y0700206D01*
X0160332Y0699813D02*
X0191885Y0699813D01*
X0191920Y0699421D02*
X0160372Y0699421D01*
X0160411Y0699029D02*
X0191955Y0699029D01*
X0191990Y0698637D02*
X0160450Y0698637D01*
X0160490Y0698245D02*
X0192025Y0698245D01*
X0192060Y0697852D02*
X0160529Y0697852D01*
X0160569Y0697460D02*
X0192095Y0697460D01*
X0192130Y0697068D02*
X0160608Y0697068D01*
X0160647Y0696676D02*
X0192165Y0696676D01*
X0192200Y0696283D02*
X0160687Y0696283D01*
X0160726Y0695891D02*
X0192235Y0695891D01*
X0192270Y0695499D02*
X0160766Y0695499D01*
X0160805Y0695107D02*
X0192305Y0695107D01*
X0192340Y0694715D02*
X0160844Y0694715D01*
X0160884Y0694322D02*
X0192375Y0694322D01*
X0192410Y0693930D02*
X0160923Y0693930D01*
X0160963Y0693538D02*
X0192445Y0693538D01*
X0192480Y0693146D02*
X0161002Y0693146D01*
X0161041Y0692754D02*
X0192515Y0692754D01*
X0192550Y0692361D02*
X0161081Y0692361D01*
X0161120Y0691969D02*
X0192585Y0691969D01*
X0192620Y0691577D02*
X0161159Y0691577D01*
X0161199Y0691185D02*
X0192655Y0691185D01*
X0192690Y0690792D02*
X0161238Y0690792D01*
X0161278Y0690400D02*
X0192725Y0690400D01*
X0192760Y0690008D02*
X0161317Y0690008D01*
X0161356Y0689616D02*
X0192795Y0689616D01*
X0192830Y0689224D02*
X0161396Y0689224D01*
X0161435Y0688831D02*
X0192865Y0688831D01*
X0192900Y0688439D02*
X0161475Y0688439D01*
X0161514Y0688047D02*
X0192935Y0688047D01*
X0192970Y0687655D02*
X0161553Y0687655D01*
X0161593Y0687263D02*
X0193005Y0687263D01*
X0193040Y0686870D02*
X0161632Y0686870D01*
X0161672Y0686478D02*
X0193075Y0686478D01*
X0193110Y0686086D02*
X0161711Y0686086D01*
X0161750Y0685694D02*
X0193145Y0685694D01*
X0193180Y0685302D02*
X0161790Y0685302D01*
X0161829Y0684909D02*
X0193215Y0684909D01*
X0193250Y0684517D02*
X0161869Y0684517D01*
X0161908Y0684125D02*
X0193285Y0684125D01*
X0193320Y0683733D02*
X0161947Y0683733D01*
X0161987Y0683340D02*
X0193355Y0683340D01*
X0193390Y0682948D02*
X0162026Y0682948D01*
X0162066Y0682556D02*
X0193425Y0682556D01*
X0193460Y0682164D02*
X0162105Y0682164D01*
X0162144Y0681772D02*
X0193495Y0681772D01*
X0193529Y0681379D02*
X0162184Y0681379D01*
X0162223Y0680987D02*
X0193564Y0680987D01*
X0193599Y0680595D02*
X0162262Y0680595D01*
X0162302Y0680203D02*
X0193634Y0680203D01*
X0193669Y0679811D02*
X0162341Y0679811D01*
X0162381Y0679418D02*
X0193704Y0679418D01*
X0193739Y0679026D02*
X0162420Y0679026D01*
X0162459Y0678634D02*
X0193774Y0678634D01*
X0193809Y0678242D02*
X0162499Y0678242D01*
X0162538Y0677849D02*
X0193844Y0677849D01*
X0193879Y0677457D02*
X0162578Y0677457D01*
X0162617Y0677065D02*
X0193914Y0677065D01*
X0193949Y0676673D02*
X0162656Y0676673D01*
X0162696Y0676281D02*
X0193984Y0676281D01*
X0194019Y0675888D02*
X0162735Y0675888D01*
X0162775Y0675496D02*
X0194054Y0675496D01*
X0194089Y0675104D02*
X0162814Y0675104D01*
X0162853Y0674712D02*
X0194124Y0674712D01*
X0194159Y0674320D02*
X0162893Y0674320D01*
X0162932Y0673927D02*
X0194194Y0673927D01*
X0194229Y0673535D02*
X0162972Y0673535D01*
X0163011Y0673143D02*
X0194264Y0673143D01*
X0194299Y0672751D02*
X0163050Y0672751D01*
X0163090Y0672359D02*
X0194334Y0672359D01*
X0194369Y0671966D02*
X0163129Y0671966D01*
X0163168Y0671574D02*
X0194404Y0671574D01*
X0194439Y0671182D02*
X0163208Y0671182D01*
X0163247Y0670790D02*
X0194474Y0670790D01*
X0194508Y0670397D02*
X0163287Y0670397D01*
X0163326Y0670005D02*
X0194521Y0670005D01*
X0194535Y0669613D02*
X0163365Y0669613D01*
X0163405Y0669221D02*
X0194549Y0669221D01*
X0194563Y0668829D02*
X0163444Y0668829D01*
X0163484Y0668436D02*
X0194576Y0668436D01*
X0194590Y0668044D02*
X0163523Y0668044D01*
X0163562Y0667652D02*
X0194604Y0667652D01*
X0194617Y0667260D02*
X0163602Y0667260D01*
X0163641Y0666868D02*
X0194631Y0666868D01*
X0194645Y0666475D02*
X0163681Y0666475D01*
X0163720Y0666083D02*
X0194658Y0666083D01*
X0194672Y0665691D02*
X0163759Y0665691D01*
X0163798Y0665299D02*
X0194686Y0665299D01*
X0194699Y0664906D02*
X0163798Y0664906D01*
X0163798Y0664514D02*
X0194713Y0664514D01*
X0194727Y0664122D02*
X0163798Y0664122D01*
X0163798Y0663730D02*
X0194740Y0663730D01*
X0194754Y0663338D02*
X0163798Y0663338D01*
X0163798Y0662945D02*
X0194768Y0662945D01*
X0194781Y0662553D02*
X0163798Y0662553D01*
X0163798Y0662161D02*
X0194795Y0662161D01*
X0194809Y0661769D02*
X0163798Y0661769D01*
X0163798Y0661377D02*
X0194822Y0661377D01*
X0194836Y0660984D02*
X0163798Y0660984D01*
X0163798Y0660592D02*
X0194850Y0660592D01*
X0194864Y0660200D02*
X0163798Y0660200D01*
X0163798Y0659808D02*
X0194877Y0659808D01*
X0194891Y0659416D02*
X0163798Y0659416D01*
X0163798Y0659023D02*
X0194905Y0659023D01*
X0194918Y0658631D02*
X0163798Y0658631D01*
X0163798Y0658239D02*
X0194932Y0658239D01*
X0194946Y0657847D02*
X0163798Y0657847D01*
X0163798Y0657454D02*
X0194959Y0657454D01*
X0194973Y0657062D02*
X0163798Y0657062D01*
X0163798Y0656670D02*
X0194987Y0656670D01*
X0195000Y0656278D02*
X0163798Y0656278D01*
X0163798Y0655886D02*
X0195014Y0655886D01*
X0195028Y0655493D02*
X0163798Y0655493D01*
X0163798Y0655101D02*
X0195041Y0655101D01*
X0195055Y0654709D02*
X0163798Y0654709D01*
X0163798Y0654317D02*
X0195069Y0654317D01*
X0195082Y0653925D02*
X0163798Y0653925D01*
X0163798Y0653532D02*
X0195096Y0653532D01*
X0194746Y0653140D02*
X0163798Y0653140D01*
X0163798Y0652748D02*
X0194353Y0652748D01*
X0193961Y0652356D02*
X0163798Y0652356D01*
X0164188Y0651963D02*
X0193569Y0651963D01*
X0193177Y0651571D02*
X0164629Y0651571D01*
X0165069Y0651179D02*
X0192784Y0651179D01*
X0192392Y0650787D02*
X0165509Y0650787D01*
X0165949Y0650395D02*
X0192000Y0650395D01*
X0191608Y0650002D02*
X0166390Y0650002D01*
X0166830Y0649610D02*
X0191216Y0649610D01*
X0190823Y0649218D02*
X0167270Y0649218D01*
X0167710Y0648826D02*
X0190431Y0648826D01*
X0190039Y0648434D02*
X0168151Y0648434D01*
X0168591Y0648041D02*
X0189647Y0648041D01*
X0189255Y0647649D02*
X0169031Y0647649D01*
X0169471Y0647257D02*
X0188862Y0647257D01*
X0188470Y0646865D02*
X0169912Y0646865D01*
X0170352Y0646473D02*
X0188078Y0646473D01*
X0187686Y0646080D02*
X0170792Y0646080D01*
X0171232Y0645688D02*
X0187293Y0645688D01*
X0186901Y0645296D02*
X0171672Y0645296D01*
X0172113Y0644904D02*
X0186509Y0644904D01*
X0186117Y0644511D02*
X0172553Y0644511D01*
X0172993Y0644119D02*
X0185725Y0644119D01*
X0185332Y0643727D02*
X0173433Y0643727D01*
X0173874Y0643335D02*
X0184940Y0643335D01*
X0184548Y0642943D02*
X0174314Y0642943D01*
X0174625Y0633217D02*
X0164389Y0629870D01*
X0164242Y0629800D01*
X0164119Y0629693D01*
X0164028Y0629559D01*
X0163975Y0629405D01*
X0163964Y0629242D01*
X0163995Y0629083D01*
X0192735Y0599161D01*
X0193113Y0598845D01*
X0193549Y0598617D01*
X0194024Y0598487D01*
X0194515Y0598462D01*
X0195001Y0598543D01*
X0195458Y0598726D01*
X0195865Y0599002D01*
X0196204Y0599360D01*
X0196459Y0599781D01*
X0196617Y0600247D01*
X0196672Y0600736D01*
X0196082Y0623768D01*
X0184861Y0633413D01*
X0174625Y0633217D01*
X0174383Y0633137D02*
X0185182Y0633137D01*
X0185639Y0632745D02*
X0173183Y0632745D01*
X0171983Y0632353D02*
X0186095Y0632353D01*
X0186551Y0631961D02*
X0170784Y0631961D01*
X0169584Y0631568D02*
X0187007Y0631568D01*
X0187464Y0631176D02*
X0168384Y0631176D01*
X0167184Y0630784D02*
X0187920Y0630784D01*
X0188376Y0630392D02*
X0165985Y0630392D01*
X0164785Y0630000D02*
X0188832Y0630000D01*
X0189289Y0629607D02*
X0164061Y0629607D01*
X0163969Y0629215D02*
X0189745Y0629215D01*
X0190201Y0628823D02*
X0164245Y0628823D01*
X0164621Y0628431D02*
X0190657Y0628431D01*
X0191114Y0628039D02*
X0164998Y0628039D01*
X0165375Y0627646D02*
X0191570Y0627646D01*
X0192026Y0627254D02*
X0165752Y0627254D01*
X0166128Y0626862D02*
X0192482Y0626862D01*
X0192939Y0626470D02*
X0166505Y0626470D01*
X0166882Y0626077D02*
X0193395Y0626077D01*
X0193851Y0625685D02*
X0167258Y0625685D01*
X0167635Y0625293D02*
X0194307Y0625293D01*
X0194764Y0624901D02*
X0168012Y0624901D01*
X0168389Y0624509D02*
X0195220Y0624509D01*
X0195676Y0624116D02*
X0168765Y0624116D01*
X0169142Y0623724D02*
X0196083Y0623724D01*
X0196093Y0623332D02*
X0169519Y0623332D01*
X0169896Y0622940D02*
X0196103Y0622940D01*
X0196113Y0622548D02*
X0170272Y0622548D01*
X0170649Y0622155D02*
X0196123Y0622155D01*
X0196133Y0621763D02*
X0171026Y0621763D01*
X0171402Y0621371D02*
X0196143Y0621371D01*
X0196153Y0620979D02*
X0171779Y0620979D01*
X0172156Y0620587D02*
X0196163Y0620587D01*
X0196173Y0620194D02*
X0172533Y0620194D01*
X0172909Y0619802D02*
X0196183Y0619802D01*
X0196194Y0619410D02*
X0173286Y0619410D01*
X0173663Y0619018D02*
X0196204Y0619018D01*
X0196214Y0618625D02*
X0174040Y0618625D01*
X0174416Y0618233D02*
X0196224Y0618233D01*
X0196234Y0617841D02*
X0174793Y0617841D01*
X0175170Y0617449D02*
X0196244Y0617449D01*
X0196254Y0617057D02*
X0175547Y0617057D01*
X0175923Y0616664D02*
X0196264Y0616664D01*
X0196274Y0616272D02*
X0176300Y0616272D01*
X0176677Y0615880D02*
X0196284Y0615880D01*
X0196294Y0615488D02*
X0177053Y0615488D01*
X0177430Y0615096D02*
X0196304Y0615096D01*
X0196314Y0614703D02*
X0177807Y0614703D01*
X0178184Y0614311D02*
X0196324Y0614311D01*
X0196334Y0613919D02*
X0178560Y0613919D01*
X0178937Y0613527D02*
X0196344Y0613527D01*
X0196354Y0613134D02*
X0179314Y0613134D01*
X0179691Y0612742D02*
X0196364Y0612742D01*
X0196375Y0612350D02*
X0180067Y0612350D01*
X0180444Y0611958D02*
X0196385Y0611958D01*
X0196395Y0611566D02*
X0180821Y0611566D01*
X0181197Y0611173D02*
X0196405Y0611173D01*
X0196415Y0610781D02*
X0181574Y0610781D01*
X0181951Y0610389D02*
X0196425Y0610389D01*
X0196435Y0609997D02*
X0182328Y0609997D01*
X0182704Y0609605D02*
X0196445Y0609605D01*
X0196455Y0609212D02*
X0183081Y0609212D01*
X0183458Y0608820D02*
X0196465Y0608820D01*
X0196475Y0608428D02*
X0183835Y0608428D01*
X0184211Y0608036D02*
X0196485Y0608036D01*
X0196495Y0607644D02*
X0184588Y0607644D01*
X0184965Y0607251D02*
X0196505Y0607251D01*
X0196515Y0606859D02*
X0185342Y0606859D01*
X0185718Y0606467D02*
X0196525Y0606467D01*
X0196535Y0606075D02*
X0186095Y0606075D01*
X0186472Y0605682D02*
X0196545Y0605682D01*
X0196556Y0605290D02*
X0186848Y0605290D01*
X0187225Y0604898D02*
X0196566Y0604898D01*
X0196576Y0604506D02*
X0187602Y0604506D01*
X0187979Y0604114D02*
X0196586Y0604114D01*
X0196596Y0603721D02*
X0188355Y0603721D01*
X0188732Y0603329D02*
X0196606Y0603329D01*
X0196616Y0602937D02*
X0189109Y0602937D01*
X0189486Y0602545D02*
X0196626Y0602545D01*
X0196636Y0602153D02*
X0189862Y0602153D01*
X0190239Y0601760D02*
X0196646Y0601760D01*
X0196656Y0601368D02*
X0190616Y0601368D01*
X0190992Y0600976D02*
X0196666Y0600976D01*
X0196655Y0600584D02*
X0191369Y0600584D01*
X0191746Y0600191D02*
X0196598Y0600191D01*
X0196465Y0599799D02*
X0192123Y0599799D01*
X0192499Y0599407D02*
X0196233Y0599407D01*
X0195877Y0599015D02*
X0192910Y0599015D01*
X0193538Y0598623D02*
X0195200Y0598623D01*
X0243720Y0603689D02*
X0247657Y0577705D01*
X0260058Y0569240D01*
X0269704Y0570618D01*
X0278956Y0582035D01*
X0275019Y0609004D01*
X0274825Y0624852D01*
X0275216Y0640697D01*
X0277184Y0686366D01*
X0282893Y0733020D01*
X0282858Y0733326D01*
X0282756Y0733618D01*
X0282592Y0733879D01*
X0282374Y0734097D01*
X0282113Y0734261D01*
X0281821Y0734363D01*
X0281515Y0734398D01*
X0280531Y0734398D01*
X0250412Y0722783D01*
X0249982Y0722326D01*
X0249635Y0721803D01*
X0249383Y0721228D01*
X0249231Y0720618D01*
X0246397Y0699390D01*
X0244624Y0678047D01*
X0243916Y0656642D01*
X0243523Y0608217D01*
X0243523Y0608020D01*
X0243507Y0605849D01*
X0243720Y0603689D01*
X0243716Y0603721D02*
X0275790Y0603721D01*
X0275847Y0603329D02*
X0243774Y0603329D01*
X0243834Y0602937D02*
X0275904Y0602937D01*
X0275962Y0602545D02*
X0243893Y0602545D01*
X0243952Y0602153D02*
X0276019Y0602153D01*
X0276076Y0601760D02*
X0244012Y0601760D01*
X0244071Y0601368D02*
X0276134Y0601368D01*
X0276191Y0600976D02*
X0244131Y0600976D01*
X0244190Y0600584D02*
X0276248Y0600584D01*
X0276305Y0600191D02*
X0244250Y0600191D01*
X0244309Y0599799D02*
X0276363Y0599799D01*
X0276420Y0599407D02*
X0244368Y0599407D01*
X0244428Y0599015D02*
X0276477Y0599015D01*
X0276534Y0598623D02*
X0244487Y0598623D01*
X0244547Y0598230D02*
X0276592Y0598230D01*
X0276649Y0597838D02*
X0244606Y0597838D01*
X0244665Y0597446D02*
X0276706Y0597446D01*
X0276763Y0597054D02*
X0244725Y0597054D01*
X0244784Y0596662D02*
X0276821Y0596662D01*
X0276878Y0596269D02*
X0244844Y0596269D01*
X0244903Y0595877D02*
X0276935Y0595877D01*
X0276992Y0595485D02*
X0244963Y0595485D01*
X0245022Y0595093D02*
X0277050Y0595093D01*
X0277107Y0594701D02*
X0245081Y0594701D01*
X0245141Y0594308D02*
X0277164Y0594308D01*
X0277221Y0593916D02*
X0245200Y0593916D01*
X0245260Y0593524D02*
X0277279Y0593524D01*
X0277336Y0593132D02*
X0245319Y0593132D01*
X0245379Y0592739D02*
X0277393Y0592739D01*
X0277450Y0592347D02*
X0245438Y0592347D01*
X0245497Y0591955D02*
X0277508Y0591955D01*
X0277565Y0591563D02*
X0245557Y0591563D01*
X0245616Y0591171D02*
X0277622Y0591171D01*
X0277679Y0590778D02*
X0245676Y0590778D01*
X0245735Y0590386D02*
X0277737Y0590386D01*
X0277794Y0589994D02*
X0245795Y0589994D01*
X0245854Y0589602D02*
X0277851Y0589602D01*
X0277908Y0589210D02*
X0245913Y0589210D01*
X0245973Y0588817D02*
X0277966Y0588817D01*
X0278023Y0588425D02*
X0246032Y0588425D01*
X0246092Y0588033D02*
X0278080Y0588033D01*
X0278138Y0587641D02*
X0246151Y0587641D01*
X0246211Y0587248D02*
X0278195Y0587248D01*
X0278252Y0586856D02*
X0246270Y0586856D01*
X0246329Y0586464D02*
X0278309Y0586464D01*
X0278367Y0586072D02*
X0246389Y0586072D01*
X0246448Y0585680D02*
X0278424Y0585680D01*
X0278481Y0585287D02*
X0246508Y0585287D01*
X0246567Y0584895D02*
X0278538Y0584895D01*
X0278596Y0584503D02*
X0246627Y0584503D01*
X0246686Y0584111D02*
X0278653Y0584111D01*
X0278710Y0583719D02*
X0246745Y0583719D01*
X0246805Y0583326D02*
X0278767Y0583326D01*
X0278825Y0582934D02*
X0246864Y0582934D01*
X0246924Y0582542D02*
X0278882Y0582542D01*
X0278939Y0582150D02*
X0246983Y0582150D01*
X0247043Y0581758D02*
X0278731Y0581758D01*
X0278413Y0581365D02*
X0247102Y0581365D01*
X0247161Y0580973D02*
X0278095Y0580973D01*
X0277777Y0580581D02*
X0247221Y0580581D01*
X0247280Y0580189D02*
X0277459Y0580189D01*
X0277141Y0579796D02*
X0247340Y0579796D01*
X0247399Y0579404D02*
X0276824Y0579404D01*
X0276506Y0579012D02*
X0247459Y0579012D01*
X0247518Y0578620D02*
X0276188Y0578620D01*
X0275870Y0578228D02*
X0247577Y0578228D01*
X0247637Y0577835D02*
X0275552Y0577835D01*
X0275234Y0577443D02*
X0248040Y0577443D01*
X0248614Y0577051D02*
X0274917Y0577051D01*
X0274599Y0576659D02*
X0249189Y0576659D01*
X0249764Y0576267D02*
X0274281Y0576267D01*
X0273963Y0575874D02*
X0250338Y0575874D01*
X0250913Y0575482D02*
X0273645Y0575482D01*
X0273328Y0575090D02*
X0251488Y0575090D01*
X0252062Y0574698D02*
X0273010Y0574698D01*
X0272692Y0574305D02*
X0252637Y0574305D01*
X0253212Y0573913D02*
X0272374Y0573913D01*
X0272056Y0573521D02*
X0253786Y0573521D01*
X0254361Y0573129D02*
X0271738Y0573129D01*
X0271421Y0572737D02*
X0254935Y0572737D01*
X0255510Y0572344D02*
X0271103Y0572344D01*
X0270785Y0571952D02*
X0256085Y0571952D01*
X0256659Y0571560D02*
X0270467Y0571560D01*
X0270149Y0571168D02*
X0257234Y0571168D01*
X0257809Y0570776D02*
X0269831Y0570776D01*
X0268061Y0570383D02*
X0258383Y0570383D01*
X0258958Y0569991D02*
X0265315Y0569991D01*
X0262570Y0569599D02*
X0259533Y0569599D01*
X0262420Y0559988D02*
X0272460Y0561563D01*
X0285452Y0553295D01*
X0291751Y0527705D01*
X0292048Y0526147D01*
X0292180Y0524566D01*
X0292145Y0522980D01*
X0291161Y0478098D01*
X0290915Y0474891D01*
X0290322Y0471728D01*
X0289389Y0468650D01*
X0279153Y0432232D01*
X0277184Y0424161D01*
X0273444Y0408217D01*
X0260649Y0400736D01*
X0250806Y0402705D01*
X0242538Y0414319D01*
X0258287Y0475146D01*
X0259106Y0478907D01*
X0259632Y0482720D01*
X0259861Y0486563D01*
X0260452Y0518453D01*
X0260358Y0521505D01*
X0259963Y0524533D01*
X0259271Y0527508D01*
X0254153Y0548571D01*
X0262420Y0559988D01*
X0262279Y0559794D02*
X0275240Y0559794D01*
X0274624Y0560186D02*
X0263680Y0560186D01*
X0261995Y0559401D02*
X0275856Y0559401D01*
X0276473Y0559009D02*
X0261711Y0559009D01*
X0261427Y0558617D02*
X0277089Y0558617D01*
X0277705Y0558225D02*
X0261143Y0558225D01*
X0260859Y0557833D02*
X0278322Y0557833D01*
X0278938Y0557440D02*
X0260575Y0557440D01*
X0260291Y0557048D02*
X0279554Y0557048D01*
X0280171Y0556656D02*
X0260007Y0556656D01*
X0259723Y0556264D02*
X0280787Y0556264D01*
X0281403Y0555872D02*
X0259439Y0555872D01*
X0259155Y0555479D02*
X0282020Y0555479D01*
X0282636Y0555087D02*
X0258871Y0555087D01*
X0258587Y0554695D02*
X0283252Y0554695D01*
X0283869Y0554303D02*
X0258303Y0554303D01*
X0258019Y0553910D02*
X0284485Y0553910D01*
X0285101Y0553518D02*
X0257735Y0553518D01*
X0257451Y0553126D02*
X0285494Y0553126D01*
X0285590Y0552734D02*
X0257167Y0552734D01*
X0256883Y0552342D02*
X0285687Y0552342D01*
X0285783Y0551949D02*
X0256599Y0551949D01*
X0256315Y0551557D02*
X0285880Y0551557D01*
X0285976Y0551165D02*
X0256031Y0551165D01*
X0255747Y0550773D02*
X0286073Y0550773D01*
X0286169Y0550381D02*
X0255463Y0550381D01*
X0255179Y0549988D02*
X0286266Y0549988D01*
X0286362Y0549596D02*
X0254895Y0549596D01*
X0254611Y0549204D02*
X0286459Y0549204D01*
X0286555Y0548812D02*
X0254327Y0548812D01*
X0254189Y0548419D02*
X0286652Y0548419D01*
X0286749Y0548027D02*
X0254285Y0548027D01*
X0254380Y0547635D02*
X0286845Y0547635D01*
X0286942Y0547243D02*
X0254475Y0547243D01*
X0254571Y0546851D02*
X0287038Y0546851D01*
X0287135Y0546458D02*
X0254666Y0546458D01*
X0254761Y0546066D02*
X0287231Y0546066D01*
X0287328Y0545674D02*
X0254857Y0545674D01*
X0254952Y0545282D02*
X0287424Y0545282D01*
X0287521Y0544890D02*
X0255047Y0544890D01*
X0255142Y0544497D02*
X0287617Y0544497D01*
X0287714Y0544105D02*
X0255238Y0544105D01*
X0255333Y0543713D02*
X0287811Y0543713D01*
X0287907Y0543321D02*
X0255428Y0543321D01*
X0255524Y0542929D02*
X0288004Y0542929D01*
X0288100Y0542536D02*
X0255619Y0542536D01*
X0255714Y0542144D02*
X0288197Y0542144D01*
X0288293Y0541752D02*
X0255810Y0541752D01*
X0255905Y0541360D02*
X0288390Y0541360D01*
X0288486Y0540967D02*
X0256000Y0540967D01*
X0256096Y0540575D02*
X0288583Y0540575D01*
X0288679Y0540183D02*
X0256191Y0540183D01*
X0256286Y0539791D02*
X0288776Y0539791D01*
X0288873Y0539399D02*
X0256381Y0539399D01*
X0256477Y0539006D02*
X0288969Y0539006D01*
X0289066Y0538614D02*
X0256572Y0538614D01*
X0256667Y0538222D02*
X0289162Y0538222D01*
X0289259Y0537830D02*
X0256763Y0537830D01*
X0256858Y0537438D02*
X0289355Y0537438D01*
X0289452Y0537045D02*
X0256953Y0537045D01*
X0257049Y0536653D02*
X0289548Y0536653D01*
X0289645Y0536261D02*
X0257144Y0536261D01*
X0257239Y0535869D02*
X0289741Y0535869D01*
X0289838Y0535476D02*
X0257334Y0535476D01*
X0257430Y0535084D02*
X0289935Y0535084D01*
X0290031Y0534692D02*
X0257525Y0534692D01*
X0257620Y0534300D02*
X0290128Y0534300D01*
X0290224Y0533908D02*
X0257716Y0533908D01*
X0257811Y0533515D02*
X0290321Y0533515D01*
X0290417Y0533123D02*
X0257906Y0533123D01*
X0258002Y0532731D02*
X0290514Y0532731D01*
X0290610Y0532339D02*
X0258097Y0532339D01*
X0258192Y0531947D02*
X0290707Y0531947D01*
X0290803Y0531554D02*
X0258287Y0531554D01*
X0258383Y0531162D02*
X0290900Y0531162D01*
X0290997Y0530770D02*
X0258478Y0530770D01*
X0258573Y0530378D02*
X0291093Y0530378D01*
X0291190Y0529986D02*
X0258669Y0529986D01*
X0258764Y0529593D02*
X0291286Y0529593D01*
X0291383Y0529201D02*
X0258859Y0529201D01*
X0258955Y0528809D02*
X0291479Y0528809D01*
X0291576Y0528417D02*
X0259050Y0528417D01*
X0259145Y0528024D02*
X0291672Y0528024D01*
X0291765Y0527632D02*
X0259241Y0527632D01*
X0259333Y0527240D02*
X0291840Y0527240D01*
X0291915Y0526848D02*
X0259424Y0526848D01*
X0259515Y0526456D02*
X0291990Y0526456D01*
X0292055Y0526063D02*
X0259607Y0526063D01*
X0259698Y0525671D02*
X0292088Y0525671D01*
X0292121Y0525279D02*
X0259789Y0525279D01*
X0259880Y0524887D02*
X0292153Y0524887D01*
X0292179Y0524495D02*
X0259968Y0524495D01*
X0260019Y0524102D02*
X0292170Y0524102D01*
X0292161Y0523710D02*
X0260070Y0523710D01*
X0260121Y0523318D02*
X0292152Y0523318D01*
X0292144Y0522926D02*
X0260172Y0522926D01*
X0260223Y0522533D02*
X0292135Y0522533D01*
X0292126Y0522141D02*
X0260275Y0522141D01*
X0260326Y0521749D02*
X0292118Y0521749D01*
X0292109Y0521357D02*
X0260362Y0521357D01*
X0260374Y0520965D02*
X0292101Y0520965D01*
X0292092Y0520572D02*
X0260386Y0520572D01*
X0260398Y0520180D02*
X0292083Y0520180D01*
X0292075Y0519788D02*
X0260411Y0519788D01*
X0260423Y0519396D02*
X0292066Y0519396D01*
X0292058Y0519004D02*
X0260435Y0519004D01*
X0260447Y0518611D02*
X0292049Y0518611D01*
X0292040Y0518219D02*
X0260448Y0518219D01*
X0260440Y0517827D02*
X0292032Y0517827D01*
X0292023Y0517435D02*
X0260433Y0517435D01*
X0260426Y0517043D02*
X0292015Y0517043D01*
X0292006Y0516650D02*
X0260418Y0516650D01*
X0260411Y0516258D02*
X0291997Y0516258D01*
X0291989Y0515866D02*
X0260404Y0515866D01*
X0260397Y0515474D02*
X0291980Y0515474D01*
X0291972Y0515081D02*
X0260389Y0515081D01*
X0260382Y0514689D02*
X0291963Y0514689D01*
X0291954Y0514297D02*
X0260375Y0514297D01*
X0260368Y0513905D02*
X0291946Y0513905D01*
X0291937Y0513513D02*
X0260360Y0513513D01*
X0260353Y0513120D02*
X0291929Y0513120D01*
X0291920Y0512728D02*
X0260346Y0512728D01*
X0260339Y0512336D02*
X0291911Y0512336D01*
X0291903Y0511944D02*
X0260331Y0511944D01*
X0260324Y0511552D02*
X0291894Y0511552D01*
X0291886Y0511159D02*
X0260317Y0511159D01*
X0260310Y0510767D02*
X0291877Y0510767D01*
X0291868Y0510375D02*
X0260302Y0510375D01*
X0260295Y0509983D02*
X0291860Y0509983D01*
X0291851Y0509590D02*
X0260288Y0509590D01*
X0260280Y0509198D02*
X0291843Y0509198D01*
X0291834Y0508806D02*
X0260273Y0508806D01*
X0260266Y0508414D02*
X0291825Y0508414D01*
X0291817Y0508022D02*
X0260259Y0508022D01*
X0260251Y0507629D02*
X0291808Y0507629D01*
X0291800Y0507237D02*
X0260244Y0507237D01*
X0260237Y0506845D02*
X0291791Y0506845D01*
X0291782Y0506453D02*
X0260230Y0506453D01*
X0260222Y0506061D02*
X0291774Y0506061D01*
X0291765Y0505668D02*
X0260215Y0505668D01*
X0260208Y0505276D02*
X0291757Y0505276D01*
X0291748Y0504884D02*
X0260201Y0504884D01*
X0260193Y0504492D02*
X0291739Y0504492D01*
X0291731Y0504100D02*
X0260186Y0504100D01*
X0260179Y0503707D02*
X0291722Y0503707D01*
X0291714Y0503315D02*
X0260172Y0503315D01*
X0260164Y0502923D02*
X0291705Y0502923D01*
X0291696Y0502531D02*
X0260157Y0502531D01*
X0260150Y0502138D02*
X0291688Y0502138D01*
X0291679Y0501746D02*
X0260142Y0501746D01*
X0260135Y0501354D02*
X0291671Y0501354D01*
X0291662Y0500962D02*
X0260128Y0500962D01*
X0260121Y0500570D02*
X0291653Y0500570D01*
X0291645Y0500177D02*
X0260113Y0500177D01*
X0260106Y0499785D02*
X0291636Y0499785D01*
X0291628Y0499393D02*
X0260099Y0499393D01*
X0260092Y0499001D02*
X0291619Y0499001D01*
X0291610Y0498609D02*
X0260084Y0498609D01*
X0260077Y0498216D02*
X0291602Y0498216D01*
X0291593Y0497824D02*
X0260070Y0497824D01*
X0260063Y0497432D02*
X0291585Y0497432D01*
X0291576Y0497040D02*
X0260055Y0497040D01*
X0260048Y0496647D02*
X0291567Y0496647D01*
X0291559Y0496255D02*
X0260041Y0496255D01*
X0260034Y0495863D02*
X0291550Y0495863D01*
X0291541Y0495471D02*
X0260026Y0495471D01*
X0260019Y0495079D02*
X0291533Y0495079D01*
X0291524Y0494686D02*
X0260012Y0494686D01*
X0260004Y0494294D02*
X0291516Y0494294D01*
X0291507Y0493902D02*
X0259997Y0493902D01*
X0259990Y0493510D02*
X0291498Y0493510D01*
X0291490Y0493118D02*
X0259983Y0493118D01*
X0259975Y0492725D02*
X0291481Y0492725D01*
X0291473Y0492333D02*
X0259968Y0492333D01*
X0259961Y0491941D02*
X0291464Y0491941D01*
X0291455Y0491549D02*
X0259954Y0491549D01*
X0259946Y0491157D02*
X0291447Y0491157D01*
X0291438Y0490764D02*
X0259939Y0490764D01*
X0259932Y0490372D02*
X0291430Y0490372D01*
X0291421Y0489980D02*
X0259925Y0489980D01*
X0259917Y0489588D02*
X0291412Y0489588D01*
X0291404Y0489195D02*
X0259910Y0489195D01*
X0259903Y0488803D02*
X0291395Y0488803D01*
X0291387Y0488411D02*
X0259896Y0488411D01*
X0259888Y0488019D02*
X0291378Y0488019D01*
X0291369Y0487627D02*
X0259881Y0487627D01*
X0259874Y0487234D02*
X0291361Y0487234D01*
X0291352Y0486842D02*
X0259866Y0486842D01*
X0259855Y0486450D02*
X0291344Y0486450D01*
X0291335Y0486058D02*
X0259831Y0486058D01*
X0259808Y0485666D02*
X0291326Y0485666D01*
X0291318Y0485273D02*
X0259784Y0485273D01*
X0259761Y0484881D02*
X0291309Y0484881D01*
X0291301Y0484489D02*
X0259738Y0484489D01*
X0259714Y0484097D02*
X0291292Y0484097D01*
X0291283Y0483704D02*
X0259691Y0483704D01*
X0259667Y0483312D02*
X0291275Y0483312D01*
X0291266Y0482920D02*
X0259644Y0482920D01*
X0259606Y0482528D02*
X0291258Y0482528D01*
X0291249Y0482136D02*
X0259552Y0482136D01*
X0259497Y0481743D02*
X0291240Y0481743D01*
X0291232Y0481351D02*
X0259443Y0481351D01*
X0259389Y0480959D02*
X0291223Y0480959D01*
X0291215Y0480567D02*
X0259335Y0480567D01*
X0259281Y0480175D02*
X0291206Y0480175D01*
X0291197Y0479782D02*
X0259227Y0479782D01*
X0259173Y0479390D02*
X0291189Y0479390D01*
X0291180Y0478998D02*
X0259119Y0478998D01*
X0259041Y0478606D02*
X0291172Y0478606D01*
X0291163Y0478214D02*
X0258955Y0478214D01*
X0258870Y0477821D02*
X0291139Y0477821D01*
X0291109Y0477429D02*
X0258784Y0477429D01*
X0258699Y0477037D02*
X0291079Y0477037D01*
X0291049Y0476645D02*
X0258613Y0476645D01*
X0258528Y0476252D02*
X0291019Y0476252D01*
X0290989Y0475860D02*
X0258442Y0475860D01*
X0258357Y0475468D02*
X0290959Y0475468D01*
X0290929Y0475076D02*
X0258268Y0475076D01*
X0258167Y0474684D02*
X0290876Y0474684D01*
X0290803Y0474291D02*
X0258065Y0474291D01*
X0257964Y0473899D02*
X0290729Y0473899D01*
X0290656Y0473507D02*
X0257862Y0473507D01*
X0257761Y0473115D02*
X0290582Y0473115D01*
X0290508Y0472723D02*
X0257659Y0472723D01*
X0257558Y0472330D02*
X0290435Y0472330D01*
X0290361Y0471938D02*
X0257456Y0471938D01*
X0257355Y0471546D02*
X0290267Y0471546D01*
X0290148Y0471154D02*
X0257253Y0471154D01*
X0257151Y0470761D02*
X0290029Y0470761D01*
X0289910Y0470369D02*
X0257050Y0470369D01*
X0256948Y0469977D02*
X0289791Y0469977D01*
X0289672Y0469585D02*
X0256847Y0469585D01*
X0256745Y0469193D02*
X0289553Y0469193D01*
X0289435Y0468800D02*
X0256644Y0468800D01*
X0256542Y0468408D02*
X0289321Y0468408D01*
X0289211Y0468016D02*
X0256441Y0468016D01*
X0256339Y0467624D02*
X0289101Y0467624D01*
X0288990Y0467232D02*
X0256238Y0467232D01*
X0256136Y0466839D02*
X0288880Y0466839D01*
X0288770Y0466447D02*
X0256034Y0466447D01*
X0255933Y0466055D02*
X0288660Y0466055D01*
X0288549Y0465663D02*
X0255831Y0465663D01*
X0255730Y0465271D02*
X0288439Y0465271D01*
X0288329Y0464878D02*
X0255628Y0464878D01*
X0255527Y0464486D02*
X0288219Y0464486D01*
X0288108Y0464094D02*
X0255425Y0464094D01*
X0255324Y0463702D02*
X0287998Y0463702D01*
X0287888Y0463309D02*
X0255222Y0463309D01*
X0255121Y0462917D02*
X0287778Y0462917D01*
X0287667Y0462525D02*
X0255019Y0462525D01*
X0254917Y0462133D02*
X0287557Y0462133D01*
X0287447Y0461741D02*
X0254816Y0461741D01*
X0254714Y0461348D02*
X0287337Y0461348D01*
X0287226Y0460956D02*
X0254613Y0460956D01*
X0254511Y0460564D02*
X0287116Y0460564D01*
X0287006Y0460172D02*
X0254410Y0460172D01*
X0254308Y0459780D02*
X0286896Y0459780D01*
X0286785Y0459387D02*
X0254207Y0459387D01*
X0254105Y0458995D02*
X0286675Y0458995D01*
X0286565Y0458603D02*
X0254004Y0458603D01*
X0253902Y0458211D02*
X0286455Y0458211D01*
X0286344Y0457818D02*
X0253800Y0457818D01*
X0253699Y0457426D02*
X0286234Y0457426D01*
X0286124Y0457034D02*
X0253597Y0457034D01*
X0253496Y0456642D02*
X0286014Y0456642D01*
X0285903Y0456250D02*
X0253394Y0456250D01*
X0253293Y0455857D02*
X0285793Y0455857D01*
X0285683Y0455465D02*
X0253191Y0455465D01*
X0253090Y0455073D02*
X0285573Y0455073D01*
X0285463Y0454681D02*
X0252988Y0454681D01*
X0252887Y0454289D02*
X0285352Y0454289D01*
X0285242Y0453896D02*
X0252785Y0453896D01*
X0252684Y0453504D02*
X0285132Y0453504D01*
X0285022Y0453112D02*
X0252582Y0453112D01*
X0252480Y0452720D02*
X0284911Y0452720D01*
X0284801Y0452328D02*
X0252379Y0452328D01*
X0252277Y0451935D02*
X0284691Y0451935D01*
X0284581Y0451543D02*
X0252176Y0451543D01*
X0252074Y0451151D02*
X0284470Y0451151D01*
X0284360Y0450759D02*
X0251973Y0450759D01*
X0251871Y0450366D02*
X0284250Y0450366D01*
X0284140Y0449974D02*
X0251770Y0449974D01*
X0251668Y0449582D02*
X0284029Y0449582D01*
X0283919Y0449190D02*
X0251567Y0449190D01*
X0251465Y0448798D02*
X0283809Y0448798D01*
X0283699Y0448405D02*
X0251363Y0448405D01*
X0251262Y0448013D02*
X0283588Y0448013D01*
X0283478Y0447621D02*
X0251160Y0447621D01*
X0251059Y0447229D02*
X0283368Y0447229D01*
X0283258Y0446837D02*
X0250957Y0446837D01*
X0250856Y0446444D02*
X0283147Y0446444D01*
X0283037Y0446052D02*
X0250754Y0446052D01*
X0250653Y0445660D02*
X0282927Y0445660D01*
X0282817Y0445268D02*
X0250551Y0445268D01*
X0250450Y0444875D02*
X0282706Y0444875D01*
X0282596Y0444483D02*
X0250348Y0444483D01*
X0250246Y0444091D02*
X0282486Y0444091D01*
X0282376Y0443699D02*
X0250145Y0443699D01*
X0250043Y0443307D02*
X0282265Y0443307D01*
X0282155Y0442914D02*
X0249942Y0442914D01*
X0249840Y0442522D02*
X0282045Y0442522D01*
X0281935Y0442130D02*
X0249739Y0442130D01*
X0249637Y0441738D02*
X0281824Y0441738D01*
X0281714Y0441346D02*
X0249536Y0441346D01*
X0249434Y0440953D02*
X0281604Y0440953D01*
X0281494Y0440561D02*
X0249333Y0440561D01*
X0249231Y0440169D02*
X0281384Y0440169D01*
X0281273Y0439777D02*
X0249129Y0439777D01*
X0249028Y0439385D02*
X0281163Y0439385D01*
X0281053Y0438992D02*
X0248926Y0438992D01*
X0248825Y0438600D02*
X0280943Y0438600D01*
X0280832Y0438208D02*
X0248723Y0438208D01*
X0248622Y0437816D02*
X0280722Y0437816D01*
X0280612Y0437423D02*
X0248520Y0437423D01*
X0248419Y0437031D02*
X0280502Y0437031D01*
X0280391Y0436639D02*
X0248317Y0436639D01*
X0248216Y0436247D02*
X0280281Y0436247D01*
X0280171Y0435855D02*
X0248114Y0435855D01*
X0248013Y0435462D02*
X0280061Y0435462D01*
X0279950Y0435070D02*
X0247911Y0435070D01*
X0247809Y0434678D02*
X0279840Y0434678D01*
X0279730Y0434286D02*
X0247708Y0434286D01*
X0247606Y0433894D02*
X0279620Y0433894D01*
X0279509Y0433501D02*
X0247505Y0433501D01*
X0247403Y0433109D02*
X0279399Y0433109D01*
X0279289Y0432717D02*
X0247302Y0432717D01*
X0247200Y0432325D02*
X0279179Y0432325D01*
X0279080Y0431932D02*
X0247099Y0431932D01*
X0246997Y0431540D02*
X0278984Y0431540D01*
X0278888Y0431148D02*
X0246896Y0431148D01*
X0246794Y0430756D02*
X0278793Y0430756D01*
X0278697Y0430364D02*
X0246692Y0430364D01*
X0246591Y0429971D02*
X0278601Y0429971D01*
X0278506Y0429579D02*
X0246489Y0429579D01*
X0246388Y0429187D02*
X0278410Y0429187D01*
X0278314Y0428795D02*
X0246286Y0428795D01*
X0246185Y0428403D02*
X0278219Y0428403D01*
X0278123Y0428010D02*
X0246083Y0428010D01*
X0245982Y0427618D02*
X0278027Y0427618D01*
X0277932Y0427226D02*
X0245880Y0427226D01*
X0245779Y0426834D02*
X0277836Y0426834D01*
X0277740Y0426442D02*
X0245677Y0426442D01*
X0245575Y0426049D02*
X0277645Y0426049D01*
X0277549Y0425657D02*
X0245474Y0425657D01*
X0245372Y0425265D02*
X0277453Y0425265D01*
X0277358Y0424873D02*
X0245271Y0424873D01*
X0245169Y0424480D02*
X0277262Y0424480D01*
X0277167Y0424088D02*
X0245068Y0424088D01*
X0244966Y0423696D02*
X0277075Y0423696D01*
X0276983Y0423304D02*
X0244865Y0423304D01*
X0244763Y0422912D02*
X0276891Y0422912D01*
X0276799Y0422519D02*
X0244662Y0422519D01*
X0244560Y0422127D02*
X0276707Y0422127D01*
X0276615Y0421735D02*
X0244458Y0421735D01*
X0244357Y0421343D02*
X0276523Y0421343D01*
X0276431Y0420951D02*
X0244255Y0420951D01*
X0244154Y0420558D02*
X0276339Y0420558D01*
X0276247Y0420166D02*
X0244052Y0420166D01*
X0243951Y0419774D02*
X0276155Y0419774D01*
X0276063Y0419382D02*
X0243849Y0419382D01*
X0243748Y0418989D02*
X0275971Y0418989D01*
X0275879Y0418597D02*
X0243646Y0418597D01*
X0243545Y0418205D02*
X0275787Y0418205D01*
X0275695Y0417813D02*
X0243443Y0417813D01*
X0243342Y0417421D02*
X0275603Y0417421D01*
X0275511Y0417028D02*
X0243240Y0417028D01*
X0243138Y0416636D02*
X0275419Y0416636D01*
X0275327Y0416244D02*
X0243037Y0416244D01*
X0242935Y0415852D02*
X0275235Y0415852D01*
X0275143Y0415460D02*
X0242834Y0415460D01*
X0242732Y0415067D02*
X0275051Y0415067D01*
X0274959Y0414675D02*
X0242631Y0414675D01*
X0242564Y0414283D02*
X0274867Y0414283D01*
X0274775Y0413891D02*
X0242843Y0413891D01*
X0243122Y0413499D02*
X0274683Y0413499D01*
X0274591Y0413106D02*
X0243402Y0413106D01*
X0243681Y0412714D02*
X0274499Y0412714D01*
X0274407Y0412322D02*
X0243960Y0412322D01*
X0244239Y0411930D02*
X0274315Y0411930D01*
X0274223Y0411537D02*
X0244518Y0411537D01*
X0244798Y0411145D02*
X0274131Y0411145D01*
X0274039Y0410753D02*
X0245077Y0410753D01*
X0245356Y0410361D02*
X0273947Y0410361D01*
X0273855Y0409969D02*
X0245635Y0409969D01*
X0245914Y0409576D02*
X0273763Y0409576D01*
X0273671Y0409184D02*
X0246194Y0409184D01*
X0246473Y0408792D02*
X0273579Y0408792D01*
X0273487Y0408400D02*
X0246752Y0408400D01*
X0247031Y0408008D02*
X0273087Y0408008D01*
X0272416Y0407615D02*
X0247310Y0407615D01*
X0247590Y0407223D02*
X0271745Y0407223D01*
X0271074Y0406831D02*
X0247869Y0406831D01*
X0248148Y0406439D02*
X0270403Y0406439D01*
X0269732Y0406046D02*
X0248427Y0406046D01*
X0248707Y0405654D02*
X0269061Y0405654D01*
X0268390Y0405262D02*
X0248986Y0405262D01*
X0249265Y0404870D02*
X0267719Y0404870D01*
X0267049Y0404478D02*
X0249544Y0404478D01*
X0249823Y0404085D02*
X0266378Y0404085D01*
X0265707Y0403693D02*
X0250103Y0403693D01*
X0250382Y0403301D02*
X0265036Y0403301D01*
X0264365Y0402909D02*
X0250661Y0402909D01*
X0251747Y0402517D02*
X0263694Y0402517D01*
X0263023Y0402124D02*
X0253708Y0402124D01*
X0255669Y0401732D02*
X0262352Y0401732D01*
X0261681Y0401340D02*
X0257630Y0401340D01*
X0259591Y0400948D02*
X0261011Y0400948D01*
X0258483Y0391484D02*
X0266357Y0380067D01*
X0259861Y0322783D01*
X0259744Y0322235D01*
X0259524Y0321719D01*
X0259208Y0321255D01*
X0258809Y0320861D01*
X0258341Y0320551D01*
X0257823Y0320337D01*
X0257273Y0320226D01*
X0256712Y0320224D01*
X0230924Y0323177D01*
X0230727Y0323177D01*
X0230267Y0323223D01*
X0229823Y0323357D01*
X0229415Y0323575D01*
X0229057Y0323869D01*
X0228763Y0324227D01*
X0228545Y0324635D01*
X0228411Y0325079D01*
X0228365Y0325539D01*
X0228365Y0325933D01*
X0235255Y0385382D01*
X0248838Y0393453D01*
X0258483Y0391484D01*
X0258236Y0391535D02*
X0245610Y0391535D01*
X0246270Y0391927D02*
X0256315Y0391927D01*
X0254393Y0392319D02*
X0246930Y0392319D01*
X0247590Y0392711D02*
X0252471Y0392711D01*
X0250549Y0393103D02*
X0248250Y0393103D01*
X0244950Y0391142D02*
X0258719Y0391142D01*
X0258990Y0390750D02*
X0244290Y0390750D01*
X0243629Y0390358D02*
X0259260Y0390358D01*
X0259531Y0389966D02*
X0242969Y0389966D01*
X0242309Y0389574D02*
X0259801Y0389574D01*
X0260072Y0389181D02*
X0241649Y0389181D01*
X0240989Y0388789D02*
X0260342Y0388789D01*
X0260613Y0388397D02*
X0240329Y0388397D01*
X0239669Y0388005D02*
X0260883Y0388005D01*
X0261154Y0387613D02*
X0239009Y0387613D01*
X0238349Y0387220D02*
X0261424Y0387220D01*
X0261694Y0386828D02*
X0237689Y0386828D01*
X0237029Y0386436D02*
X0261965Y0386436D01*
X0262235Y0386044D02*
X0236369Y0386044D01*
X0235709Y0385651D02*
X0262506Y0385651D01*
X0262776Y0385259D02*
X0235241Y0385259D01*
X0235195Y0384867D02*
X0263047Y0384867D01*
X0263317Y0384475D02*
X0235150Y0384475D01*
X0235104Y0384083D02*
X0263588Y0384083D01*
X0263858Y0383690D02*
X0235059Y0383690D01*
X0235014Y0383298D02*
X0264129Y0383298D01*
X0264399Y0382906D02*
X0234968Y0382906D01*
X0234923Y0382514D02*
X0264670Y0382514D01*
X0264940Y0382122D02*
X0234877Y0382122D01*
X0234832Y0381729D02*
X0265211Y0381729D01*
X0265481Y0381337D02*
X0234786Y0381337D01*
X0234741Y0380945D02*
X0265752Y0380945D01*
X0266022Y0380553D02*
X0234695Y0380553D01*
X0234650Y0380160D02*
X0266293Y0380160D01*
X0266324Y0379768D02*
X0234604Y0379768D01*
X0234559Y0379376D02*
X0266279Y0379376D01*
X0266235Y0378984D02*
X0234514Y0378984D01*
X0234468Y0378592D02*
X0266190Y0378592D01*
X0266146Y0378199D02*
X0234423Y0378199D01*
X0234377Y0377807D02*
X0266101Y0377807D01*
X0266057Y0377415D02*
X0234332Y0377415D01*
X0234286Y0377023D02*
X0266012Y0377023D01*
X0265968Y0376631D02*
X0234241Y0376631D01*
X0234195Y0376238D02*
X0265923Y0376238D01*
X0265879Y0375846D02*
X0234150Y0375846D01*
X0234104Y0375454D02*
X0265834Y0375454D01*
X0265790Y0375062D02*
X0234059Y0375062D01*
X0234013Y0374670D02*
X0265745Y0374670D01*
X0265701Y0374277D02*
X0233968Y0374277D01*
X0233923Y0373885D02*
X0265656Y0373885D01*
X0265612Y0373493D02*
X0233877Y0373493D01*
X0233832Y0373101D02*
X0265567Y0373101D01*
X0265523Y0372708D02*
X0233786Y0372708D01*
X0233741Y0372316D02*
X0265478Y0372316D01*
X0265434Y0371924D02*
X0233695Y0371924D01*
X0233650Y0371532D02*
X0265389Y0371532D01*
X0265345Y0371140D02*
X0233604Y0371140D01*
X0233559Y0370747D02*
X0265301Y0370747D01*
X0265256Y0370355D02*
X0233513Y0370355D01*
X0233468Y0369963D02*
X0265212Y0369963D01*
X0265167Y0369571D02*
X0233423Y0369571D01*
X0233377Y0369179D02*
X0265123Y0369179D01*
X0265078Y0368786D02*
X0233332Y0368786D01*
X0233286Y0368394D02*
X0265034Y0368394D01*
X0264989Y0368002D02*
X0233241Y0368002D01*
X0233195Y0367610D02*
X0264945Y0367610D01*
X0264900Y0367217D02*
X0233150Y0367217D01*
X0233104Y0366825D02*
X0264856Y0366825D01*
X0264811Y0366433D02*
X0233059Y0366433D01*
X0233013Y0366041D02*
X0264767Y0366041D01*
X0264722Y0365649D02*
X0232968Y0365649D01*
X0232923Y0365256D02*
X0264678Y0365256D01*
X0264633Y0364864D02*
X0232877Y0364864D01*
X0232832Y0364472D02*
X0264589Y0364472D01*
X0264544Y0364080D02*
X0232786Y0364080D01*
X0232741Y0363688D02*
X0264500Y0363688D01*
X0264455Y0363295D02*
X0232695Y0363295D01*
X0232650Y0362903D02*
X0264411Y0362903D01*
X0264366Y0362511D02*
X0232604Y0362511D01*
X0232559Y0362119D02*
X0264322Y0362119D01*
X0264278Y0361727D02*
X0232513Y0361727D01*
X0232468Y0361334D02*
X0264233Y0361334D01*
X0264189Y0360942D02*
X0232423Y0360942D01*
X0232377Y0360550D02*
X0264144Y0360550D01*
X0264100Y0360158D02*
X0232332Y0360158D01*
X0232286Y0359765D02*
X0264055Y0359765D01*
X0264011Y0359373D02*
X0232241Y0359373D01*
X0232195Y0358981D02*
X0263966Y0358981D01*
X0263922Y0358589D02*
X0232150Y0358589D01*
X0232104Y0358197D02*
X0263877Y0358197D01*
X0263833Y0357804D02*
X0232059Y0357804D01*
X0232013Y0357412D02*
X0263788Y0357412D01*
X0263744Y0357020D02*
X0231968Y0357020D01*
X0231923Y0356628D02*
X0263699Y0356628D01*
X0263655Y0356236D02*
X0231877Y0356236D01*
X0231832Y0355843D02*
X0263610Y0355843D01*
X0263566Y0355451D02*
X0231786Y0355451D01*
X0231741Y0355059D02*
X0263521Y0355059D01*
X0263477Y0354667D02*
X0231695Y0354667D01*
X0231650Y0354274D02*
X0263432Y0354274D01*
X0263388Y0353882D02*
X0231604Y0353882D01*
X0231559Y0353490D02*
X0263344Y0353490D01*
X0263299Y0353098D02*
X0231513Y0353098D01*
X0231468Y0352706D02*
X0263255Y0352706D01*
X0263210Y0352313D02*
X0231423Y0352313D01*
X0231377Y0351921D02*
X0263166Y0351921D01*
X0263121Y0351529D02*
X0231332Y0351529D01*
X0231286Y0351137D02*
X0263077Y0351137D01*
X0263032Y0350745D02*
X0231241Y0350745D01*
X0231195Y0350352D02*
X0262988Y0350352D01*
X0262943Y0349960D02*
X0231150Y0349960D01*
X0231104Y0349568D02*
X0262899Y0349568D01*
X0262854Y0349176D02*
X0231059Y0349176D01*
X0231013Y0348784D02*
X0262810Y0348784D01*
X0262765Y0348391D02*
X0230968Y0348391D01*
X0230923Y0347999D02*
X0262721Y0347999D01*
X0262676Y0347607D02*
X0230877Y0347607D01*
X0230832Y0347215D02*
X0262632Y0347215D01*
X0262587Y0346822D02*
X0230786Y0346822D01*
X0230741Y0346430D02*
X0262543Y0346430D01*
X0262498Y0346038D02*
X0230695Y0346038D01*
X0230650Y0345646D02*
X0262454Y0345646D01*
X0262409Y0345254D02*
X0230604Y0345254D01*
X0230559Y0344861D02*
X0262365Y0344861D01*
X0262321Y0344469D02*
X0230513Y0344469D01*
X0230468Y0344077D02*
X0262276Y0344077D01*
X0262232Y0343685D02*
X0230423Y0343685D01*
X0230377Y0343293D02*
X0262187Y0343293D01*
X0262143Y0342900D02*
X0230332Y0342900D01*
X0230286Y0342508D02*
X0262098Y0342508D01*
X0262054Y0342116D02*
X0230241Y0342116D01*
X0230195Y0341724D02*
X0262009Y0341724D01*
X0261965Y0341331D02*
X0230150Y0341331D01*
X0230104Y0340939D02*
X0261920Y0340939D01*
X0261876Y0340547D02*
X0230059Y0340547D01*
X0230013Y0340155D02*
X0261831Y0340155D01*
X0261787Y0339763D02*
X0229968Y0339763D01*
X0229923Y0339370D02*
X0261742Y0339370D01*
X0261698Y0338978D02*
X0229877Y0338978D01*
X0229832Y0338586D02*
X0261653Y0338586D01*
X0261609Y0338194D02*
X0229786Y0338194D01*
X0229741Y0337802D02*
X0261564Y0337802D01*
X0261520Y0337409D02*
X0229695Y0337409D01*
X0229650Y0337017D02*
X0261475Y0337017D01*
X0261431Y0336625D02*
X0229604Y0336625D01*
X0229559Y0336233D02*
X0261386Y0336233D01*
X0261342Y0335841D02*
X0229513Y0335841D01*
X0229468Y0335448D02*
X0261298Y0335448D01*
X0261253Y0335056D02*
X0229423Y0335056D01*
X0229377Y0334664D02*
X0261209Y0334664D01*
X0261164Y0334272D02*
X0229332Y0334272D01*
X0229286Y0333879D02*
X0261120Y0333879D01*
X0261075Y0333487D02*
X0229241Y0333487D01*
X0229195Y0333095D02*
X0261031Y0333095D01*
X0260986Y0332703D02*
X0229150Y0332703D01*
X0229104Y0332311D02*
X0260942Y0332311D01*
X0260897Y0331918D02*
X0229059Y0331918D01*
X0229013Y0331526D02*
X0260853Y0331526D01*
X0260808Y0331134D02*
X0228968Y0331134D01*
X0228923Y0330742D02*
X0260764Y0330742D01*
X0260719Y0330350D02*
X0228877Y0330350D01*
X0228832Y0329957D02*
X0260675Y0329957D01*
X0260630Y0329565D02*
X0228786Y0329565D01*
X0228741Y0329173D02*
X0260586Y0329173D01*
X0260541Y0328781D02*
X0228695Y0328781D01*
X0228650Y0328388D02*
X0260497Y0328388D01*
X0260452Y0327996D02*
X0228604Y0327996D01*
X0228559Y0327604D02*
X0260408Y0327604D01*
X0260363Y0327212D02*
X0228513Y0327212D01*
X0228468Y0326820D02*
X0260319Y0326820D01*
X0260275Y0326427D02*
X0228423Y0326427D01*
X0228377Y0326035D02*
X0260230Y0326035D01*
X0260186Y0325643D02*
X0228365Y0325643D01*
X0228394Y0325251D02*
X0260141Y0325251D01*
X0260097Y0324859D02*
X0228477Y0324859D01*
X0228635Y0324466D02*
X0260052Y0324466D01*
X0260008Y0324074D02*
X0228889Y0324074D01*
X0229285Y0323682D02*
X0259963Y0323682D01*
X0259919Y0323290D02*
X0230045Y0323290D01*
X0233366Y0322898D02*
X0259874Y0322898D01*
X0259802Y0322505D02*
X0236792Y0322505D01*
X0240217Y0322113D02*
X0259692Y0322113D01*
X0259525Y0321721D02*
X0243642Y0321721D01*
X0247068Y0321329D02*
X0259258Y0321329D01*
X0258886Y0320936D02*
X0250493Y0320936D01*
X0253918Y0320544D02*
X0258326Y0320544D01*
X0255598Y0310533D02*
X0256041Y0310399D01*
X0256449Y0310181D01*
X0256807Y0309887D01*
X0257101Y0309529D01*
X0257319Y0309121D01*
X0257454Y0308677D01*
X0257499Y0308217D01*
X0257499Y0307232D01*
X0247853Y0241287D01*
X0235452Y0232823D01*
X0226200Y0234201D01*
X0216751Y0245815D01*
X0225806Y0310776D01*
X0225859Y0311313D01*
X0226016Y0311830D01*
X0226271Y0312307D01*
X0226613Y0312724D01*
X0227031Y0313067D01*
X0227507Y0313322D01*
X0228024Y0313479D01*
X0228562Y0313531D01*
X0229153Y0313531D01*
X0255137Y0310579D01*
X0255598Y0310533D01*
X0256139Y0310347D02*
X0225746Y0310347D01*
X0225801Y0310739D02*
X0253727Y0310739D01*
X0256725Y0309955D02*
X0225692Y0309955D01*
X0225637Y0309562D02*
X0257074Y0309562D01*
X0257293Y0309170D02*
X0225582Y0309170D01*
X0225528Y0308778D02*
X0257423Y0308778D01*
X0257482Y0308386D02*
X0225473Y0308386D01*
X0225418Y0307993D02*
X0257499Y0307993D01*
X0257499Y0307601D02*
X0225364Y0307601D01*
X0225309Y0307209D02*
X0257496Y0307209D01*
X0257438Y0306817D02*
X0225254Y0306817D01*
X0225200Y0306425D02*
X0257381Y0306425D01*
X0257324Y0306032D02*
X0225145Y0306032D01*
X0225090Y0305640D02*
X0257266Y0305640D01*
X0257209Y0305248D02*
X0225036Y0305248D01*
X0224981Y0304856D02*
X0257152Y0304856D01*
X0257094Y0304464D02*
X0224926Y0304464D01*
X0224872Y0304071D02*
X0257037Y0304071D01*
X0256979Y0303679D02*
X0224817Y0303679D01*
X0224762Y0303287D02*
X0256922Y0303287D01*
X0256865Y0302895D02*
X0224708Y0302895D01*
X0224653Y0302502D02*
X0256807Y0302502D01*
X0256750Y0302110D02*
X0224598Y0302110D01*
X0224544Y0301718D02*
X0256693Y0301718D01*
X0256635Y0301326D02*
X0224489Y0301326D01*
X0224434Y0300934D02*
X0256578Y0300934D01*
X0256520Y0300541D02*
X0224380Y0300541D01*
X0224325Y0300149D02*
X0256463Y0300149D01*
X0256406Y0299757D02*
X0224270Y0299757D01*
X0224216Y0299365D02*
X0256348Y0299365D01*
X0256291Y0298973D02*
X0224161Y0298973D01*
X0224106Y0298580D02*
X0256234Y0298580D01*
X0256176Y0298188D02*
X0224052Y0298188D01*
X0223997Y0297796D02*
X0256119Y0297796D01*
X0256062Y0297404D02*
X0223942Y0297404D01*
X0223888Y0297012D02*
X0256004Y0297012D01*
X0255947Y0296619D02*
X0223833Y0296619D01*
X0223778Y0296227D02*
X0255889Y0296227D01*
X0255832Y0295835D02*
X0223724Y0295835D01*
X0223669Y0295443D02*
X0255775Y0295443D01*
X0255717Y0295050D02*
X0223614Y0295050D01*
X0223560Y0294658D02*
X0255660Y0294658D01*
X0255603Y0294266D02*
X0223505Y0294266D01*
X0223450Y0293874D02*
X0255545Y0293874D01*
X0255488Y0293482D02*
X0223396Y0293482D01*
X0223341Y0293089D02*
X0255430Y0293089D01*
X0255373Y0292697D02*
X0223286Y0292697D01*
X0223231Y0292305D02*
X0255316Y0292305D01*
X0255258Y0291913D02*
X0223177Y0291913D01*
X0223122Y0291521D02*
X0255201Y0291521D01*
X0255144Y0291128D02*
X0223067Y0291128D01*
X0223013Y0290736D02*
X0255086Y0290736D01*
X0255029Y0290344D02*
X0222958Y0290344D01*
X0222903Y0289952D02*
X0254972Y0289952D01*
X0254914Y0289559D02*
X0222849Y0289559D01*
X0222794Y0289167D02*
X0254857Y0289167D01*
X0254799Y0288775D02*
X0222739Y0288775D01*
X0222685Y0288383D02*
X0254742Y0288383D01*
X0254685Y0287991D02*
X0222630Y0287991D01*
X0222575Y0287598D02*
X0254627Y0287598D01*
X0254570Y0287206D02*
X0222521Y0287206D01*
X0222466Y0286814D02*
X0254513Y0286814D01*
X0254455Y0286422D02*
X0222411Y0286422D01*
X0222357Y0286030D02*
X0254398Y0286030D01*
X0254340Y0285637D02*
X0222302Y0285637D01*
X0222247Y0285245D02*
X0254283Y0285245D01*
X0254226Y0284853D02*
X0222193Y0284853D01*
X0222138Y0284461D02*
X0254168Y0284461D01*
X0254111Y0284069D02*
X0222083Y0284069D01*
X0222029Y0283676D02*
X0254054Y0283676D01*
X0253996Y0283284D02*
X0221974Y0283284D01*
X0221919Y0282892D02*
X0253939Y0282892D01*
X0253882Y0282500D02*
X0221865Y0282500D01*
X0221810Y0282107D02*
X0253824Y0282107D01*
X0253767Y0281715D02*
X0221755Y0281715D01*
X0221701Y0281323D02*
X0253709Y0281323D01*
X0253652Y0280931D02*
X0221646Y0280931D01*
X0221591Y0280539D02*
X0253595Y0280539D01*
X0253537Y0280146D02*
X0221537Y0280146D01*
X0221482Y0279754D02*
X0253480Y0279754D01*
X0253423Y0279362D02*
X0221427Y0279362D01*
X0221373Y0278970D02*
X0253365Y0278970D01*
X0253308Y0278578D02*
X0221318Y0278578D01*
X0221263Y0278185D02*
X0253250Y0278185D01*
X0253193Y0277793D02*
X0221209Y0277793D01*
X0221154Y0277401D02*
X0253136Y0277401D01*
X0253078Y0277009D02*
X0221099Y0277009D01*
X0221045Y0276616D02*
X0253021Y0276616D01*
X0252964Y0276224D02*
X0220990Y0276224D01*
X0220935Y0275832D02*
X0252906Y0275832D01*
X0252849Y0275440D02*
X0220881Y0275440D01*
X0220826Y0275048D02*
X0252792Y0275048D01*
X0252734Y0274655D02*
X0220771Y0274655D01*
X0220717Y0274263D02*
X0252677Y0274263D01*
X0252619Y0273871D02*
X0220662Y0273871D01*
X0220607Y0273479D02*
X0252562Y0273479D01*
X0252505Y0273087D02*
X0220553Y0273087D01*
X0220498Y0272694D02*
X0252447Y0272694D01*
X0252390Y0272302D02*
X0220443Y0272302D01*
X0220389Y0271910D02*
X0252333Y0271910D01*
X0252275Y0271518D02*
X0220334Y0271518D01*
X0220279Y0271126D02*
X0252218Y0271126D01*
X0252160Y0270733D02*
X0220225Y0270733D01*
X0220170Y0270341D02*
X0252103Y0270341D01*
X0252046Y0269949D02*
X0220115Y0269949D01*
X0220061Y0269557D02*
X0251988Y0269557D01*
X0251931Y0269164D02*
X0220006Y0269164D01*
X0219951Y0268772D02*
X0251874Y0268772D01*
X0251816Y0268380D02*
X0219897Y0268380D01*
X0219842Y0267988D02*
X0251759Y0267988D01*
X0251702Y0267596D02*
X0219787Y0267596D01*
X0219732Y0267203D02*
X0251644Y0267203D01*
X0251587Y0266811D02*
X0219678Y0266811D01*
X0219623Y0266419D02*
X0251529Y0266419D01*
X0251472Y0266027D02*
X0219568Y0266027D01*
X0219514Y0265635D02*
X0251415Y0265635D01*
X0251357Y0265242D02*
X0219459Y0265242D01*
X0219404Y0264850D02*
X0251300Y0264850D01*
X0251243Y0264458D02*
X0219350Y0264458D01*
X0219295Y0264066D02*
X0251185Y0264066D01*
X0251128Y0263673D02*
X0219240Y0263673D01*
X0219186Y0263281D02*
X0251070Y0263281D01*
X0251013Y0262889D02*
X0219131Y0262889D01*
X0219076Y0262497D02*
X0250956Y0262497D01*
X0250898Y0262105D02*
X0219022Y0262105D01*
X0218967Y0261712D02*
X0250841Y0261712D01*
X0250784Y0261320D02*
X0218912Y0261320D01*
X0218858Y0260928D02*
X0250726Y0260928D01*
X0250669Y0260536D02*
X0218803Y0260536D01*
X0218748Y0260144D02*
X0250612Y0260144D01*
X0250554Y0259751D02*
X0218694Y0259751D01*
X0218639Y0259359D02*
X0250497Y0259359D01*
X0250439Y0258967D02*
X0218584Y0258967D01*
X0218530Y0258575D02*
X0250382Y0258575D01*
X0250325Y0258183D02*
X0218475Y0258183D01*
X0218420Y0257790D02*
X0250267Y0257790D01*
X0250210Y0257398D02*
X0218366Y0257398D01*
X0218311Y0257006D02*
X0250153Y0257006D01*
X0250095Y0256614D02*
X0218256Y0256614D01*
X0218202Y0256221D02*
X0250038Y0256221D01*
X0249980Y0255829D02*
X0218147Y0255829D01*
X0218092Y0255437D02*
X0249923Y0255437D01*
X0249866Y0255045D02*
X0218038Y0255045D01*
X0217983Y0254653D02*
X0249808Y0254653D01*
X0249751Y0254260D02*
X0217928Y0254260D01*
X0217874Y0253868D02*
X0249694Y0253868D01*
X0249636Y0253476D02*
X0217819Y0253476D01*
X0217764Y0253084D02*
X0249579Y0253084D01*
X0249522Y0252692D02*
X0217710Y0252692D01*
X0217655Y0252299D02*
X0249464Y0252299D01*
X0249407Y0251907D02*
X0217600Y0251907D01*
X0217546Y0251515D02*
X0249349Y0251515D01*
X0249292Y0251123D02*
X0217491Y0251123D01*
X0217436Y0250730D02*
X0249235Y0250730D01*
X0249177Y0250338D02*
X0217382Y0250338D01*
X0217327Y0249946D02*
X0249120Y0249946D01*
X0249063Y0249554D02*
X0217272Y0249554D01*
X0217218Y0249162D02*
X0249005Y0249162D01*
X0248948Y0248769D02*
X0217163Y0248769D01*
X0217108Y0248377D02*
X0248890Y0248377D01*
X0248833Y0247985D02*
X0217054Y0247985D01*
X0216999Y0247593D02*
X0248776Y0247593D01*
X0248718Y0247201D02*
X0216944Y0247201D01*
X0216890Y0246808D02*
X0248661Y0246808D01*
X0248604Y0246416D02*
X0216835Y0246416D01*
X0216780Y0246024D02*
X0248546Y0246024D01*
X0248489Y0245632D02*
X0216900Y0245632D01*
X0217219Y0245240D02*
X0248432Y0245240D01*
X0248374Y0244847D02*
X0217538Y0244847D01*
X0217857Y0244455D02*
X0248317Y0244455D01*
X0248259Y0244063D02*
X0218176Y0244063D01*
X0218496Y0243671D02*
X0248202Y0243671D01*
X0248145Y0243278D02*
X0218815Y0243278D01*
X0219134Y0242886D02*
X0248087Y0242886D01*
X0248030Y0242494D02*
X0219453Y0242494D01*
X0219772Y0242102D02*
X0247973Y0242102D01*
X0247915Y0241710D02*
X0220091Y0241710D01*
X0220410Y0241317D02*
X0247858Y0241317D01*
X0247323Y0240925D02*
X0220729Y0240925D01*
X0221048Y0240533D02*
X0246748Y0240533D01*
X0246173Y0240141D02*
X0221367Y0240141D01*
X0221686Y0239749D02*
X0245599Y0239749D01*
X0245024Y0239356D02*
X0222006Y0239356D01*
X0222325Y0238964D02*
X0244450Y0238964D01*
X0243875Y0238572D02*
X0222644Y0238572D01*
X0222963Y0238180D02*
X0243300Y0238180D01*
X0242726Y0237787D02*
X0223282Y0237787D01*
X0223601Y0237395D02*
X0242151Y0237395D01*
X0241576Y0237003D02*
X0223920Y0237003D01*
X0224239Y0236611D02*
X0241002Y0236611D01*
X0240427Y0236219D02*
X0224558Y0236219D01*
X0224877Y0235826D02*
X0239852Y0235826D01*
X0239278Y0235434D02*
X0225196Y0235434D01*
X0225516Y0235042D02*
X0238703Y0235042D01*
X0238129Y0234650D02*
X0225835Y0234650D01*
X0226154Y0234258D02*
X0237554Y0234258D01*
X0236979Y0233865D02*
X0228452Y0233865D01*
X0231085Y0233473D02*
X0236405Y0233473D01*
X0235830Y0233081D02*
X0233719Y0233081D01*
X0232453Y0223668D02*
X0223456Y0223668D01*
X0224021Y0224060D02*
X0229763Y0224060D01*
X0227074Y0224452D02*
X0224587Y0224452D01*
X0225019Y0224752D02*
X0212814Y0216287D01*
X0210649Y0188925D01*
X0210010Y0186567D01*
X0209073Y0184311D01*
X0207854Y0182195D01*
X0206372Y0180252D01*
X0204653Y0178517D01*
X0202724Y0177017D01*
X0200619Y0175778D01*
X0198372Y0174820D01*
X0196020Y0174159D01*
X0193603Y0173806D01*
X0191161Y0173768D01*
X0130531Y0176720D01*
X0120491Y0166091D01*
X0120491Y0156445D01*
X0130531Y0145224D01*
X0195294Y0142075D01*
X0200055Y0142394D01*
X0204759Y0143190D01*
X0209360Y0144453D01*
X0213812Y0146171D01*
X0218068Y0148328D01*
X0222086Y0150900D01*
X0225826Y0153863D01*
X0229250Y0157186D01*
X0232324Y0160835D01*
X0235015Y0164775D01*
X0237298Y0168964D01*
X0239149Y0173362D01*
X0240550Y0177923D01*
X0241486Y0182602D01*
X0241948Y0187350D01*
X0242776Y0199578D01*
X0244113Y0211760D01*
X0234468Y0223374D01*
X0225019Y0224752D01*
X0222890Y0223276D02*
X0234549Y0223276D01*
X0234875Y0222883D02*
X0222325Y0222883D01*
X0221759Y0222491D02*
X0235201Y0222491D01*
X0235527Y0222099D02*
X0221194Y0222099D01*
X0220628Y0221707D02*
X0235852Y0221707D01*
X0236178Y0221315D02*
X0220063Y0221315D01*
X0219497Y0220922D02*
X0236504Y0220922D01*
X0236829Y0220530D02*
X0218932Y0220530D01*
X0218366Y0220138D02*
X0237155Y0220138D01*
X0237481Y0219746D02*
X0217801Y0219746D01*
X0217235Y0219354D02*
X0237807Y0219354D01*
X0238132Y0218961D02*
X0216669Y0218961D01*
X0216104Y0218569D02*
X0238458Y0218569D01*
X0238784Y0218177D02*
X0215538Y0218177D01*
X0214973Y0217785D02*
X0239110Y0217785D01*
X0239435Y0217392D02*
X0214407Y0217392D01*
X0213842Y0217000D02*
X0239761Y0217000D01*
X0240087Y0216608D02*
X0213276Y0216608D01*
X0212808Y0216216D02*
X0240413Y0216216D01*
X0240738Y0215824D02*
X0212777Y0215824D01*
X0212746Y0215431D02*
X0241064Y0215431D01*
X0241390Y0215039D02*
X0212715Y0215039D01*
X0212684Y0214647D02*
X0241715Y0214647D01*
X0242041Y0214255D02*
X0212653Y0214255D01*
X0212622Y0213863D02*
X0242367Y0213863D01*
X0242693Y0213470D02*
X0212591Y0213470D01*
X0212560Y0213078D02*
X0243018Y0213078D01*
X0243344Y0212686D02*
X0212529Y0212686D01*
X0212498Y0212294D02*
X0243670Y0212294D01*
X0243996Y0211902D02*
X0212467Y0211902D01*
X0212436Y0211509D02*
X0244086Y0211509D01*
X0244043Y0211117D02*
X0212405Y0211117D01*
X0212374Y0210725D02*
X0244000Y0210725D01*
X0243957Y0210333D02*
X0212343Y0210333D01*
X0212312Y0209940D02*
X0243914Y0209940D01*
X0243870Y0209548D02*
X0212281Y0209548D01*
X0212250Y0209156D02*
X0243827Y0209156D01*
X0243784Y0208764D02*
X0212219Y0208764D01*
X0212188Y0208372D02*
X0243741Y0208372D01*
X0243698Y0207979D02*
X0212157Y0207979D01*
X0212126Y0207587D02*
X0243655Y0207587D01*
X0243612Y0207195D02*
X0212095Y0207195D01*
X0212063Y0206803D02*
X0243569Y0206803D01*
X0243526Y0206411D02*
X0212032Y0206411D01*
X0212001Y0206018D02*
X0243483Y0206018D01*
X0243440Y0205626D02*
X0211970Y0205626D01*
X0211939Y0205234D02*
X0243397Y0205234D01*
X0243354Y0204842D02*
X0211908Y0204842D01*
X0211877Y0204449D02*
X0243311Y0204449D01*
X0243268Y0204057D02*
X0211846Y0204057D01*
X0211815Y0203665D02*
X0243225Y0203665D01*
X0243181Y0203273D02*
X0211784Y0203273D01*
X0211753Y0202881D02*
X0243138Y0202881D01*
X0243095Y0202488D02*
X0211722Y0202488D01*
X0211691Y0202096D02*
X0243052Y0202096D01*
X0243009Y0201704D02*
X0211660Y0201704D01*
X0211629Y0201312D02*
X0242966Y0201312D01*
X0242923Y0200920D02*
X0211598Y0200920D01*
X0211567Y0200527D02*
X0242880Y0200527D01*
X0242837Y0200135D02*
X0211536Y0200135D01*
X0211505Y0199743D02*
X0242794Y0199743D01*
X0242760Y0199351D02*
X0211474Y0199351D01*
X0211443Y0198959D02*
X0242734Y0198959D01*
X0242707Y0198566D02*
X0211412Y0198566D01*
X0211381Y0198174D02*
X0242681Y0198174D01*
X0242654Y0197782D02*
X0211350Y0197782D01*
X0211319Y0197390D02*
X0242628Y0197390D01*
X0242601Y0196997D02*
X0211288Y0196997D01*
X0211256Y0196605D02*
X0242575Y0196605D01*
X0242548Y0196213D02*
X0211225Y0196213D01*
X0211194Y0195821D02*
X0242521Y0195821D01*
X0242495Y0195429D02*
X0211163Y0195429D01*
X0211132Y0195036D02*
X0242468Y0195036D01*
X0242442Y0194644D02*
X0211101Y0194644D01*
X0211070Y0194252D02*
X0242415Y0194252D01*
X0242389Y0193860D02*
X0211039Y0193860D01*
X0211008Y0193468D02*
X0242362Y0193468D01*
X0242336Y0193075D02*
X0210977Y0193075D01*
X0210946Y0192683D02*
X0242309Y0192683D01*
X0242282Y0192291D02*
X0210915Y0192291D01*
X0210884Y0191899D02*
X0242256Y0191899D01*
X0242229Y0191506D02*
X0210853Y0191506D01*
X0210822Y0191114D02*
X0242203Y0191114D01*
X0242176Y0190722D02*
X0210791Y0190722D01*
X0210760Y0190330D02*
X0242150Y0190330D01*
X0242123Y0189938D02*
X0210729Y0189938D01*
X0210698Y0189545D02*
X0242097Y0189545D01*
X0242070Y0189153D02*
X0210667Y0189153D01*
X0210604Y0188761D02*
X0242043Y0188761D01*
X0242017Y0188369D02*
X0210498Y0188369D01*
X0210392Y0187977D02*
X0241990Y0187977D01*
X0241964Y0187584D02*
X0210285Y0187584D01*
X0210179Y0187192D02*
X0241933Y0187192D01*
X0241894Y0186800D02*
X0210073Y0186800D01*
X0209944Y0186408D02*
X0241856Y0186408D01*
X0241818Y0186016D02*
X0209781Y0186016D01*
X0209618Y0185623D02*
X0241780Y0185623D01*
X0241742Y0185231D02*
X0209455Y0185231D01*
X0209292Y0184839D02*
X0241704Y0184839D01*
X0241665Y0184447D02*
X0209129Y0184447D01*
X0208925Y0184054D02*
X0241627Y0184054D01*
X0241589Y0183662D02*
X0208699Y0183662D01*
X0208473Y0183270D02*
X0241551Y0183270D01*
X0241513Y0182878D02*
X0208247Y0182878D01*
X0208021Y0182486D02*
X0241463Y0182486D01*
X0241384Y0182093D02*
X0207776Y0182093D01*
X0207477Y0181701D02*
X0241306Y0181701D01*
X0241227Y0181309D02*
X0207178Y0181309D01*
X0206879Y0180917D02*
X0241149Y0180917D01*
X0241070Y0180525D02*
X0206580Y0180525D01*
X0206253Y0180132D02*
X0240992Y0180132D01*
X0240914Y0179740D02*
X0205865Y0179740D01*
X0205476Y0179348D02*
X0240835Y0179348D01*
X0240757Y0178956D02*
X0205087Y0178956D01*
X0204699Y0178563D02*
X0240678Y0178563D01*
X0240600Y0178171D02*
X0204208Y0178171D01*
X0203704Y0177779D02*
X0240506Y0177779D01*
X0240385Y0177387D02*
X0203200Y0177387D01*
X0202686Y0176995D02*
X0240265Y0176995D01*
X0240144Y0176602D02*
X0202020Y0176602D01*
X0201354Y0176210D02*
X0240024Y0176210D01*
X0239904Y0175818D02*
X0200687Y0175818D01*
X0199793Y0175426D02*
X0239783Y0175426D01*
X0239663Y0175034D02*
X0198873Y0175034D01*
X0197736Y0174641D02*
X0239542Y0174641D01*
X0239422Y0174249D02*
X0196341Y0174249D01*
X0193949Y0173857D02*
X0239301Y0173857D01*
X0239181Y0173465D02*
X0127456Y0173465D01*
X0127826Y0173857D02*
X0189329Y0173857D01*
X0181275Y0174249D02*
X0128197Y0174249D01*
X0128567Y0174641D02*
X0173222Y0174641D01*
X0165168Y0175034D02*
X0128937Y0175034D01*
X0129308Y0175426D02*
X0157115Y0175426D01*
X0149062Y0175818D02*
X0129678Y0175818D01*
X0130049Y0176210D02*
X0141008Y0176210D01*
X0132955Y0176602D02*
X0130419Y0176602D01*
X0127085Y0173073D02*
X0239028Y0173073D01*
X0238862Y0172680D02*
X0126715Y0172680D01*
X0126344Y0172288D02*
X0238697Y0172288D01*
X0238532Y0171896D02*
X0125974Y0171896D01*
X0125604Y0171504D02*
X0238367Y0171504D01*
X0238202Y0171111D02*
X0125233Y0171111D01*
X0124863Y0170719D02*
X0238037Y0170719D01*
X0237872Y0170327D02*
X0124492Y0170327D01*
X0124122Y0169935D02*
X0237707Y0169935D01*
X0237542Y0169543D02*
X0123751Y0169543D01*
X0123381Y0169150D02*
X0237377Y0169150D01*
X0237186Y0168758D02*
X0123011Y0168758D01*
X0122640Y0168366D02*
X0236972Y0168366D01*
X0236758Y0167974D02*
X0122270Y0167974D01*
X0121899Y0167582D02*
X0236545Y0167582D01*
X0236331Y0167189D02*
X0121529Y0167189D01*
X0121159Y0166797D02*
X0236117Y0166797D01*
X0235904Y0166405D02*
X0120788Y0166405D01*
X0120491Y0166013D02*
X0235690Y0166013D01*
X0235476Y0165620D02*
X0120491Y0165620D01*
X0120491Y0165228D02*
X0235262Y0165228D01*
X0235049Y0164836D02*
X0120491Y0164836D01*
X0120491Y0164444D02*
X0234789Y0164444D01*
X0234521Y0164052D02*
X0120491Y0164052D01*
X0120491Y0163659D02*
X0234253Y0163659D01*
X0233985Y0163267D02*
X0120491Y0163267D01*
X0120491Y0162875D02*
X0233717Y0162875D01*
X0233449Y0162483D02*
X0120491Y0162483D01*
X0120491Y0162091D02*
X0233181Y0162091D01*
X0232913Y0161698D02*
X0120491Y0161698D01*
X0120491Y0161306D02*
X0232645Y0161306D01*
X0232377Y0160914D02*
X0120491Y0160914D01*
X0120491Y0160522D02*
X0232060Y0160522D01*
X0231729Y0160130D02*
X0120491Y0160130D01*
X0120491Y0159737D02*
X0231399Y0159737D01*
X0231069Y0159345D02*
X0120491Y0159345D01*
X0120491Y0158953D02*
X0230738Y0158953D01*
X0230408Y0158561D02*
X0120491Y0158561D01*
X0120491Y0158168D02*
X0230078Y0158168D01*
X0229748Y0157776D02*
X0120491Y0157776D01*
X0120491Y0157384D02*
X0229417Y0157384D01*
X0229050Y0156992D02*
X0120491Y0156992D01*
X0120491Y0156600D02*
X0228646Y0156600D01*
X0228242Y0156207D02*
X0120704Y0156207D01*
X0121055Y0155815D02*
X0227838Y0155815D01*
X0227434Y0155423D02*
X0121406Y0155423D01*
X0121757Y0155031D02*
X0227030Y0155031D01*
X0226626Y0154639D02*
X0122107Y0154639D01*
X0122458Y0154246D02*
X0226221Y0154246D01*
X0225815Y0153854D02*
X0122809Y0153854D01*
X0123160Y0153462D02*
X0225320Y0153462D01*
X0224825Y0153070D02*
X0123511Y0153070D01*
X0123862Y0152677D02*
X0224330Y0152677D01*
X0223835Y0152285D02*
X0124213Y0152285D01*
X0124564Y0151893D02*
X0223340Y0151893D01*
X0222844Y0151501D02*
X0124915Y0151501D01*
X0125266Y0151109D02*
X0222349Y0151109D01*
X0221799Y0150716D02*
X0125617Y0150716D01*
X0125968Y0150324D02*
X0221186Y0150324D01*
X0220574Y0149932D02*
X0126319Y0149932D01*
X0126669Y0149540D02*
X0219961Y0149540D01*
X0219348Y0149148D02*
X0127020Y0149148D01*
X0127371Y0148755D02*
X0218736Y0148755D01*
X0218123Y0148363D02*
X0127722Y0148363D01*
X0128073Y0147971D02*
X0217364Y0147971D01*
X0216589Y0147579D02*
X0128424Y0147579D01*
X0128775Y0147187D02*
X0215815Y0147187D01*
X0215041Y0146794D02*
X0129126Y0146794D01*
X0129477Y0146402D02*
X0214267Y0146402D01*
X0213393Y0146010D02*
X0129828Y0146010D01*
X0130179Y0145618D02*
X0212377Y0145618D01*
X0211362Y0145225D02*
X0130530Y0145225D01*
X0138574Y0144833D02*
X0210346Y0144833D01*
X0209317Y0144441D02*
X0146639Y0144441D01*
X0154704Y0144049D02*
X0207889Y0144049D01*
X0206460Y0143657D02*
X0162769Y0143657D01*
X0170834Y0143264D02*
X0205032Y0143264D01*
X0202882Y0142872D02*
X0178899Y0142872D01*
X0186963Y0142480D02*
X0200562Y0142480D01*
X0195487Y0142088D02*
X0195028Y0142088D01*
X0104134Y0150324D02*
X0060665Y0150324D01*
X0065717Y0149932D02*
X0103742Y0149932D01*
X0103350Y0149540D02*
X0070770Y0149540D01*
X0075823Y0149148D02*
X0102958Y0149148D01*
X0102565Y0148755D02*
X0080875Y0148755D01*
X0085928Y0148363D02*
X0102173Y0148363D01*
X0101781Y0147971D02*
X0090980Y0147971D01*
X0096033Y0147579D02*
X0101389Y0147579D01*
X0225841Y0311131D02*
X0250276Y0311131D01*
X0246824Y0311523D02*
X0225923Y0311523D01*
X0226062Y0311916D02*
X0243373Y0311916D01*
X0239921Y0312308D02*
X0226272Y0312308D01*
X0226593Y0312700D02*
X0236470Y0312700D01*
X0233018Y0313092D02*
X0227078Y0313092D01*
X0228084Y0313484D02*
X0229567Y0313484D01*
X0266181Y0560578D02*
X0274007Y0560578D01*
X0273391Y0560970D02*
X0268681Y0560970D01*
X0271182Y0561362D02*
X0272775Y0561362D01*
X0275733Y0604114D02*
X0243678Y0604114D01*
X0243639Y0604506D02*
X0275675Y0604506D01*
X0275618Y0604898D02*
X0243601Y0604898D01*
X0243562Y0605290D02*
X0275561Y0605290D01*
X0275504Y0605682D02*
X0243524Y0605682D01*
X0243509Y0606075D02*
X0275446Y0606075D01*
X0275389Y0606467D02*
X0243512Y0606467D01*
X0243515Y0606859D02*
X0275332Y0606859D01*
X0275275Y0607251D02*
X0243517Y0607251D01*
X0243520Y0607644D02*
X0275217Y0607644D01*
X0275160Y0608036D02*
X0243523Y0608036D01*
X0243524Y0608428D02*
X0275103Y0608428D01*
X0275046Y0608820D02*
X0243528Y0608820D01*
X0243531Y0609212D02*
X0275016Y0609212D01*
X0275011Y0609605D02*
X0243534Y0609605D01*
X0243537Y0609997D02*
X0275007Y0609997D01*
X0275002Y0610389D02*
X0243540Y0610389D01*
X0243544Y0610781D02*
X0274997Y0610781D01*
X0274992Y0611173D02*
X0243547Y0611173D01*
X0243550Y0611566D02*
X0274987Y0611566D01*
X0274983Y0611958D02*
X0243553Y0611958D01*
X0243556Y0612350D02*
X0274978Y0612350D01*
X0274973Y0612742D02*
X0243560Y0612742D01*
X0243563Y0613134D02*
X0274968Y0613134D01*
X0274963Y0613527D02*
X0243566Y0613527D01*
X0243569Y0613919D02*
X0274959Y0613919D01*
X0274954Y0614311D02*
X0243572Y0614311D01*
X0243575Y0614703D02*
X0274949Y0614703D01*
X0274944Y0615096D02*
X0243579Y0615096D01*
X0243582Y0615488D02*
X0274940Y0615488D01*
X0274935Y0615880D02*
X0243585Y0615880D01*
X0243588Y0616272D02*
X0274930Y0616272D01*
X0274925Y0616664D02*
X0243591Y0616664D01*
X0243595Y0617057D02*
X0274920Y0617057D01*
X0274916Y0617449D02*
X0243598Y0617449D01*
X0243601Y0617841D02*
X0274911Y0617841D01*
X0274906Y0618233D02*
X0243604Y0618233D01*
X0243607Y0618625D02*
X0274901Y0618625D01*
X0274896Y0619018D02*
X0243611Y0619018D01*
X0243614Y0619410D02*
X0274892Y0619410D01*
X0274887Y0619802D02*
X0243617Y0619802D01*
X0243620Y0620194D02*
X0274882Y0620194D01*
X0274877Y0620587D02*
X0243623Y0620587D01*
X0243626Y0620979D02*
X0274872Y0620979D01*
X0274868Y0621371D02*
X0243630Y0621371D01*
X0243633Y0621763D02*
X0274863Y0621763D01*
X0274858Y0622155D02*
X0243636Y0622155D01*
X0243639Y0622548D02*
X0274853Y0622548D01*
X0274848Y0622940D02*
X0243642Y0622940D01*
X0243646Y0623332D02*
X0274844Y0623332D01*
X0274839Y0623724D02*
X0243649Y0623724D01*
X0243652Y0624116D02*
X0274834Y0624116D01*
X0274829Y0624509D02*
X0243655Y0624509D01*
X0243658Y0624901D02*
X0274826Y0624901D01*
X0274836Y0625293D02*
X0243662Y0625293D01*
X0243665Y0625685D02*
X0274846Y0625685D01*
X0274855Y0626077D02*
X0243668Y0626077D01*
X0243671Y0626470D02*
X0274865Y0626470D01*
X0274875Y0626862D02*
X0243674Y0626862D01*
X0243677Y0627254D02*
X0274884Y0627254D01*
X0274894Y0627646D02*
X0243681Y0627646D01*
X0243684Y0628039D02*
X0274904Y0628039D01*
X0274913Y0628431D02*
X0243687Y0628431D01*
X0243690Y0628823D02*
X0274923Y0628823D01*
X0274933Y0629215D02*
X0243693Y0629215D01*
X0243697Y0629607D02*
X0274942Y0629607D01*
X0274952Y0630000D02*
X0243700Y0630000D01*
X0243703Y0630392D02*
X0274962Y0630392D01*
X0274971Y0630784D02*
X0243706Y0630784D01*
X0243709Y0631176D02*
X0274981Y0631176D01*
X0274991Y0631568D02*
X0243713Y0631568D01*
X0243716Y0631961D02*
X0275000Y0631961D01*
X0275010Y0632353D02*
X0243719Y0632353D01*
X0243722Y0632745D02*
X0275020Y0632745D01*
X0275029Y0633137D02*
X0243725Y0633137D01*
X0243729Y0633530D02*
X0275039Y0633530D01*
X0275049Y0633922D02*
X0243732Y0633922D01*
X0243735Y0634314D02*
X0275058Y0634314D01*
X0275068Y0634706D02*
X0243738Y0634706D01*
X0243741Y0635098D02*
X0275078Y0635098D01*
X0275087Y0635491D02*
X0243744Y0635491D01*
X0243748Y0635883D02*
X0275097Y0635883D01*
X0275107Y0636275D02*
X0243751Y0636275D01*
X0243754Y0636667D02*
X0275116Y0636667D01*
X0275126Y0637059D02*
X0243757Y0637059D01*
X0243760Y0637452D02*
X0275136Y0637452D01*
X0275145Y0637844D02*
X0243764Y0637844D01*
X0243767Y0638236D02*
X0275155Y0638236D01*
X0275165Y0638628D02*
X0243770Y0638628D01*
X0243773Y0639020D02*
X0275174Y0639020D01*
X0275184Y0639413D02*
X0243776Y0639413D01*
X0243780Y0639805D02*
X0275194Y0639805D01*
X0275203Y0640197D02*
X0243783Y0640197D01*
X0243786Y0640589D02*
X0275213Y0640589D01*
X0275228Y0640982D02*
X0243789Y0640982D01*
X0243792Y0641374D02*
X0275245Y0641374D01*
X0275262Y0641766D02*
X0243795Y0641766D01*
X0243799Y0642158D02*
X0275279Y0642158D01*
X0275296Y0642550D02*
X0243802Y0642550D01*
X0243805Y0642943D02*
X0275312Y0642943D01*
X0275329Y0643335D02*
X0243808Y0643335D01*
X0243811Y0643727D02*
X0275346Y0643727D01*
X0275363Y0644119D02*
X0243815Y0644119D01*
X0243818Y0644511D02*
X0275380Y0644511D01*
X0275397Y0644904D02*
X0243821Y0644904D01*
X0243824Y0645296D02*
X0275414Y0645296D01*
X0275431Y0645688D02*
X0243827Y0645688D01*
X0243831Y0646080D02*
X0275448Y0646080D01*
X0275465Y0646473D02*
X0243834Y0646473D01*
X0243837Y0646865D02*
X0275481Y0646865D01*
X0275498Y0647257D02*
X0243840Y0647257D01*
X0243843Y0647649D02*
X0275515Y0647649D01*
X0275532Y0648041D02*
X0243846Y0648041D01*
X0243850Y0648434D02*
X0275549Y0648434D01*
X0275566Y0648826D02*
X0243853Y0648826D01*
X0243856Y0649218D02*
X0275583Y0649218D01*
X0275600Y0649610D02*
X0243859Y0649610D01*
X0243862Y0650002D02*
X0275617Y0650002D01*
X0275634Y0650395D02*
X0243866Y0650395D01*
X0243869Y0650787D02*
X0275651Y0650787D01*
X0275667Y0651179D02*
X0243872Y0651179D01*
X0243875Y0651571D02*
X0275684Y0651571D01*
X0275701Y0651963D02*
X0243878Y0651963D01*
X0243882Y0652356D02*
X0275718Y0652356D01*
X0275735Y0652748D02*
X0243885Y0652748D01*
X0243888Y0653140D02*
X0275752Y0653140D01*
X0275769Y0653532D02*
X0243891Y0653532D01*
X0243894Y0653925D02*
X0275786Y0653925D01*
X0275803Y0654317D02*
X0243898Y0654317D01*
X0243901Y0654709D02*
X0275820Y0654709D01*
X0275837Y0655101D02*
X0243904Y0655101D01*
X0243907Y0655493D02*
X0275853Y0655493D01*
X0275870Y0655886D02*
X0243910Y0655886D01*
X0243913Y0656278D02*
X0275887Y0656278D01*
X0275904Y0656670D02*
X0243917Y0656670D01*
X0243930Y0657062D02*
X0275921Y0657062D01*
X0275938Y0657454D02*
X0243943Y0657454D01*
X0243956Y0657847D02*
X0275955Y0657847D01*
X0275972Y0658239D02*
X0243969Y0658239D01*
X0243982Y0658631D02*
X0275989Y0658631D01*
X0276006Y0659023D02*
X0243995Y0659023D01*
X0244008Y0659416D02*
X0276022Y0659416D01*
X0276039Y0659808D02*
X0244021Y0659808D01*
X0244034Y0660200D02*
X0276056Y0660200D01*
X0276073Y0660592D02*
X0244047Y0660592D01*
X0244060Y0660984D02*
X0276090Y0660984D01*
X0276107Y0661377D02*
X0244073Y0661377D01*
X0244086Y0661769D02*
X0276124Y0661769D01*
X0276141Y0662161D02*
X0244099Y0662161D01*
X0244112Y0662553D02*
X0276158Y0662553D01*
X0276175Y0662945D02*
X0244125Y0662945D01*
X0244138Y0663338D02*
X0276192Y0663338D01*
X0276208Y0663730D02*
X0244151Y0663730D01*
X0244164Y0664122D02*
X0276225Y0664122D01*
X0276242Y0664514D02*
X0244177Y0664514D01*
X0244190Y0664906D02*
X0276259Y0664906D01*
X0276276Y0665299D02*
X0244203Y0665299D01*
X0244216Y0665691D02*
X0276293Y0665691D01*
X0276310Y0666083D02*
X0244229Y0666083D01*
X0244242Y0666475D02*
X0276327Y0666475D01*
X0276344Y0666868D02*
X0244254Y0666868D01*
X0244267Y0667260D02*
X0276361Y0667260D01*
X0276377Y0667652D02*
X0244280Y0667652D01*
X0244293Y0668044D02*
X0276394Y0668044D01*
X0276411Y0668436D02*
X0244306Y0668436D01*
X0244319Y0668829D02*
X0276428Y0668829D01*
X0276445Y0669221D02*
X0244332Y0669221D01*
X0244345Y0669613D02*
X0276462Y0669613D01*
X0276479Y0670005D02*
X0244358Y0670005D01*
X0244371Y0670397D02*
X0276496Y0670397D01*
X0276513Y0670790D02*
X0244384Y0670790D01*
X0244397Y0671182D02*
X0276530Y0671182D01*
X0276547Y0671574D02*
X0244410Y0671574D01*
X0244423Y0671966D02*
X0276563Y0671966D01*
X0276580Y0672359D02*
X0244436Y0672359D01*
X0244449Y0672751D02*
X0276597Y0672751D01*
X0276614Y0673143D02*
X0244462Y0673143D01*
X0244475Y0673535D02*
X0276631Y0673535D01*
X0276648Y0673927D02*
X0244488Y0673927D01*
X0244501Y0674320D02*
X0276665Y0674320D01*
X0276682Y0674712D02*
X0244514Y0674712D01*
X0244527Y0675104D02*
X0276699Y0675104D01*
X0276716Y0675496D02*
X0244540Y0675496D01*
X0244553Y0675888D02*
X0276733Y0675888D01*
X0276749Y0676281D02*
X0244566Y0676281D01*
X0244579Y0676673D02*
X0276766Y0676673D01*
X0276783Y0677065D02*
X0244592Y0677065D01*
X0244605Y0677457D02*
X0276800Y0677457D01*
X0276817Y0677849D02*
X0244618Y0677849D01*
X0244640Y0678242D02*
X0276834Y0678242D01*
X0276851Y0678634D02*
X0244673Y0678634D01*
X0244705Y0679026D02*
X0276868Y0679026D01*
X0276885Y0679418D02*
X0244738Y0679418D01*
X0244771Y0679811D02*
X0276902Y0679811D01*
X0276918Y0680203D02*
X0244803Y0680203D01*
X0244836Y0680595D02*
X0276935Y0680595D01*
X0276952Y0680987D02*
X0244868Y0680987D01*
X0244901Y0681379D02*
X0276969Y0681379D01*
X0276986Y0681772D02*
X0244934Y0681772D01*
X0244966Y0682164D02*
X0277003Y0682164D01*
X0277020Y0682556D02*
X0244999Y0682556D01*
X0245031Y0682948D02*
X0277037Y0682948D01*
X0277054Y0683340D02*
X0245064Y0683340D01*
X0245096Y0683733D02*
X0277071Y0683733D01*
X0277088Y0684125D02*
X0245129Y0684125D01*
X0245162Y0684517D02*
X0277104Y0684517D01*
X0277121Y0684909D02*
X0245194Y0684909D01*
X0245227Y0685302D02*
X0277138Y0685302D01*
X0277155Y0685694D02*
X0245259Y0685694D01*
X0245292Y0686086D02*
X0277172Y0686086D01*
X0277198Y0686478D02*
X0245325Y0686478D01*
X0245357Y0686870D02*
X0277246Y0686870D01*
X0277294Y0687263D02*
X0245390Y0687263D01*
X0245422Y0687655D02*
X0277342Y0687655D01*
X0277390Y0688047D02*
X0245455Y0688047D01*
X0245487Y0688439D02*
X0277438Y0688439D01*
X0277486Y0688831D02*
X0245520Y0688831D01*
X0245553Y0689224D02*
X0277534Y0689224D01*
X0277582Y0689616D02*
X0245585Y0689616D01*
X0245618Y0690008D02*
X0277630Y0690008D01*
X0277678Y0690400D02*
X0245650Y0690400D01*
X0245683Y0690792D02*
X0277726Y0690792D01*
X0277774Y0691185D02*
X0245716Y0691185D01*
X0245748Y0691577D02*
X0277822Y0691577D01*
X0277870Y0691969D02*
X0245781Y0691969D01*
X0245813Y0692361D02*
X0277918Y0692361D01*
X0277966Y0692754D02*
X0245846Y0692754D01*
X0245878Y0693146D02*
X0278014Y0693146D01*
X0278062Y0693538D02*
X0245911Y0693538D01*
X0245944Y0693930D02*
X0278110Y0693930D01*
X0278158Y0694322D02*
X0245976Y0694322D01*
X0246009Y0694715D02*
X0278206Y0694715D01*
X0278254Y0695107D02*
X0246041Y0695107D01*
X0246074Y0695499D02*
X0278302Y0695499D01*
X0278350Y0695891D02*
X0246107Y0695891D01*
X0246139Y0696283D02*
X0278398Y0696283D01*
X0278446Y0696676D02*
X0246172Y0696676D01*
X0246204Y0697068D02*
X0278494Y0697068D01*
X0278542Y0697460D02*
X0246237Y0697460D01*
X0246269Y0697852D02*
X0278590Y0697852D01*
X0278638Y0698245D02*
X0246302Y0698245D01*
X0246335Y0698637D02*
X0278686Y0698637D01*
X0278734Y0699029D02*
X0246367Y0699029D01*
X0246401Y0699421D02*
X0278782Y0699421D01*
X0278830Y0699813D02*
X0246454Y0699813D01*
X0246506Y0700206D02*
X0278878Y0700206D01*
X0278926Y0700598D02*
X0246558Y0700598D01*
X0246611Y0700990D02*
X0278974Y0700990D01*
X0279022Y0701382D02*
X0246663Y0701382D01*
X0246716Y0701774D02*
X0279070Y0701774D01*
X0279118Y0702167D02*
X0246768Y0702167D01*
X0246820Y0702559D02*
X0279166Y0702559D01*
X0279214Y0702951D02*
X0246873Y0702951D01*
X0246925Y0703343D02*
X0279262Y0703343D01*
X0279310Y0703735D02*
X0246977Y0703735D01*
X0247030Y0704128D02*
X0279358Y0704128D01*
X0279405Y0704520D02*
X0247082Y0704520D01*
X0247134Y0704912D02*
X0279453Y0704912D01*
X0279501Y0705304D02*
X0247187Y0705304D01*
X0247239Y0705697D02*
X0279549Y0705697D01*
X0279597Y0706089D02*
X0247292Y0706089D01*
X0247344Y0706481D02*
X0279645Y0706481D01*
X0279693Y0706873D02*
X0247396Y0706873D01*
X0247449Y0707265D02*
X0279741Y0707265D01*
X0279789Y0707658D02*
X0247501Y0707658D01*
X0247553Y0708050D02*
X0279837Y0708050D01*
X0279885Y0708442D02*
X0247606Y0708442D01*
X0247658Y0708834D02*
X0279933Y0708834D01*
X0279981Y0709226D02*
X0247710Y0709226D01*
X0247763Y0709619D02*
X0280029Y0709619D01*
X0280077Y0710011D02*
X0247815Y0710011D01*
X0247868Y0710403D02*
X0280125Y0710403D01*
X0280173Y0710795D02*
X0247920Y0710795D01*
X0247972Y0711188D02*
X0280221Y0711188D01*
X0280269Y0711580D02*
X0248025Y0711580D01*
X0248077Y0711972D02*
X0280317Y0711972D01*
X0280365Y0712364D02*
X0248129Y0712364D01*
X0248182Y0712756D02*
X0280413Y0712756D01*
X0280461Y0713149D02*
X0248234Y0713149D01*
X0248286Y0713541D02*
X0280509Y0713541D01*
X0280557Y0713933D02*
X0248339Y0713933D01*
X0248391Y0714325D02*
X0280605Y0714325D01*
X0280653Y0714717D02*
X0248444Y0714717D01*
X0248496Y0715110D02*
X0280701Y0715110D01*
X0280749Y0715502D02*
X0248548Y0715502D01*
X0248601Y0715894D02*
X0280797Y0715894D01*
X0280845Y0716286D02*
X0248653Y0716286D01*
X0248705Y0716678D02*
X0280893Y0716678D01*
X0280941Y0717071D02*
X0248758Y0717071D01*
X0248810Y0717463D02*
X0280989Y0717463D01*
X0281037Y0717855D02*
X0248862Y0717855D01*
X0248915Y0718247D02*
X0281085Y0718247D01*
X0281133Y0718640D02*
X0248967Y0718640D01*
X0249020Y0719032D02*
X0281181Y0719032D01*
X0281229Y0719424D02*
X0249072Y0719424D01*
X0249124Y0719816D02*
X0281277Y0719816D01*
X0281325Y0720208D02*
X0249177Y0720208D01*
X0249229Y0720601D02*
X0281373Y0720601D01*
X0281421Y0720993D02*
X0249324Y0720993D01*
X0249452Y0721385D02*
X0281469Y0721385D01*
X0281517Y0721777D02*
X0249624Y0721777D01*
X0249878Y0722169D02*
X0281565Y0722169D01*
X0281613Y0722562D02*
X0250204Y0722562D01*
X0250854Y0722954D02*
X0281661Y0722954D01*
X0281709Y0723346D02*
X0251871Y0723346D01*
X0252889Y0723738D02*
X0281757Y0723738D01*
X0281805Y0724131D02*
X0253906Y0724131D01*
X0254923Y0724523D02*
X0281853Y0724523D01*
X0281901Y0724915D02*
X0255940Y0724915D01*
X0256957Y0725307D02*
X0281949Y0725307D01*
X0281997Y0725699D02*
X0257974Y0725699D01*
X0258991Y0726092D02*
X0282045Y0726092D01*
X0282093Y0726484D02*
X0260008Y0726484D01*
X0261025Y0726876D02*
X0282141Y0726876D01*
X0282189Y0727268D02*
X0262042Y0727268D01*
X0263059Y0727660D02*
X0282237Y0727660D01*
X0282285Y0728053D02*
X0264077Y0728053D01*
X0265094Y0728445D02*
X0282333Y0728445D01*
X0282381Y0728837D02*
X0266111Y0728837D01*
X0267128Y0729229D02*
X0282429Y0729229D01*
X0282477Y0729621D02*
X0268145Y0729621D01*
X0269162Y0730014D02*
X0282525Y0730014D01*
X0282573Y0730406D02*
X0270179Y0730406D01*
X0271196Y0730798D02*
X0282621Y0730798D01*
X0282669Y0731190D02*
X0272213Y0731190D01*
X0273230Y0731583D02*
X0282717Y0731583D01*
X0282765Y0731975D02*
X0274248Y0731975D01*
X0275265Y0732367D02*
X0282813Y0732367D01*
X0282861Y0732759D02*
X0276282Y0732759D01*
X0277299Y0733151D02*
X0282878Y0733151D01*
X0282782Y0733544D02*
X0278316Y0733544D01*
X0279333Y0733936D02*
X0282535Y0733936D01*
X0281922Y0734328D02*
X0280350Y0734328D01*
X0224543Y0734328D02*
X0218638Y0734328D01*
X0218638Y0733936D02*
X0224543Y0733936D01*
X0224543Y0733544D02*
X0218638Y0733544D01*
X0218638Y0733151D02*
X0224543Y0733151D01*
X0224543Y0732759D02*
X0218638Y0732759D01*
X0218638Y0732367D02*
X0224543Y0732367D01*
X0224543Y0731975D02*
X0218638Y0731975D01*
X0218638Y0731583D02*
X0224543Y0731583D01*
X0224543Y0731190D02*
X0218638Y0731190D01*
X0218638Y0730798D02*
X0224543Y0730798D01*
X0224543Y0730406D02*
X0218638Y0730406D01*
X0218638Y0730014D02*
X0224543Y0730014D01*
X0224543Y0729621D02*
X0218638Y0729621D01*
X0218638Y0729229D02*
X0224543Y0729229D01*
X0224543Y0728837D02*
X0218638Y0728837D01*
X0218638Y0728445D02*
X0224543Y0728445D01*
X0224543Y0728053D02*
X0218638Y0728053D01*
X0218638Y0727660D02*
X0224543Y0727660D01*
X0224543Y0727565D02*
X0224543Y0723628D01*
X0224543Y0719691D01*
X0218638Y0719691D01*
X0218638Y0741344D01*
X0202890Y0741344D01*
X0202890Y0747250D01*
X0202890Y0751187D01*
X0212732Y0751187D01*
X0216669Y0751187D01*
X0224543Y0751187D01*
X0224543Y0747250D01*
X0224543Y0735439D01*
X0224543Y0727565D01*
X0224543Y0727268D02*
X0218638Y0727268D01*
X0218638Y0726876D02*
X0224543Y0726876D01*
X0224543Y0726484D02*
X0218638Y0726484D01*
X0218638Y0726092D02*
X0224543Y0726092D01*
X0224543Y0725699D02*
X0218638Y0725699D01*
X0218638Y0725307D02*
X0224543Y0725307D01*
X0224543Y0724915D02*
X0218638Y0724915D01*
X0218638Y0724523D02*
X0224543Y0724523D01*
X0224543Y0724131D02*
X0218638Y0724131D01*
X0218638Y0723738D02*
X0224543Y0723738D01*
X0224543Y0723346D02*
X0218638Y0723346D01*
X0218638Y0722954D02*
X0224543Y0722954D01*
X0224543Y0722562D02*
X0218638Y0722562D01*
X0218638Y0722169D02*
X0224543Y0722169D01*
X0224543Y0721777D02*
X0218638Y0721777D01*
X0218638Y0721385D02*
X0224543Y0721385D01*
X0224543Y0720993D02*
X0218638Y0720993D01*
X0218638Y0720601D02*
X0224543Y0720601D01*
X0224543Y0720208D02*
X0218638Y0720208D01*
X0218638Y0719816D02*
X0224543Y0719816D01*
X0212298Y0719816D02*
X0202456Y0719816D01*
X0202450Y0719424D02*
X0212292Y0719424D01*
X0212287Y0719032D02*
X0202445Y0719032D01*
X0202439Y0718640D02*
X0212281Y0718640D01*
X0212275Y0718247D02*
X0202433Y0718247D01*
X0202428Y0717855D02*
X0212270Y0717855D01*
X0212264Y0717463D02*
X0202422Y0717463D01*
X0202416Y0717071D02*
X0212258Y0717071D01*
X0212252Y0716678D02*
X0202410Y0716678D01*
X0202405Y0716286D02*
X0212247Y0716286D01*
X0212241Y0715894D02*
X0209335Y0715894D01*
X0212239Y0715799D02*
X0202402Y0716120D01*
X0202658Y0733602D01*
X0212495Y0733281D01*
X0212239Y0715799D01*
X0212304Y0720208D02*
X0202462Y0720208D01*
X0202468Y0720601D02*
X0212310Y0720601D01*
X0212315Y0720993D02*
X0202473Y0720993D01*
X0202479Y0721385D02*
X0212321Y0721385D01*
X0212327Y0721777D02*
X0202485Y0721777D01*
X0202491Y0722169D02*
X0212333Y0722169D01*
X0212338Y0722562D02*
X0202496Y0722562D01*
X0202502Y0722954D02*
X0212344Y0722954D01*
X0212350Y0723346D02*
X0202508Y0723346D01*
X0202514Y0723738D02*
X0212356Y0723738D01*
X0212361Y0724131D02*
X0202519Y0724131D01*
X0202525Y0724523D02*
X0212367Y0724523D01*
X0212373Y0724915D02*
X0202531Y0724915D01*
X0202537Y0725307D02*
X0212378Y0725307D01*
X0212384Y0725699D02*
X0202542Y0725699D01*
X0202548Y0726092D02*
X0212390Y0726092D01*
X0212396Y0726484D02*
X0202554Y0726484D01*
X0202559Y0726876D02*
X0212401Y0726876D01*
X0212407Y0727268D02*
X0202565Y0727268D01*
X0202571Y0727660D02*
X0212413Y0727660D01*
X0212419Y0728053D02*
X0202577Y0728053D01*
X0202582Y0728445D02*
X0212424Y0728445D01*
X0212430Y0728837D02*
X0202588Y0728837D01*
X0202594Y0729229D02*
X0212436Y0729229D01*
X0212442Y0729621D02*
X0202600Y0729621D01*
X0202605Y0730014D02*
X0212447Y0730014D01*
X0212453Y0730406D02*
X0202611Y0730406D01*
X0202617Y0730798D02*
X0212459Y0730798D01*
X0212465Y0731190D02*
X0202623Y0731190D01*
X0202628Y0731583D02*
X0212470Y0731583D01*
X0212476Y0731975D02*
X0202634Y0731975D01*
X0202640Y0732367D02*
X0212482Y0732367D01*
X0212487Y0732759D02*
X0202645Y0732759D01*
X0202651Y0733151D02*
X0212493Y0733151D01*
X0218638Y0734720D02*
X0224543Y0734720D01*
X0224543Y0735112D02*
X0218638Y0735112D01*
X0218638Y0735505D02*
X0224543Y0735505D01*
X0224543Y0735897D02*
X0218638Y0735897D01*
X0218638Y0736289D02*
X0224543Y0736289D01*
X0224543Y0736681D02*
X0218638Y0736681D01*
X0218638Y0737074D02*
X0224543Y0737074D01*
X0224543Y0737466D02*
X0218638Y0737466D01*
X0218638Y0737858D02*
X0224543Y0737858D01*
X0224543Y0738250D02*
X0218638Y0738250D01*
X0218638Y0738642D02*
X0224543Y0738642D01*
X0224543Y0739035D02*
X0218638Y0739035D01*
X0218638Y0739427D02*
X0224543Y0739427D01*
X0224543Y0739819D02*
X0218638Y0739819D01*
X0218638Y0740211D02*
X0224543Y0740211D01*
X0224543Y0740603D02*
X0218638Y0740603D01*
X0218638Y0740996D02*
X0224543Y0740996D01*
X0224543Y0741388D02*
X0202890Y0741388D01*
X0202890Y0741780D02*
X0224543Y0741780D01*
X0224543Y0742172D02*
X0202890Y0742172D01*
X0202890Y0742564D02*
X0224543Y0742564D01*
X0224543Y0742957D02*
X0202890Y0742957D01*
X0202890Y0743349D02*
X0224543Y0743349D01*
X0224543Y0743741D02*
X0202890Y0743741D01*
X0202890Y0744133D02*
X0224543Y0744133D01*
X0224543Y0744526D02*
X0202890Y0744526D01*
X0202890Y0744918D02*
X0224543Y0744918D01*
X0224543Y0745310D02*
X0202890Y0745310D01*
X0202890Y0745702D02*
X0224543Y0745702D01*
X0224543Y0746094D02*
X0202890Y0746094D01*
X0202890Y0746487D02*
X0224543Y0746487D01*
X0224543Y0746879D02*
X0202890Y0746879D01*
X0202890Y0747271D02*
X0224543Y0747271D01*
X0224543Y0747663D02*
X0202890Y0747663D01*
X0202890Y0748055D02*
X0224543Y0748055D01*
X0224543Y0748448D02*
X0202890Y0748448D01*
X0202890Y0748840D02*
X0224543Y0748840D01*
X0224543Y0749232D02*
X0202890Y0749232D01*
X0202890Y0749624D02*
X0224543Y0749624D01*
X0224543Y0750017D02*
X0202890Y0750017D01*
X0202890Y0750409D02*
X0224543Y0750409D01*
X0224543Y0750801D02*
X0202890Y0750801D01*
X0206854Y0761169D02*
X0207175Y0771007D01*
X0224334Y0770525D01*
X0224335Y0760914D01*
X0206854Y0761169D01*
X0206861Y0761391D02*
X0224335Y0761391D01*
X0224335Y0761783D02*
X0206874Y0761783D01*
X0206886Y0762175D02*
X0224335Y0762175D01*
X0224335Y0762567D02*
X0206899Y0762567D01*
X0206912Y0762960D02*
X0224335Y0762960D01*
X0224335Y0763352D02*
X0206925Y0763352D01*
X0206938Y0763744D02*
X0224334Y0763744D01*
X0224334Y0764136D02*
X0206950Y0764136D01*
X0206963Y0764528D02*
X0224334Y0764528D01*
X0224334Y0764921D02*
X0206976Y0764921D01*
X0206989Y0765313D02*
X0224334Y0765313D01*
X0224334Y0765705D02*
X0207002Y0765705D01*
X0207014Y0766097D02*
X0224334Y0766097D01*
X0224334Y0766489D02*
X0207027Y0766489D01*
X0207040Y0766882D02*
X0224334Y0766882D01*
X0224334Y0767274D02*
X0207053Y0767274D01*
X0207066Y0767666D02*
X0224334Y0767666D01*
X0224334Y0768058D02*
X0207078Y0768058D01*
X0207091Y0768450D02*
X0224334Y0768450D01*
X0224334Y0768843D02*
X0207104Y0768843D01*
X0207117Y0769235D02*
X0224334Y0769235D01*
X0224334Y0769627D02*
X0207130Y0769627D01*
X0207142Y0770019D02*
X0224334Y0770019D01*
X0224334Y0770412D02*
X0207155Y0770412D01*
X0207168Y0770804D02*
X0214402Y0770804D01*
X0218535Y0760998D02*
X0224335Y0760998D01*
X0224196Y0780404D02*
X0206715Y0780660D01*
X0207036Y0790497D01*
X0224518Y0790241D01*
X0224196Y0780404D01*
X0224203Y0780609D02*
X0210179Y0780609D01*
X0206726Y0781001D02*
X0224216Y0781001D01*
X0224229Y0781393D02*
X0206739Y0781393D01*
X0206752Y0781786D02*
X0224242Y0781786D01*
X0224254Y0782178D02*
X0206765Y0782178D01*
X0206777Y0782570D02*
X0224267Y0782570D01*
X0224280Y0782962D02*
X0206790Y0782962D01*
X0206803Y0783355D02*
X0224293Y0783355D01*
X0224306Y0783747D02*
X0206816Y0783747D01*
X0206829Y0784139D02*
X0224318Y0784139D01*
X0224331Y0784531D02*
X0206842Y0784531D01*
X0206854Y0784923D02*
X0224344Y0784923D01*
X0224357Y0785316D02*
X0206867Y0785316D01*
X0206880Y0785708D02*
X0224370Y0785708D01*
X0224382Y0786100D02*
X0206893Y0786100D01*
X0206906Y0786492D02*
X0224395Y0786492D01*
X0224408Y0786884D02*
X0206918Y0786884D01*
X0206931Y0787277D02*
X0224421Y0787277D01*
X0224434Y0787669D02*
X0206944Y0787669D01*
X0206957Y0788061D02*
X0224446Y0788061D01*
X0224459Y0788453D02*
X0206970Y0788453D01*
X0206982Y0788846D02*
X0224472Y0788846D01*
X0224485Y0789238D02*
X0206995Y0789238D01*
X0207008Y0789630D02*
X0224498Y0789630D01*
X0224510Y0790022D02*
X0207021Y0790022D01*
X0207034Y0790414D02*
X0212687Y0790414D01*
X0189132Y0773941D02*
X0169512Y0773941D01*
X0175871Y0742172D02*
X0188217Y0742172D01*
X0202657Y0733544D02*
X0204436Y0733544D01*
X0055609Y0770412D02*
X0046327Y0770412D01*
X0048288Y0770019D02*
X0054909Y0770019D01*
X0054210Y0769627D02*
X0050249Y0769627D01*
X0052210Y0769235D02*
X0053510Y0769235D01*
X0127044Y0902195D02*
X0130820Y0902195D01*
X0132524Y0902587D02*
X0125789Y0902587D01*
X0124534Y0902979D02*
X0134228Y0902979D01*
X0135932Y0903371D02*
X0123279Y0903371D01*
X0122024Y0903764D02*
X0137636Y0903764D01*
X0139340Y0904156D02*
X0120769Y0904156D01*
X0119514Y0904548D02*
X0141044Y0904548D01*
X0142749Y0904940D02*
X0118259Y0904940D01*
X0117004Y0905333D02*
X0144453Y0905333D01*
X0146157Y0905725D02*
X0115749Y0905725D01*
X0114493Y0906117D02*
X0147861Y0906117D01*
X0149565Y0906509D02*
X0113238Y0906509D01*
X0112618Y0906901D02*
X0151269Y0906901D01*
X0152973Y0907294D02*
X0112321Y0907294D01*
X0128299Y0901803D02*
X0129116Y0901803D01*
M02*
