G75*
%MOIN*%
%OFA0B0*%
%FSLAX25Y25*%
%IPPOS*%
%LPD*%
%AMOC8*
5,1,8,0,0,1.08239X$1,22.5*
%
%ADD10C,0.03937*%
D10*
X0117761Y0117272D02*
X0249061Y0108413D01*
X0279376Y0106248D01*
X0351029Y0101917D01*
X0351437Y0101898D01*
X0351844Y0101888D01*
X0352252Y0101888D01*
X0352660Y0101899D01*
X0353067Y0101919D01*
X0353473Y0101950D01*
X0353879Y0101990D01*
X0354284Y0102040D01*
X0354687Y0102100D01*
X0355089Y0102171D01*
X0355488Y0102250D01*
X0355886Y0102340D01*
X0356282Y0102440D01*
X0356674Y0102549D01*
X0357065Y0102667D01*
X0357452Y0102796D01*
X0357835Y0102933D01*
X0358216Y0103080D01*
X0358592Y0103237D01*
X0358965Y0103402D01*
X0359333Y0103577D01*
X0359697Y0103760D01*
X0360057Y0103953D01*
X0360411Y0104154D01*
X0360761Y0104364D01*
X0361105Y0104582D01*
X0361444Y0104809D01*
X0361777Y0105044D01*
X0362104Y0105287D01*
X0362426Y0105539D01*
X0362741Y0105797D01*
X0363049Y0106064D01*
X0363351Y0106338D01*
X0363646Y0106619D01*
X0363934Y0106908D01*
X0364215Y0107203D01*
X0364489Y0107506D01*
X0364755Y0107815D01*
X0365013Y0108130D01*
X0365264Y0108451D01*
X0365507Y0108779D01*
X0365741Y0109113D01*
X0365967Y0109452D01*
X0366185Y0109796D01*
X0366395Y0110146D01*
X0366596Y0110501D01*
X0366787Y0110861D01*
X0366971Y0111225D01*
X0367145Y0111594D01*
X0367310Y0111967D01*
X0367466Y0112343D01*
X0367612Y0112724D01*
X0367749Y0113108D01*
X0367877Y0113495D01*
X0367995Y0113885D01*
X0368104Y0114278D01*
X0368202Y0114674D01*
X0368291Y0115072D01*
X0368371Y0115472D01*
X0368440Y0115873D01*
X0368500Y0116277D01*
X0368550Y0116681D01*
X0368549Y0116681D02*
X0373273Y0141681D01*
X0378391Y0184398D01*
X0382328Y0215303D01*
X0397880Y0346012D01*
X0401620Y0377508D01*
X0416974Y0505264D01*
X0420714Y0535382D01*
X0425242Y0669240D01*
X0427604Y0715106D01*
X0427603Y0715106D02*
X0427601Y0715220D01*
X0427595Y0715334D01*
X0427585Y0715448D01*
X0427572Y0715562D01*
X0427554Y0715675D01*
X0427533Y0715787D01*
X0427508Y0715898D01*
X0427479Y0716009D01*
X0427446Y0716118D01*
X0427410Y0716227D01*
X0427370Y0716333D01*
X0427326Y0716439D01*
X0427279Y0716543D01*
X0427228Y0716645D01*
X0427174Y0716746D01*
X0427116Y0716845D01*
X0427055Y0716941D01*
X0426991Y0717036D01*
X0426923Y0717128D01*
X0426853Y0717218D01*
X0426779Y0717305D01*
X0426702Y0717390D01*
X0426623Y0717472D01*
X0426541Y0717551D01*
X0426456Y0717628D01*
X0426369Y0717702D01*
X0426279Y0717772D01*
X0426187Y0717840D01*
X0426092Y0717904D01*
X0425996Y0717965D01*
X0425897Y0718023D01*
X0425796Y0718077D01*
X0425694Y0718128D01*
X0425590Y0718175D01*
X0425484Y0718219D01*
X0425378Y0718259D01*
X0425269Y0718295D01*
X0425160Y0718328D01*
X0425049Y0718357D01*
X0424938Y0718382D01*
X0424826Y0718403D01*
X0424713Y0718421D01*
X0424599Y0718434D01*
X0424485Y0718444D01*
X0424371Y0718450D01*
X0424257Y0718452D01*
X0424257Y0718453D02*
X0421698Y0718453D01*
X0393746Y0720224D01*
X0392171Y0720224D01*
X0392171Y0720225D02*
X0392044Y0720223D01*
X0391917Y0720217D01*
X0391790Y0720207D01*
X0391663Y0720194D01*
X0391537Y0720176D01*
X0391411Y0720155D01*
X0391287Y0720129D01*
X0391163Y0720100D01*
X0391040Y0720067D01*
X0390918Y0720030D01*
X0390797Y0719990D01*
X0390678Y0719946D01*
X0390560Y0719898D01*
X0390443Y0719847D01*
X0390328Y0719792D01*
X0390215Y0719733D01*
X0390104Y0719671D01*
X0389995Y0719606D01*
X0389888Y0719537D01*
X0389782Y0719465D01*
X0389680Y0719390D01*
X0389579Y0719312D01*
X0389481Y0719230D01*
X0389386Y0719146D01*
X0389293Y0719059D01*
X0389203Y0718969D01*
X0389116Y0718876D01*
X0389032Y0718781D01*
X0388950Y0718683D01*
X0388872Y0718582D01*
X0388797Y0718480D01*
X0388725Y0718374D01*
X0388656Y0718267D01*
X0388591Y0718158D01*
X0388529Y0718047D01*
X0388470Y0717934D01*
X0388415Y0717819D01*
X0388364Y0717702D01*
X0388316Y0717584D01*
X0388272Y0717465D01*
X0388232Y0717344D01*
X0388195Y0717222D01*
X0388162Y0717099D01*
X0388133Y0716975D01*
X0388107Y0716851D01*
X0388086Y0716725D01*
X0388068Y0716599D01*
X0388055Y0716472D01*
X0388045Y0716345D01*
X0388039Y0716218D01*
X0388037Y0716091D01*
X0384887Y0668453D01*
X0380754Y0538138D01*
X0377013Y0506642D01*
X0361265Y0381248D01*
X0357132Y0349555D01*
X0341580Y0219240D01*
X0338037Y0187547D01*
X0333509Y0146406D01*
X0333507Y0146290D01*
X0333501Y0146174D01*
X0333492Y0146059D01*
X0333479Y0145944D01*
X0333462Y0145829D01*
X0333441Y0145715D01*
X0333416Y0145601D01*
X0333388Y0145489D01*
X0333356Y0145378D01*
X0333321Y0145267D01*
X0333282Y0145158D01*
X0333239Y0145050D01*
X0333193Y0144944D01*
X0333144Y0144839D01*
X0333091Y0144736D01*
X0333034Y0144635D01*
X0332975Y0144535D01*
X0332912Y0144438D01*
X0332846Y0144342D01*
X0332777Y0144249D01*
X0332705Y0144158D01*
X0332630Y0144070D01*
X0332552Y0143984D01*
X0332471Y0143901D01*
X0332388Y0143820D01*
X0332302Y0143742D01*
X0332214Y0143667D01*
X0332123Y0143595D01*
X0332030Y0143526D01*
X0331934Y0143460D01*
X0331837Y0143397D01*
X0331738Y0143338D01*
X0331636Y0143281D01*
X0331533Y0143228D01*
X0331428Y0143179D01*
X0331322Y0143133D01*
X0331214Y0143090D01*
X0331105Y0143051D01*
X0330994Y0143016D01*
X0330883Y0142984D01*
X0330771Y0142956D01*
X0330657Y0142931D01*
X0330543Y0142910D01*
X0330428Y0142893D01*
X0330313Y0142880D01*
X0330198Y0142871D01*
X0330082Y0142865D01*
X0329966Y0142863D01*
X0329966Y0142862D02*
X0326817Y0142862D01*
X0050242Y0161563D01*
X0049848Y0161563D01*
X0049701Y0161565D01*
X0049555Y0161571D01*
X0049408Y0161581D01*
X0049262Y0161594D01*
X0049116Y0161612D01*
X0048971Y0161633D01*
X0048827Y0161658D01*
X0048683Y0161688D01*
X0048540Y0161720D01*
X0048398Y0161757D01*
X0048257Y0161798D01*
X0048117Y0161842D01*
X0047978Y0161890D01*
X0047841Y0161941D01*
X0047705Y0161997D01*
X0047570Y0162056D01*
X0047438Y0162118D01*
X0047306Y0162184D01*
X0047177Y0162253D01*
X0047050Y0162326D01*
X0046924Y0162402D01*
X0046801Y0162482D01*
X0046680Y0162565D01*
X0046561Y0162650D01*
X0046444Y0162740D01*
X0046330Y0162832D01*
X0046218Y0162927D01*
X0046109Y0163025D01*
X0046003Y0163126D01*
X0045899Y0163230D01*
X0045798Y0163336D01*
X0045700Y0163445D01*
X0045605Y0163557D01*
X0045513Y0163671D01*
X0045423Y0163788D01*
X0045338Y0163907D01*
X0045255Y0164028D01*
X0045175Y0164151D01*
X0045099Y0164277D01*
X0045026Y0164404D01*
X0044957Y0164533D01*
X0044891Y0164665D01*
X0044829Y0164797D01*
X0044770Y0164932D01*
X0044714Y0165068D01*
X0044663Y0165205D01*
X0044615Y0165344D01*
X0044571Y0165484D01*
X0044530Y0165625D01*
X0044493Y0165767D01*
X0044461Y0165910D01*
X0044431Y0166054D01*
X0044406Y0166198D01*
X0044385Y0166343D01*
X0044367Y0166489D01*
X0044354Y0166635D01*
X0044344Y0166782D01*
X0044338Y0166928D01*
X0044336Y0167075D01*
X0047289Y0214516D01*
X0049454Y0247390D01*
X0057525Y0376524D01*
X0059887Y0409004D01*
X0069336Y0537350D01*
X0072092Y0569634D01*
X0083116Y0690697D01*
X0084691Y0699161D01*
X0090399Y0733217D01*
X0092761Y0749752D01*
X0058312Y0781248D02*
X0058902Y0784482D01*
X0059568Y0787701D01*
X0060309Y0790904D01*
X0061124Y0794088D01*
X0062014Y0797253D01*
X0062978Y0800396D01*
X0064015Y0803516D01*
X0065125Y0806610D01*
X0066306Y0809678D01*
X0067560Y0812717D01*
X0068884Y0815726D01*
X0070278Y0818703D01*
X0071741Y0821646D01*
X0073273Y0824555D01*
X0078391Y0834004D01*
X0083509Y0841091D01*
X0110281Y0874161D01*
X0147880Y0913531D01*
X0179179Y0940303D01*
X0179178Y0940303D02*
X0179261Y0940406D01*
X0179340Y0940511D01*
X0179417Y0940619D01*
X0179490Y0940728D01*
X0179560Y0940840D01*
X0179627Y0940953D01*
X0179690Y0941069D01*
X0179750Y0941186D01*
X0179807Y0941305D01*
X0179860Y0941426D01*
X0179909Y0941548D01*
X0179955Y0941672D01*
X0179998Y0941796D01*
X0180037Y0941922D01*
X0180072Y0942049D01*
X0180103Y0942177D01*
X0180130Y0942306D01*
X0180154Y0942436D01*
X0180174Y0942566D01*
X0180190Y0942697D01*
X0180203Y0942828D01*
X0180211Y0942960D01*
X0180216Y0943092D01*
X0180217Y0943223D01*
X0180214Y0943355D01*
X0180207Y0943487D01*
X0180196Y0943618D01*
X0180182Y0943749D01*
X0180164Y0943880D01*
X0180142Y0944010D01*
X0180116Y0944139D01*
X0180086Y0944267D01*
X0180053Y0944395D01*
X0180016Y0944521D01*
X0179975Y0944647D01*
X0179931Y0944771D01*
X0179883Y0944893D01*
X0179831Y0945015D01*
X0179776Y0945134D01*
X0179718Y0945253D01*
X0179656Y0945369D01*
X0179590Y0945483D01*
X0179522Y0945596D01*
X0179450Y0945706D01*
X0179375Y0945815D01*
X0179376Y0945815D02*
X0163628Y0967862D01*
X0163543Y0967962D01*
X0163461Y0968065D01*
X0163382Y0968171D01*
X0163306Y0968279D01*
X0163234Y0968389D01*
X0163164Y0968501D01*
X0163098Y0968615D01*
X0163036Y0968731D01*
X0162977Y0968849D01*
X0162922Y0968968D01*
X0162870Y0969089D01*
X0162822Y0969212D01*
X0162778Y0969336D01*
X0162737Y0969461D01*
X0162700Y0969588D01*
X0162667Y0969715D01*
X0162638Y0969844D01*
X0162612Y0969973D01*
X0162591Y0970103D01*
X0162573Y0970234D01*
X0162559Y0970365D01*
X0162550Y0970496D01*
X0162544Y0970628D01*
X0162542Y0970759D01*
X0162544Y0970891D01*
X0162550Y0971023D01*
X0162560Y0971154D01*
X0162574Y0971285D01*
X0162592Y0971416D01*
X0162613Y0971546D01*
X0162639Y0971675D01*
X0162669Y0971803D01*
X0162702Y0971931D01*
X0162739Y0972057D01*
X0162780Y0972183D01*
X0162824Y0972306D01*
X0162873Y0972429D01*
X0162925Y0972550D01*
X0162980Y0972670D01*
X0163039Y0972787D01*
X0163102Y0972903D01*
X0163168Y0973017D01*
X0163237Y0973129D01*
X0163310Y0973239D01*
X0163386Y0973347D01*
X0163465Y0973452D01*
X0163548Y0973555D01*
X0163633Y0973655D01*
X0163721Y0973753D01*
X0163812Y0973848D01*
X0163906Y0973940D01*
X0164003Y0974030D01*
X0164103Y0974116D01*
X0164205Y0974200D01*
X0164309Y0974280D01*
X0164416Y0974357D01*
X0164415Y0974358D02*
X0227604Y1018650D01*
X0227801Y1018650D02*
X0225635Y1017272D01*
X0227801Y1018650D02*
X0227962Y1018665D01*
X0228125Y1018677D01*
X0228287Y1018684D01*
X0228449Y1018688D01*
X0228612Y1018687D01*
X0228774Y1018683D01*
X0228937Y1018675D01*
X0229099Y1018662D01*
X0229260Y1018646D01*
X0229422Y1018626D01*
X0229582Y1018602D01*
X0229742Y1018574D01*
X0229902Y1018543D01*
X0230060Y1018507D01*
X0230218Y1018468D01*
X0230375Y1018424D01*
X0230530Y1018378D01*
X0230685Y1018327D01*
X0230838Y1018272D01*
X0230990Y1018214D01*
X0231140Y1018152D01*
X0231289Y1018087D01*
X0231436Y1018018D01*
X0231581Y1017946D01*
X0231725Y1017870D01*
X0231867Y1017790D01*
X0232006Y1017707D01*
X0232144Y1017621D01*
X0232280Y1017531D01*
X0232413Y1017439D01*
X0232544Y1017343D01*
X0232673Y1017244D01*
X0232799Y1017141D01*
X0232923Y1017036D01*
X0233045Y1016928D01*
X0233163Y1016817D01*
X0233279Y1016703D01*
X0233392Y1016586D01*
X0233502Y1016467D01*
X0233610Y1016345D01*
X0233714Y1016220D01*
X0233815Y1016093D01*
X0233913Y1015963D01*
X0234008Y1015831D01*
X0234100Y1015697D01*
X0245911Y0997980D01*
X0245910Y0997980D02*
X0245960Y0997874D01*
X0246012Y0997770D01*
X0246069Y0997668D01*
X0246128Y0997567D01*
X0246191Y0997469D01*
X0246257Y0997373D01*
X0246327Y0997279D01*
X0246399Y0997187D01*
X0246475Y0997098D01*
X0246553Y0997012D01*
X0246634Y0996928D01*
X0246718Y0996847D01*
X0246805Y0996768D01*
X0246894Y0996693D01*
X0246985Y0996621D01*
X0247079Y0996551D01*
X0247175Y0996485D01*
X0247274Y0996422D01*
X0247374Y0996362D01*
X0247476Y0996306D01*
X0247580Y0996253D01*
X0247686Y0996204D01*
X0247793Y0996158D01*
X0247902Y0996116D01*
X0248012Y0996077D01*
X0248124Y0996043D01*
X0248236Y0996011D01*
X0248350Y0995984D01*
X0248464Y0995960D01*
X0248579Y0995941D01*
X0248695Y0995925D01*
X0248811Y0995912D01*
X0248927Y0995904D01*
X0249044Y0995900D01*
X0249161Y0995899D01*
X0249277Y0995903D01*
X0249394Y0995910D01*
X0249510Y0995921D01*
X0249626Y0995936D01*
X0249741Y0995955D01*
X0249856Y0995977D01*
X0249969Y0996004D01*
X0250082Y0996034D01*
X0250194Y0996068D01*
X0250304Y0996105D01*
X0250413Y0996147D01*
X0250521Y0996191D01*
X0250627Y0996240D01*
X0250732Y0996292D01*
X0250835Y0996347D01*
X0250936Y0996406D01*
X0251035Y0996468D01*
X0251131Y0996533D01*
X0251226Y0996602D01*
X0263037Y1005461D01*
X0263036Y1005461D02*
X0263118Y1005555D01*
X0263203Y1005646D01*
X0263290Y1005734D01*
X0263380Y1005819D01*
X0263473Y1005902D01*
X0263568Y1005981D01*
X0263666Y1006058D01*
X0263766Y1006131D01*
X0263869Y1006201D01*
X0263973Y1006268D01*
X0264080Y1006332D01*
X0264189Y1006392D01*
X0264299Y1006449D01*
X0264411Y1006502D01*
X0264525Y1006552D01*
X0264640Y1006598D01*
X0264757Y1006640D01*
X0264875Y1006679D01*
X0264994Y1006713D01*
X0265115Y1006745D01*
X0265236Y1006772D01*
X0265358Y1006795D01*
X0265480Y1006815D01*
X0265603Y1006831D01*
X0265727Y1006843D01*
X0265851Y1006850D01*
X0265975Y1006854D01*
X0266099Y1006855D01*
X0266223Y1006851D01*
X0266347Y1006843D01*
X0266471Y1006831D01*
X0266594Y1006816D01*
X0266717Y1006796D01*
X0266839Y1006773D01*
X0266960Y1006746D01*
X0267080Y1006715D01*
X0267199Y1006680D01*
X0267317Y1006642D01*
X0267434Y1006600D01*
X0267550Y1006554D01*
X0267663Y1006504D01*
X0267776Y1006451D01*
X0267886Y1006395D01*
X0267995Y1006335D01*
X0268102Y1006271D01*
X0268206Y1006205D01*
X0268309Y1006135D01*
X0268409Y1006061D01*
X0268507Y1005985D01*
X0268603Y1005906D01*
X0268696Y1005823D01*
X0268786Y1005738D01*
X0268873Y1005650D01*
X0268958Y1005559D01*
X0269040Y1005466D01*
X0269119Y1005370D01*
X0269194Y1005271D01*
X0269267Y1005170D01*
X0269336Y1005067D01*
X0299061Y0959398D01*
X0299061Y0959397D02*
X0299401Y0959005D01*
X0299732Y0958604D01*
X0300053Y0958195D01*
X0300365Y0957779D01*
X0300665Y0957355D01*
X0300956Y0956924D01*
X0301236Y0956486D01*
X0301505Y0956041D01*
X0301763Y0955590D01*
X0302010Y0955133D01*
X0302246Y0954670D01*
X0302471Y0954201D01*
X0302684Y0953727D01*
X0302885Y0953247D01*
X0303075Y0952764D01*
X0303253Y0952275D01*
X0303419Y0951783D01*
X0303573Y0951286D01*
X0303715Y0950786D01*
X0303844Y0950283D01*
X0303962Y0949776D01*
X0304067Y0949267D01*
X0304159Y0948756D01*
X0304239Y0948242D01*
X0304307Y0947727D01*
X0304361Y0947210D01*
X0304404Y0946692D01*
X0304433Y0946173D01*
X0304450Y0945653D01*
X0304455Y0945133D01*
X0304447Y0944614D01*
X0304426Y0944094D01*
X0304392Y0943576D01*
X0304346Y0943058D01*
X0304287Y0942541D01*
X0304216Y0942026D01*
X0304132Y0941513D01*
X0304035Y0941003D01*
X0303927Y0940494D01*
X0303806Y0939989D01*
X0303672Y0939487D01*
X0303527Y0938988D01*
X0303369Y0938492D01*
X0303199Y0938001D01*
X0303018Y0937514D01*
X0302824Y0937031D01*
X0302619Y0936554D01*
X0302402Y0936081D01*
X0302174Y0935614D01*
X0301935Y0935153D01*
X0301684Y0934697D01*
X0301423Y0934248D01*
X0301150Y0933806D01*
X0300867Y0933370D01*
X0300573Y0932941D01*
X0300269Y0932519D01*
X0299955Y0932105D01*
X0299631Y0931699D01*
X0299297Y0931301D01*
X0298953Y0930911D01*
X0298600Y0930529D01*
X0298238Y0930156D01*
X0297867Y0929792D01*
X0297487Y0929438D01*
X0297098Y0929092D01*
X0296701Y0928756D01*
X0296297Y0928430D01*
X0295884Y0928114D01*
X0295464Y0927808D01*
X0295036Y0927513D01*
X0294602Y0927228D01*
X0294160Y0926953D01*
X0293712Y0926689D01*
X0293258Y0926437D01*
X0292798Y0926195D01*
X0292332Y0925965D01*
X0291860Y0925746D01*
X0291383Y0925539D01*
X0291383Y0925540D02*
X0291240Y0925478D01*
X0291098Y0925411D01*
X0290958Y0925342D01*
X0290819Y0925269D01*
X0290683Y0925192D01*
X0290548Y0925112D01*
X0290416Y0925028D01*
X0290286Y0924941D01*
X0290158Y0924851D01*
X0290032Y0924758D01*
X0289909Y0924661D01*
X0289789Y0924561D01*
X0289671Y0924459D01*
X0289555Y0924353D01*
X0289442Y0924244D01*
X0289333Y0924133D01*
X0289226Y0924019D01*
X0289121Y0923902D01*
X0289020Y0923782D01*
X0288922Y0923660D01*
X0288827Y0923536D01*
X0288736Y0923409D01*
X0288647Y0923280D01*
X0288562Y0923149D01*
X0288480Y0923015D01*
X0288402Y0922880D01*
X0288327Y0922742D01*
X0288256Y0922603D01*
X0288188Y0922462D01*
X0288124Y0922319D01*
X0288063Y0922175D01*
X0288006Y0922029D01*
X0287953Y0921882D01*
X0287904Y0921734D01*
X0287858Y0921584D01*
X0287817Y0921433D01*
X0287779Y0921281D01*
X0287745Y0921128D01*
X0287715Y0920975D01*
X0287688Y0920821D01*
X0287666Y0920666D01*
X0287648Y0920510D01*
X0287633Y0920354D01*
X0287623Y0920198D01*
X0287616Y0920042D01*
X0287614Y0919885D01*
X0287616Y0919729D01*
X0287621Y0919572D01*
X0287631Y0919416D01*
X0287644Y0919260D01*
X0287661Y0919105D01*
X0287683Y0918950D01*
X0287708Y0918795D01*
X0287737Y0918642D01*
X0287770Y0918489D01*
X0287807Y0918337D01*
X0287848Y0918185D01*
X0287893Y0918035D01*
X0287941Y0917887D01*
X0287994Y0917739D01*
X0288050Y0917593D01*
X0288109Y0917448D01*
X0288173Y0917305D01*
X0288240Y0917164D01*
X0288310Y0917024D01*
X0288384Y0916886D01*
X0288462Y0916750D01*
X0288543Y0916616D01*
X0288627Y0916484D01*
X0288628Y0916484D02*
X0352998Y0818650D01*
X0352997Y0818650D02*
X0353090Y0818553D01*
X0353180Y0818454D01*
X0353267Y0818352D01*
X0353350Y0818248D01*
X0353431Y0818141D01*
X0353509Y0818032D01*
X0353583Y0817921D01*
X0353654Y0817807D01*
X0353722Y0817692D01*
X0353786Y0817575D01*
X0353847Y0817455D01*
X0353905Y0817334D01*
X0353958Y0817212D01*
X0354009Y0817088D01*
X0354055Y0816962D01*
X0354098Y0816836D01*
X0354137Y0816708D01*
X0354173Y0816579D01*
X0354205Y0816449D01*
X0354233Y0816318D01*
X0354257Y0816186D01*
X0354277Y0816054D01*
X0354293Y0815921D01*
X0354306Y0815788D01*
X0354314Y0815654D01*
X0354319Y0815520D01*
X0354320Y0815386D01*
X0354317Y0815253D01*
X0354310Y0815119D01*
X0354299Y0814986D01*
X0354284Y0814853D01*
X0354265Y0814720D01*
X0354243Y0814588D01*
X0354217Y0814457D01*
X0354186Y0814326D01*
X0354152Y0814197D01*
X0354115Y0814069D01*
X0354073Y0813941D01*
X0354028Y0813815D01*
X0353979Y0813691D01*
X0353927Y0813567D01*
X0353871Y0813446D01*
X0353812Y0813326D01*
X0353749Y0813208D01*
X0353682Y0813092D01*
X0353613Y0812977D01*
X0353539Y0812865D01*
X0353463Y0812755D01*
X0353384Y0812648D01*
X0353301Y0812542D01*
X0353216Y0812439D01*
X0353127Y0812339D01*
X0353036Y0812241D01*
X0352941Y0812146D01*
X0352844Y0812054D01*
X0352745Y0811964D01*
X0352643Y0811878D01*
X0352538Y0811795D01*
X0352431Y0811714D01*
X0352322Y0811637D01*
X0352210Y0811563D01*
X0327998Y0796012D01*
X0327997Y0796012D02*
X0327861Y0795928D01*
X0327722Y0795848D01*
X0327581Y0795772D01*
X0327438Y0795698D01*
X0327294Y0795629D01*
X0327148Y0795562D01*
X0327001Y0795499D01*
X0326852Y0795440D01*
X0326701Y0795385D01*
X0326550Y0795333D01*
X0326397Y0795285D01*
X0326243Y0795240D01*
X0326088Y0795199D01*
X0325932Y0795162D01*
X0325775Y0795129D01*
X0325617Y0795100D01*
X0325459Y0795074D01*
X0325300Y0795052D01*
X0325141Y0795034D01*
X0324981Y0795020D01*
X0324821Y0795010D01*
X0324661Y0795004D01*
X0324501Y0795001D01*
X0324341Y0795002D01*
X0324181Y0795008D01*
X0324020Y0795017D01*
X0323861Y0795030D01*
X0323701Y0795047D01*
X0323542Y0795067D01*
X0323384Y0795092D01*
X0323226Y0795120D01*
X0323069Y0795152D01*
X0322913Y0795188D01*
X0322758Y0795228D01*
X0322603Y0795271D01*
X0322450Y0795319D01*
X0322298Y0795369D01*
X0322147Y0795424D01*
X0321998Y0795482D01*
X0321850Y0795544D01*
X0321704Y0795609D01*
X0321559Y0795678D01*
X0321416Y0795750D01*
X0321275Y0795826D01*
X0321135Y0795905D01*
X0320998Y0795988D01*
X0320862Y0796073D01*
X0320729Y0796162D01*
X0320598Y0796255D01*
X0320469Y0796350D01*
X0320343Y0796448D01*
X0320218Y0796550D01*
X0320097Y0796654D01*
X0319978Y0796762D01*
X0319861Y0796872D01*
X0319748Y0796985D01*
X0319637Y0797100D01*
X0319529Y0797219D01*
X0319423Y0797340D01*
X0319321Y0797463D01*
X0319222Y0797589D01*
X0319126Y0797717D01*
X0319032Y0797848D01*
X0318943Y0797980D01*
X0236069Y0923571D01*
X0235964Y0923716D01*
X0235855Y0923859D01*
X0235743Y0923999D01*
X0235628Y0924136D01*
X0235509Y0924270D01*
X0235387Y0924402D01*
X0235262Y0924530D01*
X0235134Y0924656D01*
X0235003Y0924778D01*
X0234869Y0924897D01*
X0234732Y0925013D01*
X0234593Y0925125D01*
X0234450Y0925234D01*
X0234306Y0925340D01*
X0234158Y0925442D01*
X0234008Y0925540D01*
X0233856Y0925635D01*
X0233702Y0925726D01*
X0233545Y0925814D01*
X0233386Y0925897D01*
X0233226Y0925977D01*
X0233063Y0926052D01*
X0232899Y0926124D01*
X0232733Y0926192D01*
X0232565Y0926256D01*
X0232396Y0926315D01*
X0232226Y0926371D01*
X0232054Y0926422D01*
X0231881Y0926469D01*
X0231707Y0926512D01*
X0231532Y0926551D01*
X0231356Y0926585D01*
X0231179Y0926616D01*
X0231002Y0926642D01*
X0230824Y0926663D01*
X0230645Y0926681D01*
X0230467Y0926694D01*
X0230288Y0926702D01*
X0230108Y0926706D01*
X0229929Y0926706D01*
X0229750Y0926702D01*
X0229571Y0926693D01*
X0229392Y0926680D01*
X0229214Y0926663D01*
X0229036Y0926641D01*
X0228858Y0926615D01*
X0228681Y0926585D01*
X0228506Y0926550D01*
X0228330Y0926512D01*
X0228156Y0926469D01*
X0227984Y0926421D01*
X0227812Y0926370D01*
X0227641Y0926314D01*
X0227472Y0926255D01*
X0227305Y0926191D01*
X0227139Y0926123D01*
X0226974Y0926051D01*
X0226812Y0925976D01*
X0226651Y0925896D01*
X0226493Y0925812D01*
X0226336Y0925725D01*
X0226182Y0925634D01*
X0226030Y0925539D01*
X0156541Y0865106D02*
X0135281Y0840303D01*
X0058313Y0781248D02*
X0044533Y0703295D01*
X0030557Y0570618D01*
X0028391Y0539713D01*
X0018549Y0409594D01*
X0016187Y0376917D01*
X0008706Y0247783D01*
X0006935Y0216484D01*
X0002998Y0143846D01*
X0002998Y0143847D02*
X0002978Y0143359D01*
X0002969Y0142871D01*
X0002973Y0142383D01*
X0002988Y0141896D01*
X0003016Y0141409D01*
X0003055Y0140922D01*
X0003106Y0140437D01*
X0003169Y0139953D01*
X0003244Y0139471D01*
X0003331Y0138991D01*
X0003430Y0138513D01*
X0003540Y0138038D01*
X0003662Y0137565D01*
X0003795Y0137096D01*
X0003940Y0136630D01*
X0004096Y0136168D01*
X0004264Y0135710D01*
X0004443Y0135256D01*
X0004633Y0134806D01*
X0004833Y0134362D01*
X0005045Y0133922D01*
X0005267Y0133488D01*
X0005500Y0133059D01*
X0005744Y0132636D01*
X0005997Y0132219D01*
X0006261Y0131809D01*
X0006535Y0131405D01*
X0006819Y0131008D01*
X0007112Y0130618D01*
X0007415Y0130236D01*
X0007727Y0129861D01*
X0008048Y0129493D01*
X0008378Y0129134D01*
X0008717Y0128783D01*
X0009064Y0128440D01*
X0009420Y0128106D01*
X0009783Y0127781D01*
X0010155Y0127464D01*
X0010534Y0127157D01*
X0010921Y0126860D01*
X0011314Y0126572D01*
X0011715Y0126293D01*
X0012123Y0126025D01*
X0012536Y0125767D01*
X0012957Y0125519D01*
X0013383Y0125281D01*
X0013814Y0125054D01*
X0014252Y0124837D01*
X0014694Y0124631D01*
X0015141Y0124436D01*
X0015593Y0124253D01*
X0016050Y0124080D01*
X0016510Y0123918D01*
X0016974Y0123768D01*
X0086462Y0119043D01*
X0117761Y0117272D01*
X0156541Y0865106D02*
X0161624Y0870891D01*
X0166846Y0876552D01*
X0172206Y0882083D01*
X0177698Y0887481D01*
X0183321Y0892745D01*
X0189070Y0897869D01*
X0194942Y0902852D01*
X0200934Y0907690D01*
X0207043Y0912380D01*
X0213264Y0916920D01*
X0219594Y0921307D01*
X0226029Y0925539D01*
X0135281Y0840303D02*
X0133490Y0838707D01*
X0131735Y0837070D01*
X0130020Y0835393D01*
X0128344Y0833676D01*
X0126708Y0831920D01*
X0125114Y0830127D01*
X0123562Y0828297D01*
X0122053Y0826432D01*
X0120587Y0824532D01*
X0119167Y0822599D01*
X0117791Y0820633D01*
X0116462Y0818635D01*
X0115180Y0816607D01*
X0113945Y0814550D01*
X0112758Y0812465D01*
X0111620Y0810352D01*
X0110532Y0808214D01*
X0109494Y0806051D01*
X0109493Y0806051D02*
X0107474Y0801573D01*
X0105565Y0797047D01*
X0103768Y0792476D01*
X0102083Y0787862D01*
X0100512Y0783208D01*
X0099055Y0778517D01*
X0097713Y0773792D01*
X0096488Y0769035D01*
X0095379Y0764250D01*
X0094388Y0759439D01*
X0093515Y0754605D01*
X0092761Y0749752D01*
M02*
