G75*
%MOIN*%
%OFA0B0*%
%FSLAX25Y25*%
%IPPOS*%
%LPD*%
%AMOC8*
5,1,8,0,0,1.08239X$1,22.5*
%
%ADD10C,0.03937*%
D10*
X1088236Y0573965D02*
X1080362Y0629083D01*
X1060874Y0778098D01*
X1051425Y0853886D01*
X1041780Y0928295D01*
X1035283Y0978689D01*
X1034496Y0985579D01*
X1034299Y0987350D01*
X1034102Y0988335D01*
X1038039Y0991091D01*
X1019732Y1018453D01*
X1019339Y1019043D01*
X1019142Y1019437D01*
X1086465Y1066091D01*
X1087055Y1066484D01*
X1103984Y1041878D01*
X1159102Y1080657D01*
X1161465Y1081839D01*
X1161464Y1081838D02*
X1161825Y1082013D01*
X1162190Y1082179D01*
X1162558Y1082337D01*
X1162931Y1082485D01*
X1163307Y1082624D01*
X1163686Y1082754D01*
X1164068Y1082874D01*
X1164453Y1082986D01*
X1164841Y1083088D01*
X1165231Y1083180D01*
X1165623Y1083263D01*
X1166017Y1083337D01*
X1166413Y1083401D01*
X1166810Y1083455D01*
X1167208Y1083500D01*
X1167607Y1083534D01*
X1168007Y1083560D01*
X1168408Y1083575D01*
X1168809Y1083581D01*
X1169209Y1083577D01*
X1169610Y1083563D01*
X1170010Y1083540D01*
X1170409Y1083507D01*
X1170808Y1083464D01*
X1171205Y1083412D01*
X1171601Y1083349D01*
X1171996Y1083278D01*
X1172388Y1083196D01*
X1172779Y1083106D01*
X1173167Y1083005D01*
X1173552Y1082896D01*
X1173935Y1082777D01*
X1174315Y1082649D01*
X1174691Y1082511D01*
X1175064Y1082365D01*
X1175434Y1082209D01*
X1175799Y1082045D01*
X1176161Y1081872D01*
X1176518Y1081690D01*
X1176870Y1081499D01*
X1177218Y1081300D01*
X1177561Y1081093D01*
X1177899Y1080877D01*
X1178231Y1080653D01*
X1178558Y1080421D01*
X1178879Y1080181D01*
X1179195Y1079934D01*
X1179504Y1079679D01*
X1179807Y1079416D01*
X1180103Y1079147D01*
X1180393Y1078870D01*
X1180676Y1078586D01*
X1180952Y1078295D01*
X1180953Y1078295D02*
X1183906Y1074949D01*
X1276031Y0958807D01*
X1276104Y0958712D01*
X1276174Y0958615D01*
X1276240Y0958516D01*
X1276303Y0958415D01*
X1276363Y0958311D01*
X1276420Y0958206D01*
X1276473Y0958099D01*
X1276523Y0957991D01*
X1276569Y0957880D01*
X1276612Y0957769D01*
X1276650Y0957656D01*
X1276686Y0957542D01*
X1276717Y0957427D01*
X1276745Y0957310D01*
X1276769Y0957193D01*
X1276790Y0957076D01*
X1276806Y0956957D01*
X1276819Y0956839D01*
X1276818Y0954279D02*
X1276802Y0954127D01*
X1276783Y0953975D01*
X1276759Y0953824D01*
X1276732Y0953673D01*
X1276701Y0953524D01*
X1276667Y0953374D01*
X1276629Y0953226D01*
X1276587Y0953079D01*
X1276541Y0952933D01*
X1276492Y0952788D01*
X1276439Y0952644D01*
X1276382Y0952502D01*
X1276322Y0952361D01*
X1276259Y0952222D01*
X1276191Y0952085D01*
X1276121Y0951949D01*
X1276047Y0951815D01*
X1275970Y0951682D01*
X1275890Y0951552D01*
X1275806Y0951424D01*
X1275719Y0951298D01*
X1275629Y0951174D01*
X1275536Y0951052D01*
X1275440Y0950933D01*
X1272685Y0948571D02*
X1254181Y0934594D01*
X1251819Y0933217D02*
X1251683Y0933160D01*
X1251545Y0933107D01*
X1251406Y0933057D01*
X1251265Y0933010D01*
X1251124Y0932968D01*
X1250981Y0932929D01*
X1250837Y0932893D01*
X1250693Y0932862D01*
X1250548Y0932834D01*
X1250402Y0932810D01*
X1250255Y0932790D01*
X1250109Y0932773D01*
X1249961Y0932760D01*
X1249814Y0932751D01*
X1249666Y0932746D01*
X1249518Y0932745D01*
X1249370Y0932748D01*
X1249222Y0932754D01*
X1249075Y0932764D01*
X1248928Y0932778D01*
X1248781Y0932796D01*
X1248635Y0932818D01*
X1248489Y0932843D01*
X1248344Y0932872D01*
X1248200Y0932905D01*
X1248056Y0932942D01*
X1247914Y0932982D01*
X1247773Y0933026D01*
X1247633Y0933073D01*
X1247494Y0933124D01*
X1247357Y0933179D01*
X1247221Y0933238D01*
X1247087Y0933299D01*
X1246954Y0933365D01*
X1246823Y0933433D01*
X1246694Y0933505D01*
X1246567Y0933580D01*
X1246441Y0933659D01*
X1246318Y0933741D01*
X1246197Y0933826D01*
X1246078Y0933914D01*
X1245962Y0934005D01*
X1245848Y0934099D01*
X1245736Y0934196D01*
X1245627Y0934296D01*
X1245520Y0934398D01*
X1244732Y0934988D01*
X1244142Y0935776D01*
X1164417Y1035185D01*
X1076819Y0971406D01*
X1082331Y0929083D01*
X1104772Y0753098D01*
X1132331Y0550539D01*
X1147882Y0445224D01*
X1159693Y0366681D01*
X1187449Y0239909D01*
X1187449Y0239910D02*
X1187473Y0239811D01*
X1187500Y0239714D01*
X1187531Y0239618D01*
X1187566Y0239523D01*
X1187604Y0239430D01*
X1187646Y0239338D01*
X1187692Y0239248D01*
X1187741Y0239160D01*
X1187793Y0239074D01*
X1187849Y0238990D01*
X1187908Y0238908D01*
X1187970Y0238828D01*
X1188035Y0238751D01*
X1188103Y0238677D01*
X1188174Y0238605D01*
X1188247Y0238536D01*
X1188324Y0238470D01*
X1188402Y0238407D01*
X1188484Y0238347D01*
X1188567Y0238290D01*
X1188653Y0238236D01*
X1188740Y0238186D01*
X1188830Y0238140D01*
X1188921Y0238096D01*
X1189014Y0238057D01*
X1189108Y0238021D01*
X1189204Y0237989D01*
X1189300Y0237960D01*
X1189398Y0237935D01*
X1189497Y0237914D01*
X1189596Y0237897D01*
X1189697Y0237884D01*
X1189797Y0237875D01*
X1189898Y0237869D01*
X1189999Y0237868D01*
X1190100Y0237870D01*
X1190200Y0237877D01*
X1190301Y0237887D01*
X1190401Y0237901D01*
X1190500Y0237919D01*
X1190598Y0237941D01*
X1469142Y0258610D01*
X1480756Y0504870D01*
X1486465Y0655461D01*
X1485677Y0752902D01*
X1484496Y0852114D01*
X1484498Y0852230D01*
X1484504Y0852346D01*
X1484513Y0852461D01*
X1484526Y0852576D01*
X1484543Y0852691D01*
X1484564Y0852805D01*
X1484589Y0852919D01*
X1484617Y0853031D01*
X1484649Y0853142D01*
X1484684Y0853253D01*
X1484723Y0853362D01*
X1484766Y0853470D01*
X1484812Y0853576D01*
X1484861Y0853681D01*
X1484914Y0853784D01*
X1484971Y0853886D01*
X1485030Y0853985D01*
X1485093Y0854082D01*
X1485159Y0854178D01*
X1485228Y0854271D01*
X1485300Y0854362D01*
X1485375Y0854450D01*
X1485453Y0854536D01*
X1485534Y0854619D01*
X1485617Y0854700D01*
X1485703Y0854778D01*
X1485791Y0854853D01*
X1485882Y0854925D01*
X1485975Y0854994D01*
X1486071Y0855060D01*
X1486168Y0855123D01*
X1486268Y0855182D01*
X1486369Y0855239D01*
X1486472Y0855292D01*
X1486577Y0855341D01*
X1486683Y0855387D01*
X1486791Y0855430D01*
X1486900Y0855469D01*
X1487011Y0855504D01*
X1487122Y0855536D01*
X1487234Y0855564D01*
X1487348Y0855589D01*
X1487462Y0855610D01*
X1487577Y0855627D01*
X1487692Y0855640D01*
X1487807Y0855649D01*
X1487923Y0855655D01*
X1488039Y0855657D01*
X1489614Y0855657D01*
X1495520Y0856051D01*
X1489417Y0855657D02*
X1519732Y0857823D01*
X1519732Y0857824D02*
X1519863Y0857831D01*
X1519995Y0857835D01*
X1520126Y0857834D01*
X1520257Y0857830D01*
X1520389Y0857822D01*
X1520520Y0857811D01*
X1520650Y0857795D01*
X1520780Y0857776D01*
X1520909Y0857753D01*
X1521038Y0857726D01*
X1521166Y0857695D01*
X1521293Y0857661D01*
X1521419Y0857623D01*
X1521543Y0857581D01*
X1521667Y0857536D01*
X1521789Y0857487D01*
X1521909Y0857435D01*
X1522028Y0857379D01*
X1522145Y0857320D01*
X1522261Y0857257D01*
X1522375Y0857191D01*
X1522486Y0857121D01*
X1522596Y0857049D01*
X1522703Y0856973D01*
X1522808Y0856894D01*
X1522911Y0856812D01*
X1523011Y0856727D01*
X1523109Y0856640D01*
X1523205Y0856549D01*
X1523297Y0856456D01*
X1523387Y0856360D01*
X1523474Y0856261D01*
X1523558Y0856160D01*
X1523639Y0856057D01*
X1523717Y0855951D01*
X1523792Y0855843D01*
X1523864Y0855733D01*
X1523932Y0855621D01*
X1523997Y0855507D01*
X1524059Y0855391D01*
X1524118Y0855273D01*
X1524172Y0855153D01*
X1524224Y0855032D01*
X1524272Y0854910D01*
X1524316Y0854786D01*
X1524357Y0854661D01*
X1524394Y0854535D01*
X1524427Y0854408D01*
X1524457Y0854280D01*
X1524654Y0849949D01*
X1527803Y0674358D01*
X1528000Y0656445D01*
X1527409Y0643650D01*
X1524457Y0577902D01*
X1519732Y0468650D01*
X1508512Y0233413D01*
X1508493Y0233094D01*
X1508466Y0232775D01*
X1508431Y0232457D01*
X1508389Y0232140D01*
X1508339Y0231824D01*
X1508281Y0231509D01*
X1508216Y0231196D01*
X1508143Y0230885D01*
X1508062Y0230575D01*
X1507974Y0230268D01*
X1507879Y0229962D01*
X1507776Y0229659D01*
X1507666Y0229359D01*
X1507549Y0229062D01*
X1507424Y0228767D01*
X1507292Y0228476D01*
X1507153Y0228187D01*
X1507007Y0227903D01*
X1506855Y0227621D01*
X1506695Y0227344D01*
X1506529Y0227071D01*
X1506356Y0226802D01*
X1506177Y0226537D01*
X1505991Y0226276D01*
X1505799Y0226020D01*
X1505601Y0225769D01*
X1505397Y0225523D01*
X1505187Y0225282D01*
X1504971Y0225045D01*
X1504750Y0224815D01*
X1504523Y0224589D01*
X1504290Y0224370D01*
X1504052Y0224156D01*
X1503809Y0223948D01*
X1503561Y0223745D01*
X1503309Y0223549D01*
X1503051Y0223359D01*
X1502789Y0223176D01*
X1502523Y0222999D01*
X1502252Y0222828D01*
X1501978Y0222664D01*
X1501699Y0222507D01*
X1501417Y0222357D01*
X1501131Y0222213D01*
X1500841Y0222077D01*
X1500549Y0221947D01*
X1500253Y0221825D01*
X1499955Y0221710D01*
X1499654Y0221602D01*
X1498276Y0221012D01*
X1406740Y0213335D01*
X1179772Y0194831D01*
X1171110Y0194240D01*
X1171111Y0194241D02*
X1170708Y0194218D01*
X1170305Y0194205D01*
X1169901Y0194202D01*
X1169498Y0194209D01*
X1169095Y0194225D01*
X1168693Y0194251D01*
X1168291Y0194286D01*
X1167890Y0194331D01*
X1167491Y0194386D01*
X1167092Y0194451D01*
X1166696Y0194525D01*
X1166301Y0194608D01*
X1165909Y0194701D01*
X1165519Y0194804D01*
X1165131Y0194915D01*
X1164747Y0195036D01*
X1164365Y0195167D01*
X1163986Y0195306D01*
X1163611Y0195455D01*
X1163240Y0195612D01*
X1162873Y0195778D01*
X1162509Y0195953D01*
X1162150Y0196137D01*
X1161796Y0196330D01*
X1161446Y0196530D01*
X1161101Y0196740D01*
X1160761Y0196957D01*
X1160427Y0197183D01*
X1160098Y0197416D01*
X1159775Y0197657D01*
X1159458Y0197907D01*
X1159147Y0198163D01*
X1158842Y0198427D01*
X1158543Y0198698D01*
X1158252Y0198977D01*
X1157967Y0199262D01*
X1157688Y0199554D01*
X1157417Y0199853D01*
X1157154Y0200158D01*
X1156897Y0200470D01*
X1156649Y0200787D01*
X1156408Y0201110D01*
X1156174Y0201439D01*
X1155949Y0201774D01*
X1155732Y0202114D01*
X1155523Y0202459D01*
X1155323Y0202809D01*
X1155131Y0203164D01*
X1154947Y0203523D01*
X1154772Y0203886D01*
X1153984Y0206051D01*
X1153000Y0209594D01*
X1120717Y0357232D01*
X1115795Y0390894D01*
X1097094Y0512941D01*
X1088236Y0573965D01*
X1251819Y0933217D02*
X1252069Y0933329D01*
X1252317Y0933447D01*
X1252561Y0933570D01*
X1252803Y0933700D01*
X1253041Y0933835D01*
X1253276Y0933976D01*
X1253508Y0934123D01*
X1253736Y0934275D01*
X1253961Y0934432D01*
X1254181Y0934595D01*
X1276819Y0954279D02*
X1276844Y0954599D01*
X1276863Y0954919D01*
X1276873Y0955239D01*
X1276877Y0955559D01*
X1276873Y0955879D01*
X1276863Y0956199D01*
X1276844Y0956519D01*
X1276819Y0956839D01*
X1275441Y0950933D02*
X1275273Y0950735D01*
X1275099Y0950540D01*
X1274922Y0950350D01*
X1274739Y0950164D01*
X1274552Y0949983D01*
X1274360Y0949806D01*
X1274165Y0949634D01*
X1273965Y0949467D01*
X1273761Y0949305D01*
X1273553Y0949148D01*
X1273342Y0948996D01*
X1273126Y0948849D01*
X1272908Y0948707D01*
X1272685Y0948571D01*
M02*
