G75*
%MOIN*%
%OFA0B0*%
%FSLAX25Y25*%
%IPPOS*%
%LPD*%
%AMOC8*
5,1,8,0,0,1.08239X$1,22.5*
%
%ADD10C,0.03937*%
D10*
X1044535Y0367666D02*
X1045733Y0379657D01*
X1046654Y0391674D01*
X1047298Y0403708D01*
X1047664Y0415754D01*
X1047751Y0427805D01*
X1047561Y0439855D01*
X1047092Y0451897D01*
X1046346Y0463925D01*
X1045323Y0475933D01*
X1039220Y0538925D01*
X1079181Y0547390D02*
X1072882Y0595618D01*
X1072094Y0633413D01*
X1074063Y0686366D01*
X1080953Y0756642D01*
X1090205Y0835185D01*
X1086858Y0886169D01*
X1082724Y0941484D01*
X1082725Y0941484D02*
X1082689Y0941896D01*
X1082643Y0942307D01*
X1082587Y0942716D01*
X1082522Y0943124D01*
X1082446Y0943530D01*
X1082360Y0943934D01*
X1082265Y0944336D01*
X1082159Y0944735D01*
X1082044Y0945132D01*
X1081919Y0945526D01*
X1081785Y0945917D01*
X1081641Y0946304D01*
X1081488Y0946688D01*
X1081326Y0947068D01*
X1081154Y0947443D01*
X1080973Y0947815D01*
X1080783Y0948182D01*
X1080584Y0948544D01*
X1080377Y0948901D01*
X1080160Y0949253D01*
X1079936Y0949600D01*
X1079702Y0949941D01*
X1079461Y0950276D01*
X1079211Y0950605D01*
X1078954Y0950928D01*
X1078688Y0951245D01*
X1078415Y0951555D01*
X1078135Y0951858D01*
X1077847Y0952154D01*
X1077552Y0952444D01*
X1077250Y0952726D01*
X1076941Y0953000D01*
X1076626Y0953267D01*
X1076304Y0953526D01*
X1075976Y0953777D01*
X1075642Y0954020D01*
X1075302Y0954255D01*
X1074957Y0954482D01*
X1074606Y0954700D01*
X1074250Y0954909D01*
X1073888Y0955110D01*
X1073522Y0955301D01*
X1073152Y0955484D01*
X1072777Y0955657D01*
X1072398Y0955822D01*
X1072015Y0955977D01*
X1071628Y0956123D01*
X1071238Y0956259D01*
X1070845Y0956385D01*
X1070449Y0956502D01*
X1070050Y0956610D01*
X1069648Y0956707D01*
X1069245Y0956795D01*
X1068839Y0956872D01*
X1068431Y0956940D01*
X1068022Y0956998D01*
X1067612Y0957046D01*
X1067201Y0957084D01*
X1066788Y0957111D01*
X1066376Y0957129D01*
X1065963Y0957137D01*
X1065549Y0957134D01*
X1065137Y0957122D01*
X1064724Y0957099D01*
X1064312Y0957066D01*
X1063901Y0957023D01*
X1063492Y0956970D01*
X1063083Y0956908D01*
X1062677Y0956835D01*
X1062272Y0956752D01*
X1061869Y0956660D01*
X1061469Y0956557D01*
X1061071Y0956445D01*
X1028000Y0951130D01*
X0958709Y0935972D01*
X0958708Y0935973D02*
X0958612Y0935954D01*
X0958515Y0935938D01*
X0958418Y0935927D01*
X0958320Y0935920D01*
X0958222Y0935916D01*
X0958124Y0935917D01*
X0958027Y0935921D01*
X0957929Y0935929D01*
X0957832Y0935941D01*
X0957735Y0935957D01*
X0957639Y0935977D01*
X0957544Y0936001D01*
X0957450Y0936028D01*
X0957357Y0936060D01*
X0957266Y0936094D01*
X0957175Y0936133D01*
X0957087Y0936175D01*
X0957000Y0936221D01*
X0956915Y0936270D01*
X0956833Y0936322D01*
X0956752Y0936377D01*
X0956674Y0936436D01*
X0956598Y0936498D01*
X0956524Y0936563D01*
X0956453Y0936631D01*
X0956385Y0936701D01*
X0956320Y0936774D01*
X0956258Y0936850D01*
X0956199Y0936928D01*
X0956143Y0937009D01*
X0956090Y0937091D01*
X0956041Y0937176D01*
X0955995Y0937262D01*
X0955952Y0937351D01*
X0955953Y0937350D02*
X0946504Y0966484D01*
X0869142Y0940500D01*
X0864024Y0938531D02*
X0863630Y0938335D01*
X0863039Y0938138D01*
X0870913Y0912547D01*
X0870937Y0912463D01*
X0870957Y0912378D01*
X0870974Y0912293D01*
X0870986Y0912206D01*
X0870995Y0912119D01*
X0871000Y0912032D01*
X0871001Y0911945D01*
X0870998Y0911858D01*
X0870991Y0911770D01*
X0870981Y0911684D01*
X0870967Y0911598D01*
X0870949Y0911512D01*
X0870927Y0911428D01*
X0870901Y0911344D01*
X0870872Y0911262D01*
X0870839Y0911181D01*
X0870803Y0911102D01*
X0870763Y0911024D01*
X0870720Y0910948D01*
X0870673Y0910874D01*
X0870624Y0910802D01*
X0870571Y0910733D01*
X0870515Y0910666D01*
X0870456Y0910601D01*
X0870395Y0910539D01*
X0870331Y0910480D01*
X0870264Y0910424D01*
X0870195Y0910370D01*
X0870123Y0910320D01*
X0870050Y0910273D01*
X0869974Y0910229D01*
X0869897Y0910189D01*
X0869818Y0910152D01*
X0869737Y0910119D01*
X0869655Y0910089D01*
X0869571Y0910063D01*
X0869487Y0910041D01*
X0869402Y0910022D01*
X0869316Y0910007D01*
X0869229Y0909996D01*
X0869142Y0909989D01*
X0869142Y0909988D02*
X0849850Y0904083D01*
X0768354Y0871602D01*
X0768355Y0871602D02*
X0767871Y0871403D01*
X0767393Y0871192D01*
X0766920Y0870969D01*
X0766453Y0870734D01*
X0765992Y0870488D01*
X0765537Y0870231D01*
X0765088Y0869963D01*
X0764646Y0869684D01*
X0764211Y0869394D01*
X0763783Y0869094D01*
X0763363Y0868783D01*
X0762950Y0868462D01*
X0762546Y0868131D01*
X0762149Y0867790D01*
X0761761Y0867439D01*
X0761382Y0867079D01*
X0761012Y0866710D01*
X0760651Y0866332D01*
X0760299Y0865945D01*
X0759957Y0865550D01*
X0759625Y0865146D01*
X0759303Y0864735D01*
X0758991Y0864315D01*
X0758689Y0863889D01*
X0758398Y0863454D01*
X0758118Y0863013D01*
X0757848Y0862565D01*
X0757590Y0862111D01*
X0757342Y0861650D01*
X0757107Y0861184D01*
X0756882Y0860711D01*
X0756670Y0860234D01*
X0756469Y0859751D01*
X0756280Y0859264D01*
X0756103Y0858772D01*
X0755938Y0858276D01*
X0755785Y0857776D01*
X0755645Y0857272D01*
X0755517Y0856766D01*
X0755401Y0856256D01*
X0755299Y0855743D01*
X0755208Y0855228D01*
X0755130Y0854711D01*
X0755065Y0854193D01*
X0755013Y0853672D01*
X0754974Y0853151D01*
X0754947Y0852629D01*
X0754933Y0852107D01*
X0754932Y0851584D01*
X0754944Y0851061D01*
X0754968Y0850539D01*
X0754969Y0850539D02*
X0761268Y0831642D01*
X0773669Y0799555D01*
X0871898Y0534004D01*
X0871955Y0533854D01*
X0872017Y0533705D01*
X0872082Y0533558D01*
X0872150Y0533413D01*
X0872222Y0533269D01*
X0872298Y0533127D01*
X0872377Y0532987D01*
X0872459Y0532848D01*
X0872545Y0532712D01*
X0872634Y0532578D01*
X0872726Y0532447D01*
X0872822Y0532317D01*
X0872921Y0532190D01*
X0873023Y0532066D01*
X0873127Y0531944D01*
X0873235Y0531824D01*
X0873346Y0531708D01*
X0873459Y0531594D01*
X0873576Y0531483D01*
X0873695Y0531374D01*
X0873816Y0531269D01*
X0873940Y0531167D01*
X0874067Y0531067D01*
X0874196Y0530971D01*
X0874327Y0530878D01*
X0874461Y0530789D01*
X0874596Y0530702D01*
X0874734Y0530619D01*
X0874874Y0530539D01*
X0875015Y0530463D01*
X0875159Y0530391D01*
X0875304Y0530321D01*
X0875451Y0530256D01*
X0875600Y0530194D01*
X0875749Y0530136D01*
X0875901Y0530081D01*
X0876053Y0530030D01*
X0876207Y0529983D01*
X0876362Y0529940D01*
X0876518Y0529900D01*
X0876675Y0529864D01*
X0876832Y0529832D01*
X0876991Y0529805D01*
X0877150Y0529780D01*
X0877310Y0529760D01*
X0877470Y0529744D01*
X0877630Y0529732D01*
X0877791Y0529723D01*
X0877951Y0529719D01*
X0878112Y0529718D01*
X0878273Y0529722D01*
X0878434Y0529729D01*
X0878594Y0529740D01*
X0878754Y0529756D01*
X0878914Y0529775D01*
X0879073Y0529798D01*
X0879232Y0529825D01*
X0879390Y0529856D01*
X0879547Y0529890D01*
X0879703Y0529929D01*
X0879858Y0529971D01*
X0880012Y0530017D01*
X0880165Y0530067D01*
X0906543Y0537941D01*
X0906543Y0537940D02*
X0906684Y0537984D01*
X0906824Y0538032D01*
X0906963Y0538084D01*
X0907100Y0538139D01*
X0907236Y0538198D01*
X0907370Y0538261D01*
X0907502Y0538327D01*
X0907633Y0538397D01*
X0907762Y0538470D01*
X0907888Y0538546D01*
X0908013Y0538626D01*
X0908135Y0538709D01*
X0908255Y0538795D01*
X0908373Y0538885D01*
X0908489Y0538977D01*
X0908602Y0539073D01*
X0908712Y0539172D01*
X0908820Y0539273D01*
X0908924Y0539378D01*
X0909027Y0539485D01*
X0909126Y0539594D01*
X0909222Y0539707D01*
X0909315Y0539822D01*
X0909405Y0539939D01*
X0909492Y0540059D01*
X0909576Y0540181D01*
X0909656Y0540305D01*
X0909734Y0540431D01*
X0909807Y0540559D01*
X0909878Y0540690D01*
X0909944Y0540822D01*
X0910008Y0540955D01*
X0910067Y0541091D01*
X0910123Y0541228D01*
X0910176Y0541366D01*
X0910224Y0541506D01*
X0910269Y0541647D01*
X0910311Y0541789D01*
X0910348Y0541932D01*
X0910382Y0542076D01*
X0910411Y0542221D01*
X0910437Y0542367D01*
X0910459Y0542513D01*
X0910477Y0542660D01*
X0910491Y0542807D01*
X0910501Y0542955D01*
X0910508Y0543103D01*
X0910510Y0543251D01*
X0910508Y0543399D01*
X0910503Y0543546D01*
X0910493Y0543694D01*
X0910480Y0543841D01*
X0910463Y0543988D01*
X0910441Y0544135D01*
X0910416Y0544281D01*
X0910387Y0544426D01*
X0910354Y0544570D01*
X0910318Y0544713D01*
X0910277Y0544856D01*
X0910233Y0544997D01*
X0910185Y0545137D01*
X0910133Y0545275D01*
X0910078Y0545413D01*
X0910019Y0545548D01*
X0909956Y0545682D01*
X0909890Y0545815D01*
X0908512Y0549555D01*
X0907921Y0551130D01*
X0909890Y0545815D02*
X0903394Y0563531D01*
X0887646Y0607035D01*
X0867764Y0658610D01*
X0852803Y0700736D01*
X0831150Y0759988D01*
X0802409Y0837941D01*
X0802410Y0837941D02*
X0802368Y0838059D01*
X0802331Y0838178D01*
X0802296Y0838298D01*
X0802266Y0838419D01*
X0802240Y0838541D01*
X0802217Y0838664D01*
X0802198Y0838788D01*
X0802182Y0838912D01*
X0802171Y0839036D01*
X0802163Y0839161D01*
X0802159Y0839285D01*
X0802160Y0839410D01*
X0802163Y0839535D01*
X0802171Y0839660D01*
X0802183Y0839784D01*
X0802198Y0839908D01*
X0802217Y0840031D01*
X0802240Y0840154D01*
X0802267Y0840276D01*
X0802297Y0840397D01*
X0802332Y0840517D01*
X0802369Y0840636D01*
X0802411Y0840754D01*
X0802456Y0840871D01*
X0802505Y0840986D01*
X0802557Y0841099D01*
X0802613Y0841211D01*
X0802672Y0841321D01*
X0802734Y0841429D01*
X0802800Y0841535D01*
X0802869Y0841639D01*
X0802941Y0841741D01*
X0803016Y0841841D01*
X0803094Y0841938D01*
X0803175Y0842033D01*
X0803259Y0842126D01*
X0803346Y0842215D01*
X0803436Y0842302D01*
X0803528Y0842387D01*
X0803623Y0842468D01*
X0803720Y0842546D01*
X0803820Y0842622D01*
X0803922Y0842694D01*
X0804026Y0842763D01*
X0804132Y0842829D01*
X0804240Y0842892D01*
X0804350Y0842951D01*
X0804461Y0843007D01*
X0804575Y0843059D01*
X0859496Y0864122D01*
X0897094Y0876524D01*
X0950244Y0892272D01*
X0869141Y0940500D02*
X0867846Y0940049D01*
X0866561Y0939571D01*
X0865287Y0939065D01*
X0864023Y0938531D01*
X1039614Y0912350D02*
X1039768Y0912372D01*
X1039922Y0912390D01*
X1040076Y0912404D01*
X1040231Y0912414D01*
X1040385Y0912420D01*
X1040540Y0912422D01*
X1040695Y0912420D01*
X1040850Y0912414D01*
X1041005Y0912405D01*
X1041159Y0912391D01*
X1041313Y0912374D01*
X1041467Y0912352D01*
X1041620Y0912327D01*
X1041772Y0912298D01*
X1041923Y0912265D01*
X1042074Y0912228D01*
X1042223Y0912187D01*
X1042372Y0912143D01*
X1042519Y0912094D01*
X1042665Y0912042D01*
X1042809Y0911986D01*
X1042953Y0911927D01*
X1043094Y0911864D01*
X1043234Y0911798D01*
X1043372Y0911727D01*
X1043509Y0911654D01*
X1043643Y0911577D01*
X1043776Y0911496D01*
X1043906Y0911412D01*
X1044034Y0911325D01*
X1044160Y0911235D01*
X1044284Y0911142D01*
X1044405Y0911045D01*
X1044523Y0910945D01*
X1044639Y0910843D01*
X1044753Y0910737D01*
X1044864Y0910629D01*
X1044971Y0910517D01*
X1045077Y0910403D01*
X1045179Y0910287D01*
X1045278Y0910168D01*
X1045374Y0910046D01*
X1045467Y0909922D01*
X1045556Y0909796D01*
X1045643Y0909667D01*
X1045726Y0909537D01*
X1045806Y0909404D01*
X1045882Y0909269D01*
X1045955Y0909132D01*
X1046025Y0908994D01*
X1046091Y0908853D01*
X1046153Y0908712D01*
X1046212Y0908568D01*
X1046267Y0908423D01*
X1046318Y0908277D01*
X1046366Y0908130D01*
X1046410Y0907981D01*
X1046450Y0907831D01*
X1046486Y0907681D01*
X1046518Y0907529D01*
X1046547Y0907377D01*
X1046571Y0907224D01*
X1046592Y0907070D01*
X1046609Y0906916D01*
X1046622Y0906762D01*
X1046631Y0906607D01*
X1046636Y0906452D01*
X1046637Y0906297D01*
X1046634Y0906142D01*
X1046627Y0905987D01*
X1046616Y0905833D01*
X1046602Y0905679D01*
X1046583Y0905525D01*
X1046561Y0905371D01*
X1046534Y0905219D01*
X1046504Y0905067D01*
X1046701Y0877705D01*
X1049260Y0847783D01*
X1047882Y0823768D01*
X1040795Y0757035D01*
X1036071Y0720815D01*
X1034288Y0705706D01*
X1032876Y0690558D01*
X1031835Y0675379D01*
X1031167Y0660180D01*
X1030871Y0644969D01*
X1030948Y0629755D01*
X1031398Y0614547D01*
X1032220Y0599355D01*
X1033414Y0584188D01*
X1034980Y0569055D01*
X1036915Y0553964D01*
X1039220Y0538926D01*
X1079181Y0547390D02*
X1084299Y0496209D01*
X1087055Y0436169D01*
X1086661Y0403492D01*
X1084102Y0358413D01*
X1084103Y0358413D02*
X1084084Y0357599D01*
X1084046Y0356785D01*
X1083988Y0355972D01*
X1083911Y0355160D01*
X1083814Y0354351D01*
X1083697Y0353545D01*
X1083562Y0352741D01*
X1083407Y0351941D01*
X1083232Y0351145D01*
X1083039Y0350353D01*
X1082827Y0349566D01*
X1082596Y0348785D01*
X1082346Y0348009D01*
X1082078Y0347240D01*
X1081791Y0346477D01*
X1081486Y0345721D01*
X1081163Y0344973D01*
X1080821Y0344233D01*
X1080463Y0343501D01*
X1080087Y0342778D01*
X1079693Y0342065D01*
X1079282Y0341361D01*
X1078855Y0340667D01*
X1078411Y0339984D01*
X1077951Y0339311D01*
X1077475Y0338650D01*
X1076983Y0338000D01*
X1076475Y0337362D01*
X1075952Y0336737D01*
X1075415Y0336125D01*
X1074863Y0335525D01*
X1074296Y0334939D01*
X1073716Y0334367D01*
X1073122Y0333809D01*
X1072515Y0333266D01*
X1071895Y0332737D01*
X1071262Y0332223D01*
X1070618Y0331725D01*
X1069961Y0331242D01*
X1069293Y0330775D01*
X1068614Y0330324D01*
X1067924Y0329890D01*
X1067225Y0329473D01*
X1066515Y0329072D01*
X1065796Y0328689D01*
X1042370Y0363728D02*
X1030559Y0358413D01*
X1042370Y0363729D02*
X1042484Y0363823D01*
X1042597Y0363921D01*
X1042707Y0364021D01*
X1042814Y0364124D01*
X1042919Y0364230D01*
X1043020Y0364338D01*
X1043120Y0364449D01*
X1043216Y0364562D01*
X1043310Y0364677D01*
X1043400Y0364795D01*
X1043488Y0364916D01*
X1043572Y0365038D01*
X1043653Y0365163D01*
X1043731Y0365289D01*
X1043806Y0365417D01*
X1043878Y0365548D01*
X1043946Y0365680D01*
X1044011Y0365814D01*
X1044073Y0365949D01*
X1044131Y0366086D01*
X1044186Y0366224D01*
X1044237Y0366364D01*
X1044285Y0366505D01*
X1044329Y0366647D01*
X1044369Y0366790D01*
X1044406Y0366934D01*
X1044439Y0367079D01*
X1044468Y0367224D01*
X1044494Y0367371D01*
X1044516Y0367518D01*
X1044535Y0367666D01*
X1030559Y0358414D02*
X1029836Y0358099D01*
X1029105Y0357800D01*
X1028368Y0357518D01*
X1027625Y0357253D01*
X1026875Y0357006D01*
X1026121Y0356775D01*
X1025361Y0356563D01*
X1024596Y0356367D01*
X1023827Y0356190D01*
X1023054Y0356030D01*
X1022278Y0355888D01*
X1021499Y0355764D01*
X1020717Y0355658D01*
X1003394Y0353295D02*
X0949850Y0351327D01*
X0883512Y0353098D01*
X0842567Y0326720D02*
X0841831Y0327359D01*
X0841111Y0328015D01*
X0840406Y0328688D01*
X0839719Y0329379D01*
X0839048Y0330085D01*
X0838394Y0330808D01*
X0837758Y0331546D01*
X0837141Y0332300D01*
X0836541Y0333068D01*
X0835960Y0333850D01*
X0835399Y0334646D01*
X0834856Y0335456D01*
X0834334Y0336278D01*
X0833831Y0337113D01*
X0833349Y0337960D01*
X0832888Y0338818D01*
X0832447Y0339687D01*
X0832027Y0340567D01*
X0831629Y0341456D01*
X0831253Y0342355D01*
X0830898Y0343262D01*
X0830565Y0344178D01*
X0830255Y0345101D01*
X0829967Y0346032D01*
X0829701Y0346970D01*
X0829459Y0347913D01*
X0829239Y0348863D01*
X0829042Y0349817D01*
X0828868Y0350776D01*
X0828718Y0351738D01*
X0828590Y0352704D01*
X0828591Y0352705D02*
X0827016Y0365894D01*
X0824063Y0398965D01*
X0814024Y0515697D01*
X0812449Y0551327D01*
X0812448Y0551327D02*
X0812450Y0551479D01*
X0812456Y0551631D01*
X0812466Y0551783D01*
X0812479Y0551934D01*
X0812497Y0552085D01*
X0812518Y0552236D01*
X0812544Y0552386D01*
X0812573Y0552535D01*
X0812606Y0552684D01*
X0812643Y0552831D01*
X0812683Y0552978D01*
X0812728Y0553123D01*
X0812776Y0553267D01*
X0812828Y0553410D01*
X0812883Y0553552D01*
X0812942Y0553692D01*
X0813005Y0553831D01*
X0813071Y0553968D01*
X0813141Y0554103D01*
X0813214Y0554236D01*
X0813291Y0554367D01*
X0813371Y0554497D01*
X0813454Y0554624D01*
X0813540Y0554749D01*
X0813630Y0554872D01*
X0813723Y0554992D01*
X0813819Y0555110D01*
X0813918Y0555226D01*
X0814020Y0555339D01*
X0814124Y0555449D01*
X0814232Y0555557D01*
X0814342Y0555661D01*
X0814455Y0555763D01*
X0814571Y0555862D01*
X0814689Y0555958D01*
X0814809Y0556051D01*
X0814932Y0556141D01*
X0815057Y0556227D01*
X0815184Y0556310D01*
X0815314Y0556390D01*
X0815445Y0556467D01*
X0815578Y0556540D01*
X0815713Y0556610D01*
X0815850Y0556676D01*
X0815989Y0556739D01*
X0816129Y0556798D01*
X0816271Y0556853D01*
X0816414Y0556905D01*
X0816558Y0556953D01*
X0816703Y0556998D01*
X0816850Y0557038D01*
X0816997Y0557075D01*
X0817146Y0557108D01*
X0817295Y0557137D01*
X0817445Y0557163D01*
X0817596Y0557184D01*
X0817747Y0557202D01*
X0817898Y0557215D01*
X0818050Y0557225D01*
X0818202Y0557231D01*
X0818354Y0557233D01*
X0818354Y0557232D02*
X0846898Y0557232D01*
X0847033Y0557250D01*
X0847169Y0557265D01*
X0847304Y0557275D01*
X0847440Y0557282D01*
X0847577Y0557285D01*
X0847713Y0557284D01*
X0847849Y0557279D01*
X0847985Y0557270D01*
X0848121Y0557258D01*
X0848256Y0557241D01*
X0848391Y0557221D01*
X0848525Y0557197D01*
X0848658Y0557169D01*
X0848790Y0557138D01*
X0848922Y0557102D01*
X0849053Y0557063D01*
X0849182Y0557021D01*
X0849310Y0556974D01*
X0849437Y0556924D01*
X0849562Y0556871D01*
X0849686Y0556814D01*
X0849808Y0556753D01*
X0849928Y0556689D01*
X0850046Y0556622D01*
X0850163Y0556551D01*
X0850277Y0556477D01*
X0850389Y0556400D01*
X0850499Y0556319D01*
X0850607Y0556236D01*
X0850712Y0556149D01*
X0850815Y0556060D01*
X0850915Y0555968D01*
X0851013Y0555873D01*
X0851108Y0555775D01*
X0851200Y0555674D01*
X0851289Y0555571D01*
X0851375Y0555466D01*
X0851458Y0555358D01*
X0851538Y0555248D01*
X0851615Y0555135D01*
X0851688Y0555020D01*
X0851759Y0554904D01*
X0851826Y0554785D01*
X0851890Y0554665D01*
X0851950Y0554543D01*
X0852007Y0554419D01*
X0852060Y0554293D01*
X0852109Y0554166D01*
X0852155Y0554038D01*
X0852198Y0553909D01*
X0852236Y0553778D01*
X0852271Y0553646D01*
X0852302Y0553514D01*
X0852330Y0553380D01*
X0852354Y0553246D01*
X0852373Y0553111D01*
X0852389Y0552976D01*
X0852401Y0552841D01*
X0852410Y0552705D01*
X0852409Y0552705D02*
X0853984Y0519043D01*
X0863433Y0402114D01*
X0866189Y0368846D01*
X0866188Y0368847D02*
X0866165Y0368647D01*
X0866146Y0368447D01*
X0866132Y0368246D01*
X0866123Y0368046D01*
X0866119Y0367845D01*
X0866120Y0367644D01*
X0866125Y0367443D01*
X0866136Y0367242D01*
X0866151Y0367042D01*
X0866171Y0366842D01*
X0866196Y0366642D01*
X0866225Y0366443D01*
X0866260Y0366245D01*
X0866299Y0366048D01*
X0866342Y0365852D01*
X0866391Y0365657D01*
X0866444Y0365463D01*
X0866502Y0365270D01*
X0866564Y0365079D01*
X0866631Y0364890D01*
X0866703Y0364702D01*
X0866779Y0364516D01*
X0842567Y0326721D02*
X0843626Y0325847D01*
X0844705Y0324998D01*
X0845805Y0324177D01*
X0846924Y0323382D01*
X0848063Y0322615D01*
X0849219Y0321875D01*
X0850394Y0321164D01*
X0851585Y0320482D01*
X0852793Y0319829D01*
X0854016Y0319206D01*
X0855254Y0318612D01*
X0856506Y0318049D01*
X0857771Y0317517D01*
X0859049Y0317015D01*
X0860339Y0316545D01*
X0861640Y0316107D01*
X0862951Y0315700D01*
X0864272Y0315325D01*
X0865601Y0314983D01*
X0866939Y0314673D01*
X0868283Y0314395D01*
X0869634Y0314151D01*
X0870991Y0313939D01*
X0872352Y0313760D01*
X0873717Y0313615D01*
X0875085Y0313503D01*
X0876456Y0313424D01*
X0877828Y0313379D01*
X0879201Y0313367D01*
X0880573Y0313389D01*
X0881945Y0313444D01*
X0883315Y0313532D01*
X0883315Y0313531D02*
X0953197Y0311366D01*
X0985677Y0312350D01*
X0950244Y0892271D02*
X0964940Y0896447D01*
X0979725Y0900294D01*
X0994593Y0903809D01*
X1009535Y0906991D01*
X1024545Y0909839D01*
X1039614Y0912350D01*
X1009299Y0313335D02*
X0985677Y0312351D01*
X0883512Y0353099D02*
X0883056Y0353116D01*
X0882602Y0353145D01*
X0882148Y0353185D01*
X0881696Y0353236D01*
X0881245Y0353298D01*
X0880795Y0353370D01*
X0880347Y0353454D01*
X0879902Y0353549D01*
X0879459Y0353654D01*
X0879018Y0353770D01*
X0878581Y0353897D01*
X0878147Y0354035D01*
X0877716Y0354183D01*
X0877289Y0354341D01*
X0876866Y0354510D01*
X0876448Y0354689D01*
X0876033Y0354878D01*
X0875624Y0355077D01*
X0875219Y0355287D01*
X0874820Y0355505D01*
X0874426Y0355734D01*
X0874038Y0355972D01*
X0873655Y0356220D01*
X0873279Y0356476D01*
X0872909Y0356742D01*
X0872546Y0357017D01*
X0872190Y0357300D01*
X0871840Y0357592D01*
X0871498Y0357893D01*
X0871163Y0358201D01*
X0870836Y0358518D01*
X0870517Y0358843D01*
X0870205Y0359175D01*
X0869902Y0359515D01*
X0869607Y0359862D01*
X0869321Y0360216D01*
X0869043Y0360577D01*
X0868774Y0360945D01*
X0868515Y0361319D01*
X0868264Y0361699D01*
X0868023Y0362086D01*
X0867791Y0362478D01*
X0867569Y0362875D01*
X0867357Y0363278D01*
X0867154Y0363686D01*
X0866962Y0364099D01*
X0866779Y0364516D01*
X1009299Y0313335D02*
X1012569Y0313547D01*
X1015833Y0313836D01*
X1019090Y0314203D01*
X1022337Y0314646D01*
X1025572Y0315165D01*
X1028795Y0315761D01*
X1032002Y0316432D01*
X1035193Y0317179D01*
X1038365Y0318001D01*
X1041517Y0318898D01*
X1044647Y0319869D01*
X1047753Y0320913D01*
X1050834Y0322030D01*
X1053887Y0323220D01*
X1056912Y0324482D01*
X1059906Y0325814D01*
X1062867Y0327217D01*
X1065795Y0328689D01*
X1020716Y0355657D02*
X1012047Y0354530D01*
X1003393Y0353295D01*
M02*
