G75*
%MOIN*%
%OFA0B0*%
%FSLAX25Y25*%
%IPPOS*%
%LPD*%
%AMOC8*
5,1,8,0,0,1.08239X$1,22.5*
%
%ADD10C,0.03937*%
D10*
X0097457Y0147783D02*
X0153362Y0143256D01*
X0246472Y0135972D01*
X0314976Y0131642D01*
X0315370Y0139909D01*
X0316354Y0157429D01*
X0321472Y0219240D01*
X0326197Y0272390D01*
X0333874Y0364909D01*
X0338795Y0401917D01*
X0355331Y0489319D01*
X0383677Y0625343D01*
X0390567Y0645028D01*
X0403953Y0679083D01*
X0434465Y0754870D01*
X0463008Y0810579D01*
X0479543Y0841091D01*
X0476394Y0843059D01*
X0476591Y0842862D02*
X0399228Y0895028D01*
X0410252Y0910382D01*
X0410843Y0911169D01*
X0403953Y0916091D01*
X0410252Y0924949D01*
X0410646Y0925539D01*
X0411039Y0925933D01*
X0403362Y0931248D01*
X0374228Y0950933D01*
X0341551Y0971602D01*
X0324228Y0946602D01*
X0251000Y0997587D01*
X0211039Y1022587D01*
X0210055Y1023177D01*
X0205528Y1013925D01*
X0186827Y0977705D01*
X0168520Y0943846D01*
X0153165Y0916287D01*
X0122457Y0856839D01*
X0121669Y0855264D01*
X0121276Y0854673D01*
X0155724Y0835776D01*
X0156315Y0835382D01*
X0158283Y0838138D01*
X0178165Y0877902D01*
X0191551Y0903492D01*
X0205331Y0928295D01*
X0216945Y0949949D01*
X0225606Y0966287D01*
X0255724Y0945421D01*
X0300409Y0914713D01*
X0354740Y0877508D01*
X0427378Y0828098D01*
X0398835Y0771799D01*
X0352378Y0656445D01*
X0345882Y0636366D01*
X0340567Y0613531D01*
X0328953Y0560776D01*
X0298835Y0406642D01*
X0294307Y0368453D01*
X0288008Y0290894D01*
X0277772Y0173965D01*
X0105724Y0187154D01*
X0047063Y0194043D01*
X0059465Y0306642D01*
X0081906Y0503492D01*
X0094110Y0603492D01*
X0098835Y0641681D01*
X0105134Y0689713D01*
X0109858Y0723768D01*
X0114780Y0770815D01*
X0119898Y0817862D01*
X0123244Y0848571D01*
X0083283Y0851130D01*
X0079346Y0812547D01*
X0075606Y0776130D01*
X0070291Y0724161D01*
X0056315Y0623177D01*
X0053559Y0600736D01*
X0041945Y0504083D01*
X0033283Y0428492D01*
X0017339Y0287744D01*
X0002969Y0158413D01*
X0018520Y0157035D01*
X0044504Y0153886D01*
X0097457Y0147783D01*
M02*
