G75*
%MOIN*%
%OFA0B0*%
%FSLAX25Y25*%
%IPPOS*%
%LPD*%
%AMOC8*
5,1,8,0,0,1.08239X$1,22.5*
%
%ADD10C,0.03937*%
D10*
X0072457Y0355657D02*
X0081126Y0354530D01*
X0089780Y0353295D01*
X0143323Y0351327D01*
X0209661Y0353098D01*
X0250606Y0326720D02*
X0251342Y0327359D01*
X0252062Y0328015D01*
X0252767Y0328688D01*
X0253454Y0329379D01*
X0254125Y0330085D01*
X0254779Y0330808D01*
X0255415Y0331546D01*
X0256032Y0332300D01*
X0256632Y0333068D01*
X0257213Y0333850D01*
X0257774Y0334646D01*
X0258317Y0335456D01*
X0258839Y0336278D01*
X0259342Y0337113D01*
X0259824Y0337960D01*
X0260285Y0338818D01*
X0260726Y0339687D01*
X0261146Y0340567D01*
X0261544Y0341456D01*
X0261920Y0342355D01*
X0262275Y0343262D01*
X0262608Y0344178D01*
X0262918Y0345101D01*
X0263206Y0346032D01*
X0263472Y0346970D01*
X0263714Y0347913D01*
X0263934Y0348863D01*
X0264131Y0349817D01*
X0264305Y0350776D01*
X0264455Y0351738D01*
X0264583Y0352704D01*
X0264583Y0352705D02*
X0266157Y0365894D01*
X0269110Y0398965D01*
X0279150Y0515697D01*
X0280724Y0551327D01*
X0280725Y0551327D02*
X0280723Y0551479D01*
X0280717Y0551631D01*
X0280707Y0551783D01*
X0280694Y0551934D01*
X0280676Y0552085D01*
X0280655Y0552236D01*
X0280629Y0552386D01*
X0280600Y0552535D01*
X0280567Y0552684D01*
X0280530Y0552831D01*
X0280490Y0552978D01*
X0280445Y0553123D01*
X0280397Y0553267D01*
X0280345Y0553410D01*
X0280290Y0553552D01*
X0280231Y0553692D01*
X0280168Y0553831D01*
X0280102Y0553968D01*
X0280032Y0554103D01*
X0279959Y0554236D01*
X0279882Y0554367D01*
X0279802Y0554497D01*
X0279719Y0554624D01*
X0279633Y0554749D01*
X0279543Y0554872D01*
X0279450Y0554992D01*
X0279354Y0555110D01*
X0279255Y0555226D01*
X0279153Y0555339D01*
X0279049Y0555449D01*
X0278941Y0555557D01*
X0278831Y0555661D01*
X0278718Y0555763D01*
X0278602Y0555862D01*
X0278484Y0555958D01*
X0278364Y0556051D01*
X0278241Y0556141D01*
X0278116Y0556227D01*
X0277989Y0556310D01*
X0277859Y0556390D01*
X0277728Y0556467D01*
X0277595Y0556540D01*
X0277460Y0556610D01*
X0277323Y0556676D01*
X0277184Y0556739D01*
X0277044Y0556798D01*
X0276902Y0556853D01*
X0276759Y0556905D01*
X0276615Y0556953D01*
X0276470Y0556998D01*
X0276323Y0557038D01*
X0276176Y0557075D01*
X0276027Y0557108D01*
X0275878Y0557137D01*
X0275728Y0557163D01*
X0275577Y0557184D01*
X0275426Y0557202D01*
X0275275Y0557215D01*
X0275123Y0557225D01*
X0274971Y0557231D01*
X0274819Y0557233D01*
X0274819Y0557232D02*
X0246276Y0557232D01*
X0246141Y0557250D01*
X0246005Y0557265D01*
X0245870Y0557275D01*
X0245734Y0557282D01*
X0245597Y0557285D01*
X0245461Y0557284D01*
X0245325Y0557279D01*
X0245189Y0557270D01*
X0245053Y0557258D01*
X0244918Y0557241D01*
X0244783Y0557221D01*
X0244649Y0557197D01*
X0244516Y0557169D01*
X0244384Y0557138D01*
X0244252Y0557102D01*
X0244121Y0557063D01*
X0243992Y0557021D01*
X0243864Y0556974D01*
X0243737Y0556924D01*
X0243612Y0556871D01*
X0243488Y0556814D01*
X0243366Y0556753D01*
X0243246Y0556689D01*
X0243128Y0556622D01*
X0243011Y0556551D01*
X0242897Y0556477D01*
X0242785Y0556400D01*
X0242675Y0556319D01*
X0242567Y0556236D01*
X0242462Y0556149D01*
X0242359Y0556060D01*
X0242259Y0555968D01*
X0242161Y0555873D01*
X0242066Y0555775D01*
X0241974Y0555674D01*
X0241885Y0555571D01*
X0241799Y0555466D01*
X0241716Y0555358D01*
X0241636Y0555248D01*
X0241559Y0555135D01*
X0241486Y0555020D01*
X0241415Y0554904D01*
X0241348Y0554785D01*
X0241284Y0554665D01*
X0241224Y0554543D01*
X0241167Y0554419D01*
X0241114Y0554293D01*
X0241065Y0554166D01*
X0241019Y0554038D01*
X0240976Y0553909D01*
X0240938Y0553778D01*
X0240903Y0553646D01*
X0240872Y0553514D01*
X0240844Y0553380D01*
X0240820Y0553246D01*
X0240801Y0553111D01*
X0240785Y0552976D01*
X0240773Y0552841D01*
X0240764Y0552705D01*
X0239189Y0519043D01*
X0229740Y0402114D01*
X0226984Y0368846D01*
X0226985Y0368847D02*
X0227008Y0368647D01*
X0227027Y0368447D01*
X0227041Y0368246D01*
X0227050Y0368046D01*
X0227054Y0367845D01*
X0227053Y0367644D01*
X0227048Y0367443D01*
X0227037Y0367242D01*
X0227022Y0367042D01*
X0227002Y0366842D01*
X0226977Y0366642D01*
X0226948Y0366443D01*
X0226913Y0366245D01*
X0226874Y0366048D01*
X0226831Y0365852D01*
X0226782Y0365657D01*
X0226729Y0365463D01*
X0226671Y0365270D01*
X0226609Y0365079D01*
X0226542Y0364890D01*
X0226470Y0364702D01*
X0226394Y0364516D01*
X0250606Y0326721D02*
X0249547Y0325847D01*
X0248468Y0324998D01*
X0247368Y0324177D01*
X0246249Y0323382D01*
X0245110Y0322615D01*
X0243954Y0321875D01*
X0242779Y0321164D01*
X0241588Y0320482D01*
X0240380Y0319829D01*
X0239157Y0319206D01*
X0237919Y0318612D01*
X0236667Y0318049D01*
X0235402Y0317517D01*
X0234124Y0317015D01*
X0232834Y0316545D01*
X0231533Y0316107D01*
X0230222Y0315700D01*
X0228901Y0315325D01*
X0227572Y0314983D01*
X0226234Y0314673D01*
X0224890Y0314395D01*
X0223539Y0314151D01*
X0222182Y0313939D01*
X0220821Y0313760D01*
X0219456Y0313615D01*
X0218088Y0313503D01*
X0216717Y0313424D01*
X0215345Y0313379D01*
X0213972Y0313367D01*
X0212600Y0313389D01*
X0211228Y0313444D01*
X0209858Y0313532D01*
X0209858Y0313531D02*
X0139976Y0311366D01*
X0107496Y0312350D01*
X0062614Y0358413D02*
X0050803Y0363728D01*
X0050803Y0363729D02*
X0050689Y0363823D01*
X0050576Y0363921D01*
X0050466Y0364021D01*
X0050359Y0364124D01*
X0050254Y0364230D01*
X0050153Y0364338D01*
X0050053Y0364449D01*
X0049957Y0364562D01*
X0049863Y0364677D01*
X0049773Y0364795D01*
X0049685Y0364916D01*
X0049601Y0365038D01*
X0049520Y0365163D01*
X0049442Y0365289D01*
X0049367Y0365417D01*
X0049295Y0365548D01*
X0049227Y0365680D01*
X0049162Y0365814D01*
X0049100Y0365949D01*
X0049042Y0366086D01*
X0048987Y0366224D01*
X0048936Y0366364D01*
X0048888Y0366505D01*
X0048844Y0366647D01*
X0048804Y0366790D01*
X0048767Y0366934D01*
X0048734Y0367079D01*
X0048705Y0367224D01*
X0048679Y0367371D01*
X0048657Y0367518D01*
X0048638Y0367666D01*
X0009071Y0358413D02*
X0009090Y0357599D01*
X0009128Y0356785D01*
X0009186Y0355972D01*
X0009263Y0355160D01*
X0009360Y0354351D01*
X0009477Y0353545D01*
X0009612Y0352741D01*
X0009767Y0351941D01*
X0009942Y0351145D01*
X0010135Y0350353D01*
X0010347Y0349566D01*
X0010578Y0348785D01*
X0010828Y0348009D01*
X0011096Y0347240D01*
X0011383Y0346477D01*
X0011688Y0345721D01*
X0012011Y0344973D01*
X0012353Y0344233D01*
X0012711Y0343501D01*
X0013087Y0342778D01*
X0013481Y0342065D01*
X0013892Y0341361D01*
X0014319Y0340667D01*
X0014763Y0339984D01*
X0015223Y0339311D01*
X0015699Y0338650D01*
X0016191Y0338000D01*
X0016699Y0337362D01*
X0017222Y0336737D01*
X0017759Y0336125D01*
X0018311Y0335525D01*
X0018878Y0334939D01*
X0019458Y0334367D01*
X0020052Y0333809D01*
X0020659Y0333266D01*
X0021279Y0332737D01*
X0021912Y0332223D01*
X0022556Y0331725D01*
X0023213Y0331242D01*
X0023881Y0330775D01*
X0024560Y0330324D01*
X0025250Y0329890D01*
X0025949Y0329473D01*
X0026659Y0329072D01*
X0027378Y0328689D01*
X0009071Y0358413D02*
X0006512Y0403492D01*
X0006118Y0436169D01*
X0008874Y0496209D01*
X0013992Y0547390D01*
X0020291Y0595618D01*
X0021079Y0633413D01*
X0019110Y0686366D01*
X0012220Y0756642D01*
X0002969Y0835185D01*
X0006315Y0886169D01*
X0010449Y0941484D01*
X0010485Y0941896D01*
X0010531Y0942307D01*
X0010587Y0942716D01*
X0010652Y0943124D01*
X0010728Y0943530D01*
X0010814Y0943934D01*
X0010909Y0944336D01*
X0011015Y0944735D01*
X0011130Y0945132D01*
X0011255Y0945526D01*
X0011389Y0945917D01*
X0011533Y0946304D01*
X0011686Y0946688D01*
X0011848Y0947068D01*
X0012020Y0947443D01*
X0012201Y0947815D01*
X0012391Y0948182D01*
X0012590Y0948544D01*
X0012797Y0948901D01*
X0013014Y0949253D01*
X0013238Y0949600D01*
X0013472Y0949941D01*
X0013713Y0950276D01*
X0013963Y0950605D01*
X0014220Y0950928D01*
X0014486Y0951245D01*
X0014759Y0951555D01*
X0015039Y0951858D01*
X0015327Y0952154D01*
X0015622Y0952444D01*
X0015924Y0952726D01*
X0016233Y0953000D01*
X0016548Y0953267D01*
X0016870Y0953526D01*
X0017198Y0953777D01*
X0017532Y0954020D01*
X0017872Y0954255D01*
X0018217Y0954482D01*
X0018568Y0954700D01*
X0018924Y0954909D01*
X0019286Y0955110D01*
X0019652Y0955301D01*
X0020022Y0955484D01*
X0020397Y0955657D01*
X0020776Y0955822D01*
X0021159Y0955977D01*
X0021546Y0956123D01*
X0021936Y0956259D01*
X0022329Y0956385D01*
X0022725Y0956502D01*
X0023124Y0956610D01*
X0023526Y0956707D01*
X0023929Y0956795D01*
X0024335Y0956872D01*
X0024743Y0956940D01*
X0025152Y0956998D01*
X0025562Y0957046D01*
X0025973Y0957084D01*
X0026386Y0957111D01*
X0026798Y0957129D01*
X0027211Y0957137D01*
X0027625Y0957134D01*
X0028037Y0957122D01*
X0028450Y0957099D01*
X0028862Y0957066D01*
X0029273Y0957023D01*
X0029682Y0956970D01*
X0030091Y0956908D01*
X0030497Y0956835D01*
X0030902Y0956752D01*
X0031305Y0956660D01*
X0031705Y0956557D01*
X0032103Y0956445D01*
X0032102Y0956445D02*
X0065173Y0951130D01*
X0134465Y0935972D01*
X0134465Y0935973D02*
X0134561Y0935954D01*
X0134658Y0935938D01*
X0134755Y0935927D01*
X0134853Y0935920D01*
X0134951Y0935916D01*
X0135049Y0935917D01*
X0135146Y0935921D01*
X0135244Y0935929D01*
X0135341Y0935941D01*
X0135438Y0935957D01*
X0135534Y0935977D01*
X0135629Y0936001D01*
X0135723Y0936028D01*
X0135816Y0936060D01*
X0135907Y0936094D01*
X0135998Y0936133D01*
X0136086Y0936175D01*
X0136173Y0936221D01*
X0136258Y0936270D01*
X0136340Y0936322D01*
X0136421Y0936377D01*
X0136499Y0936436D01*
X0136575Y0936498D01*
X0136649Y0936563D01*
X0136720Y0936631D01*
X0136788Y0936701D01*
X0136853Y0936774D01*
X0136915Y0936850D01*
X0136974Y0936928D01*
X0137030Y0937009D01*
X0137083Y0937091D01*
X0137132Y0937176D01*
X0137178Y0937262D01*
X0137221Y0937351D01*
X0137220Y0937350D02*
X0146669Y0966484D01*
X0224031Y0940500D01*
X0229150Y0938531D02*
X0229543Y0938335D01*
X0230134Y0938138D01*
X0222260Y0912547D01*
X0222261Y0912547D02*
X0222237Y0912463D01*
X0222217Y0912378D01*
X0222200Y0912293D01*
X0222188Y0912206D01*
X0222179Y0912119D01*
X0222174Y0912032D01*
X0222173Y0911945D01*
X0222176Y0911858D01*
X0222183Y0911770D01*
X0222193Y0911684D01*
X0222207Y0911598D01*
X0222225Y0911512D01*
X0222247Y0911428D01*
X0222273Y0911344D01*
X0222302Y0911262D01*
X0222335Y0911181D01*
X0222371Y0911102D01*
X0222411Y0911024D01*
X0222454Y0910948D01*
X0222501Y0910874D01*
X0222550Y0910802D01*
X0222603Y0910733D01*
X0222659Y0910666D01*
X0222718Y0910601D01*
X0222779Y0910539D01*
X0222843Y0910480D01*
X0222910Y0910424D01*
X0222979Y0910370D01*
X0223051Y0910320D01*
X0223124Y0910273D01*
X0223200Y0910229D01*
X0223277Y0910189D01*
X0223356Y0910152D01*
X0223437Y0910119D01*
X0223519Y0910089D01*
X0223603Y0910063D01*
X0223687Y0910041D01*
X0223772Y0910022D01*
X0223858Y0910007D01*
X0223945Y0909996D01*
X0224032Y0909989D01*
X0224031Y0909988D02*
X0243323Y0904083D01*
X0324819Y0871602D01*
X0325303Y0871403D01*
X0325781Y0871192D01*
X0326254Y0870969D01*
X0326721Y0870734D01*
X0327182Y0870488D01*
X0327637Y0870231D01*
X0328086Y0869963D01*
X0328528Y0869684D01*
X0328963Y0869394D01*
X0329391Y0869094D01*
X0329811Y0868783D01*
X0330224Y0868462D01*
X0330628Y0868131D01*
X0331025Y0867790D01*
X0331413Y0867439D01*
X0331792Y0867079D01*
X0332162Y0866710D01*
X0332523Y0866332D01*
X0332875Y0865945D01*
X0333217Y0865550D01*
X0333549Y0865146D01*
X0333871Y0864735D01*
X0334183Y0864315D01*
X0334485Y0863889D01*
X0334776Y0863454D01*
X0335056Y0863013D01*
X0335326Y0862565D01*
X0335584Y0862111D01*
X0335832Y0861650D01*
X0336067Y0861184D01*
X0336292Y0860711D01*
X0336504Y0860234D01*
X0336705Y0859751D01*
X0336894Y0859264D01*
X0337071Y0858772D01*
X0337236Y0858276D01*
X0337389Y0857776D01*
X0337529Y0857272D01*
X0337657Y0856766D01*
X0337773Y0856256D01*
X0337875Y0855743D01*
X0337966Y0855228D01*
X0338044Y0854711D01*
X0338109Y0854193D01*
X0338161Y0853672D01*
X0338200Y0853151D01*
X0338227Y0852629D01*
X0338241Y0852107D01*
X0338242Y0851584D01*
X0338230Y0851061D01*
X0338206Y0850539D01*
X0338205Y0850539D02*
X0331906Y0831642D01*
X0319504Y0799555D01*
X0221276Y0534004D01*
X0221275Y0534004D02*
X0221218Y0533854D01*
X0221156Y0533705D01*
X0221091Y0533558D01*
X0221023Y0533413D01*
X0220951Y0533269D01*
X0220875Y0533127D01*
X0220796Y0532987D01*
X0220714Y0532848D01*
X0220628Y0532712D01*
X0220539Y0532578D01*
X0220447Y0532447D01*
X0220351Y0532317D01*
X0220252Y0532190D01*
X0220150Y0532066D01*
X0220046Y0531944D01*
X0219938Y0531824D01*
X0219827Y0531708D01*
X0219714Y0531594D01*
X0219597Y0531483D01*
X0219478Y0531374D01*
X0219357Y0531269D01*
X0219233Y0531167D01*
X0219106Y0531067D01*
X0218977Y0530971D01*
X0218846Y0530878D01*
X0218712Y0530789D01*
X0218577Y0530702D01*
X0218439Y0530619D01*
X0218299Y0530539D01*
X0218158Y0530463D01*
X0218014Y0530391D01*
X0217869Y0530321D01*
X0217722Y0530256D01*
X0217573Y0530194D01*
X0217424Y0530136D01*
X0217272Y0530081D01*
X0217120Y0530030D01*
X0216966Y0529983D01*
X0216811Y0529940D01*
X0216655Y0529900D01*
X0216498Y0529864D01*
X0216341Y0529832D01*
X0216182Y0529805D01*
X0216023Y0529780D01*
X0215863Y0529760D01*
X0215703Y0529744D01*
X0215543Y0529732D01*
X0215382Y0529723D01*
X0215222Y0529719D01*
X0215061Y0529718D01*
X0214900Y0529722D01*
X0214739Y0529729D01*
X0214579Y0529740D01*
X0214419Y0529756D01*
X0214259Y0529775D01*
X0214100Y0529798D01*
X0213941Y0529825D01*
X0213783Y0529856D01*
X0213626Y0529890D01*
X0213470Y0529929D01*
X0213315Y0529971D01*
X0213161Y0530017D01*
X0213008Y0530067D01*
X0186630Y0537941D01*
X0186630Y0537940D02*
X0186489Y0537984D01*
X0186349Y0538032D01*
X0186210Y0538084D01*
X0186073Y0538139D01*
X0185937Y0538198D01*
X0185803Y0538261D01*
X0185671Y0538327D01*
X0185540Y0538397D01*
X0185411Y0538470D01*
X0185285Y0538546D01*
X0185160Y0538626D01*
X0185038Y0538709D01*
X0184918Y0538795D01*
X0184800Y0538885D01*
X0184684Y0538977D01*
X0184571Y0539073D01*
X0184461Y0539172D01*
X0184353Y0539273D01*
X0184249Y0539378D01*
X0184146Y0539485D01*
X0184047Y0539594D01*
X0183951Y0539707D01*
X0183858Y0539822D01*
X0183768Y0539939D01*
X0183681Y0540059D01*
X0183597Y0540181D01*
X0183517Y0540305D01*
X0183439Y0540431D01*
X0183366Y0540559D01*
X0183295Y0540690D01*
X0183229Y0540822D01*
X0183165Y0540955D01*
X0183106Y0541091D01*
X0183050Y0541228D01*
X0182997Y0541366D01*
X0182949Y0541506D01*
X0182904Y0541647D01*
X0182862Y0541789D01*
X0182825Y0541932D01*
X0182791Y0542076D01*
X0182762Y0542221D01*
X0182736Y0542367D01*
X0182714Y0542513D01*
X0182696Y0542660D01*
X0182682Y0542807D01*
X0182672Y0542955D01*
X0182665Y0543103D01*
X0182663Y0543251D01*
X0182665Y0543399D01*
X0182670Y0543546D01*
X0182680Y0543694D01*
X0182693Y0543841D01*
X0182710Y0543988D01*
X0182732Y0544135D01*
X0182757Y0544281D01*
X0182786Y0544426D01*
X0182819Y0544570D01*
X0182855Y0544713D01*
X0182896Y0544856D01*
X0182940Y0544997D01*
X0182988Y0545137D01*
X0183040Y0545275D01*
X0183095Y0545413D01*
X0183154Y0545548D01*
X0183217Y0545682D01*
X0183283Y0545815D01*
X0184661Y0549555D01*
X0185252Y0551130D01*
X0183283Y0545815D02*
X0189780Y0563531D01*
X0205528Y0607035D01*
X0225409Y0658610D01*
X0240370Y0700736D01*
X0262024Y0759988D01*
X0290764Y0837941D01*
X0290763Y0837941D02*
X0290805Y0838059D01*
X0290842Y0838178D01*
X0290877Y0838298D01*
X0290907Y0838419D01*
X0290933Y0838541D01*
X0290956Y0838664D01*
X0290975Y0838788D01*
X0290991Y0838912D01*
X0291002Y0839036D01*
X0291010Y0839161D01*
X0291014Y0839285D01*
X0291013Y0839410D01*
X0291010Y0839535D01*
X0291002Y0839660D01*
X0290990Y0839784D01*
X0290975Y0839908D01*
X0290956Y0840031D01*
X0290933Y0840154D01*
X0290906Y0840276D01*
X0290876Y0840397D01*
X0290841Y0840517D01*
X0290804Y0840636D01*
X0290762Y0840754D01*
X0290717Y0840871D01*
X0290668Y0840986D01*
X0290616Y0841099D01*
X0290560Y0841211D01*
X0290501Y0841321D01*
X0290439Y0841429D01*
X0290373Y0841535D01*
X0290304Y0841639D01*
X0290232Y0841741D01*
X0290157Y0841841D01*
X0290079Y0841938D01*
X0289998Y0842033D01*
X0289914Y0842126D01*
X0289827Y0842215D01*
X0289737Y0842302D01*
X0289645Y0842387D01*
X0289550Y0842468D01*
X0289453Y0842546D01*
X0289353Y0842622D01*
X0289251Y0842694D01*
X0289147Y0842763D01*
X0289041Y0842829D01*
X0288933Y0842892D01*
X0288823Y0842951D01*
X0288712Y0843007D01*
X0288598Y0843059D01*
X0233677Y0864122D01*
X0196079Y0876524D01*
X0142929Y0892272D01*
X0224032Y0940500D02*
X0225327Y0940049D01*
X0226612Y0939571D01*
X0227886Y0939065D01*
X0229150Y0938531D01*
X0053559Y0912350D02*
X0053405Y0912372D01*
X0053251Y0912390D01*
X0053097Y0912404D01*
X0052942Y0912414D01*
X0052788Y0912420D01*
X0052633Y0912422D01*
X0052478Y0912420D01*
X0052323Y0912414D01*
X0052168Y0912405D01*
X0052014Y0912391D01*
X0051860Y0912374D01*
X0051706Y0912352D01*
X0051553Y0912327D01*
X0051401Y0912298D01*
X0051250Y0912265D01*
X0051099Y0912228D01*
X0050950Y0912187D01*
X0050801Y0912143D01*
X0050654Y0912094D01*
X0050508Y0912042D01*
X0050364Y0911986D01*
X0050220Y0911927D01*
X0050079Y0911864D01*
X0049939Y0911798D01*
X0049801Y0911727D01*
X0049664Y0911654D01*
X0049530Y0911577D01*
X0049397Y0911496D01*
X0049267Y0911412D01*
X0049139Y0911325D01*
X0049013Y0911235D01*
X0048889Y0911142D01*
X0048768Y0911045D01*
X0048650Y0910945D01*
X0048534Y0910843D01*
X0048420Y0910737D01*
X0048309Y0910629D01*
X0048202Y0910517D01*
X0048096Y0910403D01*
X0047994Y0910287D01*
X0047895Y0910168D01*
X0047799Y0910046D01*
X0047706Y0909922D01*
X0047617Y0909796D01*
X0047530Y0909667D01*
X0047447Y0909537D01*
X0047367Y0909404D01*
X0047291Y0909269D01*
X0047218Y0909132D01*
X0047148Y0908994D01*
X0047082Y0908853D01*
X0047020Y0908712D01*
X0046961Y0908568D01*
X0046906Y0908423D01*
X0046855Y0908277D01*
X0046807Y0908130D01*
X0046763Y0907981D01*
X0046723Y0907831D01*
X0046687Y0907681D01*
X0046655Y0907529D01*
X0046626Y0907377D01*
X0046602Y0907224D01*
X0046581Y0907070D01*
X0046564Y0906916D01*
X0046551Y0906762D01*
X0046542Y0906607D01*
X0046537Y0906452D01*
X0046536Y0906297D01*
X0046539Y0906142D01*
X0046546Y0905987D01*
X0046557Y0905833D01*
X0046571Y0905679D01*
X0046590Y0905525D01*
X0046612Y0905371D01*
X0046639Y0905219D01*
X0046669Y0905067D01*
X0046472Y0877705D01*
X0043913Y0847783D01*
X0045291Y0823768D01*
X0052378Y0757035D01*
X0057102Y0720815D01*
X0058885Y0705706D01*
X0060297Y0690558D01*
X0061338Y0675379D01*
X0062006Y0660180D01*
X0062302Y0644969D01*
X0062225Y0629755D01*
X0061775Y0614547D01*
X0060953Y0599355D01*
X0059759Y0584188D01*
X0058193Y0569055D01*
X0056258Y0553964D01*
X0053953Y0538926D01*
X0053953Y0538925D02*
X0047850Y0475933D01*
X0027378Y0328689D02*
X0030306Y0327217D01*
X0033267Y0325814D01*
X0036261Y0324482D01*
X0039286Y0323220D01*
X0042339Y0322030D01*
X0045420Y0320913D01*
X0048526Y0319869D01*
X0051656Y0318898D01*
X0054808Y0318001D01*
X0057980Y0317179D01*
X0061171Y0316432D01*
X0064378Y0315761D01*
X0067601Y0315165D01*
X0070836Y0314646D01*
X0074083Y0314203D01*
X0077340Y0313836D01*
X0080604Y0313547D01*
X0083874Y0313335D01*
X0072456Y0355658D02*
X0071674Y0355764D01*
X0070895Y0355888D01*
X0070119Y0356030D01*
X0069346Y0356190D01*
X0068577Y0356367D01*
X0067812Y0356563D01*
X0067052Y0356775D01*
X0066298Y0357006D01*
X0065548Y0357253D01*
X0064805Y0357518D01*
X0064068Y0357800D01*
X0063337Y0358099D01*
X0062614Y0358414D01*
X0142929Y0892271D02*
X0128233Y0896447D01*
X0113448Y0900294D01*
X0098580Y0903809D01*
X0083638Y0906991D01*
X0068628Y0909839D01*
X0053559Y0912350D01*
X0083874Y0313335D02*
X0107496Y0312351D01*
X0209661Y0353099D02*
X0210117Y0353116D01*
X0210571Y0353145D01*
X0211025Y0353185D01*
X0211477Y0353236D01*
X0211928Y0353298D01*
X0212378Y0353370D01*
X0212826Y0353454D01*
X0213271Y0353549D01*
X0213714Y0353654D01*
X0214155Y0353770D01*
X0214592Y0353897D01*
X0215026Y0354035D01*
X0215457Y0354183D01*
X0215884Y0354341D01*
X0216307Y0354510D01*
X0216725Y0354689D01*
X0217140Y0354878D01*
X0217549Y0355077D01*
X0217954Y0355287D01*
X0218353Y0355505D01*
X0218747Y0355734D01*
X0219135Y0355972D01*
X0219518Y0356220D01*
X0219894Y0356476D01*
X0220264Y0356742D01*
X0220627Y0357017D01*
X0220983Y0357300D01*
X0221333Y0357592D01*
X0221675Y0357893D01*
X0222010Y0358201D01*
X0222337Y0358518D01*
X0222656Y0358843D01*
X0222968Y0359175D01*
X0223271Y0359515D01*
X0223566Y0359862D01*
X0223852Y0360216D01*
X0224130Y0360577D01*
X0224399Y0360945D01*
X0224658Y0361319D01*
X0224909Y0361699D01*
X0225150Y0362086D01*
X0225382Y0362478D01*
X0225604Y0362875D01*
X0225816Y0363278D01*
X0226019Y0363686D01*
X0226211Y0364099D01*
X0226394Y0364516D01*
X0048638Y0367666D02*
X0047440Y0379657D01*
X0046519Y0391674D01*
X0045875Y0403708D01*
X0045509Y0415754D01*
X0045422Y0427805D01*
X0045612Y0439855D01*
X0046081Y0451897D01*
X0046827Y0463925D01*
X0047850Y0475933D01*
M02*
