G75*
%MOIN*%
%OFA0B0*%
%FSLAX25Y25*%
%IPPOS*%
%LPD*%
%AMOC8*
5,1,8,0,0,1.08239X$1,22.5*
%
%ADD10C,0.03937*%
D10*
X0390598Y0378886D02*
X0366189Y0471209D01*
X0365008Y0480067D01*
X0364614Y0525736D01*
X0378000Y0584988D01*
X0381543Y0609201D01*
X0379575Y0674752D01*
X0373669Y0733610D01*
X0373669Y0733611D02*
X0373658Y0733745D01*
X0373650Y0733879D01*
X0373646Y0734014D01*
X0373647Y0734148D01*
X0373651Y0734283D01*
X0373659Y0734417D01*
X0373670Y0734552D01*
X0373686Y0734685D01*
X0373706Y0734818D01*
X0373729Y0734951D01*
X0373756Y0735083D01*
X0373788Y0735214D01*
X0373822Y0735344D01*
X0373861Y0735473D01*
X0373903Y0735601D01*
X0373949Y0735727D01*
X0373999Y0735852D01*
X0374052Y0735976D01*
X0374109Y0736098D01*
X0374169Y0736219D01*
X0374233Y0736337D01*
X0374300Y0736454D01*
X0374371Y0736569D01*
X0374445Y0736681D01*
X0374522Y0736792D01*
X0374602Y0736900D01*
X0374685Y0737006D01*
X0374771Y0737109D01*
X0374861Y0737210D01*
X0374953Y0737308D01*
X0375048Y0737403D01*
X0375146Y0737496D01*
X0375246Y0737586D01*
X0375349Y0737673D01*
X0375454Y0737756D01*
X0375562Y0737837D01*
X0375672Y0737915D01*
X0375784Y0737989D01*
X0375898Y0738060D01*
X0376015Y0738128D01*
X0376133Y0738193D01*
X0376253Y0738253D01*
X0376375Y0738311D01*
X0376498Y0738365D01*
X0376623Y0738415D01*
X0376749Y0738462D01*
X0376877Y0738505D01*
X0377006Y0738544D01*
X0377136Y0738579D01*
X0377267Y0738611D01*
X0377398Y0738639D01*
X0377531Y0738663D01*
X0377664Y0738684D01*
X0377797Y0738700D01*
X0377932Y0738713D01*
X0378066Y0738721D01*
X0378200Y0738726D01*
X0378335Y0738727D01*
X0378470Y0738724D01*
X0378604Y0738717D01*
X0378738Y0738706D01*
X0378872Y0738691D01*
X0379006Y0738673D01*
X0379138Y0738650D01*
X0379270Y0738624D01*
X0379402Y0738594D01*
X0379532Y0738560D01*
X0379661Y0738523D01*
X0379789Y0738481D01*
X0379916Y0738436D01*
X0380042Y0738388D01*
X0380166Y0738335D01*
X0380165Y0738335D02*
X0411071Y0726917D01*
X0411070Y0726917D02*
X0411235Y0726854D01*
X0411399Y0726787D01*
X0411560Y0726716D01*
X0411720Y0726641D01*
X0411878Y0726562D01*
X0412034Y0726479D01*
X0412188Y0726393D01*
X0412340Y0726303D01*
X0412490Y0726209D01*
X0412637Y0726112D01*
X0412783Y0726012D01*
X0412925Y0725907D01*
X0413065Y0725800D01*
X0413203Y0725689D01*
X0413337Y0725575D01*
X0413469Y0725457D01*
X0413598Y0725337D01*
X0413724Y0725213D01*
X0413847Y0725087D01*
X0413967Y0724957D01*
X0414084Y0724825D01*
X0414198Y0724689D01*
X0414308Y0724551D01*
X0414415Y0724411D01*
X0414518Y0724268D01*
X0414618Y0724122D01*
X0414715Y0723975D01*
X0414808Y0723824D01*
X0414897Y0723672D01*
X0414983Y0723518D01*
X0415065Y0723361D01*
X0415143Y0723203D01*
X0415217Y0723043D01*
X0415287Y0722881D01*
X0415354Y0722717D01*
X0415416Y0722552D01*
X0415475Y0722385D01*
X0415529Y0722217D01*
X0415579Y0722048D01*
X0415626Y0721878D01*
X0415668Y0721706D01*
X0415706Y0721534D01*
X0415740Y0721360D01*
X0415769Y0721186D01*
X0415795Y0721012D01*
X0420520Y0685776D01*
X0421504Y0603886D01*
X0417370Y0578098D01*
X0410283Y0543650D01*
X0404772Y0522980D01*
X0405559Y0479280D01*
X0430362Y0385579D01*
X0439220Y0310972D01*
X0448276Y0246209D01*
X0452409Y0214122D01*
X0454378Y0188138D01*
X0415599Y0179083D02*
X0415648Y0178056D01*
X0415722Y0177030D01*
X0415822Y0176006D01*
X0415945Y0174985D01*
X0416094Y0173968D01*
X0416267Y0172954D01*
X0416465Y0171945D01*
X0416687Y0170940D01*
X0416933Y0169942D01*
X0417203Y0168949D01*
X0417497Y0167964D01*
X0417815Y0166986D01*
X0418157Y0166016D01*
X0418522Y0165054D01*
X0418910Y0164102D01*
X0419321Y0163159D01*
X0419754Y0162226D01*
X0420210Y0161304D01*
X0420689Y0160394D01*
X0421189Y0159495D01*
X0421711Y0158609D01*
X0422254Y0157736D01*
X0422818Y0156876D01*
X0423402Y0156029D01*
X0424007Y0155198D01*
X0424632Y0154381D01*
X0425277Y0153579D01*
X0425940Y0152794D01*
X0426623Y0152024D01*
X0427324Y0151272D01*
X0428043Y0150536D01*
X0428779Y0149818D01*
X0429533Y0149119D01*
X0430303Y0148437D01*
X0431090Y0147775D01*
X0431892Y0147131D01*
X0432710Y0146508D01*
X0433543Y0145904D01*
X0434390Y0145320D01*
X0435251Y0144758D01*
X0436125Y0144216D01*
X0437012Y0143695D01*
X0437911Y0143196D01*
X0438822Y0142719D01*
X0439745Y0142265D01*
X0440678Y0141832D01*
X0441622Y0141423D01*
X0442575Y0141036D01*
X0443537Y0140673D01*
X0444507Y0140332D01*
X0445486Y0140016D01*
X0446472Y0139723D01*
X0447464Y0139454D01*
X0448463Y0139210D01*
X0449468Y0138989D01*
X0450478Y0138793D01*
X0451492Y0138621D01*
X0452510Y0138474D01*
X0453531Y0138352D01*
X0454555Y0138254D01*
X0455580Y0138181D01*
X0456608Y0138133D01*
X0457636Y0138110D01*
X0458664Y0138112D01*
X0459693Y0138139D01*
X0459693Y0138138D02*
X0527016Y0140697D01*
X0560283Y0143059D01*
X0613433Y0147587D01*
X0603000Y0186366D02*
X0463433Y0178492D01*
X0463180Y0178531D01*
X0462929Y0178575D01*
X0462679Y0178626D01*
X0462430Y0178682D01*
X0462182Y0178745D01*
X0461936Y0178814D01*
X0461692Y0178888D01*
X0461449Y0178969D01*
X0461209Y0179055D01*
X0460971Y0179147D01*
X0460735Y0179245D01*
X0460502Y0179348D01*
X0460271Y0179457D01*
X0460042Y0179572D01*
X0459817Y0179692D01*
X0459595Y0179818D01*
X0459376Y0179949D01*
X0459160Y0180085D01*
X0458947Y0180226D01*
X0458738Y0180373D01*
X0458532Y0180524D01*
X0458330Y0180681D01*
X0458132Y0180842D01*
X0457938Y0181008D01*
X0457749Y0181179D01*
X0457563Y0181354D01*
X0457381Y0181534D01*
X0457204Y0181718D01*
X0457032Y0181906D01*
X0456864Y0182099D01*
X0456701Y0182295D01*
X0456542Y0182495D01*
X0456389Y0182700D01*
X0456240Y0182907D01*
X0456097Y0183119D01*
X0455959Y0183333D01*
X0455826Y0183551D01*
X0455698Y0183772D01*
X0455576Y0183997D01*
X0455459Y0184224D01*
X0455347Y0184453D01*
X0455242Y0184686D01*
X0455142Y0184921D01*
X0455047Y0185158D01*
X0454959Y0185398D01*
X0454876Y0185639D01*
X0454799Y0185883D01*
X0454728Y0186128D01*
X0454663Y0186375D01*
X0454604Y0186623D01*
X0454551Y0186873D01*
X0454504Y0187124D01*
X0454464Y0187376D01*
X0454429Y0187629D01*
X0454400Y0187883D01*
X0454378Y0188138D01*
X0415598Y0179083D02*
X0412449Y0210776D01*
X0407921Y0244437D01*
X0390598Y0378886D01*
X0533315Y0896799D02*
X0526987Y0898763D01*
X0520622Y0900601D01*
X0514220Y0902311D01*
X0514221Y0902311D02*
X0514077Y0902346D01*
X0513932Y0902377D01*
X0513787Y0902404D01*
X0513641Y0902427D01*
X0513495Y0902446D01*
X0513348Y0902462D01*
X0513200Y0902473D01*
X0513053Y0902481D01*
X0512905Y0902485D01*
X0512757Y0902484D01*
X0512610Y0902480D01*
X0512462Y0902472D01*
X0512315Y0902460D01*
X0512168Y0902444D01*
X0512021Y0902424D01*
X0511876Y0902400D01*
X0511730Y0902373D01*
X0511586Y0902341D01*
X0511443Y0902306D01*
X0511300Y0902266D01*
X0511159Y0902224D01*
X0511018Y0902177D01*
X0510879Y0902126D01*
X0510742Y0902072D01*
X0510606Y0902015D01*
X0510471Y0901953D01*
X0510339Y0901888D01*
X0510208Y0901820D01*
X0510079Y0901748D01*
X0509951Y0901673D01*
X0509826Y0901594D01*
X0509703Y0901512D01*
X0509583Y0901427D01*
X0509464Y0901339D01*
X0509348Y0901247D01*
X0509234Y0901153D01*
X0509123Y0901055D01*
X0509015Y0900955D01*
X0508909Y0900851D01*
X0508807Y0900745D01*
X0508707Y0900636D01*
X0508609Y0900525D01*
X0508515Y0900411D01*
X0508424Y0900295D01*
X0508336Y0900176D01*
X0508252Y0900055D01*
X0508170Y0899931D01*
X0508092Y0899806D01*
X0508017Y0899678D01*
X0507946Y0899549D01*
X0507878Y0899418D01*
X0507814Y0899285D01*
X0507753Y0899150D01*
X0507696Y0899014D01*
X0507642Y0898876D01*
X0507593Y0898737D01*
X0507547Y0898596D01*
X0507504Y0898455D01*
X0507466Y0898312D01*
X0507431Y0898169D01*
X0507400Y0898024D01*
X0507373Y0897879D01*
X0507350Y0897733D01*
X0507330Y0897586D01*
X0507331Y0897587D02*
X0506740Y0761760D01*
X0506543Y0709004D01*
X0501622Y0665500D01*
X0500835Y0633610D01*
X0498079Y0624161D02*
X0471701Y0596209D01*
X0471588Y0596092D01*
X0471473Y0595979D01*
X0471355Y0595868D01*
X0471234Y0595760D01*
X0471111Y0595655D01*
X0470985Y0595554D01*
X0470856Y0595455D01*
X0470726Y0595360D01*
X0470593Y0595267D01*
X0470458Y0595178D01*
X0470320Y0595093D01*
X0470181Y0595011D01*
X0470040Y0594932D01*
X0469896Y0594856D01*
X0469751Y0594785D01*
X0469605Y0594716D01*
X0469456Y0594652D01*
X0469306Y0594591D01*
X0469155Y0594533D01*
X0469002Y0594480D01*
X0468848Y0594430D01*
X0468693Y0594384D01*
X0468537Y0594342D01*
X0468380Y0594303D01*
X0468222Y0594269D01*
X0468063Y0594238D01*
X0467903Y0594211D01*
X0467743Y0594188D01*
X0467582Y0594170D01*
X0467421Y0594154D01*
X0467260Y0594143D01*
X0467098Y0594136D01*
X0466936Y0594133D01*
X0466774Y0594134D01*
X0466612Y0594139D01*
X0466451Y0594147D01*
X0466289Y0594160D01*
X0466128Y0594177D01*
X0465968Y0594197D01*
X0465808Y0594222D01*
X0465649Y0594250D01*
X0465490Y0594282D01*
X0465332Y0594318D01*
X0465176Y0594358D01*
X0465020Y0594402D01*
X0464865Y0594450D01*
X0464712Y0594501D01*
X0464559Y0594556D01*
X0464409Y0594615D01*
X0464259Y0594678D01*
X0464112Y0594744D01*
X0463966Y0594813D01*
X0463821Y0594887D01*
X0463679Y0594963D01*
X0463538Y0595044D01*
X0463400Y0595127D01*
X0463263Y0595214D01*
X0463129Y0595304D01*
X0462997Y0595398D01*
X0462867Y0595495D01*
X0462740Y0595595D01*
X0462615Y0595698D01*
X0462493Y0595804D01*
X0462373Y0595913D01*
X0462256Y0596025D01*
X0462142Y0596139D01*
X0462031Y0596257D01*
X0461922Y0596377D01*
X0461817Y0596500D01*
X0461714Y0596625D01*
X0461615Y0596753D01*
X0461519Y0596883D01*
X0461426Y0597015D01*
X0461336Y0597150D01*
X0461250Y0597287D01*
X0461167Y0597426D01*
X0461087Y0597567D01*
X0461011Y0597709D01*
X0460938Y0597854D01*
X0460869Y0598000D01*
X0460804Y0598148D01*
X0460742Y0598298D01*
X0460684Y0598449D01*
X0460630Y0598601D01*
X0460579Y0598755D01*
X0460532Y0598910D01*
X0460489Y0599066D01*
X0460450Y0599223D01*
X0460414Y0599381D01*
X0460383Y0599540D01*
X0460355Y0599699D01*
X0460331Y0599859D01*
X0460311Y0600020D01*
X0460296Y0600181D01*
X0460284Y0600342D01*
X0460283Y0600343D02*
X0460874Y0626130D01*
X0461858Y0655854D01*
X0465598Y0706248D01*
X0465596Y0706386D01*
X0465590Y0706524D01*
X0465581Y0706662D01*
X0465567Y0706799D01*
X0465550Y0706936D01*
X0465528Y0707072D01*
X0465503Y0707208D01*
X0465475Y0707343D01*
X0465442Y0707477D01*
X0465406Y0707610D01*
X0465366Y0707742D01*
X0465322Y0707873D01*
X0465274Y0708003D01*
X0465223Y0708131D01*
X0465169Y0708258D01*
X0465111Y0708383D01*
X0465049Y0708507D01*
X0464984Y0708628D01*
X0464916Y0708748D01*
X0464844Y0708866D01*
X0464769Y0708982D01*
X0464690Y0709096D01*
X0464609Y0709207D01*
X0464524Y0709316D01*
X0464437Y0709423D01*
X0464346Y0709527D01*
X0464253Y0709629D01*
X0464157Y0709728D01*
X0464058Y0709824D01*
X0463956Y0709917D01*
X0463852Y0710008D01*
X0463745Y0710095D01*
X0463636Y0710180D01*
X0463525Y0710261D01*
X0463411Y0710340D01*
X0463295Y0710415D01*
X0463177Y0710487D01*
X0463057Y0710555D01*
X0462936Y0710620D01*
X0462812Y0710682D01*
X0462687Y0710740D01*
X0462560Y0710794D01*
X0462432Y0710845D01*
X0462302Y0710893D01*
X0462171Y0710937D01*
X0462039Y0710977D01*
X0461906Y0711013D01*
X0461772Y0711046D01*
X0461637Y0711074D01*
X0461501Y0711099D01*
X0461365Y0711121D01*
X0461228Y0711138D01*
X0461091Y0711152D01*
X0460953Y0711161D01*
X0460815Y0711167D01*
X0460677Y0711169D01*
X0458906Y0711169D01*
X0458904Y0711195D01*
X0458899Y0711220D01*
X0458891Y0711244D01*
X0458880Y0711268D01*
X0458865Y0711289D01*
X0458848Y0711308D01*
X0458829Y0711325D01*
X0458808Y0711340D01*
X0458784Y0711351D01*
X0458760Y0711359D01*
X0458735Y0711364D01*
X0458709Y0711366D01*
X0438433Y0711366D01*
X0438267Y0711368D01*
X0438100Y0711374D01*
X0437934Y0711384D01*
X0437768Y0711398D01*
X0437603Y0711416D01*
X0437437Y0711438D01*
X0437273Y0711464D01*
X0437109Y0711494D01*
X0436946Y0711528D01*
X0436784Y0711566D01*
X0436623Y0711608D01*
X0436463Y0711654D01*
X0436304Y0711703D01*
X0436146Y0711757D01*
X0435990Y0711814D01*
X0435835Y0711875D01*
X0435681Y0711939D01*
X0435530Y0712008D01*
X0435379Y0712080D01*
X0435231Y0712155D01*
X0435085Y0712234D01*
X0434940Y0712317D01*
X0434798Y0712403D01*
X0434657Y0712493D01*
X0434519Y0712586D01*
X0434383Y0712682D01*
X0434250Y0712781D01*
X0434119Y0712884D01*
X0433990Y0712990D01*
X0433864Y0713099D01*
X0433741Y0713211D01*
X0433620Y0713326D01*
X0433503Y0713443D01*
X0433388Y0713564D01*
X0433276Y0713687D01*
X0433167Y0713813D01*
X0433061Y0713942D01*
X0432958Y0714073D01*
X0432859Y0714206D01*
X0432763Y0714342D01*
X0432670Y0714480D01*
X0432580Y0714621D01*
X0432494Y0714763D01*
X0432411Y0714908D01*
X0432332Y0715054D01*
X0432257Y0715202D01*
X0432185Y0715353D01*
X0432116Y0715504D01*
X0432052Y0715658D01*
X0431991Y0715813D01*
X0431934Y0715969D01*
X0431880Y0716127D01*
X0431831Y0716286D01*
X0431785Y0716446D01*
X0431743Y0716607D01*
X0431705Y0716769D01*
X0431671Y0716932D01*
X0431641Y0717096D01*
X0431615Y0717260D01*
X0431593Y0717426D01*
X0431575Y0717591D01*
X0431561Y0717757D01*
X0431551Y0717923D01*
X0431545Y0718090D01*
X0431543Y0718256D01*
X0431543Y0721602D01*
X0431543Y0722783D01*
X0431543Y0789516D01*
X0431544Y0789516D02*
X0431546Y0789671D01*
X0431552Y0789825D01*
X0431562Y0789979D01*
X0431575Y0790133D01*
X0431593Y0790287D01*
X0431614Y0790440D01*
X0431640Y0790593D01*
X0431669Y0790744D01*
X0431702Y0790895D01*
X0431739Y0791045D01*
X0431779Y0791195D01*
X0431824Y0791343D01*
X0431872Y0791490D01*
X0431924Y0791635D01*
X0431979Y0791780D01*
X0432039Y0791922D01*
X0432101Y0792064D01*
X0432168Y0792203D01*
X0432237Y0792341D01*
X0432311Y0792477D01*
X0432387Y0792612D01*
X0432468Y0792744D01*
X0432551Y0792874D01*
X0432638Y0793002D01*
X0432728Y0793128D01*
X0432821Y0793251D01*
X0432917Y0793372D01*
X0433016Y0793491D01*
X0433118Y0793607D01*
X0433223Y0793720D01*
X0433331Y0793831D01*
X0433442Y0793939D01*
X0433555Y0794044D01*
X0433671Y0794146D01*
X0433790Y0794245D01*
X0433911Y0794341D01*
X0434034Y0794434D01*
X0434160Y0794524D01*
X0434288Y0794611D01*
X0434418Y0794694D01*
X0434550Y0794775D01*
X0434685Y0794851D01*
X0434821Y0794925D01*
X0434959Y0794994D01*
X0435098Y0795061D01*
X0435240Y0795123D01*
X0435382Y0795183D01*
X0435527Y0795238D01*
X0435672Y0795290D01*
X0435819Y0795338D01*
X0435967Y0795383D01*
X0436117Y0795423D01*
X0436267Y0795460D01*
X0436418Y0795493D01*
X0436569Y0795522D01*
X0436722Y0795548D01*
X0436875Y0795569D01*
X0437029Y0795587D01*
X0437183Y0795600D01*
X0437337Y0795610D01*
X0437491Y0795616D01*
X0437646Y0795618D01*
X0460677Y0795618D01*
X0460821Y0795620D01*
X0460965Y0795626D01*
X0461108Y0795636D01*
X0461252Y0795649D01*
X0461395Y0795667D01*
X0461537Y0795688D01*
X0461679Y0795713D01*
X0461820Y0795742D01*
X0461960Y0795775D01*
X0462099Y0795812D01*
X0462237Y0795852D01*
X0462374Y0795896D01*
X0462510Y0795944D01*
X0462644Y0795995D01*
X0462777Y0796051D01*
X0462909Y0796109D01*
X0463039Y0796171D01*
X0463167Y0796237D01*
X0463293Y0796306D01*
X0463417Y0796379D01*
X0463539Y0796455D01*
X0463660Y0796534D01*
X0463778Y0796616D01*
X0463894Y0796702D01*
X0464007Y0796790D01*
X0464118Y0796882D01*
X0464226Y0796977D01*
X0464332Y0797074D01*
X0464435Y0797175D01*
X0464536Y0797278D01*
X0464633Y0797384D01*
X0464728Y0797492D01*
X0464820Y0797603D01*
X0464908Y0797716D01*
X0464994Y0797832D01*
X0465076Y0797950D01*
X0465155Y0798071D01*
X0465231Y0798193D01*
X0465304Y0798317D01*
X0465373Y0798443D01*
X0465439Y0798571D01*
X0465501Y0798701D01*
X0465559Y0798833D01*
X0465615Y0798966D01*
X0465666Y0799100D01*
X0465714Y0799236D01*
X0465758Y0799373D01*
X0465798Y0799511D01*
X0465835Y0799650D01*
X0465868Y0799790D01*
X0465897Y0799931D01*
X0465922Y0800073D01*
X0465943Y0800215D01*
X0465961Y0800358D01*
X0465974Y0800502D01*
X0465984Y0800645D01*
X0465990Y0800789D01*
X0465992Y0800933D01*
X0533315Y0896799D02*
X0534088Y0896541D01*
X0534854Y0896263D01*
X0535614Y0895968D01*
X0536365Y0895654D01*
X0537110Y0895321D01*
X0537845Y0894971D01*
X0538573Y0894604D01*
X0539291Y0894219D01*
X0539999Y0893816D01*
X0540698Y0893397D01*
X0541386Y0892961D01*
X0542064Y0892508D01*
X0542730Y0892039D01*
X0543385Y0891554D01*
X0544028Y0891054D01*
X0544659Y0890538D01*
X0545277Y0890007D01*
X0545882Y0889461D01*
X0546474Y0888901D01*
X0547052Y0888326D01*
X0547616Y0887738D01*
X0548165Y0887136D01*
X0548700Y0886522D01*
X0549220Y0885894D01*
X0549725Y0885254D01*
X0550213Y0884602D01*
X0550686Y0883939D01*
X0551143Y0883264D01*
X0551584Y0882578D01*
X0552007Y0881882D01*
X0552414Y0881176D01*
X0552804Y0880461D01*
X0578000Y0914318D02*
X0577494Y0915164D01*
X0576967Y0915997D01*
X0576420Y0916818D01*
X0575853Y0917624D01*
X0575267Y0918416D01*
X0574661Y0919194D01*
X0574036Y0919957D01*
X0573393Y0920704D01*
X0572732Y0921435D01*
X0572053Y0922150D01*
X0571357Y0922848D01*
X0570644Y0923529D01*
X0569915Y0924192D01*
X0569169Y0924837D01*
X0568408Y0925463D01*
X0567632Y0926071D01*
X0566841Y0926660D01*
X0566036Y0927229D01*
X0565217Y0927778D01*
X0564385Y0928307D01*
X0563541Y0928815D01*
X0562684Y0929302D01*
X0561816Y0929769D01*
X0560936Y0930214D01*
X0560046Y0930637D01*
X0559145Y0931039D01*
X0558235Y0931418D01*
X0557317Y0931775D01*
X0556389Y0932109D01*
X0555454Y0932420D01*
X0554511Y0932709D01*
X0553562Y0932974D01*
X0552606Y0933216D01*
X0552606Y0933217D02*
X0507528Y0944043D01*
X0484890Y0944436D02*
X0484503Y0944426D01*
X0484116Y0944406D01*
X0483729Y0944377D01*
X0483343Y0944339D01*
X0482959Y0944291D01*
X0482575Y0944234D01*
X0482193Y0944168D01*
X0481813Y0944092D01*
X0481435Y0944008D01*
X0481059Y0943914D01*
X0480685Y0943811D01*
X0480314Y0943699D01*
X0479945Y0943578D01*
X0479580Y0943449D01*
X0479218Y0943310D01*
X0478859Y0943163D01*
X0478504Y0943008D01*
X0478153Y0942843D01*
X0477806Y0942671D01*
X0477463Y0942490D01*
X0477125Y0942300D01*
X0476791Y0942103D01*
X0476463Y0941898D01*
X0476139Y0941684D01*
X0475821Y0941463D01*
X0475508Y0941235D01*
X0475200Y0940998D01*
X0474898Y0940755D01*
X0474603Y0940504D01*
X0474313Y0940246D01*
X0474030Y0939982D01*
X0473753Y0939710D01*
X0473483Y0939432D01*
X0473220Y0939148D01*
X0472964Y0938857D01*
X0472715Y0938560D01*
X0472473Y0938257D01*
X0472238Y0937948D01*
X0472011Y0937634D01*
X0471792Y0937315D01*
X0471580Y0936990D01*
X0471376Y0936660D01*
X0471181Y0936325D01*
X0470993Y0935986D01*
X0470814Y0935642D01*
X0470643Y0935295D01*
X0470481Y0934943D01*
X0470327Y0934587D01*
X0470181Y0934227D01*
X0470045Y0933865D01*
X0469917Y0933499D01*
X0469798Y0933130D01*
X0469688Y0932758D01*
X0469588Y0932384D01*
X0469496Y0932007D01*
X0469413Y0931628D01*
X0469339Y0931248D01*
X0578000Y0914319D02*
X0588039Y0898571D01*
X0467370Y0909988D02*
X0467415Y0912659D01*
X0467517Y0915330D01*
X0467677Y0917997D01*
X0467895Y0920660D01*
X0468170Y0923318D01*
X0468503Y0925969D01*
X0468892Y0928613D01*
X0469339Y0931248D01*
X0589417Y0780264D02*
X0596701Y0746799D01*
X0612252Y0640303D01*
X0614220Y0586957D01*
X0617370Y0276524D01*
X0617961Y0245618D01*
X0617370Y0206445D01*
X0657921Y0199752D02*
X0657919Y0198484D01*
X0657887Y0197216D01*
X0657823Y0195950D01*
X0657729Y0194686D01*
X0657605Y0193424D01*
X0657449Y0192166D01*
X0657263Y0190912D01*
X0657047Y0189662D01*
X0656800Y0188419D01*
X0656524Y0187181D01*
X0656217Y0185951D01*
X0655880Y0184729D01*
X0655514Y0183515D01*
X0655119Y0182310D01*
X0654694Y0181116D01*
X0654240Y0179932D01*
X0653758Y0178759D01*
X0653247Y0177599D01*
X0652709Y0176451D01*
X0652142Y0175317D01*
X0651549Y0174197D01*
X0650928Y0173091D01*
X0650280Y0172001D01*
X0649606Y0170927D01*
X0648907Y0169870D01*
X0648181Y0168830D01*
X0647431Y0167808D01*
X0646656Y0166804D01*
X0645857Y0165820D01*
X0645035Y0164855D01*
X0644189Y0163911D01*
X0643320Y0162987D01*
X0642429Y0162085D01*
X0641517Y0161205D01*
X0640583Y0160347D01*
X0639629Y0159512D01*
X0638655Y0158701D01*
X0637661Y0157913D01*
X0636649Y0157150D01*
X0635618Y0156411D01*
X0634570Y0155698D01*
X0633505Y0155011D01*
X0632423Y0154350D01*
X0631325Y0153715D01*
X0630213Y0153107D01*
X0629086Y0152526D01*
X0627945Y0151973D01*
X0626791Y0151448D01*
X0625625Y0150950D01*
X0624447Y0150482D01*
X0623258Y0150042D01*
X0622058Y0149631D01*
X0620849Y0149250D01*
X0619631Y0148897D01*
X0618405Y0148575D01*
X0617171Y0148283D01*
X0615931Y0148020D01*
X0614684Y0147788D01*
X0613433Y0147586D01*
X0603000Y0186366D02*
X0603343Y0186390D01*
X0603684Y0186422D01*
X0604025Y0186462D01*
X0604364Y0186510D01*
X0604703Y0186567D01*
X0605040Y0186632D01*
X0605375Y0186705D01*
X0605708Y0186786D01*
X0606039Y0186876D01*
X0606368Y0186973D01*
X0606694Y0187079D01*
X0607018Y0187192D01*
X0607339Y0187313D01*
X0607657Y0187442D01*
X0607972Y0187579D01*
X0608283Y0187723D01*
X0608590Y0187875D01*
X0608894Y0188034D01*
X0609194Y0188201D01*
X0609490Y0188375D01*
X0609781Y0188556D01*
X0610068Y0188744D01*
X0610350Y0188939D01*
X0610627Y0189141D01*
X0610899Y0189350D01*
X0611167Y0189565D01*
X0611428Y0189787D01*
X0611685Y0190015D01*
X0611935Y0190249D01*
X0612180Y0190489D01*
X0612419Y0190735D01*
X0612652Y0190987D01*
X0612879Y0191245D01*
X0613099Y0191507D01*
X0613313Y0191776D01*
X0613520Y0192049D01*
X0613721Y0192327D01*
X0613915Y0192610D01*
X0614101Y0192898D01*
X0614281Y0193190D01*
X0614453Y0193487D01*
X0614619Y0193787D01*
X0614776Y0194092D01*
X0614927Y0194400D01*
X0615070Y0194712D01*
X0615205Y0195027D01*
X0615204Y0195027D02*
X0615460Y0195666D01*
X0615700Y0196311D01*
X0615925Y0196962D01*
X0616134Y0197618D01*
X0616327Y0198279D01*
X0616503Y0198944D01*
X0616664Y0199613D01*
X0616809Y0200286D01*
X0616937Y0200963D01*
X0617049Y0201642D01*
X0617144Y0202324D01*
X0617223Y0203008D01*
X0617286Y0203693D01*
X0617332Y0204380D01*
X0617361Y0205068D01*
X0617373Y0205756D01*
X0617369Y0206444D01*
X0657921Y0199752D02*
X0653197Y0636957D01*
X0636268Y0752508D01*
X0629378Y0783610D01*
X0611071Y0853295D01*
X0500834Y0633610D02*
X0500818Y0633158D01*
X0500791Y0632706D01*
X0500753Y0632255D01*
X0500704Y0631806D01*
X0500645Y0631357D01*
X0500576Y0630910D01*
X0500496Y0630465D01*
X0500405Y0630021D01*
X0500305Y0629580D01*
X0500193Y0629142D01*
X0500072Y0628706D01*
X0499940Y0628273D01*
X0499798Y0627844D01*
X0499646Y0627418D01*
X0499484Y0626995D01*
X0499312Y0626577D01*
X0499130Y0626162D01*
X0498939Y0625752D01*
X0498738Y0625347D01*
X0498527Y0624947D01*
X0498307Y0624551D01*
X0498078Y0624161D01*
X0507528Y0944043D02*
X0499985Y0944336D01*
X0492438Y0944467D01*
X0484890Y0944437D01*
X0588039Y0898571D02*
X0591393Y0893168D01*
X0594614Y0887685D01*
X0597702Y0882125D01*
X0600653Y0876492D01*
X0603468Y0870789D01*
X0606143Y0865020D01*
X0608678Y0859188D01*
X0611071Y0853296D01*
X0466583Y0854083D02*
X0465992Y0800933D01*
X0552803Y0880461D02*
X0556882Y0872531D01*
X0560779Y0864511D01*
X0564494Y0856405D01*
X0568024Y0848216D01*
X0571368Y0839950D01*
X0574523Y0831610D01*
X0577489Y0823200D01*
X0580263Y0814725D01*
X0582844Y0806190D01*
X0585231Y0797599D01*
X0587422Y0788955D01*
X0589417Y0780264D01*
X0466583Y0854083D02*
X0467370Y0909988D01*
M02*
